G04 #@! TF.FileFunction,Legend,Top*
%FSLAX46Y46*%
G04 Gerber Fmt 4.6, Leading zero omitted, Abs format (unit mm)*
G04 Created by KiCad (PCBNEW (after 2015-mar-04 BZR unknown)-product) date 22/04/2015 13:56:25*
%MOMM*%
G01*
G04 APERTURE LIST*
%ADD10C,0.100000*%
%ADD11C,0.250000*%
%ADD12C,0.200000*%
%ADD13C,0.300000*%
%ADD14C,0.150000*%
G04 APERTURE END LIST*
D10*
D11*
X106674333Y-79981876D02*
X106674333Y-78731876D01*
X107388619Y-79981876D01*
X107388619Y-78731876D01*
X108221952Y-78731876D02*
X108460048Y-78731876D01*
X108579095Y-78791400D01*
X108698143Y-78910448D01*
X108757667Y-79148543D01*
X108757667Y-79565210D01*
X108698143Y-79803305D01*
X108579095Y-79922352D01*
X108460048Y-79981876D01*
X108221952Y-79981876D01*
X108102905Y-79922352D01*
X107983857Y-79803305D01*
X107924333Y-79565210D01*
X107924333Y-79148543D01*
X107983857Y-78910448D01*
X108102905Y-78791400D01*
X108221952Y-78731876D01*
X109293381Y-79981876D02*
X109293381Y-78731876D01*
X109591000Y-78731876D01*
X109769572Y-78791400D01*
X109888619Y-78910448D01*
X109948143Y-79029495D01*
X110007667Y-79267590D01*
X110007667Y-79446162D01*
X109948143Y-79684257D01*
X109888619Y-79803305D01*
X109769572Y-79922352D01*
X109591000Y-79981876D01*
X109293381Y-79981876D01*
X110781476Y-78731876D02*
X111019572Y-78731876D01*
X111138619Y-78791400D01*
X111257667Y-78910448D01*
X111317191Y-79148543D01*
X111317191Y-79565210D01*
X111257667Y-79803305D01*
X111138619Y-79922352D01*
X111019572Y-79981876D01*
X110781476Y-79981876D01*
X110662429Y-79922352D01*
X110543381Y-79803305D01*
X110483857Y-79565210D01*
X110483857Y-79148543D01*
X110543381Y-78910448D01*
X110662429Y-78791400D01*
X110781476Y-78731876D01*
X107180286Y-80731876D02*
X107477905Y-81981876D01*
X107716001Y-81089019D01*
X107954096Y-81981876D01*
X108251715Y-80731876D01*
X108668381Y-81922352D02*
X108846953Y-81981876D01*
X109144572Y-81981876D01*
X109263619Y-81922352D01*
X109323143Y-81862829D01*
X109382667Y-81743781D01*
X109382667Y-81624733D01*
X109323143Y-81505686D01*
X109263619Y-81446162D01*
X109144572Y-81386638D01*
X108906476Y-81327114D01*
X108787429Y-81267590D01*
X108727905Y-81208067D01*
X108668381Y-81089019D01*
X108668381Y-80969971D01*
X108727905Y-80850924D01*
X108787429Y-80791400D01*
X108906476Y-80731876D01*
X109204096Y-80731876D01*
X109382667Y-80791400D01*
X109918381Y-81981876D02*
X109918381Y-80731876D01*
X110632667Y-81981876D01*
X110632667Y-80731876D01*
D12*
X110117999Y-51785781D02*
X110117999Y-50785781D01*
X110594189Y-51119114D02*
X110594189Y-51785781D01*
X110594189Y-51214352D02*
X110641808Y-51166733D01*
X110737046Y-51119114D01*
X110879904Y-51119114D01*
X110975142Y-51166733D01*
X111022761Y-51261971D01*
X111022761Y-51785781D01*
X111927523Y-51119114D02*
X111927523Y-51928638D01*
X111879904Y-52023876D01*
X111832285Y-52071495D01*
X111737046Y-52119114D01*
X111594189Y-52119114D01*
X111498951Y-52071495D01*
X111927523Y-51738162D02*
X111832285Y-51785781D01*
X111641808Y-51785781D01*
X111546570Y-51738162D01*
X111498951Y-51690543D01*
X111451332Y-51595305D01*
X111451332Y-51309590D01*
X111498951Y-51214352D01*
X111546570Y-51166733D01*
X111641808Y-51119114D01*
X111832285Y-51119114D01*
X111927523Y-51166733D01*
X112403713Y-51690543D02*
X112451332Y-51738162D01*
X112403713Y-51785781D01*
X112356094Y-51738162D01*
X112403713Y-51690543D01*
X112403713Y-51785781D01*
X113641808Y-51785781D02*
X113641808Y-50785781D01*
X114022760Y-51119114D02*
X114260855Y-51785781D01*
X114498951Y-51119114D01*
X115308475Y-51785781D02*
X115308475Y-51261971D01*
X115260856Y-51166733D01*
X115165618Y-51119114D01*
X114975141Y-51119114D01*
X114879903Y-51166733D01*
X115308475Y-51738162D02*
X115213237Y-51785781D01*
X114975141Y-51785781D01*
X114879903Y-51738162D01*
X114832284Y-51642924D01*
X114832284Y-51547686D01*
X114879903Y-51452448D01*
X114975141Y-51404829D01*
X115213237Y-51404829D01*
X115308475Y-51357210D01*
X115165618Y-50738162D02*
X115022760Y-50881019D01*
X115784665Y-51119114D02*
X115784665Y-51785781D01*
X115784665Y-51214352D02*
X115832284Y-51166733D01*
X115927522Y-51119114D01*
X116070380Y-51119114D01*
X116165618Y-51166733D01*
X116213237Y-51261971D01*
X116213237Y-51785781D01*
X118022761Y-51785781D02*
X117689427Y-51309590D01*
X117451332Y-51785781D02*
X117451332Y-50785781D01*
X117832285Y-50785781D01*
X117927523Y-50833400D01*
X117975142Y-50881019D01*
X118022761Y-50976257D01*
X118022761Y-51119114D01*
X117975142Y-51214352D01*
X117927523Y-51261971D01*
X117832285Y-51309590D01*
X117451332Y-51309590D01*
X118832285Y-51738162D02*
X118737047Y-51785781D01*
X118546570Y-51785781D01*
X118451332Y-51738162D01*
X118403713Y-51642924D01*
X118403713Y-51261971D01*
X118451332Y-51166733D01*
X118546570Y-51119114D01*
X118737047Y-51119114D01*
X118832285Y-51166733D01*
X118879904Y-51261971D01*
X118879904Y-51357210D01*
X118403713Y-51452448D01*
X119308475Y-51119114D02*
X119308475Y-51785781D01*
X119308475Y-51214352D02*
X119356094Y-51166733D01*
X119451332Y-51119114D01*
X119594190Y-51119114D01*
X119689428Y-51166733D01*
X119737047Y-51261971D01*
X119737047Y-51785781D01*
X120594190Y-51738162D02*
X120498952Y-51785781D01*
X120308475Y-51785781D01*
X120213237Y-51738162D01*
X120165618Y-51642924D01*
X120165618Y-51261971D01*
X120213237Y-51166733D01*
X120308475Y-51119114D01*
X120498952Y-51119114D01*
X120594190Y-51166733D01*
X120641809Y-51261971D01*
X120641809Y-51357210D01*
X120165618Y-51452448D01*
X120498952Y-50738162D02*
X120356094Y-50881019D01*
X121832285Y-51785781D02*
X121832285Y-50785781D01*
X122165619Y-51500067D01*
X122498952Y-50785781D01*
X122498952Y-51785781D01*
X123117999Y-51785781D02*
X123022761Y-51738162D01*
X122975142Y-51690543D01*
X122927523Y-51595305D01*
X122927523Y-51309590D01*
X122975142Y-51214352D01*
X123022761Y-51166733D01*
X123117999Y-51119114D01*
X123260857Y-51119114D01*
X123356095Y-51166733D01*
X123403714Y-51214352D01*
X123451333Y-51309590D01*
X123451333Y-51595305D01*
X123403714Y-51690543D01*
X123356095Y-51738162D01*
X123260857Y-51785781D01*
X123117999Y-51785781D01*
X123879904Y-51785781D02*
X123879904Y-51119114D01*
X123879904Y-51309590D02*
X123927523Y-51214352D01*
X123975142Y-51166733D01*
X124070380Y-51119114D01*
X124165619Y-51119114D01*
X124927524Y-51785781D02*
X124927524Y-51261971D01*
X124879905Y-51166733D01*
X124784667Y-51119114D01*
X124594190Y-51119114D01*
X124498952Y-51166733D01*
X124927524Y-51738162D02*
X124832286Y-51785781D01*
X124594190Y-51785781D01*
X124498952Y-51738162D01*
X124451333Y-51642924D01*
X124451333Y-51547686D01*
X124498952Y-51452448D01*
X124594190Y-51404829D01*
X124832286Y-51404829D01*
X124927524Y-51357210D01*
X125546571Y-51785781D02*
X125451333Y-51738162D01*
X125403714Y-51642924D01*
X125403714Y-50785781D01*
X126308477Y-51738162D02*
X126213239Y-51785781D01*
X126022762Y-51785781D01*
X125927524Y-51738162D01*
X125879905Y-51642924D01*
X125879905Y-51261971D01*
X125927524Y-51166733D01*
X126022762Y-51119114D01*
X126213239Y-51119114D01*
X126308477Y-51166733D01*
X126356096Y-51261971D01*
X126356096Y-51357210D01*
X125879905Y-51452448D01*
X126737048Y-51738162D02*
X126832286Y-51785781D01*
X127022762Y-51785781D01*
X127118001Y-51738162D01*
X127165620Y-51642924D01*
X127165620Y-51595305D01*
X127118001Y-51500067D01*
X127022762Y-51452448D01*
X126879905Y-51452448D01*
X126784667Y-51404829D01*
X126737048Y-51309590D01*
X126737048Y-51261971D01*
X126784667Y-51166733D01*
X126879905Y-51119114D01*
X127022762Y-51119114D01*
X127118001Y-51166733D01*
D11*
X130136143Y-51734981D02*
X129659952Y-51734981D01*
X129659952Y-50734981D01*
X130898048Y-51734981D02*
X130898048Y-51211171D01*
X130850429Y-51115933D01*
X130755191Y-51068314D01*
X130564714Y-51068314D01*
X130469476Y-51115933D01*
X130898048Y-51687362D02*
X130802810Y-51734981D01*
X130564714Y-51734981D01*
X130469476Y-51687362D01*
X130421857Y-51592124D01*
X130421857Y-51496886D01*
X130469476Y-51401648D01*
X130564714Y-51354029D01*
X130802810Y-51354029D01*
X130898048Y-51306410D01*
X131374238Y-51734981D02*
X131374238Y-50734981D01*
X131374238Y-51115933D02*
X131469476Y-51068314D01*
X131659953Y-51068314D01*
X131755191Y-51115933D01*
X131802810Y-51163552D01*
X131850429Y-51258790D01*
X131850429Y-51544505D01*
X131802810Y-51639743D01*
X131755191Y-51687362D01*
X131659953Y-51734981D01*
X131469476Y-51734981D01*
X131374238Y-51687362D01*
X132279000Y-51639743D02*
X132326619Y-51687362D01*
X132279000Y-51734981D01*
X132231381Y-51687362D01*
X132279000Y-51639743D01*
X132279000Y-51734981D01*
X134088524Y-51639743D02*
X134040905Y-51687362D01*
X133898048Y-51734981D01*
X133802810Y-51734981D01*
X133659952Y-51687362D01*
X133564714Y-51592124D01*
X133517095Y-51496886D01*
X133469476Y-51306410D01*
X133469476Y-51163552D01*
X133517095Y-50973076D01*
X133564714Y-50877838D01*
X133659952Y-50782600D01*
X133802810Y-50734981D01*
X133898048Y-50734981D01*
X134040905Y-50782600D01*
X134088524Y-50830219D01*
X134517095Y-51639743D02*
X134564714Y-51687362D01*
X134517095Y-51734981D01*
X134469476Y-51687362D01*
X134517095Y-51639743D01*
X134517095Y-51734981D01*
X135564714Y-51639743D02*
X135517095Y-51687362D01*
X135374238Y-51734981D01*
X135279000Y-51734981D01*
X135136142Y-51687362D01*
X135040904Y-51592124D01*
X134993285Y-51496886D01*
X134945666Y-51306410D01*
X134945666Y-51163552D01*
X134993285Y-50973076D01*
X135040904Y-50877838D01*
X135136142Y-50782600D01*
X135279000Y-50734981D01*
X135374238Y-50734981D01*
X135517095Y-50782600D01*
X135564714Y-50830219D01*
X135993285Y-51639743D02*
X136040904Y-51687362D01*
X135993285Y-51734981D01*
X135945666Y-51687362D01*
X135993285Y-51639743D01*
X135993285Y-51734981D01*
X137183761Y-51449267D02*
X137659952Y-51449267D01*
X137088523Y-51734981D02*
X137421856Y-50734981D01*
X137755190Y-51734981D01*
X138088523Y-51068314D02*
X138088523Y-52068314D01*
X138088523Y-51115933D02*
X138183761Y-51068314D01*
X138374238Y-51068314D01*
X138469476Y-51115933D01*
X138517095Y-51163552D01*
X138564714Y-51258790D01*
X138564714Y-51544505D01*
X138517095Y-51639743D01*
X138469476Y-51687362D01*
X138374238Y-51734981D01*
X138183761Y-51734981D01*
X138088523Y-51687362D01*
X139136142Y-51734981D02*
X139040904Y-51687362D01*
X138993285Y-51592124D01*
X138993285Y-50734981D01*
X139517095Y-51734981D02*
X139517095Y-51068314D01*
X139517095Y-50734981D02*
X139469476Y-50782600D01*
X139517095Y-50830219D01*
X139564714Y-50782600D01*
X139517095Y-50734981D01*
X139517095Y-50830219D01*
X140421857Y-51687362D02*
X140326619Y-51734981D01*
X140136142Y-51734981D01*
X140040904Y-51687362D01*
X139993285Y-51639743D01*
X139945666Y-51544505D01*
X139945666Y-51258790D01*
X139993285Y-51163552D01*
X140040904Y-51115933D01*
X140136142Y-51068314D01*
X140326619Y-51068314D01*
X140421857Y-51115933D01*
X141279000Y-51734981D02*
X141279000Y-51211171D01*
X141231381Y-51115933D01*
X141136143Y-51068314D01*
X140945666Y-51068314D01*
X140850428Y-51115933D01*
X141279000Y-51687362D02*
X141183762Y-51734981D01*
X140945666Y-51734981D01*
X140850428Y-51687362D01*
X140802809Y-51592124D01*
X140802809Y-51496886D01*
X140850428Y-51401648D01*
X140945666Y-51354029D01*
X141183762Y-51354029D01*
X141279000Y-51306410D01*
X142183762Y-51734981D02*
X142183762Y-50734981D01*
X142183762Y-51687362D02*
X142088524Y-51734981D01*
X141898047Y-51734981D01*
X141802809Y-51687362D01*
X141755190Y-51639743D01*
X141707571Y-51544505D01*
X141707571Y-51258790D01*
X141755190Y-51163552D01*
X141802809Y-51115933D01*
X141898047Y-51068314D01*
X142088524Y-51068314D01*
X142183762Y-51115933D01*
X143088524Y-51734981D02*
X143088524Y-51211171D01*
X143040905Y-51115933D01*
X142945667Y-51068314D01*
X142755190Y-51068314D01*
X142659952Y-51115933D01*
X143088524Y-51687362D02*
X142993286Y-51734981D01*
X142755190Y-51734981D01*
X142659952Y-51687362D01*
X142612333Y-51592124D01*
X142612333Y-51496886D01*
X142659952Y-51401648D01*
X142755190Y-51354029D01*
X142993286Y-51354029D01*
X143088524Y-51306410D01*
X143517095Y-51687362D02*
X143612333Y-51734981D01*
X143802809Y-51734981D01*
X143898048Y-51687362D01*
X143945667Y-51592124D01*
X143945667Y-51544505D01*
X143898048Y-51449267D01*
X143802809Y-51401648D01*
X143659952Y-51401648D01*
X143564714Y-51354029D01*
X143517095Y-51258790D01*
X143517095Y-51211171D01*
X143564714Y-51115933D01*
X143659952Y-51068314D01*
X143802809Y-51068314D01*
X143898048Y-51115933D01*
D13*
X112462801Y-92145657D02*
X111962801Y-92145657D01*
X111962801Y-92931371D02*
X111962801Y-91431371D01*
X112677087Y-91431371D01*
X113177086Y-92502800D02*
X113891372Y-92502800D01*
X113034229Y-92931371D02*
X113534229Y-91431371D01*
X114034229Y-92931371D01*
X115391372Y-92931371D02*
X114891372Y-92217086D01*
X114534229Y-92931371D02*
X114534229Y-91431371D01*
X115105657Y-91431371D01*
X115248515Y-91502800D01*
X115319943Y-91574229D01*
X115391372Y-91717086D01*
X115391372Y-91931371D01*
X115319943Y-92074229D01*
X115248515Y-92145657D01*
X115105657Y-92217086D01*
X114534229Y-92217086D01*
X116034229Y-91431371D02*
X116034229Y-92645657D01*
X116105657Y-92788514D01*
X116177086Y-92859943D01*
X116319943Y-92931371D01*
X116605657Y-92931371D01*
X116748515Y-92859943D01*
X116819943Y-92788514D01*
X116891372Y-92645657D01*
X116891372Y-91431371D01*
X117534229Y-92859943D02*
X117748515Y-92931371D01*
X118105658Y-92931371D01*
X118248515Y-92859943D01*
X118319944Y-92788514D01*
X118391372Y-92645657D01*
X118391372Y-92502800D01*
X118319944Y-92359943D01*
X118248515Y-92288514D01*
X118105658Y-92217086D01*
X117819944Y-92145657D01*
X117677086Y-92074229D01*
X117605658Y-92002800D01*
X117534229Y-91859943D01*
X117534229Y-91717086D01*
X117605658Y-91574229D01*
X117677086Y-91502800D01*
X117819944Y-91431371D01*
X118177086Y-91431371D01*
X118391372Y-91502800D01*
X118962800Y-92502800D02*
X119677086Y-92502800D01*
X118819943Y-92931371D02*
X119319943Y-91431371D01*
X119819943Y-92931371D01*
X121177086Y-92788514D02*
X121105657Y-92859943D01*
X120891371Y-92931371D01*
X120748514Y-92931371D01*
X120534229Y-92859943D01*
X120391371Y-92717086D01*
X120319943Y-92574229D01*
X120248514Y-92288514D01*
X120248514Y-92074229D01*
X120319943Y-91788514D01*
X120391371Y-91645657D01*
X120534229Y-91502800D01*
X120748514Y-91431371D01*
X120891371Y-91431371D01*
X121105657Y-91502800D01*
X121177086Y-91574229D01*
X143040443Y-68152371D02*
X143897586Y-68152371D01*
X143469015Y-69652371D02*
X143469015Y-68152371D01*
X144254729Y-68152371D02*
X145254729Y-69652371D01*
X145254729Y-68152371D02*
X144254729Y-69652371D01*
X143907901Y-67252071D02*
X143407901Y-66537786D01*
X143050758Y-67252071D02*
X143050758Y-65752071D01*
X143622186Y-65752071D01*
X143765044Y-65823500D01*
X143836472Y-65894929D01*
X143907901Y-66037786D01*
X143907901Y-66252071D01*
X143836472Y-66394929D01*
X143765044Y-66466357D01*
X143622186Y-66537786D01*
X143050758Y-66537786D01*
X144407901Y-65752071D02*
X145407901Y-67252071D01*
X145407901Y-65752071D02*
X144407901Y-67252071D01*
X123050357Y-76516900D02*
X122907500Y-76445471D01*
X122693214Y-76445471D01*
X122478929Y-76516900D01*
X122336071Y-76659757D01*
X122264643Y-76802614D01*
X122193214Y-77088329D01*
X122193214Y-77302614D01*
X122264643Y-77588329D01*
X122336071Y-77731186D01*
X122478929Y-77874043D01*
X122693214Y-77945471D01*
X122836071Y-77945471D01*
X123050357Y-77874043D01*
X123121786Y-77802614D01*
X123121786Y-77302614D01*
X122836071Y-77302614D01*
X123236086Y-75100671D02*
X122736086Y-74386386D01*
X122378943Y-75100671D02*
X122378943Y-73600671D01*
X122950371Y-73600671D01*
X123093229Y-73672100D01*
X123164657Y-73743529D01*
X123236086Y-73886386D01*
X123236086Y-74100671D01*
X123164657Y-74243529D01*
X123093229Y-74314957D01*
X122950371Y-74386386D01*
X122378943Y-74386386D01*
X122266257Y-70959071D02*
X123123400Y-70959071D01*
X122694829Y-72459071D02*
X122694829Y-70959071D01*
X122240857Y-68368271D02*
X122740857Y-69868271D01*
X123240857Y-68368271D01*
D14*
X130230880Y-66024760D02*
X130230880Y-60822840D01*
X127833120Y-60822840D02*
X127833120Y-66024760D01*
X126733300Y-68023740D02*
X127833120Y-68023740D01*
X127233680Y-68623180D02*
X127233680Y-67424300D01*
X127833120Y-67419220D02*
X130230880Y-67419220D01*
X128032000Y-57717800D02*
X130032000Y-57717800D01*
X130032000Y-55667800D02*
X128032000Y-55667800D01*
X130057000Y-79282800D02*
X130057000Y-77282800D01*
X128007000Y-77282800D02*
X128007000Y-79282800D01*
X141538960Y-58277760D02*
X141538960Y-58079640D01*
X141538960Y-58079640D02*
X141340840Y-58079640D01*
X141340840Y-58277760D02*
X141340840Y-58079640D01*
X141538960Y-58277760D02*
X141340840Y-58277760D01*
X142138400Y-57729120D02*
X142138400Y-57381140D01*
X142138400Y-57381140D02*
X141889480Y-57381140D01*
X141889480Y-57729120D02*
X141889480Y-57381140D01*
X142138400Y-57729120D02*
X141889480Y-57729120D01*
X142138400Y-57381140D02*
X142138400Y-57279540D01*
X142138400Y-57279540D02*
X140942060Y-57279540D01*
X140942060Y-57381140D02*
X140942060Y-57279540D01*
X142138400Y-57381140D02*
X140942060Y-57381140D01*
X140891260Y-57381140D02*
X140891260Y-57279540D01*
X140891260Y-57279540D02*
X140741400Y-57279540D01*
X140741400Y-57381140D02*
X140741400Y-57279540D01*
X140891260Y-57381140D02*
X140741400Y-57381140D01*
X142138400Y-59077860D02*
X142138400Y-58976260D01*
X142138400Y-58976260D02*
X140942060Y-58976260D01*
X140942060Y-59077860D02*
X140942060Y-58976260D01*
X142138400Y-59077860D02*
X140942060Y-59077860D01*
X140891260Y-59077860D02*
X140891260Y-58976260D01*
X140891260Y-58976260D02*
X140741400Y-58976260D01*
X140741400Y-59077860D02*
X140741400Y-58976260D01*
X140891260Y-59077860D02*
X140741400Y-59077860D01*
X142138400Y-57729120D02*
X142138400Y-57579260D01*
X142138400Y-57579260D02*
X141889480Y-57579260D01*
X141889480Y-57729120D02*
X141889480Y-57579260D01*
X142138400Y-57729120D02*
X141889480Y-57729120D01*
X142189200Y-56629300D02*
X142189200Y-59728100D01*
X142189200Y-59728100D02*
X140690600Y-59728100D01*
X140690600Y-59728100D02*
X140690600Y-56629300D01*
X140690600Y-56629300D02*
X142189200Y-56629300D01*
X141939254Y-58725962D02*
G75*
G03X141937740Y-57630060I-499354J547262D01*
G01*
X140941502Y-58726833D02*
G75*
G03X141937740Y-58727340I498398J548133D01*
G01*
X140940546Y-57631438D02*
G75*
G03X140942060Y-58727340I499354J-547262D01*
G01*
X141938298Y-57630567D02*
G75*
G03X140942060Y-57630060I-498398J-548133D01*
G01*
X141414500Y-70561800D02*
X139864500Y-70561800D01*
X139864500Y-69011800D02*
X139864500Y-70561800D01*
X142684500Y-70281800D02*
X142684500Y-67741800D01*
X140144500Y-65201800D02*
X140144500Y-67741800D01*
X140144500Y-67741800D02*
X142684500Y-67741800D01*
X142684500Y-67741800D02*
X142684500Y-65201800D01*
X142684500Y-65201800D02*
X140144500Y-65201800D01*
X118618000Y-70535800D02*
X118618000Y-78155800D01*
X121158000Y-70535800D02*
X121158000Y-78155800D01*
X121438000Y-67715800D02*
X121438000Y-69265800D01*
X118618000Y-78155800D02*
X121158000Y-78155800D01*
X121158000Y-70535800D02*
X118618000Y-70535800D01*
X118338000Y-69265800D02*
X118338000Y-67715800D01*
X118338000Y-67715800D02*
X121438000Y-67715800D01*
X121226000Y-59978800D02*
X121226000Y-57978800D01*
X123376000Y-57978800D02*
X123376000Y-59978800D01*
X130107000Y-70297800D02*
X130107000Y-72297800D01*
X127957000Y-72297800D02*
X127957000Y-70297800D01*
X103759000Y-54914800D02*
X103759000Y-62534800D01*
X103759000Y-62534800D02*
X108839000Y-62534800D01*
X108839000Y-62534800D02*
X108839000Y-52374800D01*
X108839000Y-52374800D02*
X106299000Y-52374800D01*
X105029000Y-52094800D02*
X103479000Y-52094800D01*
X106299000Y-52374800D02*
X106299000Y-54914800D01*
X106299000Y-54914800D02*
X103759000Y-54914800D01*
X103479000Y-52094800D02*
X103479000Y-53644800D01*
X113665000Y-69265800D02*
X106045000Y-69265800D01*
X113665000Y-71805800D02*
X106045000Y-71805800D01*
X116485000Y-72085800D02*
X114935000Y-72085800D01*
X106045000Y-69265800D02*
X106045000Y-71805800D01*
X113665000Y-71805800D02*
X113665000Y-69265800D01*
X114935000Y-68985800D02*
X116485000Y-68985800D01*
X116485000Y-68985800D02*
X116485000Y-72085800D01*
X133539900Y-77787500D02*
X133539900Y-76237500D01*
X133539900Y-76237500D02*
X136639900Y-76237500D01*
X136639900Y-76237500D02*
X136639900Y-77787500D01*
X136359900Y-79057500D02*
X136359900Y-89217500D01*
X136359900Y-89217500D02*
X133819900Y-89217500D01*
X133819900Y-89217500D02*
X133819900Y-79057500D01*
X136359900Y-79057500D02*
X133819900Y-79057500D01*
X140131800Y-84137500D02*
X140131800Y-76517500D01*
X137591800Y-84137500D02*
X137591800Y-76517500D01*
X137311800Y-86957500D02*
X137311800Y-85407500D01*
X140131800Y-76517500D02*
X137591800Y-76517500D01*
X137591800Y-84137500D02*
X140131800Y-84137500D01*
X140411800Y-85407500D02*
X140411800Y-86957500D01*
X140411800Y-86957500D02*
X137311800Y-86957500D01*
X127230143Y-63349166D02*
X127277762Y-63396785D01*
X127325381Y-63539642D01*
X127325381Y-63634880D01*
X127277762Y-63777738D01*
X127182524Y-63872976D01*
X127087286Y-63920595D01*
X126896810Y-63968214D01*
X126753952Y-63968214D01*
X126563476Y-63920595D01*
X126468238Y-63872976D01*
X126373000Y-63777738D01*
X126325381Y-63634880D01*
X126325381Y-63539642D01*
X126373000Y-63396785D01*
X126420619Y-63349166D01*
X127325381Y-62396785D02*
X127325381Y-62968214D01*
X127325381Y-62682500D02*
X126325381Y-62682500D01*
X126468238Y-62777738D01*
X126563476Y-62872976D01*
X126611095Y-62968214D01*
X127302569Y-68404692D02*
X127302569Y-67642787D01*
X127683521Y-68023739D02*
X126921616Y-68023739D01*
X128865334Y-59349943D02*
X128817715Y-59397562D01*
X128674858Y-59445181D01*
X128579620Y-59445181D01*
X128436762Y-59397562D01*
X128341524Y-59302324D01*
X128293905Y-59207086D01*
X128246286Y-59016610D01*
X128246286Y-58873752D01*
X128293905Y-58683276D01*
X128341524Y-58588038D01*
X128436762Y-58492800D01*
X128579620Y-58445181D01*
X128674858Y-58445181D01*
X128817715Y-58492800D01*
X128865334Y-58540419D01*
X129246286Y-58540419D02*
X129293905Y-58492800D01*
X129389143Y-58445181D01*
X129627239Y-58445181D01*
X129722477Y-58492800D01*
X129770096Y-58540419D01*
X129817715Y-58635657D01*
X129817715Y-58730895D01*
X129770096Y-58873752D01*
X129198667Y-59445181D01*
X129817715Y-59445181D01*
X131689143Y-78449466D02*
X131736762Y-78497085D01*
X131784381Y-78639942D01*
X131784381Y-78735180D01*
X131736762Y-78878038D01*
X131641524Y-78973276D01*
X131546286Y-79020895D01*
X131355810Y-79068514D01*
X131212952Y-79068514D01*
X131022476Y-79020895D01*
X130927238Y-78973276D01*
X130832000Y-78878038D01*
X130784381Y-78735180D01*
X130784381Y-78639942D01*
X130832000Y-78497085D01*
X130879619Y-78449466D01*
X130784381Y-78116133D02*
X130784381Y-77497085D01*
X131165333Y-77830419D01*
X131165333Y-77687561D01*
X131212952Y-77592323D01*
X131260571Y-77544704D01*
X131355810Y-77497085D01*
X131593905Y-77497085D01*
X131689143Y-77544704D01*
X131736762Y-77592323D01*
X131784381Y-77687561D01*
X131784381Y-77973276D01*
X131736762Y-78068514D01*
X131689143Y-78116133D01*
X140368281Y-58662795D02*
X139368281Y-58662795D01*
X139368281Y-58424700D01*
X139415900Y-58281842D01*
X139511138Y-58186604D01*
X139606376Y-58138985D01*
X139796852Y-58091366D01*
X139939710Y-58091366D01*
X140130186Y-58138985D01*
X140225424Y-58186604D01*
X140320662Y-58281842D01*
X140368281Y-58424700D01*
X140368281Y-58662795D01*
X140368281Y-57138985D02*
X140368281Y-57710414D01*
X140368281Y-57424700D02*
X139368281Y-57424700D01*
X139511138Y-57519938D01*
X139606376Y-57615176D01*
X139653995Y-57710414D01*
X118437410Y-79776681D02*
X118437410Y-78776681D01*
X119485029Y-79681443D02*
X119437410Y-79729062D01*
X119294553Y-79776681D01*
X119199315Y-79776681D01*
X119056457Y-79729062D01*
X118961219Y-79633824D01*
X118913600Y-79538586D01*
X118865981Y-79348110D01*
X118865981Y-79205252D01*
X118913600Y-79014776D01*
X118961219Y-78919538D01*
X119056457Y-78824300D01*
X119199315Y-78776681D01*
X119294553Y-78776681D01*
X119437410Y-78824300D01*
X119485029Y-78871919D01*
X119865981Y-79729062D02*
X120008838Y-79776681D01*
X120246934Y-79776681D01*
X120342172Y-79729062D01*
X120389791Y-79681443D01*
X120437410Y-79586205D01*
X120437410Y-79490967D01*
X120389791Y-79395729D01*
X120342172Y-79348110D01*
X120246934Y-79300490D01*
X120056457Y-79252871D01*
X119961219Y-79205252D01*
X119913600Y-79157633D01*
X119865981Y-79062395D01*
X119865981Y-78967157D01*
X119913600Y-78871919D01*
X119961219Y-78824300D01*
X120056457Y-78776681D01*
X120294553Y-78776681D01*
X120437410Y-78824300D01*
X120865981Y-79776681D02*
X120865981Y-78776681D01*
X121246934Y-78776681D01*
X121342172Y-78824300D01*
X121389791Y-78871919D01*
X121437410Y-78967157D01*
X121437410Y-79110014D01*
X121389791Y-79205252D01*
X121342172Y-79252871D01*
X121246934Y-79300490D01*
X120865981Y-79300490D01*
X125053381Y-59145466D02*
X124577190Y-59478800D01*
X125053381Y-59716895D02*
X124053381Y-59716895D01*
X124053381Y-59335942D01*
X124101000Y-59240704D01*
X124148619Y-59193085D01*
X124243857Y-59145466D01*
X124386714Y-59145466D01*
X124481952Y-59193085D01*
X124529571Y-59240704D01*
X124577190Y-59335942D01*
X124577190Y-59716895D01*
X125053381Y-58193085D02*
X125053381Y-58764514D01*
X125053381Y-58478800D02*
X124053381Y-58478800D01*
X124196238Y-58574038D01*
X124291476Y-58669276D01*
X124339095Y-58764514D01*
X127184381Y-71464466D02*
X126708190Y-71797800D01*
X127184381Y-72035895D02*
X126184381Y-72035895D01*
X126184381Y-71654942D01*
X126232000Y-71559704D01*
X126279619Y-71512085D01*
X126374857Y-71464466D01*
X126517714Y-71464466D01*
X126612952Y-71512085D01*
X126660571Y-71559704D01*
X126708190Y-71654942D01*
X126708190Y-72035895D01*
X126279619Y-71083514D02*
X126232000Y-71035895D01*
X126184381Y-70940657D01*
X126184381Y-70702561D01*
X126232000Y-70607323D01*
X126279619Y-70559704D01*
X126374857Y-70512085D01*
X126470095Y-70512085D01*
X126612952Y-70559704D01*
X127184381Y-71131133D01*
X127184381Y-70512085D01*
X110688381Y-58581752D02*
X110212190Y-58915086D01*
X110688381Y-59153181D02*
X109688381Y-59153181D01*
X109688381Y-58772228D01*
X109736000Y-58676990D01*
X109783619Y-58629371D01*
X109878857Y-58581752D01*
X110021714Y-58581752D01*
X110116952Y-58629371D01*
X110164571Y-58676990D01*
X110212190Y-58772228D01*
X110212190Y-59153181D01*
X110402667Y-58200800D02*
X110402667Y-57724609D01*
X110688381Y-58296038D02*
X109688381Y-57962705D01*
X110688381Y-57629371D01*
X110688381Y-57296038D02*
X109688381Y-57296038D01*
X109688381Y-57057943D01*
X109736000Y-56915085D01*
X109831238Y-56819847D01*
X109926476Y-56772228D01*
X110116952Y-56724609D01*
X110259810Y-56724609D01*
X110450286Y-56772228D01*
X110545524Y-56819847D01*
X110640762Y-56915085D01*
X110688381Y-57057943D01*
X110688381Y-57296038D01*
X110688381Y-56296038D02*
X109688381Y-56296038D01*
X109688381Y-55629372D02*
X109688381Y-55438895D01*
X109736000Y-55343657D01*
X109831238Y-55248419D01*
X110021714Y-55200800D01*
X110355048Y-55200800D01*
X110545524Y-55248419D01*
X110640762Y-55343657D01*
X110688381Y-55438895D01*
X110688381Y-55629372D01*
X110640762Y-55724610D01*
X110545524Y-55819848D01*
X110355048Y-55867467D01*
X110021714Y-55867467D01*
X109831238Y-55819848D01*
X109736000Y-55724610D01*
X109688381Y-55629372D01*
X108777352Y-68460881D02*
X108777352Y-67460881D01*
X109015447Y-67460881D01*
X109158305Y-67508500D01*
X109253543Y-67603738D01*
X109301162Y-67698976D01*
X109348781Y-67889452D01*
X109348781Y-68032310D01*
X109301162Y-68222786D01*
X109253543Y-68318024D01*
X109158305Y-68413262D01*
X109015447Y-68460881D01*
X108777352Y-68460881D01*
X109777352Y-68460881D02*
X109777352Y-67460881D01*
X109777352Y-67937071D02*
X110348781Y-67937071D01*
X110348781Y-68460881D02*
X110348781Y-67460881D01*
X110682114Y-67460881D02*
X111253543Y-67460881D01*
X110967828Y-68460881D02*
X110967828Y-67460881D01*
X111539257Y-67556119D02*
X111586876Y-67508500D01*
X111682114Y-67460881D01*
X111920210Y-67460881D01*
X112015448Y-67508500D01*
X112063067Y-67556119D01*
X112110686Y-67651357D01*
X112110686Y-67746595D01*
X112063067Y-67889452D01*
X111491638Y-68460881D01*
X112110686Y-68460881D01*
X112491638Y-67556119D02*
X112539257Y-67508500D01*
X112634495Y-67460881D01*
X112872591Y-67460881D01*
X112967829Y-67508500D01*
X113015448Y-67556119D01*
X113063067Y-67651357D01*
X113063067Y-67746595D01*
X113015448Y-67889452D01*
X112444019Y-68460881D01*
X113063067Y-68460881D01*
X134018424Y-90431881D02*
X133542233Y-90431881D01*
X133542233Y-89431881D01*
X134351757Y-89431881D02*
X134351757Y-90241405D01*
X134399376Y-90336643D01*
X134446995Y-90384262D01*
X134542233Y-90431881D01*
X134732710Y-90431881D01*
X134827948Y-90384262D01*
X134875567Y-90336643D01*
X134923186Y-90241405D01*
X134923186Y-89431881D01*
X135304138Y-89431881D02*
X135970805Y-90431881D01*
X135970805Y-89431881D02*
X135304138Y-90431881D01*
X149042381Y-86649986D02*
X148042381Y-86649986D01*
X148042381Y-86269033D01*
X148090000Y-86173795D01*
X148137619Y-86126176D01*
X148232857Y-86078557D01*
X148375714Y-86078557D01*
X148470952Y-86126176D01*
X148518571Y-86173795D01*
X148566190Y-86269033D01*
X148566190Y-86649986D01*
X149042381Y-85078557D02*
X148566190Y-85411891D01*
X149042381Y-85649986D02*
X148042381Y-85649986D01*
X148042381Y-85269033D01*
X148090000Y-85173795D01*
X148137619Y-85126176D01*
X148232857Y-85078557D01*
X148375714Y-85078557D01*
X148470952Y-85126176D01*
X148518571Y-85173795D01*
X148566190Y-85269033D01*
X148566190Y-85649986D01*
X148518571Y-84649986D02*
X148518571Y-84316652D01*
X149042381Y-84173795D02*
X149042381Y-84649986D01*
X148042381Y-84649986D01*
X148042381Y-84173795D01*
X148994762Y-83792843D02*
X149042381Y-83649986D01*
X149042381Y-83411890D01*
X148994762Y-83316652D01*
X148947143Y-83269033D01*
X148851905Y-83221414D01*
X148756667Y-83221414D01*
X148661429Y-83269033D01*
X148613810Y-83316652D01*
X148566190Y-83411890D01*
X148518571Y-83602367D01*
X148470952Y-83697605D01*
X148423333Y-83745224D01*
X148328095Y-83792843D01*
X148232857Y-83792843D01*
X148137619Y-83745224D01*
X148090000Y-83697605D01*
X148042381Y-83602367D01*
X148042381Y-83364271D01*
X148090000Y-83221414D01*
X148661429Y-82792843D02*
X148661429Y-82030938D01*
X149042381Y-82411890D02*
X148280476Y-82411890D01*
X148042381Y-81697605D02*
X148042381Y-81126176D01*
X149042381Y-81411891D02*
X148042381Y-81411891D01*
X148518571Y-80792843D02*
X148518571Y-80459509D01*
X149042381Y-80316652D02*
X149042381Y-80792843D01*
X148042381Y-80792843D01*
X148042381Y-80316652D01*
X149042381Y-79888081D02*
X148042381Y-79888081D01*
X148756667Y-79554747D01*
X148042381Y-79221414D01*
X149042381Y-79221414D01*
X149042381Y-78745224D02*
X148042381Y-78745224D01*
X148042381Y-78364271D01*
X148090000Y-78269033D01*
X148137619Y-78221414D01*
X148232857Y-78173795D01*
X148375714Y-78173795D01*
X148470952Y-78221414D01*
X148518571Y-78269033D01*
X148566190Y-78364271D01*
X148566190Y-78745224D01*
M02*
