G04 #@! TF.FileFunction,Copper,L2,Bot,Signal*
%FSLAX46Y46*%
G04 Gerber Fmt 4.6, Leading zero omitted, Abs format (unit mm)*
G04 Created by KiCad (PCBNEW (after 2015-mar-04 BZR unknown)-product) date 22/04/2015 13:56:25*
%MOMM*%
G01*
G04 APERTURE LIST*
%ADD10C,0.100000*%
%ADD11C,1.524000*%
%ADD12R,1.727200X1.727200*%
%ADD13O,1.727200X1.727200*%
%ADD14R,2.032000X1.727200*%
%ADD15O,2.032000X1.727200*%
%ADD16R,1.727200X2.032000*%
%ADD17O,1.727200X2.032000*%
%ADD18R,1.397000X1.397000*%
%ADD19C,1.397000*%
%ADD20C,1.000760*%
%ADD21C,0.600000*%
%ADD22C,0.200000*%
G04 APERTURE END LIST*
D10*
D11*
X135864600Y-92506800D03*
X125274600Y-92506800D03*
D12*
X141414500Y-69011800D03*
D13*
X141414500Y-66471800D03*
D14*
X119888000Y-69265800D03*
D15*
X119888000Y-71805800D03*
X119888000Y-74345800D03*
X119888000Y-76885800D03*
D12*
X105029000Y-53644800D03*
D13*
X107569000Y-53644800D03*
X105029000Y-56184800D03*
X107569000Y-56184800D03*
X105029000Y-58724800D03*
X107569000Y-58724800D03*
X105029000Y-61264800D03*
X107569000Y-61264800D03*
D16*
X114935000Y-70535800D03*
D17*
X112395000Y-70535800D03*
X109855000Y-70535800D03*
X107315000Y-70535800D03*
D18*
X112776000Y-76631800D03*
D19*
X112776000Y-79171800D03*
X112776000Y-81711800D03*
X112776000Y-84251800D03*
X105156000Y-84251800D03*
X105156000Y-81711800D03*
X105156000Y-79171800D03*
X105156000Y-76631800D03*
D20*
X121800845Y-63949355D02*
X121447023Y-64303177D01*
X121447023Y-65871823D02*
X121800845Y-66225645D01*
D18*
X132842000Y-61391800D03*
D19*
X132842000Y-63931800D03*
X132842000Y-66471800D03*
X132842000Y-69011800D03*
X132842000Y-71551800D03*
X132842000Y-74091800D03*
X132842000Y-76631800D03*
X132842000Y-79171800D03*
X132842000Y-81711800D03*
X132842000Y-84251800D03*
X125222000Y-84251800D03*
X125222000Y-81711800D03*
X125222000Y-79171800D03*
X125222000Y-76631800D03*
X125222000Y-74091800D03*
X125222000Y-71551800D03*
X125222000Y-69011800D03*
X125222000Y-66471800D03*
X125222000Y-63931800D03*
X125222000Y-61391800D03*
D14*
X135089900Y-77787500D03*
D15*
X135089900Y-80327500D03*
X135089900Y-82867500D03*
X135089900Y-85407500D03*
X135089900Y-87947500D03*
D14*
X138861800Y-85407500D03*
D15*
X138861800Y-82867500D03*
X138861800Y-80327500D03*
X138861800Y-77787500D03*
D21*
X131305500Y-80289500D03*
X134747000Y-72567800D03*
X120396000Y-85394800D03*
X132410400Y-85648900D03*
X129857700Y-84188400D03*
X115824000Y-76250800D03*
X127762000Y-82727800D03*
X130302000Y-83235800D03*
D22*
X135089900Y-80327500D02*
X131343500Y-80327500D01*
X131343500Y-80327500D02*
X131305500Y-80289500D01*
X135089900Y-80327500D02*
X138861800Y-80327500D01*
X124523501Y-60693301D02*
X125222000Y-61391800D01*
X118851399Y-55021199D02*
X124523501Y-60693301D01*
X105341799Y-55021199D02*
X118851399Y-55021199D01*
X105029000Y-54708400D02*
X105341799Y-55021199D01*
X105029000Y-53644800D02*
X105029000Y-54708400D01*
X135089900Y-77787500D02*
X138861800Y-77787500D01*
X117094000Y-70535800D02*
X118364000Y-69265800D01*
X118364000Y-69265800D02*
X119888000Y-69265800D01*
X114935000Y-70535800D02*
X117094000Y-70535800D01*
X132842000Y-54025800D02*
X132842000Y-61391800D01*
X132461000Y-53644800D02*
X132842000Y-54025800D01*
X107569000Y-53644800D02*
X132461000Y-53644800D01*
X134747000Y-72567800D02*
X134747000Y-71979018D01*
X134747000Y-71979018D02*
X133321281Y-70553299D01*
X133321281Y-70553299D02*
X127208329Y-70553299D01*
X127208329Y-70553299D02*
X126209828Y-71551800D01*
X126209828Y-71551800D02*
X125222000Y-71551800D01*
X106405399Y-57348401D02*
X106705401Y-57048399D01*
X130162500Y-85102800D02*
X127114500Y-85102800D01*
X132842000Y-84251800D02*
X131013500Y-84251800D01*
X103865399Y-57953473D02*
X104470471Y-57348401D01*
X131013500Y-84251800D02*
X130162500Y-85102800D01*
X127114500Y-85102800D02*
X126220501Y-84208801D01*
X125264999Y-83253299D02*
X124722001Y-82710301D01*
X126220501Y-84208801D02*
X126220501Y-83772519D01*
X126220501Y-83772519D02*
X125701281Y-83253299D01*
X125701281Y-83253299D02*
X125264999Y-83253299D01*
X104470471Y-57348401D02*
X106405399Y-57348401D01*
X124722001Y-82710301D02*
X115795281Y-82710301D01*
X112296719Y-80170301D02*
X103865399Y-71738981D01*
X106705401Y-57048399D02*
X107569000Y-56184800D01*
X115795281Y-82710301D02*
X113255281Y-80170301D01*
X113255281Y-80170301D02*
X112296719Y-80170301D01*
X103865399Y-71738981D02*
X103865399Y-57953473D01*
X123571000Y-85394800D02*
X126337591Y-88161391D01*
X133274000Y-88379400D02*
X126555600Y-88379400D01*
X126555600Y-88379400D02*
X126337591Y-88161391D01*
X120396000Y-85394800D02*
X123571000Y-85394800D01*
X133274000Y-88379400D02*
X133274000Y-86512500D01*
X133274000Y-86512500D02*
X132410400Y-85648900D01*
X135089900Y-85407500D02*
X134937500Y-85407500D01*
X130086300Y-81737300D02*
X128841700Y-81737300D01*
X134937500Y-85407500D02*
X133840501Y-84310501D01*
X133840501Y-84310501D02*
X133840501Y-83772519D01*
X131059301Y-82710301D02*
X130086300Y-81737300D01*
X133840501Y-83772519D02*
X132778283Y-82710301D01*
X132778283Y-82710301D02*
X131059301Y-82710301D01*
X128841700Y-81737300D02*
X128232100Y-81127700D01*
X128232100Y-81127700D02*
X128232100Y-74726900D01*
X128232100Y-74726900D02*
X127597000Y-74091800D01*
X127597000Y-74091800D02*
X125222000Y-74091800D01*
X135089900Y-85407500D02*
X136305900Y-85407500D01*
X136305900Y-85407500D02*
X138861800Y-85407500D01*
X126670000Y-83629600D02*
X127228800Y-84188400D01*
X127228800Y-84188400D02*
X129857700Y-84188400D01*
X126670000Y-79142018D02*
X126670000Y-83629600D01*
X125222000Y-76631800D02*
X125920499Y-77330299D01*
X125920499Y-77330299D02*
X125920499Y-78392517D01*
X125920499Y-78392517D02*
X126670000Y-79142018D01*
X135089900Y-82867500D02*
X138861800Y-82867500D01*
X124523501Y-77330299D02*
X125222000Y-76631800D01*
X123404380Y-78449420D02*
X124523501Y-77330299D01*
X114926421Y-78449420D02*
X123404380Y-78449420D01*
X114632802Y-78155800D02*
X114926421Y-78449420D01*
X112362998Y-78155800D02*
X114632802Y-78155800D01*
X111018610Y-76811412D02*
X112362998Y-78155800D01*
X111018610Y-67254410D02*
X111018610Y-76811412D01*
X105029000Y-61264800D02*
X111018610Y-67254410D01*
X113558610Y-73985410D02*
X115824000Y-76250800D01*
X113558610Y-67254410D02*
X113558610Y-73985410D01*
X107569000Y-61264800D02*
X113558610Y-67254410D01*
X129794000Y-82727800D02*
X130302000Y-83235800D01*
X127762000Y-82727800D02*
X129794000Y-82727800D01*
X132143501Y-72250299D02*
X132842000Y-71551800D01*
X131843499Y-72550301D02*
X132143501Y-72250299D01*
X125285717Y-72550301D02*
X131843499Y-72550301D01*
X124223499Y-73612519D02*
X125285717Y-72550301D01*
X124223499Y-74348294D02*
X124223499Y-73612519D01*
X120522383Y-78049410D02*
X124223499Y-74348294D01*
X115092110Y-78049410D02*
X120522383Y-78049410D01*
X113674500Y-76631800D02*
X115092110Y-78049410D01*
X112776000Y-76631800D02*
X113674500Y-76631800D01*
G36*
X111946567Y-78446476D02*
X111930429Y-78462281D01*
X111808720Y-78640033D01*
X111723854Y-78838040D01*
X111714687Y-78881163D01*
X108532600Y-75699076D01*
X108532600Y-70715200D01*
X108532600Y-70562800D01*
X108532600Y-70508800D01*
X108532600Y-70356400D01*
X108503937Y-70119377D01*
X108429584Y-69892500D01*
X108312398Y-69684488D01*
X108156882Y-69503335D01*
X107969013Y-69356002D01*
X107756011Y-69248152D01*
X107532095Y-69185310D01*
X107342000Y-69254623D01*
X107342000Y-70508800D01*
X108532600Y-70508800D01*
X108532600Y-70562800D01*
X107342000Y-70562800D01*
X107342000Y-71816977D01*
X107532095Y-71886290D01*
X107756011Y-71823448D01*
X107969013Y-71715598D01*
X108156882Y-71568265D01*
X108312398Y-71387112D01*
X108429584Y-71179100D01*
X108503937Y-70952223D01*
X108532600Y-70715200D01*
X108532600Y-75699076D01*
X107288000Y-74454476D01*
X107288000Y-71816977D01*
X107288000Y-70562800D01*
X107288000Y-70508800D01*
X107288000Y-69254623D01*
X107097905Y-69185310D01*
X106873989Y-69248152D01*
X106660987Y-69356002D01*
X106473118Y-69503335D01*
X106317602Y-69684488D01*
X106200416Y-69892500D01*
X106126063Y-70119377D01*
X106097400Y-70356400D01*
X106097400Y-70508800D01*
X107288000Y-70508800D01*
X107288000Y-70562800D01*
X106097400Y-70562800D01*
X106097400Y-70715200D01*
X106126063Y-70952223D01*
X106200416Y-71179100D01*
X106317602Y-71387112D01*
X106473118Y-71568265D01*
X106660987Y-71715598D01*
X106873989Y-71823448D01*
X107097905Y-71886290D01*
X107288000Y-71816977D01*
X107288000Y-74454476D01*
X104365399Y-71531875D01*
X104365399Y-62338421D01*
X104525101Y-62426219D01*
X104760169Y-62500787D01*
X105005243Y-62528277D01*
X105022886Y-62528400D01*
X105035114Y-62528400D01*
X105280549Y-62504335D01*
X105496291Y-62439197D01*
X110518610Y-67461516D01*
X110518610Y-69305734D01*
X110344665Y-69211683D01*
X110109082Y-69138758D01*
X109863822Y-69112980D01*
X109618225Y-69135331D01*
X109381647Y-69204959D01*
X109163099Y-69319214D01*
X108970905Y-69473741D01*
X108812387Y-69662657D01*
X108693581Y-69878764D01*
X108619013Y-70113832D01*
X108591523Y-70358906D01*
X108591400Y-70376549D01*
X108591400Y-70695051D01*
X108615465Y-70940486D01*
X108686744Y-71176572D01*
X108802521Y-71394317D01*
X108958386Y-71585427D01*
X109148404Y-71742623D01*
X109365335Y-71859917D01*
X109600918Y-71932842D01*
X109846178Y-71958620D01*
X110091775Y-71936269D01*
X110328353Y-71866641D01*
X110518610Y-71767176D01*
X110518610Y-76811412D01*
X110523114Y-76857355D01*
X110527142Y-76903388D01*
X110527875Y-76905912D01*
X110528132Y-76908529D01*
X110541478Y-76952735D01*
X110554367Y-76997096D01*
X110555577Y-76999431D01*
X110556337Y-77001947D01*
X110578004Y-77042697D01*
X110599274Y-77083732D01*
X110600915Y-77085788D01*
X110602149Y-77088108D01*
X110631337Y-77123896D01*
X110660155Y-77159994D01*
X110663762Y-77163651D01*
X110663825Y-77163729D01*
X110663896Y-77163788D01*
X110665057Y-77164965D01*
X111946567Y-78446476D01*
X111946567Y-78446476D01*
G37*
X111946567Y-78446476D02*
X111930429Y-78462281D01*
X111808720Y-78640033D01*
X111723854Y-78838040D01*
X111714687Y-78881163D01*
X108532600Y-75699076D01*
X108532600Y-70715200D01*
X108532600Y-70562800D01*
X108532600Y-70508800D01*
X108532600Y-70356400D01*
X108503937Y-70119377D01*
X108429584Y-69892500D01*
X108312398Y-69684488D01*
X108156882Y-69503335D01*
X107969013Y-69356002D01*
X107756011Y-69248152D01*
X107532095Y-69185310D01*
X107342000Y-69254623D01*
X107342000Y-70508800D01*
X108532600Y-70508800D01*
X108532600Y-70562800D01*
X107342000Y-70562800D01*
X107342000Y-71816977D01*
X107532095Y-71886290D01*
X107756011Y-71823448D01*
X107969013Y-71715598D01*
X108156882Y-71568265D01*
X108312398Y-71387112D01*
X108429584Y-71179100D01*
X108503937Y-70952223D01*
X108532600Y-70715200D01*
X108532600Y-75699076D01*
X107288000Y-74454476D01*
X107288000Y-71816977D01*
X107288000Y-70562800D01*
X107288000Y-70508800D01*
X107288000Y-69254623D01*
X107097905Y-69185310D01*
X106873989Y-69248152D01*
X106660987Y-69356002D01*
X106473118Y-69503335D01*
X106317602Y-69684488D01*
X106200416Y-69892500D01*
X106126063Y-70119377D01*
X106097400Y-70356400D01*
X106097400Y-70508800D01*
X107288000Y-70508800D01*
X107288000Y-70562800D01*
X106097400Y-70562800D01*
X106097400Y-70715200D01*
X106126063Y-70952223D01*
X106200416Y-71179100D01*
X106317602Y-71387112D01*
X106473118Y-71568265D01*
X106660987Y-71715598D01*
X106873989Y-71823448D01*
X107097905Y-71886290D01*
X107288000Y-71816977D01*
X107288000Y-74454476D01*
X104365399Y-71531875D01*
X104365399Y-62338421D01*
X104525101Y-62426219D01*
X104760169Y-62500787D01*
X105005243Y-62528277D01*
X105022886Y-62528400D01*
X105035114Y-62528400D01*
X105280549Y-62504335D01*
X105496291Y-62439197D01*
X110518610Y-67461516D01*
X110518610Y-69305734D01*
X110344665Y-69211683D01*
X110109082Y-69138758D01*
X109863822Y-69112980D01*
X109618225Y-69135331D01*
X109381647Y-69204959D01*
X109163099Y-69319214D01*
X108970905Y-69473741D01*
X108812387Y-69662657D01*
X108693581Y-69878764D01*
X108619013Y-70113832D01*
X108591523Y-70358906D01*
X108591400Y-70376549D01*
X108591400Y-70695051D01*
X108615465Y-70940486D01*
X108686744Y-71176572D01*
X108802521Y-71394317D01*
X108958386Y-71585427D01*
X109148404Y-71742623D01*
X109365335Y-71859917D01*
X109600918Y-71932842D01*
X109846178Y-71958620D01*
X110091775Y-71936269D01*
X110328353Y-71866641D01*
X110518610Y-71767176D01*
X110518610Y-76811412D01*
X110523114Y-76857355D01*
X110527142Y-76903388D01*
X110527875Y-76905912D01*
X110528132Y-76908529D01*
X110541478Y-76952735D01*
X110554367Y-76997096D01*
X110555577Y-76999431D01*
X110556337Y-77001947D01*
X110578004Y-77042697D01*
X110599274Y-77083732D01*
X110600915Y-77085788D01*
X110602149Y-77088108D01*
X110631337Y-77123896D01*
X110660155Y-77159994D01*
X110663762Y-77163651D01*
X110663825Y-77163729D01*
X110663896Y-77163788D01*
X110665057Y-77164965D01*
X111946567Y-78446476D01*
G36*
X149537500Y-94553800D02*
X142680035Y-94553800D01*
X142680035Y-69875400D01*
X142680035Y-68148200D01*
X142678100Y-68124389D01*
X142678100Y-66477914D01*
X142678100Y-66465686D01*
X142654035Y-66220251D01*
X142582756Y-65984165D01*
X142466979Y-65766420D01*
X142311114Y-65575310D01*
X142121096Y-65418114D01*
X141904165Y-65300820D01*
X141668582Y-65227895D01*
X141423322Y-65202117D01*
X141177725Y-65224468D01*
X140941147Y-65294096D01*
X140722599Y-65408351D01*
X140530405Y-65562878D01*
X140371887Y-65751794D01*
X140253081Y-65967901D01*
X140178513Y-66202969D01*
X140151023Y-66448043D01*
X140150900Y-66465686D01*
X140150900Y-66477914D01*
X140174965Y-66723349D01*
X140246244Y-66959435D01*
X140362021Y-67177180D01*
X140517886Y-67368290D01*
X140707904Y-67525486D01*
X140924835Y-67642780D01*
X141160418Y-67715705D01*
X141405678Y-67741483D01*
X141651275Y-67719132D01*
X141887853Y-67649504D01*
X142106401Y-67535249D01*
X142298595Y-67380722D01*
X142457113Y-67191806D01*
X142575919Y-66975699D01*
X142650487Y-66740631D01*
X142677977Y-66495557D01*
X142678100Y-66477914D01*
X142678100Y-68124389D01*
X142674760Y-68083291D01*
X142641078Y-67975576D01*
X142578778Y-67881470D01*
X142492772Y-67808394D01*
X142389841Y-67762109D01*
X142278100Y-67746265D01*
X140550900Y-67746265D01*
X140485991Y-67751540D01*
X140378276Y-67785222D01*
X140284170Y-67847522D01*
X140211094Y-67933528D01*
X140164809Y-68036459D01*
X140148965Y-68148200D01*
X140148965Y-69875400D01*
X140154240Y-69940309D01*
X140187922Y-70048024D01*
X140250222Y-70142130D01*
X140336228Y-70215206D01*
X140439159Y-70261491D01*
X140550900Y-70277335D01*
X142278100Y-70277335D01*
X142343009Y-70272060D01*
X142450724Y-70238378D01*
X142544830Y-70176078D01*
X142617906Y-70090072D01*
X142664191Y-69987141D01*
X142680035Y-69875400D01*
X142680035Y-94553800D01*
X140284620Y-94553800D01*
X140284620Y-82876322D01*
X140284620Y-77796322D01*
X140262269Y-77550725D01*
X140192641Y-77314147D01*
X140078386Y-77095599D01*
X139923859Y-76903405D01*
X139734943Y-76744887D01*
X139518836Y-76626081D01*
X139283768Y-76551513D01*
X139038694Y-76524023D01*
X139021051Y-76523900D01*
X138702549Y-76523900D01*
X138457114Y-76547965D01*
X138221028Y-76619244D01*
X138003283Y-76735021D01*
X137812173Y-76890886D01*
X137654977Y-77080904D01*
X137543271Y-77287500D01*
X136507835Y-77287500D01*
X136507835Y-76923900D01*
X136502560Y-76858991D01*
X136468878Y-76751276D01*
X136406578Y-76657170D01*
X136320572Y-76584094D01*
X136217641Y-76537809D01*
X136105900Y-76521965D01*
X134073900Y-76521965D01*
X134008991Y-76527240D01*
X133940202Y-76548749D01*
X133940547Y-76524087D01*
X133940547Y-73984087D01*
X133898704Y-73772762D01*
X133816611Y-73573590D01*
X133697395Y-73394157D01*
X133545598Y-73241296D01*
X133367001Y-73120831D01*
X133168407Y-73037349D01*
X132957380Y-72994032D01*
X132741958Y-72992528D01*
X132530347Y-73032895D01*
X132330607Y-73113595D01*
X132150345Y-73231555D01*
X131996429Y-73382281D01*
X131874720Y-73560033D01*
X131789854Y-73758040D01*
X131745064Y-73968759D01*
X131742056Y-74184165D01*
X131780945Y-74396053D01*
X131860249Y-74596352D01*
X131976947Y-74777432D01*
X132126596Y-74932397D01*
X132303493Y-75055344D01*
X132500902Y-75141590D01*
X132711304Y-75187850D01*
X132926684Y-75192362D01*
X133138838Y-75154953D01*
X133339685Y-75077050D01*
X133521576Y-74961618D01*
X133677582Y-74813055D01*
X133801762Y-74637020D01*
X133889384Y-74440218D01*
X133937111Y-74230145D01*
X133940547Y-73984087D01*
X133940547Y-76524087D01*
X133898704Y-76312762D01*
X133816611Y-76113590D01*
X133697395Y-75934157D01*
X133545598Y-75781296D01*
X133367001Y-75660831D01*
X133168407Y-75577349D01*
X132957380Y-75534032D01*
X132741958Y-75532528D01*
X132530347Y-75572895D01*
X132330607Y-75653595D01*
X132150345Y-75771555D01*
X131996429Y-75922281D01*
X131874720Y-76100033D01*
X131789854Y-76298040D01*
X131745064Y-76508759D01*
X131742056Y-76724165D01*
X131780945Y-76936053D01*
X131860249Y-77136352D01*
X131976947Y-77317432D01*
X132126596Y-77472397D01*
X132303493Y-77595344D01*
X132500902Y-77681590D01*
X132711304Y-77727850D01*
X132926684Y-77732362D01*
X133138838Y-77694953D01*
X133339685Y-77617050D01*
X133521576Y-77501618D01*
X133671965Y-77358404D01*
X133671965Y-78448548D01*
X133545598Y-78321296D01*
X133367001Y-78200831D01*
X133168407Y-78117349D01*
X132957380Y-78074032D01*
X132741958Y-78072528D01*
X132530347Y-78112895D01*
X132330607Y-78193595D01*
X132150345Y-78311555D01*
X131996429Y-78462281D01*
X131874720Y-78640033D01*
X131789854Y-78838040D01*
X131745064Y-79048759D01*
X131742056Y-79264165D01*
X131780945Y-79476053D01*
X131860249Y-79676352D01*
X131976947Y-79857432D01*
X132126596Y-80012397D01*
X132303493Y-80135344D01*
X132500902Y-80221590D01*
X132711304Y-80267850D01*
X132926684Y-80272362D01*
X133138838Y-80234953D01*
X133339685Y-80157050D01*
X133521576Y-80041618D01*
X133677582Y-79893055D01*
X133801762Y-79717020D01*
X133889384Y-79520218D01*
X133937111Y-79310145D01*
X133940547Y-79064087D01*
X133932588Y-79023894D01*
X133962159Y-79037191D01*
X134073900Y-79053035D01*
X136105900Y-79053035D01*
X136170809Y-79047760D01*
X136278524Y-79014078D01*
X136372630Y-78951778D01*
X136445706Y-78865772D01*
X136491991Y-78762841D01*
X136507835Y-78651100D01*
X136507835Y-78287500D01*
X137544889Y-78287500D01*
X137645214Y-78479401D01*
X137799741Y-78671595D01*
X137988657Y-78830113D01*
X138204764Y-78948919D01*
X138439832Y-79023487D01*
X138684906Y-79050977D01*
X138702549Y-79051100D01*
X139021051Y-79051100D01*
X139266486Y-79027035D01*
X139502572Y-78955756D01*
X139720317Y-78839979D01*
X139911427Y-78684114D01*
X140068623Y-78494096D01*
X140185917Y-78277165D01*
X140258842Y-78041582D01*
X140284620Y-77796322D01*
X140284620Y-82876322D01*
X140262269Y-82630725D01*
X140212290Y-82460909D01*
X140212290Y-80544595D01*
X140212290Y-80110405D01*
X140149448Y-79886489D01*
X140041598Y-79673487D01*
X139894265Y-79485618D01*
X139713112Y-79330102D01*
X139505100Y-79212916D01*
X139278223Y-79138563D01*
X139041200Y-79109900D01*
X138888800Y-79109900D01*
X138888800Y-80300500D01*
X140142977Y-80300500D01*
X140212290Y-80110405D01*
X140212290Y-80544595D01*
X140142977Y-80354500D01*
X138888800Y-80354500D01*
X138888800Y-81545100D01*
X139041200Y-81545100D01*
X139278223Y-81516437D01*
X139505100Y-81442084D01*
X139713112Y-81324898D01*
X139894265Y-81169382D01*
X140041598Y-80981513D01*
X140149448Y-80768511D01*
X140212290Y-80544595D01*
X140212290Y-82460909D01*
X140192641Y-82394147D01*
X140078386Y-82175599D01*
X139923859Y-81983405D01*
X139734943Y-81824887D01*
X139518836Y-81706081D01*
X139283768Y-81631513D01*
X139038694Y-81604023D01*
X139021051Y-81603900D01*
X138834800Y-81603900D01*
X138834800Y-81545100D01*
X138834800Y-80354500D01*
X138834800Y-80300500D01*
X138834800Y-79109900D01*
X138682400Y-79109900D01*
X138445377Y-79138563D01*
X138218500Y-79212916D01*
X138010488Y-79330102D01*
X137829335Y-79485618D01*
X137682002Y-79673487D01*
X137574152Y-79886489D01*
X137511310Y-80110405D01*
X137580623Y-80300500D01*
X138834800Y-80300500D01*
X138834800Y-80354500D01*
X137580623Y-80354500D01*
X137511310Y-80544595D01*
X137574152Y-80768511D01*
X137682002Y-80981513D01*
X137829335Y-81169382D01*
X138010488Y-81324898D01*
X138218500Y-81442084D01*
X138445377Y-81516437D01*
X138682400Y-81545100D01*
X138834800Y-81545100D01*
X138834800Y-81603900D01*
X138702549Y-81603900D01*
X138457114Y-81627965D01*
X138221028Y-81699244D01*
X138003283Y-81815021D01*
X137812173Y-81970886D01*
X137654977Y-82160904D01*
X137543271Y-82367500D01*
X136440390Y-82367500D01*
X136440390Y-80544595D01*
X136440390Y-80110405D01*
X136377548Y-79886489D01*
X136269698Y-79673487D01*
X136122365Y-79485618D01*
X135941212Y-79330102D01*
X135733200Y-79212916D01*
X135506323Y-79138563D01*
X135269300Y-79109900D01*
X135116900Y-79109900D01*
X135116900Y-80300500D01*
X136371077Y-80300500D01*
X136440390Y-80110405D01*
X136440390Y-80544595D01*
X136371077Y-80354500D01*
X135116900Y-80354500D01*
X135116900Y-81545100D01*
X135269300Y-81545100D01*
X135506323Y-81516437D01*
X135733200Y-81442084D01*
X135941212Y-81324898D01*
X136122365Y-81169382D01*
X136269698Y-80981513D01*
X136377548Y-80768511D01*
X136440390Y-80544595D01*
X136440390Y-82367500D01*
X136406810Y-82367500D01*
X136306486Y-82175599D01*
X136151959Y-81983405D01*
X135963043Y-81824887D01*
X135746936Y-81706081D01*
X135511868Y-81631513D01*
X135266794Y-81604023D01*
X135249151Y-81603900D01*
X135062900Y-81603900D01*
X135062900Y-81545100D01*
X135062900Y-80354500D01*
X135062900Y-80300500D01*
X135062900Y-79109900D01*
X134910500Y-79109900D01*
X134673477Y-79138563D01*
X134446600Y-79212916D01*
X134238588Y-79330102D01*
X134057435Y-79485618D01*
X133910102Y-79673487D01*
X133802252Y-79886489D01*
X133739410Y-80110405D01*
X133808723Y-80300500D01*
X135062900Y-80300500D01*
X135062900Y-80354500D01*
X133808723Y-80354500D01*
X133739410Y-80544595D01*
X133802252Y-80768511D01*
X133910102Y-80981513D01*
X134057435Y-81169382D01*
X134238588Y-81324898D01*
X134446600Y-81442084D01*
X134673477Y-81516437D01*
X134910500Y-81545100D01*
X135062900Y-81545100D01*
X135062900Y-81603900D01*
X134930649Y-81603900D01*
X134685214Y-81627965D01*
X134449128Y-81699244D01*
X134231383Y-81815021D01*
X134040273Y-81970886D01*
X133883077Y-82160904D01*
X133765783Y-82377835D01*
X133692858Y-82613418D01*
X133667080Y-82858678D01*
X133670415Y-82895327D01*
X133420714Y-82645626D01*
X133521576Y-82581618D01*
X133677582Y-82433055D01*
X133801762Y-82257020D01*
X133889384Y-82060218D01*
X133937111Y-81850145D01*
X133940547Y-81604087D01*
X133898704Y-81392762D01*
X133816611Y-81193590D01*
X133697395Y-81014157D01*
X133545598Y-80861296D01*
X133367001Y-80740831D01*
X133168407Y-80657349D01*
X132957380Y-80614032D01*
X132741958Y-80612528D01*
X132530347Y-80652895D01*
X132330607Y-80733595D01*
X132150345Y-80851555D01*
X131996429Y-81002281D01*
X131874720Y-81180033D01*
X131789854Y-81378040D01*
X131745064Y-81588759D01*
X131742056Y-81804165D01*
X131780945Y-82016053D01*
X131857853Y-82210301D01*
X131266407Y-82210301D01*
X130439853Y-81383747D01*
X130404208Y-81354467D01*
X130368784Y-81324743D01*
X130366477Y-81323474D01*
X130364448Y-81321808D01*
X130323778Y-81300001D01*
X130283271Y-81277732D01*
X130280763Y-81276936D01*
X130278448Y-81275695D01*
X130234284Y-81262192D01*
X130190256Y-81248226D01*
X130187644Y-81247933D01*
X130185129Y-81247164D01*
X130139152Y-81242494D01*
X130093281Y-81237349D01*
X130088142Y-81237312D01*
X130088045Y-81237303D01*
X130087953Y-81237311D01*
X130086300Y-81237300D01*
X129048806Y-81237300D01*
X128732100Y-80920593D01*
X128732100Y-74726900D01*
X128727595Y-74680956D01*
X128723568Y-74634924D01*
X128722834Y-74632399D01*
X128722578Y-74629783D01*
X128709231Y-74585576D01*
X128696343Y-74541216D01*
X128695132Y-74538880D01*
X128694373Y-74536365D01*
X128672705Y-74495614D01*
X128651436Y-74454580D01*
X128649794Y-74452523D01*
X128648561Y-74450204D01*
X128619372Y-74414415D01*
X128590555Y-74378318D01*
X128586947Y-74374660D01*
X128586885Y-74374583D01*
X128586813Y-74374523D01*
X128585653Y-74373347D01*
X127950553Y-73738247D01*
X127914908Y-73708967D01*
X127879484Y-73679243D01*
X127877177Y-73677974D01*
X127875148Y-73676308D01*
X127834478Y-73654501D01*
X127793971Y-73632232D01*
X127791463Y-73631436D01*
X127789148Y-73630195D01*
X127744984Y-73616692D01*
X127700956Y-73602726D01*
X127698344Y-73602433D01*
X127695829Y-73601664D01*
X127649852Y-73596994D01*
X127603981Y-73591849D01*
X127598842Y-73591812D01*
X127598745Y-73591803D01*
X127598653Y-73591811D01*
X127597000Y-73591800D01*
X126204116Y-73591800D01*
X126196611Y-73573590D01*
X126077395Y-73394157D01*
X125925598Y-73241296D01*
X125747001Y-73120831D01*
X125579218Y-73050301D01*
X131843499Y-73050301D01*
X131889442Y-73045796D01*
X131935475Y-73041769D01*
X131937999Y-73041035D01*
X131940616Y-73040779D01*
X131984822Y-73027432D01*
X132029183Y-73014544D01*
X132031518Y-73013333D01*
X132034034Y-73012574D01*
X132074784Y-72990906D01*
X132115819Y-72969637D01*
X132117875Y-72967995D01*
X132120195Y-72966762D01*
X132155983Y-72937573D01*
X132192081Y-72908756D01*
X132195738Y-72905148D01*
X132195816Y-72905086D01*
X132195875Y-72905014D01*
X132197052Y-72903854D01*
X132497054Y-72603852D01*
X132499798Y-72601107D01*
X132500902Y-72601590D01*
X132711304Y-72647850D01*
X132926684Y-72652362D01*
X133138838Y-72614953D01*
X133339685Y-72537050D01*
X133521576Y-72421618D01*
X133677582Y-72273055D01*
X133801762Y-72097020D01*
X133889384Y-71900218D01*
X133902659Y-71841783D01*
X134195320Y-72134444D01*
X134130617Y-72228941D01*
X134076538Y-72355117D01*
X134047997Y-72489394D01*
X134046080Y-72626658D01*
X134070861Y-72761680D01*
X134121396Y-72889317D01*
X134195760Y-73004707D01*
X134291121Y-73103456D01*
X134403846Y-73181802D01*
X134529641Y-73236761D01*
X134663716Y-73266239D01*
X134800963Y-73269114D01*
X134936155Y-73245276D01*
X135064141Y-73195633D01*
X135180048Y-73122077D01*
X135279460Y-73027408D01*
X135358591Y-72915232D01*
X135414427Y-72789823D01*
X135444841Y-72655958D01*
X135447030Y-72499161D01*
X135420366Y-72364499D01*
X135368054Y-72237580D01*
X135292086Y-72123239D01*
X135247000Y-72077836D01*
X135247000Y-71979018D01*
X135242490Y-71933029D01*
X135238468Y-71887042D01*
X135237734Y-71884517D01*
X135237478Y-71881901D01*
X135224131Y-71837694D01*
X135211243Y-71793334D01*
X135210032Y-71790998D01*
X135209273Y-71788483D01*
X135187584Y-71747693D01*
X135166335Y-71706698D01*
X135164696Y-71704645D01*
X135163461Y-71702322D01*
X135134269Y-71666530D01*
X135105455Y-71630435D01*
X135101846Y-71626776D01*
X135101785Y-71626701D01*
X135101714Y-71626642D01*
X135100553Y-71625465D01*
X133942435Y-70467347D01*
X133942435Y-62090300D01*
X133942435Y-60693300D01*
X133937160Y-60628391D01*
X133903478Y-60520676D01*
X133841178Y-60426570D01*
X133755172Y-60353494D01*
X133652241Y-60307209D01*
X133540500Y-60291365D01*
X133342000Y-60291365D01*
X133342000Y-54025800D01*
X133337490Y-53979811D01*
X133333468Y-53933824D01*
X133332734Y-53931299D01*
X133332478Y-53928683D01*
X133319131Y-53884476D01*
X133306243Y-53840116D01*
X133305032Y-53837780D01*
X133304273Y-53835265D01*
X133282584Y-53794475D01*
X133261335Y-53753480D01*
X133259696Y-53751427D01*
X133258461Y-53749104D01*
X133229269Y-53713312D01*
X133200455Y-53677217D01*
X133196843Y-53673554D01*
X133196785Y-53673483D01*
X133196718Y-53673428D01*
X133195553Y-53672246D01*
X132814553Y-53291247D01*
X132778908Y-53261967D01*
X132743484Y-53232243D01*
X132741177Y-53230974D01*
X132739148Y-53229308D01*
X132698478Y-53207501D01*
X132657971Y-53185232D01*
X132655463Y-53184436D01*
X132653148Y-53183195D01*
X132608984Y-53169692D01*
X132564956Y-53155726D01*
X132562344Y-53155433D01*
X132559829Y-53154664D01*
X132513852Y-53149994D01*
X132467981Y-53144849D01*
X132462842Y-53144812D01*
X132462745Y-53144803D01*
X132462653Y-53144811D01*
X132461000Y-53144800D01*
X108732773Y-53144800D01*
X108632449Y-52952899D01*
X108477922Y-52760705D01*
X108289006Y-52602187D01*
X108072899Y-52483381D01*
X107837831Y-52408813D01*
X107592757Y-52381323D01*
X107575114Y-52381200D01*
X107562886Y-52381200D01*
X107317451Y-52405265D01*
X107081365Y-52476544D01*
X106863620Y-52592321D01*
X106672510Y-52748186D01*
X106515314Y-52938204D01*
X106398020Y-53155135D01*
X106325095Y-53390718D01*
X106299317Y-53635978D01*
X106321668Y-53881575D01*
X106391296Y-54118153D01*
X106505551Y-54336701D01*
X106660078Y-54528895D01*
X106848994Y-54687413D01*
X107065101Y-54806219D01*
X107300169Y-54880787D01*
X107545243Y-54908277D01*
X107562886Y-54908400D01*
X107575114Y-54908400D01*
X107820549Y-54884335D01*
X108056635Y-54813056D01*
X108274380Y-54697279D01*
X108465490Y-54541414D01*
X108622686Y-54351396D01*
X108734391Y-54144800D01*
X132253893Y-54144800D01*
X132342000Y-54232906D01*
X132342000Y-60291365D01*
X132143500Y-60291365D01*
X132078591Y-60296640D01*
X131970876Y-60330322D01*
X131876770Y-60392622D01*
X131803694Y-60478628D01*
X131757409Y-60581559D01*
X131741565Y-60693300D01*
X131741565Y-62090300D01*
X131746840Y-62155209D01*
X131780522Y-62262924D01*
X131842822Y-62357030D01*
X131928828Y-62430106D01*
X132031759Y-62476391D01*
X132143500Y-62492235D01*
X133540500Y-62492235D01*
X133605409Y-62486960D01*
X133713124Y-62453278D01*
X133807230Y-62390978D01*
X133880306Y-62304972D01*
X133926591Y-62202041D01*
X133942435Y-62090300D01*
X133942435Y-70467347D01*
X133674834Y-70199746D01*
X133639189Y-70170466D01*
X133603765Y-70140742D01*
X133601458Y-70139473D01*
X133599429Y-70137807D01*
X133558759Y-70116000D01*
X133518252Y-70093731D01*
X133515744Y-70092935D01*
X133513429Y-70091694D01*
X133469265Y-70078191D01*
X133425237Y-70064225D01*
X133422625Y-70063932D01*
X133420110Y-70063163D01*
X133374133Y-70058493D01*
X133328262Y-70053348D01*
X133323123Y-70053311D01*
X133323026Y-70053302D01*
X133322934Y-70053310D01*
X133321281Y-70053299D01*
X133194665Y-70053299D01*
X133339685Y-69997050D01*
X133521576Y-69881618D01*
X133677582Y-69733055D01*
X133801762Y-69557020D01*
X133889384Y-69360218D01*
X133937111Y-69150145D01*
X133940547Y-68904087D01*
X133940547Y-66364087D01*
X133940547Y-63824087D01*
X133898704Y-63612762D01*
X133816611Y-63413590D01*
X133697395Y-63234157D01*
X133545598Y-63081296D01*
X133367001Y-62960831D01*
X133168407Y-62877349D01*
X132957380Y-62834032D01*
X132741958Y-62832528D01*
X132530347Y-62872895D01*
X132330607Y-62953595D01*
X132150345Y-63071555D01*
X131996429Y-63222281D01*
X131874720Y-63400033D01*
X131789854Y-63598040D01*
X131745064Y-63808759D01*
X131742056Y-64024165D01*
X131780945Y-64236053D01*
X131860249Y-64436352D01*
X131976947Y-64617432D01*
X132126596Y-64772397D01*
X132303493Y-64895344D01*
X132500902Y-64981590D01*
X132711304Y-65027850D01*
X132926684Y-65032362D01*
X133138838Y-64994953D01*
X133339685Y-64917050D01*
X133521576Y-64801618D01*
X133677582Y-64653055D01*
X133801762Y-64477020D01*
X133889384Y-64280218D01*
X133937111Y-64070145D01*
X133940547Y-63824087D01*
X133940547Y-66364087D01*
X133898704Y-66152762D01*
X133816611Y-65953590D01*
X133697395Y-65774157D01*
X133545598Y-65621296D01*
X133367001Y-65500831D01*
X133168407Y-65417349D01*
X132957380Y-65374032D01*
X132741958Y-65372528D01*
X132530347Y-65412895D01*
X132330607Y-65493595D01*
X132150345Y-65611555D01*
X131996429Y-65762281D01*
X131874720Y-65940033D01*
X131789854Y-66138040D01*
X131745064Y-66348759D01*
X131742056Y-66564165D01*
X131780945Y-66776053D01*
X131860249Y-66976352D01*
X131976947Y-67157432D01*
X132126596Y-67312397D01*
X132303493Y-67435344D01*
X132500902Y-67521590D01*
X132711304Y-67567850D01*
X132926684Y-67572362D01*
X133138838Y-67534953D01*
X133339685Y-67457050D01*
X133521576Y-67341618D01*
X133677582Y-67193055D01*
X133801762Y-67017020D01*
X133889384Y-66820218D01*
X133937111Y-66610145D01*
X133940547Y-66364087D01*
X133940547Y-68904087D01*
X133898704Y-68692762D01*
X133816611Y-68493590D01*
X133697395Y-68314157D01*
X133545598Y-68161296D01*
X133367001Y-68040831D01*
X133168407Y-67957349D01*
X132957380Y-67914032D01*
X132741958Y-67912528D01*
X132530347Y-67952895D01*
X132330607Y-68033595D01*
X132150345Y-68151555D01*
X131996429Y-68302281D01*
X131874720Y-68480033D01*
X131789854Y-68678040D01*
X131745064Y-68888759D01*
X131742056Y-69104165D01*
X131780945Y-69316053D01*
X131860249Y-69516352D01*
X131976947Y-69697432D01*
X132126596Y-69852397D01*
X132303493Y-69975344D01*
X132481924Y-70053299D01*
X127208329Y-70053299D01*
X127162376Y-70057804D01*
X127116354Y-70061831D01*
X127113829Y-70062564D01*
X127111212Y-70062821D01*
X127066993Y-70076171D01*
X127022645Y-70089056D01*
X127020309Y-70090266D01*
X127017794Y-70091026D01*
X126977023Y-70112703D01*
X126936010Y-70133963D01*
X126933955Y-70135603D01*
X126931633Y-70136838D01*
X126895822Y-70166044D01*
X126859747Y-70194844D01*
X126856084Y-70198454D01*
X126856012Y-70198514D01*
X126855956Y-70198581D01*
X126854776Y-70199745D01*
X126320547Y-70733974D01*
X126320547Y-68904087D01*
X126320547Y-66364087D01*
X126320547Y-63824087D01*
X126279494Y-63616751D01*
X126279494Y-61406328D01*
X126262008Y-61199743D01*
X126204557Y-61000537D01*
X126109345Y-60816368D01*
X126093202Y-60792209D01*
X125926078Y-60725906D01*
X125887894Y-60764090D01*
X125887894Y-60687722D01*
X125821591Y-60520598D01*
X125640107Y-60420363D01*
X125442556Y-60357460D01*
X125236528Y-60334306D01*
X125029943Y-60351792D01*
X124830737Y-60409243D01*
X124646568Y-60504455D01*
X124622409Y-60520598D01*
X124556106Y-60687722D01*
X125222000Y-61353616D01*
X125887894Y-60687722D01*
X125887894Y-60764090D01*
X125260184Y-61391800D01*
X125926078Y-62057694D01*
X126093202Y-61991391D01*
X126193437Y-61809907D01*
X126256340Y-61612356D01*
X126279494Y-61406328D01*
X126279494Y-63616751D01*
X126278704Y-63612762D01*
X126196611Y-63413590D01*
X126077395Y-63234157D01*
X125925598Y-63081296D01*
X125887894Y-63055864D01*
X125887894Y-62095878D01*
X125222000Y-61429984D01*
X125183816Y-61468168D01*
X125183816Y-61391800D01*
X124517922Y-60725906D01*
X124350798Y-60792209D01*
X124250563Y-60973693D01*
X124187660Y-61171244D01*
X124164506Y-61377272D01*
X124181992Y-61583857D01*
X124239443Y-61783063D01*
X124334655Y-61967232D01*
X124350798Y-61991391D01*
X124517922Y-62057694D01*
X125183816Y-61391800D01*
X125183816Y-61468168D01*
X124556106Y-62095878D01*
X124622409Y-62263002D01*
X124803893Y-62363237D01*
X125001444Y-62426140D01*
X125207472Y-62449294D01*
X125414057Y-62431808D01*
X125613263Y-62374357D01*
X125797432Y-62279145D01*
X125821591Y-62263002D01*
X125887894Y-62095878D01*
X125887894Y-63055864D01*
X125747001Y-62960831D01*
X125548407Y-62877349D01*
X125337380Y-62834032D01*
X125121958Y-62832528D01*
X124910347Y-62872895D01*
X124710607Y-62953595D01*
X124530345Y-63071555D01*
X124376429Y-63222281D01*
X124254720Y-63400033D01*
X124169854Y-63598040D01*
X124125064Y-63808759D01*
X124122056Y-64024165D01*
X124160945Y-64236053D01*
X124240249Y-64436352D01*
X124356947Y-64617432D01*
X124506596Y-64772397D01*
X124683493Y-64895344D01*
X124880902Y-64981590D01*
X125091304Y-65027850D01*
X125306684Y-65032362D01*
X125518838Y-64994953D01*
X125719685Y-64917050D01*
X125901576Y-64801618D01*
X126057582Y-64653055D01*
X126181762Y-64477020D01*
X126269384Y-64280218D01*
X126317111Y-64070145D01*
X126320547Y-63824087D01*
X126320547Y-66364087D01*
X126278704Y-66152762D01*
X126196611Y-65953590D01*
X126077395Y-65774157D01*
X125925598Y-65621296D01*
X125747001Y-65500831D01*
X125548407Y-65417349D01*
X125337380Y-65374032D01*
X125121958Y-65372528D01*
X124910347Y-65412895D01*
X124710607Y-65493595D01*
X124530345Y-65611555D01*
X124376429Y-65762281D01*
X124254720Y-65940033D01*
X124169854Y-66138040D01*
X124125064Y-66348759D01*
X124122056Y-66564165D01*
X124160945Y-66776053D01*
X124240249Y-66976352D01*
X124356947Y-67157432D01*
X124506596Y-67312397D01*
X124683493Y-67435344D01*
X124880902Y-67521590D01*
X125091304Y-67567850D01*
X125306684Y-67572362D01*
X125518838Y-67534953D01*
X125719685Y-67457050D01*
X125901576Y-67341618D01*
X126057582Y-67193055D01*
X126181762Y-67017020D01*
X126269384Y-66820218D01*
X126317111Y-66610145D01*
X126320547Y-66364087D01*
X126320547Y-68904087D01*
X126278704Y-68692762D01*
X126196611Y-68493590D01*
X126077395Y-68314157D01*
X125925598Y-68161296D01*
X125747001Y-68040831D01*
X125548407Y-67957349D01*
X125337380Y-67914032D01*
X125121958Y-67912528D01*
X124910347Y-67952895D01*
X124710607Y-68033595D01*
X124530345Y-68151555D01*
X124376429Y-68302281D01*
X124254720Y-68480033D01*
X124169854Y-68678040D01*
X124125064Y-68888759D01*
X124122056Y-69104165D01*
X124160945Y-69316053D01*
X124240249Y-69516352D01*
X124356947Y-69697432D01*
X124506596Y-69852397D01*
X124683493Y-69975344D01*
X124880902Y-70061590D01*
X125091304Y-70107850D01*
X125306684Y-70112362D01*
X125518838Y-70074953D01*
X125719685Y-69997050D01*
X125901576Y-69881618D01*
X126057582Y-69733055D01*
X126181762Y-69557020D01*
X126269384Y-69360218D01*
X126317111Y-69150145D01*
X126320547Y-68904087D01*
X126320547Y-70733974D01*
X126126482Y-70928039D01*
X126077395Y-70854157D01*
X125925598Y-70701296D01*
X125747001Y-70580831D01*
X125548407Y-70497349D01*
X125337380Y-70454032D01*
X125121958Y-70452528D01*
X124910347Y-70492895D01*
X124710607Y-70573595D01*
X124530345Y-70691555D01*
X124376429Y-70842281D01*
X124254720Y-71020033D01*
X124169854Y-71218040D01*
X124125064Y-71428759D01*
X124122056Y-71644165D01*
X124160945Y-71856053D01*
X124240249Y-72056352D01*
X124356947Y-72237432D01*
X124506596Y-72392397D01*
X124642239Y-72486672D01*
X123869946Y-73258966D01*
X123840666Y-73294610D01*
X123810942Y-73330035D01*
X123809673Y-73332341D01*
X123808007Y-73334371D01*
X123786200Y-73375040D01*
X123763931Y-73415548D01*
X123763135Y-73418055D01*
X123761894Y-73420371D01*
X123748391Y-73464534D01*
X123734425Y-73508563D01*
X123734132Y-73511174D01*
X123733363Y-73513690D01*
X123728693Y-73559666D01*
X123723548Y-73605538D01*
X123723511Y-73610676D01*
X123723502Y-73610774D01*
X123723510Y-73610865D01*
X123723499Y-73612519D01*
X123723499Y-74141187D01*
X122705156Y-75159530D01*
X122705156Y-63948561D01*
X122688619Y-63773617D01*
X122638417Y-63605218D01*
X122556462Y-63449777D01*
X122445876Y-63313214D01*
X122310871Y-63200732D01*
X122156589Y-63116614D01*
X121988906Y-63064066D01*
X121814210Y-63045087D01*
X121639155Y-63060403D01*
X121470409Y-63109429D01*
X121314400Y-63190295D01*
X121177068Y-63299927D01*
X121168117Y-63308753D01*
X120806421Y-63670449D01*
X120694884Y-63806237D01*
X120611846Y-63961102D01*
X120560469Y-64129147D01*
X120542711Y-64303972D01*
X120559248Y-64478915D01*
X120609451Y-64647314D01*
X120691405Y-64802756D01*
X120801992Y-64939318D01*
X120936997Y-65051801D01*
X121002186Y-65087343D01*
X120947444Y-65116205D01*
X120810882Y-65226792D01*
X120698399Y-65361797D01*
X120614282Y-65516079D01*
X120561733Y-65683762D01*
X120542755Y-65858457D01*
X120558070Y-66033512D01*
X120607096Y-66202258D01*
X120687963Y-66358268D01*
X120797594Y-66495600D01*
X120806421Y-66504551D01*
X121168117Y-66866247D01*
X121303905Y-66977783D01*
X121458770Y-67060822D01*
X121626815Y-67112199D01*
X121801639Y-67129956D01*
X121976583Y-67113419D01*
X122144982Y-67063217D01*
X122300423Y-66981262D01*
X122436986Y-66870676D01*
X122549468Y-66735671D01*
X122633586Y-66581389D01*
X122686134Y-66413706D01*
X122705113Y-66239010D01*
X122689797Y-66063955D01*
X122640771Y-65895209D01*
X122559905Y-65739200D01*
X122450273Y-65601868D01*
X122441447Y-65592917D01*
X122079751Y-65231221D01*
X121943963Y-65119684D01*
X121884328Y-65087708D01*
X121933468Y-65062237D01*
X122070800Y-64952606D01*
X122079751Y-64943779D01*
X122441447Y-64582083D01*
X122552983Y-64446295D01*
X122636022Y-64291430D01*
X122687399Y-64123385D01*
X122705156Y-63948561D01*
X122705156Y-75159530D01*
X121310820Y-76553866D01*
X121310820Y-74354622D01*
X121310820Y-71814622D01*
X121288469Y-71569025D01*
X121218841Y-71332447D01*
X121104586Y-71113899D01*
X120950059Y-70921705D01*
X120761143Y-70763187D01*
X120545036Y-70644381D01*
X120309968Y-70569813D01*
X120064894Y-70542323D01*
X120047251Y-70542200D01*
X119728749Y-70542200D01*
X119483314Y-70566265D01*
X119247228Y-70637544D01*
X119029483Y-70753321D01*
X118838373Y-70909186D01*
X118681177Y-71099204D01*
X118563883Y-71316135D01*
X118490958Y-71551718D01*
X118465180Y-71796978D01*
X118487531Y-72042575D01*
X118557159Y-72279153D01*
X118671414Y-72497701D01*
X118825941Y-72689895D01*
X119014857Y-72848413D01*
X119230964Y-72967219D01*
X119466032Y-73041787D01*
X119711106Y-73069277D01*
X119728749Y-73069400D01*
X120047251Y-73069400D01*
X120292686Y-73045335D01*
X120528772Y-72974056D01*
X120746517Y-72858279D01*
X120937627Y-72702414D01*
X121094823Y-72512396D01*
X121212117Y-72295465D01*
X121285042Y-72059882D01*
X121310820Y-71814622D01*
X121310820Y-74354622D01*
X121288469Y-74109025D01*
X121218841Y-73872447D01*
X121104586Y-73653899D01*
X120950059Y-73461705D01*
X120761143Y-73303187D01*
X120545036Y-73184381D01*
X120309968Y-73109813D01*
X120064894Y-73082323D01*
X120047251Y-73082200D01*
X119728749Y-73082200D01*
X119483314Y-73106265D01*
X119247228Y-73177544D01*
X119029483Y-73293321D01*
X118838373Y-73449186D01*
X118681177Y-73639204D01*
X118563883Y-73856135D01*
X118490958Y-74091718D01*
X118465180Y-74336978D01*
X118487531Y-74582575D01*
X118557159Y-74819153D01*
X118671414Y-75037701D01*
X118825941Y-75229895D01*
X119014857Y-75388413D01*
X119230964Y-75507219D01*
X119466032Y-75581787D01*
X119711106Y-75609277D01*
X119728749Y-75609400D01*
X120047251Y-75609400D01*
X120292686Y-75585335D01*
X120528772Y-75514056D01*
X120746517Y-75398279D01*
X120937627Y-75242414D01*
X121094823Y-75052396D01*
X121212117Y-74835465D01*
X121285042Y-74599882D01*
X121310820Y-74354622D01*
X121310820Y-76553866D01*
X121229174Y-76635512D01*
X121175648Y-76444789D01*
X121067798Y-76231787D01*
X120920465Y-76043918D01*
X120739312Y-75888402D01*
X120531300Y-75771216D01*
X120304423Y-75696863D01*
X120067400Y-75668200D01*
X119915000Y-75668200D01*
X119915000Y-76858800D01*
X119935000Y-76858800D01*
X119935000Y-76912800D01*
X119915000Y-76912800D01*
X119915000Y-76932800D01*
X119861000Y-76932800D01*
X119861000Y-76912800D01*
X119861000Y-76858800D01*
X119861000Y-75668200D01*
X119708600Y-75668200D01*
X119471577Y-75696863D01*
X119244700Y-75771216D01*
X119036688Y-75888402D01*
X118855535Y-76043918D01*
X118708202Y-76231787D01*
X118600352Y-76444789D01*
X118537510Y-76668705D01*
X118606823Y-76858800D01*
X119861000Y-76858800D01*
X119861000Y-76912800D01*
X118606823Y-76912800D01*
X118537510Y-77102895D01*
X118600352Y-77326811D01*
X118708202Y-77539813D01*
X118715728Y-77549410D01*
X115299216Y-77549410D01*
X114028053Y-76278247D01*
X113992408Y-76248967D01*
X113956984Y-76219243D01*
X113954677Y-76217974D01*
X113952648Y-76216308D01*
X113911978Y-76194501D01*
X113876435Y-76174960D01*
X113876435Y-75933300D01*
X113871160Y-75868391D01*
X113837478Y-75760676D01*
X113775178Y-75666570D01*
X113689172Y-75593494D01*
X113586241Y-75547209D01*
X113474500Y-75531365D01*
X112077500Y-75531365D01*
X112012591Y-75536640D01*
X111904876Y-75570322D01*
X111810770Y-75632622D01*
X111737694Y-75718628D01*
X111691409Y-75821559D01*
X111675565Y-75933300D01*
X111675565Y-76761260D01*
X111518610Y-76604305D01*
X111518610Y-71602157D01*
X111688404Y-71742623D01*
X111905335Y-71859917D01*
X112140918Y-71932842D01*
X112386178Y-71958620D01*
X112631775Y-71936269D01*
X112868353Y-71866641D01*
X113058610Y-71767176D01*
X113058610Y-73985410D01*
X113063114Y-74031353D01*
X113067142Y-74077386D01*
X113067875Y-74079910D01*
X113068132Y-74082527D01*
X113081478Y-74126733D01*
X113094367Y-74171094D01*
X113095577Y-74173429D01*
X113096337Y-74175945D01*
X113118004Y-74216695D01*
X113139274Y-74257730D01*
X113140915Y-74259786D01*
X113142149Y-74262106D01*
X113171337Y-74297894D01*
X113200155Y-74333992D01*
X113203762Y-74337649D01*
X113203825Y-74337727D01*
X113203896Y-74337786D01*
X113205057Y-74338963D01*
X115123805Y-76257712D01*
X115123080Y-76309658D01*
X115147861Y-76444680D01*
X115198396Y-76572317D01*
X115272760Y-76687707D01*
X115368121Y-76786456D01*
X115480846Y-76864802D01*
X115606641Y-76919761D01*
X115740716Y-76949239D01*
X115877963Y-76952114D01*
X116013155Y-76928276D01*
X116141141Y-76878633D01*
X116257048Y-76805077D01*
X116356460Y-76710408D01*
X116435591Y-76598232D01*
X116491427Y-76472823D01*
X116521841Y-76338958D01*
X116524030Y-76182161D01*
X116497366Y-76047499D01*
X116445054Y-75920580D01*
X116369086Y-75806239D01*
X116272356Y-75708831D01*
X116158548Y-75632067D01*
X116031997Y-75578870D01*
X115897524Y-75551266D01*
X115831109Y-75550802D01*
X114058610Y-73778303D01*
X114058610Y-71951921D01*
X114071400Y-71953735D01*
X115798600Y-71953735D01*
X115863509Y-71948460D01*
X115971224Y-71914778D01*
X116065330Y-71852478D01*
X116138406Y-71766472D01*
X116184691Y-71663541D01*
X116200535Y-71551800D01*
X116200535Y-71035800D01*
X117094000Y-71035800D01*
X117139943Y-71031295D01*
X117185976Y-71027268D01*
X117188500Y-71026534D01*
X117191117Y-71026278D01*
X117235323Y-71012931D01*
X117279684Y-71000043D01*
X117282019Y-70998832D01*
X117284535Y-70998073D01*
X117325285Y-70976405D01*
X117366320Y-70955136D01*
X117368376Y-70953494D01*
X117370696Y-70952261D01*
X117406484Y-70923072D01*
X117442582Y-70894255D01*
X117446239Y-70890647D01*
X117446317Y-70890585D01*
X117446376Y-70890513D01*
X117447553Y-70889353D01*
X118470065Y-69866841D01*
X118470065Y-70129400D01*
X118475340Y-70194309D01*
X118509022Y-70302024D01*
X118571322Y-70396130D01*
X118657328Y-70469206D01*
X118760259Y-70515491D01*
X118872000Y-70531335D01*
X120904000Y-70531335D01*
X120968909Y-70526060D01*
X121076624Y-70492378D01*
X121170730Y-70430078D01*
X121243806Y-70344072D01*
X121290091Y-70241141D01*
X121305935Y-70129400D01*
X121305935Y-68402200D01*
X121300660Y-68337291D01*
X121266978Y-68229576D01*
X121204678Y-68135470D01*
X121118672Y-68062394D01*
X121015741Y-68016109D01*
X120904000Y-68000265D01*
X118872000Y-68000265D01*
X118807091Y-68005540D01*
X118699376Y-68039222D01*
X118605270Y-68101522D01*
X118532194Y-68187528D01*
X118485909Y-68290459D01*
X118470065Y-68402200D01*
X118470065Y-68765800D01*
X118364000Y-68765800D01*
X118318011Y-68770309D01*
X118272024Y-68774332D01*
X118269499Y-68775065D01*
X118266883Y-68775322D01*
X118222676Y-68788668D01*
X118178316Y-68801557D01*
X118175980Y-68802767D01*
X118173465Y-68803527D01*
X118132675Y-68825215D01*
X118091680Y-68846465D01*
X118089627Y-68848103D01*
X118087304Y-68849339D01*
X118051512Y-68878530D01*
X118015417Y-68907345D01*
X118011754Y-68910956D01*
X118011683Y-68911015D01*
X118011628Y-68911081D01*
X118010446Y-68912247D01*
X116886893Y-70035800D01*
X116200535Y-70035800D01*
X116200535Y-69519800D01*
X116195260Y-69454891D01*
X116161578Y-69347176D01*
X116099278Y-69253070D01*
X116013272Y-69179994D01*
X115910341Y-69133709D01*
X115798600Y-69117865D01*
X114071400Y-69117865D01*
X114058610Y-69118904D01*
X114058610Y-67254410D01*
X114054104Y-67208457D01*
X114050078Y-67162435D01*
X114049344Y-67159910D01*
X114049088Y-67157293D01*
X114035737Y-67113074D01*
X114022853Y-67068726D01*
X114021642Y-67066390D01*
X114020883Y-67063875D01*
X113999205Y-67023104D01*
X113977946Y-66982091D01*
X113976305Y-66980036D01*
X113975071Y-66977714D01*
X113945864Y-66941903D01*
X113917065Y-66905828D01*
X113913454Y-66902165D01*
X113913395Y-66902093D01*
X113913327Y-66902037D01*
X113912164Y-66900857D01*
X108746076Y-61734770D01*
X108812905Y-61518882D01*
X108838683Y-61273622D01*
X108838683Y-58733622D01*
X108816332Y-58488025D01*
X108746704Y-58251447D01*
X108632449Y-58032899D01*
X108477922Y-57840705D01*
X108289006Y-57682187D01*
X108072899Y-57563381D01*
X107837831Y-57488813D01*
X107592757Y-57461323D01*
X107575114Y-57461200D01*
X107562886Y-57461200D01*
X107317451Y-57485265D01*
X107081365Y-57556544D01*
X106863620Y-57672321D01*
X106672510Y-57828186D01*
X106515314Y-58018204D01*
X106398020Y-58235135D01*
X106325095Y-58470718D01*
X106299317Y-58715978D01*
X106321668Y-58961575D01*
X106391296Y-59198153D01*
X106505551Y-59416701D01*
X106660078Y-59608895D01*
X106848994Y-59767413D01*
X107065101Y-59886219D01*
X107300169Y-59960787D01*
X107545243Y-59988277D01*
X107562886Y-59988400D01*
X107575114Y-59988400D01*
X107820549Y-59964335D01*
X108056635Y-59893056D01*
X108274380Y-59777279D01*
X108465490Y-59621414D01*
X108622686Y-59431396D01*
X108739980Y-59214465D01*
X108812905Y-58978882D01*
X108838683Y-58733622D01*
X108838683Y-61273622D01*
X108816332Y-61028025D01*
X108746704Y-60791447D01*
X108632449Y-60572899D01*
X108477922Y-60380705D01*
X108289006Y-60222187D01*
X108072899Y-60103381D01*
X107837831Y-60028813D01*
X107592757Y-60001323D01*
X107575114Y-60001200D01*
X107562886Y-60001200D01*
X107317451Y-60025265D01*
X107081365Y-60096544D01*
X106863620Y-60212321D01*
X106672510Y-60368186D01*
X106515314Y-60558204D01*
X106398020Y-60775135D01*
X106325095Y-61010718D01*
X106299317Y-61255978D01*
X106321668Y-61501575D01*
X106391296Y-61738153D01*
X106505551Y-61956701D01*
X106660078Y-62148895D01*
X106848994Y-62307413D01*
X107065101Y-62426219D01*
X107300169Y-62500787D01*
X107545243Y-62528277D01*
X107562886Y-62528400D01*
X107575114Y-62528400D01*
X107820549Y-62504335D01*
X108036291Y-62439197D01*
X113058610Y-67461516D01*
X113058610Y-69305734D01*
X112884665Y-69211683D01*
X112649082Y-69138758D01*
X112403822Y-69112980D01*
X112158225Y-69135331D01*
X111921647Y-69204959D01*
X111703099Y-69319214D01*
X111518610Y-69467546D01*
X111518610Y-67254410D01*
X111514104Y-67208457D01*
X111510078Y-67162435D01*
X111509344Y-67159910D01*
X111509088Y-67157293D01*
X111495737Y-67113074D01*
X111482853Y-67068726D01*
X111481642Y-67066390D01*
X111480883Y-67063875D01*
X111459205Y-67023104D01*
X111437946Y-66982091D01*
X111436305Y-66980036D01*
X111435071Y-66977714D01*
X111405864Y-66941903D01*
X111377065Y-66905828D01*
X111373454Y-66902165D01*
X111373395Y-66902093D01*
X111373327Y-66902037D01*
X111372164Y-66900857D01*
X106206076Y-61734770D01*
X106272905Y-61518882D01*
X106298683Y-61273622D01*
X106276332Y-61028025D01*
X106206704Y-60791447D01*
X106092449Y-60572899D01*
X105937922Y-60380705D01*
X105749006Y-60222187D01*
X105532899Y-60103381D01*
X105297831Y-60028813D01*
X105052757Y-60001323D01*
X105035114Y-60001200D01*
X105022886Y-60001200D01*
X104777451Y-60025265D01*
X104541365Y-60096544D01*
X104365399Y-60190106D01*
X104365399Y-59798421D01*
X104525101Y-59886219D01*
X104760169Y-59960787D01*
X105005243Y-59988277D01*
X105022886Y-59988400D01*
X105035114Y-59988400D01*
X105280549Y-59964335D01*
X105516635Y-59893056D01*
X105734380Y-59777279D01*
X105925490Y-59621414D01*
X106082686Y-59431396D01*
X106199980Y-59214465D01*
X106272905Y-58978882D01*
X106298683Y-58733622D01*
X106276332Y-58488025D01*
X106206704Y-58251447D01*
X106092449Y-58032899D01*
X105944109Y-57848401D01*
X106405399Y-57848401D01*
X106451342Y-57843896D01*
X106497375Y-57839869D01*
X106499899Y-57839135D01*
X106502516Y-57838879D01*
X106546722Y-57825532D01*
X106591083Y-57812644D01*
X106593418Y-57811433D01*
X106595934Y-57810674D01*
X106636684Y-57789006D01*
X106677719Y-57767737D01*
X106679775Y-57766095D01*
X106682095Y-57764862D01*
X106717883Y-57735673D01*
X106753981Y-57706856D01*
X106757638Y-57703248D01*
X106757716Y-57703186D01*
X106757775Y-57703114D01*
X106758952Y-57701954D01*
X107058954Y-57401952D01*
X107102745Y-57358160D01*
X107300169Y-57420787D01*
X107545243Y-57448277D01*
X107562886Y-57448400D01*
X107575114Y-57448400D01*
X107820549Y-57424335D01*
X108056635Y-57353056D01*
X108274380Y-57237279D01*
X108465490Y-57081414D01*
X108622686Y-56891396D01*
X108739980Y-56674465D01*
X108812905Y-56438882D01*
X108838683Y-56193622D01*
X108816332Y-55948025D01*
X108746704Y-55711447D01*
X108632449Y-55492899D01*
X108477922Y-55300705D01*
X108289006Y-55142187D01*
X108072899Y-55023381D01*
X107837831Y-54948813D01*
X107592757Y-54921323D01*
X107575114Y-54921200D01*
X107562886Y-54921200D01*
X107317451Y-54945265D01*
X107081365Y-55016544D01*
X106863620Y-55132321D01*
X106672510Y-55288186D01*
X106515314Y-55478204D01*
X106398020Y-55695135D01*
X106325095Y-55930718D01*
X106299317Y-56175978D01*
X106321668Y-56421575D01*
X106390669Y-56656024D01*
X106351848Y-56694846D01*
X106198292Y-56848401D01*
X106105933Y-56848401D01*
X106199980Y-56674465D01*
X106272905Y-56438882D01*
X106298683Y-56193622D01*
X106276332Y-55948025D01*
X106246600Y-55847003D01*
X106246600Y-54543266D01*
X106246600Y-54473534D01*
X106246600Y-53760300D01*
X106246600Y-53529300D01*
X106246600Y-52816066D01*
X106246600Y-52746334D01*
X106232996Y-52677942D01*
X106206311Y-52613518D01*
X106167570Y-52555538D01*
X106118262Y-52506230D01*
X106060282Y-52467489D01*
X105995858Y-52440804D01*
X105927466Y-52427200D01*
X105144500Y-52427200D01*
X105056000Y-52515700D01*
X105056000Y-53617800D01*
X106158100Y-53617800D01*
X106246600Y-53529300D01*
X106246600Y-53760300D01*
X106158100Y-53671800D01*
X105056000Y-53671800D01*
X105056000Y-54773900D01*
X105144500Y-54862400D01*
X105927466Y-54862400D01*
X105995858Y-54848796D01*
X106060282Y-54822111D01*
X106118262Y-54783370D01*
X106167570Y-54734062D01*
X106206311Y-54676082D01*
X106232996Y-54611658D01*
X106246600Y-54543266D01*
X106246600Y-55847003D01*
X106206704Y-55711447D01*
X106092449Y-55492899D01*
X105937922Y-55300705D01*
X105749006Y-55142187D01*
X105532899Y-55023381D01*
X105297831Y-54948813D01*
X105052757Y-54921323D01*
X105035114Y-54921200D01*
X105022886Y-54921200D01*
X105002000Y-54923247D01*
X105002000Y-54773900D01*
X105002000Y-53671800D01*
X105002000Y-53617800D01*
X105002000Y-52515700D01*
X104913500Y-52427200D01*
X104130534Y-52427200D01*
X104062142Y-52440804D01*
X103997718Y-52467489D01*
X103939738Y-52506230D01*
X103890430Y-52555538D01*
X103851689Y-52613518D01*
X103825004Y-52677942D01*
X103811400Y-52746334D01*
X103811400Y-52816066D01*
X103811400Y-53529300D01*
X103899900Y-53617800D01*
X105002000Y-53617800D01*
X105002000Y-53671800D01*
X103899900Y-53671800D01*
X103811400Y-53760300D01*
X103811400Y-54473534D01*
X103811400Y-54543266D01*
X103825004Y-54611658D01*
X103851689Y-54676082D01*
X103890430Y-54734062D01*
X103939738Y-54783370D01*
X103997718Y-54822111D01*
X104062142Y-54848796D01*
X104130534Y-54862400D01*
X104913500Y-54862400D01*
X105002000Y-54773900D01*
X105002000Y-54923247D01*
X104777451Y-54945265D01*
X104541365Y-55016544D01*
X104323620Y-55132321D01*
X104132510Y-55288186D01*
X103975314Y-55478204D01*
X103858020Y-55695135D01*
X103785095Y-55930718D01*
X103759317Y-56175978D01*
X103781668Y-56421575D01*
X103851296Y-56658153D01*
X103965551Y-56876701D01*
X104085668Y-57026097D01*
X103511846Y-57599920D01*
X103482566Y-57635564D01*
X103452842Y-57670989D01*
X103451573Y-57673295D01*
X103449907Y-57675325D01*
X103428100Y-57715994D01*
X103405831Y-57756502D01*
X103405035Y-57759009D01*
X103403794Y-57761325D01*
X103390291Y-57805488D01*
X103376325Y-57849517D01*
X103376032Y-57852128D01*
X103375263Y-57854644D01*
X103370593Y-57900620D01*
X103365448Y-57946492D01*
X103365411Y-57951630D01*
X103365402Y-57951728D01*
X103365410Y-57951819D01*
X103365399Y-57953473D01*
X103365399Y-71738981D01*
X103369903Y-71784924D01*
X103373931Y-71830957D01*
X103374664Y-71833481D01*
X103374921Y-71836098D01*
X103388267Y-71880304D01*
X103401156Y-71924665D01*
X103402366Y-71927000D01*
X103403126Y-71929516D01*
X103424793Y-71970266D01*
X103446063Y-72011301D01*
X103447704Y-72013357D01*
X103448938Y-72015677D01*
X103478126Y-72051465D01*
X103506944Y-72087563D01*
X103510551Y-72091220D01*
X103510614Y-72091298D01*
X103510685Y-72091357D01*
X103511846Y-72092534D01*
X111943166Y-80523854D01*
X111978810Y-80553133D01*
X112014235Y-80582858D01*
X112016541Y-80584126D01*
X112018571Y-80585793D01*
X112059240Y-80607599D01*
X112099748Y-80629869D01*
X112102255Y-80630664D01*
X112104571Y-80631906D01*
X112148734Y-80645408D01*
X112192763Y-80659375D01*
X112195374Y-80659667D01*
X112197890Y-80660437D01*
X112243866Y-80665106D01*
X112289738Y-80670252D01*
X112294876Y-80670288D01*
X112294974Y-80670298D01*
X112295065Y-80670289D01*
X112296719Y-80670301D01*
X112421265Y-80670301D01*
X112264607Y-80733595D01*
X112084345Y-80851555D01*
X111930429Y-81002281D01*
X111808720Y-81180033D01*
X111723854Y-81378040D01*
X111679064Y-81588759D01*
X111676056Y-81804165D01*
X111714945Y-82016053D01*
X111794249Y-82216352D01*
X111910947Y-82397432D01*
X112060596Y-82552397D01*
X112237493Y-82675344D01*
X112434902Y-82761590D01*
X112645304Y-82807850D01*
X112860684Y-82812362D01*
X113072838Y-82774953D01*
X113273685Y-82697050D01*
X113455576Y-82581618D01*
X113611582Y-82433055D01*
X113735762Y-82257020D01*
X113823384Y-82060218D01*
X113871111Y-81850145D01*
X113874547Y-81604087D01*
X113848027Y-81470154D01*
X115441727Y-83063854D01*
X115477419Y-83093172D01*
X115512797Y-83122858D01*
X115515100Y-83124124D01*
X115517132Y-83125793D01*
X115557823Y-83147611D01*
X115598310Y-83169869D01*
X115600817Y-83170664D01*
X115603133Y-83171906D01*
X115647296Y-83185408D01*
X115691325Y-83199375D01*
X115693936Y-83199667D01*
X115696452Y-83200437D01*
X115742383Y-83205101D01*
X115788300Y-83210252D01*
X115793448Y-83210288D01*
X115793536Y-83210297D01*
X115793617Y-83210289D01*
X115795281Y-83210301D01*
X124514894Y-83210301D01*
X124630566Y-83325972D01*
X124530345Y-83391555D01*
X124376429Y-83542281D01*
X124254720Y-83720033D01*
X124169854Y-83918040D01*
X124125064Y-84128759D01*
X124122056Y-84344165D01*
X124160945Y-84556053D01*
X124240249Y-84756352D01*
X124356947Y-84937432D01*
X124506596Y-85092397D01*
X124683493Y-85215344D01*
X124880902Y-85301590D01*
X125091304Y-85347850D01*
X125306684Y-85352362D01*
X125518838Y-85314953D01*
X125719685Y-85237050D01*
X125901576Y-85121618D01*
X126057582Y-84973055D01*
X126148609Y-84844016D01*
X126760947Y-85456354D01*
X126796648Y-85485679D01*
X126832016Y-85515357D01*
X126834319Y-85516623D01*
X126836352Y-85518293D01*
X126877041Y-85540109D01*
X126917529Y-85562368D01*
X126920038Y-85563164D01*
X126922353Y-85564405D01*
X126966488Y-85577898D01*
X127010544Y-85591874D01*
X127013157Y-85592167D01*
X127015672Y-85592936D01*
X127061642Y-85597605D01*
X127107519Y-85602751D01*
X127112657Y-85602787D01*
X127112755Y-85602797D01*
X127112846Y-85602788D01*
X127114500Y-85602800D01*
X130162500Y-85602800D01*
X130208443Y-85598295D01*
X130254476Y-85594268D01*
X130257000Y-85593534D01*
X130259617Y-85593278D01*
X130303823Y-85579931D01*
X130348184Y-85567043D01*
X130350519Y-85565832D01*
X130353035Y-85565073D01*
X130393785Y-85543405D01*
X130434820Y-85522136D01*
X130436876Y-85520494D01*
X130439196Y-85519261D01*
X130474984Y-85490072D01*
X130511082Y-85461255D01*
X130514739Y-85457647D01*
X130514817Y-85457585D01*
X130514876Y-85457513D01*
X130516053Y-85456353D01*
X131220606Y-84751800D01*
X131858446Y-84751800D01*
X131860249Y-84756352D01*
X131976947Y-84937432D01*
X132070751Y-85034568D01*
X131969655Y-85100724D01*
X131871574Y-85196772D01*
X131794017Y-85310041D01*
X131739938Y-85436217D01*
X131711397Y-85570494D01*
X131709480Y-85707758D01*
X131734261Y-85842780D01*
X131784796Y-85970417D01*
X131859160Y-86085807D01*
X131954521Y-86184556D01*
X132067246Y-86262902D01*
X132193041Y-86317861D01*
X132327116Y-86347339D01*
X132403329Y-86348935D01*
X132774000Y-86719606D01*
X132774000Y-87879400D01*
X126762706Y-87879400D01*
X126691214Y-87807908D01*
X126691145Y-87807838D01*
X123924553Y-85041247D01*
X123888908Y-85011967D01*
X123853484Y-84982243D01*
X123851177Y-84980974D01*
X123849148Y-84979308D01*
X123808478Y-84957501D01*
X123767971Y-84935232D01*
X123765463Y-84934436D01*
X123763148Y-84933195D01*
X123718984Y-84919692D01*
X123674956Y-84905726D01*
X123672344Y-84905433D01*
X123669829Y-84904664D01*
X123623852Y-84899994D01*
X123577981Y-84894849D01*
X123572842Y-84894812D01*
X123572745Y-84894803D01*
X123572653Y-84894811D01*
X123571000Y-84894800D01*
X120886032Y-84894800D01*
X120844356Y-84852831D01*
X120730548Y-84776067D01*
X120603997Y-84722870D01*
X120469524Y-84695266D01*
X120332250Y-84694308D01*
X120197405Y-84720031D01*
X120070124Y-84771456D01*
X119955255Y-84846624D01*
X119857174Y-84942672D01*
X119779617Y-85055941D01*
X119725538Y-85182117D01*
X119696997Y-85316394D01*
X119695080Y-85453658D01*
X119719861Y-85588680D01*
X119770396Y-85716317D01*
X119844760Y-85831707D01*
X119940121Y-85930456D01*
X120052846Y-86008802D01*
X120178641Y-86063761D01*
X120312716Y-86093239D01*
X120449963Y-86096114D01*
X120585155Y-86072276D01*
X120713141Y-86022633D01*
X120829048Y-85949077D01*
X120886044Y-85894800D01*
X123363893Y-85894800D01*
X125984038Y-88514945D01*
X125984043Y-88514949D01*
X126202046Y-88732953D01*
X126237716Y-88762252D01*
X126273116Y-88791957D01*
X126275422Y-88793225D01*
X126277452Y-88794892D01*
X126318121Y-88816698D01*
X126358629Y-88838968D01*
X126361136Y-88839763D01*
X126363452Y-88841005D01*
X126407615Y-88854507D01*
X126451644Y-88868474D01*
X126454255Y-88868766D01*
X126456771Y-88869536D01*
X126502702Y-88874200D01*
X126548619Y-88879351D01*
X126553767Y-88879387D01*
X126553855Y-88879396D01*
X126553936Y-88879388D01*
X126555600Y-88879400D01*
X133274000Y-88879400D01*
X133320817Y-88874809D01*
X133367691Y-88870544D01*
X133369372Y-88870049D01*
X133371117Y-88869878D01*
X133416154Y-88856280D01*
X133461303Y-88842992D01*
X133462856Y-88842179D01*
X133464535Y-88841673D01*
X133506103Y-88819570D01*
X133547782Y-88797782D01*
X133549146Y-88796684D01*
X133550696Y-88795861D01*
X133587163Y-88766118D01*
X133623832Y-88736636D01*
X133624959Y-88735291D01*
X133626317Y-88734185D01*
X133656264Y-88697984D01*
X133686557Y-88661884D01*
X133687403Y-88660344D01*
X133688519Y-88658996D01*
X133710887Y-88617626D01*
X133733568Y-88576371D01*
X133734097Y-88574700D01*
X133734932Y-88573158D01*
X133748852Y-88528188D01*
X133763074Y-88483356D01*
X133763269Y-88481614D01*
X133763788Y-88479939D01*
X133768167Y-88438274D01*
X133873314Y-88639401D01*
X134027841Y-88831595D01*
X134216757Y-88990113D01*
X134432864Y-89108919D01*
X134667932Y-89183487D01*
X134913006Y-89210977D01*
X134930649Y-89211100D01*
X135249151Y-89211100D01*
X135494586Y-89187035D01*
X135730672Y-89115756D01*
X135948417Y-88999979D01*
X136139527Y-88844114D01*
X136296723Y-88654096D01*
X136414017Y-88437165D01*
X136486942Y-88201582D01*
X136512720Y-87956322D01*
X136490369Y-87710725D01*
X136420741Y-87474147D01*
X136306486Y-87255599D01*
X136151959Y-87063405D01*
X135963043Y-86904887D01*
X135746936Y-86786081D01*
X135511868Y-86711513D01*
X135266794Y-86684023D01*
X135249151Y-86683900D01*
X134930649Y-86683900D01*
X134685214Y-86707965D01*
X134449128Y-86779244D01*
X134231383Y-86895021D01*
X134040273Y-87050886D01*
X133883077Y-87240904D01*
X133774000Y-87442637D01*
X133774000Y-86512500D01*
X133769494Y-86466547D01*
X133765468Y-86420525D01*
X133764734Y-86418000D01*
X133764478Y-86415383D01*
X133751127Y-86371164D01*
X133738243Y-86326816D01*
X133737032Y-86324480D01*
X133736273Y-86321965D01*
X133714595Y-86281194D01*
X133693336Y-86240181D01*
X133691695Y-86238126D01*
X133690461Y-86235804D01*
X133661254Y-86199993D01*
X133632455Y-86163918D01*
X133628844Y-86160255D01*
X133628785Y-86160183D01*
X133628717Y-86160127D01*
X133627554Y-86158947D01*
X133109582Y-85640975D01*
X133110430Y-85580261D01*
X133083766Y-85445599D01*
X133037297Y-85332857D01*
X133138838Y-85314953D01*
X133339685Y-85237050D01*
X133521576Y-85121618D01*
X133677582Y-84973055D01*
X133726542Y-84903648D01*
X133759860Y-84936966D01*
X133692858Y-85153418D01*
X133667080Y-85398678D01*
X133689431Y-85644275D01*
X133759059Y-85880853D01*
X133873314Y-86099401D01*
X134027841Y-86291595D01*
X134216757Y-86450113D01*
X134432864Y-86568919D01*
X134667932Y-86643487D01*
X134913006Y-86670977D01*
X134930649Y-86671100D01*
X135249151Y-86671100D01*
X135494586Y-86647035D01*
X135730672Y-86575756D01*
X135948417Y-86459979D01*
X136139527Y-86304114D01*
X136296723Y-86114096D01*
X136408428Y-85907500D01*
X137443865Y-85907500D01*
X137443865Y-86271100D01*
X137449140Y-86336009D01*
X137482822Y-86443724D01*
X137545122Y-86537830D01*
X137631128Y-86610906D01*
X137734059Y-86657191D01*
X137845800Y-86673035D01*
X139877800Y-86673035D01*
X139942709Y-86667760D01*
X140050424Y-86634078D01*
X140144530Y-86571778D01*
X140217606Y-86485772D01*
X140263891Y-86382841D01*
X140279735Y-86271100D01*
X140279735Y-84543900D01*
X140274460Y-84478991D01*
X140240778Y-84371276D01*
X140178478Y-84277170D01*
X140092472Y-84204094D01*
X139989541Y-84157809D01*
X139877800Y-84141965D01*
X137845800Y-84141965D01*
X137780891Y-84147240D01*
X137673176Y-84180922D01*
X137579070Y-84243222D01*
X137505994Y-84329228D01*
X137459709Y-84432159D01*
X137443865Y-84543900D01*
X137443865Y-84907500D01*
X136406810Y-84907500D01*
X136306486Y-84715599D01*
X136151959Y-84523405D01*
X135963043Y-84364887D01*
X135746936Y-84246081D01*
X135511868Y-84171513D01*
X135266794Y-84144023D01*
X135249151Y-84143900D01*
X134930649Y-84143900D01*
X134685214Y-84167965D01*
X134470037Y-84232931D01*
X134340501Y-84103395D01*
X134340501Y-83978141D01*
X134432864Y-84028919D01*
X134667932Y-84103487D01*
X134913006Y-84130977D01*
X134930649Y-84131100D01*
X135249151Y-84131100D01*
X135494586Y-84107035D01*
X135730672Y-84035756D01*
X135948417Y-83919979D01*
X136139527Y-83764114D01*
X136296723Y-83574096D01*
X136408428Y-83367500D01*
X137544889Y-83367500D01*
X137645214Y-83559401D01*
X137799741Y-83751595D01*
X137988657Y-83910113D01*
X138204764Y-84028919D01*
X138439832Y-84103487D01*
X138684906Y-84130977D01*
X138702549Y-84131100D01*
X139021051Y-84131100D01*
X139266486Y-84107035D01*
X139502572Y-84035756D01*
X139720317Y-83919979D01*
X139911427Y-83764114D01*
X140068623Y-83574096D01*
X140185917Y-83357165D01*
X140258842Y-83121582D01*
X140284620Y-82876322D01*
X140284620Y-94553800D01*
X137026649Y-94553800D01*
X137026649Y-92392860D01*
X136982387Y-92169320D01*
X136895549Y-91958635D01*
X136769442Y-91768829D01*
X136608870Y-91607132D01*
X136419949Y-91479703D01*
X136209875Y-91391396D01*
X135986650Y-91345574D01*
X135758775Y-91343983D01*
X135534932Y-91386684D01*
X135323645Y-91472049D01*
X135132964Y-91596828D01*
X134970150Y-91756267D01*
X134841405Y-91944294D01*
X134751634Y-92153746D01*
X134704255Y-92376646D01*
X134701073Y-92604504D01*
X134742210Y-92828640D01*
X134826098Y-93040518D01*
X134949542Y-93232066D01*
X135107841Y-93395989D01*
X135294964Y-93526043D01*
X135503785Y-93617275D01*
X135726349Y-93666208D01*
X135954179Y-93670981D01*
X136178597Y-93631410D01*
X136391055Y-93549003D01*
X136583460Y-93426899D01*
X136748484Y-93269748D01*
X136879841Y-93083537D01*
X136972529Y-92875359D01*
X137023015Y-92653142D01*
X137026649Y-92392860D01*
X137026649Y-94553800D01*
X126395871Y-94553800D01*
X126395871Y-92523834D01*
X126377649Y-92304758D01*
X126317038Y-92093445D01*
X126216367Y-91898019D01*
X126197439Y-91869692D01*
X126023813Y-91795771D01*
X125985629Y-91833955D01*
X125985629Y-91757587D01*
X125911708Y-91583961D01*
X125719430Y-91477400D01*
X125510056Y-91410398D01*
X125291634Y-91385529D01*
X125072558Y-91403751D01*
X124861245Y-91464362D01*
X124665819Y-91565033D01*
X124637492Y-91583961D01*
X124563571Y-91757587D01*
X125274600Y-92468616D01*
X125985629Y-91757587D01*
X125985629Y-91833955D01*
X125312784Y-92506800D01*
X126023813Y-93217829D01*
X126197439Y-93143908D01*
X126304000Y-92951630D01*
X126371002Y-92742256D01*
X126395871Y-92523834D01*
X126395871Y-94553800D01*
X125985629Y-94553800D01*
X125985629Y-93256013D01*
X125274600Y-92544984D01*
X125236416Y-92583168D01*
X125236416Y-92506800D01*
X124525387Y-91795771D01*
X124351761Y-91869692D01*
X124245200Y-92061970D01*
X124178198Y-92271344D01*
X124153329Y-92489766D01*
X124171551Y-92708842D01*
X124232162Y-92920155D01*
X124332833Y-93115581D01*
X124351761Y-93143908D01*
X124525387Y-93217829D01*
X125236416Y-92506800D01*
X125236416Y-92583168D01*
X124563571Y-93256013D01*
X124637492Y-93429639D01*
X124829770Y-93536200D01*
X125039144Y-93603202D01*
X125257566Y-93628071D01*
X125476642Y-93609849D01*
X125687955Y-93549238D01*
X125883381Y-93448567D01*
X125911708Y-93429639D01*
X125985629Y-93256013D01*
X125985629Y-94553800D01*
X113874547Y-94553800D01*
X113874547Y-84144087D01*
X113832704Y-83932762D01*
X113750611Y-83733590D01*
X113631395Y-83554157D01*
X113479598Y-83401296D01*
X113301001Y-83280831D01*
X113102407Y-83197349D01*
X112891380Y-83154032D01*
X112675958Y-83152528D01*
X112464347Y-83192895D01*
X112264607Y-83273595D01*
X112084345Y-83391555D01*
X111930429Y-83542281D01*
X111808720Y-83720033D01*
X111723854Y-83918040D01*
X111679064Y-84128759D01*
X111676056Y-84344165D01*
X111714945Y-84556053D01*
X111794249Y-84756352D01*
X111910947Y-84937432D01*
X112060596Y-85092397D01*
X112237493Y-85215344D01*
X112434902Y-85301590D01*
X112645304Y-85347850D01*
X112860684Y-85352362D01*
X113072838Y-85314953D01*
X113273685Y-85237050D01*
X113455576Y-85121618D01*
X113611582Y-84973055D01*
X113735762Y-84797020D01*
X113823384Y-84600218D01*
X113871111Y-84390145D01*
X113874547Y-84144087D01*
X113874547Y-94553800D01*
X106213494Y-94553800D01*
X106213494Y-84266328D01*
X106213494Y-81726328D01*
X106213494Y-79186328D01*
X106213494Y-76646328D01*
X106196008Y-76439743D01*
X106138557Y-76240537D01*
X106043345Y-76056368D01*
X106027202Y-76032209D01*
X105860078Y-75965906D01*
X105821894Y-76004090D01*
X105821894Y-75927722D01*
X105755591Y-75760598D01*
X105574107Y-75660363D01*
X105376556Y-75597460D01*
X105170528Y-75574306D01*
X104963943Y-75591792D01*
X104764737Y-75649243D01*
X104580568Y-75744455D01*
X104556409Y-75760598D01*
X104490106Y-75927722D01*
X105156000Y-76593616D01*
X105821894Y-75927722D01*
X105821894Y-76004090D01*
X105194184Y-76631800D01*
X105860078Y-77297694D01*
X106027202Y-77231391D01*
X106127437Y-77049907D01*
X106190340Y-76852356D01*
X106213494Y-76646328D01*
X106213494Y-79186328D01*
X106196008Y-78979743D01*
X106138557Y-78780537D01*
X106043345Y-78596368D01*
X106027202Y-78572209D01*
X105860078Y-78505906D01*
X105821894Y-78544090D01*
X105821894Y-78467722D01*
X105821894Y-77335878D01*
X105156000Y-76669984D01*
X105117816Y-76708168D01*
X105117816Y-76631800D01*
X104451922Y-75965906D01*
X104284798Y-76032209D01*
X104184563Y-76213693D01*
X104121660Y-76411244D01*
X104098506Y-76617272D01*
X104115992Y-76823857D01*
X104173443Y-77023063D01*
X104268655Y-77207232D01*
X104284798Y-77231391D01*
X104451922Y-77297694D01*
X105117816Y-76631800D01*
X105117816Y-76708168D01*
X104490106Y-77335878D01*
X104556409Y-77503002D01*
X104737893Y-77603237D01*
X104935444Y-77666140D01*
X105141472Y-77689294D01*
X105348057Y-77671808D01*
X105547263Y-77614357D01*
X105731432Y-77519145D01*
X105755591Y-77503002D01*
X105821894Y-77335878D01*
X105821894Y-78467722D01*
X105755591Y-78300598D01*
X105574107Y-78200363D01*
X105376556Y-78137460D01*
X105170528Y-78114306D01*
X104963943Y-78131792D01*
X104764737Y-78189243D01*
X104580568Y-78284455D01*
X104556409Y-78300598D01*
X104490106Y-78467722D01*
X105156000Y-79133616D01*
X105821894Y-78467722D01*
X105821894Y-78544090D01*
X105194184Y-79171800D01*
X105860078Y-79837694D01*
X106027202Y-79771391D01*
X106127437Y-79589907D01*
X106190340Y-79392356D01*
X106213494Y-79186328D01*
X106213494Y-81726328D01*
X106196008Y-81519743D01*
X106138557Y-81320537D01*
X106043345Y-81136368D01*
X106027202Y-81112209D01*
X105860078Y-81045906D01*
X105821894Y-81084090D01*
X105821894Y-81007722D01*
X105821894Y-79875878D01*
X105156000Y-79209984D01*
X105117816Y-79248168D01*
X105117816Y-79171800D01*
X104451922Y-78505906D01*
X104284798Y-78572209D01*
X104184563Y-78753693D01*
X104121660Y-78951244D01*
X104098506Y-79157272D01*
X104115992Y-79363857D01*
X104173443Y-79563063D01*
X104268655Y-79747232D01*
X104284798Y-79771391D01*
X104451922Y-79837694D01*
X105117816Y-79171800D01*
X105117816Y-79248168D01*
X104490106Y-79875878D01*
X104556409Y-80043002D01*
X104737893Y-80143237D01*
X104935444Y-80206140D01*
X105141472Y-80229294D01*
X105348057Y-80211808D01*
X105547263Y-80154357D01*
X105731432Y-80059145D01*
X105755591Y-80043002D01*
X105821894Y-79875878D01*
X105821894Y-81007722D01*
X105755591Y-80840598D01*
X105574107Y-80740363D01*
X105376556Y-80677460D01*
X105170528Y-80654306D01*
X104963943Y-80671792D01*
X104764737Y-80729243D01*
X104580568Y-80824455D01*
X104556409Y-80840598D01*
X104490106Y-81007722D01*
X105156000Y-81673616D01*
X105821894Y-81007722D01*
X105821894Y-81084090D01*
X105194184Y-81711800D01*
X105860078Y-82377694D01*
X106027202Y-82311391D01*
X106127437Y-82129907D01*
X106190340Y-81932356D01*
X106213494Y-81726328D01*
X106213494Y-84266328D01*
X106196008Y-84059743D01*
X106138557Y-83860537D01*
X106043345Y-83676368D01*
X106027202Y-83652209D01*
X105860078Y-83585906D01*
X105821894Y-83624090D01*
X105821894Y-83547722D01*
X105821894Y-82415878D01*
X105156000Y-81749984D01*
X105117816Y-81788168D01*
X105117816Y-81711800D01*
X104451922Y-81045906D01*
X104284798Y-81112209D01*
X104184563Y-81293693D01*
X104121660Y-81491244D01*
X104098506Y-81697272D01*
X104115992Y-81903857D01*
X104173443Y-82103063D01*
X104268655Y-82287232D01*
X104284798Y-82311391D01*
X104451922Y-82377694D01*
X105117816Y-81711800D01*
X105117816Y-81788168D01*
X104490106Y-82415878D01*
X104556409Y-82583002D01*
X104737893Y-82683237D01*
X104935444Y-82746140D01*
X105141472Y-82769294D01*
X105348057Y-82751808D01*
X105547263Y-82694357D01*
X105731432Y-82599145D01*
X105755591Y-82583002D01*
X105821894Y-82415878D01*
X105821894Y-83547722D01*
X105755591Y-83380598D01*
X105574107Y-83280363D01*
X105376556Y-83217460D01*
X105170528Y-83194306D01*
X104963943Y-83211792D01*
X104764737Y-83269243D01*
X104580568Y-83364455D01*
X104556409Y-83380598D01*
X104490106Y-83547722D01*
X105156000Y-84213616D01*
X105821894Y-83547722D01*
X105821894Y-83624090D01*
X105194184Y-84251800D01*
X105860078Y-84917694D01*
X106027202Y-84851391D01*
X106127437Y-84669907D01*
X106190340Y-84472356D01*
X106213494Y-84266328D01*
X106213494Y-94553800D01*
X105821894Y-94553800D01*
X105821894Y-84955878D01*
X105156000Y-84289984D01*
X105117816Y-84328168D01*
X105117816Y-84251800D01*
X104451922Y-83585906D01*
X104284798Y-83652209D01*
X104184563Y-83833693D01*
X104121660Y-84031244D01*
X104098506Y-84237272D01*
X104115992Y-84443857D01*
X104173443Y-84643063D01*
X104268655Y-84827232D01*
X104284798Y-84851391D01*
X104451922Y-84917694D01*
X105117816Y-84251800D01*
X105117816Y-84328168D01*
X104490106Y-84955878D01*
X104556409Y-85123002D01*
X104737893Y-85223237D01*
X104935444Y-85286140D01*
X105141472Y-85309294D01*
X105348057Y-85291808D01*
X105547263Y-85234357D01*
X105731432Y-85139145D01*
X105755591Y-85123002D01*
X105821894Y-84955878D01*
X105821894Y-94553800D01*
X100437500Y-94553800D01*
X100437500Y-50453800D01*
X149537500Y-50453800D01*
X149537500Y-94553800D01*
X149537500Y-94553800D01*
G37*
X149537500Y-94553800D02*
X142680035Y-94553800D01*
X142680035Y-69875400D01*
X142680035Y-68148200D01*
X142678100Y-68124389D01*
X142678100Y-66477914D01*
X142678100Y-66465686D01*
X142654035Y-66220251D01*
X142582756Y-65984165D01*
X142466979Y-65766420D01*
X142311114Y-65575310D01*
X142121096Y-65418114D01*
X141904165Y-65300820D01*
X141668582Y-65227895D01*
X141423322Y-65202117D01*
X141177725Y-65224468D01*
X140941147Y-65294096D01*
X140722599Y-65408351D01*
X140530405Y-65562878D01*
X140371887Y-65751794D01*
X140253081Y-65967901D01*
X140178513Y-66202969D01*
X140151023Y-66448043D01*
X140150900Y-66465686D01*
X140150900Y-66477914D01*
X140174965Y-66723349D01*
X140246244Y-66959435D01*
X140362021Y-67177180D01*
X140517886Y-67368290D01*
X140707904Y-67525486D01*
X140924835Y-67642780D01*
X141160418Y-67715705D01*
X141405678Y-67741483D01*
X141651275Y-67719132D01*
X141887853Y-67649504D01*
X142106401Y-67535249D01*
X142298595Y-67380722D01*
X142457113Y-67191806D01*
X142575919Y-66975699D01*
X142650487Y-66740631D01*
X142677977Y-66495557D01*
X142678100Y-66477914D01*
X142678100Y-68124389D01*
X142674760Y-68083291D01*
X142641078Y-67975576D01*
X142578778Y-67881470D01*
X142492772Y-67808394D01*
X142389841Y-67762109D01*
X142278100Y-67746265D01*
X140550900Y-67746265D01*
X140485991Y-67751540D01*
X140378276Y-67785222D01*
X140284170Y-67847522D01*
X140211094Y-67933528D01*
X140164809Y-68036459D01*
X140148965Y-68148200D01*
X140148965Y-69875400D01*
X140154240Y-69940309D01*
X140187922Y-70048024D01*
X140250222Y-70142130D01*
X140336228Y-70215206D01*
X140439159Y-70261491D01*
X140550900Y-70277335D01*
X142278100Y-70277335D01*
X142343009Y-70272060D01*
X142450724Y-70238378D01*
X142544830Y-70176078D01*
X142617906Y-70090072D01*
X142664191Y-69987141D01*
X142680035Y-69875400D01*
X142680035Y-94553800D01*
X140284620Y-94553800D01*
X140284620Y-82876322D01*
X140284620Y-77796322D01*
X140262269Y-77550725D01*
X140192641Y-77314147D01*
X140078386Y-77095599D01*
X139923859Y-76903405D01*
X139734943Y-76744887D01*
X139518836Y-76626081D01*
X139283768Y-76551513D01*
X139038694Y-76524023D01*
X139021051Y-76523900D01*
X138702549Y-76523900D01*
X138457114Y-76547965D01*
X138221028Y-76619244D01*
X138003283Y-76735021D01*
X137812173Y-76890886D01*
X137654977Y-77080904D01*
X137543271Y-77287500D01*
X136507835Y-77287500D01*
X136507835Y-76923900D01*
X136502560Y-76858991D01*
X136468878Y-76751276D01*
X136406578Y-76657170D01*
X136320572Y-76584094D01*
X136217641Y-76537809D01*
X136105900Y-76521965D01*
X134073900Y-76521965D01*
X134008991Y-76527240D01*
X133940202Y-76548749D01*
X133940547Y-76524087D01*
X133940547Y-73984087D01*
X133898704Y-73772762D01*
X133816611Y-73573590D01*
X133697395Y-73394157D01*
X133545598Y-73241296D01*
X133367001Y-73120831D01*
X133168407Y-73037349D01*
X132957380Y-72994032D01*
X132741958Y-72992528D01*
X132530347Y-73032895D01*
X132330607Y-73113595D01*
X132150345Y-73231555D01*
X131996429Y-73382281D01*
X131874720Y-73560033D01*
X131789854Y-73758040D01*
X131745064Y-73968759D01*
X131742056Y-74184165D01*
X131780945Y-74396053D01*
X131860249Y-74596352D01*
X131976947Y-74777432D01*
X132126596Y-74932397D01*
X132303493Y-75055344D01*
X132500902Y-75141590D01*
X132711304Y-75187850D01*
X132926684Y-75192362D01*
X133138838Y-75154953D01*
X133339685Y-75077050D01*
X133521576Y-74961618D01*
X133677582Y-74813055D01*
X133801762Y-74637020D01*
X133889384Y-74440218D01*
X133937111Y-74230145D01*
X133940547Y-73984087D01*
X133940547Y-76524087D01*
X133898704Y-76312762D01*
X133816611Y-76113590D01*
X133697395Y-75934157D01*
X133545598Y-75781296D01*
X133367001Y-75660831D01*
X133168407Y-75577349D01*
X132957380Y-75534032D01*
X132741958Y-75532528D01*
X132530347Y-75572895D01*
X132330607Y-75653595D01*
X132150345Y-75771555D01*
X131996429Y-75922281D01*
X131874720Y-76100033D01*
X131789854Y-76298040D01*
X131745064Y-76508759D01*
X131742056Y-76724165D01*
X131780945Y-76936053D01*
X131860249Y-77136352D01*
X131976947Y-77317432D01*
X132126596Y-77472397D01*
X132303493Y-77595344D01*
X132500902Y-77681590D01*
X132711304Y-77727850D01*
X132926684Y-77732362D01*
X133138838Y-77694953D01*
X133339685Y-77617050D01*
X133521576Y-77501618D01*
X133671965Y-77358404D01*
X133671965Y-78448548D01*
X133545598Y-78321296D01*
X133367001Y-78200831D01*
X133168407Y-78117349D01*
X132957380Y-78074032D01*
X132741958Y-78072528D01*
X132530347Y-78112895D01*
X132330607Y-78193595D01*
X132150345Y-78311555D01*
X131996429Y-78462281D01*
X131874720Y-78640033D01*
X131789854Y-78838040D01*
X131745064Y-79048759D01*
X131742056Y-79264165D01*
X131780945Y-79476053D01*
X131860249Y-79676352D01*
X131976947Y-79857432D01*
X132126596Y-80012397D01*
X132303493Y-80135344D01*
X132500902Y-80221590D01*
X132711304Y-80267850D01*
X132926684Y-80272362D01*
X133138838Y-80234953D01*
X133339685Y-80157050D01*
X133521576Y-80041618D01*
X133677582Y-79893055D01*
X133801762Y-79717020D01*
X133889384Y-79520218D01*
X133937111Y-79310145D01*
X133940547Y-79064087D01*
X133932588Y-79023894D01*
X133962159Y-79037191D01*
X134073900Y-79053035D01*
X136105900Y-79053035D01*
X136170809Y-79047760D01*
X136278524Y-79014078D01*
X136372630Y-78951778D01*
X136445706Y-78865772D01*
X136491991Y-78762841D01*
X136507835Y-78651100D01*
X136507835Y-78287500D01*
X137544889Y-78287500D01*
X137645214Y-78479401D01*
X137799741Y-78671595D01*
X137988657Y-78830113D01*
X138204764Y-78948919D01*
X138439832Y-79023487D01*
X138684906Y-79050977D01*
X138702549Y-79051100D01*
X139021051Y-79051100D01*
X139266486Y-79027035D01*
X139502572Y-78955756D01*
X139720317Y-78839979D01*
X139911427Y-78684114D01*
X140068623Y-78494096D01*
X140185917Y-78277165D01*
X140258842Y-78041582D01*
X140284620Y-77796322D01*
X140284620Y-82876322D01*
X140262269Y-82630725D01*
X140212290Y-82460909D01*
X140212290Y-80544595D01*
X140212290Y-80110405D01*
X140149448Y-79886489D01*
X140041598Y-79673487D01*
X139894265Y-79485618D01*
X139713112Y-79330102D01*
X139505100Y-79212916D01*
X139278223Y-79138563D01*
X139041200Y-79109900D01*
X138888800Y-79109900D01*
X138888800Y-80300500D01*
X140142977Y-80300500D01*
X140212290Y-80110405D01*
X140212290Y-80544595D01*
X140142977Y-80354500D01*
X138888800Y-80354500D01*
X138888800Y-81545100D01*
X139041200Y-81545100D01*
X139278223Y-81516437D01*
X139505100Y-81442084D01*
X139713112Y-81324898D01*
X139894265Y-81169382D01*
X140041598Y-80981513D01*
X140149448Y-80768511D01*
X140212290Y-80544595D01*
X140212290Y-82460909D01*
X140192641Y-82394147D01*
X140078386Y-82175599D01*
X139923859Y-81983405D01*
X139734943Y-81824887D01*
X139518836Y-81706081D01*
X139283768Y-81631513D01*
X139038694Y-81604023D01*
X139021051Y-81603900D01*
X138834800Y-81603900D01*
X138834800Y-81545100D01*
X138834800Y-80354500D01*
X138834800Y-80300500D01*
X138834800Y-79109900D01*
X138682400Y-79109900D01*
X138445377Y-79138563D01*
X138218500Y-79212916D01*
X138010488Y-79330102D01*
X137829335Y-79485618D01*
X137682002Y-79673487D01*
X137574152Y-79886489D01*
X137511310Y-80110405D01*
X137580623Y-80300500D01*
X138834800Y-80300500D01*
X138834800Y-80354500D01*
X137580623Y-80354500D01*
X137511310Y-80544595D01*
X137574152Y-80768511D01*
X137682002Y-80981513D01*
X137829335Y-81169382D01*
X138010488Y-81324898D01*
X138218500Y-81442084D01*
X138445377Y-81516437D01*
X138682400Y-81545100D01*
X138834800Y-81545100D01*
X138834800Y-81603900D01*
X138702549Y-81603900D01*
X138457114Y-81627965D01*
X138221028Y-81699244D01*
X138003283Y-81815021D01*
X137812173Y-81970886D01*
X137654977Y-82160904D01*
X137543271Y-82367500D01*
X136440390Y-82367500D01*
X136440390Y-80544595D01*
X136440390Y-80110405D01*
X136377548Y-79886489D01*
X136269698Y-79673487D01*
X136122365Y-79485618D01*
X135941212Y-79330102D01*
X135733200Y-79212916D01*
X135506323Y-79138563D01*
X135269300Y-79109900D01*
X135116900Y-79109900D01*
X135116900Y-80300500D01*
X136371077Y-80300500D01*
X136440390Y-80110405D01*
X136440390Y-80544595D01*
X136371077Y-80354500D01*
X135116900Y-80354500D01*
X135116900Y-81545100D01*
X135269300Y-81545100D01*
X135506323Y-81516437D01*
X135733200Y-81442084D01*
X135941212Y-81324898D01*
X136122365Y-81169382D01*
X136269698Y-80981513D01*
X136377548Y-80768511D01*
X136440390Y-80544595D01*
X136440390Y-82367500D01*
X136406810Y-82367500D01*
X136306486Y-82175599D01*
X136151959Y-81983405D01*
X135963043Y-81824887D01*
X135746936Y-81706081D01*
X135511868Y-81631513D01*
X135266794Y-81604023D01*
X135249151Y-81603900D01*
X135062900Y-81603900D01*
X135062900Y-81545100D01*
X135062900Y-80354500D01*
X135062900Y-80300500D01*
X135062900Y-79109900D01*
X134910500Y-79109900D01*
X134673477Y-79138563D01*
X134446600Y-79212916D01*
X134238588Y-79330102D01*
X134057435Y-79485618D01*
X133910102Y-79673487D01*
X133802252Y-79886489D01*
X133739410Y-80110405D01*
X133808723Y-80300500D01*
X135062900Y-80300500D01*
X135062900Y-80354500D01*
X133808723Y-80354500D01*
X133739410Y-80544595D01*
X133802252Y-80768511D01*
X133910102Y-80981513D01*
X134057435Y-81169382D01*
X134238588Y-81324898D01*
X134446600Y-81442084D01*
X134673477Y-81516437D01*
X134910500Y-81545100D01*
X135062900Y-81545100D01*
X135062900Y-81603900D01*
X134930649Y-81603900D01*
X134685214Y-81627965D01*
X134449128Y-81699244D01*
X134231383Y-81815021D01*
X134040273Y-81970886D01*
X133883077Y-82160904D01*
X133765783Y-82377835D01*
X133692858Y-82613418D01*
X133667080Y-82858678D01*
X133670415Y-82895327D01*
X133420714Y-82645626D01*
X133521576Y-82581618D01*
X133677582Y-82433055D01*
X133801762Y-82257020D01*
X133889384Y-82060218D01*
X133937111Y-81850145D01*
X133940547Y-81604087D01*
X133898704Y-81392762D01*
X133816611Y-81193590D01*
X133697395Y-81014157D01*
X133545598Y-80861296D01*
X133367001Y-80740831D01*
X133168407Y-80657349D01*
X132957380Y-80614032D01*
X132741958Y-80612528D01*
X132530347Y-80652895D01*
X132330607Y-80733595D01*
X132150345Y-80851555D01*
X131996429Y-81002281D01*
X131874720Y-81180033D01*
X131789854Y-81378040D01*
X131745064Y-81588759D01*
X131742056Y-81804165D01*
X131780945Y-82016053D01*
X131857853Y-82210301D01*
X131266407Y-82210301D01*
X130439853Y-81383747D01*
X130404208Y-81354467D01*
X130368784Y-81324743D01*
X130366477Y-81323474D01*
X130364448Y-81321808D01*
X130323778Y-81300001D01*
X130283271Y-81277732D01*
X130280763Y-81276936D01*
X130278448Y-81275695D01*
X130234284Y-81262192D01*
X130190256Y-81248226D01*
X130187644Y-81247933D01*
X130185129Y-81247164D01*
X130139152Y-81242494D01*
X130093281Y-81237349D01*
X130088142Y-81237312D01*
X130088045Y-81237303D01*
X130087953Y-81237311D01*
X130086300Y-81237300D01*
X129048806Y-81237300D01*
X128732100Y-80920593D01*
X128732100Y-74726900D01*
X128727595Y-74680956D01*
X128723568Y-74634924D01*
X128722834Y-74632399D01*
X128722578Y-74629783D01*
X128709231Y-74585576D01*
X128696343Y-74541216D01*
X128695132Y-74538880D01*
X128694373Y-74536365D01*
X128672705Y-74495614D01*
X128651436Y-74454580D01*
X128649794Y-74452523D01*
X128648561Y-74450204D01*
X128619372Y-74414415D01*
X128590555Y-74378318D01*
X128586947Y-74374660D01*
X128586885Y-74374583D01*
X128586813Y-74374523D01*
X128585653Y-74373347D01*
X127950553Y-73738247D01*
X127914908Y-73708967D01*
X127879484Y-73679243D01*
X127877177Y-73677974D01*
X127875148Y-73676308D01*
X127834478Y-73654501D01*
X127793971Y-73632232D01*
X127791463Y-73631436D01*
X127789148Y-73630195D01*
X127744984Y-73616692D01*
X127700956Y-73602726D01*
X127698344Y-73602433D01*
X127695829Y-73601664D01*
X127649852Y-73596994D01*
X127603981Y-73591849D01*
X127598842Y-73591812D01*
X127598745Y-73591803D01*
X127598653Y-73591811D01*
X127597000Y-73591800D01*
X126204116Y-73591800D01*
X126196611Y-73573590D01*
X126077395Y-73394157D01*
X125925598Y-73241296D01*
X125747001Y-73120831D01*
X125579218Y-73050301D01*
X131843499Y-73050301D01*
X131889442Y-73045796D01*
X131935475Y-73041769D01*
X131937999Y-73041035D01*
X131940616Y-73040779D01*
X131984822Y-73027432D01*
X132029183Y-73014544D01*
X132031518Y-73013333D01*
X132034034Y-73012574D01*
X132074784Y-72990906D01*
X132115819Y-72969637D01*
X132117875Y-72967995D01*
X132120195Y-72966762D01*
X132155983Y-72937573D01*
X132192081Y-72908756D01*
X132195738Y-72905148D01*
X132195816Y-72905086D01*
X132195875Y-72905014D01*
X132197052Y-72903854D01*
X132497054Y-72603852D01*
X132499798Y-72601107D01*
X132500902Y-72601590D01*
X132711304Y-72647850D01*
X132926684Y-72652362D01*
X133138838Y-72614953D01*
X133339685Y-72537050D01*
X133521576Y-72421618D01*
X133677582Y-72273055D01*
X133801762Y-72097020D01*
X133889384Y-71900218D01*
X133902659Y-71841783D01*
X134195320Y-72134444D01*
X134130617Y-72228941D01*
X134076538Y-72355117D01*
X134047997Y-72489394D01*
X134046080Y-72626658D01*
X134070861Y-72761680D01*
X134121396Y-72889317D01*
X134195760Y-73004707D01*
X134291121Y-73103456D01*
X134403846Y-73181802D01*
X134529641Y-73236761D01*
X134663716Y-73266239D01*
X134800963Y-73269114D01*
X134936155Y-73245276D01*
X135064141Y-73195633D01*
X135180048Y-73122077D01*
X135279460Y-73027408D01*
X135358591Y-72915232D01*
X135414427Y-72789823D01*
X135444841Y-72655958D01*
X135447030Y-72499161D01*
X135420366Y-72364499D01*
X135368054Y-72237580D01*
X135292086Y-72123239D01*
X135247000Y-72077836D01*
X135247000Y-71979018D01*
X135242490Y-71933029D01*
X135238468Y-71887042D01*
X135237734Y-71884517D01*
X135237478Y-71881901D01*
X135224131Y-71837694D01*
X135211243Y-71793334D01*
X135210032Y-71790998D01*
X135209273Y-71788483D01*
X135187584Y-71747693D01*
X135166335Y-71706698D01*
X135164696Y-71704645D01*
X135163461Y-71702322D01*
X135134269Y-71666530D01*
X135105455Y-71630435D01*
X135101846Y-71626776D01*
X135101785Y-71626701D01*
X135101714Y-71626642D01*
X135100553Y-71625465D01*
X133942435Y-70467347D01*
X133942435Y-62090300D01*
X133942435Y-60693300D01*
X133937160Y-60628391D01*
X133903478Y-60520676D01*
X133841178Y-60426570D01*
X133755172Y-60353494D01*
X133652241Y-60307209D01*
X133540500Y-60291365D01*
X133342000Y-60291365D01*
X133342000Y-54025800D01*
X133337490Y-53979811D01*
X133333468Y-53933824D01*
X133332734Y-53931299D01*
X133332478Y-53928683D01*
X133319131Y-53884476D01*
X133306243Y-53840116D01*
X133305032Y-53837780D01*
X133304273Y-53835265D01*
X133282584Y-53794475D01*
X133261335Y-53753480D01*
X133259696Y-53751427D01*
X133258461Y-53749104D01*
X133229269Y-53713312D01*
X133200455Y-53677217D01*
X133196843Y-53673554D01*
X133196785Y-53673483D01*
X133196718Y-53673428D01*
X133195553Y-53672246D01*
X132814553Y-53291247D01*
X132778908Y-53261967D01*
X132743484Y-53232243D01*
X132741177Y-53230974D01*
X132739148Y-53229308D01*
X132698478Y-53207501D01*
X132657971Y-53185232D01*
X132655463Y-53184436D01*
X132653148Y-53183195D01*
X132608984Y-53169692D01*
X132564956Y-53155726D01*
X132562344Y-53155433D01*
X132559829Y-53154664D01*
X132513852Y-53149994D01*
X132467981Y-53144849D01*
X132462842Y-53144812D01*
X132462745Y-53144803D01*
X132462653Y-53144811D01*
X132461000Y-53144800D01*
X108732773Y-53144800D01*
X108632449Y-52952899D01*
X108477922Y-52760705D01*
X108289006Y-52602187D01*
X108072899Y-52483381D01*
X107837831Y-52408813D01*
X107592757Y-52381323D01*
X107575114Y-52381200D01*
X107562886Y-52381200D01*
X107317451Y-52405265D01*
X107081365Y-52476544D01*
X106863620Y-52592321D01*
X106672510Y-52748186D01*
X106515314Y-52938204D01*
X106398020Y-53155135D01*
X106325095Y-53390718D01*
X106299317Y-53635978D01*
X106321668Y-53881575D01*
X106391296Y-54118153D01*
X106505551Y-54336701D01*
X106660078Y-54528895D01*
X106848994Y-54687413D01*
X107065101Y-54806219D01*
X107300169Y-54880787D01*
X107545243Y-54908277D01*
X107562886Y-54908400D01*
X107575114Y-54908400D01*
X107820549Y-54884335D01*
X108056635Y-54813056D01*
X108274380Y-54697279D01*
X108465490Y-54541414D01*
X108622686Y-54351396D01*
X108734391Y-54144800D01*
X132253893Y-54144800D01*
X132342000Y-54232906D01*
X132342000Y-60291365D01*
X132143500Y-60291365D01*
X132078591Y-60296640D01*
X131970876Y-60330322D01*
X131876770Y-60392622D01*
X131803694Y-60478628D01*
X131757409Y-60581559D01*
X131741565Y-60693300D01*
X131741565Y-62090300D01*
X131746840Y-62155209D01*
X131780522Y-62262924D01*
X131842822Y-62357030D01*
X131928828Y-62430106D01*
X132031759Y-62476391D01*
X132143500Y-62492235D01*
X133540500Y-62492235D01*
X133605409Y-62486960D01*
X133713124Y-62453278D01*
X133807230Y-62390978D01*
X133880306Y-62304972D01*
X133926591Y-62202041D01*
X133942435Y-62090300D01*
X133942435Y-70467347D01*
X133674834Y-70199746D01*
X133639189Y-70170466D01*
X133603765Y-70140742D01*
X133601458Y-70139473D01*
X133599429Y-70137807D01*
X133558759Y-70116000D01*
X133518252Y-70093731D01*
X133515744Y-70092935D01*
X133513429Y-70091694D01*
X133469265Y-70078191D01*
X133425237Y-70064225D01*
X133422625Y-70063932D01*
X133420110Y-70063163D01*
X133374133Y-70058493D01*
X133328262Y-70053348D01*
X133323123Y-70053311D01*
X133323026Y-70053302D01*
X133322934Y-70053310D01*
X133321281Y-70053299D01*
X133194665Y-70053299D01*
X133339685Y-69997050D01*
X133521576Y-69881618D01*
X133677582Y-69733055D01*
X133801762Y-69557020D01*
X133889384Y-69360218D01*
X133937111Y-69150145D01*
X133940547Y-68904087D01*
X133940547Y-66364087D01*
X133940547Y-63824087D01*
X133898704Y-63612762D01*
X133816611Y-63413590D01*
X133697395Y-63234157D01*
X133545598Y-63081296D01*
X133367001Y-62960831D01*
X133168407Y-62877349D01*
X132957380Y-62834032D01*
X132741958Y-62832528D01*
X132530347Y-62872895D01*
X132330607Y-62953595D01*
X132150345Y-63071555D01*
X131996429Y-63222281D01*
X131874720Y-63400033D01*
X131789854Y-63598040D01*
X131745064Y-63808759D01*
X131742056Y-64024165D01*
X131780945Y-64236053D01*
X131860249Y-64436352D01*
X131976947Y-64617432D01*
X132126596Y-64772397D01*
X132303493Y-64895344D01*
X132500902Y-64981590D01*
X132711304Y-65027850D01*
X132926684Y-65032362D01*
X133138838Y-64994953D01*
X133339685Y-64917050D01*
X133521576Y-64801618D01*
X133677582Y-64653055D01*
X133801762Y-64477020D01*
X133889384Y-64280218D01*
X133937111Y-64070145D01*
X133940547Y-63824087D01*
X133940547Y-66364087D01*
X133898704Y-66152762D01*
X133816611Y-65953590D01*
X133697395Y-65774157D01*
X133545598Y-65621296D01*
X133367001Y-65500831D01*
X133168407Y-65417349D01*
X132957380Y-65374032D01*
X132741958Y-65372528D01*
X132530347Y-65412895D01*
X132330607Y-65493595D01*
X132150345Y-65611555D01*
X131996429Y-65762281D01*
X131874720Y-65940033D01*
X131789854Y-66138040D01*
X131745064Y-66348759D01*
X131742056Y-66564165D01*
X131780945Y-66776053D01*
X131860249Y-66976352D01*
X131976947Y-67157432D01*
X132126596Y-67312397D01*
X132303493Y-67435344D01*
X132500902Y-67521590D01*
X132711304Y-67567850D01*
X132926684Y-67572362D01*
X133138838Y-67534953D01*
X133339685Y-67457050D01*
X133521576Y-67341618D01*
X133677582Y-67193055D01*
X133801762Y-67017020D01*
X133889384Y-66820218D01*
X133937111Y-66610145D01*
X133940547Y-66364087D01*
X133940547Y-68904087D01*
X133898704Y-68692762D01*
X133816611Y-68493590D01*
X133697395Y-68314157D01*
X133545598Y-68161296D01*
X133367001Y-68040831D01*
X133168407Y-67957349D01*
X132957380Y-67914032D01*
X132741958Y-67912528D01*
X132530347Y-67952895D01*
X132330607Y-68033595D01*
X132150345Y-68151555D01*
X131996429Y-68302281D01*
X131874720Y-68480033D01*
X131789854Y-68678040D01*
X131745064Y-68888759D01*
X131742056Y-69104165D01*
X131780945Y-69316053D01*
X131860249Y-69516352D01*
X131976947Y-69697432D01*
X132126596Y-69852397D01*
X132303493Y-69975344D01*
X132481924Y-70053299D01*
X127208329Y-70053299D01*
X127162376Y-70057804D01*
X127116354Y-70061831D01*
X127113829Y-70062564D01*
X127111212Y-70062821D01*
X127066993Y-70076171D01*
X127022645Y-70089056D01*
X127020309Y-70090266D01*
X127017794Y-70091026D01*
X126977023Y-70112703D01*
X126936010Y-70133963D01*
X126933955Y-70135603D01*
X126931633Y-70136838D01*
X126895822Y-70166044D01*
X126859747Y-70194844D01*
X126856084Y-70198454D01*
X126856012Y-70198514D01*
X126855956Y-70198581D01*
X126854776Y-70199745D01*
X126320547Y-70733974D01*
X126320547Y-68904087D01*
X126320547Y-66364087D01*
X126320547Y-63824087D01*
X126279494Y-63616751D01*
X126279494Y-61406328D01*
X126262008Y-61199743D01*
X126204557Y-61000537D01*
X126109345Y-60816368D01*
X126093202Y-60792209D01*
X125926078Y-60725906D01*
X125887894Y-60764090D01*
X125887894Y-60687722D01*
X125821591Y-60520598D01*
X125640107Y-60420363D01*
X125442556Y-60357460D01*
X125236528Y-60334306D01*
X125029943Y-60351792D01*
X124830737Y-60409243D01*
X124646568Y-60504455D01*
X124622409Y-60520598D01*
X124556106Y-60687722D01*
X125222000Y-61353616D01*
X125887894Y-60687722D01*
X125887894Y-60764090D01*
X125260184Y-61391800D01*
X125926078Y-62057694D01*
X126093202Y-61991391D01*
X126193437Y-61809907D01*
X126256340Y-61612356D01*
X126279494Y-61406328D01*
X126279494Y-63616751D01*
X126278704Y-63612762D01*
X126196611Y-63413590D01*
X126077395Y-63234157D01*
X125925598Y-63081296D01*
X125887894Y-63055864D01*
X125887894Y-62095878D01*
X125222000Y-61429984D01*
X125183816Y-61468168D01*
X125183816Y-61391800D01*
X124517922Y-60725906D01*
X124350798Y-60792209D01*
X124250563Y-60973693D01*
X124187660Y-61171244D01*
X124164506Y-61377272D01*
X124181992Y-61583857D01*
X124239443Y-61783063D01*
X124334655Y-61967232D01*
X124350798Y-61991391D01*
X124517922Y-62057694D01*
X125183816Y-61391800D01*
X125183816Y-61468168D01*
X124556106Y-62095878D01*
X124622409Y-62263002D01*
X124803893Y-62363237D01*
X125001444Y-62426140D01*
X125207472Y-62449294D01*
X125414057Y-62431808D01*
X125613263Y-62374357D01*
X125797432Y-62279145D01*
X125821591Y-62263002D01*
X125887894Y-62095878D01*
X125887894Y-63055864D01*
X125747001Y-62960831D01*
X125548407Y-62877349D01*
X125337380Y-62834032D01*
X125121958Y-62832528D01*
X124910347Y-62872895D01*
X124710607Y-62953595D01*
X124530345Y-63071555D01*
X124376429Y-63222281D01*
X124254720Y-63400033D01*
X124169854Y-63598040D01*
X124125064Y-63808759D01*
X124122056Y-64024165D01*
X124160945Y-64236053D01*
X124240249Y-64436352D01*
X124356947Y-64617432D01*
X124506596Y-64772397D01*
X124683493Y-64895344D01*
X124880902Y-64981590D01*
X125091304Y-65027850D01*
X125306684Y-65032362D01*
X125518838Y-64994953D01*
X125719685Y-64917050D01*
X125901576Y-64801618D01*
X126057582Y-64653055D01*
X126181762Y-64477020D01*
X126269384Y-64280218D01*
X126317111Y-64070145D01*
X126320547Y-63824087D01*
X126320547Y-66364087D01*
X126278704Y-66152762D01*
X126196611Y-65953590D01*
X126077395Y-65774157D01*
X125925598Y-65621296D01*
X125747001Y-65500831D01*
X125548407Y-65417349D01*
X125337380Y-65374032D01*
X125121958Y-65372528D01*
X124910347Y-65412895D01*
X124710607Y-65493595D01*
X124530345Y-65611555D01*
X124376429Y-65762281D01*
X124254720Y-65940033D01*
X124169854Y-66138040D01*
X124125064Y-66348759D01*
X124122056Y-66564165D01*
X124160945Y-66776053D01*
X124240249Y-66976352D01*
X124356947Y-67157432D01*
X124506596Y-67312397D01*
X124683493Y-67435344D01*
X124880902Y-67521590D01*
X125091304Y-67567850D01*
X125306684Y-67572362D01*
X125518838Y-67534953D01*
X125719685Y-67457050D01*
X125901576Y-67341618D01*
X126057582Y-67193055D01*
X126181762Y-67017020D01*
X126269384Y-66820218D01*
X126317111Y-66610145D01*
X126320547Y-66364087D01*
X126320547Y-68904087D01*
X126278704Y-68692762D01*
X126196611Y-68493590D01*
X126077395Y-68314157D01*
X125925598Y-68161296D01*
X125747001Y-68040831D01*
X125548407Y-67957349D01*
X125337380Y-67914032D01*
X125121958Y-67912528D01*
X124910347Y-67952895D01*
X124710607Y-68033595D01*
X124530345Y-68151555D01*
X124376429Y-68302281D01*
X124254720Y-68480033D01*
X124169854Y-68678040D01*
X124125064Y-68888759D01*
X124122056Y-69104165D01*
X124160945Y-69316053D01*
X124240249Y-69516352D01*
X124356947Y-69697432D01*
X124506596Y-69852397D01*
X124683493Y-69975344D01*
X124880902Y-70061590D01*
X125091304Y-70107850D01*
X125306684Y-70112362D01*
X125518838Y-70074953D01*
X125719685Y-69997050D01*
X125901576Y-69881618D01*
X126057582Y-69733055D01*
X126181762Y-69557020D01*
X126269384Y-69360218D01*
X126317111Y-69150145D01*
X126320547Y-68904087D01*
X126320547Y-70733974D01*
X126126482Y-70928039D01*
X126077395Y-70854157D01*
X125925598Y-70701296D01*
X125747001Y-70580831D01*
X125548407Y-70497349D01*
X125337380Y-70454032D01*
X125121958Y-70452528D01*
X124910347Y-70492895D01*
X124710607Y-70573595D01*
X124530345Y-70691555D01*
X124376429Y-70842281D01*
X124254720Y-71020033D01*
X124169854Y-71218040D01*
X124125064Y-71428759D01*
X124122056Y-71644165D01*
X124160945Y-71856053D01*
X124240249Y-72056352D01*
X124356947Y-72237432D01*
X124506596Y-72392397D01*
X124642239Y-72486672D01*
X123869946Y-73258966D01*
X123840666Y-73294610D01*
X123810942Y-73330035D01*
X123809673Y-73332341D01*
X123808007Y-73334371D01*
X123786200Y-73375040D01*
X123763931Y-73415548D01*
X123763135Y-73418055D01*
X123761894Y-73420371D01*
X123748391Y-73464534D01*
X123734425Y-73508563D01*
X123734132Y-73511174D01*
X123733363Y-73513690D01*
X123728693Y-73559666D01*
X123723548Y-73605538D01*
X123723511Y-73610676D01*
X123723502Y-73610774D01*
X123723510Y-73610865D01*
X123723499Y-73612519D01*
X123723499Y-74141187D01*
X122705156Y-75159530D01*
X122705156Y-63948561D01*
X122688619Y-63773617D01*
X122638417Y-63605218D01*
X122556462Y-63449777D01*
X122445876Y-63313214D01*
X122310871Y-63200732D01*
X122156589Y-63116614D01*
X121988906Y-63064066D01*
X121814210Y-63045087D01*
X121639155Y-63060403D01*
X121470409Y-63109429D01*
X121314400Y-63190295D01*
X121177068Y-63299927D01*
X121168117Y-63308753D01*
X120806421Y-63670449D01*
X120694884Y-63806237D01*
X120611846Y-63961102D01*
X120560469Y-64129147D01*
X120542711Y-64303972D01*
X120559248Y-64478915D01*
X120609451Y-64647314D01*
X120691405Y-64802756D01*
X120801992Y-64939318D01*
X120936997Y-65051801D01*
X121002186Y-65087343D01*
X120947444Y-65116205D01*
X120810882Y-65226792D01*
X120698399Y-65361797D01*
X120614282Y-65516079D01*
X120561733Y-65683762D01*
X120542755Y-65858457D01*
X120558070Y-66033512D01*
X120607096Y-66202258D01*
X120687963Y-66358268D01*
X120797594Y-66495600D01*
X120806421Y-66504551D01*
X121168117Y-66866247D01*
X121303905Y-66977783D01*
X121458770Y-67060822D01*
X121626815Y-67112199D01*
X121801639Y-67129956D01*
X121976583Y-67113419D01*
X122144982Y-67063217D01*
X122300423Y-66981262D01*
X122436986Y-66870676D01*
X122549468Y-66735671D01*
X122633586Y-66581389D01*
X122686134Y-66413706D01*
X122705113Y-66239010D01*
X122689797Y-66063955D01*
X122640771Y-65895209D01*
X122559905Y-65739200D01*
X122450273Y-65601868D01*
X122441447Y-65592917D01*
X122079751Y-65231221D01*
X121943963Y-65119684D01*
X121884328Y-65087708D01*
X121933468Y-65062237D01*
X122070800Y-64952606D01*
X122079751Y-64943779D01*
X122441447Y-64582083D01*
X122552983Y-64446295D01*
X122636022Y-64291430D01*
X122687399Y-64123385D01*
X122705156Y-63948561D01*
X122705156Y-75159530D01*
X121310820Y-76553866D01*
X121310820Y-74354622D01*
X121310820Y-71814622D01*
X121288469Y-71569025D01*
X121218841Y-71332447D01*
X121104586Y-71113899D01*
X120950059Y-70921705D01*
X120761143Y-70763187D01*
X120545036Y-70644381D01*
X120309968Y-70569813D01*
X120064894Y-70542323D01*
X120047251Y-70542200D01*
X119728749Y-70542200D01*
X119483314Y-70566265D01*
X119247228Y-70637544D01*
X119029483Y-70753321D01*
X118838373Y-70909186D01*
X118681177Y-71099204D01*
X118563883Y-71316135D01*
X118490958Y-71551718D01*
X118465180Y-71796978D01*
X118487531Y-72042575D01*
X118557159Y-72279153D01*
X118671414Y-72497701D01*
X118825941Y-72689895D01*
X119014857Y-72848413D01*
X119230964Y-72967219D01*
X119466032Y-73041787D01*
X119711106Y-73069277D01*
X119728749Y-73069400D01*
X120047251Y-73069400D01*
X120292686Y-73045335D01*
X120528772Y-72974056D01*
X120746517Y-72858279D01*
X120937627Y-72702414D01*
X121094823Y-72512396D01*
X121212117Y-72295465D01*
X121285042Y-72059882D01*
X121310820Y-71814622D01*
X121310820Y-74354622D01*
X121288469Y-74109025D01*
X121218841Y-73872447D01*
X121104586Y-73653899D01*
X120950059Y-73461705D01*
X120761143Y-73303187D01*
X120545036Y-73184381D01*
X120309968Y-73109813D01*
X120064894Y-73082323D01*
X120047251Y-73082200D01*
X119728749Y-73082200D01*
X119483314Y-73106265D01*
X119247228Y-73177544D01*
X119029483Y-73293321D01*
X118838373Y-73449186D01*
X118681177Y-73639204D01*
X118563883Y-73856135D01*
X118490958Y-74091718D01*
X118465180Y-74336978D01*
X118487531Y-74582575D01*
X118557159Y-74819153D01*
X118671414Y-75037701D01*
X118825941Y-75229895D01*
X119014857Y-75388413D01*
X119230964Y-75507219D01*
X119466032Y-75581787D01*
X119711106Y-75609277D01*
X119728749Y-75609400D01*
X120047251Y-75609400D01*
X120292686Y-75585335D01*
X120528772Y-75514056D01*
X120746517Y-75398279D01*
X120937627Y-75242414D01*
X121094823Y-75052396D01*
X121212117Y-74835465D01*
X121285042Y-74599882D01*
X121310820Y-74354622D01*
X121310820Y-76553866D01*
X121229174Y-76635512D01*
X121175648Y-76444789D01*
X121067798Y-76231787D01*
X120920465Y-76043918D01*
X120739312Y-75888402D01*
X120531300Y-75771216D01*
X120304423Y-75696863D01*
X120067400Y-75668200D01*
X119915000Y-75668200D01*
X119915000Y-76858800D01*
X119935000Y-76858800D01*
X119935000Y-76912800D01*
X119915000Y-76912800D01*
X119915000Y-76932800D01*
X119861000Y-76932800D01*
X119861000Y-76912800D01*
X119861000Y-76858800D01*
X119861000Y-75668200D01*
X119708600Y-75668200D01*
X119471577Y-75696863D01*
X119244700Y-75771216D01*
X119036688Y-75888402D01*
X118855535Y-76043918D01*
X118708202Y-76231787D01*
X118600352Y-76444789D01*
X118537510Y-76668705D01*
X118606823Y-76858800D01*
X119861000Y-76858800D01*
X119861000Y-76912800D01*
X118606823Y-76912800D01*
X118537510Y-77102895D01*
X118600352Y-77326811D01*
X118708202Y-77539813D01*
X118715728Y-77549410D01*
X115299216Y-77549410D01*
X114028053Y-76278247D01*
X113992408Y-76248967D01*
X113956984Y-76219243D01*
X113954677Y-76217974D01*
X113952648Y-76216308D01*
X113911978Y-76194501D01*
X113876435Y-76174960D01*
X113876435Y-75933300D01*
X113871160Y-75868391D01*
X113837478Y-75760676D01*
X113775178Y-75666570D01*
X113689172Y-75593494D01*
X113586241Y-75547209D01*
X113474500Y-75531365D01*
X112077500Y-75531365D01*
X112012591Y-75536640D01*
X111904876Y-75570322D01*
X111810770Y-75632622D01*
X111737694Y-75718628D01*
X111691409Y-75821559D01*
X111675565Y-75933300D01*
X111675565Y-76761260D01*
X111518610Y-76604305D01*
X111518610Y-71602157D01*
X111688404Y-71742623D01*
X111905335Y-71859917D01*
X112140918Y-71932842D01*
X112386178Y-71958620D01*
X112631775Y-71936269D01*
X112868353Y-71866641D01*
X113058610Y-71767176D01*
X113058610Y-73985410D01*
X113063114Y-74031353D01*
X113067142Y-74077386D01*
X113067875Y-74079910D01*
X113068132Y-74082527D01*
X113081478Y-74126733D01*
X113094367Y-74171094D01*
X113095577Y-74173429D01*
X113096337Y-74175945D01*
X113118004Y-74216695D01*
X113139274Y-74257730D01*
X113140915Y-74259786D01*
X113142149Y-74262106D01*
X113171337Y-74297894D01*
X113200155Y-74333992D01*
X113203762Y-74337649D01*
X113203825Y-74337727D01*
X113203896Y-74337786D01*
X113205057Y-74338963D01*
X115123805Y-76257712D01*
X115123080Y-76309658D01*
X115147861Y-76444680D01*
X115198396Y-76572317D01*
X115272760Y-76687707D01*
X115368121Y-76786456D01*
X115480846Y-76864802D01*
X115606641Y-76919761D01*
X115740716Y-76949239D01*
X115877963Y-76952114D01*
X116013155Y-76928276D01*
X116141141Y-76878633D01*
X116257048Y-76805077D01*
X116356460Y-76710408D01*
X116435591Y-76598232D01*
X116491427Y-76472823D01*
X116521841Y-76338958D01*
X116524030Y-76182161D01*
X116497366Y-76047499D01*
X116445054Y-75920580D01*
X116369086Y-75806239D01*
X116272356Y-75708831D01*
X116158548Y-75632067D01*
X116031997Y-75578870D01*
X115897524Y-75551266D01*
X115831109Y-75550802D01*
X114058610Y-73778303D01*
X114058610Y-71951921D01*
X114071400Y-71953735D01*
X115798600Y-71953735D01*
X115863509Y-71948460D01*
X115971224Y-71914778D01*
X116065330Y-71852478D01*
X116138406Y-71766472D01*
X116184691Y-71663541D01*
X116200535Y-71551800D01*
X116200535Y-71035800D01*
X117094000Y-71035800D01*
X117139943Y-71031295D01*
X117185976Y-71027268D01*
X117188500Y-71026534D01*
X117191117Y-71026278D01*
X117235323Y-71012931D01*
X117279684Y-71000043D01*
X117282019Y-70998832D01*
X117284535Y-70998073D01*
X117325285Y-70976405D01*
X117366320Y-70955136D01*
X117368376Y-70953494D01*
X117370696Y-70952261D01*
X117406484Y-70923072D01*
X117442582Y-70894255D01*
X117446239Y-70890647D01*
X117446317Y-70890585D01*
X117446376Y-70890513D01*
X117447553Y-70889353D01*
X118470065Y-69866841D01*
X118470065Y-70129400D01*
X118475340Y-70194309D01*
X118509022Y-70302024D01*
X118571322Y-70396130D01*
X118657328Y-70469206D01*
X118760259Y-70515491D01*
X118872000Y-70531335D01*
X120904000Y-70531335D01*
X120968909Y-70526060D01*
X121076624Y-70492378D01*
X121170730Y-70430078D01*
X121243806Y-70344072D01*
X121290091Y-70241141D01*
X121305935Y-70129400D01*
X121305935Y-68402200D01*
X121300660Y-68337291D01*
X121266978Y-68229576D01*
X121204678Y-68135470D01*
X121118672Y-68062394D01*
X121015741Y-68016109D01*
X120904000Y-68000265D01*
X118872000Y-68000265D01*
X118807091Y-68005540D01*
X118699376Y-68039222D01*
X118605270Y-68101522D01*
X118532194Y-68187528D01*
X118485909Y-68290459D01*
X118470065Y-68402200D01*
X118470065Y-68765800D01*
X118364000Y-68765800D01*
X118318011Y-68770309D01*
X118272024Y-68774332D01*
X118269499Y-68775065D01*
X118266883Y-68775322D01*
X118222676Y-68788668D01*
X118178316Y-68801557D01*
X118175980Y-68802767D01*
X118173465Y-68803527D01*
X118132675Y-68825215D01*
X118091680Y-68846465D01*
X118089627Y-68848103D01*
X118087304Y-68849339D01*
X118051512Y-68878530D01*
X118015417Y-68907345D01*
X118011754Y-68910956D01*
X118011683Y-68911015D01*
X118011628Y-68911081D01*
X118010446Y-68912247D01*
X116886893Y-70035800D01*
X116200535Y-70035800D01*
X116200535Y-69519800D01*
X116195260Y-69454891D01*
X116161578Y-69347176D01*
X116099278Y-69253070D01*
X116013272Y-69179994D01*
X115910341Y-69133709D01*
X115798600Y-69117865D01*
X114071400Y-69117865D01*
X114058610Y-69118904D01*
X114058610Y-67254410D01*
X114054104Y-67208457D01*
X114050078Y-67162435D01*
X114049344Y-67159910D01*
X114049088Y-67157293D01*
X114035737Y-67113074D01*
X114022853Y-67068726D01*
X114021642Y-67066390D01*
X114020883Y-67063875D01*
X113999205Y-67023104D01*
X113977946Y-66982091D01*
X113976305Y-66980036D01*
X113975071Y-66977714D01*
X113945864Y-66941903D01*
X113917065Y-66905828D01*
X113913454Y-66902165D01*
X113913395Y-66902093D01*
X113913327Y-66902037D01*
X113912164Y-66900857D01*
X108746076Y-61734770D01*
X108812905Y-61518882D01*
X108838683Y-61273622D01*
X108838683Y-58733622D01*
X108816332Y-58488025D01*
X108746704Y-58251447D01*
X108632449Y-58032899D01*
X108477922Y-57840705D01*
X108289006Y-57682187D01*
X108072899Y-57563381D01*
X107837831Y-57488813D01*
X107592757Y-57461323D01*
X107575114Y-57461200D01*
X107562886Y-57461200D01*
X107317451Y-57485265D01*
X107081365Y-57556544D01*
X106863620Y-57672321D01*
X106672510Y-57828186D01*
X106515314Y-58018204D01*
X106398020Y-58235135D01*
X106325095Y-58470718D01*
X106299317Y-58715978D01*
X106321668Y-58961575D01*
X106391296Y-59198153D01*
X106505551Y-59416701D01*
X106660078Y-59608895D01*
X106848994Y-59767413D01*
X107065101Y-59886219D01*
X107300169Y-59960787D01*
X107545243Y-59988277D01*
X107562886Y-59988400D01*
X107575114Y-59988400D01*
X107820549Y-59964335D01*
X108056635Y-59893056D01*
X108274380Y-59777279D01*
X108465490Y-59621414D01*
X108622686Y-59431396D01*
X108739980Y-59214465D01*
X108812905Y-58978882D01*
X108838683Y-58733622D01*
X108838683Y-61273622D01*
X108816332Y-61028025D01*
X108746704Y-60791447D01*
X108632449Y-60572899D01*
X108477922Y-60380705D01*
X108289006Y-60222187D01*
X108072899Y-60103381D01*
X107837831Y-60028813D01*
X107592757Y-60001323D01*
X107575114Y-60001200D01*
X107562886Y-60001200D01*
X107317451Y-60025265D01*
X107081365Y-60096544D01*
X106863620Y-60212321D01*
X106672510Y-60368186D01*
X106515314Y-60558204D01*
X106398020Y-60775135D01*
X106325095Y-61010718D01*
X106299317Y-61255978D01*
X106321668Y-61501575D01*
X106391296Y-61738153D01*
X106505551Y-61956701D01*
X106660078Y-62148895D01*
X106848994Y-62307413D01*
X107065101Y-62426219D01*
X107300169Y-62500787D01*
X107545243Y-62528277D01*
X107562886Y-62528400D01*
X107575114Y-62528400D01*
X107820549Y-62504335D01*
X108036291Y-62439197D01*
X113058610Y-67461516D01*
X113058610Y-69305734D01*
X112884665Y-69211683D01*
X112649082Y-69138758D01*
X112403822Y-69112980D01*
X112158225Y-69135331D01*
X111921647Y-69204959D01*
X111703099Y-69319214D01*
X111518610Y-69467546D01*
X111518610Y-67254410D01*
X111514104Y-67208457D01*
X111510078Y-67162435D01*
X111509344Y-67159910D01*
X111509088Y-67157293D01*
X111495737Y-67113074D01*
X111482853Y-67068726D01*
X111481642Y-67066390D01*
X111480883Y-67063875D01*
X111459205Y-67023104D01*
X111437946Y-66982091D01*
X111436305Y-66980036D01*
X111435071Y-66977714D01*
X111405864Y-66941903D01*
X111377065Y-66905828D01*
X111373454Y-66902165D01*
X111373395Y-66902093D01*
X111373327Y-66902037D01*
X111372164Y-66900857D01*
X106206076Y-61734770D01*
X106272905Y-61518882D01*
X106298683Y-61273622D01*
X106276332Y-61028025D01*
X106206704Y-60791447D01*
X106092449Y-60572899D01*
X105937922Y-60380705D01*
X105749006Y-60222187D01*
X105532899Y-60103381D01*
X105297831Y-60028813D01*
X105052757Y-60001323D01*
X105035114Y-60001200D01*
X105022886Y-60001200D01*
X104777451Y-60025265D01*
X104541365Y-60096544D01*
X104365399Y-60190106D01*
X104365399Y-59798421D01*
X104525101Y-59886219D01*
X104760169Y-59960787D01*
X105005243Y-59988277D01*
X105022886Y-59988400D01*
X105035114Y-59988400D01*
X105280549Y-59964335D01*
X105516635Y-59893056D01*
X105734380Y-59777279D01*
X105925490Y-59621414D01*
X106082686Y-59431396D01*
X106199980Y-59214465D01*
X106272905Y-58978882D01*
X106298683Y-58733622D01*
X106276332Y-58488025D01*
X106206704Y-58251447D01*
X106092449Y-58032899D01*
X105944109Y-57848401D01*
X106405399Y-57848401D01*
X106451342Y-57843896D01*
X106497375Y-57839869D01*
X106499899Y-57839135D01*
X106502516Y-57838879D01*
X106546722Y-57825532D01*
X106591083Y-57812644D01*
X106593418Y-57811433D01*
X106595934Y-57810674D01*
X106636684Y-57789006D01*
X106677719Y-57767737D01*
X106679775Y-57766095D01*
X106682095Y-57764862D01*
X106717883Y-57735673D01*
X106753981Y-57706856D01*
X106757638Y-57703248D01*
X106757716Y-57703186D01*
X106757775Y-57703114D01*
X106758952Y-57701954D01*
X107058954Y-57401952D01*
X107102745Y-57358160D01*
X107300169Y-57420787D01*
X107545243Y-57448277D01*
X107562886Y-57448400D01*
X107575114Y-57448400D01*
X107820549Y-57424335D01*
X108056635Y-57353056D01*
X108274380Y-57237279D01*
X108465490Y-57081414D01*
X108622686Y-56891396D01*
X108739980Y-56674465D01*
X108812905Y-56438882D01*
X108838683Y-56193622D01*
X108816332Y-55948025D01*
X108746704Y-55711447D01*
X108632449Y-55492899D01*
X108477922Y-55300705D01*
X108289006Y-55142187D01*
X108072899Y-55023381D01*
X107837831Y-54948813D01*
X107592757Y-54921323D01*
X107575114Y-54921200D01*
X107562886Y-54921200D01*
X107317451Y-54945265D01*
X107081365Y-55016544D01*
X106863620Y-55132321D01*
X106672510Y-55288186D01*
X106515314Y-55478204D01*
X106398020Y-55695135D01*
X106325095Y-55930718D01*
X106299317Y-56175978D01*
X106321668Y-56421575D01*
X106390669Y-56656024D01*
X106351848Y-56694846D01*
X106198292Y-56848401D01*
X106105933Y-56848401D01*
X106199980Y-56674465D01*
X106272905Y-56438882D01*
X106298683Y-56193622D01*
X106276332Y-55948025D01*
X106246600Y-55847003D01*
X106246600Y-54543266D01*
X106246600Y-54473534D01*
X106246600Y-53760300D01*
X106246600Y-53529300D01*
X106246600Y-52816066D01*
X106246600Y-52746334D01*
X106232996Y-52677942D01*
X106206311Y-52613518D01*
X106167570Y-52555538D01*
X106118262Y-52506230D01*
X106060282Y-52467489D01*
X105995858Y-52440804D01*
X105927466Y-52427200D01*
X105144500Y-52427200D01*
X105056000Y-52515700D01*
X105056000Y-53617800D01*
X106158100Y-53617800D01*
X106246600Y-53529300D01*
X106246600Y-53760300D01*
X106158100Y-53671800D01*
X105056000Y-53671800D01*
X105056000Y-54773900D01*
X105144500Y-54862400D01*
X105927466Y-54862400D01*
X105995858Y-54848796D01*
X106060282Y-54822111D01*
X106118262Y-54783370D01*
X106167570Y-54734062D01*
X106206311Y-54676082D01*
X106232996Y-54611658D01*
X106246600Y-54543266D01*
X106246600Y-55847003D01*
X106206704Y-55711447D01*
X106092449Y-55492899D01*
X105937922Y-55300705D01*
X105749006Y-55142187D01*
X105532899Y-55023381D01*
X105297831Y-54948813D01*
X105052757Y-54921323D01*
X105035114Y-54921200D01*
X105022886Y-54921200D01*
X105002000Y-54923247D01*
X105002000Y-54773900D01*
X105002000Y-53671800D01*
X105002000Y-53617800D01*
X105002000Y-52515700D01*
X104913500Y-52427200D01*
X104130534Y-52427200D01*
X104062142Y-52440804D01*
X103997718Y-52467489D01*
X103939738Y-52506230D01*
X103890430Y-52555538D01*
X103851689Y-52613518D01*
X103825004Y-52677942D01*
X103811400Y-52746334D01*
X103811400Y-52816066D01*
X103811400Y-53529300D01*
X103899900Y-53617800D01*
X105002000Y-53617800D01*
X105002000Y-53671800D01*
X103899900Y-53671800D01*
X103811400Y-53760300D01*
X103811400Y-54473534D01*
X103811400Y-54543266D01*
X103825004Y-54611658D01*
X103851689Y-54676082D01*
X103890430Y-54734062D01*
X103939738Y-54783370D01*
X103997718Y-54822111D01*
X104062142Y-54848796D01*
X104130534Y-54862400D01*
X104913500Y-54862400D01*
X105002000Y-54773900D01*
X105002000Y-54923247D01*
X104777451Y-54945265D01*
X104541365Y-55016544D01*
X104323620Y-55132321D01*
X104132510Y-55288186D01*
X103975314Y-55478204D01*
X103858020Y-55695135D01*
X103785095Y-55930718D01*
X103759317Y-56175978D01*
X103781668Y-56421575D01*
X103851296Y-56658153D01*
X103965551Y-56876701D01*
X104085668Y-57026097D01*
X103511846Y-57599920D01*
X103482566Y-57635564D01*
X103452842Y-57670989D01*
X103451573Y-57673295D01*
X103449907Y-57675325D01*
X103428100Y-57715994D01*
X103405831Y-57756502D01*
X103405035Y-57759009D01*
X103403794Y-57761325D01*
X103390291Y-57805488D01*
X103376325Y-57849517D01*
X103376032Y-57852128D01*
X103375263Y-57854644D01*
X103370593Y-57900620D01*
X103365448Y-57946492D01*
X103365411Y-57951630D01*
X103365402Y-57951728D01*
X103365410Y-57951819D01*
X103365399Y-57953473D01*
X103365399Y-71738981D01*
X103369903Y-71784924D01*
X103373931Y-71830957D01*
X103374664Y-71833481D01*
X103374921Y-71836098D01*
X103388267Y-71880304D01*
X103401156Y-71924665D01*
X103402366Y-71927000D01*
X103403126Y-71929516D01*
X103424793Y-71970266D01*
X103446063Y-72011301D01*
X103447704Y-72013357D01*
X103448938Y-72015677D01*
X103478126Y-72051465D01*
X103506944Y-72087563D01*
X103510551Y-72091220D01*
X103510614Y-72091298D01*
X103510685Y-72091357D01*
X103511846Y-72092534D01*
X111943166Y-80523854D01*
X111978810Y-80553133D01*
X112014235Y-80582858D01*
X112016541Y-80584126D01*
X112018571Y-80585793D01*
X112059240Y-80607599D01*
X112099748Y-80629869D01*
X112102255Y-80630664D01*
X112104571Y-80631906D01*
X112148734Y-80645408D01*
X112192763Y-80659375D01*
X112195374Y-80659667D01*
X112197890Y-80660437D01*
X112243866Y-80665106D01*
X112289738Y-80670252D01*
X112294876Y-80670288D01*
X112294974Y-80670298D01*
X112295065Y-80670289D01*
X112296719Y-80670301D01*
X112421265Y-80670301D01*
X112264607Y-80733595D01*
X112084345Y-80851555D01*
X111930429Y-81002281D01*
X111808720Y-81180033D01*
X111723854Y-81378040D01*
X111679064Y-81588759D01*
X111676056Y-81804165D01*
X111714945Y-82016053D01*
X111794249Y-82216352D01*
X111910947Y-82397432D01*
X112060596Y-82552397D01*
X112237493Y-82675344D01*
X112434902Y-82761590D01*
X112645304Y-82807850D01*
X112860684Y-82812362D01*
X113072838Y-82774953D01*
X113273685Y-82697050D01*
X113455576Y-82581618D01*
X113611582Y-82433055D01*
X113735762Y-82257020D01*
X113823384Y-82060218D01*
X113871111Y-81850145D01*
X113874547Y-81604087D01*
X113848027Y-81470154D01*
X115441727Y-83063854D01*
X115477419Y-83093172D01*
X115512797Y-83122858D01*
X115515100Y-83124124D01*
X115517132Y-83125793D01*
X115557823Y-83147611D01*
X115598310Y-83169869D01*
X115600817Y-83170664D01*
X115603133Y-83171906D01*
X115647296Y-83185408D01*
X115691325Y-83199375D01*
X115693936Y-83199667D01*
X115696452Y-83200437D01*
X115742383Y-83205101D01*
X115788300Y-83210252D01*
X115793448Y-83210288D01*
X115793536Y-83210297D01*
X115793617Y-83210289D01*
X115795281Y-83210301D01*
X124514894Y-83210301D01*
X124630566Y-83325972D01*
X124530345Y-83391555D01*
X124376429Y-83542281D01*
X124254720Y-83720033D01*
X124169854Y-83918040D01*
X124125064Y-84128759D01*
X124122056Y-84344165D01*
X124160945Y-84556053D01*
X124240249Y-84756352D01*
X124356947Y-84937432D01*
X124506596Y-85092397D01*
X124683493Y-85215344D01*
X124880902Y-85301590D01*
X125091304Y-85347850D01*
X125306684Y-85352362D01*
X125518838Y-85314953D01*
X125719685Y-85237050D01*
X125901576Y-85121618D01*
X126057582Y-84973055D01*
X126148609Y-84844016D01*
X126760947Y-85456354D01*
X126796648Y-85485679D01*
X126832016Y-85515357D01*
X126834319Y-85516623D01*
X126836352Y-85518293D01*
X126877041Y-85540109D01*
X126917529Y-85562368D01*
X126920038Y-85563164D01*
X126922353Y-85564405D01*
X126966488Y-85577898D01*
X127010544Y-85591874D01*
X127013157Y-85592167D01*
X127015672Y-85592936D01*
X127061642Y-85597605D01*
X127107519Y-85602751D01*
X127112657Y-85602787D01*
X127112755Y-85602797D01*
X127112846Y-85602788D01*
X127114500Y-85602800D01*
X130162500Y-85602800D01*
X130208443Y-85598295D01*
X130254476Y-85594268D01*
X130257000Y-85593534D01*
X130259617Y-85593278D01*
X130303823Y-85579931D01*
X130348184Y-85567043D01*
X130350519Y-85565832D01*
X130353035Y-85565073D01*
X130393785Y-85543405D01*
X130434820Y-85522136D01*
X130436876Y-85520494D01*
X130439196Y-85519261D01*
X130474984Y-85490072D01*
X130511082Y-85461255D01*
X130514739Y-85457647D01*
X130514817Y-85457585D01*
X130514876Y-85457513D01*
X130516053Y-85456353D01*
X131220606Y-84751800D01*
X131858446Y-84751800D01*
X131860249Y-84756352D01*
X131976947Y-84937432D01*
X132070751Y-85034568D01*
X131969655Y-85100724D01*
X131871574Y-85196772D01*
X131794017Y-85310041D01*
X131739938Y-85436217D01*
X131711397Y-85570494D01*
X131709480Y-85707758D01*
X131734261Y-85842780D01*
X131784796Y-85970417D01*
X131859160Y-86085807D01*
X131954521Y-86184556D01*
X132067246Y-86262902D01*
X132193041Y-86317861D01*
X132327116Y-86347339D01*
X132403329Y-86348935D01*
X132774000Y-86719606D01*
X132774000Y-87879400D01*
X126762706Y-87879400D01*
X126691214Y-87807908D01*
X126691145Y-87807838D01*
X123924553Y-85041247D01*
X123888908Y-85011967D01*
X123853484Y-84982243D01*
X123851177Y-84980974D01*
X123849148Y-84979308D01*
X123808478Y-84957501D01*
X123767971Y-84935232D01*
X123765463Y-84934436D01*
X123763148Y-84933195D01*
X123718984Y-84919692D01*
X123674956Y-84905726D01*
X123672344Y-84905433D01*
X123669829Y-84904664D01*
X123623852Y-84899994D01*
X123577981Y-84894849D01*
X123572842Y-84894812D01*
X123572745Y-84894803D01*
X123572653Y-84894811D01*
X123571000Y-84894800D01*
X120886032Y-84894800D01*
X120844356Y-84852831D01*
X120730548Y-84776067D01*
X120603997Y-84722870D01*
X120469524Y-84695266D01*
X120332250Y-84694308D01*
X120197405Y-84720031D01*
X120070124Y-84771456D01*
X119955255Y-84846624D01*
X119857174Y-84942672D01*
X119779617Y-85055941D01*
X119725538Y-85182117D01*
X119696997Y-85316394D01*
X119695080Y-85453658D01*
X119719861Y-85588680D01*
X119770396Y-85716317D01*
X119844760Y-85831707D01*
X119940121Y-85930456D01*
X120052846Y-86008802D01*
X120178641Y-86063761D01*
X120312716Y-86093239D01*
X120449963Y-86096114D01*
X120585155Y-86072276D01*
X120713141Y-86022633D01*
X120829048Y-85949077D01*
X120886044Y-85894800D01*
X123363893Y-85894800D01*
X125984038Y-88514945D01*
X125984043Y-88514949D01*
X126202046Y-88732953D01*
X126237716Y-88762252D01*
X126273116Y-88791957D01*
X126275422Y-88793225D01*
X126277452Y-88794892D01*
X126318121Y-88816698D01*
X126358629Y-88838968D01*
X126361136Y-88839763D01*
X126363452Y-88841005D01*
X126407615Y-88854507D01*
X126451644Y-88868474D01*
X126454255Y-88868766D01*
X126456771Y-88869536D01*
X126502702Y-88874200D01*
X126548619Y-88879351D01*
X126553767Y-88879387D01*
X126553855Y-88879396D01*
X126553936Y-88879388D01*
X126555600Y-88879400D01*
X133274000Y-88879400D01*
X133320817Y-88874809D01*
X133367691Y-88870544D01*
X133369372Y-88870049D01*
X133371117Y-88869878D01*
X133416154Y-88856280D01*
X133461303Y-88842992D01*
X133462856Y-88842179D01*
X133464535Y-88841673D01*
X133506103Y-88819570D01*
X133547782Y-88797782D01*
X133549146Y-88796684D01*
X133550696Y-88795861D01*
X133587163Y-88766118D01*
X133623832Y-88736636D01*
X133624959Y-88735291D01*
X133626317Y-88734185D01*
X133656264Y-88697984D01*
X133686557Y-88661884D01*
X133687403Y-88660344D01*
X133688519Y-88658996D01*
X133710887Y-88617626D01*
X133733568Y-88576371D01*
X133734097Y-88574700D01*
X133734932Y-88573158D01*
X133748852Y-88528188D01*
X133763074Y-88483356D01*
X133763269Y-88481614D01*
X133763788Y-88479939D01*
X133768167Y-88438274D01*
X133873314Y-88639401D01*
X134027841Y-88831595D01*
X134216757Y-88990113D01*
X134432864Y-89108919D01*
X134667932Y-89183487D01*
X134913006Y-89210977D01*
X134930649Y-89211100D01*
X135249151Y-89211100D01*
X135494586Y-89187035D01*
X135730672Y-89115756D01*
X135948417Y-88999979D01*
X136139527Y-88844114D01*
X136296723Y-88654096D01*
X136414017Y-88437165D01*
X136486942Y-88201582D01*
X136512720Y-87956322D01*
X136490369Y-87710725D01*
X136420741Y-87474147D01*
X136306486Y-87255599D01*
X136151959Y-87063405D01*
X135963043Y-86904887D01*
X135746936Y-86786081D01*
X135511868Y-86711513D01*
X135266794Y-86684023D01*
X135249151Y-86683900D01*
X134930649Y-86683900D01*
X134685214Y-86707965D01*
X134449128Y-86779244D01*
X134231383Y-86895021D01*
X134040273Y-87050886D01*
X133883077Y-87240904D01*
X133774000Y-87442637D01*
X133774000Y-86512500D01*
X133769494Y-86466547D01*
X133765468Y-86420525D01*
X133764734Y-86418000D01*
X133764478Y-86415383D01*
X133751127Y-86371164D01*
X133738243Y-86326816D01*
X133737032Y-86324480D01*
X133736273Y-86321965D01*
X133714595Y-86281194D01*
X133693336Y-86240181D01*
X133691695Y-86238126D01*
X133690461Y-86235804D01*
X133661254Y-86199993D01*
X133632455Y-86163918D01*
X133628844Y-86160255D01*
X133628785Y-86160183D01*
X133628717Y-86160127D01*
X133627554Y-86158947D01*
X133109582Y-85640975D01*
X133110430Y-85580261D01*
X133083766Y-85445599D01*
X133037297Y-85332857D01*
X133138838Y-85314953D01*
X133339685Y-85237050D01*
X133521576Y-85121618D01*
X133677582Y-84973055D01*
X133726542Y-84903648D01*
X133759860Y-84936966D01*
X133692858Y-85153418D01*
X133667080Y-85398678D01*
X133689431Y-85644275D01*
X133759059Y-85880853D01*
X133873314Y-86099401D01*
X134027841Y-86291595D01*
X134216757Y-86450113D01*
X134432864Y-86568919D01*
X134667932Y-86643487D01*
X134913006Y-86670977D01*
X134930649Y-86671100D01*
X135249151Y-86671100D01*
X135494586Y-86647035D01*
X135730672Y-86575756D01*
X135948417Y-86459979D01*
X136139527Y-86304114D01*
X136296723Y-86114096D01*
X136408428Y-85907500D01*
X137443865Y-85907500D01*
X137443865Y-86271100D01*
X137449140Y-86336009D01*
X137482822Y-86443724D01*
X137545122Y-86537830D01*
X137631128Y-86610906D01*
X137734059Y-86657191D01*
X137845800Y-86673035D01*
X139877800Y-86673035D01*
X139942709Y-86667760D01*
X140050424Y-86634078D01*
X140144530Y-86571778D01*
X140217606Y-86485772D01*
X140263891Y-86382841D01*
X140279735Y-86271100D01*
X140279735Y-84543900D01*
X140274460Y-84478991D01*
X140240778Y-84371276D01*
X140178478Y-84277170D01*
X140092472Y-84204094D01*
X139989541Y-84157809D01*
X139877800Y-84141965D01*
X137845800Y-84141965D01*
X137780891Y-84147240D01*
X137673176Y-84180922D01*
X137579070Y-84243222D01*
X137505994Y-84329228D01*
X137459709Y-84432159D01*
X137443865Y-84543900D01*
X137443865Y-84907500D01*
X136406810Y-84907500D01*
X136306486Y-84715599D01*
X136151959Y-84523405D01*
X135963043Y-84364887D01*
X135746936Y-84246081D01*
X135511868Y-84171513D01*
X135266794Y-84144023D01*
X135249151Y-84143900D01*
X134930649Y-84143900D01*
X134685214Y-84167965D01*
X134470037Y-84232931D01*
X134340501Y-84103395D01*
X134340501Y-83978141D01*
X134432864Y-84028919D01*
X134667932Y-84103487D01*
X134913006Y-84130977D01*
X134930649Y-84131100D01*
X135249151Y-84131100D01*
X135494586Y-84107035D01*
X135730672Y-84035756D01*
X135948417Y-83919979D01*
X136139527Y-83764114D01*
X136296723Y-83574096D01*
X136408428Y-83367500D01*
X137544889Y-83367500D01*
X137645214Y-83559401D01*
X137799741Y-83751595D01*
X137988657Y-83910113D01*
X138204764Y-84028919D01*
X138439832Y-84103487D01*
X138684906Y-84130977D01*
X138702549Y-84131100D01*
X139021051Y-84131100D01*
X139266486Y-84107035D01*
X139502572Y-84035756D01*
X139720317Y-83919979D01*
X139911427Y-83764114D01*
X140068623Y-83574096D01*
X140185917Y-83357165D01*
X140258842Y-83121582D01*
X140284620Y-82876322D01*
X140284620Y-94553800D01*
X137026649Y-94553800D01*
X137026649Y-92392860D01*
X136982387Y-92169320D01*
X136895549Y-91958635D01*
X136769442Y-91768829D01*
X136608870Y-91607132D01*
X136419949Y-91479703D01*
X136209875Y-91391396D01*
X135986650Y-91345574D01*
X135758775Y-91343983D01*
X135534932Y-91386684D01*
X135323645Y-91472049D01*
X135132964Y-91596828D01*
X134970150Y-91756267D01*
X134841405Y-91944294D01*
X134751634Y-92153746D01*
X134704255Y-92376646D01*
X134701073Y-92604504D01*
X134742210Y-92828640D01*
X134826098Y-93040518D01*
X134949542Y-93232066D01*
X135107841Y-93395989D01*
X135294964Y-93526043D01*
X135503785Y-93617275D01*
X135726349Y-93666208D01*
X135954179Y-93670981D01*
X136178597Y-93631410D01*
X136391055Y-93549003D01*
X136583460Y-93426899D01*
X136748484Y-93269748D01*
X136879841Y-93083537D01*
X136972529Y-92875359D01*
X137023015Y-92653142D01*
X137026649Y-92392860D01*
X137026649Y-94553800D01*
X126395871Y-94553800D01*
X126395871Y-92523834D01*
X126377649Y-92304758D01*
X126317038Y-92093445D01*
X126216367Y-91898019D01*
X126197439Y-91869692D01*
X126023813Y-91795771D01*
X125985629Y-91833955D01*
X125985629Y-91757587D01*
X125911708Y-91583961D01*
X125719430Y-91477400D01*
X125510056Y-91410398D01*
X125291634Y-91385529D01*
X125072558Y-91403751D01*
X124861245Y-91464362D01*
X124665819Y-91565033D01*
X124637492Y-91583961D01*
X124563571Y-91757587D01*
X125274600Y-92468616D01*
X125985629Y-91757587D01*
X125985629Y-91833955D01*
X125312784Y-92506800D01*
X126023813Y-93217829D01*
X126197439Y-93143908D01*
X126304000Y-92951630D01*
X126371002Y-92742256D01*
X126395871Y-92523834D01*
X126395871Y-94553800D01*
X125985629Y-94553800D01*
X125985629Y-93256013D01*
X125274600Y-92544984D01*
X125236416Y-92583168D01*
X125236416Y-92506800D01*
X124525387Y-91795771D01*
X124351761Y-91869692D01*
X124245200Y-92061970D01*
X124178198Y-92271344D01*
X124153329Y-92489766D01*
X124171551Y-92708842D01*
X124232162Y-92920155D01*
X124332833Y-93115581D01*
X124351761Y-93143908D01*
X124525387Y-93217829D01*
X125236416Y-92506800D01*
X125236416Y-92583168D01*
X124563571Y-93256013D01*
X124637492Y-93429639D01*
X124829770Y-93536200D01*
X125039144Y-93603202D01*
X125257566Y-93628071D01*
X125476642Y-93609849D01*
X125687955Y-93549238D01*
X125883381Y-93448567D01*
X125911708Y-93429639D01*
X125985629Y-93256013D01*
X125985629Y-94553800D01*
X113874547Y-94553800D01*
X113874547Y-84144087D01*
X113832704Y-83932762D01*
X113750611Y-83733590D01*
X113631395Y-83554157D01*
X113479598Y-83401296D01*
X113301001Y-83280831D01*
X113102407Y-83197349D01*
X112891380Y-83154032D01*
X112675958Y-83152528D01*
X112464347Y-83192895D01*
X112264607Y-83273595D01*
X112084345Y-83391555D01*
X111930429Y-83542281D01*
X111808720Y-83720033D01*
X111723854Y-83918040D01*
X111679064Y-84128759D01*
X111676056Y-84344165D01*
X111714945Y-84556053D01*
X111794249Y-84756352D01*
X111910947Y-84937432D01*
X112060596Y-85092397D01*
X112237493Y-85215344D01*
X112434902Y-85301590D01*
X112645304Y-85347850D01*
X112860684Y-85352362D01*
X113072838Y-85314953D01*
X113273685Y-85237050D01*
X113455576Y-85121618D01*
X113611582Y-84973055D01*
X113735762Y-84797020D01*
X113823384Y-84600218D01*
X113871111Y-84390145D01*
X113874547Y-84144087D01*
X113874547Y-94553800D01*
X106213494Y-94553800D01*
X106213494Y-84266328D01*
X106213494Y-81726328D01*
X106213494Y-79186328D01*
X106213494Y-76646328D01*
X106196008Y-76439743D01*
X106138557Y-76240537D01*
X106043345Y-76056368D01*
X106027202Y-76032209D01*
X105860078Y-75965906D01*
X105821894Y-76004090D01*
X105821894Y-75927722D01*
X105755591Y-75760598D01*
X105574107Y-75660363D01*
X105376556Y-75597460D01*
X105170528Y-75574306D01*
X104963943Y-75591792D01*
X104764737Y-75649243D01*
X104580568Y-75744455D01*
X104556409Y-75760598D01*
X104490106Y-75927722D01*
X105156000Y-76593616D01*
X105821894Y-75927722D01*
X105821894Y-76004090D01*
X105194184Y-76631800D01*
X105860078Y-77297694D01*
X106027202Y-77231391D01*
X106127437Y-77049907D01*
X106190340Y-76852356D01*
X106213494Y-76646328D01*
X106213494Y-79186328D01*
X106196008Y-78979743D01*
X106138557Y-78780537D01*
X106043345Y-78596368D01*
X106027202Y-78572209D01*
X105860078Y-78505906D01*
X105821894Y-78544090D01*
X105821894Y-78467722D01*
X105821894Y-77335878D01*
X105156000Y-76669984D01*
X105117816Y-76708168D01*
X105117816Y-76631800D01*
X104451922Y-75965906D01*
X104284798Y-76032209D01*
X104184563Y-76213693D01*
X104121660Y-76411244D01*
X104098506Y-76617272D01*
X104115992Y-76823857D01*
X104173443Y-77023063D01*
X104268655Y-77207232D01*
X104284798Y-77231391D01*
X104451922Y-77297694D01*
X105117816Y-76631800D01*
X105117816Y-76708168D01*
X104490106Y-77335878D01*
X104556409Y-77503002D01*
X104737893Y-77603237D01*
X104935444Y-77666140D01*
X105141472Y-77689294D01*
X105348057Y-77671808D01*
X105547263Y-77614357D01*
X105731432Y-77519145D01*
X105755591Y-77503002D01*
X105821894Y-77335878D01*
X105821894Y-78467722D01*
X105755591Y-78300598D01*
X105574107Y-78200363D01*
X105376556Y-78137460D01*
X105170528Y-78114306D01*
X104963943Y-78131792D01*
X104764737Y-78189243D01*
X104580568Y-78284455D01*
X104556409Y-78300598D01*
X104490106Y-78467722D01*
X105156000Y-79133616D01*
X105821894Y-78467722D01*
X105821894Y-78544090D01*
X105194184Y-79171800D01*
X105860078Y-79837694D01*
X106027202Y-79771391D01*
X106127437Y-79589907D01*
X106190340Y-79392356D01*
X106213494Y-79186328D01*
X106213494Y-81726328D01*
X106196008Y-81519743D01*
X106138557Y-81320537D01*
X106043345Y-81136368D01*
X106027202Y-81112209D01*
X105860078Y-81045906D01*
X105821894Y-81084090D01*
X105821894Y-81007722D01*
X105821894Y-79875878D01*
X105156000Y-79209984D01*
X105117816Y-79248168D01*
X105117816Y-79171800D01*
X104451922Y-78505906D01*
X104284798Y-78572209D01*
X104184563Y-78753693D01*
X104121660Y-78951244D01*
X104098506Y-79157272D01*
X104115992Y-79363857D01*
X104173443Y-79563063D01*
X104268655Y-79747232D01*
X104284798Y-79771391D01*
X104451922Y-79837694D01*
X105117816Y-79171800D01*
X105117816Y-79248168D01*
X104490106Y-79875878D01*
X104556409Y-80043002D01*
X104737893Y-80143237D01*
X104935444Y-80206140D01*
X105141472Y-80229294D01*
X105348057Y-80211808D01*
X105547263Y-80154357D01*
X105731432Y-80059145D01*
X105755591Y-80043002D01*
X105821894Y-79875878D01*
X105821894Y-81007722D01*
X105755591Y-80840598D01*
X105574107Y-80740363D01*
X105376556Y-80677460D01*
X105170528Y-80654306D01*
X104963943Y-80671792D01*
X104764737Y-80729243D01*
X104580568Y-80824455D01*
X104556409Y-80840598D01*
X104490106Y-81007722D01*
X105156000Y-81673616D01*
X105821894Y-81007722D01*
X105821894Y-81084090D01*
X105194184Y-81711800D01*
X105860078Y-82377694D01*
X106027202Y-82311391D01*
X106127437Y-82129907D01*
X106190340Y-81932356D01*
X106213494Y-81726328D01*
X106213494Y-84266328D01*
X106196008Y-84059743D01*
X106138557Y-83860537D01*
X106043345Y-83676368D01*
X106027202Y-83652209D01*
X105860078Y-83585906D01*
X105821894Y-83624090D01*
X105821894Y-83547722D01*
X105821894Y-82415878D01*
X105156000Y-81749984D01*
X105117816Y-81788168D01*
X105117816Y-81711800D01*
X104451922Y-81045906D01*
X104284798Y-81112209D01*
X104184563Y-81293693D01*
X104121660Y-81491244D01*
X104098506Y-81697272D01*
X104115992Y-81903857D01*
X104173443Y-82103063D01*
X104268655Y-82287232D01*
X104284798Y-82311391D01*
X104451922Y-82377694D01*
X105117816Y-81711800D01*
X105117816Y-81788168D01*
X104490106Y-82415878D01*
X104556409Y-82583002D01*
X104737893Y-82683237D01*
X104935444Y-82746140D01*
X105141472Y-82769294D01*
X105348057Y-82751808D01*
X105547263Y-82694357D01*
X105731432Y-82599145D01*
X105755591Y-82583002D01*
X105821894Y-82415878D01*
X105821894Y-83547722D01*
X105755591Y-83380598D01*
X105574107Y-83280363D01*
X105376556Y-83217460D01*
X105170528Y-83194306D01*
X104963943Y-83211792D01*
X104764737Y-83269243D01*
X104580568Y-83364455D01*
X104556409Y-83380598D01*
X104490106Y-83547722D01*
X105156000Y-84213616D01*
X105821894Y-83547722D01*
X105821894Y-83624090D01*
X105194184Y-84251800D01*
X105860078Y-84917694D01*
X106027202Y-84851391D01*
X106127437Y-84669907D01*
X106190340Y-84472356D01*
X106213494Y-84266328D01*
X106213494Y-94553800D01*
X105821894Y-94553800D01*
X105821894Y-84955878D01*
X105156000Y-84289984D01*
X105117816Y-84328168D01*
X105117816Y-84251800D01*
X104451922Y-83585906D01*
X104284798Y-83652209D01*
X104184563Y-83833693D01*
X104121660Y-84031244D01*
X104098506Y-84237272D01*
X104115992Y-84443857D01*
X104173443Y-84643063D01*
X104268655Y-84827232D01*
X104284798Y-84851391D01*
X104451922Y-84917694D01*
X105117816Y-84251800D01*
X105117816Y-84328168D01*
X104490106Y-84955878D01*
X104556409Y-85123002D01*
X104737893Y-85223237D01*
X104935444Y-85286140D01*
X105141472Y-85309294D01*
X105348057Y-85291808D01*
X105547263Y-85234357D01*
X105731432Y-85139145D01*
X105755591Y-85123002D01*
X105821894Y-84955878D01*
X105821894Y-94553800D01*
X100437500Y-94553800D01*
X100437500Y-50453800D01*
X149537500Y-50453800D01*
X149537500Y-94553800D01*
M02*
