M48
;DRILL file {kicad (after 2015-mar-04 BZR unknown)-product} date 22/04/2015 13:56:17
;FORMAT={-:-/ absolute / inch / decimal}
FMAT,2
INCH,TZ
T1C0.016
T2C0.024
T3C0.030
T4C0.032
T5C0.040
%
G90
G05
M72
T1
X4.56Y-3.002
X4.74Y-3.362
X5.03Y-3.257
X5.1125Y-3.3145
X5.13Y-3.277
X5.1695Y-3.161
X5.213Y-3.372
X5.305Y-2.857
T2
X4.78Y-2.533
X4.78Y-2.592
T3
X4.9321Y-3.642
X5.349Y-3.642
T4
X4.14Y-3.017
X4.14Y-3.117
X4.14Y-3.217
X4.14Y-3.317
X4.44Y-3.017
X4.44Y-3.117
X4.44Y-3.217
X4.44Y-3.317
X4.93Y-2.417
X4.93Y-2.517
X4.93Y-2.617
X4.93Y-2.717
X4.93Y-2.817
X4.93Y-2.917
X4.93Y-3.017
X4.93Y-3.117
X4.93Y-3.217
X4.93Y-3.317
X5.23Y-2.417
X5.23Y-2.517
X5.23Y-2.617
X5.23Y-2.717
X5.23Y-2.817
X5.23Y-2.917
X5.23Y-3.017
X5.23Y-3.117
X5.23Y-3.217
X5.23Y-3.317
T5
X4.135Y-2.112
X4.135Y-2.212
X4.135Y-2.312
X4.135Y-2.412
X4.225Y-2.777
X4.235Y-2.112
X4.235Y-2.212
X4.235Y-2.312
X4.235Y-2.412
X4.325Y-2.777
X4.425Y-2.777
X4.525Y-2.777
X4.72Y-2.727
X4.72Y-2.827
X4.72Y-2.927
X4.72Y-3.027
X5.3185Y-3.0625
X5.3185Y-3.1625
X5.3185Y-3.2625
X5.3185Y-3.3625
X5.3185Y-3.4625
X5.467Y-3.0625
X5.467Y-3.1625
X5.467Y-3.2625
X5.467Y-3.3625
X5.5675Y-2.617
X5.5675Y-2.717
T0
M30
