G04 #@! TF.FileFunction,Copper,L1,Top,Signal*
%FSLAX46Y46*%
G04 Gerber Fmt 4.6, Leading zero omitted, Abs format (unit mm)*
G04 Created by KiCad (PCBNEW (after 2015-mar-04 BZR unknown)-product) date 22/04/2015 13:56:25*
%MOMM*%
G01*
G04 APERTURE LIST*
%ADD10C,0.100000*%
%ADD11C,1.524000*%
%ADD12R,1.501140X2.999740*%
%ADD13R,2.000000X1.600000*%
%ADD14R,1.600000X2.000000*%
%ADD15R,1.800860X1.597660*%
%ADD16R,1.727200X1.727200*%
%ADD17O,1.727200X1.727200*%
%ADD18R,2.032000X1.727200*%
%ADD19O,2.032000X1.727200*%
%ADD20R,1.700000X2.000000*%
%ADD21R,1.727200X2.032000*%
%ADD22O,1.727200X2.032000*%
%ADD23R,1.397000X1.397000*%
%ADD24C,1.397000*%
%ADD25C,1.000760*%
%ADD26C,0.600000*%
%ADD27C,0.200000*%
G04 APERTURE END LIST*
D10*
D11*
X135864600Y-92506800D03*
X125274600Y-92506800D03*
D12*
X129032000Y-61424820D03*
X129032000Y-65422780D03*
D13*
X131032000Y-56692800D03*
X127032000Y-56692800D03*
D14*
X129032000Y-76282800D03*
X129032000Y-80282800D03*
D15*
X141439900Y-59598560D03*
X141439900Y-56758840D03*
D16*
X141414500Y-69011800D03*
D17*
X141414500Y-66471800D03*
D18*
X119888000Y-69265800D03*
D19*
X119888000Y-71805800D03*
X119888000Y-74345800D03*
X119888000Y-76885800D03*
D20*
X122301000Y-56978800D03*
X122301000Y-60978800D03*
X129032000Y-73297800D03*
X129032000Y-69297800D03*
D16*
X105029000Y-53644800D03*
D17*
X107569000Y-53644800D03*
X105029000Y-56184800D03*
X107569000Y-56184800D03*
X105029000Y-58724800D03*
X107569000Y-58724800D03*
X105029000Y-61264800D03*
X107569000Y-61264800D03*
D21*
X114935000Y-70535800D03*
D22*
X112395000Y-70535800D03*
X109855000Y-70535800D03*
X107315000Y-70535800D03*
D23*
X112776000Y-76631800D03*
D24*
X112776000Y-79171800D03*
X112776000Y-81711800D03*
X112776000Y-84251800D03*
X105156000Y-84251800D03*
X105156000Y-81711800D03*
X105156000Y-79171800D03*
X105156000Y-76631800D03*
D25*
X121800845Y-63949355D02*
X121447023Y-64303177D01*
X121447023Y-65871823D02*
X121800845Y-66225645D01*
D23*
X132842000Y-61391800D03*
D24*
X132842000Y-63931800D03*
X132842000Y-66471800D03*
X132842000Y-69011800D03*
X132842000Y-71551800D03*
X132842000Y-74091800D03*
X132842000Y-76631800D03*
X132842000Y-79171800D03*
X132842000Y-81711800D03*
X132842000Y-84251800D03*
X125222000Y-84251800D03*
X125222000Y-81711800D03*
X125222000Y-79171800D03*
X125222000Y-76631800D03*
X125222000Y-74091800D03*
X125222000Y-71551800D03*
X125222000Y-69011800D03*
X125222000Y-66471800D03*
X125222000Y-63931800D03*
X125222000Y-61391800D03*
D18*
X135089900Y-77787500D03*
D19*
X135089900Y-80327500D03*
X135089900Y-82867500D03*
X135089900Y-85407500D03*
X135089900Y-87947500D03*
D18*
X138861800Y-85407500D03*
D19*
X138861800Y-82867500D03*
X138861800Y-80327500D03*
X138861800Y-77787500D03*
D26*
X131305500Y-80289500D03*
X134747000Y-72567800D03*
X120396000Y-85394800D03*
X132410400Y-85648900D03*
X129857700Y-84188400D03*
X115824000Y-76250800D03*
X127762000Y-82727800D03*
X130302000Y-83235800D03*
D27*
X131305500Y-80289500D02*
X129038700Y-80289500D01*
X129038700Y-80289500D02*
X129032000Y-80282800D01*
X125222000Y-61391800D02*
X111958130Y-61391800D01*
X111958130Y-61391800D02*
X108127529Y-57561199D01*
X108127529Y-57561199D02*
X107010471Y-57561199D01*
X107010471Y-57561199D02*
X106405399Y-58166271D01*
X106405399Y-58166271D02*
X106405399Y-59283329D01*
X106405399Y-59283329D02*
X107010471Y-59888401D01*
X107010471Y-59888401D02*
X107914731Y-59888401D01*
X107914731Y-59888401D02*
X108732601Y-60706271D01*
X108732601Y-60706271D02*
X108732601Y-68965799D01*
X108732601Y-68965799D02*
X107315000Y-70383400D01*
X107315000Y-70383400D02*
X107315000Y-70535800D01*
X129032000Y-88774800D02*
X129032000Y-80282800D01*
X125300000Y-92506800D02*
X129032000Y-88774800D01*
X129032000Y-61424820D02*
X124874020Y-61424820D01*
X124428000Y-60978800D02*
X122301000Y-60978800D01*
X124874020Y-61424820D02*
X124428000Y-60978800D01*
X127032000Y-59581800D02*
X125222000Y-61391800D01*
X127032000Y-56692800D02*
X127032000Y-59581800D01*
X129032000Y-79082800D02*
X129032000Y-80282800D01*
X129032000Y-78964018D02*
X129032000Y-79082800D01*
X125701281Y-75633299D02*
X129032000Y-78964018D01*
X122356501Y-75633299D02*
X125701281Y-75633299D01*
X121104000Y-76885800D02*
X122356501Y-75633299D01*
X119888000Y-76885800D02*
X121104000Y-76885800D01*
X105156000Y-84251800D02*
X105156000Y-81711800D01*
X105156000Y-81711800D02*
X105156000Y-79171800D01*
X105156000Y-79171800D02*
X105156000Y-76631800D01*
X105156000Y-76631800D02*
X105156000Y-75615800D01*
X105156000Y-75615800D02*
X106045000Y-74726800D01*
X106045000Y-74726800D02*
X115824000Y-74726800D01*
X117983000Y-76885800D02*
X119888000Y-76885800D01*
X115824000Y-74726800D02*
X117983000Y-76885800D01*
X106045000Y-73021800D02*
X106045000Y-74726800D01*
X107315000Y-71751800D02*
X106045000Y-73021800D01*
X107315000Y-70535800D02*
X107315000Y-71751800D01*
X134530492Y-70553299D02*
X140776107Y-76798914D01*
X140776107Y-76798914D02*
X140857179Y-76879986D01*
X138861800Y-77787500D02*
X140077800Y-77787500D01*
X140077800Y-77787500D02*
X140776107Y-77089193D01*
X140776107Y-77089193D02*
X140776107Y-76798914D01*
X135864600Y-92506800D02*
X140857179Y-87514221D01*
X140857179Y-87514221D02*
X140857179Y-76879986D01*
X129032000Y-69297800D02*
X130082000Y-69297800D01*
X130082000Y-69297800D02*
X131337499Y-70553299D01*
X131337499Y-70553299D02*
X134530492Y-70553299D01*
X129032000Y-65422780D02*
X129032000Y-69297800D01*
X132313680Y-61391800D02*
X132842000Y-61391800D01*
X129032000Y-64673480D02*
X132313680Y-61391800D01*
X129032000Y-65422780D02*
X129032000Y-64673480D01*
X131943500Y-61391800D02*
X132842000Y-61391800D01*
X131032000Y-60480300D02*
X131943500Y-61391800D01*
X131032000Y-56692800D02*
X131032000Y-60480300D01*
X128081430Y-65422780D02*
X129032000Y-65422780D01*
X126033909Y-67470301D02*
X128081430Y-65422780D01*
X122899499Y-67470301D02*
X126033909Y-67470301D01*
X121104000Y-69265800D02*
X122899499Y-67470301D01*
X119888000Y-69265800D02*
X121104000Y-69265800D01*
X134747000Y-74472800D02*
X134747000Y-72567800D01*
X134129499Y-75090301D02*
X134747000Y-74472800D01*
X131064000Y-74279800D02*
X131874501Y-75090301D01*
X131874501Y-75090301D02*
X134129499Y-75090301D01*
X129032000Y-73297800D02*
X130082000Y-73297800D01*
X130082000Y-73297800D02*
X131064000Y-74279800D01*
X129032000Y-75082800D02*
X129032000Y-73297800D01*
X129032000Y-76282800D02*
X129032000Y-75082800D01*
X122428000Y-74345800D02*
X125222000Y-71551800D01*
X119888000Y-74345800D02*
X122428000Y-74345800D01*
X141338300Y-59598560D02*
X141439900Y-59598560D01*
X138402060Y-62534800D02*
X141338300Y-59598560D01*
X134239000Y-62534800D02*
X138402060Y-62534800D01*
X132842000Y-63931800D02*
X134239000Y-62534800D01*
X123351000Y-56978800D02*
X124737001Y-55592799D01*
X122301000Y-56978800D02*
X123351000Y-56978800D01*
X139173429Y-55592799D02*
X132694959Y-55592799D01*
X140339470Y-56758840D02*
X139173429Y-55592799D01*
X141439900Y-56758840D02*
X140339470Y-56758840D01*
X132694959Y-55592799D02*
X132846289Y-55592799D01*
X124737001Y-55592799D02*
X132694959Y-55592799D01*
X136852920Y-69011800D02*
X141414500Y-69011800D01*
X132842000Y-69011800D02*
X136852920Y-69011800D01*
X136852920Y-69011800D02*
X137033000Y-69011800D01*
X141414500Y-66471800D02*
X136928897Y-66471800D01*
X136928897Y-66471800D02*
X132842000Y-66471800D01*
X137033000Y-66471800D02*
X136928897Y-66471800D01*
X122428000Y-71805800D02*
X125222000Y-69011800D01*
X119888000Y-71805800D02*
X122428000Y-71805800D01*
X132842000Y-79171800D02*
X131843499Y-78173299D01*
X131843499Y-78173299D02*
X131843499Y-75662101D01*
X136964701Y-76671199D02*
X136964701Y-89673616D01*
X131843499Y-75662101D02*
X131872301Y-75633299D01*
X103465389Y-92835389D02*
X103465389Y-57748411D01*
X131872301Y-75633299D02*
X133748599Y-75633299D01*
X133748599Y-75633299D02*
X134093150Y-75977850D01*
X134093150Y-75977850D02*
X136271352Y-75977850D01*
X126884697Y-93568801D02*
X104198801Y-93568801D01*
X103465389Y-57748411D02*
X105029000Y-56184800D01*
X136271352Y-75977850D02*
X136964701Y-76671199D01*
X136964701Y-89673616D02*
X135193518Y-91444799D01*
X135193518Y-91444799D02*
X129008699Y-91444799D01*
X129008699Y-91444799D02*
X126884697Y-93568801D01*
X104198801Y-93568801D02*
X103465389Y-92835389D01*
X104821218Y-85394800D02*
X120396000Y-85394800D01*
X103865399Y-84438981D02*
X104821218Y-85394800D01*
X103865399Y-59888401D02*
X103865399Y-84438981D01*
X105029000Y-58724800D02*
X103865399Y-59888401D01*
X132842000Y-76631800D02*
X133840501Y-77630301D01*
X133840501Y-84731081D02*
X133840501Y-77630301D01*
X132922682Y-85648900D02*
X133840501Y-84731081D01*
X132410400Y-85648900D02*
X132922682Y-85648900D01*
X125920499Y-73393301D02*
X125222000Y-74091800D01*
X126220501Y-73093299D02*
X125920499Y-73393301D01*
X126220501Y-71072519D02*
X126220501Y-73093299D01*
X125701281Y-70553299D02*
X126220501Y-71072519D01*
X124742719Y-70553299D02*
X125701281Y-70553299D01*
X122326608Y-72969410D02*
X124742719Y-70553299D01*
X119253617Y-72969410D02*
X122326608Y-72969410D01*
X116098601Y-69814394D02*
X119253617Y-72969410D01*
X116098601Y-67254401D02*
X116098601Y-69814394D01*
X107569000Y-58724800D02*
X116098601Y-67254401D01*
X129857700Y-84188400D02*
X132240410Y-86571110D01*
X132240410Y-86571110D02*
X135724283Y-86571110D01*
X135724283Y-86571110D02*
X136405910Y-85889483D01*
X136405910Y-85889483D02*
X136405910Y-84031110D01*
X136405910Y-84031110D02*
X135242300Y-82867500D01*
X135242300Y-82867500D02*
X135089900Y-82867500D01*
X127762000Y-80234018D02*
X127762000Y-82727800D01*
X125701281Y-78173299D02*
X127762000Y-80234018D01*
X117746499Y-78173299D02*
X125701281Y-78173299D01*
X115824000Y-76250800D02*
X117746499Y-78173299D01*
X131826000Y-81711800D02*
X132842000Y-81711800D01*
X130302000Y-83235800D02*
X131826000Y-81711800D01*
X132143501Y-73393301D02*
X132842000Y-74091800D01*
X129921000Y-71170800D02*
X132143501Y-73393301D01*
X128270000Y-71170800D02*
X129921000Y-71170800D01*
X127508000Y-73283582D02*
X127508000Y-71932800D01*
X125701281Y-75090301D02*
X127508000Y-73283582D01*
X121914692Y-75509410D02*
X122333801Y-75090301D01*
X117216210Y-75509410D02*
X121914692Y-75509410D01*
X127508000Y-71932800D02*
X128270000Y-71170800D01*
X122333801Y-75090301D02*
X125701281Y-75090301D01*
X112395000Y-70688200D02*
X117216210Y-75509410D01*
X112395000Y-70535800D02*
X112395000Y-70688200D01*
X112776000Y-84251800D02*
X125222000Y-84251800D01*
X125222000Y-81711800D02*
X112776000Y-81711800D01*
X124523501Y-79870299D02*
X125222000Y-79171800D01*
X113474499Y-79870299D02*
X124523501Y-79870299D01*
X112776000Y-79171800D02*
X113474499Y-79870299D01*
X122047000Y-66471800D02*
X125222000Y-66471800D01*
X121412000Y-65836800D02*
X122047000Y-66471800D01*
X121818400Y-63931800D02*
X121412000Y-64338200D01*
X125222000Y-63931800D02*
X121818400Y-63931800D01*
G36*
X136464701Y-82543511D02*
X136440390Y-82460908D01*
X136440390Y-80544595D01*
X136440390Y-80110405D01*
X136377548Y-79886489D01*
X136269698Y-79673487D01*
X136122365Y-79485618D01*
X135941212Y-79330102D01*
X135733200Y-79212916D01*
X135506323Y-79138563D01*
X135269300Y-79109900D01*
X135116900Y-79109900D01*
X135116900Y-80300500D01*
X136371077Y-80300500D01*
X136440390Y-80110405D01*
X136440390Y-80544595D01*
X136371077Y-80354500D01*
X135116900Y-80354500D01*
X135116900Y-81545100D01*
X135269300Y-81545100D01*
X135506323Y-81516437D01*
X135733200Y-81442084D01*
X135941212Y-81324898D01*
X136122365Y-81169382D01*
X136269698Y-80981513D01*
X136377548Y-80768511D01*
X136440390Y-80544595D01*
X136440390Y-82460908D01*
X136420741Y-82394147D01*
X136306486Y-82175599D01*
X136151959Y-81983405D01*
X135963043Y-81824887D01*
X135746936Y-81706081D01*
X135511868Y-81631513D01*
X135266794Y-81604023D01*
X135249151Y-81603900D01*
X134930649Y-81603900D01*
X134685214Y-81627965D01*
X134449128Y-81699244D01*
X134340501Y-81757001D01*
X134340501Y-81382311D01*
X134446600Y-81442084D01*
X134673477Y-81516437D01*
X134910500Y-81545100D01*
X135062900Y-81545100D01*
X135062900Y-80354500D01*
X135042900Y-80354500D01*
X135042900Y-80300500D01*
X135062900Y-80300500D01*
X135062900Y-79109900D01*
X134910500Y-79109900D01*
X134673477Y-79138563D01*
X134446600Y-79212916D01*
X134340501Y-79272688D01*
X134340501Y-79053035D01*
X136105900Y-79053035D01*
X136170809Y-79047760D01*
X136278524Y-79014078D01*
X136372630Y-78951778D01*
X136445706Y-78865772D01*
X136464701Y-78823529D01*
X136464701Y-82543511D01*
X136464701Y-82543511D01*
G37*
X136464701Y-82543511D02*
X136440390Y-82460908D01*
X136440390Y-80544595D01*
X136440390Y-80110405D01*
X136377548Y-79886489D01*
X136269698Y-79673487D01*
X136122365Y-79485618D01*
X135941212Y-79330102D01*
X135733200Y-79212916D01*
X135506323Y-79138563D01*
X135269300Y-79109900D01*
X135116900Y-79109900D01*
X135116900Y-80300500D01*
X136371077Y-80300500D01*
X136440390Y-80110405D01*
X136440390Y-80544595D01*
X136371077Y-80354500D01*
X135116900Y-80354500D01*
X135116900Y-81545100D01*
X135269300Y-81545100D01*
X135506323Y-81516437D01*
X135733200Y-81442084D01*
X135941212Y-81324898D01*
X136122365Y-81169382D01*
X136269698Y-80981513D01*
X136377548Y-80768511D01*
X136440390Y-80544595D01*
X136440390Y-82460908D01*
X136420741Y-82394147D01*
X136306486Y-82175599D01*
X136151959Y-81983405D01*
X135963043Y-81824887D01*
X135746936Y-81706081D01*
X135511868Y-81631513D01*
X135266794Y-81604023D01*
X135249151Y-81603900D01*
X134930649Y-81603900D01*
X134685214Y-81627965D01*
X134449128Y-81699244D01*
X134340501Y-81757001D01*
X134340501Y-81382311D01*
X134446600Y-81442084D01*
X134673477Y-81516437D01*
X134910500Y-81545100D01*
X135062900Y-81545100D01*
X135062900Y-80354500D01*
X135042900Y-80354500D01*
X135042900Y-80300500D01*
X135062900Y-80300500D01*
X135062900Y-79109900D01*
X134910500Y-79109900D01*
X134673477Y-79138563D01*
X134446600Y-79212916D01*
X134340501Y-79272688D01*
X134340501Y-79053035D01*
X136105900Y-79053035D01*
X136170809Y-79047760D01*
X136278524Y-79014078D01*
X136372630Y-78951778D01*
X136445706Y-78865772D01*
X136464701Y-78823529D01*
X136464701Y-82543511D01*
G36*
X140357179Y-87307115D02*
X136254246Y-91410047D01*
X136209875Y-91391396D01*
X135997601Y-91347821D01*
X137318254Y-90027169D01*
X137347533Y-89991524D01*
X137377258Y-89956100D01*
X137378526Y-89953793D01*
X137380193Y-89951764D01*
X137401999Y-89911094D01*
X137424269Y-89870587D01*
X137425064Y-89868079D01*
X137426306Y-89865764D01*
X137439808Y-89821600D01*
X137453775Y-89777572D01*
X137454067Y-89774960D01*
X137454837Y-89772445D01*
X137459506Y-89726468D01*
X137464652Y-89680597D01*
X137464688Y-89675458D01*
X137464698Y-89675361D01*
X137464689Y-89675269D01*
X137464701Y-89673616D01*
X137464701Y-86385773D01*
X137482822Y-86443724D01*
X137545122Y-86537830D01*
X137631128Y-86610906D01*
X137734059Y-86657191D01*
X137845800Y-86673035D01*
X139877800Y-86673035D01*
X139942709Y-86667760D01*
X140050424Y-86634078D01*
X140144530Y-86571778D01*
X140217606Y-86485772D01*
X140263891Y-86382841D01*
X140279735Y-86271100D01*
X140279735Y-84543900D01*
X140274460Y-84478991D01*
X140240778Y-84371276D01*
X140178478Y-84277170D01*
X140092472Y-84204094D01*
X139989541Y-84157809D01*
X139877800Y-84141965D01*
X137845800Y-84141965D01*
X137780891Y-84147240D01*
X137673176Y-84180922D01*
X137579070Y-84243222D01*
X137505994Y-84329228D01*
X137464701Y-84421057D01*
X137464701Y-83115725D01*
X137530959Y-83340853D01*
X137645214Y-83559401D01*
X137799741Y-83751595D01*
X137988657Y-83910113D01*
X138204764Y-84028919D01*
X138439832Y-84103487D01*
X138684906Y-84130977D01*
X138702549Y-84131100D01*
X139021051Y-84131100D01*
X139266486Y-84107035D01*
X139502572Y-84035756D01*
X139720317Y-83919979D01*
X139911427Y-83764114D01*
X140068623Y-83574096D01*
X140185917Y-83357165D01*
X140258842Y-83121582D01*
X140284620Y-82876322D01*
X140262269Y-82630725D01*
X140212290Y-82460909D01*
X140212290Y-80544595D01*
X140212290Y-80110405D01*
X140149448Y-79886489D01*
X140041598Y-79673487D01*
X139894265Y-79485618D01*
X139713112Y-79330102D01*
X139505100Y-79212916D01*
X139278223Y-79138563D01*
X139041200Y-79109900D01*
X138888800Y-79109900D01*
X138888800Y-80300500D01*
X140142977Y-80300500D01*
X140212290Y-80110405D01*
X140212290Y-80544595D01*
X140142977Y-80354500D01*
X138888800Y-80354500D01*
X138888800Y-81545100D01*
X139041200Y-81545100D01*
X139278223Y-81516437D01*
X139505100Y-81442084D01*
X139713112Y-81324898D01*
X139894265Y-81169382D01*
X140041598Y-80981513D01*
X140149448Y-80768511D01*
X140212290Y-80544595D01*
X140212290Y-82460909D01*
X140192641Y-82394147D01*
X140078386Y-82175599D01*
X139923859Y-81983405D01*
X139734943Y-81824887D01*
X139518836Y-81706081D01*
X139283768Y-81631513D01*
X139038694Y-81604023D01*
X139021051Y-81603900D01*
X138834800Y-81603900D01*
X138834800Y-81545100D01*
X138834800Y-80354500D01*
X138834800Y-80300500D01*
X138834800Y-79109900D01*
X138682400Y-79109900D01*
X138445377Y-79138563D01*
X138218500Y-79212916D01*
X138010488Y-79330102D01*
X137829335Y-79485618D01*
X137682002Y-79673487D01*
X137574152Y-79886489D01*
X137511310Y-80110405D01*
X137580623Y-80300500D01*
X138834800Y-80300500D01*
X138834800Y-80354500D01*
X137580623Y-80354500D01*
X137511310Y-80544595D01*
X137574152Y-80768511D01*
X137682002Y-80981513D01*
X137829335Y-81169382D01*
X138010488Y-81324898D01*
X138218500Y-81442084D01*
X138445377Y-81516437D01*
X138682400Y-81545100D01*
X138834800Y-81545100D01*
X138834800Y-81603900D01*
X138702549Y-81603900D01*
X138457114Y-81627965D01*
X138221028Y-81699244D01*
X138003283Y-81815021D01*
X137812173Y-81970886D01*
X137654977Y-82160904D01*
X137537683Y-82377835D01*
X137464758Y-82613418D01*
X137464701Y-82613960D01*
X137464701Y-78035725D01*
X137530959Y-78260853D01*
X137645214Y-78479401D01*
X137799741Y-78671595D01*
X137988657Y-78830113D01*
X138204764Y-78948919D01*
X138439832Y-79023487D01*
X138684906Y-79050977D01*
X138702549Y-79051100D01*
X139021051Y-79051100D01*
X139266486Y-79027035D01*
X139502572Y-78955756D01*
X139720317Y-78839979D01*
X139911427Y-78684114D01*
X140068623Y-78494096D01*
X140185917Y-78277165D01*
X140186773Y-78274398D01*
X140219123Y-78264631D01*
X140263484Y-78251743D01*
X140265819Y-78250532D01*
X140268335Y-78249773D01*
X140309085Y-78228105D01*
X140350120Y-78206836D01*
X140352176Y-78205194D01*
X140354496Y-78203961D01*
X140357179Y-78201772D01*
X140357179Y-87307115D01*
X140357179Y-87307115D01*
G37*
X140357179Y-87307115D02*
X136254246Y-91410047D01*
X136209875Y-91391396D01*
X135997601Y-91347821D01*
X137318254Y-90027169D01*
X137347533Y-89991524D01*
X137377258Y-89956100D01*
X137378526Y-89953793D01*
X137380193Y-89951764D01*
X137401999Y-89911094D01*
X137424269Y-89870587D01*
X137425064Y-89868079D01*
X137426306Y-89865764D01*
X137439808Y-89821600D01*
X137453775Y-89777572D01*
X137454067Y-89774960D01*
X137454837Y-89772445D01*
X137459506Y-89726468D01*
X137464652Y-89680597D01*
X137464688Y-89675458D01*
X137464698Y-89675361D01*
X137464689Y-89675269D01*
X137464701Y-89673616D01*
X137464701Y-86385773D01*
X137482822Y-86443724D01*
X137545122Y-86537830D01*
X137631128Y-86610906D01*
X137734059Y-86657191D01*
X137845800Y-86673035D01*
X139877800Y-86673035D01*
X139942709Y-86667760D01*
X140050424Y-86634078D01*
X140144530Y-86571778D01*
X140217606Y-86485772D01*
X140263891Y-86382841D01*
X140279735Y-86271100D01*
X140279735Y-84543900D01*
X140274460Y-84478991D01*
X140240778Y-84371276D01*
X140178478Y-84277170D01*
X140092472Y-84204094D01*
X139989541Y-84157809D01*
X139877800Y-84141965D01*
X137845800Y-84141965D01*
X137780891Y-84147240D01*
X137673176Y-84180922D01*
X137579070Y-84243222D01*
X137505994Y-84329228D01*
X137464701Y-84421057D01*
X137464701Y-83115725D01*
X137530959Y-83340853D01*
X137645214Y-83559401D01*
X137799741Y-83751595D01*
X137988657Y-83910113D01*
X138204764Y-84028919D01*
X138439832Y-84103487D01*
X138684906Y-84130977D01*
X138702549Y-84131100D01*
X139021051Y-84131100D01*
X139266486Y-84107035D01*
X139502572Y-84035756D01*
X139720317Y-83919979D01*
X139911427Y-83764114D01*
X140068623Y-83574096D01*
X140185917Y-83357165D01*
X140258842Y-83121582D01*
X140284620Y-82876322D01*
X140262269Y-82630725D01*
X140212290Y-82460909D01*
X140212290Y-80544595D01*
X140212290Y-80110405D01*
X140149448Y-79886489D01*
X140041598Y-79673487D01*
X139894265Y-79485618D01*
X139713112Y-79330102D01*
X139505100Y-79212916D01*
X139278223Y-79138563D01*
X139041200Y-79109900D01*
X138888800Y-79109900D01*
X138888800Y-80300500D01*
X140142977Y-80300500D01*
X140212290Y-80110405D01*
X140212290Y-80544595D01*
X140142977Y-80354500D01*
X138888800Y-80354500D01*
X138888800Y-81545100D01*
X139041200Y-81545100D01*
X139278223Y-81516437D01*
X139505100Y-81442084D01*
X139713112Y-81324898D01*
X139894265Y-81169382D01*
X140041598Y-80981513D01*
X140149448Y-80768511D01*
X140212290Y-80544595D01*
X140212290Y-82460909D01*
X140192641Y-82394147D01*
X140078386Y-82175599D01*
X139923859Y-81983405D01*
X139734943Y-81824887D01*
X139518836Y-81706081D01*
X139283768Y-81631513D01*
X139038694Y-81604023D01*
X139021051Y-81603900D01*
X138834800Y-81603900D01*
X138834800Y-81545100D01*
X138834800Y-80354500D01*
X138834800Y-80300500D01*
X138834800Y-79109900D01*
X138682400Y-79109900D01*
X138445377Y-79138563D01*
X138218500Y-79212916D01*
X138010488Y-79330102D01*
X137829335Y-79485618D01*
X137682002Y-79673487D01*
X137574152Y-79886489D01*
X137511310Y-80110405D01*
X137580623Y-80300500D01*
X138834800Y-80300500D01*
X138834800Y-80354500D01*
X137580623Y-80354500D01*
X137511310Y-80544595D01*
X137574152Y-80768511D01*
X137682002Y-80981513D01*
X137829335Y-81169382D01*
X138010488Y-81324898D01*
X138218500Y-81442084D01*
X138445377Y-81516437D01*
X138682400Y-81545100D01*
X138834800Y-81545100D01*
X138834800Y-81603900D01*
X138702549Y-81603900D01*
X138457114Y-81627965D01*
X138221028Y-81699244D01*
X138003283Y-81815021D01*
X137812173Y-81970886D01*
X137654977Y-82160904D01*
X137537683Y-82377835D01*
X137464758Y-82613418D01*
X137464701Y-82613960D01*
X137464701Y-78035725D01*
X137530959Y-78260853D01*
X137645214Y-78479401D01*
X137799741Y-78671595D01*
X137988657Y-78830113D01*
X138204764Y-78948919D01*
X138439832Y-79023487D01*
X138684906Y-79050977D01*
X138702549Y-79051100D01*
X139021051Y-79051100D01*
X139266486Y-79027035D01*
X139502572Y-78955756D01*
X139720317Y-78839979D01*
X139911427Y-78684114D01*
X140068623Y-78494096D01*
X140185917Y-78277165D01*
X140186773Y-78274398D01*
X140219123Y-78264631D01*
X140263484Y-78251743D01*
X140265819Y-78250532D01*
X140268335Y-78249773D01*
X140309085Y-78228105D01*
X140350120Y-78206836D01*
X140352176Y-78205194D01*
X140354496Y-78203961D01*
X140357179Y-78201772D01*
X140357179Y-87307115D01*
G36*
X149537500Y-94553800D02*
X142742265Y-94553800D01*
X142742265Y-60397390D01*
X142742265Y-58799730D01*
X142736990Y-58734821D01*
X142703308Y-58627106D01*
X142641008Y-58533000D01*
X142555002Y-58459924D01*
X142452071Y-58413639D01*
X142340330Y-58397795D01*
X140539470Y-58397795D01*
X140474561Y-58403070D01*
X140366846Y-58436752D01*
X140272740Y-58499052D01*
X140199664Y-58585058D01*
X140153379Y-58687989D01*
X140137535Y-58799730D01*
X140137535Y-60092218D01*
X138194953Y-62034800D01*
X134239000Y-62034800D01*
X134193011Y-62039309D01*
X134147024Y-62043332D01*
X134144499Y-62044065D01*
X134141883Y-62044322D01*
X134097676Y-62057668D01*
X134053316Y-62070557D01*
X134050980Y-62071767D01*
X134048465Y-62072527D01*
X134007675Y-62094215D01*
X133966680Y-62115465D01*
X133964627Y-62117103D01*
X133962304Y-62118339D01*
X133935341Y-62140329D01*
X133942435Y-62090300D01*
X133942435Y-60693300D01*
X133937160Y-60628391D01*
X133903478Y-60520676D01*
X133841178Y-60426570D01*
X133755172Y-60353494D01*
X133652241Y-60307209D01*
X133540500Y-60291365D01*
X132143500Y-60291365D01*
X132078591Y-60296640D01*
X131970876Y-60330322D01*
X131876770Y-60392622D01*
X131803694Y-60478628D01*
X131783141Y-60524334D01*
X131532000Y-60273193D01*
X131532000Y-57894735D01*
X132032000Y-57894735D01*
X132096909Y-57889460D01*
X132204624Y-57855778D01*
X132298730Y-57793478D01*
X132371806Y-57707472D01*
X132418091Y-57604541D01*
X132433935Y-57492800D01*
X132433935Y-56092799D01*
X132694959Y-56092799D01*
X132846289Y-56092799D01*
X138966323Y-56092799D01*
X139985917Y-57112393D01*
X140021561Y-57141672D01*
X140056986Y-57171397D01*
X140059292Y-57172665D01*
X140061322Y-57174332D01*
X140101991Y-57196138D01*
X140137535Y-57215679D01*
X140137535Y-57557670D01*
X140142810Y-57622579D01*
X140176492Y-57730294D01*
X140238792Y-57824400D01*
X140324798Y-57897476D01*
X140427729Y-57943761D01*
X140539470Y-57959605D01*
X142340330Y-57959605D01*
X142405239Y-57954330D01*
X142512954Y-57920648D01*
X142607060Y-57858348D01*
X142680136Y-57772342D01*
X142726421Y-57669411D01*
X142742265Y-57557670D01*
X142742265Y-55960010D01*
X142736990Y-55895101D01*
X142703308Y-55787386D01*
X142641008Y-55693280D01*
X142555002Y-55620204D01*
X142452071Y-55573919D01*
X142340330Y-55558075D01*
X140539470Y-55558075D01*
X140474561Y-55563350D01*
X140366846Y-55597032D01*
X140272740Y-55659332D01*
X140199664Y-55745338D01*
X140153379Y-55848269D01*
X140151221Y-55863485D01*
X139526982Y-55239246D01*
X139491337Y-55209966D01*
X139455913Y-55180242D01*
X139453606Y-55178973D01*
X139451577Y-55177307D01*
X139410907Y-55155500D01*
X139370400Y-55133231D01*
X139367892Y-55132435D01*
X139365577Y-55131194D01*
X139321413Y-55117691D01*
X139277385Y-55103725D01*
X139274773Y-55103432D01*
X139272258Y-55102663D01*
X139226281Y-55097993D01*
X139180410Y-55092848D01*
X139175271Y-55092811D01*
X139175174Y-55092802D01*
X139175082Y-55092810D01*
X139173429Y-55092799D01*
X132846289Y-55092799D01*
X132694959Y-55092799D01*
X124737001Y-55092799D01*
X124691012Y-55097308D01*
X124645025Y-55101331D01*
X124642500Y-55102064D01*
X124639884Y-55102321D01*
X124595677Y-55115667D01*
X124551317Y-55128556D01*
X124548981Y-55129766D01*
X124546466Y-55130526D01*
X124505676Y-55152214D01*
X124464681Y-55173464D01*
X124462628Y-55175102D01*
X124460305Y-55176338D01*
X124424513Y-55205529D01*
X124388418Y-55234344D01*
X124384755Y-55237955D01*
X124384684Y-55238014D01*
X124384629Y-55238080D01*
X124383447Y-55239246D01*
X123552935Y-56069758D01*
X123552935Y-55978800D01*
X123547660Y-55913891D01*
X123513978Y-55806176D01*
X123451678Y-55712070D01*
X123365672Y-55638994D01*
X123262741Y-55592709D01*
X123151000Y-55576865D01*
X121451000Y-55576865D01*
X121386091Y-55582140D01*
X121278376Y-55615822D01*
X121184270Y-55678122D01*
X121111194Y-55764128D01*
X121064909Y-55867059D01*
X121049065Y-55978800D01*
X121049065Y-57978800D01*
X121054340Y-58043709D01*
X121088022Y-58151424D01*
X121150322Y-58245530D01*
X121236328Y-58318606D01*
X121339259Y-58364891D01*
X121451000Y-58380735D01*
X123151000Y-58380735D01*
X123215909Y-58375460D01*
X123323624Y-58341778D01*
X123417730Y-58279478D01*
X123490806Y-58193472D01*
X123537091Y-58090541D01*
X123552935Y-57978800D01*
X123552935Y-57435011D01*
X123582285Y-57419405D01*
X123623320Y-57398136D01*
X123625376Y-57396494D01*
X123627696Y-57395261D01*
X123663484Y-57366072D01*
X123699582Y-57337255D01*
X123703239Y-57333647D01*
X123703317Y-57333585D01*
X123703376Y-57333513D01*
X123704553Y-57332353D01*
X124944107Y-56092799D01*
X125678000Y-56092799D01*
X125678000Y-56577300D01*
X125766500Y-56665800D01*
X127005000Y-56665800D01*
X127005000Y-56645800D01*
X127059000Y-56645800D01*
X127059000Y-56665800D01*
X128297500Y-56665800D01*
X128386000Y-56577300D01*
X128386000Y-56092799D01*
X129630065Y-56092799D01*
X129630065Y-57492800D01*
X129635340Y-57557709D01*
X129669022Y-57665424D01*
X129731322Y-57759530D01*
X129817328Y-57832606D01*
X129920259Y-57878891D01*
X130032000Y-57894735D01*
X130532000Y-57894735D01*
X130532000Y-60480300D01*
X130536504Y-60526243D01*
X130540532Y-60572276D01*
X130541265Y-60574800D01*
X130541522Y-60577417D01*
X130554868Y-60621623D01*
X130567757Y-60665984D01*
X130568967Y-60668319D01*
X130569727Y-60670835D01*
X130591394Y-60711585D01*
X130612664Y-60752620D01*
X130614305Y-60754676D01*
X130615539Y-60756996D01*
X130644727Y-60792784D01*
X130673545Y-60828882D01*
X130677152Y-60832539D01*
X130677215Y-60832617D01*
X130677286Y-60832676D01*
X130678447Y-60833853D01*
X131421483Y-61576889D01*
X130136570Y-62861803D01*
X130136570Y-61540320D01*
X130136570Y-61309320D01*
X130136570Y-59890084D01*
X130122966Y-59821692D01*
X130096281Y-59757268D01*
X130057540Y-59699288D01*
X130008232Y-59649980D01*
X129950252Y-59611239D01*
X129885828Y-59584554D01*
X129817436Y-59570950D01*
X129747704Y-59570950D01*
X129147500Y-59570950D01*
X129059000Y-59659450D01*
X129059000Y-61397820D01*
X130048070Y-61397820D01*
X130136570Y-61309320D01*
X130136570Y-61540320D01*
X130048070Y-61451820D01*
X129059000Y-61451820D01*
X129059000Y-63190190D01*
X129147500Y-63278690D01*
X129719683Y-63278690D01*
X129477398Y-63520975D01*
X129005000Y-63520975D01*
X129005000Y-63190190D01*
X129005000Y-61451820D01*
X129005000Y-61397820D01*
X129005000Y-59659450D01*
X128916500Y-59570950D01*
X128386000Y-59570950D01*
X128386000Y-57527666D01*
X128386000Y-57457934D01*
X128386000Y-56808300D01*
X128297500Y-56719800D01*
X127059000Y-56719800D01*
X127059000Y-57758300D01*
X127147500Y-57846800D01*
X128066866Y-57846800D01*
X128135258Y-57833196D01*
X128199682Y-57806511D01*
X128257662Y-57767770D01*
X128306970Y-57718462D01*
X128345711Y-57660482D01*
X128372396Y-57596058D01*
X128386000Y-57527666D01*
X128386000Y-59570950D01*
X128316296Y-59570950D01*
X128246564Y-59570950D01*
X128178172Y-59584554D01*
X128113748Y-59611239D01*
X128055768Y-59649980D01*
X128006460Y-59699288D01*
X127967719Y-59757268D01*
X127941034Y-59821692D01*
X127927430Y-59890084D01*
X127927430Y-61309320D01*
X128015930Y-61397820D01*
X129005000Y-61397820D01*
X129005000Y-61451820D01*
X128015930Y-61451820D01*
X127927430Y-61540320D01*
X127927430Y-62959556D01*
X127941034Y-63027948D01*
X127967719Y-63092372D01*
X128006460Y-63150352D01*
X128055768Y-63199660D01*
X128113748Y-63238401D01*
X128178172Y-63265086D01*
X128246564Y-63278690D01*
X128316296Y-63278690D01*
X128916500Y-63278690D01*
X129005000Y-63190190D01*
X129005000Y-63520975D01*
X128281430Y-63520975D01*
X128216521Y-63526250D01*
X128108806Y-63559932D01*
X128014700Y-63622232D01*
X127941624Y-63708238D01*
X127895339Y-63811169D01*
X127879495Y-63922910D01*
X127879495Y-64966568D01*
X127850144Y-64982174D01*
X127809110Y-65003444D01*
X127807053Y-65005085D01*
X127804734Y-65006319D01*
X127768945Y-65035507D01*
X127732848Y-65064325D01*
X127729190Y-65067932D01*
X127729113Y-65067995D01*
X127729053Y-65068066D01*
X127727877Y-65069227D01*
X127005000Y-65792103D01*
X127005000Y-57758300D01*
X127005000Y-56719800D01*
X125766500Y-56719800D01*
X125678000Y-56808300D01*
X125678000Y-57457934D01*
X125678000Y-57527666D01*
X125691604Y-57596058D01*
X125718289Y-57660482D01*
X125757030Y-57718462D01*
X125806338Y-57767770D01*
X125864318Y-57806511D01*
X125928742Y-57833196D01*
X125997134Y-57846800D01*
X126916500Y-57846800D01*
X127005000Y-57758300D01*
X127005000Y-65792103D01*
X126318954Y-66478149D01*
X126320547Y-66364087D01*
X126278704Y-66152762D01*
X126196611Y-65953590D01*
X126077395Y-65774157D01*
X125925598Y-65621296D01*
X125747001Y-65500831D01*
X125548407Y-65417349D01*
X125337380Y-65374032D01*
X125121958Y-65372528D01*
X124910347Y-65412895D01*
X124710607Y-65493595D01*
X124530345Y-65611555D01*
X124376429Y-65762281D01*
X124254720Y-65940033D01*
X124241104Y-65971800D01*
X122663023Y-65971800D01*
X122640771Y-65895209D01*
X122559905Y-65739200D01*
X122450273Y-65601868D01*
X122441447Y-65592917D01*
X122079751Y-65231221D01*
X121943963Y-65119684D01*
X121884328Y-65087708D01*
X121933468Y-65062237D01*
X122070800Y-64952606D01*
X122079751Y-64943779D01*
X122441447Y-64582083D01*
X122552983Y-64446295D01*
X122560755Y-64431800D01*
X124238446Y-64431800D01*
X124240249Y-64436352D01*
X124356947Y-64617432D01*
X124506596Y-64772397D01*
X124683493Y-64895344D01*
X124880902Y-64981590D01*
X125091304Y-65027850D01*
X125306684Y-65032362D01*
X125518838Y-64994953D01*
X125719685Y-64917050D01*
X125901576Y-64801618D01*
X126057582Y-64653055D01*
X126181762Y-64477020D01*
X126269384Y-64280218D01*
X126317111Y-64070145D01*
X126320547Y-63824087D01*
X126279494Y-63616751D01*
X126279494Y-61406328D01*
X126262008Y-61199743D01*
X126204557Y-61000537D01*
X126109345Y-60816368D01*
X126093202Y-60792209D01*
X125926078Y-60725906D01*
X125887894Y-60764090D01*
X125887894Y-60687722D01*
X125821591Y-60520598D01*
X125640107Y-60420363D01*
X125442556Y-60357460D01*
X125236528Y-60334306D01*
X125029943Y-60351792D01*
X124830737Y-60409243D01*
X124646568Y-60504455D01*
X124622409Y-60520598D01*
X124556106Y-60687722D01*
X125222000Y-61353616D01*
X125887894Y-60687722D01*
X125887894Y-60764090D01*
X125260184Y-61391800D01*
X125926078Y-62057694D01*
X126093202Y-61991391D01*
X126193437Y-61809907D01*
X126256340Y-61612356D01*
X126279494Y-61406328D01*
X126279494Y-63616751D01*
X126278704Y-63612762D01*
X126196611Y-63413590D01*
X126077395Y-63234157D01*
X125925598Y-63081296D01*
X125887894Y-63055864D01*
X125887894Y-62095878D01*
X125222000Y-61429984D01*
X125183816Y-61468168D01*
X125183816Y-61391800D01*
X124517922Y-60725906D01*
X124350798Y-60792209D01*
X124250563Y-60973693D01*
X124187660Y-61171244D01*
X124164506Y-61377272D01*
X124181992Y-61583857D01*
X124239443Y-61783063D01*
X124334655Y-61967232D01*
X124350798Y-61991391D01*
X124517922Y-62057694D01*
X125183816Y-61391800D01*
X125183816Y-61468168D01*
X124556106Y-62095878D01*
X124622409Y-62263002D01*
X124803893Y-62363237D01*
X125001444Y-62426140D01*
X125207472Y-62449294D01*
X125414057Y-62431808D01*
X125613263Y-62374357D01*
X125797432Y-62279145D01*
X125821591Y-62263002D01*
X125887894Y-62095878D01*
X125887894Y-63055864D01*
X125747001Y-62960831D01*
X125548407Y-62877349D01*
X125337380Y-62834032D01*
X125121958Y-62832528D01*
X124910347Y-62872895D01*
X124710607Y-62953595D01*
X124530345Y-63071555D01*
X124376429Y-63222281D01*
X124254720Y-63400033D01*
X124241104Y-63431800D01*
X123505000Y-63431800D01*
X123505000Y-62013666D01*
X123505000Y-61094300D01*
X123505000Y-60863300D01*
X123505000Y-59943934D01*
X123491396Y-59875542D01*
X123464711Y-59811118D01*
X123425970Y-59753138D01*
X123376662Y-59703830D01*
X123318682Y-59665089D01*
X123254258Y-59638404D01*
X123185866Y-59624800D01*
X123116134Y-59624800D01*
X122416500Y-59624800D01*
X122328000Y-59713300D01*
X122328000Y-60951800D01*
X123416500Y-60951800D01*
X123505000Y-60863300D01*
X123505000Y-61094300D01*
X123416500Y-61005800D01*
X122328000Y-61005800D01*
X122328000Y-62244300D01*
X122416500Y-62332800D01*
X123116134Y-62332800D01*
X123185866Y-62332800D01*
X123254258Y-62319196D01*
X123318682Y-62292511D01*
X123376662Y-62253770D01*
X123425970Y-62204462D01*
X123464711Y-62146482D01*
X123491396Y-62082058D01*
X123505000Y-62013666D01*
X123505000Y-63431800D01*
X122541904Y-63431800D01*
X122445876Y-63313214D01*
X122310871Y-63200732D01*
X122274000Y-63180629D01*
X122274000Y-62244300D01*
X122274000Y-61005800D01*
X122274000Y-60951800D01*
X122274000Y-59713300D01*
X122185500Y-59624800D01*
X121485866Y-59624800D01*
X121416134Y-59624800D01*
X121347742Y-59638404D01*
X121283318Y-59665089D01*
X121225338Y-59703830D01*
X121176030Y-59753138D01*
X121137289Y-59811118D01*
X121110604Y-59875542D01*
X121097000Y-59943934D01*
X121097000Y-60863300D01*
X121185500Y-60951800D01*
X122274000Y-60951800D01*
X122274000Y-61005800D01*
X121185500Y-61005800D01*
X121097000Y-61094300D01*
X121097000Y-62013666D01*
X121110604Y-62082058D01*
X121137289Y-62146482D01*
X121176030Y-62204462D01*
X121225338Y-62253770D01*
X121283318Y-62292511D01*
X121347742Y-62319196D01*
X121416134Y-62332800D01*
X121485866Y-62332800D01*
X122185500Y-62332800D01*
X122274000Y-62244300D01*
X122274000Y-63180629D01*
X122156589Y-63116614D01*
X121988906Y-63064066D01*
X121814210Y-63045087D01*
X121639155Y-63060403D01*
X121470409Y-63109429D01*
X121314400Y-63190295D01*
X121177068Y-63299927D01*
X121168117Y-63308753D01*
X120806421Y-63670449D01*
X120694884Y-63806237D01*
X120611846Y-63961102D01*
X120560469Y-64129147D01*
X120542711Y-64303972D01*
X120559248Y-64478915D01*
X120609451Y-64647314D01*
X120691405Y-64802756D01*
X120801992Y-64939318D01*
X120936997Y-65051801D01*
X121002186Y-65087343D01*
X120947444Y-65116205D01*
X120810882Y-65226792D01*
X120698399Y-65361797D01*
X120614282Y-65516079D01*
X120561733Y-65683762D01*
X120542755Y-65858457D01*
X120558070Y-66033512D01*
X120607096Y-66202258D01*
X120687963Y-66358268D01*
X120797594Y-66495600D01*
X120806421Y-66504551D01*
X121168117Y-66866247D01*
X121303905Y-66977783D01*
X121458770Y-67060822D01*
X121626815Y-67112199D01*
X121801639Y-67129956D01*
X121976583Y-67113419D01*
X122144982Y-67063217D01*
X122300423Y-66981262D01*
X122312107Y-66971800D01*
X122884210Y-66971800D01*
X122853555Y-66974805D01*
X122807523Y-66978833D01*
X122804998Y-66979566D01*
X122802382Y-66979823D01*
X122758175Y-66993169D01*
X122713815Y-67006058D01*
X122711479Y-67007268D01*
X122708964Y-67008028D01*
X122668213Y-67029695D01*
X122627179Y-67050965D01*
X122625122Y-67052606D01*
X122622803Y-67053840D01*
X122587014Y-67083028D01*
X122550917Y-67111846D01*
X122547259Y-67115453D01*
X122547182Y-67115516D01*
X122547122Y-67115587D01*
X122545946Y-67116748D01*
X121302519Y-68360174D01*
X121300660Y-68337291D01*
X121266978Y-68229576D01*
X121204678Y-68135470D01*
X121118672Y-68062394D01*
X121015741Y-68016109D01*
X120904000Y-68000265D01*
X118872000Y-68000265D01*
X118807091Y-68005540D01*
X118699376Y-68039222D01*
X118605270Y-68101522D01*
X118532194Y-68187528D01*
X118485909Y-68290459D01*
X118470065Y-68402200D01*
X118470065Y-70129400D01*
X118475340Y-70194309D01*
X118509022Y-70302024D01*
X118571322Y-70396130D01*
X118657328Y-70469206D01*
X118760259Y-70515491D01*
X118872000Y-70531335D01*
X120904000Y-70531335D01*
X120968909Y-70526060D01*
X121076624Y-70492378D01*
X121170730Y-70430078D01*
X121243806Y-70344072D01*
X121290091Y-70241141D01*
X121305935Y-70129400D01*
X121305935Y-69722011D01*
X121335285Y-69706405D01*
X121376320Y-69685136D01*
X121378376Y-69683494D01*
X121380696Y-69682261D01*
X121416484Y-69653072D01*
X121452582Y-69624255D01*
X121456239Y-69620647D01*
X121456317Y-69620585D01*
X121456376Y-69620513D01*
X121457553Y-69619353D01*
X123106605Y-67970301D01*
X124867265Y-67970301D01*
X124710607Y-68033595D01*
X124530345Y-68151555D01*
X124376429Y-68302281D01*
X124254720Y-68480033D01*
X124169854Y-68678040D01*
X124125064Y-68888759D01*
X124122056Y-69104165D01*
X124160945Y-69316053D01*
X124175040Y-69351653D01*
X122220893Y-71305800D01*
X121204910Y-71305800D01*
X121104586Y-71113899D01*
X120950059Y-70921705D01*
X120761143Y-70763187D01*
X120545036Y-70644381D01*
X120309968Y-70569813D01*
X120064894Y-70542323D01*
X120047251Y-70542200D01*
X119728749Y-70542200D01*
X119483314Y-70566265D01*
X119247228Y-70637544D01*
X119029483Y-70753321D01*
X118838373Y-70909186D01*
X118681177Y-71099204D01*
X118563883Y-71316135D01*
X118503267Y-71511953D01*
X116598601Y-69607287D01*
X116598601Y-67254401D01*
X116594091Y-67208412D01*
X116590069Y-67162425D01*
X116589335Y-67159900D01*
X116589079Y-67157284D01*
X116575732Y-67113077D01*
X116562844Y-67068717D01*
X116561633Y-67066381D01*
X116560874Y-67063866D01*
X116539185Y-67023076D01*
X116517936Y-66982081D01*
X116516297Y-66980028D01*
X116515062Y-66977705D01*
X116485870Y-66941913D01*
X116457056Y-66905818D01*
X116453444Y-66902155D01*
X116453386Y-66902084D01*
X116453319Y-66902029D01*
X116452154Y-66900847D01*
X108746076Y-59194770D01*
X108812905Y-58978882D01*
X108838683Y-58733622D01*
X108838683Y-56193622D01*
X108838683Y-53653622D01*
X108816332Y-53408025D01*
X108746704Y-53171447D01*
X108632449Y-52952899D01*
X108477922Y-52760705D01*
X108289006Y-52602187D01*
X108072899Y-52483381D01*
X107837831Y-52408813D01*
X107592757Y-52381323D01*
X107575114Y-52381200D01*
X107562886Y-52381200D01*
X107317451Y-52405265D01*
X107081365Y-52476544D01*
X106863620Y-52592321D01*
X106672510Y-52748186D01*
X106515314Y-52938204D01*
X106398020Y-53155135D01*
X106325095Y-53390718D01*
X106299317Y-53635978D01*
X106321668Y-53881575D01*
X106391296Y-54118153D01*
X106505551Y-54336701D01*
X106660078Y-54528895D01*
X106848994Y-54687413D01*
X107065101Y-54806219D01*
X107300169Y-54880787D01*
X107545243Y-54908277D01*
X107562886Y-54908400D01*
X107575114Y-54908400D01*
X107820549Y-54884335D01*
X108056635Y-54813056D01*
X108274380Y-54697279D01*
X108465490Y-54541414D01*
X108622686Y-54351396D01*
X108739980Y-54134465D01*
X108812905Y-53898882D01*
X108838683Y-53653622D01*
X108838683Y-56193622D01*
X108816332Y-55948025D01*
X108746704Y-55711447D01*
X108632449Y-55492899D01*
X108477922Y-55300705D01*
X108289006Y-55142187D01*
X108072899Y-55023381D01*
X107837831Y-54948813D01*
X107592757Y-54921323D01*
X107575114Y-54921200D01*
X107562886Y-54921200D01*
X107317451Y-54945265D01*
X107081365Y-55016544D01*
X106863620Y-55132321D01*
X106672510Y-55288186D01*
X106515314Y-55478204D01*
X106398020Y-55695135D01*
X106325095Y-55930718D01*
X106299317Y-56175978D01*
X106321668Y-56421575D01*
X106391296Y-56658153D01*
X106505551Y-56876701D01*
X106660078Y-57068895D01*
X106848994Y-57227413D01*
X107065101Y-57346219D01*
X107300169Y-57420787D01*
X107545243Y-57448277D01*
X107562886Y-57448400D01*
X107575114Y-57448400D01*
X107820549Y-57424335D01*
X108056635Y-57353056D01*
X108274380Y-57237279D01*
X108465490Y-57081414D01*
X108622686Y-56891396D01*
X108739980Y-56674465D01*
X108812905Y-56438882D01*
X108838683Y-56193622D01*
X108838683Y-58733622D01*
X108816332Y-58488025D01*
X108746704Y-58251447D01*
X108632449Y-58032899D01*
X108477922Y-57840705D01*
X108289006Y-57682187D01*
X108072899Y-57563381D01*
X107837831Y-57488813D01*
X107592757Y-57461323D01*
X107575114Y-57461200D01*
X107562886Y-57461200D01*
X107317451Y-57485265D01*
X107081365Y-57556544D01*
X106863620Y-57672321D01*
X106672510Y-57828186D01*
X106515314Y-58018204D01*
X106398020Y-58235135D01*
X106325095Y-58470718D01*
X106299317Y-58715978D01*
X106321668Y-58961575D01*
X106391296Y-59198153D01*
X106505551Y-59416701D01*
X106660078Y-59608895D01*
X106848994Y-59767413D01*
X107065101Y-59886219D01*
X107300169Y-59960787D01*
X107545243Y-59988277D01*
X107562886Y-59988400D01*
X107575114Y-59988400D01*
X107820549Y-59964335D01*
X108036291Y-59899197D01*
X115598601Y-67461507D01*
X115598601Y-69117865D01*
X114071400Y-69117865D01*
X114006491Y-69123140D01*
X113898776Y-69156822D01*
X113804670Y-69219122D01*
X113731594Y-69305128D01*
X113685309Y-69408059D01*
X113669465Y-69519800D01*
X113669465Y-71255558D01*
X113568538Y-71154631D01*
X113630987Y-70957768D01*
X113658477Y-70712694D01*
X113658600Y-70695051D01*
X113658600Y-70376549D01*
X113634535Y-70131114D01*
X113563256Y-69895028D01*
X113447479Y-69677283D01*
X113291614Y-69486173D01*
X113101596Y-69328977D01*
X112884665Y-69211683D01*
X112649082Y-69138758D01*
X112403822Y-69112980D01*
X112158225Y-69135331D01*
X111921647Y-69204959D01*
X111703099Y-69319214D01*
X111510905Y-69473741D01*
X111352387Y-69662657D01*
X111233581Y-69878764D01*
X111159013Y-70113832D01*
X111131523Y-70358906D01*
X111131400Y-70376549D01*
X111131400Y-70695051D01*
X111155465Y-70940486D01*
X111226744Y-71176572D01*
X111342521Y-71394317D01*
X111498386Y-71585427D01*
X111688404Y-71742623D01*
X111905335Y-71859917D01*
X112140918Y-71932842D01*
X112386178Y-71958620D01*
X112631775Y-71936269D01*
X112866793Y-71867099D01*
X116862657Y-75862964D01*
X116898358Y-75892289D01*
X116933726Y-75921967D01*
X116936029Y-75923233D01*
X116938062Y-75924903D01*
X116978751Y-75946719D01*
X117019239Y-75968978D01*
X117021748Y-75969774D01*
X117024063Y-75971015D01*
X117068198Y-75984508D01*
X117112254Y-75998484D01*
X117114867Y-75998777D01*
X117117382Y-75999546D01*
X117163352Y-76004215D01*
X117209229Y-76009361D01*
X117214367Y-76009397D01*
X117214465Y-76009407D01*
X117214556Y-76009398D01*
X117216210Y-76009410D01*
X118895731Y-76009410D01*
X118855535Y-76043918D01*
X118708202Y-76231787D01*
X118600352Y-76444789D01*
X118537510Y-76668705D01*
X118606823Y-76858800D01*
X119861000Y-76858800D01*
X119861000Y-76838800D01*
X119915000Y-76838800D01*
X119915000Y-76858800D01*
X121169177Y-76858800D01*
X121238490Y-76668705D01*
X121175648Y-76444789D01*
X121067798Y-76231787D01*
X120920465Y-76043918D01*
X120880268Y-76009410D01*
X121914692Y-76009410D01*
X121960635Y-76004905D01*
X122006668Y-76000878D01*
X122009192Y-76000144D01*
X122011809Y-75999888D01*
X122056015Y-75986541D01*
X122100376Y-75973653D01*
X122102711Y-75972442D01*
X122105227Y-75971683D01*
X122145977Y-75950015D01*
X122187012Y-75928746D01*
X122189068Y-75927104D01*
X122191388Y-75925871D01*
X122227176Y-75896682D01*
X122263274Y-75867865D01*
X122266931Y-75864257D01*
X122267009Y-75864195D01*
X122267068Y-75864123D01*
X122268245Y-75862963D01*
X122540907Y-75590301D01*
X124867265Y-75590301D01*
X124710607Y-75653595D01*
X124530345Y-75771555D01*
X124376429Y-75922281D01*
X124254720Y-76100033D01*
X124169854Y-76298040D01*
X124125064Y-76508759D01*
X124122056Y-76724165D01*
X124160945Y-76936053D01*
X124240249Y-77136352D01*
X124356947Y-77317432D01*
X124506596Y-77472397D01*
X124683493Y-77595344D01*
X124861924Y-77673299D01*
X120963113Y-77673299D01*
X121067798Y-77539813D01*
X121175648Y-77326811D01*
X121238490Y-77102895D01*
X121169177Y-76912800D01*
X119915000Y-76912800D01*
X119915000Y-76932800D01*
X119861000Y-76932800D01*
X119861000Y-76912800D01*
X118606823Y-76912800D01*
X118537510Y-77102895D01*
X118600352Y-77326811D01*
X118708202Y-77539813D01*
X118812886Y-77673299D01*
X117953605Y-77673299D01*
X116523182Y-76242876D01*
X116524030Y-76182161D01*
X116497366Y-76047499D01*
X116445054Y-75920580D01*
X116369086Y-75806239D01*
X116272356Y-75708831D01*
X116158548Y-75632067D01*
X116031997Y-75578870D01*
X115897524Y-75551266D01*
X115760250Y-75550308D01*
X115625405Y-75576031D01*
X115498124Y-75627456D01*
X115383255Y-75702624D01*
X115285174Y-75798672D01*
X115207617Y-75911941D01*
X115153538Y-76038117D01*
X115124997Y-76172394D01*
X115123080Y-76309658D01*
X115147861Y-76444680D01*
X115198396Y-76572317D01*
X115272760Y-76687707D01*
X115368121Y-76786456D01*
X115480846Y-76864802D01*
X115606641Y-76919761D01*
X115740716Y-76949239D01*
X115816929Y-76950835D01*
X117392945Y-78526852D01*
X117428615Y-78556151D01*
X117464015Y-78585856D01*
X117466321Y-78587124D01*
X117468351Y-78588791D01*
X117509020Y-78610597D01*
X117549528Y-78632867D01*
X117552035Y-78633662D01*
X117554351Y-78634904D01*
X117598514Y-78648406D01*
X117642543Y-78662373D01*
X117645154Y-78662665D01*
X117647670Y-78663435D01*
X117693646Y-78668104D01*
X117739518Y-78673250D01*
X117744656Y-78673286D01*
X117744754Y-78673296D01*
X117744845Y-78673287D01*
X117746499Y-78673299D01*
X124240462Y-78673299D01*
X124169854Y-78838040D01*
X124125064Y-79048759D01*
X124122056Y-79264165D01*
X124141535Y-79370299D01*
X113876435Y-79370299D01*
X113876435Y-77330300D01*
X113876435Y-75933300D01*
X113871160Y-75868391D01*
X113837478Y-75760676D01*
X113775178Y-75666570D01*
X113689172Y-75593494D01*
X113586241Y-75547209D01*
X113474500Y-75531365D01*
X112077500Y-75531365D01*
X112012591Y-75536640D01*
X111904876Y-75570322D01*
X111810770Y-75632622D01*
X111737694Y-75718628D01*
X111691409Y-75821559D01*
X111675565Y-75933300D01*
X111675565Y-77330300D01*
X111680840Y-77395209D01*
X111714522Y-77502924D01*
X111776822Y-77597030D01*
X111862828Y-77670106D01*
X111965759Y-77716391D01*
X112077500Y-77732235D01*
X113474500Y-77732235D01*
X113539409Y-77726960D01*
X113647124Y-77693278D01*
X113741230Y-77630978D01*
X113814306Y-77544972D01*
X113860591Y-77442041D01*
X113876435Y-77330300D01*
X113876435Y-79370299D01*
X113857444Y-79370299D01*
X113871111Y-79310145D01*
X113874547Y-79064087D01*
X113832704Y-78852762D01*
X113750611Y-78653590D01*
X113631395Y-78474157D01*
X113479598Y-78321296D01*
X113301001Y-78200831D01*
X113102407Y-78117349D01*
X112891380Y-78074032D01*
X112675958Y-78072528D01*
X112464347Y-78112895D01*
X112264607Y-78193595D01*
X112084345Y-78311555D01*
X111930429Y-78462281D01*
X111808720Y-78640033D01*
X111723854Y-78838040D01*
X111679064Y-79048759D01*
X111676056Y-79264165D01*
X111714945Y-79476053D01*
X111794249Y-79676352D01*
X111910947Y-79857432D01*
X112060596Y-80012397D01*
X112237493Y-80135344D01*
X112434902Y-80221590D01*
X112645304Y-80267850D01*
X112860684Y-80272362D01*
X113072838Y-80234953D01*
X113115498Y-80218405D01*
X113120946Y-80223853D01*
X113156647Y-80253178D01*
X113192015Y-80282856D01*
X113194318Y-80284122D01*
X113196351Y-80285792D01*
X113237059Y-80307619D01*
X113277528Y-80329867D01*
X113280035Y-80330662D01*
X113282351Y-80331904D01*
X113326514Y-80345406D01*
X113370543Y-80359373D01*
X113373154Y-80359665D01*
X113375670Y-80360435D01*
X113421646Y-80365104D01*
X113467518Y-80370250D01*
X113472656Y-80370286D01*
X113472754Y-80370296D01*
X113472845Y-80370287D01*
X113474499Y-80370299D01*
X124523501Y-80370299D01*
X124569444Y-80365794D01*
X124615477Y-80361767D01*
X124618001Y-80361033D01*
X124620618Y-80360777D01*
X124664824Y-80347430D01*
X124709185Y-80334542D01*
X124711520Y-80333331D01*
X124714036Y-80332572D01*
X124754786Y-80310904D01*
X124795821Y-80289635D01*
X124797877Y-80287993D01*
X124800197Y-80286760D01*
X124835985Y-80257571D01*
X124872083Y-80228754D01*
X124875740Y-80225146D01*
X124875818Y-80225084D01*
X124875877Y-80225012D01*
X124877054Y-80223852D01*
X124879798Y-80221107D01*
X124880902Y-80221590D01*
X125091304Y-80267850D01*
X125306684Y-80272362D01*
X125518838Y-80234953D01*
X125719685Y-80157050D01*
X125901576Y-80041618D01*
X126057582Y-79893055D01*
X126181762Y-79717020D01*
X126269384Y-79520218D01*
X126282659Y-79461784D01*
X127262000Y-80441124D01*
X127262000Y-82237650D01*
X127223174Y-82275672D01*
X127145617Y-82388941D01*
X127091538Y-82515117D01*
X127062997Y-82649394D01*
X127061080Y-82786658D01*
X127085861Y-82921680D01*
X127136396Y-83049317D01*
X127210760Y-83164707D01*
X127306121Y-83263456D01*
X127418846Y-83341802D01*
X127544641Y-83396761D01*
X127678716Y-83426239D01*
X127815963Y-83429114D01*
X127951155Y-83405276D01*
X128079141Y-83355633D01*
X128195048Y-83282077D01*
X128294460Y-83187408D01*
X128373591Y-83075232D01*
X128429427Y-82949823D01*
X128459841Y-82815958D01*
X128462030Y-82659161D01*
X128435366Y-82524499D01*
X128383054Y-82397580D01*
X128307086Y-82283239D01*
X128262000Y-82237836D01*
X128262000Y-81636800D01*
X128266866Y-81636800D01*
X128916500Y-81636800D01*
X129005000Y-81548300D01*
X129005000Y-80309800D01*
X128985000Y-80309800D01*
X128985000Y-80255800D01*
X129005000Y-80255800D01*
X129005000Y-79017300D01*
X128916500Y-78928800D01*
X128266866Y-78928800D01*
X128197134Y-78928800D01*
X128128742Y-78942404D01*
X128064318Y-78969089D01*
X128006338Y-79007830D01*
X127957030Y-79057138D01*
X127918289Y-79115118D01*
X127891604Y-79179542D01*
X127878000Y-79247934D01*
X127878000Y-79642911D01*
X126054834Y-77819746D01*
X126019189Y-77790466D01*
X125983765Y-77760742D01*
X125981458Y-77759473D01*
X125979429Y-77757807D01*
X125938759Y-77736000D01*
X125898252Y-77713731D01*
X125895744Y-77712935D01*
X125893429Y-77711694D01*
X125849265Y-77698191D01*
X125805237Y-77684225D01*
X125802625Y-77683932D01*
X125800110Y-77683163D01*
X125754133Y-77678493D01*
X125708262Y-77673348D01*
X125703123Y-77673311D01*
X125703026Y-77673302D01*
X125702934Y-77673310D01*
X125701281Y-77673299D01*
X125574665Y-77673299D01*
X125719685Y-77617050D01*
X125901576Y-77501618D01*
X126057582Y-77353055D01*
X126181762Y-77177020D01*
X126269384Y-76980218D01*
X126317111Y-76770145D01*
X126320547Y-76524087D01*
X126278704Y-76312762D01*
X126196611Y-76113590D01*
X126077395Y-75934157D01*
X125925598Y-75781296D01*
X125747001Y-75660831D01*
X125579218Y-75590301D01*
X125701281Y-75590301D01*
X125747224Y-75585796D01*
X125793257Y-75581769D01*
X125795781Y-75581035D01*
X125798398Y-75580779D01*
X125842604Y-75567432D01*
X125886965Y-75554544D01*
X125889300Y-75553333D01*
X125891816Y-75552574D01*
X125932566Y-75530906D01*
X125973601Y-75509637D01*
X125975657Y-75507995D01*
X125977977Y-75506762D01*
X126013765Y-75477573D01*
X126049863Y-75448756D01*
X126053520Y-75445148D01*
X126053598Y-75445086D01*
X126053657Y-75445014D01*
X126054834Y-75443854D01*
X127780065Y-73718623D01*
X127780065Y-74297800D01*
X127785340Y-74362709D01*
X127819022Y-74470424D01*
X127881322Y-74564530D01*
X127967328Y-74637606D01*
X128070259Y-74683891D01*
X128182000Y-74699735D01*
X128532000Y-74699735D01*
X128532000Y-74880865D01*
X128232000Y-74880865D01*
X128167091Y-74886140D01*
X128059376Y-74919822D01*
X127965270Y-74982122D01*
X127892194Y-75068128D01*
X127845909Y-75171059D01*
X127830065Y-75282800D01*
X127830065Y-77282800D01*
X127835340Y-77347709D01*
X127869022Y-77455424D01*
X127931322Y-77549530D01*
X128017328Y-77622606D01*
X128120259Y-77668891D01*
X128232000Y-77684735D01*
X129832000Y-77684735D01*
X129896909Y-77679460D01*
X130004624Y-77645778D01*
X130098730Y-77583478D01*
X130171806Y-77497472D01*
X130218091Y-77394541D01*
X130233935Y-77282800D01*
X130233935Y-75282800D01*
X130228660Y-75217891D01*
X130194978Y-75110176D01*
X130132678Y-75016070D01*
X130046672Y-74942994D01*
X129943741Y-74896709D01*
X129832000Y-74880865D01*
X129532000Y-74880865D01*
X129532000Y-74699735D01*
X129882000Y-74699735D01*
X129946909Y-74694460D01*
X130054624Y-74660778D01*
X130148730Y-74598478D01*
X130221806Y-74512472D01*
X130268091Y-74409541D01*
X130283935Y-74297800D01*
X130283935Y-74206841D01*
X130710447Y-74633354D01*
X130710452Y-74633358D01*
X131442698Y-75365605D01*
X131430942Y-75379617D01*
X131429673Y-75381923D01*
X131428007Y-75383953D01*
X131406200Y-75424622D01*
X131383931Y-75465130D01*
X131383135Y-75467637D01*
X131381894Y-75469953D01*
X131368391Y-75514116D01*
X131354425Y-75558145D01*
X131354132Y-75560756D01*
X131353363Y-75563272D01*
X131348693Y-75609248D01*
X131343548Y-75655120D01*
X131343511Y-75660258D01*
X131343502Y-75660356D01*
X131343510Y-75660447D01*
X131343499Y-75662101D01*
X131343499Y-78173299D01*
X131348003Y-78219242D01*
X131352031Y-78265275D01*
X131352764Y-78267799D01*
X131353021Y-78270416D01*
X131366367Y-78314622D01*
X131379256Y-78358983D01*
X131380466Y-78361318D01*
X131381226Y-78363834D01*
X131402893Y-78404584D01*
X131424163Y-78445619D01*
X131425804Y-78447675D01*
X131427038Y-78449995D01*
X131456226Y-78485783D01*
X131485044Y-78521881D01*
X131488651Y-78525538D01*
X131488714Y-78525616D01*
X131488785Y-78525675D01*
X131489946Y-78526852D01*
X131793238Y-78830144D01*
X131789854Y-78838040D01*
X131745064Y-79048759D01*
X131742056Y-79264165D01*
X131780945Y-79476053D01*
X131860249Y-79676352D01*
X131976947Y-79857432D01*
X132126596Y-80012397D01*
X132303493Y-80135344D01*
X132500902Y-80221590D01*
X132711304Y-80267850D01*
X132926684Y-80272362D01*
X133138838Y-80234953D01*
X133339685Y-80157050D01*
X133340501Y-80156532D01*
X133340501Y-80729691D01*
X133168407Y-80657349D01*
X132957380Y-80614032D01*
X132741958Y-80612528D01*
X132530347Y-80652895D01*
X132330607Y-80733595D01*
X132150345Y-80851555D01*
X131996429Y-81002281D01*
X131874720Y-81180033D01*
X131861104Y-81211800D01*
X131826000Y-81211800D01*
X131780011Y-81216309D01*
X131734024Y-81220332D01*
X131731499Y-81221065D01*
X131728883Y-81221322D01*
X131684676Y-81234668D01*
X131640316Y-81247557D01*
X131637980Y-81248767D01*
X131635465Y-81249527D01*
X131594675Y-81271215D01*
X131553680Y-81292465D01*
X131551627Y-81294103D01*
X131549304Y-81295339D01*
X131513512Y-81324530D01*
X131477417Y-81353345D01*
X131473754Y-81356956D01*
X131473683Y-81357015D01*
X131473628Y-81357081D01*
X131472446Y-81358247D01*
X130294989Y-82535703D01*
X130238250Y-82535308D01*
X130186000Y-82545275D01*
X130186000Y-81317666D01*
X130186000Y-80398300D01*
X130186000Y-80167300D01*
X130186000Y-79247934D01*
X130172396Y-79179542D01*
X130145711Y-79115118D01*
X130106970Y-79057138D01*
X130057662Y-79007830D01*
X129999682Y-78969089D01*
X129935258Y-78942404D01*
X129866866Y-78928800D01*
X129797134Y-78928800D01*
X129147500Y-78928800D01*
X129059000Y-79017300D01*
X129059000Y-80255800D01*
X130097500Y-80255800D01*
X130186000Y-80167300D01*
X130186000Y-80398300D01*
X130097500Y-80309800D01*
X129059000Y-80309800D01*
X129059000Y-81548300D01*
X129147500Y-81636800D01*
X129797134Y-81636800D01*
X129866866Y-81636800D01*
X129935258Y-81623196D01*
X129999682Y-81596511D01*
X130057662Y-81557770D01*
X130106970Y-81508462D01*
X130145711Y-81450482D01*
X130172396Y-81386058D01*
X130186000Y-81317666D01*
X130186000Y-82545275D01*
X130103405Y-82561031D01*
X129976124Y-82612456D01*
X129861255Y-82687624D01*
X129763174Y-82783672D01*
X129685617Y-82896941D01*
X129631538Y-83023117D01*
X129602997Y-83157394D01*
X129601080Y-83294658D01*
X129625861Y-83429680D01*
X129659100Y-83513632D01*
X129531824Y-83565056D01*
X129416955Y-83640224D01*
X129318874Y-83736272D01*
X129241317Y-83849541D01*
X129187238Y-83975717D01*
X129158697Y-84109994D01*
X129156780Y-84247258D01*
X129181561Y-84382280D01*
X129232096Y-84509917D01*
X129306460Y-84625307D01*
X129401821Y-84724056D01*
X129514546Y-84802402D01*
X129640341Y-84857361D01*
X129774416Y-84886839D01*
X129850629Y-84888435D01*
X131886857Y-86924664D01*
X131922558Y-86953989D01*
X131957926Y-86983667D01*
X131960229Y-86984933D01*
X131962262Y-86986603D01*
X132002970Y-87008430D01*
X132043439Y-87030678D01*
X132045946Y-87031473D01*
X132048262Y-87032715D01*
X132092425Y-87046217D01*
X132136454Y-87060184D01*
X132139065Y-87060476D01*
X132141581Y-87061246D01*
X132187557Y-87065915D01*
X132233429Y-87071061D01*
X132238567Y-87071097D01*
X132238665Y-87071107D01*
X132238756Y-87071098D01*
X132240410Y-87071110D01*
X134023542Y-87071110D01*
X133883077Y-87240904D01*
X133765783Y-87457835D01*
X133692858Y-87693418D01*
X133667080Y-87938678D01*
X133689431Y-88184275D01*
X133759059Y-88420853D01*
X133873314Y-88639401D01*
X134027841Y-88831595D01*
X134216757Y-88990113D01*
X134432864Y-89108919D01*
X134667932Y-89183487D01*
X134913006Y-89210977D01*
X134930649Y-89211100D01*
X135249151Y-89211100D01*
X135494586Y-89187035D01*
X135730672Y-89115756D01*
X135948417Y-88999979D01*
X136139527Y-88844114D01*
X136296723Y-88654096D01*
X136414017Y-88437165D01*
X136464701Y-88273431D01*
X136464701Y-89466510D01*
X134986412Y-90944799D01*
X129008699Y-90944799D01*
X128962710Y-90949308D01*
X128916723Y-90953331D01*
X128914198Y-90954064D01*
X128911582Y-90954321D01*
X128867375Y-90967667D01*
X128823015Y-90980556D01*
X128820679Y-90981766D01*
X128818164Y-90982526D01*
X128777374Y-91004214D01*
X128736379Y-91025464D01*
X128734326Y-91027102D01*
X128732003Y-91028338D01*
X128696211Y-91057529D01*
X128660116Y-91086344D01*
X128656453Y-91089955D01*
X128656382Y-91090014D01*
X128656327Y-91090080D01*
X128655145Y-91091246D01*
X126677590Y-93068801D01*
X126239063Y-93068801D01*
X126304000Y-92951630D01*
X126371002Y-92742256D01*
X126395871Y-92523834D01*
X126377649Y-92304758D01*
X126317038Y-92093445D01*
X126216367Y-91898019D01*
X126197439Y-91869692D01*
X126023813Y-91795771D01*
X125985629Y-91833955D01*
X125985629Y-91757587D01*
X125911708Y-91583961D01*
X125719430Y-91477400D01*
X125510056Y-91410398D01*
X125291634Y-91385529D01*
X125072558Y-91403751D01*
X124861245Y-91464362D01*
X124665819Y-91565033D01*
X124637492Y-91583961D01*
X124563571Y-91757587D01*
X125274600Y-92468616D01*
X125985629Y-91757587D01*
X125985629Y-91833955D01*
X125312784Y-92506800D01*
X125326926Y-92520942D01*
X125288741Y-92559126D01*
X125274600Y-92544984D01*
X125260458Y-92559126D01*
X125222273Y-92520942D01*
X125236416Y-92506800D01*
X124525387Y-91795771D01*
X124351761Y-91869692D01*
X124245200Y-92061970D01*
X124178198Y-92271344D01*
X124153329Y-92489766D01*
X124171551Y-92708842D01*
X124232162Y-92920155D01*
X124308734Y-93068801D01*
X104405907Y-93068801D01*
X103965389Y-92628282D01*
X103965389Y-85246077D01*
X104467664Y-85748353D01*
X104503334Y-85777652D01*
X104538734Y-85807357D01*
X104541040Y-85808625D01*
X104543070Y-85810292D01*
X104583739Y-85832098D01*
X104624247Y-85854368D01*
X104626754Y-85855163D01*
X104629070Y-85856405D01*
X104673233Y-85869907D01*
X104717262Y-85883874D01*
X104719873Y-85884166D01*
X104722389Y-85884936D01*
X104768320Y-85889600D01*
X104814237Y-85894751D01*
X104819385Y-85894787D01*
X104819473Y-85894796D01*
X104819554Y-85894788D01*
X104821218Y-85894800D01*
X119905688Y-85894800D01*
X119940121Y-85930456D01*
X120052846Y-86008802D01*
X120178641Y-86063761D01*
X120312716Y-86093239D01*
X120449963Y-86096114D01*
X120585155Y-86072276D01*
X120713141Y-86022633D01*
X120829048Y-85949077D01*
X120928460Y-85854408D01*
X121007591Y-85742232D01*
X121063427Y-85616823D01*
X121093841Y-85482958D01*
X121096030Y-85326161D01*
X121069366Y-85191499D01*
X121017054Y-85064580D01*
X120941086Y-84950239D01*
X120844356Y-84852831D01*
X120730548Y-84776067D01*
X120672818Y-84751800D01*
X124238446Y-84751800D01*
X124240249Y-84756352D01*
X124356947Y-84937432D01*
X124506596Y-85092397D01*
X124683493Y-85215344D01*
X124880902Y-85301590D01*
X125091304Y-85347850D01*
X125306684Y-85352362D01*
X125518838Y-85314953D01*
X125719685Y-85237050D01*
X125901576Y-85121618D01*
X126057582Y-84973055D01*
X126181762Y-84797020D01*
X126269384Y-84600218D01*
X126317111Y-84390145D01*
X126320547Y-84144087D01*
X126320547Y-81604087D01*
X126278704Y-81392762D01*
X126196611Y-81193590D01*
X126077395Y-81014157D01*
X125925598Y-80861296D01*
X125747001Y-80740831D01*
X125548407Y-80657349D01*
X125337380Y-80614032D01*
X125121958Y-80612528D01*
X124910347Y-80652895D01*
X124710607Y-80733595D01*
X124530345Y-80851555D01*
X124376429Y-81002281D01*
X124254720Y-81180033D01*
X124241104Y-81211800D01*
X113758116Y-81211800D01*
X113750611Y-81193590D01*
X113631395Y-81014157D01*
X113479598Y-80861296D01*
X113301001Y-80740831D01*
X113102407Y-80657349D01*
X112891380Y-80614032D01*
X112675958Y-80612528D01*
X112464347Y-80652895D01*
X112264607Y-80733595D01*
X112084345Y-80851555D01*
X111930429Y-81002281D01*
X111808720Y-81180033D01*
X111723854Y-81378040D01*
X111679064Y-81588759D01*
X111676056Y-81804165D01*
X111714945Y-82016053D01*
X111794249Y-82216352D01*
X111910947Y-82397432D01*
X112060596Y-82552397D01*
X112237493Y-82675344D01*
X112434902Y-82761590D01*
X112645304Y-82807850D01*
X112860684Y-82812362D01*
X113072838Y-82774953D01*
X113273685Y-82697050D01*
X113455576Y-82581618D01*
X113611582Y-82433055D01*
X113735762Y-82257020D01*
X113755895Y-82211800D01*
X124238446Y-82211800D01*
X124240249Y-82216352D01*
X124356947Y-82397432D01*
X124506596Y-82552397D01*
X124683493Y-82675344D01*
X124880902Y-82761590D01*
X125091304Y-82807850D01*
X125306684Y-82812362D01*
X125518838Y-82774953D01*
X125719685Y-82697050D01*
X125901576Y-82581618D01*
X126057582Y-82433055D01*
X126181762Y-82257020D01*
X126269384Y-82060218D01*
X126317111Y-81850145D01*
X126320547Y-81604087D01*
X126320547Y-84144087D01*
X126278704Y-83932762D01*
X126196611Y-83733590D01*
X126077395Y-83554157D01*
X125925598Y-83401296D01*
X125747001Y-83280831D01*
X125548407Y-83197349D01*
X125337380Y-83154032D01*
X125121958Y-83152528D01*
X124910347Y-83192895D01*
X124710607Y-83273595D01*
X124530345Y-83391555D01*
X124376429Y-83542281D01*
X124254720Y-83720033D01*
X124241104Y-83751800D01*
X113758116Y-83751800D01*
X113750611Y-83733590D01*
X113631395Y-83554157D01*
X113479598Y-83401296D01*
X113301001Y-83280831D01*
X113102407Y-83197349D01*
X112891380Y-83154032D01*
X112675958Y-83152528D01*
X112464347Y-83192895D01*
X112264607Y-83273595D01*
X112084345Y-83391555D01*
X111930429Y-83542281D01*
X111808720Y-83720033D01*
X111723854Y-83918040D01*
X111679064Y-84128759D01*
X111676056Y-84344165D01*
X111714945Y-84556053D01*
X111794249Y-84756352D01*
X111883472Y-84894800D01*
X111118600Y-84894800D01*
X111118600Y-70695051D01*
X111118600Y-70376549D01*
X111094535Y-70131114D01*
X111023256Y-69895028D01*
X110907479Y-69677283D01*
X110751614Y-69486173D01*
X110561596Y-69328977D01*
X110344665Y-69211683D01*
X110109082Y-69138758D01*
X109863822Y-69112980D01*
X109618225Y-69135331D01*
X109381647Y-69204959D01*
X109163099Y-69319214D01*
X108970905Y-69473741D01*
X108838683Y-69631318D01*
X108838683Y-61273622D01*
X108816332Y-61028025D01*
X108746704Y-60791447D01*
X108632449Y-60572899D01*
X108477922Y-60380705D01*
X108289006Y-60222187D01*
X108072899Y-60103381D01*
X107837831Y-60028813D01*
X107592757Y-60001323D01*
X107575114Y-60001200D01*
X107562886Y-60001200D01*
X107317451Y-60025265D01*
X107081365Y-60096544D01*
X106863620Y-60212321D01*
X106672510Y-60368186D01*
X106515314Y-60558204D01*
X106398020Y-60775135D01*
X106325095Y-61010718D01*
X106299317Y-61255978D01*
X106321668Y-61501575D01*
X106391296Y-61738153D01*
X106505551Y-61956701D01*
X106660078Y-62148895D01*
X106848994Y-62307413D01*
X107065101Y-62426219D01*
X107300169Y-62500787D01*
X107545243Y-62528277D01*
X107562886Y-62528400D01*
X107575114Y-62528400D01*
X107820549Y-62504335D01*
X108056635Y-62433056D01*
X108274380Y-62317279D01*
X108465490Y-62161414D01*
X108622686Y-61971396D01*
X108739980Y-61754465D01*
X108812905Y-61518882D01*
X108838683Y-61273622D01*
X108838683Y-69631318D01*
X108812387Y-69662657D01*
X108693581Y-69878764D01*
X108619013Y-70113832D01*
X108591523Y-70358906D01*
X108591400Y-70376549D01*
X108591400Y-70695051D01*
X108615465Y-70940486D01*
X108686744Y-71176572D01*
X108802521Y-71394317D01*
X108958386Y-71585427D01*
X109148404Y-71742623D01*
X109365335Y-71859917D01*
X109600918Y-71932842D01*
X109846178Y-71958620D01*
X110091775Y-71936269D01*
X110328353Y-71866641D01*
X110546901Y-71752386D01*
X110739095Y-71597859D01*
X110897613Y-71408943D01*
X111016419Y-71192836D01*
X111090987Y-70957768D01*
X111118477Y-70712694D01*
X111118600Y-70695051D01*
X111118600Y-84894800D01*
X108532600Y-84894800D01*
X108532600Y-70715200D01*
X108532600Y-70562800D01*
X108532600Y-70508800D01*
X108532600Y-70356400D01*
X108503937Y-70119377D01*
X108429584Y-69892500D01*
X108312398Y-69684488D01*
X108156882Y-69503335D01*
X107969013Y-69356002D01*
X107756011Y-69248152D01*
X107532095Y-69185310D01*
X107342000Y-69254623D01*
X107342000Y-70508800D01*
X108532600Y-70508800D01*
X108532600Y-70562800D01*
X107342000Y-70562800D01*
X107342000Y-71816977D01*
X107532095Y-71886290D01*
X107756011Y-71823448D01*
X107969013Y-71715598D01*
X108156882Y-71568265D01*
X108312398Y-71387112D01*
X108429584Y-71179100D01*
X108503937Y-70952223D01*
X108532600Y-70715200D01*
X108532600Y-84894800D01*
X107288000Y-84894800D01*
X107288000Y-71816977D01*
X107288000Y-70562800D01*
X107288000Y-70508800D01*
X107288000Y-69254623D01*
X107097905Y-69185310D01*
X106873989Y-69248152D01*
X106660987Y-69356002D01*
X106473118Y-69503335D01*
X106317602Y-69684488D01*
X106200416Y-69892500D01*
X106126063Y-70119377D01*
X106097400Y-70356400D01*
X106097400Y-70508800D01*
X107288000Y-70508800D01*
X107288000Y-70562800D01*
X106097400Y-70562800D01*
X106097400Y-70715200D01*
X106126063Y-70952223D01*
X106200416Y-71179100D01*
X106317602Y-71387112D01*
X106473118Y-71568265D01*
X106660987Y-71715598D01*
X106873989Y-71823448D01*
X107097905Y-71886290D01*
X107288000Y-71816977D01*
X107288000Y-84894800D01*
X105917784Y-84894800D01*
X106027202Y-84851391D01*
X106127437Y-84669907D01*
X106190340Y-84472356D01*
X106213494Y-84266328D01*
X106213494Y-81726328D01*
X106213494Y-79186328D01*
X106213494Y-76646328D01*
X106196008Y-76439743D01*
X106138557Y-76240537D01*
X106043345Y-76056368D01*
X106027202Y-76032209D01*
X105860078Y-75965906D01*
X105821894Y-76004090D01*
X105821894Y-75927722D01*
X105755591Y-75760598D01*
X105574107Y-75660363D01*
X105376556Y-75597460D01*
X105170528Y-75574306D01*
X104963943Y-75591792D01*
X104764737Y-75649243D01*
X104580568Y-75744455D01*
X104556409Y-75760598D01*
X104490106Y-75927722D01*
X105156000Y-76593616D01*
X105821894Y-75927722D01*
X105821894Y-76004090D01*
X105194184Y-76631800D01*
X105860078Y-77297694D01*
X106027202Y-77231391D01*
X106127437Y-77049907D01*
X106190340Y-76852356D01*
X106213494Y-76646328D01*
X106213494Y-79186328D01*
X106196008Y-78979743D01*
X106138557Y-78780537D01*
X106043345Y-78596368D01*
X106027202Y-78572209D01*
X105860078Y-78505906D01*
X105821894Y-78544090D01*
X105821894Y-78467722D01*
X105821894Y-77335878D01*
X105156000Y-76669984D01*
X104490106Y-77335878D01*
X104556409Y-77503002D01*
X104737893Y-77603237D01*
X104935444Y-77666140D01*
X105141472Y-77689294D01*
X105348057Y-77671808D01*
X105547263Y-77614357D01*
X105731432Y-77519145D01*
X105755591Y-77503002D01*
X105821894Y-77335878D01*
X105821894Y-78467722D01*
X105755591Y-78300598D01*
X105574107Y-78200363D01*
X105376556Y-78137460D01*
X105170528Y-78114306D01*
X104963943Y-78131792D01*
X104764737Y-78189243D01*
X104580568Y-78284455D01*
X104556409Y-78300598D01*
X104490106Y-78467722D01*
X105156000Y-79133616D01*
X105821894Y-78467722D01*
X105821894Y-78544090D01*
X105194184Y-79171800D01*
X105860078Y-79837694D01*
X106027202Y-79771391D01*
X106127437Y-79589907D01*
X106190340Y-79392356D01*
X106213494Y-79186328D01*
X106213494Y-81726328D01*
X106196008Y-81519743D01*
X106138557Y-81320537D01*
X106043345Y-81136368D01*
X106027202Y-81112209D01*
X105860078Y-81045906D01*
X105821894Y-81084090D01*
X105821894Y-81007722D01*
X105821894Y-79875878D01*
X105156000Y-79209984D01*
X104490106Y-79875878D01*
X104556409Y-80043002D01*
X104737893Y-80143237D01*
X104935444Y-80206140D01*
X105141472Y-80229294D01*
X105348057Y-80211808D01*
X105547263Y-80154357D01*
X105731432Y-80059145D01*
X105755591Y-80043002D01*
X105821894Y-79875878D01*
X105821894Y-81007722D01*
X105755591Y-80840598D01*
X105574107Y-80740363D01*
X105376556Y-80677460D01*
X105170528Y-80654306D01*
X104963943Y-80671792D01*
X104764737Y-80729243D01*
X104580568Y-80824455D01*
X104556409Y-80840598D01*
X104490106Y-81007722D01*
X105156000Y-81673616D01*
X105821894Y-81007722D01*
X105821894Y-81084090D01*
X105194184Y-81711800D01*
X105860078Y-82377694D01*
X106027202Y-82311391D01*
X106127437Y-82129907D01*
X106190340Y-81932356D01*
X106213494Y-81726328D01*
X106213494Y-84266328D01*
X106196008Y-84059743D01*
X106138557Y-83860537D01*
X106043345Y-83676368D01*
X106027202Y-83652209D01*
X105860078Y-83585906D01*
X105821894Y-83624090D01*
X105821894Y-83547722D01*
X105821894Y-82415878D01*
X105156000Y-81749984D01*
X104490106Y-82415878D01*
X104556409Y-82583002D01*
X104737893Y-82683237D01*
X104935444Y-82746140D01*
X105141472Y-82769294D01*
X105348057Y-82751808D01*
X105547263Y-82694357D01*
X105731432Y-82599145D01*
X105755591Y-82583002D01*
X105821894Y-82415878D01*
X105821894Y-83547722D01*
X105755591Y-83380598D01*
X105574107Y-83280363D01*
X105376556Y-83217460D01*
X105170528Y-83194306D01*
X104963943Y-83211792D01*
X104764737Y-83269243D01*
X104580568Y-83364455D01*
X104556409Y-83380598D01*
X104490106Y-83547722D01*
X105156000Y-84213616D01*
X105821894Y-83547722D01*
X105821894Y-83624090D01*
X105194184Y-84251800D01*
X105208326Y-84265942D01*
X105170142Y-84304126D01*
X105156000Y-84289984D01*
X105141857Y-84304125D01*
X105103673Y-84265941D01*
X105117816Y-84251800D01*
X104451922Y-83585906D01*
X104365399Y-83620232D01*
X104365399Y-82343367D01*
X104451922Y-82377694D01*
X105117816Y-81711800D01*
X104451922Y-81045906D01*
X104365399Y-81080232D01*
X104365399Y-79803367D01*
X104451922Y-79837694D01*
X105117816Y-79171800D01*
X104451922Y-78505906D01*
X104365399Y-78540232D01*
X104365399Y-77263367D01*
X104451922Y-77297694D01*
X105117816Y-76631800D01*
X104451922Y-75965906D01*
X104365399Y-76000232D01*
X104365399Y-62338421D01*
X104525101Y-62426219D01*
X104760169Y-62500787D01*
X105005243Y-62528277D01*
X105022886Y-62528400D01*
X105035114Y-62528400D01*
X105280549Y-62504335D01*
X105516635Y-62433056D01*
X105734380Y-62317279D01*
X105925490Y-62161414D01*
X106082686Y-61971396D01*
X106199980Y-61754465D01*
X106272905Y-61518882D01*
X106298683Y-61273622D01*
X106276332Y-61028025D01*
X106206704Y-60791447D01*
X106092449Y-60572899D01*
X105937922Y-60380705D01*
X105749006Y-60222187D01*
X105532899Y-60103381D01*
X105297831Y-60028813D01*
X105052757Y-60001323D01*
X105035114Y-60001200D01*
X105022886Y-60001200D01*
X104777451Y-60025265D01*
X104541365Y-60096544D01*
X104365399Y-60190106D01*
X104365399Y-60095507D01*
X104562745Y-59898160D01*
X104760169Y-59960787D01*
X105005243Y-59988277D01*
X105022886Y-59988400D01*
X105035114Y-59988400D01*
X105280549Y-59964335D01*
X105516635Y-59893056D01*
X105734380Y-59777279D01*
X105925490Y-59621414D01*
X106082686Y-59431396D01*
X106199980Y-59214465D01*
X106272905Y-58978882D01*
X106298683Y-58733622D01*
X106276332Y-58488025D01*
X106206704Y-58251447D01*
X106092449Y-58032899D01*
X105937922Y-57840705D01*
X105749006Y-57682187D01*
X105532899Y-57563381D01*
X105297831Y-57488813D01*
X105052757Y-57461323D01*
X105035114Y-57461200D01*
X105022886Y-57461200D01*
X104777451Y-57485265D01*
X104541365Y-57556544D01*
X104323620Y-57672321D01*
X104132510Y-57828186D01*
X103975314Y-58018204D01*
X103965389Y-58036559D01*
X103965389Y-57955517D01*
X104562745Y-57358160D01*
X104760169Y-57420787D01*
X105005243Y-57448277D01*
X105022886Y-57448400D01*
X105035114Y-57448400D01*
X105280549Y-57424335D01*
X105516635Y-57353056D01*
X105734380Y-57237279D01*
X105925490Y-57081414D01*
X106082686Y-56891396D01*
X106199980Y-56674465D01*
X106272905Y-56438882D01*
X106298683Y-56193622D01*
X106276332Y-55948025D01*
X106246600Y-55847003D01*
X106246600Y-54543266D01*
X106246600Y-54473534D01*
X106246600Y-53760300D01*
X106246600Y-53529300D01*
X106246600Y-52816066D01*
X106246600Y-52746334D01*
X106232996Y-52677942D01*
X106206311Y-52613518D01*
X106167570Y-52555538D01*
X106118262Y-52506230D01*
X106060282Y-52467489D01*
X105995858Y-52440804D01*
X105927466Y-52427200D01*
X105144500Y-52427200D01*
X105056000Y-52515700D01*
X105056000Y-53617800D01*
X106158100Y-53617800D01*
X106246600Y-53529300D01*
X106246600Y-53760300D01*
X106158100Y-53671800D01*
X105056000Y-53671800D01*
X105056000Y-54773900D01*
X105144500Y-54862400D01*
X105927466Y-54862400D01*
X105995858Y-54848796D01*
X106060282Y-54822111D01*
X106118262Y-54783370D01*
X106167570Y-54734062D01*
X106206311Y-54676082D01*
X106232996Y-54611658D01*
X106246600Y-54543266D01*
X106246600Y-55847003D01*
X106206704Y-55711447D01*
X106092449Y-55492899D01*
X105937922Y-55300705D01*
X105749006Y-55142187D01*
X105532899Y-55023381D01*
X105297831Y-54948813D01*
X105052757Y-54921323D01*
X105035114Y-54921200D01*
X105022886Y-54921200D01*
X105002000Y-54923247D01*
X105002000Y-54773900D01*
X105002000Y-53671800D01*
X105002000Y-53617800D01*
X105002000Y-52515700D01*
X104913500Y-52427200D01*
X104130534Y-52427200D01*
X104062142Y-52440804D01*
X103997718Y-52467489D01*
X103939738Y-52506230D01*
X103890430Y-52555538D01*
X103851689Y-52613518D01*
X103825004Y-52677942D01*
X103811400Y-52746334D01*
X103811400Y-52816066D01*
X103811400Y-53529300D01*
X103899900Y-53617800D01*
X105002000Y-53617800D01*
X105002000Y-53671800D01*
X103899900Y-53671800D01*
X103811400Y-53760300D01*
X103811400Y-54473534D01*
X103811400Y-54543266D01*
X103825004Y-54611658D01*
X103851689Y-54676082D01*
X103890430Y-54734062D01*
X103939738Y-54783370D01*
X103997718Y-54822111D01*
X104062142Y-54848796D01*
X104130534Y-54862400D01*
X104913500Y-54862400D01*
X105002000Y-54773900D01*
X105002000Y-54923247D01*
X104777451Y-54945265D01*
X104541365Y-55016544D01*
X104323620Y-55132321D01*
X104132510Y-55288186D01*
X103975314Y-55478204D01*
X103858020Y-55695135D01*
X103785095Y-55930718D01*
X103759317Y-56175978D01*
X103781668Y-56421575D01*
X103850669Y-56656024D01*
X103111836Y-57394858D01*
X103082556Y-57430502D01*
X103052832Y-57465927D01*
X103051563Y-57468233D01*
X103049897Y-57470263D01*
X103028090Y-57510932D01*
X103005821Y-57551440D01*
X103005025Y-57553947D01*
X103003784Y-57556263D01*
X102990281Y-57600426D01*
X102976315Y-57644455D01*
X102976022Y-57647066D01*
X102975253Y-57649582D01*
X102970583Y-57695558D01*
X102965438Y-57741430D01*
X102965401Y-57746568D01*
X102965392Y-57746666D01*
X102965400Y-57746757D01*
X102965389Y-57748411D01*
X102965389Y-92835389D01*
X102969893Y-92881332D01*
X102973921Y-92927365D01*
X102974654Y-92929889D01*
X102974911Y-92932506D01*
X102988257Y-92976712D01*
X103001146Y-93021073D01*
X103002356Y-93023408D01*
X103003116Y-93025924D01*
X103024783Y-93066674D01*
X103046053Y-93107709D01*
X103047694Y-93109765D01*
X103048928Y-93112085D01*
X103078116Y-93147873D01*
X103106934Y-93183971D01*
X103110541Y-93187628D01*
X103110604Y-93187706D01*
X103110675Y-93187765D01*
X103111836Y-93188942D01*
X103845247Y-93922354D01*
X103880917Y-93951653D01*
X103916317Y-93981358D01*
X103918623Y-93982626D01*
X103920653Y-93984293D01*
X103961322Y-94006099D01*
X104001830Y-94028369D01*
X104004337Y-94029164D01*
X104006653Y-94030406D01*
X104050816Y-94043908D01*
X104094845Y-94057875D01*
X104097456Y-94058167D01*
X104099972Y-94058937D01*
X104145903Y-94063601D01*
X104191820Y-94068752D01*
X104196968Y-94068788D01*
X104197056Y-94068797D01*
X104197137Y-94068789D01*
X104198801Y-94068801D01*
X126884697Y-94068801D01*
X126930640Y-94064296D01*
X126976673Y-94060269D01*
X126979197Y-94059535D01*
X126981814Y-94059279D01*
X127026020Y-94045932D01*
X127070381Y-94033044D01*
X127072716Y-94031833D01*
X127075232Y-94031074D01*
X127115982Y-94009406D01*
X127157017Y-93988137D01*
X127159073Y-93986495D01*
X127161393Y-93985262D01*
X127197181Y-93956073D01*
X127233279Y-93927256D01*
X127236936Y-93923648D01*
X127237014Y-93923586D01*
X127237073Y-93923514D01*
X127238250Y-93922354D01*
X129215805Y-91944799D01*
X134841188Y-91944799D01*
X134751634Y-92153746D01*
X134704255Y-92376646D01*
X134701073Y-92604504D01*
X134742210Y-92828640D01*
X134826098Y-93040518D01*
X134949542Y-93232066D01*
X135107841Y-93395989D01*
X135294964Y-93526043D01*
X135503785Y-93617275D01*
X135726349Y-93666208D01*
X135954179Y-93670981D01*
X136178597Y-93631410D01*
X136391055Y-93549003D01*
X136583460Y-93426899D01*
X136748484Y-93269748D01*
X136879841Y-93083537D01*
X136972529Y-92875359D01*
X137023015Y-92653142D01*
X137026649Y-92392860D01*
X136982387Y-92169320D01*
X136961021Y-92117484D01*
X141210732Y-87867774D01*
X141240011Y-87832129D01*
X141269736Y-87796705D01*
X141271004Y-87794398D01*
X141272671Y-87792369D01*
X141294477Y-87751699D01*
X141316747Y-87711192D01*
X141317542Y-87708684D01*
X141318784Y-87706369D01*
X141332286Y-87662205D01*
X141346253Y-87618177D01*
X141346545Y-87615565D01*
X141347315Y-87613050D01*
X141351984Y-87567073D01*
X141357130Y-87521202D01*
X141357166Y-87516063D01*
X141357176Y-87515966D01*
X141357167Y-87515874D01*
X141357179Y-87514221D01*
X141357179Y-76879986D01*
X141352669Y-76833997D01*
X141348647Y-76788010D01*
X141347913Y-76785485D01*
X141347657Y-76782869D01*
X141334310Y-76738662D01*
X141321422Y-76694302D01*
X141320211Y-76691966D01*
X141319452Y-76689451D01*
X141297763Y-76648661D01*
X141276514Y-76607666D01*
X141274875Y-76605613D01*
X141273640Y-76603290D01*
X141244448Y-76567498D01*
X141215634Y-76531403D01*
X141212025Y-76527744D01*
X141211964Y-76527669D01*
X141211893Y-76527610D01*
X141210732Y-76526433D01*
X141129731Y-76445432D01*
X141129660Y-76445361D01*
X141129660Y-76445360D01*
X134884045Y-70199746D01*
X134848400Y-70170466D01*
X134812976Y-70140742D01*
X134810669Y-70139473D01*
X134808640Y-70137807D01*
X134767970Y-70116000D01*
X134727463Y-70093731D01*
X134724955Y-70092935D01*
X134722640Y-70091694D01*
X134678476Y-70078191D01*
X134634448Y-70064225D01*
X134631836Y-70063932D01*
X134629321Y-70063163D01*
X134583344Y-70058493D01*
X134537473Y-70053348D01*
X134532334Y-70053311D01*
X134532237Y-70053302D01*
X134532145Y-70053310D01*
X134530492Y-70053299D01*
X133194665Y-70053299D01*
X133339685Y-69997050D01*
X133521576Y-69881618D01*
X133677582Y-69733055D01*
X133801762Y-69557020D01*
X133821895Y-69511800D01*
X136852920Y-69511800D01*
X137033000Y-69511800D01*
X140148965Y-69511800D01*
X140148965Y-69875400D01*
X140154240Y-69940309D01*
X140187922Y-70048024D01*
X140250222Y-70142130D01*
X140336228Y-70215206D01*
X140439159Y-70261491D01*
X140550900Y-70277335D01*
X142278100Y-70277335D01*
X142343009Y-70272060D01*
X142450724Y-70238378D01*
X142544830Y-70176078D01*
X142617906Y-70090072D01*
X142664191Y-69987141D01*
X142680035Y-69875400D01*
X142680035Y-68148200D01*
X142678100Y-68124389D01*
X142678100Y-66477914D01*
X142678100Y-66465686D01*
X142654035Y-66220251D01*
X142582756Y-65984165D01*
X142466979Y-65766420D01*
X142311114Y-65575310D01*
X142121096Y-65418114D01*
X141904165Y-65300820D01*
X141668582Y-65227895D01*
X141423322Y-65202117D01*
X141177725Y-65224468D01*
X140941147Y-65294096D01*
X140722599Y-65408351D01*
X140530405Y-65562878D01*
X140371887Y-65751794D01*
X140253081Y-65967901D01*
X140251844Y-65971800D01*
X137033000Y-65971800D01*
X136928897Y-65971800D01*
X133824116Y-65971800D01*
X133816611Y-65953590D01*
X133697395Y-65774157D01*
X133545598Y-65621296D01*
X133367001Y-65500831D01*
X133168407Y-65417349D01*
X132957380Y-65374032D01*
X132741958Y-65372528D01*
X132530347Y-65412895D01*
X132330607Y-65493595D01*
X132150345Y-65611555D01*
X131996429Y-65762281D01*
X131874720Y-65940033D01*
X131789854Y-66138040D01*
X131745064Y-66348759D01*
X131742056Y-66564165D01*
X131780945Y-66776053D01*
X131860249Y-66976352D01*
X131976947Y-67157432D01*
X132126596Y-67312397D01*
X132303493Y-67435344D01*
X132500902Y-67521590D01*
X132711304Y-67567850D01*
X132926684Y-67572362D01*
X133138838Y-67534953D01*
X133339685Y-67457050D01*
X133521576Y-67341618D01*
X133677582Y-67193055D01*
X133801762Y-67017020D01*
X133821895Y-66971800D01*
X136928897Y-66971800D01*
X137033000Y-66971800D01*
X140252818Y-66971800D01*
X140362021Y-67177180D01*
X140517886Y-67368290D01*
X140707904Y-67525486D01*
X140924835Y-67642780D01*
X141160418Y-67715705D01*
X141405678Y-67741483D01*
X141651275Y-67719132D01*
X141887853Y-67649504D01*
X142106401Y-67535249D01*
X142298595Y-67380722D01*
X142457113Y-67191806D01*
X142575919Y-66975699D01*
X142650487Y-66740631D01*
X142677977Y-66495557D01*
X142678100Y-66477914D01*
X142678100Y-68124389D01*
X142674760Y-68083291D01*
X142641078Y-67975576D01*
X142578778Y-67881470D01*
X142492772Y-67808394D01*
X142389841Y-67762109D01*
X142278100Y-67746265D01*
X140550900Y-67746265D01*
X140485991Y-67751540D01*
X140378276Y-67785222D01*
X140284170Y-67847522D01*
X140211094Y-67933528D01*
X140164809Y-68036459D01*
X140148965Y-68148200D01*
X140148965Y-68511800D01*
X137033000Y-68511800D01*
X136852920Y-68511800D01*
X133824116Y-68511800D01*
X133816611Y-68493590D01*
X133697395Y-68314157D01*
X133545598Y-68161296D01*
X133367001Y-68040831D01*
X133168407Y-67957349D01*
X132957380Y-67914032D01*
X132741958Y-67912528D01*
X132530347Y-67952895D01*
X132330607Y-68033595D01*
X132150345Y-68151555D01*
X131996429Y-68302281D01*
X131874720Y-68480033D01*
X131789854Y-68678040D01*
X131745064Y-68888759D01*
X131742056Y-69104165D01*
X131780945Y-69316053D01*
X131860249Y-69516352D01*
X131976947Y-69697432D01*
X132126596Y-69852397D01*
X132303493Y-69975344D01*
X132481924Y-70053299D01*
X131544605Y-70053299D01*
X130435553Y-68944247D01*
X130399908Y-68914967D01*
X130364484Y-68885243D01*
X130362177Y-68883974D01*
X130360148Y-68882308D01*
X130319478Y-68860501D01*
X130283935Y-68840960D01*
X130283935Y-68297800D01*
X130278660Y-68232891D01*
X130244978Y-68125176D01*
X130182678Y-68031070D01*
X130096672Y-67957994D01*
X129993741Y-67911709D01*
X129882000Y-67895865D01*
X129532000Y-67895865D01*
X129532000Y-67324585D01*
X129782570Y-67324585D01*
X129847479Y-67319310D01*
X129955194Y-67285628D01*
X130049300Y-67223328D01*
X130122376Y-67137322D01*
X130168661Y-67034391D01*
X130184505Y-66922650D01*
X130184505Y-64228081D01*
X131965838Y-62446748D01*
X132031759Y-62476391D01*
X132143500Y-62492235D01*
X133540500Y-62492235D01*
X133577462Y-62489231D01*
X133183147Y-62883545D01*
X133168407Y-62877349D01*
X132957380Y-62834032D01*
X132741958Y-62832528D01*
X132530347Y-62872895D01*
X132330607Y-62953595D01*
X132150345Y-63071555D01*
X131996429Y-63222281D01*
X131874720Y-63400033D01*
X131789854Y-63598040D01*
X131745064Y-63808759D01*
X131742056Y-64024165D01*
X131780945Y-64236053D01*
X131860249Y-64436352D01*
X131976947Y-64617432D01*
X132126596Y-64772397D01*
X132303493Y-64895344D01*
X132500902Y-64981590D01*
X132711304Y-65027850D01*
X132926684Y-65032362D01*
X133138838Y-64994953D01*
X133339685Y-64917050D01*
X133521576Y-64801618D01*
X133677582Y-64653055D01*
X133801762Y-64477020D01*
X133889384Y-64280218D01*
X133937111Y-64070145D01*
X133940547Y-63824087D01*
X133898704Y-63612762D01*
X133889784Y-63591121D01*
X134446106Y-63034800D01*
X138402060Y-63034800D01*
X138448003Y-63030295D01*
X138494036Y-63026268D01*
X138496560Y-63025534D01*
X138499177Y-63025278D01*
X138543383Y-63011931D01*
X138587744Y-62999043D01*
X138590079Y-62997832D01*
X138592595Y-62997073D01*
X138633345Y-62975405D01*
X138674380Y-62954136D01*
X138676436Y-62952494D01*
X138678756Y-62951261D01*
X138714544Y-62922072D01*
X138750642Y-62893255D01*
X138754299Y-62889647D01*
X138754377Y-62889585D01*
X138754436Y-62889513D01*
X138755613Y-62888353D01*
X140844641Y-60799325D01*
X142340330Y-60799325D01*
X142405239Y-60794050D01*
X142512954Y-60760368D01*
X142607060Y-60698068D01*
X142680136Y-60612062D01*
X142726421Y-60509131D01*
X142742265Y-60397390D01*
X142742265Y-94553800D01*
X100437500Y-94553800D01*
X100437500Y-50453800D01*
X149537500Y-50453800D01*
X149537500Y-94553800D01*
X149537500Y-94553800D01*
G37*
X149537500Y-94553800D02*
X142742265Y-94553800D01*
X142742265Y-60397390D01*
X142742265Y-58799730D01*
X142736990Y-58734821D01*
X142703308Y-58627106D01*
X142641008Y-58533000D01*
X142555002Y-58459924D01*
X142452071Y-58413639D01*
X142340330Y-58397795D01*
X140539470Y-58397795D01*
X140474561Y-58403070D01*
X140366846Y-58436752D01*
X140272740Y-58499052D01*
X140199664Y-58585058D01*
X140153379Y-58687989D01*
X140137535Y-58799730D01*
X140137535Y-60092218D01*
X138194953Y-62034800D01*
X134239000Y-62034800D01*
X134193011Y-62039309D01*
X134147024Y-62043332D01*
X134144499Y-62044065D01*
X134141883Y-62044322D01*
X134097676Y-62057668D01*
X134053316Y-62070557D01*
X134050980Y-62071767D01*
X134048465Y-62072527D01*
X134007675Y-62094215D01*
X133966680Y-62115465D01*
X133964627Y-62117103D01*
X133962304Y-62118339D01*
X133935341Y-62140329D01*
X133942435Y-62090300D01*
X133942435Y-60693300D01*
X133937160Y-60628391D01*
X133903478Y-60520676D01*
X133841178Y-60426570D01*
X133755172Y-60353494D01*
X133652241Y-60307209D01*
X133540500Y-60291365D01*
X132143500Y-60291365D01*
X132078591Y-60296640D01*
X131970876Y-60330322D01*
X131876770Y-60392622D01*
X131803694Y-60478628D01*
X131783141Y-60524334D01*
X131532000Y-60273193D01*
X131532000Y-57894735D01*
X132032000Y-57894735D01*
X132096909Y-57889460D01*
X132204624Y-57855778D01*
X132298730Y-57793478D01*
X132371806Y-57707472D01*
X132418091Y-57604541D01*
X132433935Y-57492800D01*
X132433935Y-56092799D01*
X132694959Y-56092799D01*
X132846289Y-56092799D01*
X138966323Y-56092799D01*
X139985917Y-57112393D01*
X140021561Y-57141672D01*
X140056986Y-57171397D01*
X140059292Y-57172665D01*
X140061322Y-57174332D01*
X140101991Y-57196138D01*
X140137535Y-57215679D01*
X140137535Y-57557670D01*
X140142810Y-57622579D01*
X140176492Y-57730294D01*
X140238792Y-57824400D01*
X140324798Y-57897476D01*
X140427729Y-57943761D01*
X140539470Y-57959605D01*
X142340330Y-57959605D01*
X142405239Y-57954330D01*
X142512954Y-57920648D01*
X142607060Y-57858348D01*
X142680136Y-57772342D01*
X142726421Y-57669411D01*
X142742265Y-57557670D01*
X142742265Y-55960010D01*
X142736990Y-55895101D01*
X142703308Y-55787386D01*
X142641008Y-55693280D01*
X142555002Y-55620204D01*
X142452071Y-55573919D01*
X142340330Y-55558075D01*
X140539470Y-55558075D01*
X140474561Y-55563350D01*
X140366846Y-55597032D01*
X140272740Y-55659332D01*
X140199664Y-55745338D01*
X140153379Y-55848269D01*
X140151221Y-55863485D01*
X139526982Y-55239246D01*
X139491337Y-55209966D01*
X139455913Y-55180242D01*
X139453606Y-55178973D01*
X139451577Y-55177307D01*
X139410907Y-55155500D01*
X139370400Y-55133231D01*
X139367892Y-55132435D01*
X139365577Y-55131194D01*
X139321413Y-55117691D01*
X139277385Y-55103725D01*
X139274773Y-55103432D01*
X139272258Y-55102663D01*
X139226281Y-55097993D01*
X139180410Y-55092848D01*
X139175271Y-55092811D01*
X139175174Y-55092802D01*
X139175082Y-55092810D01*
X139173429Y-55092799D01*
X132846289Y-55092799D01*
X132694959Y-55092799D01*
X124737001Y-55092799D01*
X124691012Y-55097308D01*
X124645025Y-55101331D01*
X124642500Y-55102064D01*
X124639884Y-55102321D01*
X124595677Y-55115667D01*
X124551317Y-55128556D01*
X124548981Y-55129766D01*
X124546466Y-55130526D01*
X124505676Y-55152214D01*
X124464681Y-55173464D01*
X124462628Y-55175102D01*
X124460305Y-55176338D01*
X124424513Y-55205529D01*
X124388418Y-55234344D01*
X124384755Y-55237955D01*
X124384684Y-55238014D01*
X124384629Y-55238080D01*
X124383447Y-55239246D01*
X123552935Y-56069758D01*
X123552935Y-55978800D01*
X123547660Y-55913891D01*
X123513978Y-55806176D01*
X123451678Y-55712070D01*
X123365672Y-55638994D01*
X123262741Y-55592709D01*
X123151000Y-55576865D01*
X121451000Y-55576865D01*
X121386091Y-55582140D01*
X121278376Y-55615822D01*
X121184270Y-55678122D01*
X121111194Y-55764128D01*
X121064909Y-55867059D01*
X121049065Y-55978800D01*
X121049065Y-57978800D01*
X121054340Y-58043709D01*
X121088022Y-58151424D01*
X121150322Y-58245530D01*
X121236328Y-58318606D01*
X121339259Y-58364891D01*
X121451000Y-58380735D01*
X123151000Y-58380735D01*
X123215909Y-58375460D01*
X123323624Y-58341778D01*
X123417730Y-58279478D01*
X123490806Y-58193472D01*
X123537091Y-58090541D01*
X123552935Y-57978800D01*
X123552935Y-57435011D01*
X123582285Y-57419405D01*
X123623320Y-57398136D01*
X123625376Y-57396494D01*
X123627696Y-57395261D01*
X123663484Y-57366072D01*
X123699582Y-57337255D01*
X123703239Y-57333647D01*
X123703317Y-57333585D01*
X123703376Y-57333513D01*
X123704553Y-57332353D01*
X124944107Y-56092799D01*
X125678000Y-56092799D01*
X125678000Y-56577300D01*
X125766500Y-56665800D01*
X127005000Y-56665800D01*
X127005000Y-56645800D01*
X127059000Y-56645800D01*
X127059000Y-56665800D01*
X128297500Y-56665800D01*
X128386000Y-56577300D01*
X128386000Y-56092799D01*
X129630065Y-56092799D01*
X129630065Y-57492800D01*
X129635340Y-57557709D01*
X129669022Y-57665424D01*
X129731322Y-57759530D01*
X129817328Y-57832606D01*
X129920259Y-57878891D01*
X130032000Y-57894735D01*
X130532000Y-57894735D01*
X130532000Y-60480300D01*
X130536504Y-60526243D01*
X130540532Y-60572276D01*
X130541265Y-60574800D01*
X130541522Y-60577417D01*
X130554868Y-60621623D01*
X130567757Y-60665984D01*
X130568967Y-60668319D01*
X130569727Y-60670835D01*
X130591394Y-60711585D01*
X130612664Y-60752620D01*
X130614305Y-60754676D01*
X130615539Y-60756996D01*
X130644727Y-60792784D01*
X130673545Y-60828882D01*
X130677152Y-60832539D01*
X130677215Y-60832617D01*
X130677286Y-60832676D01*
X130678447Y-60833853D01*
X131421483Y-61576889D01*
X130136570Y-62861803D01*
X130136570Y-61540320D01*
X130136570Y-61309320D01*
X130136570Y-59890084D01*
X130122966Y-59821692D01*
X130096281Y-59757268D01*
X130057540Y-59699288D01*
X130008232Y-59649980D01*
X129950252Y-59611239D01*
X129885828Y-59584554D01*
X129817436Y-59570950D01*
X129747704Y-59570950D01*
X129147500Y-59570950D01*
X129059000Y-59659450D01*
X129059000Y-61397820D01*
X130048070Y-61397820D01*
X130136570Y-61309320D01*
X130136570Y-61540320D01*
X130048070Y-61451820D01*
X129059000Y-61451820D01*
X129059000Y-63190190D01*
X129147500Y-63278690D01*
X129719683Y-63278690D01*
X129477398Y-63520975D01*
X129005000Y-63520975D01*
X129005000Y-63190190D01*
X129005000Y-61451820D01*
X129005000Y-61397820D01*
X129005000Y-59659450D01*
X128916500Y-59570950D01*
X128386000Y-59570950D01*
X128386000Y-57527666D01*
X128386000Y-57457934D01*
X128386000Y-56808300D01*
X128297500Y-56719800D01*
X127059000Y-56719800D01*
X127059000Y-57758300D01*
X127147500Y-57846800D01*
X128066866Y-57846800D01*
X128135258Y-57833196D01*
X128199682Y-57806511D01*
X128257662Y-57767770D01*
X128306970Y-57718462D01*
X128345711Y-57660482D01*
X128372396Y-57596058D01*
X128386000Y-57527666D01*
X128386000Y-59570950D01*
X128316296Y-59570950D01*
X128246564Y-59570950D01*
X128178172Y-59584554D01*
X128113748Y-59611239D01*
X128055768Y-59649980D01*
X128006460Y-59699288D01*
X127967719Y-59757268D01*
X127941034Y-59821692D01*
X127927430Y-59890084D01*
X127927430Y-61309320D01*
X128015930Y-61397820D01*
X129005000Y-61397820D01*
X129005000Y-61451820D01*
X128015930Y-61451820D01*
X127927430Y-61540320D01*
X127927430Y-62959556D01*
X127941034Y-63027948D01*
X127967719Y-63092372D01*
X128006460Y-63150352D01*
X128055768Y-63199660D01*
X128113748Y-63238401D01*
X128178172Y-63265086D01*
X128246564Y-63278690D01*
X128316296Y-63278690D01*
X128916500Y-63278690D01*
X129005000Y-63190190D01*
X129005000Y-63520975D01*
X128281430Y-63520975D01*
X128216521Y-63526250D01*
X128108806Y-63559932D01*
X128014700Y-63622232D01*
X127941624Y-63708238D01*
X127895339Y-63811169D01*
X127879495Y-63922910D01*
X127879495Y-64966568D01*
X127850144Y-64982174D01*
X127809110Y-65003444D01*
X127807053Y-65005085D01*
X127804734Y-65006319D01*
X127768945Y-65035507D01*
X127732848Y-65064325D01*
X127729190Y-65067932D01*
X127729113Y-65067995D01*
X127729053Y-65068066D01*
X127727877Y-65069227D01*
X127005000Y-65792103D01*
X127005000Y-57758300D01*
X127005000Y-56719800D01*
X125766500Y-56719800D01*
X125678000Y-56808300D01*
X125678000Y-57457934D01*
X125678000Y-57527666D01*
X125691604Y-57596058D01*
X125718289Y-57660482D01*
X125757030Y-57718462D01*
X125806338Y-57767770D01*
X125864318Y-57806511D01*
X125928742Y-57833196D01*
X125997134Y-57846800D01*
X126916500Y-57846800D01*
X127005000Y-57758300D01*
X127005000Y-65792103D01*
X126318954Y-66478149D01*
X126320547Y-66364087D01*
X126278704Y-66152762D01*
X126196611Y-65953590D01*
X126077395Y-65774157D01*
X125925598Y-65621296D01*
X125747001Y-65500831D01*
X125548407Y-65417349D01*
X125337380Y-65374032D01*
X125121958Y-65372528D01*
X124910347Y-65412895D01*
X124710607Y-65493595D01*
X124530345Y-65611555D01*
X124376429Y-65762281D01*
X124254720Y-65940033D01*
X124241104Y-65971800D01*
X122663023Y-65971800D01*
X122640771Y-65895209D01*
X122559905Y-65739200D01*
X122450273Y-65601868D01*
X122441447Y-65592917D01*
X122079751Y-65231221D01*
X121943963Y-65119684D01*
X121884328Y-65087708D01*
X121933468Y-65062237D01*
X122070800Y-64952606D01*
X122079751Y-64943779D01*
X122441447Y-64582083D01*
X122552983Y-64446295D01*
X122560755Y-64431800D01*
X124238446Y-64431800D01*
X124240249Y-64436352D01*
X124356947Y-64617432D01*
X124506596Y-64772397D01*
X124683493Y-64895344D01*
X124880902Y-64981590D01*
X125091304Y-65027850D01*
X125306684Y-65032362D01*
X125518838Y-64994953D01*
X125719685Y-64917050D01*
X125901576Y-64801618D01*
X126057582Y-64653055D01*
X126181762Y-64477020D01*
X126269384Y-64280218D01*
X126317111Y-64070145D01*
X126320547Y-63824087D01*
X126279494Y-63616751D01*
X126279494Y-61406328D01*
X126262008Y-61199743D01*
X126204557Y-61000537D01*
X126109345Y-60816368D01*
X126093202Y-60792209D01*
X125926078Y-60725906D01*
X125887894Y-60764090D01*
X125887894Y-60687722D01*
X125821591Y-60520598D01*
X125640107Y-60420363D01*
X125442556Y-60357460D01*
X125236528Y-60334306D01*
X125029943Y-60351792D01*
X124830737Y-60409243D01*
X124646568Y-60504455D01*
X124622409Y-60520598D01*
X124556106Y-60687722D01*
X125222000Y-61353616D01*
X125887894Y-60687722D01*
X125887894Y-60764090D01*
X125260184Y-61391800D01*
X125926078Y-62057694D01*
X126093202Y-61991391D01*
X126193437Y-61809907D01*
X126256340Y-61612356D01*
X126279494Y-61406328D01*
X126279494Y-63616751D01*
X126278704Y-63612762D01*
X126196611Y-63413590D01*
X126077395Y-63234157D01*
X125925598Y-63081296D01*
X125887894Y-63055864D01*
X125887894Y-62095878D01*
X125222000Y-61429984D01*
X125183816Y-61468168D01*
X125183816Y-61391800D01*
X124517922Y-60725906D01*
X124350798Y-60792209D01*
X124250563Y-60973693D01*
X124187660Y-61171244D01*
X124164506Y-61377272D01*
X124181992Y-61583857D01*
X124239443Y-61783063D01*
X124334655Y-61967232D01*
X124350798Y-61991391D01*
X124517922Y-62057694D01*
X125183816Y-61391800D01*
X125183816Y-61468168D01*
X124556106Y-62095878D01*
X124622409Y-62263002D01*
X124803893Y-62363237D01*
X125001444Y-62426140D01*
X125207472Y-62449294D01*
X125414057Y-62431808D01*
X125613263Y-62374357D01*
X125797432Y-62279145D01*
X125821591Y-62263002D01*
X125887894Y-62095878D01*
X125887894Y-63055864D01*
X125747001Y-62960831D01*
X125548407Y-62877349D01*
X125337380Y-62834032D01*
X125121958Y-62832528D01*
X124910347Y-62872895D01*
X124710607Y-62953595D01*
X124530345Y-63071555D01*
X124376429Y-63222281D01*
X124254720Y-63400033D01*
X124241104Y-63431800D01*
X123505000Y-63431800D01*
X123505000Y-62013666D01*
X123505000Y-61094300D01*
X123505000Y-60863300D01*
X123505000Y-59943934D01*
X123491396Y-59875542D01*
X123464711Y-59811118D01*
X123425970Y-59753138D01*
X123376662Y-59703830D01*
X123318682Y-59665089D01*
X123254258Y-59638404D01*
X123185866Y-59624800D01*
X123116134Y-59624800D01*
X122416500Y-59624800D01*
X122328000Y-59713300D01*
X122328000Y-60951800D01*
X123416500Y-60951800D01*
X123505000Y-60863300D01*
X123505000Y-61094300D01*
X123416500Y-61005800D01*
X122328000Y-61005800D01*
X122328000Y-62244300D01*
X122416500Y-62332800D01*
X123116134Y-62332800D01*
X123185866Y-62332800D01*
X123254258Y-62319196D01*
X123318682Y-62292511D01*
X123376662Y-62253770D01*
X123425970Y-62204462D01*
X123464711Y-62146482D01*
X123491396Y-62082058D01*
X123505000Y-62013666D01*
X123505000Y-63431800D01*
X122541904Y-63431800D01*
X122445876Y-63313214D01*
X122310871Y-63200732D01*
X122274000Y-63180629D01*
X122274000Y-62244300D01*
X122274000Y-61005800D01*
X122274000Y-60951800D01*
X122274000Y-59713300D01*
X122185500Y-59624800D01*
X121485866Y-59624800D01*
X121416134Y-59624800D01*
X121347742Y-59638404D01*
X121283318Y-59665089D01*
X121225338Y-59703830D01*
X121176030Y-59753138D01*
X121137289Y-59811118D01*
X121110604Y-59875542D01*
X121097000Y-59943934D01*
X121097000Y-60863300D01*
X121185500Y-60951800D01*
X122274000Y-60951800D01*
X122274000Y-61005800D01*
X121185500Y-61005800D01*
X121097000Y-61094300D01*
X121097000Y-62013666D01*
X121110604Y-62082058D01*
X121137289Y-62146482D01*
X121176030Y-62204462D01*
X121225338Y-62253770D01*
X121283318Y-62292511D01*
X121347742Y-62319196D01*
X121416134Y-62332800D01*
X121485866Y-62332800D01*
X122185500Y-62332800D01*
X122274000Y-62244300D01*
X122274000Y-63180629D01*
X122156589Y-63116614D01*
X121988906Y-63064066D01*
X121814210Y-63045087D01*
X121639155Y-63060403D01*
X121470409Y-63109429D01*
X121314400Y-63190295D01*
X121177068Y-63299927D01*
X121168117Y-63308753D01*
X120806421Y-63670449D01*
X120694884Y-63806237D01*
X120611846Y-63961102D01*
X120560469Y-64129147D01*
X120542711Y-64303972D01*
X120559248Y-64478915D01*
X120609451Y-64647314D01*
X120691405Y-64802756D01*
X120801992Y-64939318D01*
X120936997Y-65051801D01*
X121002186Y-65087343D01*
X120947444Y-65116205D01*
X120810882Y-65226792D01*
X120698399Y-65361797D01*
X120614282Y-65516079D01*
X120561733Y-65683762D01*
X120542755Y-65858457D01*
X120558070Y-66033512D01*
X120607096Y-66202258D01*
X120687963Y-66358268D01*
X120797594Y-66495600D01*
X120806421Y-66504551D01*
X121168117Y-66866247D01*
X121303905Y-66977783D01*
X121458770Y-67060822D01*
X121626815Y-67112199D01*
X121801639Y-67129956D01*
X121976583Y-67113419D01*
X122144982Y-67063217D01*
X122300423Y-66981262D01*
X122312107Y-66971800D01*
X122884210Y-66971800D01*
X122853555Y-66974805D01*
X122807523Y-66978833D01*
X122804998Y-66979566D01*
X122802382Y-66979823D01*
X122758175Y-66993169D01*
X122713815Y-67006058D01*
X122711479Y-67007268D01*
X122708964Y-67008028D01*
X122668213Y-67029695D01*
X122627179Y-67050965D01*
X122625122Y-67052606D01*
X122622803Y-67053840D01*
X122587014Y-67083028D01*
X122550917Y-67111846D01*
X122547259Y-67115453D01*
X122547182Y-67115516D01*
X122547122Y-67115587D01*
X122545946Y-67116748D01*
X121302519Y-68360174D01*
X121300660Y-68337291D01*
X121266978Y-68229576D01*
X121204678Y-68135470D01*
X121118672Y-68062394D01*
X121015741Y-68016109D01*
X120904000Y-68000265D01*
X118872000Y-68000265D01*
X118807091Y-68005540D01*
X118699376Y-68039222D01*
X118605270Y-68101522D01*
X118532194Y-68187528D01*
X118485909Y-68290459D01*
X118470065Y-68402200D01*
X118470065Y-70129400D01*
X118475340Y-70194309D01*
X118509022Y-70302024D01*
X118571322Y-70396130D01*
X118657328Y-70469206D01*
X118760259Y-70515491D01*
X118872000Y-70531335D01*
X120904000Y-70531335D01*
X120968909Y-70526060D01*
X121076624Y-70492378D01*
X121170730Y-70430078D01*
X121243806Y-70344072D01*
X121290091Y-70241141D01*
X121305935Y-70129400D01*
X121305935Y-69722011D01*
X121335285Y-69706405D01*
X121376320Y-69685136D01*
X121378376Y-69683494D01*
X121380696Y-69682261D01*
X121416484Y-69653072D01*
X121452582Y-69624255D01*
X121456239Y-69620647D01*
X121456317Y-69620585D01*
X121456376Y-69620513D01*
X121457553Y-69619353D01*
X123106605Y-67970301D01*
X124867265Y-67970301D01*
X124710607Y-68033595D01*
X124530345Y-68151555D01*
X124376429Y-68302281D01*
X124254720Y-68480033D01*
X124169854Y-68678040D01*
X124125064Y-68888759D01*
X124122056Y-69104165D01*
X124160945Y-69316053D01*
X124175040Y-69351653D01*
X122220893Y-71305800D01*
X121204910Y-71305800D01*
X121104586Y-71113899D01*
X120950059Y-70921705D01*
X120761143Y-70763187D01*
X120545036Y-70644381D01*
X120309968Y-70569813D01*
X120064894Y-70542323D01*
X120047251Y-70542200D01*
X119728749Y-70542200D01*
X119483314Y-70566265D01*
X119247228Y-70637544D01*
X119029483Y-70753321D01*
X118838373Y-70909186D01*
X118681177Y-71099204D01*
X118563883Y-71316135D01*
X118503267Y-71511953D01*
X116598601Y-69607287D01*
X116598601Y-67254401D01*
X116594091Y-67208412D01*
X116590069Y-67162425D01*
X116589335Y-67159900D01*
X116589079Y-67157284D01*
X116575732Y-67113077D01*
X116562844Y-67068717D01*
X116561633Y-67066381D01*
X116560874Y-67063866D01*
X116539185Y-67023076D01*
X116517936Y-66982081D01*
X116516297Y-66980028D01*
X116515062Y-66977705D01*
X116485870Y-66941913D01*
X116457056Y-66905818D01*
X116453444Y-66902155D01*
X116453386Y-66902084D01*
X116453319Y-66902029D01*
X116452154Y-66900847D01*
X108746076Y-59194770D01*
X108812905Y-58978882D01*
X108838683Y-58733622D01*
X108838683Y-56193622D01*
X108838683Y-53653622D01*
X108816332Y-53408025D01*
X108746704Y-53171447D01*
X108632449Y-52952899D01*
X108477922Y-52760705D01*
X108289006Y-52602187D01*
X108072899Y-52483381D01*
X107837831Y-52408813D01*
X107592757Y-52381323D01*
X107575114Y-52381200D01*
X107562886Y-52381200D01*
X107317451Y-52405265D01*
X107081365Y-52476544D01*
X106863620Y-52592321D01*
X106672510Y-52748186D01*
X106515314Y-52938204D01*
X106398020Y-53155135D01*
X106325095Y-53390718D01*
X106299317Y-53635978D01*
X106321668Y-53881575D01*
X106391296Y-54118153D01*
X106505551Y-54336701D01*
X106660078Y-54528895D01*
X106848994Y-54687413D01*
X107065101Y-54806219D01*
X107300169Y-54880787D01*
X107545243Y-54908277D01*
X107562886Y-54908400D01*
X107575114Y-54908400D01*
X107820549Y-54884335D01*
X108056635Y-54813056D01*
X108274380Y-54697279D01*
X108465490Y-54541414D01*
X108622686Y-54351396D01*
X108739980Y-54134465D01*
X108812905Y-53898882D01*
X108838683Y-53653622D01*
X108838683Y-56193622D01*
X108816332Y-55948025D01*
X108746704Y-55711447D01*
X108632449Y-55492899D01*
X108477922Y-55300705D01*
X108289006Y-55142187D01*
X108072899Y-55023381D01*
X107837831Y-54948813D01*
X107592757Y-54921323D01*
X107575114Y-54921200D01*
X107562886Y-54921200D01*
X107317451Y-54945265D01*
X107081365Y-55016544D01*
X106863620Y-55132321D01*
X106672510Y-55288186D01*
X106515314Y-55478204D01*
X106398020Y-55695135D01*
X106325095Y-55930718D01*
X106299317Y-56175978D01*
X106321668Y-56421575D01*
X106391296Y-56658153D01*
X106505551Y-56876701D01*
X106660078Y-57068895D01*
X106848994Y-57227413D01*
X107065101Y-57346219D01*
X107300169Y-57420787D01*
X107545243Y-57448277D01*
X107562886Y-57448400D01*
X107575114Y-57448400D01*
X107820549Y-57424335D01*
X108056635Y-57353056D01*
X108274380Y-57237279D01*
X108465490Y-57081414D01*
X108622686Y-56891396D01*
X108739980Y-56674465D01*
X108812905Y-56438882D01*
X108838683Y-56193622D01*
X108838683Y-58733622D01*
X108816332Y-58488025D01*
X108746704Y-58251447D01*
X108632449Y-58032899D01*
X108477922Y-57840705D01*
X108289006Y-57682187D01*
X108072899Y-57563381D01*
X107837831Y-57488813D01*
X107592757Y-57461323D01*
X107575114Y-57461200D01*
X107562886Y-57461200D01*
X107317451Y-57485265D01*
X107081365Y-57556544D01*
X106863620Y-57672321D01*
X106672510Y-57828186D01*
X106515314Y-58018204D01*
X106398020Y-58235135D01*
X106325095Y-58470718D01*
X106299317Y-58715978D01*
X106321668Y-58961575D01*
X106391296Y-59198153D01*
X106505551Y-59416701D01*
X106660078Y-59608895D01*
X106848994Y-59767413D01*
X107065101Y-59886219D01*
X107300169Y-59960787D01*
X107545243Y-59988277D01*
X107562886Y-59988400D01*
X107575114Y-59988400D01*
X107820549Y-59964335D01*
X108036291Y-59899197D01*
X115598601Y-67461507D01*
X115598601Y-69117865D01*
X114071400Y-69117865D01*
X114006491Y-69123140D01*
X113898776Y-69156822D01*
X113804670Y-69219122D01*
X113731594Y-69305128D01*
X113685309Y-69408059D01*
X113669465Y-69519800D01*
X113669465Y-71255558D01*
X113568538Y-71154631D01*
X113630987Y-70957768D01*
X113658477Y-70712694D01*
X113658600Y-70695051D01*
X113658600Y-70376549D01*
X113634535Y-70131114D01*
X113563256Y-69895028D01*
X113447479Y-69677283D01*
X113291614Y-69486173D01*
X113101596Y-69328977D01*
X112884665Y-69211683D01*
X112649082Y-69138758D01*
X112403822Y-69112980D01*
X112158225Y-69135331D01*
X111921647Y-69204959D01*
X111703099Y-69319214D01*
X111510905Y-69473741D01*
X111352387Y-69662657D01*
X111233581Y-69878764D01*
X111159013Y-70113832D01*
X111131523Y-70358906D01*
X111131400Y-70376549D01*
X111131400Y-70695051D01*
X111155465Y-70940486D01*
X111226744Y-71176572D01*
X111342521Y-71394317D01*
X111498386Y-71585427D01*
X111688404Y-71742623D01*
X111905335Y-71859917D01*
X112140918Y-71932842D01*
X112386178Y-71958620D01*
X112631775Y-71936269D01*
X112866793Y-71867099D01*
X116862657Y-75862964D01*
X116898358Y-75892289D01*
X116933726Y-75921967D01*
X116936029Y-75923233D01*
X116938062Y-75924903D01*
X116978751Y-75946719D01*
X117019239Y-75968978D01*
X117021748Y-75969774D01*
X117024063Y-75971015D01*
X117068198Y-75984508D01*
X117112254Y-75998484D01*
X117114867Y-75998777D01*
X117117382Y-75999546D01*
X117163352Y-76004215D01*
X117209229Y-76009361D01*
X117214367Y-76009397D01*
X117214465Y-76009407D01*
X117214556Y-76009398D01*
X117216210Y-76009410D01*
X118895731Y-76009410D01*
X118855535Y-76043918D01*
X118708202Y-76231787D01*
X118600352Y-76444789D01*
X118537510Y-76668705D01*
X118606823Y-76858800D01*
X119861000Y-76858800D01*
X119861000Y-76838800D01*
X119915000Y-76838800D01*
X119915000Y-76858800D01*
X121169177Y-76858800D01*
X121238490Y-76668705D01*
X121175648Y-76444789D01*
X121067798Y-76231787D01*
X120920465Y-76043918D01*
X120880268Y-76009410D01*
X121914692Y-76009410D01*
X121960635Y-76004905D01*
X122006668Y-76000878D01*
X122009192Y-76000144D01*
X122011809Y-75999888D01*
X122056015Y-75986541D01*
X122100376Y-75973653D01*
X122102711Y-75972442D01*
X122105227Y-75971683D01*
X122145977Y-75950015D01*
X122187012Y-75928746D01*
X122189068Y-75927104D01*
X122191388Y-75925871D01*
X122227176Y-75896682D01*
X122263274Y-75867865D01*
X122266931Y-75864257D01*
X122267009Y-75864195D01*
X122267068Y-75864123D01*
X122268245Y-75862963D01*
X122540907Y-75590301D01*
X124867265Y-75590301D01*
X124710607Y-75653595D01*
X124530345Y-75771555D01*
X124376429Y-75922281D01*
X124254720Y-76100033D01*
X124169854Y-76298040D01*
X124125064Y-76508759D01*
X124122056Y-76724165D01*
X124160945Y-76936053D01*
X124240249Y-77136352D01*
X124356947Y-77317432D01*
X124506596Y-77472397D01*
X124683493Y-77595344D01*
X124861924Y-77673299D01*
X120963113Y-77673299D01*
X121067798Y-77539813D01*
X121175648Y-77326811D01*
X121238490Y-77102895D01*
X121169177Y-76912800D01*
X119915000Y-76912800D01*
X119915000Y-76932800D01*
X119861000Y-76932800D01*
X119861000Y-76912800D01*
X118606823Y-76912800D01*
X118537510Y-77102895D01*
X118600352Y-77326811D01*
X118708202Y-77539813D01*
X118812886Y-77673299D01*
X117953605Y-77673299D01*
X116523182Y-76242876D01*
X116524030Y-76182161D01*
X116497366Y-76047499D01*
X116445054Y-75920580D01*
X116369086Y-75806239D01*
X116272356Y-75708831D01*
X116158548Y-75632067D01*
X116031997Y-75578870D01*
X115897524Y-75551266D01*
X115760250Y-75550308D01*
X115625405Y-75576031D01*
X115498124Y-75627456D01*
X115383255Y-75702624D01*
X115285174Y-75798672D01*
X115207617Y-75911941D01*
X115153538Y-76038117D01*
X115124997Y-76172394D01*
X115123080Y-76309658D01*
X115147861Y-76444680D01*
X115198396Y-76572317D01*
X115272760Y-76687707D01*
X115368121Y-76786456D01*
X115480846Y-76864802D01*
X115606641Y-76919761D01*
X115740716Y-76949239D01*
X115816929Y-76950835D01*
X117392945Y-78526852D01*
X117428615Y-78556151D01*
X117464015Y-78585856D01*
X117466321Y-78587124D01*
X117468351Y-78588791D01*
X117509020Y-78610597D01*
X117549528Y-78632867D01*
X117552035Y-78633662D01*
X117554351Y-78634904D01*
X117598514Y-78648406D01*
X117642543Y-78662373D01*
X117645154Y-78662665D01*
X117647670Y-78663435D01*
X117693646Y-78668104D01*
X117739518Y-78673250D01*
X117744656Y-78673286D01*
X117744754Y-78673296D01*
X117744845Y-78673287D01*
X117746499Y-78673299D01*
X124240462Y-78673299D01*
X124169854Y-78838040D01*
X124125064Y-79048759D01*
X124122056Y-79264165D01*
X124141535Y-79370299D01*
X113876435Y-79370299D01*
X113876435Y-77330300D01*
X113876435Y-75933300D01*
X113871160Y-75868391D01*
X113837478Y-75760676D01*
X113775178Y-75666570D01*
X113689172Y-75593494D01*
X113586241Y-75547209D01*
X113474500Y-75531365D01*
X112077500Y-75531365D01*
X112012591Y-75536640D01*
X111904876Y-75570322D01*
X111810770Y-75632622D01*
X111737694Y-75718628D01*
X111691409Y-75821559D01*
X111675565Y-75933300D01*
X111675565Y-77330300D01*
X111680840Y-77395209D01*
X111714522Y-77502924D01*
X111776822Y-77597030D01*
X111862828Y-77670106D01*
X111965759Y-77716391D01*
X112077500Y-77732235D01*
X113474500Y-77732235D01*
X113539409Y-77726960D01*
X113647124Y-77693278D01*
X113741230Y-77630978D01*
X113814306Y-77544972D01*
X113860591Y-77442041D01*
X113876435Y-77330300D01*
X113876435Y-79370299D01*
X113857444Y-79370299D01*
X113871111Y-79310145D01*
X113874547Y-79064087D01*
X113832704Y-78852762D01*
X113750611Y-78653590D01*
X113631395Y-78474157D01*
X113479598Y-78321296D01*
X113301001Y-78200831D01*
X113102407Y-78117349D01*
X112891380Y-78074032D01*
X112675958Y-78072528D01*
X112464347Y-78112895D01*
X112264607Y-78193595D01*
X112084345Y-78311555D01*
X111930429Y-78462281D01*
X111808720Y-78640033D01*
X111723854Y-78838040D01*
X111679064Y-79048759D01*
X111676056Y-79264165D01*
X111714945Y-79476053D01*
X111794249Y-79676352D01*
X111910947Y-79857432D01*
X112060596Y-80012397D01*
X112237493Y-80135344D01*
X112434902Y-80221590D01*
X112645304Y-80267850D01*
X112860684Y-80272362D01*
X113072838Y-80234953D01*
X113115498Y-80218405D01*
X113120946Y-80223853D01*
X113156647Y-80253178D01*
X113192015Y-80282856D01*
X113194318Y-80284122D01*
X113196351Y-80285792D01*
X113237059Y-80307619D01*
X113277528Y-80329867D01*
X113280035Y-80330662D01*
X113282351Y-80331904D01*
X113326514Y-80345406D01*
X113370543Y-80359373D01*
X113373154Y-80359665D01*
X113375670Y-80360435D01*
X113421646Y-80365104D01*
X113467518Y-80370250D01*
X113472656Y-80370286D01*
X113472754Y-80370296D01*
X113472845Y-80370287D01*
X113474499Y-80370299D01*
X124523501Y-80370299D01*
X124569444Y-80365794D01*
X124615477Y-80361767D01*
X124618001Y-80361033D01*
X124620618Y-80360777D01*
X124664824Y-80347430D01*
X124709185Y-80334542D01*
X124711520Y-80333331D01*
X124714036Y-80332572D01*
X124754786Y-80310904D01*
X124795821Y-80289635D01*
X124797877Y-80287993D01*
X124800197Y-80286760D01*
X124835985Y-80257571D01*
X124872083Y-80228754D01*
X124875740Y-80225146D01*
X124875818Y-80225084D01*
X124875877Y-80225012D01*
X124877054Y-80223852D01*
X124879798Y-80221107D01*
X124880902Y-80221590D01*
X125091304Y-80267850D01*
X125306684Y-80272362D01*
X125518838Y-80234953D01*
X125719685Y-80157050D01*
X125901576Y-80041618D01*
X126057582Y-79893055D01*
X126181762Y-79717020D01*
X126269384Y-79520218D01*
X126282659Y-79461784D01*
X127262000Y-80441124D01*
X127262000Y-82237650D01*
X127223174Y-82275672D01*
X127145617Y-82388941D01*
X127091538Y-82515117D01*
X127062997Y-82649394D01*
X127061080Y-82786658D01*
X127085861Y-82921680D01*
X127136396Y-83049317D01*
X127210760Y-83164707D01*
X127306121Y-83263456D01*
X127418846Y-83341802D01*
X127544641Y-83396761D01*
X127678716Y-83426239D01*
X127815963Y-83429114D01*
X127951155Y-83405276D01*
X128079141Y-83355633D01*
X128195048Y-83282077D01*
X128294460Y-83187408D01*
X128373591Y-83075232D01*
X128429427Y-82949823D01*
X128459841Y-82815958D01*
X128462030Y-82659161D01*
X128435366Y-82524499D01*
X128383054Y-82397580D01*
X128307086Y-82283239D01*
X128262000Y-82237836D01*
X128262000Y-81636800D01*
X128266866Y-81636800D01*
X128916500Y-81636800D01*
X129005000Y-81548300D01*
X129005000Y-80309800D01*
X128985000Y-80309800D01*
X128985000Y-80255800D01*
X129005000Y-80255800D01*
X129005000Y-79017300D01*
X128916500Y-78928800D01*
X128266866Y-78928800D01*
X128197134Y-78928800D01*
X128128742Y-78942404D01*
X128064318Y-78969089D01*
X128006338Y-79007830D01*
X127957030Y-79057138D01*
X127918289Y-79115118D01*
X127891604Y-79179542D01*
X127878000Y-79247934D01*
X127878000Y-79642911D01*
X126054834Y-77819746D01*
X126019189Y-77790466D01*
X125983765Y-77760742D01*
X125981458Y-77759473D01*
X125979429Y-77757807D01*
X125938759Y-77736000D01*
X125898252Y-77713731D01*
X125895744Y-77712935D01*
X125893429Y-77711694D01*
X125849265Y-77698191D01*
X125805237Y-77684225D01*
X125802625Y-77683932D01*
X125800110Y-77683163D01*
X125754133Y-77678493D01*
X125708262Y-77673348D01*
X125703123Y-77673311D01*
X125703026Y-77673302D01*
X125702934Y-77673310D01*
X125701281Y-77673299D01*
X125574665Y-77673299D01*
X125719685Y-77617050D01*
X125901576Y-77501618D01*
X126057582Y-77353055D01*
X126181762Y-77177020D01*
X126269384Y-76980218D01*
X126317111Y-76770145D01*
X126320547Y-76524087D01*
X126278704Y-76312762D01*
X126196611Y-76113590D01*
X126077395Y-75934157D01*
X125925598Y-75781296D01*
X125747001Y-75660831D01*
X125579218Y-75590301D01*
X125701281Y-75590301D01*
X125747224Y-75585796D01*
X125793257Y-75581769D01*
X125795781Y-75581035D01*
X125798398Y-75580779D01*
X125842604Y-75567432D01*
X125886965Y-75554544D01*
X125889300Y-75553333D01*
X125891816Y-75552574D01*
X125932566Y-75530906D01*
X125973601Y-75509637D01*
X125975657Y-75507995D01*
X125977977Y-75506762D01*
X126013765Y-75477573D01*
X126049863Y-75448756D01*
X126053520Y-75445148D01*
X126053598Y-75445086D01*
X126053657Y-75445014D01*
X126054834Y-75443854D01*
X127780065Y-73718623D01*
X127780065Y-74297800D01*
X127785340Y-74362709D01*
X127819022Y-74470424D01*
X127881322Y-74564530D01*
X127967328Y-74637606D01*
X128070259Y-74683891D01*
X128182000Y-74699735D01*
X128532000Y-74699735D01*
X128532000Y-74880865D01*
X128232000Y-74880865D01*
X128167091Y-74886140D01*
X128059376Y-74919822D01*
X127965270Y-74982122D01*
X127892194Y-75068128D01*
X127845909Y-75171059D01*
X127830065Y-75282800D01*
X127830065Y-77282800D01*
X127835340Y-77347709D01*
X127869022Y-77455424D01*
X127931322Y-77549530D01*
X128017328Y-77622606D01*
X128120259Y-77668891D01*
X128232000Y-77684735D01*
X129832000Y-77684735D01*
X129896909Y-77679460D01*
X130004624Y-77645778D01*
X130098730Y-77583478D01*
X130171806Y-77497472D01*
X130218091Y-77394541D01*
X130233935Y-77282800D01*
X130233935Y-75282800D01*
X130228660Y-75217891D01*
X130194978Y-75110176D01*
X130132678Y-75016070D01*
X130046672Y-74942994D01*
X129943741Y-74896709D01*
X129832000Y-74880865D01*
X129532000Y-74880865D01*
X129532000Y-74699735D01*
X129882000Y-74699735D01*
X129946909Y-74694460D01*
X130054624Y-74660778D01*
X130148730Y-74598478D01*
X130221806Y-74512472D01*
X130268091Y-74409541D01*
X130283935Y-74297800D01*
X130283935Y-74206841D01*
X130710447Y-74633354D01*
X130710452Y-74633358D01*
X131442698Y-75365605D01*
X131430942Y-75379617D01*
X131429673Y-75381923D01*
X131428007Y-75383953D01*
X131406200Y-75424622D01*
X131383931Y-75465130D01*
X131383135Y-75467637D01*
X131381894Y-75469953D01*
X131368391Y-75514116D01*
X131354425Y-75558145D01*
X131354132Y-75560756D01*
X131353363Y-75563272D01*
X131348693Y-75609248D01*
X131343548Y-75655120D01*
X131343511Y-75660258D01*
X131343502Y-75660356D01*
X131343510Y-75660447D01*
X131343499Y-75662101D01*
X131343499Y-78173299D01*
X131348003Y-78219242D01*
X131352031Y-78265275D01*
X131352764Y-78267799D01*
X131353021Y-78270416D01*
X131366367Y-78314622D01*
X131379256Y-78358983D01*
X131380466Y-78361318D01*
X131381226Y-78363834D01*
X131402893Y-78404584D01*
X131424163Y-78445619D01*
X131425804Y-78447675D01*
X131427038Y-78449995D01*
X131456226Y-78485783D01*
X131485044Y-78521881D01*
X131488651Y-78525538D01*
X131488714Y-78525616D01*
X131488785Y-78525675D01*
X131489946Y-78526852D01*
X131793238Y-78830144D01*
X131789854Y-78838040D01*
X131745064Y-79048759D01*
X131742056Y-79264165D01*
X131780945Y-79476053D01*
X131860249Y-79676352D01*
X131976947Y-79857432D01*
X132126596Y-80012397D01*
X132303493Y-80135344D01*
X132500902Y-80221590D01*
X132711304Y-80267850D01*
X132926684Y-80272362D01*
X133138838Y-80234953D01*
X133339685Y-80157050D01*
X133340501Y-80156532D01*
X133340501Y-80729691D01*
X133168407Y-80657349D01*
X132957380Y-80614032D01*
X132741958Y-80612528D01*
X132530347Y-80652895D01*
X132330607Y-80733595D01*
X132150345Y-80851555D01*
X131996429Y-81002281D01*
X131874720Y-81180033D01*
X131861104Y-81211800D01*
X131826000Y-81211800D01*
X131780011Y-81216309D01*
X131734024Y-81220332D01*
X131731499Y-81221065D01*
X131728883Y-81221322D01*
X131684676Y-81234668D01*
X131640316Y-81247557D01*
X131637980Y-81248767D01*
X131635465Y-81249527D01*
X131594675Y-81271215D01*
X131553680Y-81292465D01*
X131551627Y-81294103D01*
X131549304Y-81295339D01*
X131513512Y-81324530D01*
X131477417Y-81353345D01*
X131473754Y-81356956D01*
X131473683Y-81357015D01*
X131473628Y-81357081D01*
X131472446Y-81358247D01*
X130294989Y-82535703D01*
X130238250Y-82535308D01*
X130186000Y-82545275D01*
X130186000Y-81317666D01*
X130186000Y-80398300D01*
X130186000Y-80167300D01*
X130186000Y-79247934D01*
X130172396Y-79179542D01*
X130145711Y-79115118D01*
X130106970Y-79057138D01*
X130057662Y-79007830D01*
X129999682Y-78969089D01*
X129935258Y-78942404D01*
X129866866Y-78928800D01*
X129797134Y-78928800D01*
X129147500Y-78928800D01*
X129059000Y-79017300D01*
X129059000Y-80255800D01*
X130097500Y-80255800D01*
X130186000Y-80167300D01*
X130186000Y-80398300D01*
X130097500Y-80309800D01*
X129059000Y-80309800D01*
X129059000Y-81548300D01*
X129147500Y-81636800D01*
X129797134Y-81636800D01*
X129866866Y-81636800D01*
X129935258Y-81623196D01*
X129999682Y-81596511D01*
X130057662Y-81557770D01*
X130106970Y-81508462D01*
X130145711Y-81450482D01*
X130172396Y-81386058D01*
X130186000Y-81317666D01*
X130186000Y-82545275D01*
X130103405Y-82561031D01*
X129976124Y-82612456D01*
X129861255Y-82687624D01*
X129763174Y-82783672D01*
X129685617Y-82896941D01*
X129631538Y-83023117D01*
X129602997Y-83157394D01*
X129601080Y-83294658D01*
X129625861Y-83429680D01*
X129659100Y-83513632D01*
X129531824Y-83565056D01*
X129416955Y-83640224D01*
X129318874Y-83736272D01*
X129241317Y-83849541D01*
X129187238Y-83975717D01*
X129158697Y-84109994D01*
X129156780Y-84247258D01*
X129181561Y-84382280D01*
X129232096Y-84509917D01*
X129306460Y-84625307D01*
X129401821Y-84724056D01*
X129514546Y-84802402D01*
X129640341Y-84857361D01*
X129774416Y-84886839D01*
X129850629Y-84888435D01*
X131886857Y-86924664D01*
X131922558Y-86953989D01*
X131957926Y-86983667D01*
X131960229Y-86984933D01*
X131962262Y-86986603D01*
X132002970Y-87008430D01*
X132043439Y-87030678D01*
X132045946Y-87031473D01*
X132048262Y-87032715D01*
X132092425Y-87046217D01*
X132136454Y-87060184D01*
X132139065Y-87060476D01*
X132141581Y-87061246D01*
X132187557Y-87065915D01*
X132233429Y-87071061D01*
X132238567Y-87071097D01*
X132238665Y-87071107D01*
X132238756Y-87071098D01*
X132240410Y-87071110D01*
X134023542Y-87071110D01*
X133883077Y-87240904D01*
X133765783Y-87457835D01*
X133692858Y-87693418D01*
X133667080Y-87938678D01*
X133689431Y-88184275D01*
X133759059Y-88420853D01*
X133873314Y-88639401D01*
X134027841Y-88831595D01*
X134216757Y-88990113D01*
X134432864Y-89108919D01*
X134667932Y-89183487D01*
X134913006Y-89210977D01*
X134930649Y-89211100D01*
X135249151Y-89211100D01*
X135494586Y-89187035D01*
X135730672Y-89115756D01*
X135948417Y-88999979D01*
X136139527Y-88844114D01*
X136296723Y-88654096D01*
X136414017Y-88437165D01*
X136464701Y-88273431D01*
X136464701Y-89466510D01*
X134986412Y-90944799D01*
X129008699Y-90944799D01*
X128962710Y-90949308D01*
X128916723Y-90953331D01*
X128914198Y-90954064D01*
X128911582Y-90954321D01*
X128867375Y-90967667D01*
X128823015Y-90980556D01*
X128820679Y-90981766D01*
X128818164Y-90982526D01*
X128777374Y-91004214D01*
X128736379Y-91025464D01*
X128734326Y-91027102D01*
X128732003Y-91028338D01*
X128696211Y-91057529D01*
X128660116Y-91086344D01*
X128656453Y-91089955D01*
X128656382Y-91090014D01*
X128656327Y-91090080D01*
X128655145Y-91091246D01*
X126677590Y-93068801D01*
X126239063Y-93068801D01*
X126304000Y-92951630D01*
X126371002Y-92742256D01*
X126395871Y-92523834D01*
X126377649Y-92304758D01*
X126317038Y-92093445D01*
X126216367Y-91898019D01*
X126197439Y-91869692D01*
X126023813Y-91795771D01*
X125985629Y-91833955D01*
X125985629Y-91757587D01*
X125911708Y-91583961D01*
X125719430Y-91477400D01*
X125510056Y-91410398D01*
X125291634Y-91385529D01*
X125072558Y-91403751D01*
X124861245Y-91464362D01*
X124665819Y-91565033D01*
X124637492Y-91583961D01*
X124563571Y-91757587D01*
X125274600Y-92468616D01*
X125985629Y-91757587D01*
X125985629Y-91833955D01*
X125312784Y-92506800D01*
X125326926Y-92520942D01*
X125288741Y-92559126D01*
X125274600Y-92544984D01*
X125260458Y-92559126D01*
X125222273Y-92520942D01*
X125236416Y-92506800D01*
X124525387Y-91795771D01*
X124351761Y-91869692D01*
X124245200Y-92061970D01*
X124178198Y-92271344D01*
X124153329Y-92489766D01*
X124171551Y-92708842D01*
X124232162Y-92920155D01*
X124308734Y-93068801D01*
X104405907Y-93068801D01*
X103965389Y-92628282D01*
X103965389Y-85246077D01*
X104467664Y-85748353D01*
X104503334Y-85777652D01*
X104538734Y-85807357D01*
X104541040Y-85808625D01*
X104543070Y-85810292D01*
X104583739Y-85832098D01*
X104624247Y-85854368D01*
X104626754Y-85855163D01*
X104629070Y-85856405D01*
X104673233Y-85869907D01*
X104717262Y-85883874D01*
X104719873Y-85884166D01*
X104722389Y-85884936D01*
X104768320Y-85889600D01*
X104814237Y-85894751D01*
X104819385Y-85894787D01*
X104819473Y-85894796D01*
X104819554Y-85894788D01*
X104821218Y-85894800D01*
X119905688Y-85894800D01*
X119940121Y-85930456D01*
X120052846Y-86008802D01*
X120178641Y-86063761D01*
X120312716Y-86093239D01*
X120449963Y-86096114D01*
X120585155Y-86072276D01*
X120713141Y-86022633D01*
X120829048Y-85949077D01*
X120928460Y-85854408D01*
X121007591Y-85742232D01*
X121063427Y-85616823D01*
X121093841Y-85482958D01*
X121096030Y-85326161D01*
X121069366Y-85191499D01*
X121017054Y-85064580D01*
X120941086Y-84950239D01*
X120844356Y-84852831D01*
X120730548Y-84776067D01*
X120672818Y-84751800D01*
X124238446Y-84751800D01*
X124240249Y-84756352D01*
X124356947Y-84937432D01*
X124506596Y-85092397D01*
X124683493Y-85215344D01*
X124880902Y-85301590D01*
X125091304Y-85347850D01*
X125306684Y-85352362D01*
X125518838Y-85314953D01*
X125719685Y-85237050D01*
X125901576Y-85121618D01*
X126057582Y-84973055D01*
X126181762Y-84797020D01*
X126269384Y-84600218D01*
X126317111Y-84390145D01*
X126320547Y-84144087D01*
X126320547Y-81604087D01*
X126278704Y-81392762D01*
X126196611Y-81193590D01*
X126077395Y-81014157D01*
X125925598Y-80861296D01*
X125747001Y-80740831D01*
X125548407Y-80657349D01*
X125337380Y-80614032D01*
X125121958Y-80612528D01*
X124910347Y-80652895D01*
X124710607Y-80733595D01*
X124530345Y-80851555D01*
X124376429Y-81002281D01*
X124254720Y-81180033D01*
X124241104Y-81211800D01*
X113758116Y-81211800D01*
X113750611Y-81193590D01*
X113631395Y-81014157D01*
X113479598Y-80861296D01*
X113301001Y-80740831D01*
X113102407Y-80657349D01*
X112891380Y-80614032D01*
X112675958Y-80612528D01*
X112464347Y-80652895D01*
X112264607Y-80733595D01*
X112084345Y-80851555D01*
X111930429Y-81002281D01*
X111808720Y-81180033D01*
X111723854Y-81378040D01*
X111679064Y-81588759D01*
X111676056Y-81804165D01*
X111714945Y-82016053D01*
X111794249Y-82216352D01*
X111910947Y-82397432D01*
X112060596Y-82552397D01*
X112237493Y-82675344D01*
X112434902Y-82761590D01*
X112645304Y-82807850D01*
X112860684Y-82812362D01*
X113072838Y-82774953D01*
X113273685Y-82697050D01*
X113455576Y-82581618D01*
X113611582Y-82433055D01*
X113735762Y-82257020D01*
X113755895Y-82211800D01*
X124238446Y-82211800D01*
X124240249Y-82216352D01*
X124356947Y-82397432D01*
X124506596Y-82552397D01*
X124683493Y-82675344D01*
X124880902Y-82761590D01*
X125091304Y-82807850D01*
X125306684Y-82812362D01*
X125518838Y-82774953D01*
X125719685Y-82697050D01*
X125901576Y-82581618D01*
X126057582Y-82433055D01*
X126181762Y-82257020D01*
X126269384Y-82060218D01*
X126317111Y-81850145D01*
X126320547Y-81604087D01*
X126320547Y-84144087D01*
X126278704Y-83932762D01*
X126196611Y-83733590D01*
X126077395Y-83554157D01*
X125925598Y-83401296D01*
X125747001Y-83280831D01*
X125548407Y-83197349D01*
X125337380Y-83154032D01*
X125121958Y-83152528D01*
X124910347Y-83192895D01*
X124710607Y-83273595D01*
X124530345Y-83391555D01*
X124376429Y-83542281D01*
X124254720Y-83720033D01*
X124241104Y-83751800D01*
X113758116Y-83751800D01*
X113750611Y-83733590D01*
X113631395Y-83554157D01*
X113479598Y-83401296D01*
X113301001Y-83280831D01*
X113102407Y-83197349D01*
X112891380Y-83154032D01*
X112675958Y-83152528D01*
X112464347Y-83192895D01*
X112264607Y-83273595D01*
X112084345Y-83391555D01*
X111930429Y-83542281D01*
X111808720Y-83720033D01*
X111723854Y-83918040D01*
X111679064Y-84128759D01*
X111676056Y-84344165D01*
X111714945Y-84556053D01*
X111794249Y-84756352D01*
X111883472Y-84894800D01*
X111118600Y-84894800D01*
X111118600Y-70695051D01*
X111118600Y-70376549D01*
X111094535Y-70131114D01*
X111023256Y-69895028D01*
X110907479Y-69677283D01*
X110751614Y-69486173D01*
X110561596Y-69328977D01*
X110344665Y-69211683D01*
X110109082Y-69138758D01*
X109863822Y-69112980D01*
X109618225Y-69135331D01*
X109381647Y-69204959D01*
X109163099Y-69319214D01*
X108970905Y-69473741D01*
X108838683Y-69631318D01*
X108838683Y-61273622D01*
X108816332Y-61028025D01*
X108746704Y-60791447D01*
X108632449Y-60572899D01*
X108477922Y-60380705D01*
X108289006Y-60222187D01*
X108072899Y-60103381D01*
X107837831Y-60028813D01*
X107592757Y-60001323D01*
X107575114Y-60001200D01*
X107562886Y-60001200D01*
X107317451Y-60025265D01*
X107081365Y-60096544D01*
X106863620Y-60212321D01*
X106672510Y-60368186D01*
X106515314Y-60558204D01*
X106398020Y-60775135D01*
X106325095Y-61010718D01*
X106299317Y-61255978D01*
X106321668Y-61501575D01*
X106391296Y-61738153D01*
X106505551Y-61956701D01*
X106660078Y-62148895D01*
X106848994Y-62307413D01*
X107065101Y-62426219D01*
X107300169Y-62500787D01*
X107545243Y-62528277D01*
X107562886Y-62528400D01*
X107575114Y-62528400D01*
X107820549Y-62504335D01*
X108056635Y-62433056D01*
X108274380Y-62317279D01*
X108465490Y-62161414D01*
X108622686Y-61971396D01*
X108739980Y-61754465D01*
X108812905Y-61518882D01*
X108838683Y-61273622D01*
X108838683Y-69631318D01*
X108812387Y-69662657D01*
X108693581Y-69878764D01*
X108619013Y-70113832D01*
X108591523Y-70358906D01*
X108591400Y-70376549D01*
X108591400Y-70695051D01*
X108615465Y-70940486D01*
X108686744Y-71176572D01*
X108802521Y-71394317D01*
X108958386Y-71585427D01*
X109148404Y-71742623D01*
X109365335Y-71859917D01*
X109600918Y-71932842D01*
X109846178Y-71958620D01*
X110091775Y-71936269D01*
X110328353Y-71866641D01*
X110546901Y-71752386D01*
X110739095Y-71597859D01*
X110897613Y-71408943D01*
X111016419Y-71192836D01*
X111090987Y-70957768D01*
X111118477Y-70712694D01*
X111118600Y-70695051D01*
X111118600Y-84894800D01*
X108532600Y-84894800D01*
X108532600Y-70715200D01*
X108532600Y-70562800D01*
X108532600Y-70508800D01*
X108532600Y-70356400D01*
X108503937Y-70119377D01*
X108429584Y-69892500D01*
X108312398Y-69684488D01*
X108156882Y-69503335D01*
X107969013Y-69356002D01*
X107756011Y-69248152D01*
X107532095Y-69185310D01*
X107342000Y-69254623D01*
X107342000Y-70508800D01*
X108532600Y-70508800D01*
X108532600Y-70562800D01*
X107342000Y-70562800D01*
X107342000Y-71816977D01*
X107532095Y-71886290D01*
X107756011Y-71823448D01*
X107969013Y-71715598D01*
X108156882Y-71568265D01*
X108312398Y-71387112D01*
X108429584Y-71179100D01*
X108503937Y-70952223D01*
X108532600Y-70715200D01*
X108532600Y-84894800D01*
X107288000Y-84894800D01*
X107288000Y-71816977D01*
X107288000Y-70562800D01*
X107288000Y-70508800D01*
X107288000Y-69254623D01*
X107097905Y-69185310D01*
X106873989Y-69248152D01*
X106660987Y-69356002D01*
X106473118Y-69503335D01*
X106317602Y-69684488D01*
X106200416Y-69892500D01*
X106126063Y-70119377D01*
X106097400Y-70356400D01*
X106097400Y-70508800D01*
X107288000Y-70508800D01*
X107288000Y-70562800D01*
X106097400Y-70562800D01*
X106097400Y-70715200D01*
X106126063Y-70952223D01*
X106200416Y-71179100D01*
X106317602Y-71387112D01*
X106473118Y-71568265D01*
X106660987Y-71715598D01*
X106873989Y-71823448D01*
X107097905Y-71886290D01*
X107288000Y-71816977D01*
X107288000Y-84894800D01*
X105917784Y-84894800D01*
X106027202Y-84851391D01*
X106127437Y-84669907D01*
X106190340Y-84472356D01*
X106213494Y-84266328D01*
X106213494Y-81726328D01*
X106213494Y-79186328D01*
X106213494Y-76646328D01*
X106196008Y-76439743D01*
X106138557Y-76240537D01*
X106043345Y-76056368D01*
X106027202Y-76032209D01*
X105860078Y-75965906D01*
X105821894Y-76004090D01*
X105821894Y-75927722D01*
X105755591Y-75760598D01*
X105574107Y-75660363D01*
X105376556Y-75597460D01*
X105170528Y-75574306D01*
X104963943Y-75591792D01*
X104764737Y-75649243D01*
X104580568Y-75744455D01*
X104556409Y-75760598D01*
X104490106Y-75927722D01*
X105156000Y-76593616D01*
X105821894Y-75927722D01*
X105821894Y-76004090D01*
X105194184Y-76631800D01*
X105860078Y-77297694D01*
X106027202Y-77231391D01*
X106127437Y-77049907D01*
X106190340Y-76852356D01*
X106213494Y-76646328D01*
X106213494Y-79186328D01*
X106196008Y-78979743D01*
X106138557Y-78780537D01*
X106043345Y-78596368D01*
X106027202Y-78572209D01*
X105860078Y-78505906D01*
X105821894Y-78544090D01*
X105821894Y-78467722D01*
X105821894Y-77335878D01*
X105156000Y-76669984D01*
X104490106Y-77335878D01*
X104556409Y-77503002D01*
X104737893Y-77603237D01*
X104935444Y-77666140D01*
X105141472Y-77689294D01*
X105348057Y-77671808D01*
X105547263Y-77614357D01*
X105731432Y-77519145D01*
X105755591Y-77503002D01*
X105821894Y-77335878D01*
X105821894Y-78467722D01*
X105755591Y-78300598D01*
X105574107Y-78200363D01*
X105376556Y-78137460D01*
X105170528Y-78114306D01*
X104963943Y-78131792D01*
X104764737Y-78189243D01*
X104580568Y-78284455D01*
X104556409Y-78300598D01*
X104490106Y-78467722D01*
X105156000Y-79133616D01*
X105821894Y-78467722D01*
X105821894Y-78544090D01*
X105194184Y-79171800D01*
X105860078Y-79837694D01*
X106027202Y-79771391D01*
X106127437Y-79589907D01*
X106190340Y-79392356D01*
X106213494Y-79186328D01*
X106213494Y-81726328D01*
X106196008Y-81519743D01*
X106138557Y-81320537D01*
X106043345Y-81136368D01*
X106027202Y-81112209D01*
X105860078Y-81045906D01*
X105821894Y-81084090D01*
X105821894Y-81007722D01*
X105821894Y-79875878D01*
X105156000Y-79209984D01*
X104490106Y-79875878D01*
X104556409Y-80043002D01*
X104737893Y-80143237D01*
X104935444Y-80206140D01*
X105141472Y-80229294D01*
X105348057Y-80211808D01*
X105547263Y-80154357D01*
X105731432Y-80059145D01*
X105755591Y-80043002D01*
X105821894Y-79875878D01*
X105821894Y-81007722D01*
X105755591Y-80840598D01*
X105574107Y-80740363D01*
X105376556Y-80677460D01*
X105170528Y-80654306D01*
X104963943Y-80671792D01*
X104764737Y-80729243D01*
X104580568Y-80824455D01*
X104556409Y-80840598D01*
X104490106Y-81007722D01*
X105156000Y-81673616D01*
X105821894Y-81007722D01*
X105821894Y-81084090D01*
X105194184Y-81711800D01*
X105860078Y-82377694D01*
X106027202Y-82311391D01*
X106127437Y-82129907D01*
X106190340Y-81932356D01*
X106213494Y-81726328D01*
X106213494Y-84266328D01*
X106196008Y-84059743D01*
X106138557Y-83860537D01*
X106043345Y-83676368D01*
X106027202Y-83652209D01*
X105860078Y-83585906D01*
X105821894Y-83624090D01*
X105821894Y-83547722D01*
X105821894Y-82415878D01*
X105156000Y-81749984D01*
X104490106Y-82415878D01*
X104556409Y-82583002D01*
X104737893Y-82683237D01*
X104935444Y-82746140D01*
X105141472Y-82769294D01*
X105348057Y-82751808D01*
X105547263Y-82694357D01*
X105731432Y-82599145D01*
X105755591Y-82583002D01*
X105821894Y-82415878D01*
X105821894Y-83547722D01*
X105755591Y-83380598D01*
X105574107Y-83280363D01*
X105376556Y-83217460D01*
X105170528Y-83194306D01*
X104963943Y-83211792D01*
X104764737Y-83269243D01*
X104580568Y-83364455D01*
X104556409Y-83380598D01*
X104490106Y-83547722D01*
X105156000Y-84213616D01*
X105821894Y-83547722D01*
X105821894Y-83624090D01*
X105194184Y-84251800D01*
X105208326Y-84265942D01*
X105170142Y-84304126D01*
X105156000Y-84289984D01*
X105141857Y-84304125D01*
X105103673Y-84265941D01*
X105117816Y-84251800D01*
X104451922Y-83585906D01*
X104365399Y-83620232D01*
X104365399Y-82343367D01*
X104451922Y-82377694D01*
X105117816Y-81711800D01*
X104451922Y-81045906D01*
X104365399Y-81080232D01*
X104365399Y-79803367D01*
X104451922Y-79837694D01*
X105117816Y-79171800D01*
X104451922Y-78505906D01*
X104365399Y-78540232D01*
X104365399Y-77263367D01*
X104451922Y-77297694D01*
X105117816Y-76631800D01*
X104451922Y-75965906D01*
X104365399Y-76000232D01*
X104365399Y-62338421D01*
X104525101Y-62426219D01*
X104760169Y-62500787D01*
X105005243Y-62528277D01*
X105022886Y-62528400D01*
X105035114Y-62528400D01*
X105280549Y-62504335D01*
X105516635Y-62433056D01*
X105734380Y-62317279D01*
X105925490Y-62161414D01*
X106082686Y-61971396D01*
X106199980Y-61754465D01*
X106272905Y-61518882D01*
X106298683Y-61273622D01*
X106276332Y-61028025D01*
X106206704Y-60791447D01*
X106092449Y-60572899D01*
X105937922Y-60380705D01*
X105749006Y-60222187D01*
X105532899Y-60103381D01*
X105297831Y-60028813D01*
X105052757Y-60001323D01*
X105035114Y-60001200D01*
X105022886Y-60001200D01*
X104777451Y-60025265D01*
X104541365Y-60096544D01*
X104365399Y-60190106D01*
X104365399Y-60095507D01*
X104562745Y-59898160D01*
X104760169Y-59960787D01*
X105005243Y-59988277D01*
X105022886Y-59988400D01*
X105035114Y-59988400D01*
X105280549Y-59964335D01*
X105516635Y-59893056D01*
X105734380Y-59777279D01*
X105925490Y-59621414D01*
X106082686Y-59431396D01*
X106199980Y-59214465D01*
X106272905Y-58978882D01*
X106298683Y-58733622D01*
X106276332Y-58488025D01*
X106206704Y-58251447D01*
X106092449Y-58032899D01*
X105937922Y-57840705D01*
X105749006Y-57682187D01*
X105532899Y-57563381D01*
X105297831Y-57488813D01*
X105052757Y-57461323D01*
X105035114Y-57461200D01*
X105022886Y-57461200D01*
X104777451Y-57485265D01*
X104541365Y-57556544D01*
X104323620Y-57672321D01*
X104132510Y-57828186D01*
X103975314Y-58018204D01*
X103965389Y-58036559D01*
X103965389Y-57955517D01*
X104562745Y-57358160D01*
X104760169Y-57420787D01*
X105005243Y-57448277D01*
X105022886Y-57448400D01*
X105035114Y-57448400D01*
X105280549Y-57424335D01*
X105516635Y-57353056D01*
X105734380Y-57237279D01*
X105925490Y-57081414D01*
X106082686Y-56891396D01*
X106199980Y-56674465D01*
X106272905Y-56438882D01*
X106298683Y-56193622D01*
X106276332Y-55948025D01*
X106246600Y-55847003D01*
X106246600Y-54543266D01*
X106246600Y-54473534D01*
X106246600Y-53760300D01*
X106246600Y-53529300D01*
X106246600Y-52816066D01*
X106246600Y-52746334D01*
X106232996Y-52677942D01*
X106206311Y-52613518D01*
X106167570Y-52555538D01*
X106118262Y-52506230D01*
X106060282Y-52467489D01*
X105995858Y-52440804D01*
X105927466Y-52427200D01*
X105144500Y-52427200D01*
X105056000Y-52515700D01*
X105056000Y-53617800D01*
X106158100Y-53617800D01*
X106246600Y-53529300D01*
X106246600Y-53760300D01*
X106158100Y-53671800D01*
X105056000Y-53671800D01*
X105056000Y-54773900D01*
X105144500Y-54862400D01*
X105927466Y-54862400D01*
X105995858Y-54848796D01*
X106060282Y-54822111D01*
X106118262Y-54783370D01*
X106167570Y-54734062D01*
X106206311Y-54676082D01*
X106232996Y-54611658D01*
X106246600Y-54543266D01*
X106246600Y-55847003D01*
X106206704Y-55711447D01*
X106092449Y-55492899D01*
X105937922Y-55300705D01*
X105749006Y-55142187D01*
X105532899Y-55023381D01*
X105297831Y-54948813D01*
X105052757Y-54921323D01*
X105035114Y-54921200D01*
X105022886Y-54921200D01*
X105002000Y-54923247D01*
X105002000Y-54773900D01*
X105002000Y-53671800D01*
X105002000Y-53617800D01*
X105002000Y-52515700D01*
X104913500Y-52427200D01*
X104130534Y-52427200D01*
X104062142Y-52440804D01*
X103997718Y-52467489D01*
X103939738Y-52506230D01*
X103890430Y-52555538D01*
X103851689Y-52613518D01*
X103825004Y-52677942D01*
X103811400Y-52746334D01*
X103811400Y-52816066D01*
X103811400Y-53529300D01*
X103899900Y-53617800D01*
X105002000Y-53617800D01*
X105002000Y-53671800D01*
X103899900Y-53671800D01*
X103811400Y-53760300D01*
X103811400Y-54473534D01*
X103811400Y-54543266D01*
X103825004Y-54611658D01*
X103851689Y-54676082D01*
X103890430Y-54734062D01*
X103939738Y-54783370D01*
X103997718Y-54822111D01*
X104062142Y-54848796D01*
X104130534Y-54862400D01*
X104913500Y-54862400D01*
X105002000Y-54773900D01*
X105002000Y-54923247D01*
X104777451Y-54945265D01*
X104541365Y-55016544D01*
X104323620Y-55132321D01*
X104132510Y-55288186D01*
X103975314Y-55478204D01*
X103858020Y-55695135D01*
X103785095Y-55930718D01*
X103759317Y-56175978D01*
X103781668Y-56421575D01*
X103850669Y-56656024D01*
X103111836Y-57394858D01*
X103082556Y-57430502D01*
X103052832Y-57465927D01*
X103051563Y-57468233D01*
X103049897Y-57470263D01*
X103028090Y-57510932D01*
X103005821Y-57551440D01*
X103005025Y-57553947D01*
X103003784Y-57556263D01*
X102990281Y-57600426D01*
X102976315Y-57644455D01*
X102976022Y-57647066D01*
X102975253Y-57649582D01*
X102970583Y-57695558D01*
X102965438Y-57741430D01*
X102965401Y-57746568D01*
X102965392Y-57746666D01*
X102965400Y-57746757D01*
X102965389Y-57748411D01*
X102965389Y-92835389D01*
X102969893Y-92881332D01*
X102973921Y-92927365D01*
X102974654Y-92929889D01*
X102974911Y-92932506D01*
X102988257Y-92976712D01*
X103001146Y-93021073D01*
X103002356Y-93023408D01*
X103003116Y-93025924D01*
X103024783Y-93066674D01*
X103046053Y-93107709D01*
X103047694Y-93109765D01*
X103048928Y-93112085D01*
X103078116Y-93147873D01*
X103106934Y-93183971D01*
X103110541Y-93187628D01*
X103110604Y-93187706D01*
X103110675Y-93187765D01*
X103111836Y-93188942D01*
X103845247Y-93922354D01*
X103880917Y-93951653D01*
X103916317Y-93981358D01*
X103918623Y-93982626D01*
X103920653Y-93984293D01*
X103961322Y-94006099D01*
X104001830Y-94028369D01*
X104004337Y-94029164D01*
X104006653Y-94030406D01*
X104050816Y-94043908D01*
X104094845Y-94057875D01*
X104097456Y-94058167D01*
X104099972Y-94058937D01*
X104145903Y-94063601D01*
X104191820Y-94068752D01*
X104196968Y-94068788D01*
X104197056Y-94068797D01*
X104197137Y-94068789D01*
X104198801Y-94068801D01*
X126884697Y-94068801D01*
X126930640Y-94064296D01*
X126976673Y-94060269D01*
X126979197Y-94059535D01*
X126981814Y-94059279D01*
X127026020Y-94045932D01*
X127070381Y-94033044D01*
X127072716Y-94031833D01*
X127075232Y-94031074D01*
X127115982Y-94009406D01*
X127157017Y-93988137D01*
X127159073Y-93986495D01*
X127161393Y-93985262D01*
X127197181Y-93956073D01*
X127233279Y-93927256D01*
X127236936Y-93923648D01*
X127237014Y-93923586D01*
X127237073Y-93923514D01*
X127238250Y-93922354D01*
X129215805Y-91944799D01*
X134841188Y-91944799D01*
X134751634Y-92153746D01*
X134704255Y-92376646D01*
X134701073Y-92604504D01*
X134742210Y-92828640D01*
X134826098Y-93040518D01*
X134949542Y-93232066D01*
X135107841Y-93395989D01*
X135294964Y-93526043D01*
X135503785Y-93617275D01*
X135726349Y-93666208D01*
X135954179Y-93670981D01*
X136178597Y-93631410D01*
X136391055Y-93549003D01*
X136583460Y-93426899D01*
X136748484Y-93269748D01*
X136879841Y-93083537D01*
X136972529Y-92875359D01*
X137023015Y-92653142D01*
X137026649Y-92392860D01*
X136982387Y-92169320D01*
X136961021Y-92117484D01*
X141210732Y-87867774D01*
X141240011Y-87832129D01*
X141269736Y-87796705D01*
X141271004Y-87794398D01*
X141272671Y-87792369D01*
X141294477Y-87751699D01*
X141316747Y-87711192D01*
X141317542Y-87708684D01*
X141318784Y-87706369D01*
X141332286Y-87662205D01*
X141346253Y-87618177D01*
X141346545Y-87615565D01*
X141347315Y-87613050D01*
X141351984Y-87567073D01*
X141357130Y-87521202D01*
X141357166Y-87516063D01*
X141357176Y-87515966D01*
X141357167Y-87515874D01*
X141357179Y-87514221D01*
X141357179Y-76879986D01*
X141352669Y-76833997D01*
X141348647Y-76788010D01*
X141347913Y-76785485D01*
X141347657Y-76782869D01*
X141334310Y-76738662D01*
X141321422Y-76694302D01*
X141320211Y-76691966D01*
X141319452Y-76689451D01*
X141297763Y-76648661D01*
X141276514Y-76607666D01*
X141274875Y-76605613D01*
X141273640Y-76603290D01*
X141244448Y-76567498D01*
X141215634Y-76531403D01*
X141212025Y-76527744D01*
X141211964Y-76527669D01*
X141211893Y-76527610D01*
X141210732Y-76526433D01*
X141129731Y-76445432D01*
X141129660Y-76445361D01*
X141129660Y-76445360D01*
X134884045Y-70199746D01*
X134848400Y-70170466D01*
X134812976Y-70140742D01*
X134810669Y-70139473D01*
X134808640Y-70137807D01*
X134767970Y-70116000D01*
X134727463Y-70093731D01*
X134724955Y-70092935D01*
X134722640Y-70091694D01*
X134678476Y-70078191D01*
X134634448Y-70064225D01*
X134631836Y-70063932D01*
X134629321Y-70063163D01*
X134583344Y-70058493D01*
X134537473Y-70053348D01*
X134532334Y-70053311D01*
X134532237Y-70053302D01*
X134532145Y-70053310D01*
X134530492Y-70053299D01*
X133194665Y-70053299D01*
X133339685Y-69997050D01*
X133521576Y-69881618D01*
X133677582Y-69733055D01*
X133801762Y-69557020D01*
X133821895Y-69511800D01*
X136852920Y-69511800D01*
X137033000Y-69511800D01*
X140148965Y-69511800D01*
X140148965Y-69875400D01*
X140154240Y-69940309D01*
X140187922Y-70048024D01*
X140250222Y-70142130D01*
X140336228Y-70215206D01*
X140439159Y-70261491D01*
X140550900Y-70277335D01*
X142278100Y-70277335D01*
X142343009Y-70272060D01*
X142450724Y-70238378D01*
X142544830Y-70176078D01*
X142617906Y-70090072D01*
X142664191Y-69987141D01*
X142680035Y-69875400D01*
X142680035Y-68148200D01*
X142678100Y-68124389D01*
X142678100Y-66477914D01*
X142678100Y-66465686D01*
X142654035Y-66220251D01*
X142582756Y-65984165D01*
X142466979Y-65766420D01*
X142311114Y-65575310D01*
X142121096Y-65418114D01*
X141904165Y-65300820D01*
X141668582Y-65227895D01*
X141423322Y-65202117D01*
X141177725Y-65224468D01*
X140941147Y-65294096D01*
X140722599Y-65408351D01*
X140530405Y-65562878D01*
X140371887Y-65751794D01*
X140253081Y-65967901D01*
X140251844Y-65971800D01*
X137033000Y-65971800D01*
X136928897Y-65971800D01*
X133824116Y-65971800D01*
X133816611Y-65953590D01*
X133697395Y-65774157D01*
X133545598Y-65621296D01*
X133367001Y-65500831D01*
X133168407Y-65417349D01*
X132957380Y-65374032D01*
X132741958Y-65372528D01*
X132530347Y-65412895D01*
X132330607Y-65493595D01*
X132150345Y-65611555D01*
X131996429Y-65762281D01*
X131874720Y-65940033D01*
X131789854Y-66138040D01*
X131745064Y-66348759D01*
X131742056Y-66564165D01*
X131780945Y-66776053D01*
X131860249Y-66976352D01*
X131976947Y-67157432D01*
X132126596Y-67312397D01*
X132303493Y-67435344D01*
X132500902Y-67521590D01*
X132711304Y-67567850D01*
X132926684Y-67572362D01*
X133138838Y-67534953D01*
X133339685Y-67457050D01*
X133521576Y-67341618D01*
X133677582Y-67193055D01*
X133801762Y-67017020D01*
X133821895Y-66971800D01*
X136928897Y-66971800D01*
X137033000Y-66971800D01*
X140252818Y-66971800D01*
X140362021Y-67177180D01*
X140517886Y-67368290D01*
X140707904Y-67525486D01*
X140924835Y-67642780D01*
X141160418Y-67715705D01*
X141405678Y-67741483D01*
X141651275Y-67719132D01*
X141887853Y-67649504D01*
X142106401Y-67535249D01*
X142298595Y-67380722D01*
X142457113Y-67191806D01*
X142575919Y-66975699D01*
X142650487Y-66740631D01*
X142677977Y-66495557D01*
X142678100Y-66477914D01*
X142678100Y-68124389D01*
X142674760Y-68083291D01*
X142641078Y-67975576D01*
X142578778Y-67881470D01*
X142492772Y-67808394D01*
X142389841Y-67762109D01*
X142278100Y-67746265D01*
X140550900Y-67746265D01*
X140485991Y-67751540D01*
X140378276Y-67785222D01*
X140284170Y-67847522D01*
X140211094Y-67933528D01*
X140164809Y-68036459D01*
X140148965Y-68148200D01*
X140148965Y-68511800D01*
X137033000Y-68511800D01*
X136852920Y-68511800D01*
X133824116Y-68511800D01*
X133816611Y-68493590D01*
X133697395Y-68314157D01*
X133545598Y-68161296D01*
X133367001Y-68040831D01*
X133168407Y-67957349D01*
X132957380Y-67914032D01*
X132741958Y-67912528D01*
X132530347Y-67952895D01*
X132330607Y-68033595D01*
X132150345Y-68151555D01*
X131996429Y-68302281D01*
X131874720Y-68480033D01*
X131789854Y-68678040D01*
X131745064Y-68888759D01*
X131742056Y-69104165D01*
X131780945Y-69316053D01*
X131860249Y-69516352D01*
X131976947Y-69697432D01*
X132126596Y-69852397D01*
X132303493Y-69975344D01*
X132481924Y-70053299D01*
X131544605Y-70053299D01*
X130435553Y-68944247D01*
X130399908Y-68914967D01*
X130364484Y-68885243D01*
X130362177Y-68883974D01*
X130360148Y-68882308D01*
X130319478Y-68860501D01*
X130283935Y-68840960D01*
X130283935Y-68297800D01*
X130278660Y-68232891D01*
X130244978Y-68125176D01*
X130182678Y-68031070D01*
X130096672Y-67957994D01*
X129993741Y-67911709D01*
X129882000Y-67895865D01*
X129532000Y-67895865D01*
X129532000Y-67324585D01*
X129782570Y-67324585D01*
X129847479Y-67319310D01*
X129955194Y-67285628D01*
X130049300Y-67223328D01*
X130122376Y-67137322D01*
X130168661Y-67034391D01*
X130184505Y-66922650D01*
X130184505Y-64228081D01*
X131965838Y-62446748D01*
X132031759Y-62476391D01*
X132143500Y-62492235D01*
X133540500Y-62492235D01*
X133577462Y-62489231D01*
X133183147Y-62883545D01*
X133168407Y-62877349D01*
X132957380Y-62834032D01*
X132741958Y-62832528D01*
X132530347Y-62872895D01*
X132330607Y-62953595D01*
X132150345Y-63071555D01*
X131996429Y-63222281D01*
X131874720Y-63400033D01*
X131789854Y-63598040D01*
X131745064Y-63808759D01*
X131742056Y-64024165D01*
X131780945Y-64236053D01*
X131860249Y-64436352D01*
X131976947Y-64617432D01*
X132126596Y-64772397D01*
X132303493Y-64895344D01*
X132500902Y-64981590D01*
X132711304Y-65027850D01*
X132926684Y-65032362D01*
X133138838Y-64994953D01*
X133339685Y-64917050D01*
X133521576Y-64801618D01*
X133677582Y-64653055D01*
X133801762Y-64477020D01*
X133889384Y-64280218D01*
X133937111Y-64070145D01*
X133940547Y-63824087D01*
X133898704Y-63612762D01*
X133889784Y-63591121D01*
X134446106Y-63034800D01*
X138402060Y-63034800D01*
X138448003Y-63030295D01*
X138494036Y-63026268D01*
X138496560Y-63025534D01*
X138499177Y-63025278D01*
X138543383Y-63011931D01*
X138587744Y-62999043D01*
X138590079Y-62997832D01*
X138592595Y-62997073D01*
X138633345Y-62975405D01*
X138674380Y-62954136D01*
X138676436Y-62952494D01*
X138678756Y-62951261D01*
X138714544Y-62922072D01*
X138750642Y-62893255D01*
X138754299Y-62889647D01*
X138754377Y-62889585D01*
X138754436Y-62889513D01*
X138755613Y-62888353D01*
X140844641Y-60799325D01*
X142340330Y-60799325D01*
X142405239Y-60794050D01*
X142512954Y-60760368D01*
X142607060Y-60698068D01*
X142680136Y-60612062D01*
X142726421Y-60509131D01*
X142742265Y-60397390D01*
X142742265Y-94553800D01*
X100437500Y-94553800D01*
X100437500Y-50453800D01*
X149537500Y-50453800D01*
X149537500Y-94553800D01*
M02*
