G04 #@! TF.FileFunction,Copper,L2,Bot,Signal*
%FSLAX46Y46*%
G04 Gerber Fmt 4.6, Leading zero omitted, Abs format (unit mm)*
G04 Created by KiCad (PCBNEW (after 2015-mar-04 BZR unknown)-product) date 10/04/2015 18:40:57*
%MOMM*%
G01*
G04 APERTURE LIST*
%ADD10C,0.100000*%
%ADD11R,1.727200X1.727200*%
%ADD12O,1.727200X1.727200*%
%ADD13R,2.032000X1.727200*%
%ADD14O,2.032000X1.727200*%
%ADD15R,1.700000X2.000000*%
%ADD16R,1.397000X1.397000*%
%ADD17C,1.397000*%
%ADD18C,1.000760*%
%ADD19C,0.600000*%
%ADD20C,0.200000*%
%ADD21C,0.254000*%
G04 APERTURE END LIST*
D10*
D11*
X143764000Y-53721000D03*
D12*
X146304000Y-53721000D03*
X143764000Y-56261000D03*
X146304000Y-56261000D03*
X143764000Y-58801000D03*
X146304000Y-58801000D03*
X143764000Y-61341000D03*
X146304000Y-61341000D03*
X143764000Y-63881000D03*
X146304000Y-63881000D03*
X143764000Y-66421000D03*
X146304000Y-66421000D03*
X143764000Y-68961000D03*
X146304000Y-68961000D03*
D13*
X127254000Y-52832000D03*
D14*
X127254000Y-55372000D03*
X127254000Y-57912000D03*
X127254000Y-60452000D03*
D13*
X135255000Y-53721000D03*
D14*
X135255000Y-56261000D03*
X135255000Y-58801000D03*
X135255000Y-61341000D03*
X135255000Y-63881000D03*
X135255000Y-66421000D03*
D15*
X121666000Y-56864000D03*
X121666000Y-52864000D03*
D16*
X113284000Y-61214000D03*
D17*
X113284000Y-63754000D03*
X113284000Y-66294000D03*
X113284000Y-68834000D03*
X113284000Y-71374000D03*
X113284000Y-73914000D03*
X113284000Y-76454000D03*
X113284000Y-78994000D03*
X113284000Y-81534000D03*
X113284000Y-84074000D03*
X120904000Y-84074000D03*
X120904000Y-81534000D03*
X120904000Y-78994000D03*
X120904000Y-76454000D03*
X120904000Y-73914000D03*
X120904000Y-71374000D03*
X120904000Y-68834000D03*
X120904000Y-66294000D03*
X120904000Y-63754000D03*
X120904000Y-61214000D03*
D11*
X146558000Y-95504000D03*
D12*
X144018000Y-95504000D03*
X146558000Y-92964000D03*
X144018000Y-92964000D03*
X146558000Y-90424000D03*
X144018000Y-90424000D03*
X146558000Y-87884000D03*
X144018000Y-87884000D03*
D16*
X128016000Y-76454000D03*
D17*
X128016000Y-78994000D03*
X128016000Y-81534000D03*
X128016000Y-84074000D03*
X135636000Y-84074000D03*
X135636000Y-81534000D03*
X135636000Y-78994000D03*
X135636000Y-76454000D03*
D18*
X122936000Y-64274700D03*
X122936000Y-65773300D03*
D19*
X129794000Y-62484000D03*
X139954000Y-79248000D03*
X139573000Y-83693000D03*
X139573000Y-86868000D03*
X133985000Y-89281000D03*
X133985000Y-91567000D03*
X122301000Y-92837000D03*
X138049000Y-69596000D03*
X116586000Y-70993000D03*
X131826000Y-70612000D03*
X138430000Y-54864000D03*
D20*
X137414000Y-56261000D02*
X135255000Y-56261000D01*
X140970000Y-63881000D02*
X140589000Y-63500000D01*
X143764000Y-63881000D02*
X140970000Y-63881000D01*
X139446000Y-56261000D02*
X140589000Y-57404000D01*
X140589000Y-57404000D02*
X140589000Y-63500000D01*
X137414000Y-56261000D02*
X139446000Y-56261000D01*
X119634000Y-68834000D02*
X120904000Y-68834000D01*
X118364000Y-67564000D02*
X119634000Y-68834000D01*
X118364000Y-63500000D02*
X118364000Y-67564000D01*
X119380000Y-62484000D02*
X118364000Y-63500000D01*
X121920000Y-62484000D02*
X119380000Y-62484000D01*
X123444000Y-60960000D02*
X121920000Y-62484000D01*
X123444000Y-59436000D02*
X123444000Y-60960000D01*
X127254000Y-55626000D02*
X123444000Y-59436000D01*
X127254000Y-55372000D02*
X127254000Y-55626000D01*
X119158000Y-56864000D02*
X118872000Y-56578000D01*
X118872000Y-56578000D02*
X118872000Y-51816000D01*
X118872000Y-51816000D02*
X119888000Y-50800000D01*
X119888000Y-50800000D02*
X124714000Y-50800000D01*
X124714000Y-50800000D02*
X129286000Y-50800000D01*
X129286000Y-50800000D02*
X129540000Y-51054000D01*
X129540000Y-51054000D02*
X132588000Y-51054000D01*
X132588000Y-51054000D02*
X135255000Y-53721000D01*
X121666000Y-56864000D02*
X119158000Y-56864000D01*
X113284000Y-59690000D02*
X116110000Y-56864000D01*
X116110000Y-56864000D02*
X121666000Y-56864000D01*
X113284000Y-61214000D02*
X113284000Y-59690000D01*
X129794000Y-62484000D02*
X129794000Y-58420000D01*
X129794000Y-58420000D02*
X129286000Y-57912000D01*
X129286000Y-57912000D02*
X127254000Y-57912000D01*
X114554000Y-66294000D02*
X118364000Y-70104000D01*
X118364000Y-70104000D02*
X122936000Y-70104000D01*
X122936000Y-70104000D02*
X123190000Y-69850000D01*
X123190000Y-69850000D02*
X129032000Y-69850000D01*
X129032000Y-69850000D02*
X131318000Y-72136000D01*
X131318000Y-72136000D02*
X146812000Y-72136000D01*
X146812000Y-72136000D02*
X148590000Y-70358000D01*
X148590000Y-70358000D02*
X148590000Y-61722000D01*
X148590000Y-61722000D02*
X148209000Y-61341000D01*
X148209000Y-61341000D02*
X146304000Y-61341000D01*
X113284000Y-66294000D02*
X114554000Y-66294000D01*
X139954000Y-79248000D02*
X139192000Y-80010000D01*
X139192000Y-80010000D02*
X139192000Y-83312000D01*
X139192000Y-83312000D02*
X139573000Y-83693000D01*
X139573000Y-86868000D02*
X138684000Y-87757000D01*
X138684000Y-87757000D02*
X135509000Y-87757000D01*
X135509000Y-87757000D02*
X133985000Y-89281000D01*
X133985000Y-91567000D02*
X132715000Y-92837000D01*
X132715000Y-92837000D02*
X122301000Y-92837000D01*
X142875000Y-66421000D02*
X139827000Y-69469000D01*
X139827000Y-69469000D02*
X138176000Y-69469000D01*
X138176000Y-69469000D02*
X138049000Y-69596000D01*
X115189000Y-72009000D02*
X113284000Y-73914000D01*
X143764000Y-66421000D02*
X142875000Y-66421000D01*
X116586000Y-70993000D02*
X115570000Y-72009000D01*
X115570000Y-72009000D02*
X115189000Y-72009000D01*
X141605000Y-70612000D02*
X131826000Y-70612000D01*
X143256000Y-68961000D02*
X141605000Y-70612000D01*
X143764000Y-68961000D02*
X143256000Y-68961000D01*
X148082000Y-90424000D02*
X149098000Y-89408000D01*
X149098000Y-89408000D02*
X149098000Y-82042000D01*
X149098000Y-82042000D02*
X147574000Y-80518000D01*
X147574000Y-80518000D02*
X144018000Y-80518000D01*
X144018000Y-80518000D02*
X137668000Y-74168000D01*
X137668000Y-74168000D02*
X135128000Y-74168000D01*
X135128000Y-74168000D02*
X134112000Y-73152000D01*
X134112000Y-73152000D02*
X123698000Y-73152000D01*
X123698000Y-73152000D02*
X123190000Y-72644000D01*
X123190000Y-72644000D02*
X118618000Y-72644000D01*
X118618000Y-72644000D02*
X117602000Y-73660000D01*
X117602000Y-73660000D02*
X117602000Y-74930000D01*
X117602000Y-74930000D02*
X116078000Y-76454000D01*
X116078000Y-76454000D02*
X113284000Y-76454000D01*
X146558000Y-90424000D02*
X148082000Y-90424000D01*
X148590000Y-92964000D02*
X146558000Y-92964000D01*
X149098000Y-96012000D02*
X149098000Y-93472000D01*
X148590000Y-97028000D02*
X148590000Y-96520000D01*
X149098000Y-93472000D02*
X148590000Y-92964000D01*
X148590000Y-96520000D02*
X149098000Y-96012000D01*
X125151277Y-97973277D02*
X147644723Y-97973277D01*
X147644723Y-97973277D02*
X148590000Y-97028000D01*
X116078000Y-79248000D02*
X116078000Y-88900000D01*
X115824000Y-78994000D02*
X116078000Y-79248000D01*
X116078000Y-88900000D02*
X125151277Y-97973277D01*
X113284000Y-78994000D02*
X115824000Y-78994000D01*
X146558000Y-86614000D02*
X145415000Y-85471000D01*
X145415000Y-85471000D02*
X138811000Y-85471000D01*
X138811000Y-85471000D02*
X137668000Y-86614000D01*
X137668000Y-86614000D02*
X127508000Y-86614000D01*
X127508000Y-86614000D02*
X125222000Y-84328000D01*
X125222000Y-84328000D02*
X125222000Y-77724000D01*
X125222000Y-77724000D02*
X123952000Y-76454000D01*
X123952000Y-76454000D02*
X120904000Y-76454000D01*
X146558000Y-87884000D02*
X146558000Y-86614000D01*
X123190000Y-90424000D02*
X118872000Y-86106000D01*
X118872000Y-86106000D02*
X118872000Y-75946000D01*
X118872000Y-75946000D02*
X120904000Y-73914000D01*
X144018000Y-90424000D02*
X123190000Y-90424000D01*
X146304000Y-53721000D02*
X146304000Y-56261000D01*
X146304000Y-52705000D02*
X145288000Y-51689000D01*
X145288000Y-51689000D02*
X140462000Y-51689000D01*
X140462000Y-51689000D02*
X138430000Y-53721000D01*
X138430000Y-53721000D02*
X138430000Y-54864000D01*
X146304000Y-53721000D02*
X146304000Y-52705000D01*
X127222000Y-52864000D02*
X127254000Y-52832000D01*
X121666000Y-52864000D02*
X127222000Y-52864000D01*
D21*
G36*
X148521000Y-89168998D02*
X147842998Y-89847000D01*
X147768364Y-89847000D01*
X147686253Y-89689937D01*
X147522309Y-89486031D01*
X147321882Y-89317853D01*
X147092606Y-89191807D01*
X146973777Y-89154112D01*
X147075350Y-89123446D01*
X147306364Y-89000614D01*
X147509120Y-88835251D01*
X147675895Y-88633654D01*
X147800337Y-88403503D01*
X147877706Y-88153565D01*
X147905054Y-87893359D01*
X147881341Y-87632797D01*
X147807470Y-87381802D01*
X147686253Y-87149937D01*
X147522309Y-86946031D01*
X147321882Y-86777853D01*
X147135000Y-86675113D01*
X147135000Y-86614000D01*
X147129799Y-86560957D01*
X147125153Y-86507860D01*
X147124307Y-86504949D01*
X147124011Y-86501927D01*
X147108598Y-86450876D01*
X147093736Y-86399720D01*
X147092340Y-86397026D01*
X147091463Y-86394122D01*
X147066435Y-86347050D01*
X147041913Y-86299743D01*
X147040020Y-86297372D01*
X147038596Y-86294693D01*
X147004913Y-86253394D01*
X146971657Y-86211735D01*
X146967488Y-86207507D01*
X146967422Y-86207426D01*
X146967346Y-86207363D01*
X146966001Y-86205999D01*
X145823001Y-85062999D01*
X145781784Y-85029143D01*
X145740986Y-84994910D01*
X145738330Y-84993449D01*
X145735983Y-84991522D01*
X145688955Y-84966306D01*
X145642304Y-84940659D01*
X145639415Y-84939742D01*
X145636738Y-84938307D01*
X145585692Y-84922700D01*
X145534965Y-84906609D01*
X145531954Y-84906271D01*
X145529049Y-84905383D01*
X145476018Y-84899996D01*
X145423056Y-84894056D01*
X145417119Y-84894014D01*
X145417014Y-84894004D01*
X145416915Y-84894013D01*
X145415000Y-84894000D01*
X140731034Y-84894000D01*
X140731034Y-79171811D01*
X140701437Y-79022336D01*
X140643370Y-78881455D01*
X140559046Y-78754537D01*
X140451675Y-78646414D01*
X140325348Y-78561206D01*
X140184877Y-78502157D01*
X140035612Y-78471517D01*
X139883238Y-78470453D01*
X139733559Y-78499006D01*
X139592277Y-78556088D01*
X139464773Y-78639524D01*
X139355903Y-78746137D01*
X139269815Y-78871866D01*
X139209787Y-79011922D01*
X139178106Y-79160970D01*
X139177441Y-79208557D01*
X138783999Y-79601999D01*
X138750143Y-79643215D01*
X138715910Y-79684014D01*
X138714449Y-79686669D01*
X138712522Y-79689017D01*
X138687306Y-79736044D01*
X138661659Y-79782696D01*
X138660742Y-79785584D01*
X138659307Y-79788262D01*
X138643700Y-79839307D01*
X138627609Y-79890035D01*
X138627271Y-79893045D01*
X138626383Y-79895951D01*
X138620996Y-79948981D01*
X138615056Y-80001944D01*
X138615014Y-80007880D01*
X138615004Y-80007986D01*
X138615013Y-80008084D01*
X138615000Y-80010000D01*
X138615000Y-83312000D01*
X138620200Y-83365042D01*
X138624847Y-83418140D01*
X138625692Y-83421050D01*
X138625989Y-83424073D01*
X138641401Y-83475123D01*
X138656264Y-83526280D01*
X138657659Y-83528973D01*
X138658537Y-83531878D01*
X138683564Y-83578949D01*
X138708087Y-83626257D01*
X138709979Y-83628627D01*
X138711404Y-83631307D01*
X138745086Y-83672605D01*
X138778343Y-83714265D01*
X138782511Y-83718492D01*
X138782578Y-83718574D01*
X138782653Y-83718636D01*
X138783999Y-83720001D01*
X138795354Y-83731356D01*
X138794978Y-83758332D01*
X138822485Y-83908207D01*
X138878579Y-84049884D01*
X138961123Y-84177967D01*
X139066974Y-84287579D01*
X139192099Y-84374543D01*
X139331732Y-84435547D01*
X139480555Y-84468268D01*
X139632899Y-84471459D01*
X139782962Y-84444999D01*
X139925027Y-84389895D01*
X140053684Y-84308247D01*
X140164031Y-84203165D01*
X140251867Y-84078650D01*
X140313844Y-83939446D01*
X140347603Y-83790855D01*
X140350034Y-83616811D01*
X140320437Y-83467336D01*
X140262370Y-83326455D01*
X140178046Y-83199537D01*
X140070675Y-83091414D01*
X139944348Y-83006206D01*
X139803877Y-82947157D01*
X139769000Y-82939997D01*
X139769000Y-80249001D01*
X139992001Y-80026000D01*
X140013899Y-80026459D01*
X140163962Y-79999999D01*
X140306027Y-79944895D01*
X140434684Y-79863247D01*
X140545031Y-79758165D01*
X140632867Y-79633650D01*
X140694844Y-79494446D01*
X140728603Y-79345855D01*
X140731034Y-79171811D01*
X140731034Y-84894000D01*
X138811000Y-84894000D01*
X138757957Y-84899200D01*
X138704860Y-84903847D01*
X138701949Y-84904692D01*
X138698927Y-84904989D01*
X138647876Y-84920401D01*
X138596720Y-84935264D01*
X138594026Y-84936659D01*
X138591122Y-84937537D01*
X138544050Y-84962564D01*
X138496743Y-84987087D01*
X138494372Y-84988979D01*
X138491693Y-84990404D01*
X138450394Y-85024086D01*
X138408735Y-85057343D01*
X138404507Y-85061511D01*
X138404426Y-85061578D01*
X138404363Y-85061653D01*
X138402999Y-85062999D01*
X137428998Y-86037000D01*
X136867182Y-86037000D01*
X136867182Y-84049316D01*
X136867182Y-81509316D01*
X136867182Y-78969316D01*
X136867182Y-76429316D01*
X136838709Y-76189599D01*
X136764018Y-75960042D01*
X136673404Y-75790515D01*
X136463495Y-75729743D01*
X136360257Y-75832981D01*
X136360257Y-75626505D01*
X136299485Y-75416596D01*
X136084348Y-75307090D01*
X135851982Y-75241659D01*
X135611316Y-75222818D01*
X135371599Y-75251291D01*
X135142042Y-75325982D01*
X134972515Y-75416596D01*
X134911743Y-75626505D01*
X135636000Y-76350762D01*
X136360257Y-75626505D01*
X136360257Y-75832981D01*
X135739238Y-76454000D01*
X136463495Y-77178257D01*
X136673404Y-77117485D01*
X136782910Y-76902348D01*
X136848341Y-76669982D01*
X136867182Y-76429316D01*
X136867182Y-78969316D01*
X136838709Y-78729599D01*
X136764018Y-78500042D01*
X136673404Y-78330515D01*
X136463495Y-78269743D01*
X136360257Y-78372981D01*
X136360257Y-78166505D01*
X136360257Y-77281495D01*
X135636000Y-76557238D01*
X135532762Y-76660476D01*
X135532762Y-76454000D01*
X134808505Y-75729743D01*
X134598596Y-75790515D01*
X134489090Y-76005652D01*
X134423659Y-76238018D01*
X134404818Y-76478684D01*
X134433291Y-76718401D01*
X134507982Y-76947958D01*
X134598596Y-77117485D01*
X134808505Y-77178257D01*
X135532762Y-76454000D01*
X135532762Y-76660476D01*
X134911743Y-77281495D01*
X134972515Y-77491404D01*
X135187652Y-77600910D01*
X135420018Y-77666341D01*
X135660684Y-77685182D01*
X135900401Y-77656709D01*
X136129958Y-77582018D01*
X136299485Y-77491404D01*
X136360257Y-77281495D01*
X136360257Y-78166505D01*
X136299485Y-77956596D01*
X136084348Y-77847090D01*
X135851982Y-77781659D01*
X135611316Y-77762818D01*
X135371599Y-77791291D01*
X135142042Y-77865982D01*
X134972515Y-77956596D01*
X134911743Y-78166505D01*
X135636000Y-78890762D01*
X136360257Y-78166505D01*
X136360257Y-78372981D01*
X135739238Y-78994000D01*
X136463495Y-79718257D01*
X136673404Y-79657485D01*
X136782910Y-79442348D01*
X136848341Y-79209982D01*
X136867182Y-78969316D01*
X136867182Y-81509316D01*
X136838709Y-81269599D01*
X136764018Y-81040042D01*
X136673404Y-80870515D01*
X136463495Y-80809743D01*
X136360257Y-80912981D01*
X136360257Y-80706505D01*
X136360257Y-79821495D01*
X135636000Y-79097238D01*
X135532762Y-79200476D01*
X135532762Y-78994000D01*
X134808505Y-78269743D01*
X134598596Y-78330515D01*
X134489090Y-78545652D01*
X134423659Y-78778018D01*
X134404818Y-79018684D01*
X134433291Y-79258401D01*
X134507982Y-79487958D01*
X134598596Y-79657485D01*
X134808505Y-79718257D01*
X135532762Y-78994000D01*
X135532762Y-79200476D01*
X134911743Y-79821495D01*
X134972515Y-80031404D01*
X135187652Y-80140910D01*
X135420018Y-80206341D01*
X135660684Y-80225182D01*
X135900401Y-80196709D01*
X136129958Y-80122018D01*
X136299485Y-80031404D01*
X136360257Y-79821495D01*
X136360257Y-80706505D01*
X136299485Y-80496596D01*
X136084348Y-80387090D01*
X135851982Y-80321659D01*
X135611316Y-80302818D01*
X135371599Y-80331291D01*
X135142042Y-80405982D01*
X134972515Y-80496596D01*
X134911743Y-80706505D01*
X135636000Y-81430762D01*
X136360257Y-80706505D01*
X136360257Y-80912981D01*
X135739238Y-81534000D01*
X136463495Y-82258257D01*
X136673404Y-82197485D01*
X136782910Y-81982348D01*
X136848341Y-81749982D01*
X136867182Y-81509316D01*
X136867182Y-84049316D01*
X136838709Y-83809599D01*
X136764018Y-83580042D01*
X136673404Y-83410515D01*
X136463495Y-83349743D01*
X136360257Y-83452981D01*
X136360257Y-83246505D01*
X136360257Y-82361495D01*
X135636000Y-81637238D01*
X135532762Y-81740476D01*
X135532762Y-81534000D01*
X134808505Y-80809743D01*
X134598596Y-80870515D01*
X134489090Y-81085652D01*
X134423659Y-81318018D01*
X134404818Y-81558684D01*
X134433291Y-81798401D01*
X134507982Y-82027958D01*
X134598596Y-82197485D01*
X134808505Y-82258257D01*
X135532762Y-81534000D01*
X135532762Y-81740476D01*
X134911743Y-82361495D01*
X134972515Y-82571404D01*
X135187652Y-82680910D01*
X135420018Y-82746341D01*
X135660684Y-82765182D01*
X135900401Y-82736709D01*
X136129958Y-82662018D01*
X136299485Y-82571404D01*
X136360257Y-82361495D01*
X136360257Y-83246505D01*
X136299485Y-83036596D01*
X136084348Y-82927090D01*
X135851982Y-82861659D01*
X135611316Y-82842818D01*
X135371599Y-82871291D01*
X135142042Y-82945982D01*
X134972515Y-83036596D01*
X134911743Y-83246505D01*
X135636000Y-83970762D01*
X136360257Y-83246505D01*
X136360257Y-83452981D01*
X135739238Y-84074000D01*
X136463495Y-84798257D01*
X136673404Y-84737485D01*
X136782910Y-84522348D01*
X136848341Y-84289982D01*
X136867182Y-84049316D01*
X136867182Y-86037000D01*
X136360257Y-86037000D01*
X136360257Y-84901495D01*
X135636000Y-84177238D01*
X135532762Y-84280476D01*
X135532762Y-84074000D01*
X134808505Y-83349743D01*
X134598596Y-83410515D01*
X134489090Y-83625652D01*
X134423659Y-83858018D01*
X134404818Y-84098684D01*
X134433291Y-84338401D01*
X134507982Y-84567958D01*
X134598596Y-84737485D01*
X134808505Y-84798257D01*
X135532762Y-84074000D01*
X135532762Y-84280476D01*
X134911743Y-84901495D01*
X134972515Y-85111404D01*
X135187652Y-85220910D01*
X135420018Y-85286341D01*
X135660684Y-85305182D01*
X135900401Y-85276709D01*
X136129958Y-85202018D01*
X136299485Y-85111404D01*
X136360257Y-84901495D01*
X136360257Y-86037000D01*
X129193808Y-86037000D01*
X129193808Y-77152500D01*
X129193808Y-75755500D01*
X129187517Y-75678096D01*
X129147351Y-75549645D01*
X129073058Y-75437425D01*
X128970496Y-75350282D01*
X128847751Y-75295087D01*
X128714500Y-75276192D01*
X127317500Y-75276192D01*
X127240096Y-75282483D01*
X127111645Y-75322649D01*
X126999425Y-75396942D01*
X126912282Y-75499504D01*
X126857087Y-75622249D01*
X126838192Y-75755500D01*
X126838192Y-77152500D01*
X126844483Y-77229904D01*
X126884649Y-77358355D01*
X126958942Y-77470575D01*
X127061504Y-77557718D01*
X127184249Y-77612913D01*
X127317500Y-77631808D01*
X128714500Y-77631808D01*
X128791904Y-77625517D01*
X128920355Y-77585351D01*
X129032575Y-77511058D01*
X129119718Y-77408496D01*
X129174913Y-77285751D01*
X129193808Y-77152500D01*
X129193808Y-86037000D01*
X129191551Y-86037000D01*
X129191551Y-83958736D01*
X129191551Y-81418736D01*
X129191551Y-78878736D01*
X129146774Y-78652599D01*
X129058927Y-78439466D01*
X128931355Y-78247455D01*
X128768918Y-78083879D01*
X128577802Y-77954970D01*
X128365287Y-77865637D01*
X128139468Y-77819283D01*
X127908946Y-77817673D01*
X127682502Y-77860870D01*
X127468760Y-77947227D01*
X127275863Y-78073455D01*
X127111157Y-78234747D01*
X126980917Y-78424958D01*
X126890103Y-78636844D01*
X126842173Y-78862334D01*
X126838955Y-79092839D01*
X126880569Y-79319580D01*
X126965432Y-79533919D01*
X127090311Y-79727692D01*
X127250449Y-79893520D01*
X127439746Y-80025085D01*
X127650993Y-80117377D01*
X127876143Y-80166879D01*
X128106620Y-80171707D01*
X128333645Y-80131676D01*
X128548571Y-80048312D01*
X128743212Y-79924789D01*
X128910153Y-79765813D01*
X129043037Y-79577438D01*
X129136801Y-79366841D01*
X129187874Y-79142042D01*
X129191551Y-78878736D01*
X129191551Y-81418736D01*
X129146774Y-81192599D01*
X129058927Y-80979466D01*
X128931355Y-80787455D01*
X128768918Y-80623879D01*
X128577802Y-80494970D01*
X128365287Y-80405637D01*
X128139468Y-80359283D01*
X127908946Y-80357673D01*
X127682502Y-80400870D01*
X127468760Y-80487227D01*
X127275863Y-80613455D01*
X127111157Y-80774747D01*
X126980917Y-80964958D01*
X126890103Y-81176844D01*
X126842173Y-81402334D01*
X126838955Y-81632839D01*
X126880569Y-81859580D01*
X126965432Y-82073919D01*
X127090311Y-82267692D01*
X127250449Y-82433520D01*
X127439746Y-82565085D01*
X127650993Y-82657377D01*
X127876143Y-82706879D01*
X128106620Y-82711707D01*
X128333645Y-82671676D01*
X128548571Y-82588312D01*
X128743212Y-82464789D01*
X128910153Y-82305813D01*
X129043037Y-82117438D01*
X129136801Y-81906841D01*
X129187874Y-81682042D01*
X129191551Y-81418736D01*
X129191551Y-83958736D01*
X129146774Y-83732599D01*
X129058927Y-83519466D01*
X128931355Y-83327455D01*
X128768918Y-83163879D01*
X128577802Y-83034970D01*
X128365287Y-82945637D01*
X128139468Y-82899283D01*
X127908946Y-82897673D01*
X127682502Y-82940870D01*
X127468760Y-83027227D01*
X127275863Y-83153455D01*
X127111157Y-83314747D01*
X126980917Y-83504958D01*
X126890103Y-83716844D01*
X126842173Y-83942334D01*
X126838955Y-84172839D01*
X126880569Y-84399580D01*
X126965432Y-84613919D01*
X127090311Y-84807692D01*
X127250449Y-84973520D01*
X127439746Y-85105085D01*
X127650993Y-85197377D01*
X127876143Y-85246879D01*
X128106620Y-85251707D01*
X128333645Y-85211676D01*
X128548571Y-85128312D01*
X128743212Y-85004789D01*
X128910153Y-84845813D01*
X129043037Y-84657438D01*
X129136801Y-84446841D01*
X129187874Y-84222042D01*
X129191551Y-83958736D01*
X129191551Y-86037000D01*
X127747001Y-86037000D01*
X125799000Y-84088998D01*
X125799000Y-77724000D01*
X125793799Y-77670957D01*
X125789153Y-77617860D01*
X125788307Y-77614949D01*
X125788011Y-77611927D01*
X125772598Y-77560876D01*
X125757736Y-77509720D01*
X125756340Y-77507026D01*
X125755463Y-77504122D01*
X125730435Y-77457050D01*
X125705913Y-77409743D01*
X125704020Y-77407372D01*
X125702596Y-77404693D01*
X125668913Y-77363394D01*
X125635657Y-77321735D01*
X125631492Y-77317511D01*
X125631422Y-77317426D01*
X125631342Y-77317360D01*
X125630000Y-77315999D01*
X124360001Y-76045999D01*
X124318784Y-76012143D01*
X124277986Y-75977910D01*
X124275330Y-75976449D01*
X124272983Y-75974522D01*
X124225955Y-75949306D01*
X124179304Y-75923659D01*
X124176415Y-75922742D01*
X124173738Y-75921307D01*
X124122692Y-75905700D01*
X124071965Y-75889609D01*
X124068954Y-75889271D01*
X124066049Y-75888383D01*
X124013018Y-75882996D01*
X123960056Y-75877056D01*
X123954119Y-75877014D01*
X123954014Y-75877004D01*
X123953915Y-75877013D01*
X123952000Y-75877000D01*
X121932000Y-75877000D01*
X121819355Y-75707455D01*
X121656918Y-75543879D01*
X121465802Y-75414970D01*
X121253287Y-75325637D01*
X121027468Y-75279283D01*
X120796946Y-75277673D01*
X120570502Y-75320870D01*
X120356760Y-75407227D01*
X120163863Y-75533455D01*
X119999157Y-75694747D01*
X119868917Y-75884958D01*
X119778103Y-76096844D01*
X119730173Y-76322334D01*
X119726955Y-76552839D01*
X119768569Y-76779580D01*
X119853432Y-76993919D01*
X119978311Y-77187692D01*
X120138449Y-77353520D01*
X120327746Y-77485085D01*
X120538993Y-77577377D01*
X120764143Y-77626879D01*
X120994620Y-77631707D01*
X121221645Y-77591676D01*
X121436571Y-77508312D01*
X121631212Y-77384789D01*
X121798153Y-77225813D01*
X121931037Y-77037438D01*
X121933903Y-77031000D01*
X123712998Y-77031000D01*
X124645000Y-77963001D01*
X124645000Y-84328000D01*
X124650200Y-84381042D01*
X124654847Y-84434140D01*
X124655692Y-84437050D01*
X124655989Y-84440073D01*
X124671401Y-84491123D01*
X124686264Y-84542280D01*
X124687659Y-84544973D01*
X124688537Y-84547878D01*
X124713564Y-84594949D01*
X124738087Y-84642257D01*
X124739979Y-84644627D01*
X124741404Y-84647307D01*
X124775086Y-84688605D01*
X124808343Y-84730265D01*
X124812511Y-84734492D01*
X124812578Y-84734574D01*
X124812653Y-84734636D01*
X124813999Y-84736001D01*
X127099999Y-87022000D01*
X127141185Y-87055831D01*
X127182014Y-87090090D01*
X127184670Y-87091550D01*
X127187017Y-87093478D01*
X127234009Y-87118674D01*
X127280696Y-87144341D01*
X127283588Y-87145258D01*
X127286262Y-87146692D01*
X127337261Y-87162284D01*
X127388035Y-87178391D01*
X127391045Y-87178728D01*
X127393951Y-87179617D01*
X127446981Y-87185003D01*
X127499944Y-87190944D01*
X127505880Y-87190985D01*
X127505986Y-87190996D01*
X127506084Y-87190986D01*
X127508000Y-87191000D01*
X135396890Y-87191000D01*
X135345876Y-87206401D01*
X135294720Y-87221264D01*
X135292027Y-87222659D01*
X135289122Y-87223537D01*
X135242011Y-87248585D01*
X135194743Y-87273088D01*
X135192376Y-87274977D01*
X135189693Y-87276404D01*
X135148367Y-87310108D01*
X135106735Y-87343343D01*
X135102511Y-87347507D01*
X135102426Y-87347578D01*
X135102360Y-87347657D01*
X135100999Y-87349000D01*
X133946321Y-88503677D01*
X133914238Y-88503453D01*
X133764559Y-88532006D01*
X133623277Y-88589088D01*
X133495773Y-88672524D01*
X133386903Y-88779137D01*
X133300815Y-88904866D01*
X133240787Y-89044922D01*
X133209106Y-89193970D01*
X133206978Y-89346332D01*
X133234485Y-89496207D01*
X133290579Y-89637884D01*
X133373123Y-89765967D01*
X133451375Y-89847000D01*
X123429001Y-89847000D01*
X122079551Y-88497549D01*
X122079551Y-83958736D01*
X122079551Y-81418736D01*
X122079551Y-78878736D01*
X122034774Y-78652599D01*
X121946927Y-78439466D01*
X121819355Y-78247455D01*
X121656918Y-78083879D01*
X121465802Y-77954970D01*
X121253287Y-77865637D01*
X121027468Y-77819283D01*
X120796946Y-77817673D01*
X120570502Y-77860870D01*
X120356760Y-77947227D01*
X120163863Y-78073455D01*
X119999157Y-78234747D01*
X119868917Y-78424958D01*
X119778103Y-78636844D01*
X119730173Y-78862334D01*
X119726955Y-79092839D01*
X119768569Y-79319580D01*
X119853432Y-79533919D01*
X119978311Y-79727692D01*
X120138449Y-79893520D01*
X120327746Y-80025085D01*
X120538993Y-80117377D01*
X120764143Y-80166879D01*
X120994620Y-80171707D01*
X121221645Y-80131676D01*
X121436571Y-80048312D01*
X121631212Y-79924789D01*
X121798153Y-79765813D01*
X121931037Y-79577438D01*
X122024801Y-79366841D01*
X122075874Y-79142042D01*
X122079551Y-78878736D01*
X122079551Y-81418736D01*
X122034774Y-81192599D01*
X121946927Y-80979466D01*
X121819355Y-80787455D01*
X121656918Y-80623879D01*
X121465802Y-80494970D01*
X121253287Y-80405637D01*
X121027468Y-80359283D01*
X120796946Y-80357673D01*
X120570502Y-80400870D01*
X120356760Y-80487227D01*
X120163863Y-80613455D01*
X119999157Y-80774747D01*
X119868917Y-80964958D01*
X119778103Y-81176844D01*
X119730173Y-81402334D01*
X119726955Y-81632839D01*
X119768569Y-81859580D01*
X119853432Y-82073919D01*
X119978311Y-82267692D01*
X120138449Y-82433520D01*
X120327746Y-82565085D01*
X120538993Y-82657377D01*
X120764143Y-82706879D01*
X120994620Y-82711707D01*
X121221645Y-82671676D01*
X121436571Y-82588312D01*
X121631212Y-82464789D01*
X121798153Y-82305813D01*
X121931037Y-82117438D01*
X122024801Y-81906841D01*
X122075874Y-81682042D01*
X122079551Y-81418736D01*
X122079551Y-83958736D01*
X122034774Y-83732599D01*
X121946927Y-83519466D01*
X121819355Y-83327455D01*
X121656918Y-83163879D01*
X121465802Y-83034970D01*
X121253287Y-82945637D01*
X121027468Y-82899283D01*
X120796946Y-82897673D01*
X120570502Y-82940870D01*
X120356760Y-83027227D01*
X120163863Y-83153455D01*
X119999157Y-83314747D01*
X119868917Y-83504958D01*
X119778103Y-83716844D01*
X119730173Y-83942334D01*
X119726955Y-84172839D01*
X119768569Y-84399580D01*
X119853432Y-84613919D01*
X119978311Y-84807692D01*
X120138449Y-84973520D01*
X120327746Y-85105085D01*
X120538993Y-85197377D01*
X120764143Y-85246879D01*
X120994620Y-85251707D01*
X121221645Y-85211676D01*
X121436571Y-85128312D01*
X121631212Y-85004789D01*
X121798153Y-84845813D01*
X121931037Y-84657438D01*
X122024801Y-84446841D01*
X122075874Y-84222042D01*
X122079551Y-83958736D01*
X122079551Y-88497549D01*
X119449000Y-85866998D01*
X119449000Y-76185002D01*
X120586237Y-75047764D01*
X120764143Y-75086879D01*
X120994620Y-75091707D01*
X121221645Y-75051676D01*
X121436571Y-74968312D01*
X121631212Y-74844789D01*
X121798153Y-74685813D01*
X121931037Y-74497438D01*
X122024801Y-74286841D01*
X122075874Y-74062042D01*
X122079551Y-73798736D01*
X122034774Y-73572599D01*
X121946927Y-73359466D01*
X121854930Y-73221000D01*
X122950998Y-73221000D01*
X123289999Y-73560000D01*
X123331158Y-73593808D01*
X123372014Y-73628090D01*
X123374673Y-73629552D01*
X123377017Y-73631477D01*
X123423970Y-73656653D01*
X123470696Y-73682341D01*
X123473588Y-73683258D01*
X123476262Y-73684692D01*
X123527220Y-73700271D01*
X123578035Y-73716391D01*
X123581050Y-73716729D01*
X123583951Y-73717616D01*
X123636932Y-73722997D01*
X123689944Y-73728944D01*
X123695880Y-73728985D01*
X123695986Y-73728996D01*
X123696084Y-73728986D01*
X123698000Y-73729000D01*
X133872998Y-73729000D01*
X134719999Y-74576001D01*
X134761215Y-74609856D01*
X134802014Y-74644090D01*
X134804669Y-74645550D01*
X134807017Y-74647478D01*
X134854044Y-74672693D01*
X134900696Y-74698341D01*
X134903584Y-74699257D01*
X134906262Y-74700693D01*
X134957307Y-74716299D01*
X135008035Y-74732391D01*
X135011045Y-74732728D01*
X135013951Y-74733617D01*
X135066981Y-74739003D01*
X135119944Y-74744944D01*
X135125880Y-74744985D01*
X135125986Y-74744996D01*
X135126084Y-74744986D01*
X135128000Y-74745000D01*
X137428998Y-74745000D01*
X143609999Y-80926001D01*
X143651215Y-80959856D01*
X143692014Y-80994090D01*
X143694669Y-80995550D01*
X143697017Y-80997478D01*
X143744009Y-81022674D01*
X143790696Y-81048341D01*
X143793588Y-81049258D01*
X143796262Y-81050692D01*
X143847261Y-81066284D01*
X143898035Y-81082391D01*
X143901045Y-81082728D01*
X143903951Y-81083617D01*
X143956981Y-81089003D01*
X144009944Y-81094944D01*
X144015880Y-81094985D01*
X144015986Y-81094996D01*
X144016084Y-81094986D01*
X144018000Y-81095000D01*
X147334998Y-81095000D01*
X148521000Y-82281001D01*
X148521000Y-89168998D01*
X148521000Y-89168998D01*
G37*
X148521000Y-89168998D02*
X147842998Y-89847000D01*
X147768364Y-89847000D01*
X147686253Y-89689937D01*
X147522309Y-89486031D01*
X147321882Y-89317853D01*
X147092606Y-89191807D01*
X146973777Y-89154112D01*
X147075350Y-89123446D01*
X147306364Y-89000614D01*
X147509120Y-88835251D01*
X147675895Y-88633654D01*
X147800337Y-88403503D01*
X147877706Y-88153565D01*
X147905054Y-87893359D01*
X147881341Y-87632797D01*
X147807470Y-87381802D01*
X147686253Y-87149937D01*
X147522309Y-86946031D01*
X147321882Y-86777853D01*
X147135000Y-86675113D01*
X147135000Y-86614000D01*
X147129799Y-86560957D01*
X147125153Y-86507860D01*
X147124307Y-86504949D01*
X147124011Y-86501927D01*
X147108598Y-86450876D01*
X147093736Y-86399720D01*
X147092340Y-86397026D01*
X147091463Y-86394122D01*
X147066435Y-86347050D01*
X147041913Y-86299743D01*
X147040020Y-86297372D01*
X147038596Y-86294693D01*
X147004913Y-86253394D01*
X146971657Y-86211735D01*
X146967488Y-86207507D01*
X146967422Y-86207426D01*
X146967346Y-86207363D01*
X146966001Y-86205999D01*
X145823001Y-85062999D01*
X145781784Y-85029143D01*
X145740986Y-84994910D01*
X145738330Y-84993449D01*
X145735983Y-84991522D01*
X145688955Y-84966306D01*
X145642304Y-84940659D01*
X145639415Y-84939742D01*
X145636738Y-84938307D01*
X145585692Y-84922700D01*
X145534965Y-84906609D01*
X145531954Y-84906271D01*
X145529049Y-84905383D01*
X145476018Y-84899996D01*
X145423056Y-84894056D01*
X145417119Y-84894014D01*
X145417014Y-84894004D01*
X145416915Y-84894013D01*
X145415000Y-84894000D01*
X140731034Y-84894000D01*
X140731034Y-79171811D01*
X140701437Y-79022336D01*
X140643370Y-78881455D01*
X140559046Y-78754537D01*
X140451675Y-78646414D01*
X140325348Y-78561206D01*
X140184877Y-78502157D01*
X140035612Y-78471517D01*
X139883238Y-78470453D01*
X139733559Y-78499006D01*
X139592277Y-78556088D01*
X139464773Y-78639524D01*
X139355903Y-78746137D01*
X139269815Y-78871866D01*
X139209787Y-79011922D01*
X139178106Y-79160970D01*
X139177441Y-79208557D01*
X138783999Y-79601999D01*
X138750143Y-79643215D01*
X138715910Y-79684014D01*
X138714449Y-79686669D01*
X138712522Y-79689017D01*
X138687306Y-79736044D01*
X138661659Y-79782696D01*
X138660742Y-79785584D01*
X138659307Y-79788262D01*
X138643700Y-79839307D01*
X138627609Y-79890035D01*
X138627271Y-79893045D01*
X138626383Y-79895951D01*
X138620996Y-79948981D01*
X138615056Y-80001944D01*
X138615014Y-80007880D01*
X138615004Y-80007986D01*
X138615013Y-80008084D01*
X138615000Y-80010000D01*
X138615000Y-83312000D01*
X138620200Y-83365042D01*
X138624847Y-83418140D01*
X138625692Y-83421050D01*
X138625989Y-83424073D01*
X138641401Y-83475123D01*
X138656264Y-83526280D01*
X138657659Y-83528973D01*
X138658537Y-83531878D01*
X138683564Y-83578949D01*
X138708087Y-83626257D01*
X138709979Y-83628627D01*
X138711404Y-83631307D01*
X138745086Y-83672605D01*
X138778343Y-83714265D01*
X138782511Y-83718492D01*
X138782578Y-83718574D01*
X138782653Y-83718636D01*
X138783999Y-83720001D01*
X138795354Y-83731356D01*
X138794978Y-83758332D01*
X138822485Y-83908207D01*
X138878579Y-84049884D01*
X138961123Y-84177967D01*
X139066974Y-84287579D01*
X139192099Y-84374543D01*
X139331732Y-84435547D01*
X139480555Y-84468268D01*
X139632899Y-84471459D01*
X139782962Y-84444999D01*
X139925027Y-84389895D01*
X140053684Y-84308247D01*
X140164031Y-84203165D01*
X140251867Y-84078650D01*
X140313844Y-83939446D01*
X140347603Y-83790855D01*
X140350034Y-83616811D01*
X140320437Y-83467336D01*
X140262370Y-83326455D01*
X140178046Y-83199537D01*
X140070675Y-83091414D01*
X139944348Y-83006206D01*
X139803877Y-82947157D01*
X139769000Y-82939997D01*
X139769000Y-80249001D01*
X139992001Y-80026000D01*
X140013899Y-80026459D01*
X140163962Y-79999999D01*
X140306027Y-79944895D01*
X140434684Y-79863247D01*
X140545031Y-79758165D01*
X140632867Y-79633650D01*
X140694844Y-79494446D01*
X140728603Y-79345855D01*
X140731034Y-79171811D01*
X140731034Y-84894000D01*
X138811000Y-84894000D01*
X138757957Y-84899200D01*
X138704860Y-84903847D01*
X138701949Y-84904692D01*
X138698927Y-84904989D01*
X138647876Y-84920401D01*
X138596720Y-84935264D01*
X138594026Y-84936659D01*
X138591122Y-84937537D01*
X138544050Y-84962564D01*
X138496743Y-84987087D01*
X138494372Y-84988979D01*
X138491693Y-84990404D01*
X138450394Y-85024086D01*
X138408735Y-85057343D01*
X138404507Y-85061511D01*
X138404426Y-85061578D01*
X138404363Y-85061653D01*
X138402999Y-85062999D01*
X137428998Y-86037000D01*
X136867182Y-86037000D01*
X136867182Y-84049316D01*
X136867182Y-81509316D01*
X136867182Y-78969316D01*
X136867182Y-76429316D01*
X136838709Y-76189599D01*
X136764018Y-75960042D01*
X136673404Y-75790515D01*
X136463495Y-75729743D01*
X136360257Y-75832981D01*
X136360257Y-75626505D01*
X136299485Y-75416596D01*
X136084348Y-75307090D01*
X135851982Y-75241659D01*
X135611316Y-75222818D01*
X135371599Y-75251291D01*
X135142042Y-75325982D01*
X134972515Y-75416596D01*
X134911743Y-75626505D01*
X135636000Y-76350762D01*
X136360257Y-75626505D01*
X136360257Y-75832981D01*
X135739238Y-76454000D01*
X136463495Y-77178257D01*
X136673404Y-77117485D01*
X136782910Y-76902348D01*
X136848341Y-76669982D01*
X136867182Y-76429316D01*
X136867182Y-78969316D01*
X136838709Y-78729599D01*
X136764018Y-78500042D01*
X136673404Y-78330515D01*
X136463495Y-78269743D01*
X136360257Y-78372981D01*
X136360257Y-78166505D01*
X136360257Y-77281495D01*
X135636000Y-76557238D01*
X135532762Y-76660476D01*
X135532762Y-76454000D01*
X134808505Y-75729743D01*
X134598596Y-75790515D01*
X134489090Y-76005652D01*
X134423659Y-76238018D01*
X134404818Y-76478684D01*
X134433291Y-76718401D01*
X134507982Y-76947958D01*
X134598596Y-77117485D01*
X134808505Y-77178257D01*
X135532762Y-76454000D01*
X135532762Y-76660476D01*
X134911743Y-77281495D01*
X134972515Y-77491404D01*
X135187652Y-77600910D01*
X135420018Y-77666341D01*
X135660684Y-77685182D01*
X135900401Y-77656709D01*
X136129958Y-77582018D01*
X136299485Y-77491404D01*
X136360257Y-77281495D01*
X136360257Y-78166505D01*
X136299485Y-77956596D01*
X136084348Y-77847090D01*
X135851982Y-77781659D01*
X135611316Y-77762818D01*
X135371599Y-77791291D01*
X135142042Y-77865982D01*
X134972515Y-77956596D01*
X134911743Y-78166505D01*
X135636000Y-78890762D01*
X136360257Y-78166505D01*
X136360257Y-78372981D01*
X135739238Y-78994000D01*
X136463495Y-79718257D01*
X136673404Y-79657485D01*
X136782910Y-79442348D01*
X136848341Y-79209982D01*
X136867182Y-78969316D01*
X136867182Y-81509316D01*
X136838709Y-81269599D01*
X136764018Y-81040042D01*
X136673404Y-80870515D01*
X136463495Y-80809743D01*
X136360257Y-80912981D01*
X136360257Y-80706505D01*
X136360257Y-79821495D01*
X135636000Y-79097238D01*
X135532762Y-79200476D01*
X135532762Y-78994000D01*
X134808505Y-78269743D01*
X134598596Y-78330515D01*
X134489090Y-78545652D01*
X134423659Y-78778018D01*
X134404818Y-79018684D01*
X134433291Y-79258401D01*
X134507982Y-79487958D01*
X134598596Y-79657485D01*
X134808505Y-79718257D01*
X135532762Y-78994000D01*
X135532762Y-79200476D01*
X134911743Y-79821495D01*
X134972515Y-80031404D01*
X135187652Y-80140910D01*
X135420018Y-80206341D01*
X135660684Y-80225182D01*
X135900401Y-80196709D01*
X136129958Y-80122018D01*
X136299485Y-80031404D01*
X136360257Y-79821495D01*
X136360257Y-80706505D01*
X136299485Y-80496596D01*
X136084348Y-80387090D01*
X135851982Y-80321659D01*
X135611316Y-80302818D01*
X135371599Y-80331291D01*
X135142042Y-80405982D01*
X134972515Y-80496596D01*
X134911743Y-80706505D01*
X135636000Y-81430762D01*
X136360257Y-80706505D01*
X136360257Y-80912981D01*
X135739238Y-81534000D01*
X136463495Y-82258257D01*
X136673404Y-82197485D01*
X136782910Y-81982348D01*
X136848341Y-81749982D01*
X136867182Y-81509316D01*
X136867182Y-84049316D01*
X136838709Y-83809599D01*
X136764018Y-83580042D01*
X136673404Y-83410515D01*
X136463495Y-83349743D01*
X136360257Y-83452981D01*
X136360257Y-83246505D01*
X136360257Y-82361495D01*
X135636000Y-81637238D01*
X135532762Y-81740476D01*
X135532762Y-81534000D01*
X134808505Y-80809743D01*
X134598596Y-80870515D01*
X134489090Y-81085652D01*
X134423659Y-81318018D01*
X134404818Y-81558684D01*
X134433291Y-81798401D01*
X134507982Y-82027958D01*
X134598596Y-82197485D01*
X134808505Y-82258257D01*
X135532762Y-81534000D01*
X135532762Y-81740476D01*
X134911743Y-82361495D01*
X134972515Y-82571404D01*
X135187652Y-82680910D01*
X135420018Y-82746341D01*
X135660684Y-82765182D01*
X135900401Y-82736709D01*
X136129958Y-82662018D01*
X136299485Y-82571404D01*
X136360257Y-82361495D01*
X136360257Y-83246505D01*
X136299485Y-83036596D01*
X136084348Y-82927090D01*
X135851982Y-82861659D01*
X135611316Y-82842818D01*
X135371599Y-82871291D01*
X135142042Y-82945982D01*
X134972515Y-83036596D01*
X134911743Y-83246505D01*
X135636000Y-83970762D01*
X136360257Y-83246505D01*
X136360257Y-83452981D01*
X135739238Y-84074000D01*
X136463495Y-84798257D01*
X136673404Y-84737485D01*
X136782910Y-84522348D01*
X136848341Y-84289982D01*
X136867182Y-84049316D01*
X136867182Y-86037000D01*
X136360257Y-86037000D01*
X136360257Y-84901495D01*
X135636000Y-84177238D01*
X135532762Y-84280476D01*
X135532762Y-84074000D01*
X134808505Y-83349743D01*
X134598596Y-83410515D01*
X134489090Y-83625652D01*
X134423659Y-83858018D01*
X134404818Y-84098684D01*
X134433291Y-84338401D01*
X134507982Y-84567958D01*
X134598596Y-84737485D01*
X134808505Y-84798257D01*
X135532762Y-84074000D01*
X135532762Y-84280476D01*
X134911743Y-84901495D01*
X134972515Y-85111404D01*
X135187652Y-85220910D01*
X135420018Y-85286341D01*
X135660684Y-85305182D01*
X135900401Y-85276709D01*
X136129958Y-85202018D01*
X136299485Y-85111404D01*
X136360257Y-84901495D01*
X136360257Y-86037000D01*
X129193808Y-86037000D01*
X129193808Y-77152500D01*
X129193808Y-75755500D01*
X129187517Y-75678096D01*
X129147351Y-75549645D01*
X129073058Y-75437425D01*
X128970496Y-75350282D01*
X128847751Y-75295087D01*
X128714500Y-75276192D01*
X127317500Y-75276192D01*
X127240096Y-75282483D01*
X127111645Y-75322649D01*
X126999425Y-75396942D01*
X126912282Y-75499504D01*
X126857087Y-75622249D01*
X126838192Y-75755500D01*
X126838192Y-77152500D01*
X126844483Y-77229904D01*
X126884649Y-77358355D01*
X126958942Y-77470575D01*
X127061504Y-77557718D01*
X127184249Y-77612913D01*
X127317500Y-77631808D01*
X128714500Y-77631808D01*
X128791904Y-77625517D01*
X128920355Y-77585351D01*
X129032575Y-77511058D01*
X129119718Y-77408496D01*
X129174913Y-77285751D01*
X129193808Y-77152500D01*
X129193808Y-86037000D01*
X129191551Y-86037000D01*
X129191551Y-83958736D01*
X129191551Y-81418736D01*
X129191551Y-78878736D01*
X129146774Y-78652599D01*
X129058927Y-78439466D01*
X128931355Y-78247455D01*
X128768918Y-78083879D01*
X128577802Y-77954970D01*
X128365287Y-77865637D01*
X128139468Y-77819283D01*
X127908946Y-77817673D01*
X127682502Y-77860870D01*
X127468760Y-77947227D01*
X127275863Y-78073455D01*
X127111157Y-78234747D01*
X126980917Y-78424958D01*
X126890103Y-78636844D01*
X126842173Y-78862334D01*
X126838955Y-79092839D01*
X126880569Y-79319580D01*
X126965432Y-79533919D01*
X127090311Y-79727692D01*
X127250449Y-79893520D01*
X127439746Y-80025085D01*
X127650993Y-80117377D01*
X127876143Y-80166879D01*
X128106620Y-80171707D01*
X128333645Y-80131676D01*
X128548571Y-80048312D01*
X128743212Y-79924789D01*
X128910153Y-79765813D01*
X129043037Y-79577438D01*
X129136801Y-79366841D01*
X129187874Y-79142042D01*
X129191551Y-78878736D01*
X129191551Y-81418736D01*
X129146774Y-81192599D01*
X129058927Y-80979466D01*
X128931355Y-80787455D01*
X128768918Y-80623879D01*
X128577802Y-80494970D01*
X128365287Y-80405637D01*
X128139468Y-80359283D01*
X127908946Y-80357673D01*
X127682502Y-80400870D01*
X127468760Y-80487227D01*
X127275863Y-80613455D01*
X127111157Y-80774747D01*
X126980917Y-80964958D01*
X126890103Y-81176844D01*
X126842173Y-81402334D01*
X126838955Y-81632839D01*
X126880569Y-81859580D01*
X126965432Y-82073919D01*
X127090311Y-82267692D01*
X127250449Y-82433520D01*
X127439746Y-82565085D01*
X127650993Y-82657377D01*
X127876143Y-82706879D01*
X128106620Y-82711707D01*
X128333645Y-82671676D01*
X128548571Y-82588312D01*
X128743212Y-82464789D01*
X128910153Y-82305813D01*
X129043037Y-82117438D01*
X129136801Y-81906841D01*
X129187874Y-81682042D01*
X129191551Y-81418736D01*
X129191551Y-83958736D01*
X129146774Y-83732599D01*
X129058927Y-83519466D01*
X128931355Y-83327455D01*
X128768918Y-83163879D01*
X128577802Y-83034970D01*
X128365287Y-82945637D01*
X128139468Y-82899283D01*
X127908946Y-82897673D01*
X127682502Y-82940870D01*
X127468760Y-83027227D01*
X127275863Y-83153455D01*
X127111157Y-83314747D01*
X126980917Y-83504958D01*
X126890103Y-83716844D01*
X126842173Y-83942334D01*
X126838955Y-84172839D01*
X126880569Y-84399580D01*
X126965432Y-84613919D01*
X127090311Y-84807692D01*
X127250449Y-84973520D01*
X127439746Y-85105085D01*
X127650993Y-85197377D01*
X127876143Y-85246879D01*
X128106620Y-85251707D01*
X128333645Y-85211676D01*
X128548571Y-85128312D01*
X128743212Y-85004789D01*
X128910153Y-84845813D01*
X129043037Y-84657438D01*
X129136801Y-84446841D01*
X129187874Y-84222042D01*
X129191551Y-83958736D01*
X129191551Y-86037000D01*
X127747001Y-86037000D01*
X125799000Y-84088998D01*
X125799000Y-77724000D01*
X125793799Y-77670957D01*
X125789153Y-77617860D01*
X125788307Y-77614949D01*
X125788011Y-77611927D01*
X125772598Y-77560876D01*
X125757736Y-77509720D01*
X125756340Y-77507026D01*
X125755463Y-77504122D01*
X125730435Y-77457050D01*
X125705913Y-77409743D01*
X125704020Y-77407372D01*
X125702596Y-77404693D01*
X125668913Y-77363394D01*
X125635657Y-77321735D01*
X125631492Y-77317511D01*
X125631422Y-77317426D01*
X125631342Y-77317360D01*
X125630000Y-77315999D01*
X124360001Y-76045999D01*
X124318784Y-76012143D01*
X124277986Y-75977910D01*
X124275330Y-75976449D01*
X124272983Y-75974522D01*
X124225955Y-75949306D01*
X124179304Y-75923659D01*
X124176415Y-75922742D01*
X124173738Y-75921307D01*
X124122692Y-75905700D01*
X124071965Y-75889609D01*
X124068954Y-75889271D01*
X124066049Y-75888383D01*
X124013018Y-75882996D01*
X123960056Y-75877056D01*
X123954119Y-75877014D01*
X123954014Y-75877004D01*
X123953915Y-75877013D01*
X123952000Y-75877000D01*
X121932000Y-75877000D01*
X121819355Y-75707455D01*
X121656918Y-75543879D01*
X121465802Y-75414970D01*
X121253287Y-75325637D01*
X121027468Y-75279283D01*
X120796946Y-75277673D01*
X120570502Y-75320870D01*
X120356760Y-75407227D01*
X120163863Y-75533455D01*
X119999157Y-75694747D01*
X119868917Y-75884958D01*
X119778103Y-76096844D01*
X119730173Y-76322334D01*
X119726955Y-76552839D01*
X119768569Y-76779580D01*
X119853432Y-76993919D01*
X119978311Y-77187692D01*
X120138449Y-77353520D01*
X120327746Y-77485085D01*
X120538993Y-77577377D01*
X120764143Y-77626879D01*
X120994620Y-77631707D01*
X121221645Y-77591676D01*
X121436571Y-77508312D01*
X121631212Y-77384789D01*
X121798153Y-77225813D01*
X121931037Y-77037438D01*
X121933903Y-77031000D01*
X123712998Y-77031000D01*
X124645000Y-77963001D01*
X124645000Y-84328000D01*
X124650200Y-84381042D01*
X124654847Y-84434140D01*
X124655692Y-84437050D01*
X124655989Y-84440073D01*
X124671401Y-84491123D01*
X124686264Y-84542280D01*
X124687659Y-84544973D01*
X124688537Y-84547878D01*
X124713564Y-84594949D01*
X124738087Y-84642257D01*
X124739979Y-84644627D01*
X124741404Y-84647307D01*
X124775086Y-84688605D01*
X124808343Y-84730265D01*
X124812511Y-84734492D01*
X124812578Y-84734574D01*
X124812653Y-84734636D01*
X124813999Y-84736001D01*
X127099999Y-87022000D01*
X127141185Y-87055831D01*
X127182014Y-87090090D01*
X127184670Y-87091550D01*
X127187017Y-87093478D01*
X127234009Y-87118674D01*
X127280696Y-87144341D01*
X127283588Y-87145258D01*
X127286262Y-87146692D01*
X127337261Y-87162284D01*
X127388035Y-87178391D01*
X127391045Y-87178728D01*
X127393951Y-87179617D01*
X127446981Y-87185003D01*
X127499944Y-87190944D01*
X127505880Y-87190985D01*
X127505986Y-87190996D01*
X127506084Y-87190986D01*
X127508000Y-87191000D01*
X135396890Y-87191000D01*
X135345876Y-87206401D01*
X135294720Y-87221264D01*
X135292027Y-87222659D01*
X135289122Y-87223537D01*
X135242011Y-87248585D01*
X135194743Y-87273088D01*
X135192376Y-87274977D01*
X135189693Y-87276404D01*
X135148367Y-87310108D01*
X135106735Y-87343343D01*
X135102511Y-87347507D01*
X135102426Y-87347578D01*
X135102360Y-87347657D01*
X135100999Y-87349000D01*
X133946321Y-88503677D01*
X133914238Y-88503453D01*
X133764559Y-88532006D01*
X133623277Y-88589088D01*
X133495773Y-88672524D01*
X133386903Y-88779137D01*
X133300815Y-88904866D01*
X133240787Y-89044922D01*
X133209106Y-89193970D01*
X133206978Y-89346332D01*
X133234485Y-89496207D01*
X133290579Y-89637884D01*
X133373123Y-89765967D01*
X133451375Y-89847000D01*
X123429001Y-89847000D01*
X122079551Y-88497549D01*
X122079551Y-83958736D01*
X122079551Y-81418736D01*
X122079551Y-78878736D01*
X122034774Y-78652599D01*
X121946927Y-78439466D01*
X121819355Y-78247455D01*
X121656918Y-78083879D01*
X121465802Y-77954970D01*
X121253287Y-77865637D01*
X121027468Y-77819283D01*
X120796946Y-77817673D01*
X120570502Y-77860870D01*
X120356760Y-77947227D01*
X120163863Y-78073455D01*
X119999157Y-78234747D01*
X119868917Y-78424958D01*
X119778103Y-78636844D01*
X119730173Y-78862334D01*
X119726955Y-79092839D01*
X119768569Y-79319580D01*
X119853432Y-79533919D01*
X119978311Y-79727692D01*
X120138449Y-79893520D01*
X120327746Y-80025085D01*
X120538993Y-80117377D01*
X120764143Y-80166879D01*
X120994620Y-80171707D01*
X121221645Y-80131676D01*
X121436571Y-80048312D01*
X121631212Y-79924789D01*
X121798153Y-79765813D01*
X121931037Y-79577438D01*
X122024801Y-79366841D01*
X122075874Y-79142042D01*
X122079551Y-78878736D01*
X122079551Y-81418736D01*
X122034774Y-81192599D01*
X121946927Y-80979466D01*
X121819355Y-80787455D01*
X121656918Y-80623879D01*
X121465802Y-80494970D01*
X121253287Y-80405637D01*
X121027468Y-80359283D01*
X120796946Y-80357673D01*
X120570502Y-80400870D01*
X120356760Y-80487227D01*
X120163863Y-80613455D01*
X119999157Y-80774747D01*
X119868917Y-80964958D01*
X119778103Y-81176844D01*
X119730173Y-81402334D01*
X119726955Y-81632839D01*
X119768569Y-81859580D01*
X119853432Y-82073919D01*
X119978311Y-82267692D01*
X120138449Y-82433520D01*
X120327746Y-82565085D01*
X120538993Y-82657377D01*
X120764143Y-82706879D01*
X120994620Y-82711707D01*
X121221645Y-82671676D01*
X121436571Y-82588312D01*
X121631212Y-82464789D01*
X121798153Y-82305813D01*
X121931037Y-82117438D01*
X122024801Y-81906841D01*
X122075874Y-81682042D01*
X122079551Y-81418736D01*
X122079551Y-83958736D01*
X122034774Y-83732599D01*
X121946927Y-83519466D01*
X121819355Y-83327455D01*
X121656918Y-83163879D01*
X121465802Y-83034970D01*
X121253287Y-82945637D01*
X121027468Y-82899283D01*
X120796946Y-82897673D01*
X120570502Y-82940870D01*
X120356760Y-83027227D01*
X120163863Y-83153455D01*
X119999157Y-83314747D01*
X119868917Y-83504958D01*
X119778103Y-83716844D01*
X119730173Y-83942334D01*
X119726955Y-84172839D01*
X119768569Y-84399580D01*
X119853432Y-84613919D01*
X119978311Y-84807692D01*
X120138449Y-84973520D01*
X120327746Y-85105085D01*
X120538993Y-85197377D01*
X120764143Y-85246879D01*
X120994620Y-85251707D01*
X121221645Y-85211676D01*
X121436571Y-85128312D01*
X121631212Y-85004789D01*
X121798153Y-84845813D01*
X121931037Y-84657438D01*
X122024801Y-84446841D01*
X122075874Y-84222042D01*
X122079551Y-83958736D01*
X122079551Y-88497549D01*
X119449000Y-85866998D01*
X119449000Y-76185002D01*
X120586237Y-75047764D01*
X120764143Y-75086879D01*
X120994620Y-75091707D01*
X121221645Y-75051676D01*
X121436571Y-74968312D01*
X121631212Y-74844789D01*
X121798153Y-74685813D01*
X121931037Y-74497438D01*
X122024801Y-74286841D01*
X122075874Y-74062042D01*
X122079551Y-73798736D01*
X122034774Y-73572599D01*
X121946927Y-73359466D01*
X121854930Y-73221000D01*
X122950998Y-73221000D01*
X123289999Y-73560000D01*
X123331158Y-73593808D01*
X123372014Y-73628090D01*
X123374673Y-73629552D01*
X123377017Y-73631477D01*
X123423970Y-73656653D01*
X123470696Y-73682341D01*
X123473588Y-73683258D01*
X123476262Y-73684692D01*
X123527220Y-73700271D01*
X123578035Y-73716391D01*
X123581050Y-73716729D01*
X123583951Y-73717616D01*
X123636932Y-73722997D01*
X123689944Y-73728944D01*
X123695880Y-73728985D01*
X123695986Y-73728996D01*
X123696084Y-73728986D01*
X123698000Y-73729000D01*
X133872998Y-73729000D01*
X134719999Y-74576001D01*
X134761215Y-74609856D01*
X134802014Y-74644090D01*
X134804669Y-74645550D01*
X134807017Y-74647478D01*
X134854044Y-74672693D01*
X134900696Y-74698341D01*
X134903584Y-74699257D01*
X134906262Y-74700693D01*
X134957307Y-74716299D01*
X135008035Y-74732391D01*
X135011045Y-74732728D01*
X135013951Y-74733617D01*
X135066981Y-74739003D01*
X135119944Y-74744944D01*
X135125880Y-74744985D01*
X135125986Y-74744996D01*
X135126084Y-74744986D01*
X135128000Y-74745000D01*
X137428998Y-74745000D01*
X143609999Y-80926001D01*
X143651215Y-80959856D01*
X143692014Y-80994090D01*
X143694669Y-80995550D01*
X143697017Y-80997478D01*
X143744009Y-81022674D01*
X143790696Y-81048341D01*
X143793588Y-81049258D01*
X143796262Y-81050692D01*
X143847261Y-81066284D01*
X143898035Y-81082391D01*
X143901045Y-81082728D01*
X143903951Y-81083617D01*
X143956981Y-81089003D01*
X144009944Y-81094944D01*
X144015880Y-81094985D01*
X144015986Y-81094996D01*
X144016084Y-81094986D01*
X144018000Y-81095000D01*
X147334998Y-81095000D01*
X148521000Y-82281001D01*
X148521000Y-89168998D01*
G36*
X149383000Y-98583000D02*
X114459551Y-98583000D01*
X114459551Y-83958736D01*
X114459551Y-81418736D01*
X114414774Y-81192599D01*
X114326927Y-80979466D01*
X114199355Y-80787455D01*
X114036918Y-80623879D01*
X113845802Y-80494970D01*
X113633287Y-80405637D01*
X113407468Y-80359283D01*
X113176946Y-80357673D01*
X112950502Y-80400870D01*
X112736760Y-80487227D01*
X112543863Y-80613455D01*
X112379157Y-80774747D01*
X112248917Y-80964958D01*
X112158103Y-81176844D01*
X112110173Y-81402334D01*
X112106955Y-81632839D01*
X112148569Y-81859580D01*
X112233432Y-82073919D01*
X112358311Y-82267692D01*
X112518449Y-82433520D01*
X112707746Y-82565085D01*
X112918993Y-82657377D01*
X113144143Y-82706879D01*
X113374620Y-82711707D01*
X113601645Y-82671676D01*
X113816571Y-82588312D01*
X114011212Y-82464789D01*
X114178153Y-82305813D01*
X114311037Y-82117438D01*
X114404801Y-81906841D01*
X114455874Y-81682042D01*
X114459551Y-81418736D01*
X114459551Y-83958736D01*
X114414774Y-83732599D01*
X114326927Y-83519466D01*
X114199355Y-83327455D01*
X114036918Y-83163879D01*
X113845802Y-83034970D01*
X113633287Y-82945637D01*
X113407468Y-82899283D01*
X113176946Y-82897673D01*
X112950502Y-82940870D01*
X112736760Y-83027227D01*
X112543863Y-83153455D01*
X112379157Y-83314747D01*
X112248917Y-83504958D01*
X112158103Y-83716844D01*
X112110173Y-83942334D01*
X112106955Y-84172839D01*
X112148569Y-84399580D01*
X112233432Y-84613919D01*
X112358311Y-84807692D01*
X112518449Y-84973520D01*
X112707746Y-85105085D01*
X112918993Y-85197377D01*
X113144143Y-85246879D01*
X113374620Y-85251707D01*
X113601645Y-85211676D01*
X113816571Y-85128312D01*
X114011212Y-85004789D01*
X114178153Y-84845813D01*
X114311037Y-84657438D01*
X114404801Y-84446841D01*
X114455874Y-84222042D01*
X114459551Y-83958736D01*
X114459551Y-98583000D01*
X103347000Y-98583000D01*
X103347000Y-50007000D01*
X149383000Y-50007000D01*
X149383000Y-81510998D01*
X147982001Y-80109999D01*
X147940784Y-80076143D01*
X147899986Y-80041910D01*
X147897330Y-80040449D01*
X147894983Y-80038522D01*
X147847955Y-80013306D01*
X147801304Y-79987659D01*
X147798415Y-79986742D01*
X147795738Y-79985307D01*
X147744692Y-79969700D01*
X147693965Y-79953609D01*
X147690954Y-79953271D01*
X147688049Y-79952383D01*
X147635018Y-79946996D01*
X147582056Y-79941056D01*
X147576119Y-79941014D01*
X147576014Y-79941004D01*
X147575915Y-79941013D01*
X147574000Y-79941000D01*
X144257002Y-79941000D01*
X138076001Y-73759999D01*
X138034784Y-73726143D01*
X137993986Y-73691910D01*
X137991330Y-73690449D01*
X137988983Y-73688522D01*
X137941955Y-73663306D01*
X137895304Y-73637659D01*
X137892415Y-73636742D01*
X137889738Y-73635307D01*
X137838692Y-73619700D01*
X137787965Y-73603609D01*
X137784954Y-73603271D01*
X137782049Y-73602383D01*
X137729018Y-73596996D01*
X137676056Y-73591056D01*
X137670119Y-73591014D01*
X137670014Y-73591004D01*
X137669915Y-73591013D01*
X137668000Y-73591000D01*
X135367002Y-73591000D01*
X134520001Y-72743999D01*
X134482261Y-72713000D01*
X146812000Y-72713000D01*
X146865042Y-72707799D01*
X146918140Y-72703153D01*
X146921050Y-72702307D01*
X146924073Y-72702011D01*
X146975123Y-72686598D01*
X147026280Y-72671736D01*
X147028973Y-72670340D01*
X147031878Y-72669463D01*
X147078949Y-72644435D01*
X147126257Y-72619913D01*
X147128627Y-72618020D01*
X147131307Y-72616596D01*
X147172605Y-72582913D01*
X147214265Y-72549657D01*
X147218492Y-72545488D01*
X147218574Y-72545422D01*
X147218636Y-72545346D01*
X147220001Y-72544001D01*
X148998001Y-70766000D01*
X149031817Y-70724831D01*
X149066090Y-70683986D01*
X149067551Y-70681327D01*
X149069478Y-70678982D01*
X149094682Y-70631976D01*
X149120341Y-70585304D01*
X149121257Y-70582415D01*
X149122693Y-70579738D01*
X149138295Y-70528705D01*
X149154391Y-70477965D01*
X149154728Y-70474952D01*
X149155617Y-70472048D01*
X149161007Y-70418978D01*
X149166944Y-70366056D01*
X149166985Y-70360130D01*
X149166997Y-70360014D01*
X149166986Y-70359905D01*
X149167000Y-70358000D01*
X149167000Y-61722000D01*
X149161794Y-61668912D01*
X149157153Y-61615860D01*
X149156307Y-61612949D01*
X149156011Y-61609927D01*
X149140598Y-61558876D01*
X149125736Y-61507720D01*
X149124340Y-61505026D01*
X149123463Y-61502122D01*
X149098435Y-61455050D01*
X149073913Y-61407743D01*
X149072020Y-61405372D01*
X149070596Y-61402693D01*
X149036913Y-61361394D01*
X149003657Y-61319735D01*
X148999492Y-61315511D01*
X148999422Y-61315426D01*
X148999342Y-61315360D01*
X148998000Y-61313999D01*
X148617001Y-60932999D01*
X148575784Y-60899143D01*
X148534986Y-60864910D01*
X148532330Y-60863449D01*
X148529983Y-60861522D01*
X148482955Y-60836306D01*
X148436304Y-60810659D01*
X148433415Y-60809742D01*
X148430738Y-60808307D01*
X148379692Y-60792700D01*
X148328965Y-60776609D01*
X148325954Y-60776271D01*
X148323049Y-60775383D01*
X148270018Y-60769996D01*
X148217056Y-60764056D01*
X148211119Y-60764014D01*
X148211014Y-60764004D01*
X148210915Y-60764013D01*
X148209000Y-60764000D01*
X147514364Y-60764000D01*
X147432253Y-60606937D01*
X147268309Y-60403031D01*
X147067882Y-60234853D01*
X146838606Y-60108807D01*
X146719777Y-60071112D01*
X146821350Y-60040446D01*
X147052364Y-59917614D01*
X147255120Y-59752251D01*
X147421895Y-59550654D01*
X147546337Y-59320503D01*
X147623706Y-59070565D01*
X147651054Y-58810359D01*
X147627341Y-58549797D01*
X147553470Y-58298802D01*
X147432253Y-58066937D01*
X147268309Y-57863031D01*
X147067882Y-57694853D01*
X146838606Y-57568807D01*
X146719777Y-57531112D01*
X146821350Y-57500446D01*
X147052364Y-57377614D01*
X147255120Y-57212251D01*
X147421895Y-57010654D01*
X147546337Y-56780503D01*
X147623706Y-56530565D01*
X147651054Y-56270359D01*
X147627341Y-56009797D01*
X147553470Y-55758802D01*
X147432253Y-55526937D01*
X147268309Y-55323031D01*
X147067882Y-55154853D01*
X146881000Y-55052113D01*
X146881000Y-54928729D01*
X147052364Y-54837614D01*
X147255120Y-54672251D01*
X147421895Y-54470654D01*
X147546337Y-54240503D01*
X147623706Y-53990565D01*
X147651054Y-53730359D01*
X147627341Y-53469797D01*
X147553470Y-53218802D01*
X147432253Y-52986937D01*
X147268309Y-52783031D01*
X147067882Y-52614853D01*
X146838799Y-52488913D01*
X146838340Y-52488026D01*
X146837463Y-52485122D01*
X146812435Y-52438050D01*
X146787913Y-52390743D01*
X146786020Y-52388372D01*
X146784596Y-52385693D01*
X146750913Y-52344394D01*
X146717657Y-52302735D01*
X146713488Y-52298507D01*
X146713422Y-52298426D01*
X146713346Y-52298363D01*
X146712001Y-52296999D01*
X145696001Y-51280999D01*
X145654784Y-51247143D01*
X145613986Y-51212910D01*
X145611330Y-51211449D01*
X145608983Y-51209522D01*
X145561955Y-51184306D01*
X145515304Y-51158659D01*
X145512415Y-51157742D01*
X145509738Y-51156307D01*
X145458692Y-51140700D01*
X145407965Y-51124609D01*
X145404954Y-51124271D01*
X145402049Y-51123383D01*
X145349018Y-51117996D01*
X145296056Y-51112056D01*
X145290119Y-51112014D01*
X145290014Y-51112004D01*
X145289915Y-51112013D01*
X145288000Y-51112000D01*
X140462000Y-51112000D01*
X140408957Y-51117200D01*
X140355860Y-51121847D01*
X140352949Y-51122692D01*
X140349927Y-51122989D01*
X140298863Y-51138405D01*
X140247721Y-51153264D01*
X140245029Y-51154659D01*
X140242122Y-51155537D01*
X140195032Y-51180574D01*
X140147743Y-51205087D01*
X140145372Y-51206979D01*
X140142693Y-51208404D01*
X140101394Y-51242086D01*
X140059735Y-51275343D01*
X140055507Y-51279511D01*
X140055426Y-51279578D01*
X140055363Y-51279653D01*
X140053999Y-51280999D01*
X138021999Y-53312999D01*
X137988143Y-53354215D01*
X137953910Y-53395014D01*
X137952449Y-53397669D01*
X137950522Y-53400017D01*
X137925306Y-53447044D01*
X137899659Y-53493696D01*
X137898742Y-53496584D01*
X137897307Y-53499262D01*
X137881700Y-53550307D01*
X137865609Y-53601035D01*
X137865271Y-53604045D01*
X137864383Y-53606951D01*
X137858996Y-53659981D01*
X137853056Y-53712944D01*
X137853014Y-53718880D01*
X137853004Y-53718986D01*
X137853013Y-53719084D01*
X137853000Y-53721000D01*
X137853000Y-54341477D01*
X137831903Y-54362137D01*
X137745815Y-54487866D01*
X137685787Y-54627922D01*
X137654106Y-54776970D01*
X137651978Y-54929332D01*
X137679485Y-55079207D01*
X137735579Y-55220884D01*
X137818123Y-55348967D01*
X137923974Y-55458579D01*
X138049099Y-55545543D01*
X138188732Y-55606547D01*
X138337555Y-55639268D01*
X138489899Y-55642459D01*
X138639962Y-55615999D01*
X138782027Y-55560895D01*
X138910684Y-55479247D01*
X139021031Y-55374165D01*
X139108867Y-55249650D01*
X139170844Y-55110446D01*
X139204603Y-54961855D01*
X139207034Y-54787811D01*
X139177437Y-54638336D01*
X139119370Y-54497455D01*
X139035046Y-54370537D01*
X139007000Y-54342294D01*
X139007000Y-53960002D01*
X140701002Y-52266000D01*
X145048998Y-52266000D01*
X145462964Y-52679966D01*
X145352880Y-52769749D01*
X145186105Y-52971346D01*
X145106908Y-53117818D01*
X145106908Y-52857400D01*
X145100617Y-52779996D01*
X145060451Y-52651545D01*
X144986158Y-52539325D01*
X144883596Y-52452182D01*
X144760851Y-52396987D01*
X144627600Y-52378092D01*
X142900400Y-52378092D01*
X142822996Y-52384383D01*
X142694545Y-52424549D01*
X142582325Y-52498842D01*
X142495182Y-52601404D01*
X142439987Y-52724149D01*
X142421092Y-52857400D01*
X142421092Y-54584600D01*
X142427383Y-54662004D01*
X142467549Y-54790455D01*
X142541842Y-54902675D01*
X142644404Y-54989818D01*
X142767149Y-55045013D01*
X142900400Y-55063908D01*
X143166993Y-55063908D01*
X143015636Y-55144386D01*
X142812880Y-55309749D01*
X142646105Y-55511346D01*
X142521663Y-55741497D01*
X142444294Y-55991435D01*
X142416946Y-56251641D01*
X142440659Y-56512203D01*
X142514530Y-56763198D01*
X142635747Y-56995063D01*
X142799691Y-57198969D01*
X143000118Y-57367147D01*
X143229394Y-57493193D01*
X143348222Y-57530887D01*
X143246650Y-57561554D01*
X143015636Y-57684386D01*
X142812880Y-57849749D01*
X142646105Y-58051346D01*
X142521663Y-58281497D01*
X142444294Y-58531435D01*
X142416946Y-58791641D01*
X142440659Y-59052203D01*
X142514530Y-59303198D01*
X142635747Y-59535063D01*
X142799691Y-59738969D01*
X143000118Y-59907147D01*
X143229394Y-60033193D01*
X143348222Y-60070887D01*
X143246650Y-60101554D01*
X143015636Y-60224386D01*
X142812880Y-60389749D01*
X142646105Y-60591346D01*
X142521663Y-60821497D01*
X142444294Y-61071435D01*
X142416946Y-61331641D01*
X142440659Y-61592203D01*
X142514530Y-61843198D01*
X142635747Y-62075063D01*
X142799691Y-62278969D01*
X143000118Y-62447147D01*
X143229394Y-62573193D01*
X143269706Y-62585980D01*
X143214864Y-62603414D01*
X142976171Y-62735094D01*
X142767754Y-62910810D01*
X142597622Y-63123810D01*
X142472313Y-63365908D01*
X142403834Y-63591661D01*
X142507268Y-63808000D01*
X143691000Y-63808000D01*
X143691000Y-63788000D01*
X143837000Y-63788000D01*
X143837000Y-63808000D01*
X143857000Y-63808000D01*
X143857000Y-63954000D01*
X143837000Y-63954000D01*
X143837000Y-63974000D01*
X143691000Y-63974000D01*
X143691000Y-63954000D01*
X142507268Y-63954000D01*
X142403834Y-64170339D01*
X142472313Y-64396092D01*
X142597622Y-64638190D01*
X142767754Y-64851190D01*
X142976171Y-65026906D01*
X143214864Y-65158586D01*
X143267405Y-65175287D01*
X143246650Y-65181554D01*
X143015636Y-65304386D01*
X142812880Y-65469749D01*
X142646105Y-65671346D01*
X142521663Y-65901497D01*
X142494203Y-65990204D01*
X142472735Y-66007342D01*
X142468506Y-66011512D01*
X142468426Y-66011578D01*
X142468364Y-66011652D01*
X142466999Y-66012999D01*
X139587998Y-68892000D01*
X138379416Y-68892000D01*
X138279877Y-68850157D01*
X138130612Y-68819517D01*
X137978238Y-68818453D01*
X137828559Y-68847006D01*
X137687277Y-68904088D01*
X137559773Y-68987524D01*
X137450903Y-69094137D01*
X137364815Y-69219866D01*
X137304787Y-69359922D01*
X137273106Y-69508970D01*
X137270978Y-69661332D01*
X137298485Y-69811207D01*
X137354579Y-69952884D01*
X137407499Y-70035000D01*
X136767566Y-70035000D01*
X136767566Y-56550339D01*
X136767566Y-55971661D01*
X136720083Y-55796283D01*
X136604198Y-55549121D01*
X136442321Y-55329316D01*
X136240673Y-55145315D01*
X136105882Y-55063908D01*
X136271000Y-55063908D01*
X136348404Y-55057617D01*
X136476855Y-55017451D01*
X136589075Y-54943158D01*
X136676218Y-54840596D01*
X136731413Y-54717851D01*
X136750308Y-54584600D01*
X136750308Y-52857400D01*
X136744017Y-52779996D01*
X136703851Y-52651545D01*
X136629558Y-52539325D01*
X136526996Y-52452182D01*
X136404251Y-52396987D01*
X136271000Y-52378092D01*
X134728093Y-52378092D01*
X132996001Y-50645999D01*
X132954784Y-50612143D01*
X132913986Y-50577910D01*
X132911330Y-50576449D01*
X132908983Y-50574522D01*
X132861955Y-50549306D01*
X132815304Y-50523659D01*
X132812415Y-50522742D01*
X132809738Y-50521307D01*
X132758692Y-50505700D01*
X132707965Y-50489609D01*
X132704954Y-50489271D01*
X132702049Y-50488383D01*
X132649018Y-50482996D01*
X132596056Y-50477056D01*
X132590119Y-50477014D01*
X132590014Y-50477004D01*
X132589915Y-50477013D01*
X132588000Y-50477000D01*
X129779001Y-50477000D01*
X129694001Y-50391999D01*
X129652784Y-50358143D01*
X129611986Y-50323910D01*
X129609330Y-50322449D01*
X129606983Y-50320522D01*
X129559955Y-50295306D01*
X129513304Y-50269659D01*
X129510415Y-50268742D01*
X129507738Y-50267307D01*
X129456692Y-50251700D01*
X129405965Y-50235609D01*
X129402954Y-50235271D01*
X129400049Y-50234383D01*
X129347018Y-50228996D01*
X129294056Y-50223056D01*
X129288119Y-50223014D01*
X129288014Y-50223004D01*
X129287915Y-50223013D01*
X129286000Y-50223000D01*
X124714000Y-50223000D01*
X119888000Y-50223000D01*
X119834957Y-50228200D01*
X119781860Y-50232847D01*
X119778949Y-50233692D01*
X119775927Y-50233989D01*
X119724876Y-50249401D01*
X119673720Y-50264264D01*
X119671026Y-50265659D01*
X119668122Y-50266537D01*
X119621050Y-50291564D01*
X119573743Y-50316087D01*
X119571372Y-50317979D01*
X119568693Y-50319404D01*
X119527394Y-50353086D01*
X119485735Y-50386343D01*
X119481507Y-50390511D01*
X119481426Y-50390578D01*
X119481363Y-50390653D01*
X119479999Y-50391999D01*
X118463999Y-51407999D01*
X118430143Y-51449215D01*
X118395910Y-51490014D01*
X118394449Y-51492669D01*
X118392522Y-51495017D01*
X118367306Y-51542044D01*
X118341659Y-51588696D01*
X118340742Y-51591584D01*
X118339307Y-51594262D01*
X118323700Y-51645307D01*
X118307609Y-51696035D01*
X118307271Y-51699045D01*
X118306383Y-51701951D01*
X118300996Y-51754981D01*
X118295056Y-51807944D01*
X118295014Y-51813880D01*
X118295004Y-51813986D01*
X118295013Y-51814084D01*
X118295000Y-51816000D01*
X118295000Y-56287000D01*
X116110000Y-56287000D01*
X116056998Y-56292196D01*
X116003861Y-56296846D01*
X116000945Y-56297693D01*
X115997927Y-56297989D01*
X115946892Y-56313397D01*
X115895721Y-56328264D01*
X115893029Y-56329659D01*
X115890122Y-56330537D01*
X115843012Y-56355585D01*
X115795744Y-56380087D01*
X115793375Y-56381977D01*
X115790693Y-56383404D01*
X115749379Y-56417099D01*
X115707736Y-56450342D01*
X115703511Y-56454508D01*
X115703426Y-56454578D01*
X115703360Y-56454657D01*
X115702000Y-56455999D01*
X112875999Y-59281999D01*
X112842143Y-59323215D01*
X112807910Y-59364014D01*
X112806449Y-59366669D01*
X112804522Y-59369017D01*
X112779306Y-59416044D01*
X112753659Y-59462696D01*
X112752742Y-59465584D01*
X112751307Y-59468262D01*
X112735700Y-59519307D01*
X112719609Y-59570035D01*
X112719271Y-59573045D01*
X112718383Y-59575951D01*
X112712996Y-59628981D01*
X112707056Y-59681944D01*
X112707014Y-59687880D01*
X112707004Y-59687986D01*
X112707013Y-59688084D01*
X112707000Y-59690000D01*
X112707000Y-60036192D01*
X112585500Y-60036192D01*
X112508096Y-60042483D01*
X112379645Y-60082649D01*
X112267425Y-60156942D01*
X112180282Y-60259504D01*
X112125087Y-60382249D01*
X112106192Y-60515500D01*
X112106192Y-61912500D01*
X112112483Y-61989904D01*
X112152649Y-62118355D01*
X112226942Y-62230575D01*
X112329504Y-62317718D01*
X112452249Y-62372913D01*
X112585500Y-62391808D01*
X113982500Y-62391808D01*
X114059904Y-62385517D01*
X114188355Y-62345351D01*
X114300575Y-62271058D01*
X114387718Y-62168496D01*
X114442913Y-62045751D01*
X114461808Y-61912500D01*
X114461808Y-60515500D01*
X114455517Y-60438096D01*
X114415351Y-60309645D01*
X114341058Y-60197425D01*
X114238496Y-60110282D01*
X114115751Y-60055087D01*
X113982500Y-60036192D01*
X113861000Y-60036192D01*
X113861000Y-59929001D01*
X116349001Y-57441000D01*
X119158000Y-57441000D01*
X120336692Y-57441000D01*
X120336692Y-57864000D01*
X120342983Y-57941404D01*
X120383149Y-58069855D01*
X120457442Y-58182075D01*
X120560004Y-58269218D01*
X120682749Y-58324413D01*
X120816000Y-58343308D01*
X122516000Y-58343308D01*
X122593404Y-58337017D01*
X122721855Y-58296851D01*
X122834075Y-58222558D01*
X122921218Y-58119996D01*
X122976413Y-57997251D01*
X122995308Y-57864000D01*
X122995308Y-55864000D01*
X122989017Y-55786596D01*
X122948851Y-55658145D01*
X122874558Y-55545925D01*
X122771996Y-55458782D01*
X122649251Y-55403587D01*
X122516000Y-55384692D01*
X120816000Y-55384692D01*
X120738596Y-55390983D01*
X120610145Y-55431149D01*
X120497925Y-55505442D01*
X120410782Y-55608004D01*
X120355587Y-55730749D01*
X120336692Y-55864000D01*
X120336692Y-56287000D01*
X119449000Y-56287000D01*
X119449000Y-52055002D01*
X120127002Y-51377000D01*
X124714000Y-51377000D01*
X129046998Y-51377000D01*
X129131999Y-51462000D01*
X129173185Y-51495831D01*
X129214014Y-51530090D01*
X129216670Y-51531550D01*
X129219017Y-51533478D01*
X129266009Y-51558674D01*
X129312696Y-51584341D01*
X129315588Y-51585258D01*
X129318262Y-51586692D01*
X129369261Y-51602284D01*
X129420035Y-51618391D01*
X129423045Y-51618728D01*
X129425951Y-51619617D01*
X129478981Y-51625003D01*
X129531944Y-51630944D01*
X129537880Y-51630985D01*
X129537986Y-51630996D01*
X129538084Y-51630986D01*
X129540000Y-51631000D01*
X132348998Y-51631000D01*
X133759692Y-53041693D01*
X133759692Y-54584600D01*
X133765983Y-54662004D01*
X133806149Y-54790455D01*
X133880442Y-54902675D01*
X133983004Y-54989818D01*
X134105749Y-55045013D01*
X134239000Y-55063908D01*
X134404117Y-55063908D01*
X134269327Y-55145315D01*
X134067679Y-55329316D01*
X133905802Y-55549121D01*
X133789917Y-55796283D01*
X133742434Y-55971661D01*
X133845868Y-56188000D01*
X135182000Y-56188000D01*
X135182000Y-56168000D01*
X135328000Y-56168000D01*
X135328000Y-56188000D01*
X136664132Y-56188000D01*
X136767566Y-55971661D01*
X136767566Y-56550339D01*
X136664132Y-56334000D01*
X135328000Y-56334000D01*
X135328000Y-56354000D01*
X135182000Y-56354000D01*
X135182000Y-56334000D01*
X133845868Y-56334000D01*
X133742434Y-56550339D01*
X133789917Y-56725717D01*
X133905802Y-56972879D01*
X134067679Y-57192684D01*
X134269327Y-57376685D01*
X134502997Y-57517811D01*
X134606015Y-57555062D01*
X134584513Y-57561554D01*
X134353499Y-57684386D01*
X134150743Y-57849749D01*
X133983968Y-58051346D01*
X133859526Y-58281497D01*
X133782157Y-58531435D01*
X133754809Y-58791641D01*
X133778522Y-59052203D01*
X133852393Y-59303198D01*
X133973610Y-59535063D01*
X134137554Y-59738969D01*
X134337981Y-59907147D01*
X134567257Y-60033193D01*
X134686085Y-60070887D01*
X134584513Y-60101554D01*
X134353499Y-60224386D01*
X134150743Y-60389749D01*
X133983968Y-60591346D01*
X133859526Y-60821497D01*
X133782157Y-61071435D01*
X133754809Y-61331641D01*
X133778522Y-61592203D01*
X133852393Y-61843198D01*
X133973610Y-62075063D01*
X134137554Y-62278969D01*
X134337981Y-62447147D01*
X134567257Y-62573193D01*
X134686085Y-62610887D01*
X134584513Y-62641554D01*
X134353499Y-62764386D01*
X134150743Y-62929749D01*
X133983968Y-63131346D01*
X133859526Y-63361497D01*
X133782157Y-63611435D01*
X133754809Y-63871641D01*
X133778522Y-64132203D01*
X133852393Y-64383198D01*
X133973610Y-64615063D01*
X134137554Y-64818969D01*
X134337981Y-64987147D01*
X134567257Y-65113193D01*
X134686085Y-65150887D01*
X134584513Y-65181554D01*
X134353499Y-65304386D01*
X134150743Y-65469749D01*
X133983968Y-65671346D01*
X133859526Y-65901497D01*
X133782157Y-66151435D01*
X133754809Y-66411641D01*
X133778522Y-66672203D01*
X133852393Y-66923198D01*
X133973610Y-67155063D01*
X134137554Y-67358969D01*
X134337981Y-67527147D01*
X134567257Y-67653193D01*
X134816650Y-67732305D01*
X135076658Y-67761469D01*
X135095376Y-67761600D01*
X135414624Y-67761600D01*
X135675015Y-67736068D01*
X135925487Y-67660446D01*
X136156501Y-67537614D01*
X136359257Y-67372251D01*
X136526032Y-67170654D01*
X136650474Y-66940503D01*
X136727843Y-66690565D01*
X136755191Y-66430359D01*
X136731478Y-66169797D01*
X136657607Y-65918802D01*
X136536390Y-65686937D01*
X136372446Y-65483031D01*
X136172019Y-65314853D01*
X135942743Y-65188807D01*
X135823914Y-65151112D01*
X135925487Y-65120446D01*
X136156501Y-64997614D01*
X136359257Y-64832251D01*
X136526032Y-64630654D01*
X136650474Y-64400503D01*
X136727843Y-64150565D01*
X136755191Y-63890359D01*
X136731478Y-63629797D01*
X136657607Y-63378802D01*
X136536390Y-63146937D01*
X136372446Y-62943031D01*
X136172019Y-62774853D01*
X135942743Y-62648807D01*
X135823914Y-62611112D01*
X135925487Y-62580446D01*
X136156501Y-62457614D01*
X136359257Y-62292251D01*
X136526032Y-62090654D01*
X136650474Y-61860503D01*
X136727843Y-61610565D01*
X136755191Y-61350359D01*
X136731478Y-61089797D01*
X136657607Y-60838802D01*
X136536390Y-60606937D01*
X136372446Y-60403031D01*
X136172019Y-60234853D01*
X135942743Y-60108807D01*
X135823914Y-60071112D01*
X135925487Y-60040446D01*
X136156501Y-59917614D01*
X136359257Y-59752251D01*
X136526032Y-59550654D01*
X136650474Y-59320503D01*
X136727843Y-59070565D01*
X136755191Y-58810359D01*
X136731478Y-58549797D01*
X136657607Y-58298802D01*
X136536390Y-58066937D01*
X136372446Y-57863031D01*
X136172019Y-57694853D01*
X135942743Y-57568807D01*
X135901848Y-57555834D01*
X136007003Y-57517811D01*
X136240673Y-57376685D01*
X136442321Y-57192684D01*
X136604198Y-56972879D01*
X136720083Y-56725717D01*
X136767566Y-56550339D01*
X136767566Y-70035000D01*
X132348090Y-70035000D01*
X132323675Y-70010414D01*
X132197348Y-69925206D01*
X132056877Y-69866157D01*
X131907612Y-69835517D01*
X131755238Y-69834453D01*
X131605559Y-69863006D01*
X131464277Y-69920088D01*
X131336773Y-70003524D01*
X131227903Y-70110137D01*
X131141815Y-70235866D01*
X131081787Y-70375922D01*
X131050106Y-70524970D01*
X131047978Y-70677332D01*
X131075485Y-70827207D01*
X131131579Y-70968884D01*
X131214123Y-71096967D01*
X131319974Y-71206579D01*
X131445099Y-71293543D01*
X131584732Y-71354547D01*
X131733555Y-71387268D01*
X131885899Y-71390459D01*
X132035962Y-71363999D01*
X132178027Y-71308895D01*
X132306684Y-71227247D01*
X132346847Y-71189000D01*
X141605000Y-71189000D01*
X141658042Y-71183799D01*
X141711140Y-71179153D01*
X141714050Y-71178307D01*
X141717073Y-71178011D01*
X141768123Y-71162598D01*
X141819280Y-71147736D01*
X141821973Y-71146340D01*
X141824878Y-71145463D01*
X141871949Y-71120435D01*
X141919257Y-71095913D01*
X141921627Y-71094020D01*
X141924307Y-71092596D01*
X141965605Y-71058913D01*
X142007265Y-71025657D01*
X142011492Y-71021488D01*
X142011574Y-71021422D01*
X142011636Y-71021346D01*
X142013001Y-71020001D01*
X142981487Y-70051514D01*
X143000118Y-70067147D01*
X143229394Y-70193193D01*
X143478787Y-70272305D01*
X143738795Y-70301469D01*
X143757513Y-70301600D01*
X143770487Y-70301600D01*
X144030878Y-70276068D01*
X144281350Y-70200446D01*
X144512364Y-70077614D01*
X144715120Y-69912251D01*
X144881895Y-69710654D01*
X145006337Y-69480503D01*
X145033652Y-69392261D01*
X145054530Y-69463198D01*
X145175747Y-69695063D01*
X145339691Y-69898969D01*
X145540118Y-70067147D01*
X145769394Y-70193193D01*
X146018787Y-70272305D01*
X146278795Y-70301469D01*
X146297513Y-70301600D01*
X146310487Y-70301600D01*
X146570878Y-70276068D01*
X146821350Y-70200446D01*
X147052364Y-70077614D01*
X147255120Y-69912251D01*
X147421895Y-69710654D01*
X147546337Y-69480503D01*
X147623706Y-69230565D01*
X147651054Y-68970359D01*
X147627341Y-68709797D01*
X147553470Y-68458802D01*
X147432253Y-68226937D01*
X147268309Y-68023031D01*
X147067882Y-67854853D01*
X146838606Y-67728807D01*
X146719777Y-67691112D01*
X146821350Y-67660446D01*
X147052364Y-67537614D01*
X147255120Y-67372251D01*
X147421895Y-67170654D01*
X147546337Y-66940503D01*
X147623706Y-66690565D01*
X147651054Y-66430359D01*
X147627341Y-66169797D01*
X147553470Y-65918802D01*
X147432253Y-65686937D01*
X147268309Y-65483031D01*
X147067882Y-65314853D01*
X146838606Y-65188807D01*
X146719777Y-65151112D01*
X146821350Y-65120446D01*
X147052364Y-64997614D01*
X147255120Y-64832251D01*
X147421895Y-64630654D01*
X147546337Y-64400503D01*
X147623706Y-64150565D01*
X147651054Y-63890359D01*
X147627341Y-63629797D01*
X147553470Y-63378802D01*
X147432253Y-63146937D01*
X147268309Y-62943031D01*
X147067882Y-62774853D01*
X146838606Y-62648807D01*
X146719777Y-62611112D01*
X146821350Y-62580446D01*
X147052364Y-62457614D01*
X147255120Y-62292251D01*
X147421895Y-62090654D01*
X147515248Y-61918000D01*
X147969998Y-61918000D01*
X148013000Y-61961001D01*
X148013000Y-70118998D01*
X146572998Y-71559000D01*
X131557001Y-71559000D01*
X129440001Y-69441999D01*
X129398784Y-69408143D01*
X129357986Y-69373910D01*
X129355330Y-69372449D01*
X129352983Y-69370522D01*
X129305955Y-69345306D01*
X129259304Y-69319659D01*
X129256415Y-69318742D01*
X129253738Y-69317307D01*
X129202692Y-69301700D01*
X129151965Y-69285609D01*
X129148954Y-69285271D01*
X129146049Y-69284383D01*
X129093018Y-69278996D01*
X129040056Y-69273056D01*
X129034119Y-69273014D01*
X129034014Y-69273004D01*
X129033915Y-69273013D01*
X129032000Y-69273000D01*
X128766566Y-69273000D01*
X128766566Y-60741339D01*
X128663132Y-60525000D01*
X127327000Y-60525000D01*
X127327000Y-61842600D01*
X127479400Y-61842600D01*
X127749290Y-61801638D01*
X128006003Y-61708811D01*
X128239673Y-61567685D01*
X128441321Y-61383684D01*
X128603198Y-61163879D01*
X128719083Y-60916717D01*
X128766566Y-60741339D01*
X128766566Y-69273000D01*
X127181000Y-69273000D01*
X127181000Y-61842600D01*
X127181000Y-60525000D01*
X125844868Y-60525000D01*
X125741434Y-60741339D01*
X125788917Y-60916717D01*
X125904802Y-61163879D01*
X126066679Y-61383684D01*
X126268327Y-61567685D01*
X126501997Y-61708811D01*
X126758710Y-61801638D01*
X127028600Y-61842600D01*
X127181000Y-61842600D01*
X127181000Y-69273000D01*
X123190000Y-69273000D01*
X123136957Y-69278200D01*
X123083860Y-69282847D01*
X123080949Y-69283692D01*
X123077927Y-69283989D01*
X123026876Y-69299401D01*
X122975720Y-69314264D01*
X122973026Y-69315659D01*
X122970122Y-69316537D01*
X122923050Y-69341564D01*
X122875743Y-69366087D01*
X122873372Y-69367979D01*
X122870693Y-69369404D01*
X122829394Y-69403086D01*
X122787735Y-69436343D01*
X122783511Y-69440507D01*
X122783426Y-69440578D01*
X122783360Y-69440657D01*
X122781999Y-69442000D01*
X122696998Y-69527000D01*
X121853749Y-69527000D01*
X121931037Y-69417438D01*
X122024801Y-69206841D01*
X122075874Y-68982042D01*
X122079551Y-68718736D01*
X122034774Y-68492599D01*
X121946927Y-68279466D01*
X121819355Y-68087455D01*
X121656918Y-67923879D01*
X121465802Y-67794970D01*
X121253287Y-67705637D01*
X121027468Y-67659283D01*
X120796946Y-67657673D01*
X120570502Y-67700870D01*
X120356760Y-67787227D01*
X120163863Y-67913455D01*
X119999157Y-68074747D01*
X119874365Y-68257000D01*
X119873001Y-68257000D01*
X118941000Y-67324998D01*
X118941000Y-63739002D01*
X119619002Y-63061000D01*
X119953792Y-63061000D01*
X119868917Y-63184958D01*
X119778103Y-63396844D01*
X119730173Y-63622334D01*
X119726955Y-63852839D01*
X119768569Y-64079580D01*
X119853432Y-64293919D01*
X119978311Y-64487692D01*
X120138449Y-64653520D01*
X120327746Y-64785085D01*
X120538993Y-64877377D01*
X120764143Y-64926879D01*
X120994620Y-64931707D01*
X121221645Y-64891676D01*
X121436571Y-64808312D01*
X121631212Y-64684789D01*
X121798153Y-64525813D01*
X121931037Y-64337438D01*
X121958467Y-64275829D01*
X121957335Y-64356881D01*
X121991936Y-64545406D01*
X122062496Y-64723620D01*
X122166328Y-64884735D01*
X122299476Y-65022614D01*
X122303050Y-65025098D01*
X122183661Y-65142013D01*
X122075371Y-65300165D01*
X121999863Y-65476340D01*
X121960012Y-65663825D01*
X121958561Y-65767692D01*
X121946927Y-65739466D01*
X121819355Y-65547455D01*
X121656918Y-65383879D01*
X121465802Y-65254970D01*
X121253287Y-65165637D01*
X121027468Y-65119283D01*
X120796946Y-65117673D01*
X120570502Y-65160870D01*
X120356760Y-65247227D01*
X120163863Y-65373455D01*
X119999157Y-65534747D01*
X119868917Y-65724958D01*
X119778103Y-65936844D01*
X119730173Y-66162334D01*
X119726955Y-66392839D01*
X119768569Y-66619580D01*
X119853432Y-66833919D01*
X119978311Y-67027692D01*
X120138449Y-67193520D01*
X120327746Y-67325085D01*
X120538993Y-67417377D01*
X120764143Y-67466879D01*
X120994620Y-67471707D01*
X121221645Y-67431676D01*
X121436571Y-67348312D01*
X121631212Y-67224789D01*
X121798153Y-67065813D01*
X121931037Y-66877438D01*
X122024801Y-66666841D01*
X122075874Y-66442042D01*
X122078594Y-66247200D01*
X122166328Y-66383335D01*
X122299476Y-66521214D01*
X122456869Y-66630605D01*
X122632512Y-66707341D01*
X122819714Y-66748500D01*
X123011346Y-66752514D01*
X123200109Y-66719231D01*
X123378811Y-66649917D01*
X123540647Y-66547212D01*
X123679452Y-66415030D01*
X123789939Y-66258405D01*
X123867900Y-66083302D01*
X123910365Y-65896391D01*
X123913422Y-65677463D01*
X123876192Y-65489439D01*
X123803151Y-65312228D01*
X123697080Y-65152578D01*
X123567984Y-65022578D01*
X123679452Y-64916430D01*
X123789939Y-64759805D01*
X123867900Y-64584702D01*
X123910365Y-64397791D01*
X123913422Y-64178863D01*
X123876192Y-63990839D01*
X123803151Y-63813628D01*
X123697080Y-63653978D01*
X123562020Y-63517972D01*
X123403115Y-63410789D01*
X123226418Y-63336513D01*
X123038658Y-63297971D01*
X122846989Y-63296633D01*
X122658710Y-63332549D01*
X122480993Y-63404351D01*
X122320607Y-63509305D01*
X122183661Y-63643413D01*
X122077316Y-63798723D01*
X122079551Y-63638736D01*
X122034774Y-63412599D01*
X121946927Y-63199466D01*
X121854930Y-63061000D01*
X121920000Y-63061000D01*
X121973042Y-63055799D01*
X122026140Y-63051153D01*
X122029050Y-63050307D01*
X122032073Y-63050011D01*
X122083123Y-63034598D01*
X122134280Y-63019736D01*
X122136973Y-63018340D01*
X122139878Y-63017463D01*
X122186949Y-62992435D01*
X122234257Y-62967913D01*
X122236627Y-62966020D01*
X122239307Y-62964596D01*
X122280605Y-62930913D01*
X122322265Y-62897657D01*
X122326492Y-62893488D01*
X122326574Y-62893422D01*
X122326636Y-62893346D01*
X122328001Y-62892001D01*
X123852000Y-61368001D01*
X123885808Y-61326841D01*
X123920090Y-61285986D01*
X123921552Y-61283326D01*
X123923477Y-61280983D01*
X123948653Y-61234029D01*
X123974341Y-61187304D01*
X123975258Y-61184411D01*
X123976692Y-61181738D01*
X123992284Y-61130738D01*
X124008391Y-61079965D01*
X124008728Y-61076954D01*
X124009617Y-61074049D01*
X124015003Y-61021018D01*
X124020944Y-60968056D01*
X124020985Y-60962119D01*
X124020996Y-60962014D01*
X124020986Y-60961915D01*
X124021000Y-60960000D01*
X124021000Y-59675001D01*
X125757108Y-57938893D01*
X125777522Y-58163203D01*
X125851393Y-58414198D01*
X125972610Y-58646063D01*
X126136554Y-58849969D01*
X126336981Y-59018147D01*
X126566257Y-59144193D01*
X126607151Y-59157165D01*
X126501997Y-59195189D01*
X126268327Y-59336315D01*
X126066679Y-59520316D01*
X125904802Y-59740121D01*
X125788917Y-59987283D01*
X125741434Y-60162661D01*
X125844868Y-60379000D01*
X127181000Y-60379000D01*
X127181000Y-60359000D01*
X127327000Y-60359000D01*
X127327000Y-60379000D01*
X128663132Y-60379000D01*
X128766566Y-60162661D01*
X128719083Y-59987283D01*
X128603198Y-59740121D01*
X128441321Y-59520316D01*
X128239673Y-59336315D01*
X128006003Y-59195189D01*
X127902984Y-59157937D01*
X127924487Y-59151446D01*
X128155501Y-59028614D01*
X128358257Y-58863251D01*
X128525032Y-58661654D01*
X128618385Y-58489000D01*
X129046998Y-58489000D01*
X129217000Y-58659001D01*
X129217000Y-61961477D01*
X129195903Y-61982137D01*
X129109815Y-62107866D01*
X129049787Y-62247922D01*
X129018106Y-62396970D01*
X129015978Y-62549332D01*
X129043485Y-62699207D01*
X129099579Y-62840884D01*
X129182123Y-62968967D01*
X129287974Y-63078579D01*
X129413099Y-63165543D01*
X129552732Y-63226547D01*
X129701555Y-63259268D01*
X129853899Y-63262459D01*
X130003962Y-63235999D01*
X130146027Y-63180895D01*
X130274684Y-63099247D01*
X130385031Y-62994165D01*
X130472867Y-62869650D01*
X130534844Y-62730446D01*
X130568603Y-62581855D01*
X130571034Y-62407811D01*
X130541437Y-62258336D01*
X130483370Y-62117455D01*
X130399046Y-61990537D01*
X130371000Y-61962294D01*
X130371000Y-58420000D01*
X130365794Y-58366912D01*
X130361153Y-58313860D01*
X130360307Y-58310949D01*
X130360011Y-58307927D01*
X130344598Y-58256876D01*
X130329736Y-58205720D01*
X130328340Y-58203027D01*
X130327463Y-58200122D01*
X130302414Y-58153011D01*
X130277912Y-58105743D01*
X130276022Y-58103376D01*
X130274596Y-58100693D01*
X130240891Y-58059367D01*
X130207657Y-58017735D01*
X130203492Y-58013511D01*
X130203422Y-58013426D01*
X130203342Y-58013360D01*
X130202000Y-58011999D01*
X129694001Y-57503999D01*
X129652784Y-57470143D01*
X129611986Y-57435910D01*
X129609330Y-57434449D01*
X129606983Y-57432522D01*
X129559955Y-57407306D01*
X129513304Y-57381659D01*
X129510415Y-57380742D01*
X129507738Y-57379307D01*
X129456692Y-57363700D01*
X129405965Y-57347609D01*
X129402954Y-57347271D01*
X129400049Y-57346383D01*
X129347018Y-57340996D01*
X129294056Y-57335056D01*
X129288119Y-57335014D01*
X129288014Y-57335004D01*
X129287915Y-57335013D01*
X129286000Y-57335000D01*
X128617501Y-57335000D01*
X128535390Y-57177937D01*
X128371446Y-56974031D01*
X128171019Y-56805853D01*
X127941743Y-56679807D01*
X127822914Y-56642112D01*
X127924487Y-56611446D01*
X128155501Y-56488614D01*
X128358257Y-56323251D01*
X128525032Y-56121654D01*
X128649474Y-55891503D01*
X128726843Y-55641565D01*
X128754191Y-55381359D01*
X128730478Y-55120797D01*
X128656607Y-54869802D01*
X128535390Y-54637937D01*
X128371446Y-54434031D01*
X128171019Y-54265853D01*
X128005591Y-54174908D01*
X128270000Y-54174908D01*
X128347404Y-54168617D01*
X128475855Y-54128451D01*
X128588075Y-54054158D01*
X128675218Y-53951596D01*
X128730413Y-53828851D01*
X128749308Y-53695600D01*
X128749308Y-51968400D01*
X128743017Y-51890996D01*
X128702851Y-51762545D01*
X128628558Y-51650325D01*
X128525996Y-51563182D01*
X128403251Y-51507987D01*
X128270000Y-51489092D01*
X126238000Y-51489092D01*
X126160596Y-51495383D01*
X126032145Y-51535549D01*
X125919925Y-51609842D01*
X125832782Y-51712404D01*
X125777587Y-51835149D01*
X125758692Y-51968400D01*
X125758692Y-52287000D01*
X122995308Y-52287000D01*
X122995308Y-51864000D01*
X122989017Y-51786596D01*
X122948851Y-51658145D01*
X122874558Y-51545925D01*
X122771996Y-51458782D01*
X122649251Y-51403587D01*
X122516000Y-51384692D01*
X120816000Y-51384692D01*
X120738596Y-51390983D01*
X120610145Y-51431149D01*
X120497925Y-51505442D01*
X120410782Y-51608004D01*
X120355587Y-51730749D01*
X120336692Y-51864000D01*
X120336692Y-53864000D01*
X120342983Y-53941404D01*
X120383149Y-54069855D01*
X120457442Y-54182075D01*
X120560004Y-54269218D01*
X120682749Y-54324413D01*
X120816000Y-54343308D01*
X122516000Y-54343308D01*
X122593404Y-54337017D01*
X122721855Y-54296851D01*
X122834075Y-54222558D01*
X122921218Y-54119996D01*
X122976413Y-53997251D01*
X122995308Y-53864000D01*
X122995308Y-53441000D01*
X125758692Y-53441000D01*
X125758692Y-53695600D01*
X125764983Y-53773004D01*
X125805149Y-53901455D01*
X125879442Y-54013675D01*
X125982004Y-54100818D01*
X126104749Y-54156013D01*
X126238000Y-54174908D01*
X126503856Y-54174908D01*
X126352499Y-54255386D01*
X126149743Y-54420749D01*
X125982968Y-54622346D01*
X125858526Y-54852497D01*
X125781157Y-55102435D01*
X125753809Y-55362641D01*
X125777522Y-55623203D01*
X125851393Y-55874198D01*
X125967572Y-56096426D01*
X123035999Y-59027999D01*
X123002143Y-59069215D01*
X122967910Y-59110014D01*
X122966449Y-59112669D01*
X122964522Y-59115017D01*
X122939306Y-59162044D01*
X122913659Y-59208696D01*
X122912742Y-59211584D01*
X122911307Y-59214262D01*
X122895700Y-59265307D01*
X122879609Y-59316035D01*
X122879271Y-59319045D01*
X122878383Y-59321951D01*
X122872996Y-59374981D01*
X122867056Y-59427944D01*
X122867014Y-59433880D01*
X122867004Y-59433986D01*
X122867013Y-59434084D01*
X122867000Y-59436000D01*
X122867000Y-60720998D01*
X122100006Y-61487992D01*
X122116341Y-61429982D01*
X122135182Y-61189316D01*
X122106709Y-60949599D01*
X122032018Y-60720042D01*
X121941404Y-60550515D01*
X121731495Y-60489743D01*
X121628257Y-60592981D01*
X121628257Y-60386505D01*
X121567485Y-60176596D01*
X121352348Y-60067090D01*
X121119982Y-60001659D01*
X120879316Y-59982818D01*
X120639599Y-60011291D01*
X120410042Y-60085982D01*
X120240515Y-60176596D01*
X120179743Y-60386505D01*
X120904000Y-61110762D01*
X121628257Y-60386505D01*
X121628257Y-60592981D01*
X121007238Y-61214000D01*
X121021380Y-61228142D01*
X120918142Y-61331380D01*
X120904000Y-61317238D01*
X120889858Y-61331380D01*
X120786620Y-61228142D01*
X120800762Y-61214000D01*
X120076505Y-60489743D01*
X119866596Y-60550515D01*
X119757090Y-60765652D01*
X119691659Y-60998018D01*
X119672818Y-61238684D01*
X119701291Y-61478401D01*
X119775982Y-61707958D01*
X119866596Y-61877485D01*
X119968542Y-61907000D01*
X119380000Y-61907000D01*
X119326957Y-61912200D01*
X119273860Y-61916847D01*
X119270949Y-61917692D01*
X119267927Y-61917989D01*
X119216876Y-61933401D01*
X119165720Y-61948264D01*
X119163026Y-61949659D01*
X119160122Y-61950537D01*
X119113050Y-61975564D01*
X119065743Y-62000087D01*
X119063372Y-62001979D01*
X119060693Y-62003404D01*
X119019394Y-62037086D01*
X118977735Y-62070343D01*
X118973507Y-62074511D01*
X118973426Y-62074578D01*
X118973363Y-62074653D01*
X118971999Y-62075999D01*
X117955999Y-63091999D01*
X117922143Y-63133215D01*
X117887910Y-63174014D01*
X117886449Y-63176669D01*
X117884522Y-63179017D01*
X117859306Y-63226044D01*
X117833659Y-63272696D01*
X117832742Y-63275584D01*
X117831307Y-63278262D01*
X117815700Y-63329307D01*
X117799609Y-63380035D01*
X117799271Y-63383045D01*
X117798383Y-63385951D01*
X117792996Y-63438981D01*
X117787056Y-63491944D01*
X117787014Y-63497880D01*
X117787004Y-63497986D01*
X117787013Y-63498084D01*
X117787000Y-63500000D01*
X117787000Y-67564000D01*
X117792200Y-67617042D01*
X117796847Y-67670140D01*
X117797692Y-67673050D01*
X117797989Y-67676073D01*
X117813401Y-67727123D01*
X117828264Y-67778280D01*
X117829659Y-67780973D01*
X117830537Y-67783878D01*
X117855564Y-67830949D01*
X117880087Y-67878257D01*
X117881979Y-67880627D01*
X117883404Y-67883307D01*
X117917086Y-67924605D01*
X117950343Y-67966265D01*
X117954511Y-67970492D01*
X117954578Y-67970574D01*
X117954653Y-67970636D01*
X117955999Y-67972001D01*
X119225999Y-69242000D01*
X119267185Y-69275831D01*
X119308014Y-69310090D01*
X119310670Y-69311550D01*
X119313017Y-69313478D01*
X119360009Y-69338674D01*
X119406696Y-69364341D01*
X119409588Y-69365258D01*
X119412262Y-69366692D01*
X119463261Y-69382284D01*
X119514035Y-69398391D01*
X119517045Y-69398728D01*
X119519951Y-69399617D01*
X119572981Y-69405003D01*
X119625944Y-69410944D01*
X119631880Y-69410985D01*
X119631986Y-69410996D01*
X119632084Y-69410986D01*
X119634000Y-69411000D01*
X119877329Y-69411000D01*
X119952086Y-69527000D01*
X118603001Y-69527000D01*
X114962001Y-65885999D01*
X114920784Y-65852143D01*
X114879986Y-65817910D01*
X114877330Y-65816449D01*
X114874983Y-65814522D01*
X114827955Y-65789306D01*
X114781304Y-65763659D01*
X114778415Y-65762742D01*
X114775738Y-65761307D01*
X114724692Y-65745700D01*
X114673965Y-65729609D01*
X114670954Y-65729271D01*
X114668049Y-65728383D01*
X114615018Y-65722996D01*
X114562056Y-65717056D01*
X114556119Y-65717014D01*
X114556014Y-65717004D01*
X114555915Y-65717013D01*
X114554000Y-65717000D01*
X114459551Y-65717000D01*
X114459551Y-63638736D01*
X114414774Y-63412599D01*
X114326927Y-63199466D01*
X114199355Y-63007455D01*
X114036918Y-62843879D01*
X113845802Y-62714970D01*
X113633287Y-62625637D01*
X113407468Y-62579283D01*
X113176946Y-62577673D01*
X112950502Y-62620870D01*
X112736760Y-62707227D01*
X112543863Y-62833455D01*
X112379157Y-62994747D01*
X112248917Y-63184958D01*
X112158103Y-63396844D01*
X112110173Y-63622334D01*
X112106955Y-63852839D01*
X112148569Y-64079580D01*
X112233432Y-64293919D01*
X112358311Y-64487692D01*
X112518449Y-64653520D01*
X112707746Y-64785085D01*
X112918993Y-64877377D01*
X113144143Y-64926879D01*
X113374620Y-64931707D01*
X113601645Y-64891676D01*
X113816571Y-64808312D01*
X114011212Y-64684789D01*
X114178153Y-64525813D01*
X114311037Y-64337438D01*
X114404801Y-64126841D01*
X114455874Y-63902042D01*
X114459551Y-63638736D01*
X114459551Y-65717000D01*
X114312000Y-65717000D01*
X114199355Y-65547455D01*
X114036918Y-65383879D01*
X113845802Y-65254970D01*
X113633287Y-65165637D01*
X113407468Y-65119283D01*
X113176946Y-65117673D01*
X112950502Y-65160870D01*
X112736760Y-65247227D01*
X112543863Y-65373455D01*
X112379157Y-65534747D01*
X112248917Y-65724958D01*
X112158103Y-65936844D01*
X112110173Y-66162334D01*
X112106955Y-66392839D01*
X112148569Y-66619580D01*
X112233432Y-66833919D01*
X112358311Y-67027692D01*
X112518449Y-67193520D01*
X112707746Y-67325085D01*
X112918993Y-67417377D01*
X113144143Y-67466879D01*
X113374620Y-67471707D01*
X113601645Y-67431676D01*
X113816571Y-67348312D01*
X114011212Y-67224789D01*
X114178153Y-67065813D01*
X114311037Y-66877438D01*
X114313903Y-66871000D01*
X114314998Y-66871000D01*
X117956000Y-70512001D01*
X117997168Y-70545817D01*
X118038014Y-70580090D01*
X118040672Y-70581551D01*
X118043018Y-70583478D01*
X118090023Y-70608682D01*
X118136696Y-70634341D01*
X118139584Y-70635257D01*
X118142262Y-70636693D01*
X118193294Y-70652295D01*
X118244035Y-70668391D01*
X118247047Y-70668728D01*
X118249952Y-70669617D01*
X118303021Y-70675007D01*
X118355944Y-70680944D01*
X118361869Y-70680985D01*
X118361986Y-70680997D01*
X118362094Y-70680986D01*
X118364000Y-70681000D01*
X119953792Y-70681000D01*
X119868917Y-70804958D01*
X119778103Y-71016844D01*
X119730173Y-71242334D01*
X119726955Y-71472839D01*
X119768569Y-71699580D01*
X119853432Y-71913919D01*
X119952086Y-72067000D01*
X118618000Y-72067000D01*
X118564957Y-72072200D01*
X118511860Y-72076847D01*
X118508949Y-72077692D01*
X118505927Y-72077989D01*
X118454876Y-72093401D01*
X118403720Y-72108264D01*
X118401026Y-72109659D01*
X118398122Y-72110537D01*
X118351050Y-72135564D01*
X118303743Y-72160087D01*
X118301372Y-72161979D01*
X118298693Y-72163404D01*
X118257394Y-72197086D01*
X118215735Y-72230343D01*
X118211507Y-72234511D01*
X118211426Y-72234578D01*
X118211363Y-72234653D01*
X118209999Y-72235999D01*
X117363034Y-73082964D01*
X117363034Y-70916811D01*
X117333437Y-70767336D01*
X117275370Y-70626455D01*
X117191046Y-70499537D01*
X117083675Y-70391414D01*
X116957348Y-70306206D01*
X116816877Y-70247157D01*
X116667612Y-70216517D01*
X116515238Y-70215453D01*
X116365559Y-70244006D01*
X116224277Y-70301088D01*
X116096773Y-70384524D01*
X115987903Y-70491137D01*
X115901815Y-70616866D01*
X115841787Y-70756922D01*
X115810106Y-70905970D01*
X115809441Y-70953556D01*
X115330998Y-71432000D01*
X115189000Y-71432000D01*
X115135952Y-71437201D01*
X115082861Y-71441847D01*
X115079950Y-71442692D01*
X115076927Y-71442989D01*
X115025851Y-71458409D01*
X114974721Y-71473264D01*
X114972029Y-71474659D01*
X114969122Y-71475537D01*
X114922032Y-71500574D01*
X114874743Y-71525087D01*
X114872372Y-71526979D01*
X114869693Y-71528404D01*
X114828401Y-71562081D01*
X114786736Y-71595342D01*
X114782511Y-71599508D01*
X114782426Y-71599578D01*
X114782360Y-71599657D01*
X114781000Y-71600999D01*
X114459551Y-71922447D01*
X114459551Y-71258736D01*
X114459551Y-68718736D01*
X114414774Y-68492599D01*
X114326927Y-68279466D01*
X114199355Y-68087455D01*
X114036918Y-67923879D01*
X113845802Y-67794970D01*
X113633287Y-67705637D01*
X113407468Y-67659283D01*
X113176946Y-67657673D01*
X112950502Y-67700870D01*
X112736760Y-67787227D01*
X112543863Y-67913455D01*
X112379157Y-68074747D01*
X112248917Y-68264958D01*
X112158103Y-68476844D01*
X112110173Y-68702334D01*
X112106955Y-68932839D01*
X112148569Y-69159580D01*
X112233432Y-69373919D01*
X112358311Y-69567692D01*
X112518449Y-69733520D01*
X112707746Y-69865085D01*
X112918993Y-69957377D01*
X113144143Y-70006879D01*
X113374620Y-70011707D01*
X113601645Y-69971676D01*
X113816571Y-69888312D01*
X114011212Y-69764789D01*
X114178153Y-69605813D01*
X114311037Y-69417438D01*
X114404801Y-69206841D01*
X114455874Y-68982042D01*
X114459551Y-68718736D01*
X114459551Y-71258736D01*
X114414774Y-71032599D01*
X114326927Y-70819466D01*
X114199355Y-70627455D01*
X114036918Y-70463879D01*
X113845802Y-70334970D01*
X113633287Y-70245637D01*
X113407468Y-70199283D01*
X113176946Y-70197673D01*
X112950502Y-70240870D01*
X112736760Y-70327227D01*
X112543863Y-70453455D01*
X112379157Y-70614747D01*
X112248917Y-70804958D01*
X112158103Y-71016844D01*
X112110173Y-71242334D01*
X112106955Y-71472839D01*
X112148569Y-71699580D01*
X112233432Y-71913919D01*
X112358311Y-72107692D01*
X112518449Y-72273520D01*
X112707746Y-72405085D01*
X112918993Y-72497377D01*
X113144143Y-72546879D01*
X113374620Y-72551707D01*
X113601645Y-72511676D01*
X113816571Y-72428312D01*
X114011212Y-72304789D01*
X114178153Y-72145813D01*
X114311037Y-71957438D01*
X114404801Y-71746841D01*
X114455874Y-71522042D01*
X114459551Y-71258736D01*
X114459551Y-71922447D01*
X113602650Y-72779348D01*
X113407468Y-72739283D01*
X113176946Y-72737673D01*
X112950502Y-72780870D01*
X112736760Y-72867227D01*
X112543863Y-72993455D01*
X112379157Y-73154747D01*
X112248917Y-73344958D01*
X112158103Y-73556844D01*
X112110173Y-73782334D01*
X112106955Y-74012839D01*
X112148569Y-74239580D01*
X112233432Y-74453919D01*
X112358311Y-74647692D01*
X112518449Y-74813520D01*
X112707746Y-74945085D01*
X112918993Y-75037377D01*
X113144143Y-75086879D01*
X113374620Y-75091707D01*
X113601645Y-75051676D01*
X113816571Y-74968312D01*
X114011212Y-74844789D01*
X114178153Y-74685813D01*
X114311037Y-74497438D01*
X114404801Y-74286841D01*
X114455874Y-74062042D01*
X114459551Y-73798736D01*
X114419175Y-73594826D01*
X115428001Y-72586000D01*
X115570000Y-72586000D01*
X115623042Y-72580799D01*
X115676140Y-72576153D01*
X115679050Y-72575307D01*
X115682073Y-72575011D01*
X115733123Y-72559598D01*
X115784280Y-72544736D01*
X115786973Y-72543340D01*
X115789878Y-72542463D01*
X115836949Y-72517435D01*
X115884257Y-72492913D01*
X115886627Y-72491020D01*
X115889307Y-72489596D01*
X115930605Y-72455913D01*
X115972265Y-72422657D01*
X115976492Y-72418488D01*
X115976574Y-72418422D01*
X115976636Y-72418346D01*
X115978001Y-72417001D01*
X116624001Y-71771000D01*
X116645899Y-71771459D01*
X116795962Y-71744999D01*
X116938027Y-71689895D01*
X117066684Y-71608247D01*
X117177031Y-71503165D01*
X117264867Y-71378650D01*
X117326844Y-71239446D01*
X117360603Y-71090855D01*
X117363034Y-70916811D01*
X117363034Y-73082964D01*
X117193999Y-73251999D01*
X117160143Y-73293215D01*
X117125910Y-73334014D01*
X117124449Y-73336669D01*
X117122522Y-73339017D01*
X117097306Y-73386044D01*
X117071659Y-73432696D01*
X117070742Y-73435584D01*
X117069307Y-73438262D01*
X117053700Y-73489307D01*
X117037609Y-73540035D01*
X117037271Y-73543045D01*
X117036383Y-73545951D01*
X117030996Y-73598981D01*
X117025056Y-73651944D01*
X117025014Y-73657880D01*
X117025004Y-73657986D01*
X117025013Y-73658084D01*
X117025000Y-73660000D01*
X117025000Y-74690998D01*
X115838998Y-75877000D01*
X114312000Y-75877000D01*
X114199355Y-75707455D01*
X114036918Y-75543879D01*
X113845802Y-75414970D01*
X113633287Y-75325637D01*
X113407468Y-75279283D01*
X113176946Y-75277673D01*
X112950502Y-75320870D01*
X112736760Y-75407227D01*
X112543863Y-75533455D01*
X112379157Y-75694747D01*
X112248917Y-75884958D01*
X112158103Y-76096844D01*
X112110173Y-76322334D01*
X112106955Y-76552839D01*
X112148569Y-76779580D01*
X112233432Y-76993919D01*
X112358311Y-77187692D01*
X112518449Y-77353520D01*
X112707746Y-77485085D01*
X112918993Y-77577377D01*
X113144143Y-77626879D01*
X113374620Y-77631707D01*
X113601645Y-77591676D01*
X113816571Y-77508312D01*
X114011212Y-77384789D01*
X114178153Y-77225813D01*
X114311037Y-77037438D01*
X114313903Y-77031000D01*
X116078000Y-77031000D01*
X116131042Y-77025799D01*
X116184140Y-77021153D01*
X116187050Y-77020307D01*
X116190073Y-77020011D01*
X116241123Y-77004598D01*
X116292280Y-76989736D01*
X116294973Y-76988340D01*
X116297878Y-76987463D01*
X116344949Y-76962435D01*
X116392257Y-76937913D01*
X116394627Y-76936020D01*
X116397307Y-76934596D01*
X116438605Y-76900913D01*
X116480265Y-76867657D01*
X116484492Y-76863488D01*
X116484574Y-76863422D01*
X116484636Y-76863346D01*
X116486001Y-76862001D01*
X118010000Y-75338001D01*
X118043808Y-75296841D01*
X118078090Y-75255986D01*
X118079552Y-75253326D01*
X118081477Y-75250983D01*
X118106653Y-75204029D01*
X118132341Y-75157304D01*
X118133258Y-75154411D01*
X118134692Y-75151738D01*
X118150284Y-75100738D01*
X118166391Y-75049965D01*
X118166728Y-75046954D01*
X118167617Y-75044049D01*
X118173003Y-74991018D01*
X118178944Y-74938056D01*
X118178985Y-74932119D01*
X118178996Y-74932014D01*
X118178986Y-74931915D01*
X118179000Y-74930000D01*
X118179000Y-73899002D01*
X118857002Y-73221000D01*
X119953792Y-73221000D01*
X119868917Y-73344958D01*
X119778103Y-73556844D01*
X119730173Y-73782334D01*
X119726955Y-74012839D01*
X119767615Y-74234382D01*
X118463999Y-75537999D01*
X118430143Y-75579215D01*
X118395910Y-75620014D01*
X118394449Y-75622669D01*
X118392522Y-75625017D01*
X118367306Y-75672044D01*
X118341659Y-75718696D01*
X118340742Y-75721584D01*
X118339307Y-75724262D01*
X118323700Y-75775307D01*
X118307609Y-75826035D01*
X118307271Y-75829045D01*
X118306383Y-75831951D01*
X118300996Y-75884981D01*
X118295056Y-75937944D01*
X118295014Y-75943880D01*
X118295004Y-75943986D01*
X118295013Y-75944084D01*
X118295000Y-75946000D01*
X118295000Y-86106000D01*
X118300200Y-86159042D01*
X118304847Y-86212140D01*
X118305692Y-86215050D01*
X118305989Y-86218073D01*
X118321401Y-86269123D01*
X118336264Y-86320280D01*
X118337659Y-86322973D01*
X118338537Y-86325878D01*
X118363564Y-86372949D01*
X118388087Y-86420257D01*
X118389979Y-86422627D01*
X118391404Y-86425307D01*
X118425086Y-86466605D01*
X118458343Y-86508265D01*
X118462511Y-86512492D01*
X118462578Y-86512574D01*
X118462653Y-86512636D01*
X118463999Y-86514001D01*
X122781999Y-90832000D01*
X122823185Y-90865831D01*
X122864014Y-90900090D01*
X122866670Y-90901550D01*
X122869017Y-90903478D01*
X122916009Y-90928674D01*
X122962696Y-90954341D01*
X122965588Y-90955258D01*
X122968262Y-90956692D01*
X123019261Y-90972284D01*
X123070035Y-90988391D01*
X123073045Y-90988728D01*
X123075951Y-90989617D01*
X123128981Y-90995003D01*
X123181944Y-91000944D01*
X123187880Y-91000985D01*
X123187986Y-91000996D01*
X123188084Y-91000986D01*
X123190000Y-91001000D01*
X133452397Y-91001000D01*
X133386903Y-91065137D01*
X133300815Y-91190866D01*
X133240787Y-91330922D01*
X133209106Y-91479970D01*
X133208441Y-91527557D01*
X132475998Y-92260000D01*
X122823090Y-92260000D01*
X122798675Y-92235414D01*
X122672348Y-92150206D01*
X122531877Y-92091157D01*
X122382612Y-92060517D01*
X122230238Y-92059453D01*
X122080559Y-92088006D01*
X121939277Y-92145088D01*
X121811773Y-92228524D01*
X121702903Y-92335137D01*
X121616815Y-92460866D01*
X121556787Y-92600922D01*
X121525106Y-92749970D01*
X121522978Y-92902332D01*
X121550485Y-93052207D01*
X121606579Y-93193884D01*
X121689123Y-93321967D01*
X121794974Y-93431579D01*
X121920099Y-93518543D01*
X122059732Y-93579547D01*
X122208555Y-93612268D01*
X122360899Y-93615459D01*
X122510962Y-93588999D01*
X122653027Y-93533895D01*
X122781684Y-93452247D01*
X122821847Y-93414000D01*
X132715000Y-93414000D01*
X132768042Y-93408799D01*
X132821140Y-93404153D01*
X132824050Y-93403307D01*
X132827073Y-93403011D01*
X132878123Y-93387598D01*
X132929280Y-93372736D01*
X132931973Y-93371340D01*
X132934878Y-93370463D01*
X132981949Y-93345435D01*
X133029257Y-93320913D01*
X133031627Y-93319020D01*
X133034307Y-93317596D01*
X133075605Y-93283913D01*
X133117265Y-93250657D01*
X133121492Y-93246488D01*
X133121574Y-93246422D01*
X133121636Y-93246346D01*
X133123001Y-93245001D01*
X134023000Y-92345000D01*
X134044899Y-92345459D01*
X134194962Y-92318999D01*
X134337027Y-92263895D01*
X134465684Y-92182247D01*
X134576031Y-92077165D01*
X134663867Y-91952650D01*
X134725844Y-91813446D01*
X134759603Y-91664855D01*
X134762034Y-91490811D01*
X134732437Y-91341336D01*
X134674370Y-91200455D01*
X134590046Y-91073537D01*
X134518013Y-91001000D01*
X142807635Y-91001000D01*
X142889747Y-91158063D01*
X143053691Y-91361969D01*
X143254118Y-91530147D01*
X143483394Y-91656193D01*
X143602222Y-91693887D01*
X143500650Y-91724554D01*
X143269636Y-91847386D01*
X143066880Y-92012749D01*
X142900105Y-92214346D01*
X142775663Y-92444497D01*
X142698294Y-92694435D01*
X142670946Y-92954641D01*
X142694659Y-93215203D01*
X142768530Y-93466198D01*
X142889747Y-93698063D01*
X143053691Y-93901969D01*
X143254118Y-94070147D01*
X143483394Y-94196193D01*
X143602222Y-94233887D01*
X143500650Y-94264554D01*
X143269636Y-94387386D01*
X143066880Y-94552749D01*
X142900105Y-94754346D01*
X142775663Y-94984497D01*
X142698294Y-95234435D01*
X142670946Y-95494641D01*
X142694659Y-95755203D01*
X142768530Y-96006198D01*
X142889747Y-96238063D01*
X143053691Y-96441969D01*
X143254118Y-96610147D01*
X143483394Y-96736193D01*
X143732787Y-96815305D01*
X143992795Y-96844469D01*
X144011513Y-96844600D01*
X144024487Y-96844600D01*
X144284878Y-96819068D01*
X144535350Y-96743446D01*
X144766364Y-96620614D01*
X144969120Y-96455251D01*
X145135895Y-96253654D01*
X145167400Y-96195386D01*
X145167400Y-96315695D01*
X145167400Y-96419505D01*
X145187652Y-96521320D01*
X145227379Y-96617228D01*
X145285052Y-96703543D01*
X145358457Y-96776948D01*
X145444772Y-96834621D01*
X145540680Y-96874348D01*
X145642495Y-96894600D01*
X146353250Y-96894600D01*
X146485000Y-96762850D01*
X146485000Y-95577000D01*
X146465000Y-95577000D01*
X146465000Y-95431000D01*
X146485000Y-95431000D01*
X146485000Y-95411000D01*
X146631000Y-95411000D01*
X146631000Y-95431000D01*
X147816850Y-95431000D01*
X147948600Y-95299250D01*
X147948600Y-94692305D01*
X147948600Y-94588495D01*
X147928348Y-94486680D01*
X147888621Y-94390772D01*
X147830948Y-94304457D01*
X147757543Y-94231052D01*
X147671228Y-94173379D01*
X147575320Y-94133652D01*
X147473505Y-94113400D01*
X147244702Y-94113400D01*
X147306364Y-94080614D01*
X147509120Y-93915251D01*
X147675895Y-93713654D01*
X147769248Y-93541000D01*
X148350998Y-93541000D01*
X148521000Y-93711001D01*
X148521000Y-95772998D01*
X148181999Y-96111999D01*
X148148143Y-96153215D01*
X148113910Y-96194014D01*
X148112449Y-96196669D01*
X148110522Y-96199017D01*
X148085306Y-96246044D01*
X148059659Y-96292696D01*
X148058742Y-96295584D01*
X148057307Y-96298262D01*
X148041700Y-96349307D01*
X148025609Y-96400035D01*
X148025271Y-96403045D01*
X148024383Y-96405951D01*
X148018996Y-96458981D01*
X148013056Y-96511944D01*
X148013014Y-96517880D01*
X148013004Y-96517986D01*
X148013013Y-96518084D01*
X148013000Y-96520000D01*
X148013000Y-96788998D01*
X147948600Y-96853398D01*
X147948600Y-96419505D01*
X147948600Y-96315695D01*
X147948600Y-95708750D01*
X147816850Y-95577000D01*
X146631000Y-95577000D01*
X146631000Y-96762850D01*
X146762750Y-96894600D01*
X147473505Y-96894600D01*
X147575320Y-96874348D01*
X147671228Y-96834621D01*
X147757543Y-96776948D01*
X147830948Y-96703543D01*
X147888621Y-96617228D01*
X147928348Y-96521320D01*
X147948600Y-96419505D01*
X147948600Y-96853398D01*
X147405721Y-97396277D01*
X125390278Y-97396277D01*
X116655000Y-88660998D01*
X116655000Y-79248000D01*
X116649799Y-79194957D01*
X116645153Y-79141860D01*
X116644307Y-79138949D01*
X116644011Y-79135927D01*
X116628598Y-79084876D01*
X116613736Y-79033720D01*
X116612340Y-79031026D01*
X116611463Y-79028122D01*
X116586435Y-78981050D01*
X116561913Y-78933743D01*
X116560020Y-78931372D01*
X116558596Y-78928693D01*
X116524913Y-78887394D01*
X116491657Y-78845735D01*
X116487492Y-78841511D01*
X116487422Y-78841426D01*
X116487342Y-78841360D01*
X116486000Y-78839999D01*
X116232001Y-78585999D01*
X116190784Y-78552143D01*
X116149986Y-78517910D01*
X116147330Y-78516449D01*
X116144983Y-78514522D01*
X116097955Y-78489306D01*
X116051304Y-78463659D01*
X116048415Y-78462742D01*
X116045738Y-78461307D01*
X115994692Y-78445700D01*
X115943965Y-78429609D01*
X115940954Y-78429271D01*
X115938049Y-78428383D01*
X115885018Y-78422996D01*
X115832056Y-78417056D01*
X115826119Y-78417014D01*
X115826014Y-78417004D01*
X115825915Y-78417013D01*
X115824000Y-78417000D01*
X114312000Y-78417000D01*
X114199355Y-78247455D01*
X114036918Y-78083879D01*
X113845802Y-77954970D01*
X113633287Y-77865637D01*
X113407468Y-77819283D01*
X113176946Y-77817673D01*
X112950502Y-77860870D01*
X112736760Y-77947227D01*
X112543863Y-78073455D01*
X112379157Y-78234747D01*
X112248917Y-78424958D01*
X112158103Y-78636844D01*
X112110173Y-78862334D01*
X112106955Y-79092839D01*
X112148569Y-79319580D01*
X112233432Y-79533919D01*
X112358311Y-79727692D01*
X112518449Y-79893520D01*
X112707746Y-80025085D01*
X112918993Y-80117377D01*
X113144143Y-80166879D01*
X113374620Y-80171707D01*
X113601645Y-80131676D01*
X113816571Y-80048312D01*
X114011212Y-79924789D01*
X114178153Y-79765813D01*
X114311037Y-79577438D01*
X114313903Y-79571000D01*
X115501000Y-79571000D01*
X115501000Y-88900000D01*
X115506200Y-88953042D01*
X115510847Y-89006140D01*
X115511692Y-89009050D01*
X115511989Y-89012073D01*
X115527401Y-89063123D01*
X115542264Y-89114280D01*
X115543659Y-89116973D01*
X115544537Y-89119878D01*
X115569564Y-89166949D01*
X115594087Y-89214257D01*
X115595979Y-89216627D01*
X115597404Y-89219307D01*
X115631086Y-89260605D01*
X115664343Y-89302265D01*
X115668511Y-89306492D01*
X115668578Y-89306574D01*
X115668653Y-89306636D01*
X115669999Y-89308001D01*
X124743276Y-98381277D01*
X124784462Y-98415108D01*
X124825291Y-98449367D01*
X124827947Y-98450827D01*
X124830294Y-98452755D01*
X124877286Y-98477951D01*
X124923973Y-98503618D01*
X124926865Y-98504535D01*
X124929539Y-98505969D01*
X124980538Y-98521561D01*
X125031312Y-98537668D01*
X125034322Y-98538005D01*
X125037228Y-98538894D01*
X125090258Y-98544280D01*
X125143221Y-98550221D01*
X125149157Y-98550262D01*
X125149263Y-98550273D01*
X125149361Y-98550263D01*
X125151277Y-98550277D01*
X147644723Y-98550277D01*
X147697765Y-98545076D01*
X147750863Y-98540430D01*
X147753773Y-98539584D01*
X147756796Y-98539288D01*
X147807846Y-98523875D01*
X147859003Y-98509013D01*
X147861696Y-98507617D01*
X147864601Y-98506740D01*
X147911672Y-98481712D01*
X147958980Y-98457190D01*
X147961350Y-98455297D01*
X147964030Y-98453873D01*
X148005328Y-98420190D01*
X148046988Y-98386934D01*
X148051215Y-98382765D01*
X148051297Y-98382699D01*
X148051359Y-98382623D01*
X148052724Y-98381278D01*
X148998001Y-97436000D01*
X149031817Y-97394831D01*
X149066090Y-97353986D01*
X149067551Y-97351327D01*
X149069478Y-97348982D01*
X149094682Y-97301976D01*
X149120341Y-97255304D01*
X149121257Y-97252415D01*
X149122693Y-97249738D01*
X149138295Y-97198705D01*
X149154391Y-97147965D01*
X149154728Y-97144952D01*
X149155617Y-97142048D01*
X149161007Y-97088978D01*
X149166944Y-97036056D01*
X149166985Y-97030130D01*
X149166997Y-97030014D01*
X149166986Y-97029905D01*
X149167000Y-97028000D01*
X149167000Y-96759001D01*
X149383000Y-96543001D01*
X149383000Y-98583000D01*
X149383000Y-98583000D01*
G37*
X149383000Y-98583000D02*
X114459551Y-98583000D01*
X114459551Y-83958736D01*
X114459551Y-81418736D01*
X114414774Y-81192599D01*
X114326927Y-80979466D01*
X114199355Y-80787455D01*
X114036918Y-80623879D01*
X113845802Y-80494970D01*
X113633287Y-80405637D01*
X113407468Y-80359283D01*
X113176946Y-80357673D01*
X112950502Y-80400870D01*
X112736760Y-80487227D01*
X112543863Y-80613455D01*
X112379157Y-80774747D01*
X112248917Y-80964958D01*
X112158103Y-81176844D01*
X112110173Y-81402334D01*
X112106955Y-81632839D01*
X112148569Y-81859580D01*
X112233432Y-82073919D01*
X112358311Y-82267692D01*
X112518449Y-82433520D01*
X112707746Y-82565085D01*
X112918993Y-82657377D01*
X113144143Y-82706879D01*
X113374620Y-82711707D01*
X113601645Y-82671676D01*
X113816571Y-82588312D01*
X114011212Y-82464789D01*
X114178153Y-82305813D01*
X114311037Y-82117438D01*
X114404801Y-81906841D01*
X114455874Y-81682042D01*
X114459551Y-81418736D01*
X114459551Y-83958736D01*
X114414774Y-83732599D01*
X114326927Y-83519466D01*
X114199355Y-83327455D01*
X114036918Y-83163879D01*
X113845802Y-83034970D01*
X113633287Y-82945637D01*
X113407468Y-82899283D01*
X113176946Y-82897673D01*
X112950502Y-82940870D01*
X112736760Y-83027227D01*
X112543863Y-83153455D01*
X112379157Y-83314747D01*
X112248917Y-83504958D01*
X112158103Y-83716844D01*
X112110173Y-83942334D01*
X112106955Y-84172839D01*
X112148569Y-84399580D01*
X112233432Y-84613919D01*
X112358311Y-84807692D01*
X112518449Y-84973520D01*
X112707746Y-85105085D01*
X112918993Y-85197377D01*
X113144143Y-85246879D01*
X113374620Y-85251707D01*
X113601645Y-85211676D01*
X113816571Y-85128312D01*
X114011212Y-85004789D01*
X114178153Y-84845813D01*
X114311037Y-84657438D01*
X114404801Y-84446841D01*
X114455874Y-84222042D01*
X114459551Y-83958736D01*
X114459551Y-98583000D01*
X103347000Y-98583000D01*
X103347000Y-50007000D01*
X149383000Y-50007000D01*
X149383000Y-81510998D01*
X147982001Y-80109999D01*
X147940784Y-80076143D01*
X147899986Y-80041910D01*
X147897330Y-80040449D01*
X147894983Y-80038522D01*
X147847955Y-80013306D01*
X147801304Y-79987659D01*
X147798415Y-79986742D01*
X147795738Y-79985307D01*
X147744692Y-79969700D01*
X147693965Y-79953609D01*
X147690954Y-79953271D01*
X147688049Y-79952383D01*
X147635018Y-79946996D01*
X147582056Y-79941056D01*
X147576119Y-79941014D01*
X147576014Y-79941004D01*
X147575915Y-79941013D01*
X147574000Y-79941000D01*
X144257002Y-79941000D01*
X138076001Y-73759999D01*
X138034784Y-73726143D01*
X137993986Y-73691910D01*
X137991330Y-73690449D01*
X137988983Y-73688522D01*
X137941955Y-73663306D01*
X137895304Y-73637659D01*
X137892415Y-73636742D01*
X137889738Y-73635307D01*
X137838692Y-73619700D01*
X137787965Y-73603609D01*
X137784954Y-73603271D01*
X137782049Y-73602383D01*
X137729018Y-73596996D01*
X137676056Y-73591056D01*
X137670119Y-73591014D01*
X137670014Y-73591004D01*
X137669915Y-73591013D01*
X137668000Y-73591000D01*
X135367002Y-73591000D01*
X134520001Y-72743999D01*
X134482261Y-72713000D01*
X146812000Y-72713000D01*
X146865042Y-72707799D01*
X146918140Y-72703153D01*
X146921050Y-72702307D01*
X146924073Y-72702011D01*
X146975123Y-72686598D01*
X147026280Y-72671736D01*
X147028973Y-72670340D01*
X147031878Y-72669463D01*
X147078949Y-72644435D01*
X147126257Y-72619913D01*
X147128627Y-72618020D01*
X147131307Y-72616596D01*
X147172605Y-72582913D01*
X147214265Y-72549657D01*
X147218492Y-72545488D01*
X147218574Y-72545422D01*
X147218636Y-72545346D01*
X147220001Y-72544001D01*
X148998001Y-70766000D01*
X149031817Y-70724831D01*
X149066090Y-70683986D01*
X149067551Y-70681327D01*
X149069478Y-70678982D01*
X149094682Y-70631976D01*
X149120341Y-70585304D01*
X149121257Y-70582415D01*
X149122693Y-70579738D01*
X149138295Y-70528705D01*
X149154391Y-70477965D01*
X149154728Y-70474952D01*
X149155617Y-70472048D01*
X149161007Y-70418978D01*
X149166944Y-70366056D01*
X149166985Y-70360130D01*
X149166997Y-70360014D01*
X149166986Y-70359905D01*
X149167000Y-70358000D01*
X149167000Y-61722000D01*
X149161794Y-61668912D01*
X149157153Y-61615860D01*
X149156307Y-61612949D01*
X149156011Y-61609927D01*
X149140598Y-61558876D01*
X149125736Y-61507720D01*
X149124340Y-61505026D01*
X149123463Y-61502122D01*
X149098435Y-61455050D01*
X149073913Y-61407743D01*
X149072020Y-61405372D01*
X149070596Y-61402693D01*
X149036913Y-61361394D01*
X149003657Y-61319735D01*
X148999492Y-61315511D01*
X148999422Y-61315426D01*
X148999342Y-61315360D01*
X148998000Y-61313999D01*
X148617001Y-60932999D01*
X148575784Y-60899143D01*
X148534986Y-60864910D01*
X148532330Y-60863449D01*
X148529983Y-60861522D01*
X148482955Y-60836306D01*
X148436304Y-60810659D01*
X148433415Y-60809742D01*
X148430738Y-60808307D01*
X148379692Y-60792700D01*
X148328965Y-60776609D01*
X148325954Y-60776271D01*
X148323049Y-60775383D01*
X148270018Y-60769996D01*
X148217056Y-60764056D01*
X148211119Y-60764014D01*
X148211014Y-60764004D01*
X148210915Y-60764013D01*
X148209000Y-60764000D01*
X147514364Y-60764000D01*
X147432253Y-60606937D01*
X147268309Y-60403031D01*
X147067882Y-60234853D01*
X146838606Y-60108807D01*
X146719777Y-60071112D01*
X146821350Y-60040446D01*
X147052364Y-59917614D01*
X147255120Y-59752251D01*
X147421895Y-59550654D01*
X147546337Y-59320503D01*
X147623706Y-59070565D01*
X147651054Y-58810359D01*
X147627341Y-58549797D01*
X147553470Y-58298802D01*
X147432253Y-58066937D01*
X147268309Y-57863031D01*
X147067882Y-57694853D01*
X146838606Y-57568807D01*
X146719777Y-57531112D01*
X146821350Y-57500446D01*
X147052364Y-57377614D01*
X147255120Y-57212251D01*
X147421895Y-57010654D01*
X147546337Y-56780503D01*
X147623706Y-56530565D01*
X147651054Y-56270359D01*
X147627341Y-56009797D01*
X147553470Y-55758802D01*
X147432253Y-55526937D01*
X147268309Y-55323031D01*
X147067882Y-55154853D01*
X146881000Y-55052113D01*
X146881000Y-54928729D01*
X147052364Y-54837614D01*
X147255120Y-54672251D01*
X147421895Y-54470654D01*
X147546337Y-54240503D01*
X147623706Y-53990565D01*
X147651054Y-53730359D01*
X147627341Y-53469797D01*
X147553470Y-53218802D01*
X147432253Y-52986937D01*
X147268309Y-52783031D01*
X147067882Y-52614853D01*
X146838799Y-52488913D01*
X146838340Y-52488026D01*
X146837463Y-52485122D01*
X146812435Y-52438050D01*
X146787913Y-52390743D01*
X146786020Y-52388372D01*
X146784596Y-52385693D01*
X146750913Y-52344394D01*
X146717657Y-52302735D01*
X146713488Y-52298507D01*
X146713422Y-52298426D01*
X146713346Y-52298363D01*
X146712001Y-52296999D01*
X145696001Y-51280999D01*
X145654784Y-51247143D01*
X145613986Y-51212910D01*
X145611330Y-51211449D01*
X145608983Y-51209522D01*
X145561955Y-51184306D01*
X145515304Y-51158659D01*
X145512415Y-51157742D01*
X145509738Y-51156307D01*
X145458692Y-51140700D01*
X145407965Y-51124609D01*
X145404954Y-51124271D01*
X145402049Y-51123383D01*
X145349018Y-51117996D01*
X145296056Y-51112056D01*
X145290119Y-51112014D01*
X145290014Y-51112004D01*
X145289915Y-51112013D01*
X145288000Y-51112000D01*
X140462000Y-51112000D01*
X140408957Y-51117200D01*
X140355860Y-51121847D01*
X140352949Y-51122692D01*
X140349927Y-51122989D01*
X140298863Y-51138405D01*
X140247721Y-51153264D01*
X140245029Y-51154659D01*
X140242122Y-51155537D01*
X140195032Y-51180574D01*
X140147743Y-51205087D01*
X140145372Y-51206979D01*
X140142693Y-51208404D01*
X140101394Y-51242086D01*
X140059735Y-51275343D01*
X140055507Y-51279511D01*
X140055426Y-51279578D01*
X140055363Y-51279653D01*
X140053999Y-51280999D01*
X138021999Y-53312999D01*
X137988143Y-53354215D01*
X137953910Y-53395014D01*
X137952449Y-53397669D01*
X137950522Y-53400017D01*
X137925306Y-53447044D01*
X137899659Y-53493696D01*
X137898742Y-53496584D01*
X137897307Y-53499262D01*
X137881700Y-53550307D01*
X137865609Y-53601035D01*
X137865271Y-53604045D01*
X137864383Y-53606951D01*
X137858996Y-53659981D01*
X137853056Y-53712944D01*
X137853014Y-53718880D01*
X137853004Y-53718986D01*
X137853013Y-53719084D01*
X137853000Y-53721000D01*
X137853000Y-54341477D01*
X137831903Y-54362137D01*
X137745815Y-54487866D01*
X137685787Y-54627922D01*
X137654106Y-54776970D01*
X137651978Y-54929332D01*
X137679485Y-55079207D01*
X137735579Y-55220884D01*
X137818123Y-55348967D01*
X137923974Y-55458579D01*
X138049099Y-55545543D01*
X138188732Y-55606547D01*
X138337555Y-55639268D01*
X138489899Y-55642459D01*
X138639962Y-55615999D01*
X138782027Y-55560895D01*
X138910684Y-55479247D01*
X139021031Y-55374165D01*
X139108867Y-55249650D01*
X139170844Y-55110446D01*
X139204603Y-54961855D01*
X139207034Y-54787811D01*
X139177437Y-54638336D01*
X139119370Y-54497455D01*
X139035046Y-54370537D01*
X139007000Y-54342294D01*
X139007000Y-53960002D01*
X140701002Y-52266000D01*
X145048998Y-52266000D01*
X145462964Y-52679966D01*
X145352880Y-52769749D01*
X145186105Y-52971346D01*
X145106908Y-53117818D01*
X145106908Y-52857400D01*
X145100617Y-52779996D01*
X145060451Y-52651545D01*
X144986158Y-52539325D01*
X144883596Y-52452182D01*
X144760851Y-52396987D01*
X144627600Y-52378092D01*
X142900400Y-52378092D01*
X142822996Y-52384383D01*
X142694545Y-52424549D01*
X142582325Y-52498842D01*
X142495182Y-52601404D01*
X142439987Y-52724149D01*
X142421092Y-52857400D01*
X142421092Y-54584600D01*
X142427383Y-54662004D01*
X142467549Y-54790455D01*
X142541842Y-54902675D01*
X142644404Y-54989818D01*
X142767149Y-55045013D01*
X142900400Y-55063908D01*
X143166993Y-55063908D01*
X143015636Y-55144386D01*
X142812880Y-55309749D01*
X142646105Y-55511346D01*
X142521663Y-55741497D01*
X142444294Y-55991435D01*
X142416946Y-56251641D01*
X142440659Y-56512203D01*
X142514530Y-56763198D01*
X142635747Y-56995063D01*
X142799691Y-57198969D01*
X143000118Y-57367147D01*
X143229394Y-57493193D01*
X143348222Y-57530887D01*
X143246650Y-57561554D01*
X143015636Y-57684386D01*
X142812880Y-57849749D01*
X142646105Y-58051346D01*
X142521663Y-58281497D01*
X142444294Y-58531435D01*
X142416946Y-58791641D01*
X142440659Y-59052203D01*
X142514530Y-59303198D01*
X142635747Y-59535063D01*
X142799691Y-59738969D01*
X143000118Y-59907147D01*
X143229394Y-60033193D01*
X143348222Y-60070887D01*
X143246650Y-60101554D01*
X143015636Y-60224386D01*
X142812880Y-60389749D01*
X142646105Y-60591346D01*
X142521663Y-60821497D01*
X142444294Y-61071435D01*
X142416946Y-61331641D01*
X142440659Y-61592203D01*
X142514530Y-61843198D01*
X142635747Y-62075063D01*
X142799691Y-62278969D01*
X143000118Y-62447147D01*
X143229394Y-62573193D01*
X143269706Y-62585980D01*
X143214864Y-62603414D01*
X142976171Y-62735094D01*
X142767754Y-62910810D01*
X142597622Y-63123810D01*
X142472313Y-63365908D01*
X142403834Y-63591661D01*
X142507268Y-63808000D01*
X143691000Y-63808000D01*
X143691000Y-63788000D01*
X143837000Y-63788000D01*
X143837000Y-63808000D01*
X143857000Y-63808000D01*
X143857000Y-63954000D01*
X143837000Y-63954000D01*
X143837000Y-63974000D01*
X143691000Y-63974000D01*
X143691000Y-63954000D01*
X142507268Y-63954000D01*
X142403834Y-64170339D01*
X142472313Y-64396092D01*
X142597622Y-64638190D01*
X142767754Y-64851190D01*
X142976171Y-65026906D01*
X143214864Y-65158586D01*
X143267405Y-65175287D01*
X143246650Y-65181554D01*
X143015636Y-65304386D01*
X142812880Y-65469749D01*
X142646105Y-65671346D01*
X142521663Y-65901497D01*
X142494203Y-65990204D01*
X142472735Y-66007342D01*
X142468506Y-66011512D01*
X142468426Y-66011578D01*
X142468364Y-66011652D01*
X142466999Y-66012999D01*
X139587998Y-68892000D01*
X138379416Y-68892000D01*
X138279877Y-68850157D01*
X138130612Y-68819517D01*
X137978238Y-68818453D01*
X137828559Y-68847006D01*
X137687277Y-68904088D01*
X137559773Y-68987524D01*
X137450903Y-69094137D01*
X137364815Y-69219866D01*
X137304787Y-69359922D01*
X137273106Y-69508970D01*
X137270978Y-69661332D01*
X137298485Y-69811207D01*
X137354579Y-69952884D01*
X137407499Y-70035000D01*
X136767566Y-70035000D01*
X136767566Y-56550339D01*
X136767566Y-55971661D01*
X136720083Y-55796283D01*
X136604198Y-55549121D01*
X136442321Y-55329316D01*
X136240673Y-55145315D01*
X136105882Y-55063908D01*
X136271000Y-55063908D01*
X136348404Y-55057617D01*
X136476855Y-55017451D01*
X136589075Y-54943158D01*
X136676218Y-54840596D01*
X136731413Y-54717851D01*
X136750308Y-54584600D01*
X136750308Y-52857400D01*
X136744017Y-52779996D01*
X136703851Y-52651545D01*
X136629558Y-52539325D01*
X136526996Y-52452182D01*
X136404251Y-52396987D01*
X136271000Y-52378092D01*
X134728093Y-52378092D01*
X132996001Y-50645999D01*
X132954784Y-50612143D01*
X132913986Y-50577910D01*
X132911330Y-50576449D01*
X132908983Y-50574522D01*
X132861955Y-50549306D01*
X132815304Y-50523659D01*
X132812415Y-50522742D01*
X132809738Y-50521307D01*
X132758692Y-50505700D01*
X132707965Y-50489609D01*
X132704954Y-50489271D01*
X132702049Y-50488383D01*
X132649018Y-50482996D01*
X132596056Y-50477056D01*
X132590119Y-50477014D01*
X132590014Y-50477004D01*
X132589915Y-50477013D01*
X132588000Y-50477000D01*
X129779001Y-50477000D01*
X129694001Y-50391999D01*
X129652784Y-50358143D01*
X129611986Y-50323910D01*
X129609330Y-50322449D01*
X129606983Y-50320522D01*
X129559955Y-50295306D01*
X129513304Y-50269659D01*
X129510415Y-50268742D01*
X129507738Y-50267307D01*
X129456692Y-50251700D01*
X129405965Y-50235609D01*
X129402954Y-50235271D01*
X129400049Y-50234383D01*
X129347018Y-50228996D01*
X129294056Y-50223056D01*
X129288119Y-50223014D01*
X129288014Y-50223004D01*
X129287915Y-50223013D01*
X129286000Y-50223000D01*
X124714000Y-50223000D01*
X119888000Y-50223000D01*
X119834957Y-50228200D01*
X119781860Y-50232847D01*
X119778949Y-50233692D01*
X119775927Y-50233989D01*
X119724876Y-50249401D01*
X119673720Y-50264264D01*
X119671026Y-50265659D01*
X119668122Y-50266537D01*
X119621050Y-50291564D01*
X119573743Y-50316087D01*
X119571372Y-50317979D01*
X119568693Y-50319404D01*
X119527394Y-50353086D01*
X119485735Y-50386343D01*
X119481507Y-50390511D01*
X119481426Y-50390578D01*
X119481363Y-50390653D01*
X119479999Y-50391999D01*
X118463999Y-51407999D01*
X118430143Y-51449215D01*
X118395910Y-51490014D01*
X118394449Y-51492669D01*
X118392522Y-51495017D01*
X118367306Y-51542044D01*
X118341659Y-51588696D01*
X118340742Y-51591584D01*
X118339307Y-51594262D01*
X118323700Y-51645307D01*
X118307609Y-51696035D01*
X118307271Y-51699045D01*
X118306383Y-51701951D01*
X118300996Y-51754981D01*
X118295056Y-51807944D01*
X118295014Y-51813880D01*
X118295004Y-51813986D01*
X118295013Y-51814084D01*
X118295000Y-51816000D01*
X118295000Y-56287000D01*
X116110000Y-56287000D01*
X116056998Y-56292196D01*
X116003861Y-56296846D01*
X116000945Y-56297693D01*
X115997927Y-56297989D01*
X115946892Y-56313397D01*
X115895721Y-56328264D01*
X115893029Y-56329659D01*
X115890122Y-56330537D01*
X115843012Y-56355585D01*
X115795744Y-56380087D01*
X115793375Y-56381977D01*
X115790693Y-56383404D01*
X115749379Y-56417099D01*
X115707736Y-56450342D01*
X115703511Y-56454508D01*
X115703426Y-56454578D01*
X115703360Y-56454657D01*
X115702000Y-56455999D01*
X112875999Y-59281999D01*
X112842143Y-59323215D01*
X112807910Y-59364014D01*
X112806449Y-59366669D01*
X112804522Y-59369017D01*
X112779306Y-59416044D01*
X112753659Y-59462696D01*
X112752742Y-59465584D01*
X112751307Y-59468262D01*
X112735700Y-59519307D01*
X112719609Y-59570035D01*
X112719271Y-59573045D01*
X112718383Y-59575951D01*
X112712996Y-59628981D01*
X112707056Y-59681944D01*
X112707014Y-59687880D01*
X112707004Y-59687986D01*
X112707013Y-59688084D01*
X112707000Y-59690000D01*
X112707000Y-60036192D01*
X112585500Y-60036192D01*
X112508096Y-60042483D01*
X112379645Y-60082649D01*
X112267425Y-60156942D01*
X112180282Y-60259504D01*
X112125087Y-60382249D01*
X112106192Y-60515500D01*
X112106192Y-61912500D01*
X112112483Y-61989904D01*
X112152649Y-62118355D01*
X112226942Y-62230575D01*
X112329504Y-62317718D01*
X112452249Y-62372913D01*
X112585500Y-62391808D01*
X113982500Y-62391808D01*
X114059904Y-62385517D01*
X114188355Y-62345351D01*
X114300575Y-62271058D01*
X114387718Y-62168496D01*
X114442913Y-62045751D01*
X114461808Y-61912500D01*
X114461808Y-60515500D01*
X114455517Y-60438096D01*
X114415351Y-60309645D01*
X114341058Y-60197425D01*
X114238496Y-60110282D01*
X114115751Y-60055087D01*
X113982500Y-60036192D01*
X113861000Y-60036192D01*
X113861000Y-59929001D01*
X116349001Y-57441000D01*
X119158000Y-57441000D01*
X120336692Y-57441000D01*
X120336692Y-57864000D01*
X120342983Y-57941404D01*
X120383149Y-58069855D01*
X120457442Y-58182075D01*
X120560004Y-58269218D01*
X120682749Y-58324413D01*
X120816000Y-58343308D01*
X122516000Y-58343308D01*
X122593404Y-58337017D01*
X122721855Y-58296851D01*
X122834075Y-58222558D01*
X122921218Y-58119996D01*
X122976413Y-57997251D01*
X122995308Y-57864000D01*
X122995308Y-55864000D01*
X122989017Y-55786596D01*
X122948851Y-55658145D01*
X122874558Y-55545925D01*
X122771996Y-55458782D01*
X122649251Y-55403587D01*
X122516000Y-55384692D01*
X120816000Y-55384692D01*
X120738596Y-55390983D01*
X120610145Y-55431149D01*
X120497925Y-55505442D01*
X120410782Y-55608004D01*
X120355587Y-55730749D01*
X120336692Y-55864000D01*
X120336692Y-56287000D01*
X119449000Y-56287000D01*
X119449000Y-52055002D01*
X120127002Y-51377000D01*
X124714000Y-51377000D01*
X129046998Y-51377000D01*
X129131999Y-51462000D01*
X129173185Y-51495831D01*
X129214014Y-51530090D01*
X129216670Y-51531550D01*
X129219017Y-51533478D01*
X129266009Y-51558674D01*
X129312696Y-51584341D01*
X129315588Y-51585258D01*
X129318262Y-51586692D01*
X129369261Y-51602284D01*
X129420035Y-51618391D01*
X129423045Y-51618728D01*
X129425951Y-51619617D01*
X129478981Y-51625003D01*
X129531944Y-51630944D01*
X129537880Y-51630985D01*
X129537986Y-51630996D01*
X129538084Y-51630986D01*
X129540000Y-51631000D01*
X132348998Y-51631000D01*
X133759692Y-53041693D01*
X133759692Y-54584600D01*
X133765983Y-54662004D01*
X133806149Y-54790455D01*
X133880442Y-54902675D01*
X133983004Y-54989818D01*
X134105749Y-55045013D01*
X134239000Y-55063908D01*
X134404117Y-55063908D01*
X134269327Y-55145315D01*
X134067679Y-55329316D01*
X133905802Y-55549121D01*
X133789917Y-55796283D01*
X133742434Y-55971661D01*
X133845868Y-56188000D01*
X135182000Y-56188000D01*
X135182000Y-56168000D01*
X135328000Y-56168000D01*
X135328000Y-56188000D01*
X136664132Y-56188000D01*
X136767566Y-55971661D01*
X136767566Y-56550339D01*
X136664132Y-56334000D01*
X135328000Y-56334000D01*
X135328000Y-56354000D01*
X135182000Y-56354000D01*
X135182000Y-56334000D01*
X133845868Y-56334000D01*
X133742434Y-56550339D01*
X133789917Y-56725717D01*
X133905802Y-56972879D01*
X134067679Y-57192684D01*
X134269327Y-57376685D01*
X134502997Y-57517811D01*
X134606015Y-57555062D01*
X134584513Y-57561554D01*
X134353499Y-57684386D01*
X134150743Y-57849749D01*
X133983968Y-58051346D01*
X133859526Y-58281497D01*
X133782157Y-58531435D01*
X133754809Y-58791641D01*
X133778522Y-59052203D01*
X133852393Y-59303198D01*
X133973610Y-59535063D01*
X134137554Y-59738969D01*
X134337981Y-59907147D01*
X134567257Y-60033193D01*
X134686085Y-60070887D01*
X134584513Y-60101554D01*
X134353499Y-60224386D01*
X134150743Y-60389749D01*
X133983968Y-60591346D01*
X133859526Y-60821497D01*
X133782157Y-61071435D01*
X133754809Y-61331641D01*
X133778522Y-61592203D01*
X133852393Y-61843198D01*
X133973610Y-62075063D01*
X134137554Y-62278969D01*
X134337981Y-62447147D01*
X134567257Y-62573193D01*
X134686085Y-62610887D01*
X134584513Y-62641554D01*
X134353499Y-62764386D01*
X134150743Y-62929749D01*
X133983968Y-63131346D01*
X133859526Y-63361497D01*
X133782157Y-63611435D01*
X133754809Y-63871641D01*
X133778522Y-64132203D01*
X133852393Y-64383198D01*
X133973610Y-64615063D01*
X134137554Y-64818969D01*
X134337981Y-64987147D01*
X134567257Y-65113193D01*
X134686085Y-65150887D01*
X134584513Y-65181554D01*
X134353499Y-65304386D01*
X134150743Y-65469749D01*
X133983968Y-65671346D01*
X133859526Y-65901497D01*
X133782157Y-66151435D01*
X133754809Y-66411641D01*
X133778522Y-66672203D01*
X133852393Y-66923198D01*
X133973610Y-67155063D01*
X134137554Y-67358969D01*
X134337981Y-67527147D01*
X134567257Y-67653193D01*
X134816650Y-67732305D01*
X135076658Y-67761469D01*
X135095376Y-67761600D01*
X135414624Y-67761600D01*
X135675015Y-67736068D01*
X135925487Y-67660446D01*
X136156501Y-67537614D01*
X136359257Y-67372251D01*
X136526032Y-67170654D01*
X136650474Y-66940503D01*
X136727843Y-66690565D01*
X136755191Y-66430359D01*
X136731478Y-66169797D01*
X136657607Y-65918802D01*
X136536390Y-65686937D01*
X136372446Y-65483031D01*
X136172019Y-65314853D01*
X135942743Y-65188807D01*
X135823914Y-65151112D01*
X135925487Y-65120446D01*
X136156501Y-64997614D01*
X136359257Y-64832251D01*
X136526032Y-64630654D01*
X136650474Y-64400503D01*
X136727843Y-64150565D01*
X136755191Y-63890359D01*
X136731478Y-63629797D01*
X136657607Y-63378802D01*
X136536390Y-63146937D01*
X136372446Y-62943031D01*
X136172019Y-62774853D01*
X135942743Y-62648807D01*
X135823914Y-62611112D01*
X135925487Y-62580446D01*
X136156501Y-62457614D01*
X136359257Y-62292251D01*
X136526032Y-62090654D01*
X136650474Y-61860503D01*
X136727843Y-61610565D01*
X136755191Y-61350359D01*
X136731478Y-61089797D01*
X136657607Y-60838802D01*
X136536390Y-60606937D01*
X136372446Y-60403031D01*
X136172019Y-60234853D01*
X135942743Y-60108807D01*
X135823914Y-60071112D01*
X135925487Y-60040446D01*
X136156501Y-59917614D01*
X136359257Y-59752251D01*
X136526032Y-59550654D01*
X136650474Y-59320503D01*
X136727843Y-59070565D01*
X136755191Y-58810359D01*
X136731478Y-58549797D01*
X136657607Y-58298802D01*
X136536390Y-58066937D01*
X136372446Y-57863031D01*
X136172019Y-57694853D01*
X135942743Y-57568807D01*
X135901848Y-57555834D01*
X136007003Y-57517811D01*
X136240673Y-57376685D01*
X136442321Y-57192684D01*
X136604198Y-56972879D01*
X136720083Y-56725717D01*
X136767566Y-56550339D01*
X136767566Y-70035000D01*
X132348090Y-70035000D01*
X132323675Y-70010414D01*
X132197348Y-69925206D01*
X132056877Y-69866157D01*
X131907612Y-69835517D01*
X131755238Y-69834453D01*
X131605559Y-69863006D01*
X131464277Y-69920088D01*
X131336773Y-70003524D01*
X131227903Y-70110137D01*
X131141815Y-70235866D01*
X131081787Y-70375922D01*
X131050106Y-70524970D01*
X131047978Y-70677332D01*
X131075485Y-70827207D01*
X131131579Y-70968884D01*
X131214123Y-71096967D01*
X131319974Y-71206579D01*
X131445099Y-71293543D01*
X131584732Y-71354547D01*
X131733555Y-71387268D01*
X131885899Y-71390459D01*
X132035962Y-71363999D01*
X132178027Y-71308895D01*
X132306684Y-71227247D01*
X132346847Y-71189000D01*
X141605000Y-71189000D01*
X141658042Y-71183799D01*
X141711140Y-71179153D01*
X141714050Y-71178307D01*
X141717073Y-71178011D01*
X141768123Y-71162598D01*
X141819280Y-71147736D01*
X141821973Y-71146340D01*
X141824878Y-71145463D01*
X141871949Y-71120435D01*
X141919257Y-71095913D01*
X141921627Y-71094020D01*
X141924307Y-71092596D01*
X141965605Y-71058913D01*
X142007265Y-71025657D01*
X142011492Y-71021488D01*
X142011574Y-71021422D01*
X142011636Y-71021346D01*
X142013001Y-71020001D01*
X142981487Y-70051514D01*
X143000118Y-70067147D01*
X143229394Y-70193193D01*
X143478787Y-70272305D01*
X143738795Y-70301469D01*
X143757513Y-70301600D01*
X143770487Y-70301600D01*
X144030878Y-70276068D01*
X144281350Y-70200446D01*
X144512364Y-70077614D01*
X144715120Y-69912251D01*
X144881895Y-69710654D01*
X145006337Y-69480503D01*
X145033652Y-69392261D01*
X145054530Y-69463198D01*
X145175747Y-69695063D01*
X145339691Y-69898969D01*
X145540118Y-70067147D01*
X145769394Y-70193193D01*
X146018787Y-70272305D01*
X146278795Y-70301469D01*
X146297513Y-70301600D01*
X146310487Y-70301600D01*
X146570878Y-70276068D01*
X146821350Y-70200446D01*
X147052364Y-70077614D01*
X147255120Y-69912251D01*
X147421895Y-69710654D01*
X147546337Y-69480503D01*
X147623706Y-69230565D01*
X147651054Y-68970359D01*
X147627341Y-68709797D01*
X147553470Y-68458802D01*
X147432253Y-68226937D01*
X147268309Y-68023031D01*
X147067882Y-67854853D01*
X146838606Y-67728807D01*
X146719777Y-67691112D01*
X146821350Y-67660446D01*
X147052364Y-67537614D01*
X147255120Y-67372251D01*
X147421895Y-67170654D01*
X147546337Y-66940503D01*
X147623706Y-66690565D01*
X147651054Y-66430359D01*
X147627341Y-66169797D01*
X147553470Y-65918802D01*
X147432253Y-65686937D01*
X147268309Y-65483031D01*
X147067882Y-65314853D01*
X146838606Y-65188807D01*
X146719777Y-65151112D01*
X146821350Y-65120446D01*
X147052364Y-64997614D01*
X147255120Y-64832251D01*
X147421895Y-64630654D01*
X147546337Y-64400503D01*
X147623706Y-64150565D01*
X147651054Y-63890359D01*
X147627341Y-63629797D01*
X147553470Y-63378802D01*
X147432253Y-63146937D01*
X147268309Y-62943031D01*
X147067882Y-62774853D01*
X146838606Y-62648807D01*
X146719777Y-62611112D01*
X146821350Y-62580446D01*
X147052364Y-62457614D01*
X147255120Y-62292251D01*
X147421895Y-62090654D01*
X147515248Y-61918000D01*
X147969998Y-61918000D01*
X148013000Y-61961001D01*
X148013000Y-70118998D01*
X146572998Y-71559000D01*
X131557001Y-71559000D01*
X129440001Y-69441999D01*
X129398784Y-69408143D01*
X129357986Y-69373910D01*
X129355330Y-69372449D01*
X129352983Y-69370522D01*
X129305955Y-69345306D01*
X129259304Y-69319659D01*
X129256415Y-69318742D01*
X129253738Y-69317307D01*
X129202692Y-69301700D01*
X129151965Y-69285609D01*
X129148954Y-69285271D01*
X129146049Y-69284383D01*
X129093018Y-69278996D01*
X129040056Y-69273056D01*
X129034119Y-69273014D01*
X129034014Y-69273004D01*
X129033915Y-69273013D01*
X129032000Y-69273000D01*
X128766566Y-69273000D01*
X128766566Y-60741339D01*
X128663132Y-60525000D01*
X127327000Y-60525000D01*
X127327000Y-61842600D01*
X127479400Y-61842600D01*
X127749290Y-61801638D01*
X128006003Y-61708811D01*
X128239673Y-61567685D01*
X128441321Y-61383684D01*
X128603198Y-61163879D01*
X128719083Y-60916717D01*
X128766566Y-60741339D01*
X128766566Y-69273000D01*
X127181000Y-69273000D01*
X127181000Y-61842600D01*
X127181000Y-60525000D01*
X125844868Y-60525000D01*
X125741434Y-60741339D01*
X125788917Y-60916717D01*
X125904802Y-61163879D01*
X126066679Y-61383684D01*
X126268327Y-61567685D01*
X126501997Y-61708811D01*
X126758710Y-61801638D01*
X127028600Y-61842600D01*
X127181000Y-61842600D01*
X127181000Y-69273000D01*
X123190000Y-69273000D01*
X123136957Y-69278200D01*
X123083860Y-69282847D01*
X123080949Y-69283692D01*
X123077927Y-69283989D01*
X123026876Y-69299401D01*
X122975720Y-69314264D01*
X122973026Y-69315659D01*
X122970122Y-69316537D01*
X122923050Y-69341564D01*
X122875743Y-69366087D01*
X122873372Y-69367979D01*
X122870693Y-69369404D01*
X122829394Y-69403086D01*
X122787735Y-69436343D01*
X122783511Y-69440507D01*
X122783426Y-69440578D01*
X122783360Y-69440657D01*
X122781999Y-69442000D01*
X122696998Y-69527000D01*
X121853749Y-69527000D01*
X121931037Y-69417438D01*
X122024801Y-69206841D01*
X122075874Y-68982042D01*
X122079551Y-68718736D01*
X122034774Y-68492599D01*
X121946927Y-68279466D01*
X121819355Y-68087455D01*
X121656918Y-67923879D01*
X121465802Y-67794970D01*
X121253287Y-67705637D01*
X121027468Y-67659283D01*
X120796946Y-67657673D01*
X120570502Y-67700870D01*
X120356760Y-67787227D01*
X120163863Y-67913455D01*
X119999157Y-68074747D01*
X119874365Y-68257000D01*
X119873001Y-68257000D01*
X118941000Y-67324998D01*
X118941000Y-63739002D01*
X119619002Y-63061000D01*
X119953792Y-63061000D01*
X119868917Y-63184958D01*
X119778103Y-63396844D01*
X119730173Y-63622334D01*
X119726955Y-63852839D01*
X119768569Y-64079580D01*
X119853432Y-64293919D01*
X119978311Y-64487692D01*
X120138449Y-64653520D01*
X120327746Y-64785085D01*
X120538993Y-64877377D01*
X120764143Y-64926879D01*
X120994620Y-64931707D01*
X121221645Y-64891676D01*
X121436571Y-64808312D01*
X121631212Y-64684789D01*
X121798153Y-64525813D01*
X121931037Y-64337438D01*
X121958467Y-64275829D01*
X121957335Y-64356881D01*
X121991936Y-64545406D01*
X122062496Y-64723620D01*
X122166328Y-64884735D01*
X122299476Y-65022614D01*
X122303050Y-65025098D01*
X122183661Y-65142013D01*
X122075371Y-65300165D01*
X121999863Y-65476340D01*
X121960012Y-65663825D01*
X121958561Y-65767692D01*
X121946927Y-65739466D01*
X121819355Y-65547455D01*
X121656918Y-65383879D01*
X121465802Y-65254970D01*
X121253287Y-65165637D01*
X121027468Y-65119283D01*
X120796946Y-65117673D01*
X120570502Y-65160870D01*
X120356760Y-65247227D01*
X120163863Y-65373455D01*
X119999157Y-65534747D01*
X119868917Y-65724958D01*
X119778103Y-65936844D01*
X119730173Y-66162334D01*
X119726955Y-66392839D01*
X119768569Y-66619580D01*
X119853432Y-66833919D01*
X119978311Y-67027692D01*
X120138449Y-67193520D01*
X120327746Y-67325085D01*
X120538993Y-67417377D01*
X120764143Y-67466879D01*
X120994620Y-67471707D01*
X121221645Y-67431676D01*
X121436571Y-67348312D01*
X121631212Y-67224789D01*
X121798153Y-67065813D01*
X121931037Y-66877438D01*
X122024801Y-66666841D01*
X122075874Y-66442042D01*
X122078594Y-66247200D01*
X122166328Y-66383335D01*
X122299476Y-66521214D01*
X122456869Y-66630605D01*
X122632512Y-66707341D01*
X122819714Y-66748500D01*
X123011346Y-66752514D01*
X123200109Y-66719231D01*
X123378811Y-66649917D01*
X123540647Y-66547212D01*
X123679452Y-66415030D01*
X123789939Y-66258405D01*
X123867900Y-66083302D01*
X123910365Y-65896391D01*
X123913422Y-65677463D01*
X123876192Y-65489439D01*
X123803151Y-65312228D01*
X123697080Y-65152578D01*
X123567984Y-65022578D01*
X123679452Y-64916430D01*
X123789939Y-64759805D01*
X123867900Y-64584702D01*
X123910365Y-64397791D01*
X123913422Y-64178863D01*
X123876192Y-63990839D01*
X123803151Y-63813628D01*
X123697080Y-63653978D01*
X123562020Y-63517972D01*
X123403115Y-63410789D01*
X123226418Y-63336513D01*
X123038658Y-63297971D01*
X122846989Y-63296633D01*
X122658710Y-63332549D01*
X122480993Y-63404351D01*
X122320607Y-63509305D01*
X122183661Y-63643413D01*
X122077316Y-63798723D01*
X122079551Y-63638736D01*
X122034774Y-63412599D01*
X121946927Y-63199466D01*
X121854930Y-63061000D01*
X121920000Y-63061000D01*
X121973042Y-63055799D01*
X122026140Y-63051153D01*
X122029050Y-63050307D01*
X122032073Y-63050011D01*
X122083123Y-63034598D01*
X122134280Y-63019736D01*
X122136973Y-63018340D01*
X122139878Y-63017463D01*
X122186949Y-62992435D01*
X122234257Y-62967913D01*
X122236627Y-62966020D01*
X122239307Y-62964596D01*
X122280605Y-62930913D01*
X122322265Y-62897657D01*
X122326492Y-62893488D01*
X122326574Y-62893422D01*
X122326636Y-62893346D01*
X122328001Y-62892001D01*
X123852000Y-61368001D01*
X123885808Y-61326841D01*
X123920090Y-61285986D01*
X123921552Y-61283326D01*
X123923477Y-61280983D01*
X123948653Y-61234029D01*
X123974341Y-61187304D01*
X123975258Y-61184411D01*
X123976692Y-61181738D01*
X123992284Y-61130738D01*
X124008391Y-61079965D01*
X124008728Y-61076954D01*
X124009617Y-61074049D01*
X124015003Y-61021018D01*
X124020944Y-60968056D01*
X124020985Y-60962119D01*
X124020996Y-60962014D01*
X124020986Y-60961915D01*
X124021000Y-60960000D01*
X124021000Y-59675001D01*
X125757108Y-57938893D01*
X125777522Y-58163203D01*
X125851393Y-58414198D01*
X125972610Y-58646063D01*
X126136554Y-58849969D01*
X126336981Y-59018147D01*
X126566257Y-59144193D01*
X126607151Y-59157165D01*
X126501997Y-59195189D01*
X126268327Y-59336315D01*
X126066679Y-59520316D01*
X125904802Y-59740121D01*
X125788917Y-59987283D01*
X125741434Y-60162661D01*
X125844868Y-60379000D01*
X127181000Y-60379000D01*
X127181000Y-60359000D01*
X127327000Y-60359000D01*
X127327000Y-60379000D01*
X128663132Y-60379000D01*
X128766566Y-60162661D01*
X128719083Y-59987283D01*
X128603198Y-59740121D01*
X128441321Y-59520316D01*
X128239673Y-59336315D01*
X128006003Y-59195189D01*
X127902984Y-59157937D01*
X127924487Y-59151446D01*
X128155501Y-59028614D01*
X128358257Y-58863251D01*
X128525032Y-58661654D01*
X128618385Y-58489000D01*
X129046998Y-58489000D01*
X129217000Y-58659001D01*
X129217000Y-61961477D01*
X129195903Y-61982137D01*
X129109815Y-62107866D01*
X129049787Y-62247922D01*
X129018106Y-62396970D01*
X129015978Y-62549332D01*
X129043485Y-62699207D01*
X129099579Y-62840884D01*
X129182123Y-62968967D01*
X129287974Y-63078579D01*
X129413099Y-63165543D01*
X129552732Y-63226547D01*
X129701555Y-63259268D01*
X129853899Y-63262459D01*
X130003962Y-63235999D01*
X130146027Y-63180895D01*
X130274684Y-63099247D01*
X130385031Y-62994165D01*
X130472867Y-62869650D01*
X130534844Y-62730446D01*
X130568603Y-62581855D01*
X130571034Y-62407811D01*
X130541437Y-62258336D01*
X130483370Y-62117455D01*
X130399046Y-61990537D01*
X130371000Y-61962294D01*
X130371000Y-58420000D01*
X130365794Y-58366912D01*
X130361153Y-58313860D01*
X130360307Y-58310949D01*
X130360011Y-58307927D01*
X130344598Y-58256876D01*
X130329736Y-58205720D01*
X130328340Y-58203027D01*
X130327463Y-58200122D01*
X130302414Y-58153011D01*
X130277912Y-58105743D01*
X130276022Y-58103376D01*
X130274596Y-58100693D01*
X130240891Y-58059367D01*
X130207657Y-58017735D01*
X130203492Y-58013511D01*
X130203422Y-58013426D01*
X130203342Y-58013360D01*
X130202000Y-58011999D01*
X129694001Y-57503999D01*
X129652784Y-57470143D01*
X129611986Y-57435910D01*
X129609330Y-57434449D01*
X129606983Y-57432522D01*
X129559955Y-57407306D01*
X129513304Y-57381659D01*
X129510415Y-57380742D01*
X129507738Y-57379307D01*
X129456692Y-57363700D01*
X129405965Y-57347609D01*
X129402954Y-57347271D01*
X129400049Y-57346383D01*
X129347018Y-57340996D01*
X129294056Y-57335056D01*
X129288119Y-57335014D01*
X129288014Y-57335004D01*
X129287915Y-57335013D01*
X129286000Y-57335000D01*
X128617501Y-57335000D01*
X128535390Y-57177937D01*
X128371446Y-56974031D01*
X128171019Y-56805853D01*
X127941743Y-56679807D01*
X127822914Y-56642112D01*
X127924487Y-56611446D01*
X128155501Y-56488614D01*
X128358257Y-56323251D01*
X128525032Y-56121654D01*
X128649474Y-55891503D01*
X128726843Y-55641565D01*
X128754191Y-55381359D01*
X128730478Y-55120797D01*
X128656607Y-54869802D01*
X128535390Y-54637937D01*
X128371446Y-54434031D01*
X128171019Y-54265853D01*
X128005591Y-54174908D01*
X128270000Y-54174908D01*
X128347404Y-54168617D01*
X128475855Y-54128451D01*
X128588075Y-54054158D01*
X128675218Y-53951596D01*
X128730413Y-53828851D01*
X128749308Y-53695600D01*
X128749308Y-51968400D01*
X128743017Y-51890996D01*
X128702851Y-51762545D01*
X128628558Y-51650325D01*
X128525996Y-51563182D01*
X128403251Y-51507987D01*
X128270000Y-51489092D01*
X126238000Y-51489092D01*
X126160596Y-51495383D01*
X126032145Y-51535549D01*
X125919925Y-51609842D01*
X125832782Y-51712404D01*
X125777587Y-51835149D01*
X125758692Y-51968400D01*
X125758692Y-52287000D01*
X122995308Y-52287000D01*
X122995308Y-51864000D01*
X122989017Y-51786596D01*
X122948851Y-51658145D01*
X122874558Y-51545925D01*
X122771996Y-51458782D01*
X122649251Y-51403587D01*
X122516000Y-51384692D01*
X120816000Y-51384692D01*
X120738596Y-51390983D01*
X120610145Y-51431149D01*
X120497925Y-51505442D01*
X120410782Y-51608004D01*
X120355587Y-51730749D01*
X120336692Y-51864000D01*
X120336692Y-53864000D01*
X120342983Y-53941404D01*
X120383149Y-54069855D01*
X120457442Y-54182075D01*
X120560004Y-54269218D01*
X120682749Y-54324413D01*
X120816000Y-54343308D01*
X122516000Y-54343308D01*
X122593404Y-54337017D01*
X122721855Y-54296851D01*
X122834075Y-54222558D01*
X122921218Y-54119996D01*
X122976413Y-53997251D01*
X122995308Y-53864000D01*
X122995308Y-53441000D01*
X125758692Y-53441000D01*
X125758692Y-53695600D01*
X125764983Y-53773004D01*
X125805149Y-53901455D01*
X125879442Y-54013675D01*
X125982004Y-54100818D01*
X126104749Y-54156013D01*
X126238000Y-54174908D01*
X126503856Y-54174908D01*
X126352499Y-54255386D01*
X126149743Y-54420749D01*
X125982968Y-54622346D01*
X125858526Y-54852497D01*
X125781157Y-55102435D01*
X125753809Y-55362641D01*
X125777522Y-55623203D01*
X125851393Y-55874198D01*
X125967572Y-56096426D01*
X123035999Y-59027999D01*
X123002143Y-59069215D01*
X122967910Y-59110014D01*
X122966449Y-59112669D01*
X122964522Y-59115017D01*
X122939306Y-59162044D01*
X122913659Y-59208696D01*
X122912742Y-59211584D01*
X122911307Y-59214262D01*
X122895700Y-59265307D01*
X122879609Y-59316035D01*
X122879271Y-59319045D01*
X122878383Y-59321951D01*
X122872996Y-59374981D01*
X122867056Y-59427944D01*
X122867014Y-59433880D01*
X122867004Y-59433986D01*
X122867013Y-59434084D01*
X122867000Y-59436000D01*
X122867000Y-60720998D01*
X122100006Y-61487992D01*
X122116341Y-61429982D01*
X122135182Y-61189316D01*
X122106709Y-60949599D01*
X122032018Y-60720042D01*
X121941404Y-60550515D01*
X121731495Y-60489743D01*
X121628257Y-60592981D01*
X121628257Y-60386505D01*
X121567485Y-60176596D01*
X121352348Y-60067090D01*
X121119982Y-60001659D01*
X120879316Y-59982818D01*
X120639599Y-60011291D01*
X120410042Y-60085982D01*
X120240515Y-60176596D01*
X120179743Y-60386505D01*
X120904000Y-61110762D01*
X121628257Y-60386505D01*
X121628257Y-60592981D01*
X121007238Y-61214000D01*
X121021380Y-61228142D01*
X120918142Y-61331380D01*
X120904000Y-61317238D01*
X120889858Y-61331380D01*
X120786620Y-61228142D01*
X120800762Y-61214000D01*
X120076505Y-60489743D01*
X119866596Y-60550515D01*
X119757090Y-60765652D01*
X119691659Y-60998018D01*
X119672818Y-61238684D01*
X119701291Y-61478401D01*
X119775982Y-61707958D01*
X119866596Y-61877485D01*
X119968542Y-61907000D01*
X119380000Y-61907000D01*
X119326957Y-61912200D01*
X119273860Y-61916847D01*
X119270949Y-61917692D01*
X119267927Y-61917989D01*
X119216876Y-61933401D01*
X119165720Y-61948264D01*
X119163026Y-61949659D01*
X119160122Y-61950537D01*
X119113050Y-61975564D01*
X119065743Y-62000087D01*
X119063372Y-62001979D01*
X119060693Y-62003404D01*
X119019394Y-62037086D01*
X118977735Y-62070343D01*
X118973507Y-62074511D01*
X118973426Y-62074578D01*
X118973363Y-62074653D01*
X118971999Y-62075999D01*
X117955999Y-63091999D01*
X117922143Y-63133215D01*
X117887910Y-63174014D01*
X117886449Y-63176669D01*
X117884522Y-63179017D01*
X117859306Y-63226044D01*
X117833659Y-63272696D01*
X117832742Y-63275584D01*
X117831307Y-63278262D01*
X117815700Y-63329307D01*
X117799609Y-63380035D01*
X117799271Y-63383045D01*
X117798383Y-63385951D01*
X117792996Y-63438981D01*
X117787056Y-63491944D01*
X117787014Y-63497880D01*
X117787004Y-63497986D01*
X117787013Y-63498084D01*
X117787000Y-63500000D01*
X117787000Y-67564000D01*
X117792200Y-67617042D01*
X117796847Y-67670140D01*
X117797692Y-67673050D01*
X117797989Y-67676073D01*
X117813401Y-67727123D01*
X117828264Y-67778280D01*
X117829659Y-67780973D01*
X117830537Y-67783878D01*
X117855564Y-67830949D01*
X117880087Y-67878257D01*
X117881979Y-67880627D01*
X117883404Y-67883307D01*
X117917086Y-67924605D01*
X117950343Y-67966265D01*
X117954511Y-67970492D01*
X117954578Y-67970574D01*
X117954653Y-67970636D01*
X117955999Y-67972001D01*
X119225999Y-69242000D01*
X119267185Y-69275831D01*
X119308014Y-69310090D01*
X119310670Y-69311550D01*
X119313017Y-69313478D01*
X119360009Y-69338674D01*
X119406696Y-69364341D01*
X119409588Y-69365258D01*
X119412262Y-69366692D01*
X119463261Y-69382284D01*
X119514035Y-69398391D01*
X119517045Y-69398728D01*
X119519951Y-69399617D01*
X119572981Y-69405003D01*
X119625944Y-69410944D01*
X119631880Y-69410985D01*
X119631986Y-69410996D01*
X119632084Y-69410986D01*
X119634000Y-69411000D01*
X119877329Y-69411000D01*
X119952086Y-69527000D01*
X118603001Y-69527000D01*
X114962001Y-65885999D01*
X114920784Y-65852143D01*
X114879986Y-65817910D01*
X114877330Y-65816449D01*
X114874983Y-65814522D01*
X114827955Y-65789306D01*
X114781304Y-65763659D01*
X114778415Y-65762742D01*
X114775738Y-65761307D01*
X114724692Y-65745700D01*
X114673965Y-65729609D01*
X114670954Y-65729271D01*
X114668049Y-65728383D01*
X114615018Y-65722996D01*
X114562056Y-65717056D01*
X114556119Y-65717014D01*
X114556014Y-65717004D01*
X114555915Y-65717013D01*
X114554000Y-65717000D01*
X114459551Y-65717000D01*
X114459551Y-63638736D01*
X114414774Y-63412599D01*
X114326927Y-63199466D01*
X114199355Y-63007455D01*
X114036918Y-62843879D01*
X113845802Y-62714970D01*
X113633287Y-62625637D01*
X113407468Y-62579283D01*
X113176946Y-62577673D01*
X112950502Y-62620870D01*
X112736760Y-62707227D01*
X112543863Y-62833455D01*
X112379157Y-62994747D01*
X112248917Y-63184958D01*
X112158103Y-63396844D01*
X112110173Y-63622334D01*
X112106955Y-63852839D01*
X112148569Y-64079580D01*
X112233432Y-64293919D01*
X112358311Y-64487692D01*
X112518449Y-64653520D01*
X112707746Y-64785085D01*
X112918993Y-64877377D01*
X113144143Y-64926879D01*
X113374620Y-64931707D01*
X113601645Y-64891676D01*
X113816571Y-64808312D01*
X114011212Y-64684789D01*
X114178153Y-64525813D01*
X114311037Y-64337438D01*
X114404801Y-64126841D01*
X114455874Y-63902042D01*
X114459551Y-63638736D01*
X114459551Y-65717000D01*
X114312000Y-65717000D01*
X114199355Y-65547455D01*
X114036918Y-65383879D01*
X113845802Y-65254970D01*
X113633287Y-65165637D01*
X113407468Y-65119283D01*
X113176946Y-65117673D01*
X112950502Y-65160870D01*
X112736760Y-65247227D01*
X112543863Y-65373455D01*
X112379157Y-65534747D01*
X112248917Y-65724958D01*
X112158103Y-65936844D01*
X112110173Y-66162334D01*
X112106955Y-66392839D01*
X112148569Y-66619580D01*
X112233432Y-66833919D01*
X112358311Y-67027692D01*
X112518449Y-67193520D01*
X112707746Y-67325085D01*
X112918993Y-67417377D01*
X113144143Y-67466879D01*
X113374620Y-67471707D01*
X113601645Y-67431676D01*
X113816571Y-67348312D01*
X114011212Y-67224789D01*
X114178153Y-67065813D01*
X114311037Y-66877438D01*
X114313903Y-66871000D01*
X114314998Y-66871000D01*
X117956000Y-70512001D01*
X117997168Y-70545817D01*
X118038014Y-70580090D01*
X118040672Y-70581551D01*
X118043018Y-70583478D01*
X118090023Y-70608682D01*
X118136696Y-70634341D01*
X118139584Y-70635257D01*
X118142262Y-70636693D01*
X118193294Y-70652295D01*
X118244035Y-70668391D01*
X118247047Y-70668728D01*
X118249952Y-70669617D01*
X118303021Y-70675007D01*
X118355944Y-70680944D01*
X118361869Y-70680985D01*
X118361986Y-70680997D01*
X118362094Y-70680986D01*
X118364000Y-70681000D01*
X119953792Y-70681000D01*
X119868917Y-70804958D01*
X119778103Y-71016844D01*
X119730173Y-71242334D01*
X119726955Y-71472839D01*
X119768569Y-71699580D01*
X119853432Y-71913919D01*
X119952086Y-72067000D01*
X118618000Y-72067000D01*
X118564957Y-72072200D01*
X118511860Y-72076847D01*
X118508949Y-72077692D01*
X118505927Y-72077989D01*
X118454876Y-72093401D01*
X118403720Y-72108264D01*
X118401026Y-72109659D01*
X118398122Y-72110537D01*
X118351050Y-72135564D01*
X118303743Y-72160087D01*
X118301372Y-72161979D01*
X118298693Y-72163404D01*
X118257394Y-72197086D01*
X118215735Y-72230343D01*
X118211507Y-72234511D01*
X118211426Y-72234578D01*
X118211363Y-72234653D01*
X118209999Y-72235999D01*
X117363034Y-73082964D01*
X117363034Y-70916811D01*
X117333437Y-70767336D01*
X117275370Y-70626455D01*
X117191046Y-70499537D01*
X117083675Y-70391414D01*
X116957348Y-70306206D01*
X116816877Y-70247157D01*
X116667612Y-70216517D01*
X116515238Y-70215453D01*
X116365559Y-70244006D01*
X116224277Y-70301088D01*
X116096773Y-70384524D01*
X115987903Y-70491137D01*
X115901815Y-70616866D01*
X115841787Y-70756922D01*
X115810106Y-70905970D01*
X115809441Y-70953556D01*
X115330998Y-71432000D01*
X115189000Y-71432000D01*
X115135952Y-71437201D01*
X115082861Y-71441847D01*
X115079950Y-71442692D01*
X115076927Y-71442989D01*
X115025851Y-71458409D01*
X114974721Y-71473264D01*
X114972029Y-71474659D01*
X114969122Y-71475537D01*
X114922032Y-71500574D01*
X114874743Y-71525087D01*
X114872372Y-71526979D01*
X114869693Y-71528404D01*
X114828401Y-71562081D01*
X114786736Y-71595342D01*
X114782511Y-71599508D01*
X114782426Y-71599578D01*
X114782360Y-71599657D01*
X114781000Y-71600999D01*
X114459551Y-71922447D01*
X114459551Y-71258736D01*
X114459551Y-68718736D01*
X114414774Y-68492599D01*
X114326927Y-68279466D01*
X114199355Y-68087455D01*
X114036918Y-67923879D01*
X113845802Y-67794970D01*
X113633287Y-67705637D01*
X113407468Y-67659283D01*
X113176946Y-67657673D01*
X112950502Y-67700870D01*
X112736760Y-67787227D01*
X112543863Y-67913455D01*
X112379157Y-68074747D01*
X112248917Y-68264958D01*
X112158103Y-68476844D01*
X112110173Y-68702334D01*
X112106955Y-68932839D01*
X112148569Y-69159580D01*
X112233432Y-69373919D01*
X112358311Y-69567692D01*
X112518449Y-69733520D01*
X112707746Y-69865085D01*
X112918993Y-69957377D01*
X113144143Y-70006879D01*
X113374620Y-70011707D01*
X113601645Y-69971676D01*
X113816571Y-69888312D01*
X114011212Y-69764789D01*
X114178153Y-69605813D01*
X114311037Y-69417438D01*
X114404801Y-69206841D01*
X114455874Y-68982042D01*
X114459551Y-68718736D01*
X114459551Y-71258736D01*
X114414774Y-71032599D01*
X114326927Y-70819466D01*
X114199355Y-70627455D01*
X114036918Y-70463879D01*
X113845802Y-70334970D01*
X113633287Y-70245637D01*
X113407468Y-70199283D01*
X113176946Y-70197673D01*
X112950502Y-70240870D01*
X112736760Y-70327227D01*
X112543863Y-70453455D01*
X112379157Y-70614747D01*
X112248917Y-70804958D01*
X112158103Y-71016844D01*
X112110173Y-71242334D01*
X112106955Y-71472839D01*
X112148569Y-71699580D01*
X112233432Y-71913919D01*
X112358311Y-72107692D01*
X112518449Y-72273520D01*
X112707746Y-72405085D01*
X112918993Y-72497377D01*
X113144143Y-72546879D01*
X113374620Y-72551707D01*
X113601645Y-72511676D01*
X113816571Y-72428312D01*
X114011212Y-72304789D01*
X114178153Y-72145813D01*
X114311037Y-71957438D01*
X114404801Y-71746841D01*
X114455874Y-71522042D01*
X114459551Y-71258736D01*
X114459551Y-71922447D01*
X113602650Y-72779348D01*
X113407468Y-72739283D01*
X113176946Y-72737673D01*
X112950502Y-72780870D01*
X112736760Y-72867227D01*
X112543863Y-72993455D01*
X112379157Y-73154747D01*
X112248917Y-73344958D01*
X112158103Y-73556844D01*
X112110173Y-73782334D01*
X112106955Y-74012839D01*
X112148569Y-74239580D01*
X112233432Y-74453919D01*
X112358311Y-74647692D01*
X112518449Y-74813520D01*
X112707746Y-74945085D01*
X112918993Y-75037377D01*
X113144143Y-75086879D01*
X113374620Y-75091707D01*
X113601645Y-75051676D01*
X113816571Y-74968312D01*
X114011212Y-74844789D01*
X114178153Y-74685813D01*
X114311037Y-74497438D01*
X114404801Y-74286841D01*
X114455874Y-74062042D01*
X114459551Y-73798736D01*
X114419175Y-73594826D01*
X115428001Y-72586000D01*
X115570000Y-72586000D01*
X115623042Y-72580799D01*
X115676140Y-72576153D01*
X115679050Y-72575307D01*
X115682073Y-72575011D01*
X115733123Y-72559598D01*
X115784280Y-72544736D01*
X115786973Y-72543340D01*
X115789878Y-72542463D01*
X115836949Y-72517435D01*
X115884257Y-72492913D01*
X115886627Y-72491020D01*
X115889307Y-72489596D01*
X115930605Y-72455913D01*
X115972265Y-72422657D01*
X115976492Y-72418488D01*
X115976574Y-72418422D01*
X115976636Y-72418346D01*
X115978001Y-72417001D01*
X116624001Y-71771000D01*
X116645899Y-71771459D01*
X116795962Y-71744999D01*
X116938027Y-71689895D01*
X117066684Y-71608247D01*
X117177031Y-71503165D01*
X117264867Y-71378650D01*
X117326844Y-71239446D01*
X117360603Y-71090855D01*
X117363034Y-70916811D01*
X117363034Y-73082964D01*
X117193999Y-73251999D01*
X117160143Y-73293215D01*
X117125910Y-73334014D01*
X117124449Y-73336669D01*
X117122522Y-73339017D01*
X117097306Y-73386044D01*
X117071659Y-73432696D01*
X117070742Y-73435584D01*
X117069307Y-73438262D01*
X117053700Y-73489307D01*
X117037609Y-73540035D01*
X117037271Y-73543045D01*
X117036383Y-73545951D01*
X117030996Y-73598981D01*
X117025056Y-73651944D01*
X117025014Y-73657880D01*
X117025004Y-73657986D01*
X117025013Y-73658084D01*
X117025000Y-73660000D01*
X117025000Y-74690998D01*
X115838998Y-75877000D01*
X114312000Y-75877000D01*
X114199355Y-75707455D01*
X114036918Y-75543879D01*
X113845802Y-75414970D01*
X113633287Y-75325637D01*
X113407468Y-75279283D01*
X113176946Y-75277673D01*
X112950502Y-75320870D01*
X112736760Y-75407227D01*
X112543863Y-75533455D01*
X112379157Y-75694747D01*
X112248917Y-75884958D01*
X112158103Y-76096844D01*
X112110173Y-76322334D01*
X112106955Y-76552839D01*
X112148569Y-76779580D01*
X112233432Y-76993919D01*
X112358311Y-77187692D01*
X112518449Y-77353520D01*
X112707746Y-77485085D01*
X112918993Y-77577377D01*
X113144143Y-77626879D01*
X113374620Y-77631707D01*
X113601645Y-77591676D01*
X113816571Y-77508312D01*
X114011212Y-77384789D01*
X114178153Y-77225813D01*
X114311037Y-77037438D01*
X114313903Y-77031000D01*
X116078000Y-77031000D01*
X116131042Y-77025799D01*
X116184140Y-77021153D01*
X116187050Y-77020307D01*
X116190073Y-77020011D01*
X116241123Y-77004598D01*
X116292280Y-76989736D01*
X116294973Y-76988340D01*
X116297878Y-76987463D01*
X116344949Y-76962435D01*
X116392257Y-76937913D01*
X116394627Y-76936020D01*
X116397307Y-76934596D01*
X116438605Y-76900913D01*
X116480265Y-76867657D01*
X116484492Y-76863488D01*
X116484574Y-76863422D01*
X116484636Y-76863346D01*
X116486001Y-76862001D01*
X118010000Y-75338001D01*
X118043808Y-75296841D01*
X118078090Y-75255986D01*
X118079552Y-75253326D01*
X118081477Y-75250983D01*
X118106653Y-75204029D01*
X118132341Y-75157304D01*
X118133258Y-75154411D01*
X118134692Y-75151738D01*
X118150284Y-75100738D01*
X118166391Y-75049965D01*
X118166728Y-75046954D01*
X118167617Y-75044049D01*
X118173003Y-74991018D01*
X118178944Y-74938056D01*
X118178985Y-74932119D01*
X118178996Y-74932014D01*
X118178986Y-74931915D01*
X118179000Y-74930000D01*
X118179000Y-73899002D01*
X118857002Y-73221000D01*
X119953792Y-73221000D01*
X119868917Y-73344958D01*
X119778103Y-73556844D01*
X119730173Y-73782334D01*
X119726955Y-74012839D01*
X119767615Y-74234382D01*
X118463999Y-75537999D01*
X118430143Y-75579215D01*
X118395910Y-75620014D01*
X118394449Y-75622669D01*
X118392522Y-75625017D01*
X118367306Y-75672044D01*
X118341659Y-75718696D01*
X118340742Y-75721584D01*
X118339307Y-75724262D01*
X118323700Y-75775307D01*
X118307609Y-75826035D01*
X118307271Y-75829045D01*
X118306383Y-75831951D01*
X118300996Y-75884981D01*
X118295056Y-75937944D01*
X118295014Y-75943880D01*
X118295004Y-75943986D01*
X118295013Y-75944084D01*
X118295000Y-75946000D01*
X118295000Y-86106000D01*
X118300200Y-86159042D01*
X118304847Y-86212140D01*
X118305692Y-86215050D01*
X118305989Y-86218073D01*
X118321401Y-86269123D01*
X118336264Y-86320280D01*
X118337659Y-86322973D01*
X118338537Y-86325878D01*
X118363564Y-86372949D01*
X118388087Y-86420257D01*
X118389979Y-86422627D01*
X118391404Y-86425307D01*
X118425086Y-86466605D01*
X118458343Y-86508265D01*
X118462511Y-86512492D01*
X118462578Y-86512574D01*
X118462653Y-86512636D01*
X118463999Y-86514001D01*
X122781999Y-90832000D01*
X122823185Y-90865831D01*
X122864014Y-90900090D01*
X122866670Y-90901550D01*
X122869017Y-90903478D01*
X122916009Y-90928674D01*
X122962696Y-90954341D01*
X122965588Y-90955258D01*
X122968262Y-90956692D01*
X123019261Y-90972284D01*
X123070035Y-90988391D01*
X123073045Y-90988728D01*
X123075951Y-90989617D01*
X123128981Y-90995003D01*
X123181944Y-91000944D01*
X123187880Y-91000985D01*
X123187986Y-91000996D01*
X123188084Y-91000986D01*
X123190000Y-91001000D01*
X133452397Y-91001000D01*
X133386903Y-91065137D01*
X133300815Y-91190866D01*
X133240787Y-91330922D01*
X133209106Y-91479970D01*
X133208441Y-91527557D01*
X132475998Y-92260000D01*
X122823090Y-92260000D01*
X122798675Y-92235414D01*
X122672348Y-92150206D01*
X122531877Y-92091157D01*
X122382612Y-92060517D01*
X122230238Y-92059453D01*
X122080559Y-92088006D01*
X121939277Y-92145088D01*
X121811773Y-92228524D01*
X121702903Y-92335137D01*
X121616815Y-92460866D01*
X121556787Y-92600922D01*
X121525106Y-92749970D01*
X121522978Y-92902332D01*
X121550485Y-93052207D01*
X121606579Y-93193884D01*
X121689123Y-93321967D01*
X121794974Y-93431579D01*
X121920099Y-93518543D01*
X122059732Y-93579547D01*
X122208555Y-93612268D01*
X122360899Y-93615459D01*
X122510962Y-93588999D01*
X122653027Y-93533895D01*
X122781684Y-93452247D01*
X122821847Y-93414000D01*
X132715000Y-93414000D01*
X132768042Y-93408799D01*
X132821140Y-93404153D01*
X132824050Y-93403307D01*
X132827073Y-93403011D01*
X132878123Y-93387598D01*
X132929280Y-93372736D01*
X132931973Y-93371340D01*
X132934878Y-93370463D01*
X132981949Y-93345435D01*
X133029257Y-93320913D01*
X133031627Y-93319020D01*
X133034307Y-93317596D01*
X133075605Y-93283913D01*
X133117265Y-93250657D01*
X133121492Y-93246488D01*
X133121574Y-93246422D01*
X133121636Y-93246346D01*
X133123001Y-93245001D01*
X134023000Y-92345000D01*
X134044899Y-92345459D01*
X134194962Y-92318999D01*
X134337027Y-92263895D01*
X134465684Y-92182247D01*
X134576031Y-92077165D01*
X134663867Y-91952650D01*
X134725844Y-91813446D01*
X134759603Y-91664855D01*
X134762034Y-91490811D01*
X134732437Y-91341336D01*
X134674370Y-91200455D01*
X134590046Y-91073537D01*
X134518013Y-91001000D01*
X142807635Y-91001000D01*
X142889747Y-91158063D01*
X143053691Y-91361969D01*
X143254118Y-91530147D01*
X143483394Y-91656193D01*
X143602222Y-91693887D01*
X143500650Y-91724554D01*
X143269636Y-91847386D01*
X143066880Y-92012749D01*
X142900105Y-92214346D01*
X142775663Y-92444497D01*
X142698294Y-92694435D01*
X142670946Y-92954641D01*
X142694659Y-93215203D01*
X142768530Y-93466198D01*
X142889747Y-93698063D01*
X143053691Y-93901969D01*
X143254118Y-94070147D01*
X143483394Y-94196193D01*
X143602222Y-94233887D01*
X143500650Y-94264554D01*
X143269636Y-94387386D01*
X143066880Y-94552749D01*
X142900105Y-94754346D01*
X142775663Y-94984497D01*
X142698294Y-95234435D01*
X142670946Y-95494641D01*
X142694659Y-95755203D01*
X142768530Y-96006198D01*
X142889747Y-96238063D01*
X143053691Y-96441969D01*
X143254118Y-96610147D01*
X143483394Y-96736193D01*
X143732787Y-96815305D01*
X143992795Y-96844469D01*
X144011513Y-96844600D01*
X144024487Y-96844600D01*
X144284878Y-96819068D01*
X144535350Y-96743446D01*
X144766364Y-96620614D01*
X144969120Y-96455251D01*
X145135895Y-96253654D01*
X145167400Y-96195386D01*
X145167400Y-96315695D01*
X145167400Y-96419505D01*
X145187652Y-96521320D01*
X145227379Y-96617228D01*
X145285052Y-96703543D01*
X145358457Y-96776948D01*
X145444772Y-96834621D01*
X145540680Y-96874348D01*
X145642495Y-96894600D01*
X146353250Y-96894600D01*
X146485000Y-96762850D01*
X146485000Y-95577000D01*
X146465000Y-95577000D01*
X146465000Y-95431000D01*
X146485000Y-95431000D01*
X146485000Y-95411000D01*
X146631000Y-95411000D01*
X146631000Y-95431000D01*
X147816850Y-95431000D01*
X147948600Y-95299250D01*
X147948600Y-94692305D01*
X147948600Y-94588495D01*
X147928348Y-94486680D01*
X147888621Y-94390772D01*
X147830948Y-94304457D01*
X147757543Y-94231052D01*
X147671228Y-94173379D01*
X147575320Y-94133652D01*
X147473505Y-94113400D01*
X147244702Y-94113400D01*
X147306364Y-94080614D01*
X147509120Y-93915251D01*
X147675895Y-93713654D01*
X147769248Y-93541000D01*
X148350998Y-93541000D01*
X148521000Y-93711001D01*
X148521000Y-95772998D01*
X148181999Y-96111999D01*
X148148143Y-96153215D01*
X148113910Y-96194014D01*
X148112449Y-96196669D01*
X148110522Y-96199017D01*
X148085306Y-96246044D01*
X148059659Y-96292696D01*
X148058742Y-96295584D01*
X148057307Y-96298262D01*
X148041700Y-96349307D01*
X148025609Y-96400035D01*
X148025271Y-96403045D01*
X148024383Y-96405951D01*
X148018996Y-96458981D01*
X148013056Y-96511944D01*
X148013014Y-96517880D01*
X148013004Y-96517986D01*
X148013013Y-96518084D01*
X148013000Y-96520000D01*
X148013000Y-96788998D01*
X147948600Y-96853398D01*
X147948600Y-96419505D01*
X147948600Y-96315695D01*
X147948600Y-95708750D01*
X147816850Y-95577000D01*
X146631000Y-95577000D01*
X146631000Y-96762850D01*
X146762750Y-96894600D01*
X147473505Y-96894600D01*
X147575320Y-96874348D01*
X147671228Y-96834621D01*
X147757543Y-96776948D01*
X147830948Y-96703543D01*
X147888621Y-96617228D01*
X147928348Y-96521320D01*
X147948600Y-96419505D01*
X147948600Y-96853398D01*
X147405721Y-97396277D01*
X125390278Y-97396277D01*
X116655000Y-88660998D01*
X116655000Y-79248000D01*
X116649799Y-79194957D01*
X116645153Y-79141860D01*
X116644307Y-79138949D01*
X116644011Y-79135927D01*
X116628598Y-79084876D01*
X116613736Y-79033720D01*
X116612340Y-79031026D01*
X116611463Y-79028122D01*
X116586435Y-78981050D01*
X116561913Y-78933743D01*
X116560020Y-78931372D01*
X116558596Y-78928693D01*
X116524913Y-78887394D01*
X116491657Y-78845735D01*
X116487492Y-78841511D01*
X116487422Y-78841426D01*
X116487342Y-78841360D01*
X116486000Y-78839999D01*
X116232001Y-78585999D01*
X116190784Y-78552143D01*
X116149986Y-78517910D01*
X116147330Y-78516449D01*
X116144983Y-78514522D01*
X116097955Y-78489306D01*
X116051304Y-78463659D01*
X116048415Y-78462742D01*
X116045738Y-78461307D01*
X115994692Y-78445700D01*
X115943965Y-78429609D01*
X115940954Y-78429271D01*
X115938049Y-78428383D01*
X115885018Y-78422996D01*
X115832056Y-78417056D01*
X115826119Y-78417014D01*
X115826014Y-78417004D01*
X115825915Y-78417013D01*
X115824000Y-78417000D01*
X114312000Y-78417000D01*
X114199355Y-78247455D01*
X114036918Y-78083879D01*
X113845802Y-77954970D01*
X113633287Y-77865637D01*
X113407468Y-77819283D01*
X113176946Y-77817673D01*
X112950502Y-77860870D01*
X112736760Y-77947227D01*
X112543863Y-78073455D01*
X112379157Y-78234747D01*
X112248917Y-78424958D01*
X112158103Y-78636844D01*
X112110173Y-78862334D01*
X112106955Y-79092839D01*
X112148569Y-79319580D01*
X112233432Y-79533919D01*
X112358311Y-79727692D01*
X112518449Y-79893520D01*
X112707746Y-80025085D01*
X112918993Y-80117377D01*
X113144143Y-80166879D01*
X113374620Y-80171707D01*
X113601645Y-80131676D01*
X113816571Y-80048312D01*
X114011212Y-79924789D01*
X114178153Y-79765813D01*
X114311037Y-79577438D01*
X114313903Y-79571000D01*
X115501000Y-79571000D01*
X115501000Y-88900000D01*
X115506200Y-88953042D01*
X115510847Y-89006140D01*
X115511692Y-89009050D01*
X115511989Y-89012073D01*
X115527401Y-89063123D01*
X115542264Y-89114280D01*
X115543659Y-89116973D01*
X115544537Y-89119878D01*
X115569564Y-89166949D01*
X115594087Y-89214257D01*
X115595979Y-89216627D01*
X115597404Y-89219307D01*
X115631086Y-89260605D01*
X115664343Y-89302265D01*
X115668511Y-89306492D01*
X115668578Y-89306574D01*
X115668653Y-89306636D01*
X115669999Y-89308001D01*
X124743276Y-98381277D01*
X124784462Y-98415108D01*
X124825291Y-98449367D01*
X124827947Y-98450827D01*
X124830294Y-98452755D01*
X124877286Y-98477951D01*
X124923973Y-98503618D01*
X124926865Y-98504535D01*
X124929539Y-98505969D01*
X124980538Y-98521561D01*
X125031312Y-98537668D01*
X125034322Y-98538005D01*
X125037228Y-98538894D01*
X125090258Y-98544280D01*
X125143221Y-98550221D01*
X125149157Y-98550262D01*
X125149263Y-98550273D01*
X125149361Y-98550263D01*
X125151277Y-98550277D01*
X147644723Y-98550277D01*
X147697765Y-98545076D01*
X147750863Y-98540430D01*
X147753773Y-98539584D01*
X147756796Y-98539288D01*
X147807846Y-98523875D01*
X147859003Y-98509013D01*
X147861696Y-98507617D01*
X147864601Y-98506740D01*
X147911672Y-98481712D01*
X147958980Y-98457190D01*
X147961350Y-98455297D01*
X147964030Y-98453873D01*
X148005328Y-98420190D01*
X148046988Y-98386934D01*
X148051215Y-98382765D01*
X148051297Y-98382699D01*
X148051359Y-98382623D01*
X148052724Y-98381278D01*
X148998001Y-97436000D01*
X149031817Y-97394831D01*
X149066090Y-97353986D01*
X149067551Y-97351327D01*
X149069478Y-97348982D01*
X149094682Y-97301976D01*
X149120341Y-97255304D01*
X149121257Y-97252415D01*
X149122693Y-97249738D01*
X149138295Y-97198705D01*
X149154391Y-97147965D01*
X149154728Y-97144952D01*
X149155617Y-97142048D01*
X149161007Y-97088978D01*
X149166944Y-97036056D01*
X149166985Y-97030130D01*
X149166997Y-97030014D01*
X149166986Y-97029905D01*
X149167000Y-97028000D01*
X149167000Y-96759001D01*
X149383000Y-96543001D01*
X149383000Y-98583000D01*
M02*
