M48
;DRILL file {kicad (after 2015-mar-04 BZR unknown)-product} date 10/04/2015 18:40:53
;FORMAT={-:-/ absolute / inch / decimal}
FMAT,2
INCH,TZ
T1C0.016
T2C0.024
T3C0.032
T4C0.040
%
G90
G05
M72
T1
X4.59Y-2.795
X4.815Y-3.655
X5.11Y-2.46
X5.19Y-2.78
X5.275Y-3.515
X5.275Y-3.605
X5.435Y-2.74
X5.45Y-2.16
X5.495Y-3.295
X5.495Y-3.42
X5.51Y-3.12
T2
X4.84Y-2.5305
X4.84Y-2.5895
T3
X4.46Y-2.41
X4.46Y-2.51
X4.46Y-2.61
X4.46Y-2.71
X4.46Y-2.81
X4.46Y-2.91
X4.46Y-3.01
X4.46Y-3.11
X4.46Y-3.21
X4.46Y-3.31
X4.76Y-2.41
X4.76Y-2.51
X4.76Y-2.61
X4.76Y-2.71
X4.76Y-2.81
X4.76Y-2.91
X4.76Y-3.01
X4.76Y-3.11
X4.76Y-3.21
X4.76Y-3.31
X5.04Y-3.01
X5.04Y-3.11
X5.04Y-3.21
X5.04Y-3.31
X5.34Y-3.01
X5.34Y-3.11
X5.34Y-3.21
X5.34Y-3.31
T4
X5.01Y-2.08
X5.01Y-2.18
X5.01Y-2.28
X5.01Y-2.38
X5.325Y-2.115
X5.325Y-2.215
X5.325Y-2.315
X5.325Y-2.415
X5.325Y-2.515
X5.325Y-2.615
X5.66Y-2.115
X5.66Y-2.215
X5.66Y-2.315
X5.66Y-2.415
X5.66Y-2.515
X5.66Y-2.615
X5.66Y-2.715
X5.67Y-3.46
X5.67Y-3.56
X5.67Y-3.66
X5.67Y-3.76
X5.76Y-2.115
X5.76Y-2.215
X5.76Y-2.315
X5.76Y-2.415
X5.76Y-2.515
X5.76Y-2.615
X5.76Y-2.715
X5.77Y-3.46
X5.77Y-3.56
X5.77Y-3.66
X5.77Y-3.76
T0
M30
