G04 #@! TF.FileFunction,Legend,Top*
%FSLAX46Y46*%
G04 Gerber Fmt 4.6, Leading zero omitted, Abs format (unit mm)*
G04 Created by KiCad (PCBNEW (after 2015-mar-04 BZR unknown)-product) date 10/04/2015 18:40:57*
%MOMM*%
G01*
G04 APERTURE LIST*
%ADD10C,0.100000*%
%ADD11C,0.200000*%
%ADD12C,0.300000*%
%ADD13C,0.150000*%
G04 APERTURE END LIST*
D10*
D11*
X122872667Y-52411381D02*
X123206000Y-53411381D01*
X123539334Y-52411381D01*
X123872667Y-53411381D02*
X123872667Y-52411381D01*
X124110762Y-52411381D01*
X124253620Y-52459000D01*
X124348858Y-52554238D01*
X124396477Y-52649476D01*
X124444096Y-52839952D01*
X124444096Y-52982810D01*
X124396477Y-53173286D01*
X124348858Y-53268524D01*
X124253620Y-53363762D01*
X124110762Y-53411381D01*
X123872667Y-53411381D01*
X124872667Y-53411381D02*
X124872667Y-52411381D01*
X125110762Y-52411381D01*
X125253620Y-52459000D01*
X125348858Y-52554238D01*
X125396477Y-52649476D01*
X125444096Y-52839952D01*
X125444096Y-52982810D01*
X125396477Y-53173286D01*
X125348858Y-53268524D01*
X125253620Y-53363762D01*
X125110762Y-53411381D01*
X124872667Y-53411381D01*
X123063143Y-54951381D02*
X123634572Y-54951381D01*
X123348857Y-55951381D02*
X123348857Y-54951381D01*
X123920286Y-55903762D02*
X124063143Y-55951381D01*
X124301239Y-55951381D01*
X124396477Y-55903762D01*
X124444096Y-55856143D01*
X124491715Y-55760905D01*
X124491715Y-55665667D01*
X124444096Y-55570429D01*
X124396477Y-55522810D01*
X124301239Y-55475190D01*
X124110762Y-55427571D01*
X124015524Y-55379952D01*
X123967905Y-55332333D01*
X123920286Y-55237095D01*
X123920286Y-55141857D01*
X123967905Y-55046619D01*
X124015524Y-54999000D01*
X124110762Y-54951381D01*
X124348858Y-54951381D01*
X124491715Y-54999000D01*
X124777429Y-54951381D02*
X125348858Y-54951381D01*
X125063143Y-55951381D02*
X125063143Y-54951381D01*
X123658381Y-58491381D02*
X123325047Y-58015190D01*
X123086952Y-58491381D02*
X123086952Y-57491381D01*
X123467905Y-57491381D01*
X123563143Y-57539000D01*
X123610762Y-57586619D01*
X123658381Y-57681857D01*
X123658381Y-57824714D01*
X123610762Y-57919952D01*
X123563143Y-57967571D01*
X123467905Y-58015190D01*
X123086952Y-58015190D01*
X124039333Y-58443762D02*
X124182190Y-58491381D01*
X124420286Y-58491381D01*
X124515524Y-58443762D01*
X124563143Y-58396143D01*
X124610762Y-58300905D01*
X124610762Y-58205667D01*
X124563143Y-58110429D01*
X124515524Y-58062810D01*
X124420286Y-58015190D01*
X124229809Y-57967571D01*
X124134571Y-57919952D01*
X124086952Y-57872333D01*
X124039333Y-57777095D01*
X124039333Y-57681857D01*
X124086952Y-57586619D01*
X124134571Y-57539000D01*
X124229809Y-57491381D01*
X124467905Y-57491381D01*
X124610762Y-57539000D01*
X124896476Y-57491381D02*
X125467905Y-57491381D01*
X125182190Y-58491381D02*
X125182190Y-57491381D01*
X123444096Y-59952000D02*
X123348858Y-59904381D01*
X123206001Y-59904381D01*
X123063143Y-59952000D01*
X122967905Y-60047238D01*
X122920286Y-60142476D01*
X122872667Y-60332952D01*
X122872667Y-60475810D01*
X122920286Y-60666286D01*
X122967905Y-60761524D01*
X123063143Y-60856762D01*
X123206001Y-60904381D01*
X123301239Y-60904381D01*
X123444096Y-60856762D01*
X123491715Y-60809143D01*
X123491715Y-60475810D01*
X123301239Y-60475810D01*
X123920286Y-60904381D02*
X123920286Y-59904381D01*
X124491715Y-60904381D01*
X124491715Y-59904381D01*
X124967905Y-60904381D02*
X124967905Y-59904381D01*
X125206000Y-59904381D01*
X125348858Y-59952000D01*
X125444096Y-60047238D01*
X125491715Y-60142476D01*
X125539334Y-60332952D01*
X125539334Y-60475810D01*
X125491715Y-60666286D01*
X125444096Y-60761524D01*
X125348858Y-60856762D01*
X125206000Y-60904381D01*
X124967905Y-60904381D01*
X143192476Y-76366667D02*
X143668667Y-76366667D01*
X143097238Y-76652381D02*
X143430571Y-75652381D01*
X143763905Y-76652381D01*
X144668667Y-76652381D02*
X144335333Y-76176190D01*
X144097238Y-76652381D02*
X144097238Y-75652381D01*
X144478191Y-75652381D01*
X144573429Y-75700000D01*
X144621048Y-75747619D01*
X144668667Y-75842857D01*
X144668667Y-75985714D01*
X144621048Y-76080952D01*
X144573429Y-76128571D01*
X144478191Y-76176190D01*
X144097238Y-76176190D01*
X145668667Y-76652381D02*
X145335333Y-76176190D01*
X145097238Y-76652381D02*
X145097238Y-75652381D01*
X145478191Y-75652381D01*
X145573429Y-75700000D01*
X145621048Y-75747619D01*
X145668667Y-75842857D01*
X145668667Y-75985714D01*
X145621048Y-76080952D01*
X145573429Y-76128571D01*
X145478191Y-76176190D01*
X145097238Y-76176190D01*
X146097238Y-76652381D02*
X146097238Y-75652381D01*
X146906762Y-76128571D02*
X147049619Y-76176190D01*
X147097238Y-76223810D01*
X147144857Y-76319048D01*
X147144857Y-76461905D01*
X147097238Y-76557143D01*
X147049619Y-76604762D01*
X146954381Y-76652381D01*
X146573428Y-76652381D01*
X146573428Y-75652381D01*
X146906762Y-75652381D01*
X147002000Y-75700000D01*
X147049619Y-75747619D01*
X147097238Y-75842857D01*
X147097238Y-75938095D01*
X147049619Y-76033333D01*
X147002000Y-76080952D01*
X146906762Y-76128571D01*
X146573428Y-76128571D01*
X147525809Y-76366667D02*
X148002000Y-76366667D01*
X147430571Y-76652381D02*
X147763904Y-75652381D01*
X148097238Y-76652381D01*
X142621000Y-73914000D02*
X143383000Y-75057000D01*
X142621000Y-73914000D02*
X141859000Y-75057000D01*
X142621000Y-74041000D02*
X142621000Y-77724000D01*
D12*
X105573000Y-74824333D02*
X105489667Y-74990999D01*
X105489667Y-75240999D01*
X105573000Y-75490999D01*
X105739667Y-75657666D01*
X105906333Y-75740999D01*
X106239667Y-75824333D01*
X106489667Y-75824333D01*
X106823000Y-75740999D01*
X106989667Y-75657666D01*
X107156333Y-75490999D01*
X107239667Y-75240999D01*
X107239667Y-75074333D01*
X107156333Y-74824333D01*
X107073000Y-74740999D01*
X106489667Y-74740999D01*
X106489667Y-75074333D01*
X107239667Y-73240999D02*
X106323000Y-73240999D01*
X106156333Y-73324333D01*
X106073000Y-73490999D01*
X106073000Y-73824333D01*
X106156333Y-73990999D01*
X107156333Y-73240999D02*
X107239667Y-73407666D01*
X107239667Y-73824333D01*
X107156333Y-73990999D01*
X106989667Y-74074333D01*
X106823000Y-74074333D01*
X106656333Y-73990999D01*
X106573000Y-73824333D01*
X106573000Y-73407666D01*
X106489667Y-73240999D01*
X106073000Y-72657666D02*
X106073000Y-71991000D01*
X105489667Y-72407666D02*
X106989667Y-72407666D01*
X107156333Y-72324333D01*
X107239667Y-72157666D01*
X107239667Y-71991000D01*
X107156333Y-70741000D02*
X107239667Y-70907666D01*
X107239667Y-71241000D01*
X107156333Y-71407666D01*
X106989667Y-71491000D01*
X106323000Y-71491000D01*
X106156333Y-71407666D01*
X106073000Y-71241000D01*
X106073000Y-70907666D01*
X106156333Y-70741000D01*
X106323000Y-70657666D01*
X106489667Y-70657666D01*
X106656333Y-71491000D01*
X106073000Y-70074333D02*
X107239667Y-69741000D01*
X106406333Y-69407666D01*
X107239667Y-69074333D01*
X106073000Y-68741000D01*
X107239667Y-67324333D02*
X106323000Y-67324333D01*
X106156333Y-67407667D01*
X106073000Y-67574333D01*
X106073000Y-67907667D01*
X106156333Y-68074333D01*
X107156333Y-67324333D02*
X107239667Y-67491000D01*
X107239667Y-67907667D01*
X107156333Y-68074333D01*
X106989667Y-68157667D01*
X106823000Y-68157667D01*
X106656333Y-68074333D01*
X106573000Y-67907667D01*
X106573000Y-67491000D01*
X106489667Y-67324333D01*
X106073000Y-66657667D02*
X107239667Y-66241000D01*
X106073000Y-65824334D02*
X107239667Y-66241000D01*
X107656333Y-66407667D01*
X107739667Y-66491000D01*
X107823000Y-66657667D01*
X109989667Y-74615999D02*
X109156333Y-75199333D01*
X109989667Y-75615999D02*
X108239667Y-75615999D01*
X108239667Y-74949333D01*
X108323000Y-74782666D01*
X108406333Y-74699333D01*
X108573000Y-74615999D01*
X108823000Y-74615999D01*
X108989667Y-74699333D01*
X109073000Y-74782666D01*
X109156333Y-74949333D01*
X109156333Y-75615999D01*
X109989667Y-73865999D02*
X108239667Y-73865999D01*
X108239667Y-73199333D01*
X108323000Y-73032666D01*
X108406333Y-72949333D01*
X108573000Y-72865999D01*
X108823000Y-72865999D01*
X108989667Y-72949333D01*
X109073000Y-73032666D01*
X109156333Y-73199333D01*
X109156333Y-73865999D01*
X109989667Y-72115999D02*
X108823000Y-72115999D01*
X108239667Y-72115999D02*
X108323000Y-72199333D01*
X108406333Y-72115999D01*
X108323000Y-72032666D01*
X108239667Y-72115999D01*
X108406333Y-72115999D01*
X109989667Y-69949333D02*
X108239667Y-69949333D01*
X109073000Y-69949333D02*
X109073000Y-68949333D01*
X109989667Y-68949333D02*
X108239667Y-68949333D01*
X109489667Y-68199334D02*
X109489667Y-67366000D01*
X109989667Y-68366000D02*
X108239667Y-67782667D01*
X109989667Y-67199334D01*
X108239667Y-66866000D02*
X108239667Y-65866000D01*
X109989667Y-66366000D02*
X108239667Y-66366000D01*
D11*
X137128571Y-66952762D02*
X137271428Y-67000381D01*
X137509524Y-67000381D01*
X137604762Y-66952762D01*
X137652381Y-66905143D01*
X137700000Y-66809905D01*
X137700000Y-66714667D01*
X137652381Y-66619429D01*
X137604762Y-66571810D01*
X137509524Y-66524190D01*
X137319047Y-66476571D01*
X137223809Y-66428952D01*
X137176190Y-66381333D01*
X137128571Y-66286095D01*
X137128571Y-66190857D01*
X137176190Y-66095619D01*
X137223809Y-66048000D01*
X137319047Y-66000381D01*
X137557143Y-66000381D01*
X137700000Y-66048000D01*
X138700000Y-66905143D02*
X138652381Y-66952762D01*
X138509524Y-67000381D01*
X138414286Y-67000381D01*
X138271428Y-66952762D01*
X138176190Y-66857524D01*
X138128571Y-66762286D01*
X138080952Y-66571810D01*
X138080952Y-66428952D01*
X138128571Y-66238476D01*
X138176190Y-66143238D01*
X138271428Y-66048000D01*
X138414286Y-66000381D01*
X138509524Y-66000381D01*
X138652381Y-66048000D01*
X138700000Y-66095619D01*
X139604762Y-67000381D02*
X139128571Y-67000381D01*
X139128571Y-66000381D01*
X137080952Y-64285762D02*
X137223809Y-64333381D01*
X137461905Y-64333381D01*
X137557143Y-64285762D01*
X137604762Y-64238143D01*
X137652381Y-64142905D01*
X137652381Y-64047667D01*
X137604762Y-63952429D01*
X137557143Y-63904810D01*
X137461905Y-63857190D01*
X137271428Y-63809571D01*
X137176190Y-63761952D01*
X137128571Y-63714333D01*
X137080952Y-63619095D01*
X137080952Y-63523857D01*
X137128571Y-63428619D01*
X137176190Y-63381000D01*
X137271428Y-63333381D01*
X137509524Y-63333381D01*
X137652381Y-63381000D01*
X138080952Y-64333381D02*
X138080952Y-63333381D01*
X138319047Y-63333381D01*
X138461905Y-63381000D01*
X138557143Y-63476238D01*
X138604762Y-63571476D01*
X138652381Y-63761952D01*
X138652381Y-63904810D01*
X138604762Y-64095286D01*
X138557143Y-64190524D01*
X138461905Y-64285762D01*
X138319047Y-64333381D01*
X138080952Y-64333381D01*
X139033333Y-64047667D02*
X139509524Y-64047667D01*
X138938095Y-64333381D02*
X139271428Y-63333381D01*
X139604762Y-64333381D01*
X137636476Y-61793381D02*
X137636476Y-60793381D01*
X138207905Y-61793381D01*
X138207905Y-60793381D01*
X139255524Y-61698143D02*
X139207905Y-61745762D01*
X139065048Y-61793381D01*
X138969810Y-61793381D01*
X138826952Y-61745762D01*
X138731714Y-61650524D01*
X138684095Y-61555286D01*
X138636476Y-61364810D01*
X138636476Y-61221952D01*
X138684095Y-61031476D01*
X138731714Y-60936238D01*
X138826952Y-60841000D01*
X138969810Y-60793381D01*
X139065048Y-60793381D01*
X139207905Y-60841000D01*
X139255524Y-60888619D01*
X137017476Y-58872429D02*
X137779381Y-58872429D01*
X137398429Y-59253381D02*
X137398429Y-58491476D01*
X138731762Y-58253381D02*
X138255571Y-58253381D01*
X138207952Y-58729571D01*
X138255571Y-58681952D01*
X138350809Y-58634333D01*
X138588905Y-58634333D01*
X138684143Y-58681952D01*
X138731762Y-58729571D01*
X138779381Y-58824810D01*
X138779381Y-59062905D01*
X138731762Y-59158143D01*
X138684143Y-59205762D01*
X138588905Y-59253381D01*
X138350809Y-59253381D01*
X138255571Y-59205762D01*
X138207952Y-59158143D01*
X139065095Y-58253381D02*
X139398428Y-59253381D01*
X139731762Y-58253381D01*
X132969000Y-67691000D02*
X132969000Y-67818000D01*
X137668286Y-55761000D02*
X137573048Y-55713381D01*
X137430191Y-55713381D01*
X137287333Y-55761000D01*
X137192095Y-55856238D01*
X137144476Y-55951476D01*
X137096857Y-56141952D01*
X137096857Y-56284810D01*
X137144476Y-56475286D01*
X137192095Y-56570524D01*
X137287333Y-56665762D01*
X137430191Y-56713381D01*
X137525429Y-56713381D01*
X137668286Y-56665762D01*
X137715905Y-56618143D01*
X137715905Y-56284810D01*
X137525429Y-56284810D01*
X138144476Y-56713381D02*
X138144476Y-55713381D01*
X138715905Y-56713381D01*
X138715905Y-55713381D01*
X139192095Y-56713381D02*
X139192095Y-55713381D01*
X139430190Y-55713381D01*
X139573048Y-55761000D01*
X139668286Y-55856238D01*
X139715905Y-55951476D01*
X139763524Y-56141952D01*
X139763524Y-56284810D01*
X139715905Y-56475286D01*
X139668286Y-56570524D01*
X139573048Y-56665762D01*
X139430190Y-56713381D01*
X139192095Y-56713381D01*
X137176190Y-53046381D02*
X137795238Y-53046381D01*
X137461904Y-53427333D01*
X137604762Y-53427333D01*
X137700000Y-53474952D01*
X137747619Y-53522571D01*
X137795238Y-53617810D01*
X137795238Y-53855905D01*
X137747619Y-53951143D01*
X137700000Y-53998762D01*
X137604762Y-54046381D01*
X137319047Y-54046381D01*
X137223809Y-53998762D01*
X137176190Y-53951143D01*
X138128571Y-53379714D02*
X138366666Y-54046381D01*
X138604762Y-53379714D01*
X138890476Y-53046381D02*
X139509524Y-53046381D01*
X139176190Y-53427333D01*
X139319048Y-53427333D01*
X139414286Y-53474952D01*
X139461905Y-53522571D01*
X139509524Y-53617810D01*
X139509524Y-53855905D01*
X139461905Y-53951143D01*
X139414286Y-53998762D01*
X139319048Y-54046381D01*
X139033333Y-54046381D01*
X138938095Y-53998762D01*
X138890476Y-53951143D01*
D13*
X114708940Y-53439060D02*
X114907060Y-53439060D01*
X114907060Y-53439060D02*
X114907060Y-53240940D01*
X114708940Y-53240940D02*
X114907060Y-53240940D01*
X114708940Y-53439060D02*
X114708940Y-53240940D01*
X115257580Y-54038500D02*
X115605560Y-54038500D01*
X115605560Y-54038500D02*
X115605560Y-53789580D01*
X115257580Y-53789580D02*
X115605560Y-53789580D01*
X115257580Y-54038500D02*
X115257580Y-53789580D01*
X115605560Y-54038500D02*
X115707160Y-54038500D01*
X115707160Y-54038500D02*
X115707160Y-52842160D01*
X115605560Y-52842160D02*
X115707160Y-52842160D01*
X115605560Y-54038500D02*
X115605560Y-52842160D01*
X115605560Y-52791360D02*
X115707160Y-52791360D01*
X115707160Y-52791360D02*
X115707160Y-52641500D01*
X115605560Y-52641500D02*
X115707160Y-52641500D01*
X115605560Y-52791360D02*
X115605560Y-52641500D01*
X113908840Y-54038500D02*
X114010440Y-54038500D01*
X114010440Y-54038500D02*
X114010440Y-52842160D01*
X113908840Y-52842160D02*
X114010440Y-52842160D01*
X113908840Y-54038500D02*
X113908840Y-52842160D01*
X113908840Y-52791360D02*
X114010440Y-52791360D01*
X114010440Y-52791360D02*
X114010440Y-52641500D01*
X113908840Y-52641500D02*
X114010440Y-52641500D01*
X113908840Y-52791360D02*
X113908840Y-52641500D01*
X115257580Y-54038500D02*
X115407440Y-54038500D01*
X115407440Y-54038500D02*
X115407440Y-53789580D01*
X115257580Y-53789580D02*
X115407440Y-53789580D01*
X115257580Y-54038500D02*
X115257580Y-53789580D01*
X116357400Y-54089300D02*
X113258600Y-54089300D01*
X113258600Y-54089300D02*
X113258600Y-52590700D01*
X113258600Y-52590700D02*
X116357400Y-52590700D01*
X116357400Y-52590700D02*
X116357400Y-54089300D01*
X114260738Y-53839354D02*
G75*
G03X115356640Y-53837840I547262J499354D01*
G01*
X114259867Y-52841602D02*
G75*
G03X114259360Y-53837840I548133J-498398D01*
G01*
X115355262Y-52840646D02*
G75*
G03X114259360Y-52842160I-547262J-499354D01*
G01*
X115356133Y-53838398D02*
G75*
G03X115356640Y-52842160I-548133J498398D01*
G01*
X147574000Y-70231000D02*
X147574000Y-52451000D01*
X142494000Y-54991000D02*
X142494000Y-70231000D01*
X147574000Y-70231000D02*
X142494000Y-70231000D01*
X147574000Y-52451000D02*
X145034000Y-52451000D01*
X143764000Y-52171000D02*
X142214000Y-52171000D01*
X145034000Y-52451000D02*
X145034000Y-54991000D01*
X145034000Y-54991000D02*
X142494000Y-54991000D01*
X142214000Y-52171000D02*
X142214000Y-53721000D01*
X125984000Y-54102000D02*
X125984000Y-61722000D01*
X128524000Y-54102000D02*
X128524000Y-61722000D01*
X128804000Y-51282000D02*
X128804000Y-52832000D01*
X125984000Y-61722000D02*
X128524000Y-61722000D01*
X128524000Y-54102000D02*
X125984000Y-54102000D01*
X125704000Y-52832000D02*
X125704000Y-51282000D01*
X125704000Y-51282000D02*
X128804000Y-51282000D01*
X136525000Y-54991000D02*
X136525000Y-67691000D01*
X136525000Y-67691000D02*
X133985000Y-67691000D01*
X133985000Y-67691000D02*
X133985000Y-54991000D01*
X136805000Y-52171000D02*
X136805000Y-53721000D01*
X136525000Y-54991000D02*
X133985000Y-54991000D01*
X133705000Y-53721000D02*
X133705000Y-52171000D01*
X133705000Y-52171000D02*
X136805000Y-52171000D01*
X127821000Y-70374000D02*
X127821000Y-72374000D01*
X125671000Y-72374000D02*
X125671000Y-70374000D01*
X109279000Y-55134000D02*
X109279000Y-57134000D01*
X107129000Y-57134000D02*
X107129000Y-55134000D01*
X118364000Y-58674000D02*
X118364000Y-59944000D01*
X118364000Y-59944000D02*
X115824000Y-59944000D01*
X115824000Y-59944000D02*
X115824000Y-58674000D01*
X119634000Y-58674000D02*
X119634000Y-86614000D01*
X119634000Y-86614000D02*
X114554000Y-86614000D01*
X114554000Y-86614000D02*
X114554000Y-58674000D01*
X114554000Y-58674000D02*
X119634000Y-58674000D01*
X147828000Y-94234000D02*
X147828000Y-86614000D01*
X147828000Y-86614000D02*
X142748000Y-86614000D01*
X142748000Y-86614000D02*
X142748000Y-96774000D01*
X142748000Y-96774000D02*
X145288000Y-96774000D01*
X146558000Y-97054000D02*
X148108000Y-97054000D01*
X145288000Y-96774000D02*
X145288000Y-94234000D01*
X145288000Y-94234000D02*
X147828000Y-94234000D01*
X148108000Y-97054000D02*
X148108000Y-95504000D01*
X133096000Y-75184000D02*
X133096000Y-76454000D01*
X133096000Y-76454000D02*
X130556000Y-76454000D01*
X130556000Y-76454000D02*
X130556000Y-75184000D01*
X134366000Y-75184000D02*
X134366000Y-85344000D01*
X134366000Y-85344000D02*
X129286000Y-85344000D01*
X129286000Y-85344000D02*
X129286000Y-75184000D01*
X129286000Y-75184000D02*
X134366000Y-75184000D01*
X124185680Y-64724280D02*
X123885960Y-64625220D01*
X124185680Y-65323720D02*
X123885960Y-65422780D01*
X124185680Y-65923160D02*
X129235200Y-65923160D01*
X129235200Y-65923160D02*
X129235200Y-64124840D01*
X129235200Y-64124840D02*
X124185680Y-64124840D01*
X124185680Y-65923160D02*
X124185680Y-64124840D01*
X114323905Y-52268381D02*
X114323905Y-51268381D01*
X114562000Y-51268381D01*
X114704858Y-51316000D01*
X114800096Y-51411238D01*
X114847715Y-51506476D01*
X114895334Y-51696952D01*
X114895334Y-51839810D01*
X114847715Y-52030286D01*
X114800096Y-52125524D01*
X114704858Y-52220762D01*
X114562000Y-52268381D01*
X114323905Y-52268381D01*
X115847715Y-52268381D02*
X115276286Y-52268381D01*
X115562000Y-52268381D02*
X115562000Y-51268381D01*
X115466762Y-51411238D01*
X115371524Y-51506476D01*
X115276286Y-51554095D01*
D11*
X144605429Y-72207381D02*
X144272095Y-71731190D01*
X144034000Y-72207381D02*
X144034000Y-71207381D01*
X144414953Y-71207381D01*
X144510191Y-71255000D01*
X144557810Y-71302619D01*
X144605429Y-71397857D01*
X144605429Y-71540714D01*
X144557810Y-71635952D01*
X144510191Y-71683571D01*
X144414953Y-71731190D01*
X144034000Y-71731190D01*
X145034000Y-72207381D02*
X145034000Y-71207381D01*
X145414953Y-71207381D01*
X145510191Y-71255000D01*
X145557810Y-71302619D01*
X145605429Y-71397857D01*
X145605429Y-71540714D01*
X145557810Y-71635952D01*
X145510191Y-71683571D01*
X145414953Y-71731190D01*
X145034000Y-71731190D01*
X146034000Y-72207381D02*
X146034000Y-71540714D01*
X146034000Y-71207381D02*
X145986381Y-71255000D01*
X146034000Y-71302619D01*
X146081619Y-71255000D01*
X146034000Y-71207381D01*
X146034000Y-71302619D01*
D13*
X125650810Y-63190381D02*
X125650810Y-62190381D01*
X126698429Y-63095143D02*
X126650810Y-63142762D01*
X126507953Y-63190381D01*
X126412715Y-63190381D01*
X126269857Y-63142762D01*
X126174619Y-63047524D01*
X126127000Y-62952286D01*
X126079381Y-62761810D01*
X126079381Y-62618952D01*
X126127000Y-62428476D01*
X126174619Y-62333238D01*
X126269857Y-62238000D01*
X126412715Y-62190381D01*
X126507953Y-62190381D01*
X126650810Y-62238000D01*
X126698429Y-62285619D01*
X127079381Y-63142762D02*
X127222238Y-63190381D01*
X127460334Y-63190381D01*
X127555572Y-63142762D01*
X127603191Y-63095143D01*
X127650810Y-62999905D01*
X127650810Y-62904667D01*
X127603191Y-62809429D01*
X127555572Y-62761810D01*
X127460334Y-62714190D01*
X127269857Y-62666571D01*
X127174619Y-62618952D01*
X127127000Y-62571333D01*
X127079381Y-62476095D01*
X127079381Y-62380857D01*
X127127000Y-62285619D01*
X127174619Y-62238000D01*
X127269857Y-62190381D01*
X127507953Y-62190381D01*
X127650810Y-62238000D01*
X128079381Y-63190381D02*
X128079381Y-62190381D01*
X128460334Y-62190381D01*
X128555572Y-62238000D01*
X128603191Y-62285619D01*
X128650810Y-62380857D01*
X128650810Y-62523714D01*
X128603191Y-62618952D01*
X128555572Y-62666571D01*
X128460334Y-62714190D01*
X128079381Y-62714190D01*
D11*
X134016905Y-69254667D02*
X134493096Y-69254667D01*
X133921667Y-69540381D02*
X134255000Y-68540381D01*
X134588334Y-69540381D01*
X134921667Y-68540381D02*
X134921667Y-69349905D01*
X134969286Y-69445143D01*
X135016905Y-69492762D01*
X135112143Y-69540381D01*
X135302620Y-69540381D01*
X135397858Y-69492762D01*
X135445477Y-69445143D01*
X135493096Y-69349905D01*
X135493096Y-68540381D01*
X135874048Y-68540381D02*
X136540715Y-69540381D01*
X136540715Y-68540381D02*
X135874048Y-69540381D01*
D13*
X124898381Y-71540666D02*
X124422190Y-71874000D01*
X124898381Y-72112095D02*
X123898381Y-72112095D01*
X123898381Y-71731142D01*
X123946000Y-71635904D01*
X123993619Y-71588285D01*
X124088857Y-71540666D01*
X124231714Y-71540666D01*
X124326952Y-71588285D01*
X124374571Y-71635904D01*
X124422190Y-71731142D01*
X124422190Y-72112095D01*
X123993619Y-71159714D02*
X123946000Y-71112095D01*
X123898381Y-71016857D01*
X123898381Y-70778761D01*
X123946000Y-70683523D01*
X123993619Y-70635904D01*
X124088857Y-70588285D01*
X124184095Y-70588285D01*
X124326952Y-70635904D01*
X124898381Y-71207333D01*
X124898381Y-70588285D01*
X106356381Y-56300666D02*
X105880190Y-56634000D01*
X106356381Y-56872095D02*
X105356381Y-56872095D01*
X105356381Y-56491142D01*
X105404000Y-56395904D01*
X105451619Y-56348285D01*
X105546857Y-56300666D01*
X105689714Y-56300666D01*
X105784952Y-56348285D01*
X105832571Y-56395904D01*
X105880190Y-56491142D01*
X105880190Y-56872095D01*
X105356381Y-55967333D02*
X105356381Y-55348285D01*
X105737333Y-55681619D01*
X105737333Y-55538761D01*
X105784952Y-55443523D01*
X105832571Y-55395904D01*
X105927810Y-55348285D01*
X106165905Y-55348285D01*
X106261143Y-55395904D01*
X106308762Y-55443523D01*
X106356381Y-55538761D01*
X106356381Y-55824476D01*
X106308762Y-55919714D01*
X106261143Y-55967333D01*
X117927381Y-75382095D02*
X116927381Y-75382095D01*
X117641667Y-75048761D01*
X116927381Y-74715428D01*
X117927381Y-74715428D01*
X117879762Y-74286857D02*
X117927381Y-74144000D01*
X117927381Y-73905904D01*
X117879762Y-73810666D01*
X117832143Y-73763047D01*
X117736905Y-73715428D01*
X117641667Y-73715428D01*
X117546429Y-73763047D01*
X117498810Y-73810666D01*
X117451190Y-73905904D01*
X117403571Y-74096381D01*
X117355952Y-74191619D01*
X117308333Y-74239238D01*
X117213095Y-74286857D01*
X117117857Y-74286857D01*
X117022619Y-74239238D01*
X116975000Y-74191619D01*
X116927381Y-74096381D01*
X116927381Y-73858285D01*
X116975000Y-73715428D01*
X117927381Y-73286857D02*
X116927381Y-73286857D01*
X116927381Y-72905904D01*
X116975000Y-72810666D01*
X117022619Y-72763047D01*
X117117857Y-72715428D01*
X117260714Y-72715428D01*
X117355952Y-72763047D01*
X117403571Y-72810666D01*
X117451190Y-72905904D01*
X117451190Y-73286857D01*
X117260714Y-71858285D02*
X117927381Y-71858285D01*
X116879762Y-72096381D02*
X117594048Y-72334476D01*
X117594048Y-71715428D01*
X116927381Y-71429714D02*
X116927381Y-70810666D01*
X117308333Y-71144000D01*
X117308333Y-71001142D01*
X117355952Y-70905904D01*
X117403571Y-70858285D01*
X117498810Y-70810666D01*
X117736905Y-70810666D01*
X117832143Y-70858285D01*
X117879762Y-70905904D01*
X117927381Y-71001142D01*
X117927381Y-71286857D01*
X117879762Y-71382095D01*
X117832143Y-71429714D01*
X116927381Y-70191619D02*
X116927381Y-70096380D01*
X116975000Y-70001142D01*
X117022619Y-69953523D01*
X117117857Y-69905904D01*
X117308333Y-69858285D01*
X117546429Y-69858285D01*
X117736905Y-69905904D01*
X117832143Y-69953523D01*
X117879762Y-70001142D01*
X117927381Y-70096380D01*
X117927381Y-70191619D01*
X117879762Y-70286857D01*
X117832143Y-70334476D01*
X117736905Y-70382095D01*
X117546429Y-70429714D01*
X117308333Y-70429714D01*
X117117857Y-70382095D01*
X117022619Y-70334476D01*
X116975000Y-70286857D01*
X116927381Y-70191619D01*
X143907048Y-85542381D02*
X143573714Y-85066190D01*
X143335619Y-85542381D02*
X143335619Y-84542381D01*
X143716572Y-84542381D01*
X143811810Y-84590000D01*
X143859429Y-84637619D01*
X143907048Y-84732857D01*
X143907048Y-84875714D01*
X143859429Y-84970952D01*
X143811810Y-85018571D01*
X143716572Y-85066190D01*
X143335619Y-85066190D01*
X144288000Y-85256667D02*
X144764191Y-85256667D01*
X144192762Y-85542381D02*
X144526095Y-84542381D01*
X144859429Y-85542381D01*
X145192762Y-85542381D02*
X145192762Y-84542381D01*
X145430857Y-84542381D01*
X145573715Y-84590000D01*
X145668953Y-84685238D01*
X145716572Y-84780476D01*
X145764191Y-84970952D01*
X145764191Y-85113810D01*
X145716572Y-85304286D01*
X145668953Y-85399524D01*
X145573715Y-85494762D01*
X145430857Y-85542381D01*
X145192762Y-85542381D01*
X146192762Y-85542381D02*
X146192762Y-84542381D01*
X146859428Y-84542381D02*
X147049905Y-84542381D01*
X147145143Y-84590000D01*
X147240381Y-84685238D01*
X147288000Y-84875714D01*
X147288000Y-85209048D01*
X147240381Y-85399524D01*
X147145143Y-85494762D01*
X147049905Y-85542381D01*
X146859428Y-85542381D01*
X146764190Y-85494762D01*
X146668952Y-85399524D01*
X146621333Y-85209048D01*
X146621333Y-84875714D01*
X146668952Y-84685238D01*
X146764190Y-84590000D01*
X146859428Y-84542381D01*
D11*
X132278381Y-82946571D02*
X131278381Y-82946571D01*
X131278381Y-82708476D01*
X131326000Y-82565618D01*
X131421238Y-82470380D01*
X131516476Y-82422761D01*
X131706952Y-82375142D01*
X131849810Y-82375142D01*
X132040286Y-82422761D01*
X132135524Y-82470380D01*
X132230762Y-82565618D01*
X132278381Y-82708476D01*
X132278381Y-82946571D01*
X132278381Y-81946571D02*
X131278381Y-81946571D01*
X132278381Y-81470381D02*
X131278381Y-81470381D01*
X131278381Y-81089428D01*
X131326000Y-80994190D01*
X131373619Y-80946571D01*
X131468857Y-80898952D01*
X131611714Y-80898952D01*
X131706952Y-80946571D01*
X131754571Y-80994190D01*
X131802190Y-81089428D01*
X131802190Y-81470381D01*
X132373619Y-80708476D02*
X132373619Y-79946571D01*
X132230762Y-79756095D02*
X132278381Y-79613238D01*
X132278381Y-79375142D01*
X132230762Y-79279904D01*
X132183143Y-79232285D01*
X132087905Y-79184666D01*
X131992667Y-79184666D01*
X131897429Y-79232285D01*
X131849810Y-79279904D01*
X131802190Y-79375142D01*
X131754571Y-79565619D01*
X131706952Y-79660857D01*
X131659333Y-79708476D01*
X131564095Y-79756095D01*
X131468857Y-79756095D01*
X131373619Y-79708476D01*
X131326000Y-79660857D01*
X131278381Y-79565619D01*
X131278381Y-79327523D01*
X131326000Y-79184666D01*
X131278381Y-78851333D02*
X132278381Y-78613238D01*
X131564095Y-78422761D01*
X132278381Y-78232285D01*
X131278381Y-77994190D01*
X125198381Y-64603381D02*
X125865048Y-65603381D01*
X125865048Y-64603381D02*
X125198381Y-65603381D01*
X126103143Y-64603381D02*
X126674572Y-64603381D01*
X126388857Y-65603381D02*
X126388857Y-64603381D01*
X126960286Y-65317667D02*
X127436477Y-65317667D01*
X126865048Y-65603381D02*
X127198381Y-64603381D01*
X127531715Y-65603381D01*
X128341239Y-65603381D02*
X127865048Y-65603381D01*
X127865048Y-64603381D01*
M02*
