G04 #@! TF.FileFunction,Legend,Top*
%FSLAX46Y46*%
G04 Gerber Fmt 4.6, Leading zero omitted, Abs format (unit mm)*
G04 Created by KiCad (PCBNEW (after 2015-mar-04 BZR unknown)-product) date 17/04/2015 10:14:47*
%MOMM*%
G01*
G04 APERTURE LIST*
%ADD10C,0.100000*%
%ADD11C,0.200000*%
%ADD12C,0.300000*%
%ADD13C,0.150000*%
%ADD14R,1.727200X1.727200*%
%ADD15O,1.727200X1.727200*%
%ADD16R,1.597660X1.800860*%
%ADD17R,1.700000X2.000000*%
%ADD18R,2.032000X1.727200*%
%ADD19O,2.032000X1.727200*%
%ADD20R,1.397000X1.397000*%
%ADD21C,1.397000*%
%ADD22C,1.000760*%
%ADD23R,1.501140X2.999740*%
G04 APERTURE END LIST*
D10*
D11*
X122872667Y-52411381D02*
X123206000Y-53411381D01*
X123539334Y-52411381D01*
X123872667Y-53411381D02*
X123872667Y-52411381D01*
X124110762Y-52411381D01*
X124253620Y-52459000D01*
X124348858Y-52554238D01*
X124396477Y-52649476D01*
X124444096Y-52839952D01*
X124444096Y-52982810D01*
X124396477Y-53173286D01*
X124348858Y-53268524D01*
X124253620Y-53363762D01*
X124110762Y-53411381D01*
X123872667Y-53411381D01*
X124872667Y-53411381D02*
X124872667Y-52411381D01*
X125110762Y-52411381D01*
X125253620Y-52459000D01*
X125348858Y-52554238D01*
X125396477Y-52649476D01*
X125444096Y-52839952D01*
X125444096Y-52982810D01*
X125396477Y-53173286D01*
X125348858Y-53268524D01*
X125253620Y-53363762D01*
X125110762Y-53411381D01*
X124872667Y-53411381D01*
X123063143Y-54951381D02*
X123634572Y-54951381D01*
X123348857Y-55951381D02*
X123348857Y-54951381D01*
X123920286Y-55903762D02*
X124063143Y-55951381D01*
X124301239Y-55951381D01*
X124396477Y-55903762D01*
X124444096Y-55856143D01*
X124491715Y-55760905D01*
X124491715Y-55665667D01*
X124444096Y-55570429D01*
X124396477Y-55522810D01*
X124301239Y-55475190D01*
X124110762Y-55427571D01*
X124015524Y-55379952D01*
X123967905Y-55332333D01*
X123920286Y-55237095D01*
X123920286Y-55141857D01*
X123967905Y-55046619D01*
X124015524Y-54999000D01*
X124110762Y-54951381D01*
X124348858Y-54951381D01*
X124491715Y-54999000D01*
X124777429Y-54951381D02*
X125348858Y-54951381D01*
X125063143Y-55951381D02*
X125063143Y-54951381D01*
X123658381Y-58491381D02*
X123325047Y-58015190D01*
X123086952Y-58491381D02*
X123086952Y-57491381D01*
X123467905Y-57491381D01*
X123563143Y-57539000D01*
X123610762Y-57586619D01*
X123658381Y-57681857D01*
X123658381Y-57824714D01*
X123610762Y-57919952D01*
X123563143Y-57967571D01*
X123467905Y-58015190D01*
X123086952Y-58015190D01*
X124039333Y-58443762D02*
X124182190Y-58491381D01*
X124420286Y-58491381D01*
X124515524Y-58443762D01*
X124563143Y-58396143D01*
X124610762Y-58300905D01*
X124610762Y-58205667D01*
X124563143Y-58110429D01*
X124515524Y-58062810D01*
X124420286Y-58015190D01*
X124229809Y-57967571D01*
X124134571Y-57919952D01*
X124086952Y-57872333D01*
X124039333Y-57777095D01*
X124039333Y-57681857D01*
X124086952Y-57586619D01*
X124134571Y-57539000D01*
X124229809Y-57491381D01*
X124467905Y-57491381D01*
X124610762Y-57539000D01*
X124896476Y-57491381D02*
X125467905Y-57491381D01*
X125182190Y-58491381D02*
X125182190Y-57491381D01*
X123444096Y-59952000D02*
X123348858Y-59904381D01*
X123206001Y-59904381D01*
X123063143Y-59952000D01*
X122967905Y-60047238D01*
X122920286Y-60142476D01*
X122872667Y-60332952D01*
X122872667Y-60475810D01*
X122920286Y-60666286D01*
X122967905Y-60761524D01*
X123063143Y-60856762D01*
X123206001Y-60904381D01*
X123301239Y-60904381D01*
X123444096Y-60856762D01*
X123491715Y-60809143D01*
X123491715Y-60475810D01*
X123301239Y-60475810D01*
X123920286Y-60904381D02*
X123920286Y-59904381D01*
X124491715Y-60904381D01*
X124491715Y-59904381D01*
X124967905Y-60904381D02*
X124967905Y-59904381D01*
X125206000Y-59904381D01*
X125348858Y-59952000D01*
X125444096Y-60047238D01*
X125491715Y-60142476D01*
X125539334Y-60332952D01*
X125539334Y-60475810D01*
X125491715Y-60666286D01*
X125444096Y-60761524D01*
X125348858Y-60856762D01*
X125206000Y-60904381D01*
X124967905Y-60904381D01*
X142303476Y-78271667D02*
X142779667Y-78271667D01*
X142208238Y-78557381D02*
X142541571Y-77557381D01*
X142874905Y-78557381D01*
X143779667Y-78557381D02*
X143446333Y-78081190D01*
X143208238Y-78557381D02*
X143208238Y-77557381D01*
X143589191Y-77557381D01*
X143684429Y-77605000D01*
X143732048Y-77652619D01*
X143779667Y-77747857D01*
X143779667Y-77890714D01*
X143732048Y-77985952D01*
X143684429Y-78033571D01*
X143589191Y-78081190D01*
X143208238Y-78081190D01*
X144779667Y-78557381D02*
X144446333Y-78081190D01*
X144208238Y-78557381D02*
X144208238Y-77557381D01*
X144589191Y-77557381D01*
X144684429Y-77605000D01*
X144732048Y-77652619D01*
X144779667Y-77747857D01*
X144779667Y-77890714D01*
X144732048Y-77985952D01*
X144684429Y-78033571D01*
X144589191Y-78081190D01*
X144208238Y-78081190D01*
X145208238Y-78557381D02*
X145208238Y-77557381D01*
X146017762Y-78033571D02*
X146160619Y-78081190D01*
X146208238Y-78128810D01*
X146255857Y-78224048D01*
X146255857Y-78366905D01*
X146208238Y-78462143D01*
X146160619Y-78509762D01*
X146065381Y-78557381D01*
X145684428Y-78557381D01*
X145684428Y-77557381D01*
X146017762Y-77557381D01*
X146113000Y-77605000D01*
X146160619Y-77652619D01*
X146208238Y-77747857D01*
X146208238Y-77843095D01*
X146160619Y-77938333D01*
X146113000Y-77985952D01*
X146017762Y-78033571D01*
X145684428Y-78033571D01*
X146636809Y-78271667D02*
X147113000Y-78271667D01*
X146541571Y-78557381D02*
X146874904Y-77557381D01*
X147208238Y-78557381D01*
X141732000Y-75819000D02*
X142494000Y-76962000D01*
X141732000Y-75819000D02*
X140970000Y-76962000D01*
X141732000Y-75946000D02*
X141732000Y-79629000D01*
D12*
X105573000Y-74824333D02*
X105489667Y-74990999D01*
X105489667Y-75240999D01*
X105573000Y-75490999D01*
X105739667Y-75657666D01*
X105906333Y-75740999D01*
X106239667Y-75824333D01*
X106489667Y-75824333D01*
X106823000Y-75740999D01*
X106989667Y-75657666D01*
X107156333Y-75490999D01*
X107239667Y-75240999D01*
X107239667Y-75074333D01*
X107156333Y-74824333D01*
X107073000Y-74740999D01*
X106489667Y-74740999D01*
X106489667Y-75074333D01*
X107239667Y-73240999D02*
X106323000Y-73240999D01*
X106156333Y-73324333D01*
X106073000Y-73490999D01*
X106073000Y-73824333D01*
X106156333Y-73990999D01*
X107156333Y-73240999D02*
X107239667Y-73407666D01*
X107239667Y-73824333D01*
X107156333Y-73990999D01*
X106989667Y-74074333D01*
X106823000Y-74074333D01*
X106656333Y-73990999D01*
X106573000Y-73824333D01*
X106573000Y-73407666D01*
X106489667Y-73240999D01*
X106073000Y-72657666D02*
X106073000Y-71991000D01*
X105489667Y-72407666D02*
X106989667Y-72407666D01*
X107156333Y-72324333D01*
X107239667Y-72157666D01*
X107239667Y-71991000D01*
X107156333Y-70741000D02*
X107239667Y-70907666D01*
X107239667Y-71241000D01*
X107156333Y-71407666D01*
X106989667Y-71491000D01*
X106323000Y-71491000D01*
X106156333Y-71407666D01*
X106073000Y-71241000D01*
X106073000Y-70907666D01*
X106156333Y-70741000D01*
X106323000Y-70657666D01*
X106489667Y-70657666D01*
X106656333Y-71491000D01*
X106073000Y-70074333D02*
X107239667Y-69741000D01*
X106406333Y-69407666D01*
X107239667Y-69074333D01*
X106073000Y-68741000D01*
X107239667Y-67324333D02*
X106323000Y-67324333D01*
X106156333Y-67407667D01*
X106073000Y-67574333D01*
X106073000Y-67907667D01*
X106156333Y-68074333D01*
X107156333Y-67324333D02*
X107239667Y-67491000D01*
X107239667Y-67907667D01*
X107156333Y-68074333D01*
X106989667Y-68157667D01*
X106823000Y-68157667D01*
X106656333Y-68074333D01*
X106573000Y-67907667D01*
X106573000Y-67491000D01*
X106489667Y-67324333D01*
X106073000Y-66657667D02*
X107239667Y-66241000D01*
X106073000Y-65824334D02*
X107239667Y-66241000D01*
X107656333Y-66407667D01*
X107739667Y-66491000D01*
X107823000Y-66657667D01*
X109989667Y-74615999D02*
X109156333Y-75199333D01*
X109989667Y-75615999D02*
X108239667Y-75615999D01*
X108239667Y-74949333D01*
X108323000Y-74782666D01*
X108406333Y-74699333D01*
X108573000Y-74615999D01*
X108823000Y-74615999D01*
X108989667Y-74699333D01*
X109073000Y-74782666D01*
X109156333Y-74949333D01*
X109156333Y-75615999D01*
X109989667Y-73865999D02*
X108239667Y-73865999D01*
X108239667Y-73199333D01*
X108323000Y-73032666D01*
X108406333Y-72949333D01*
X108573000Y-72865999D01*
X108823000Y-72865999D01*
X108989667Y-72949333D01*
X109073000Y-73032666D01*
X109156333Y-73199333D01*
X109156333Y-73865999D01*
X109989667Y-72115999D02*
X108823000Y-72115999D01*
X108239667Y-72115999D02*
X108323000Y-72199333D01*
X108406333Y-72115999D01*
X108323000Y-72032666D01*
X108239667Y-72115999D01*
X108406333Y-72115999D01*
X109989667Y-69949333D02*
X108239667Y-69949333D01*
X109073000Y-69949333D02*
X109073000Y-68949333D01*
X109989667Y-68949333D02*
X108239667Y-68949333D01*
X109489667Y-68199334D02*
X109489667Y-67366000D01*
X109989667Y-68366000D02*
X108239667Y-67782667D01*
X109989667Y-67199334D01*
X108239667Y-66866000D02*
X108239667Y-65866000D01*
X109989667Y-66366000D02*
X108239667Y-66366000D01*
D11*
X137128571Y-66952762D02*
X137271428Y-67000381D01*
X137509524Y-67000381D01*
X137604762Y-66952762D01*
X137652381Y-66905143D01*
X137700000Y-66809905D01*
X137700000Y-66714667D01*
X137652381Y-66619429D01*
X137604762Y-66571810D01*
X137509524Y-66524190D01*
X137319047Y-66476571D01*
X137223809Y-66428952D01*
X137176190Y-66381333D01*
X137128571Y-66286095D01*
X137128571Y-66190857D01*
X137176190Y-66095619D01*
X137223809Y-66048000D01*
X137319047Y-66000381D01*
X137557143Y-66000381D01*
X137700000Y-66048000D01*
X138700000Y-66905143D02*
X138652381Y-66952762D01*
X138509524Y-67000381D01*
X138414286Y-67000381D01*
X138271428Y-66952762D01*
X138176190Y-66857524D01*
X138128571Y-66762286D01*
X138080952Y-66571810D01*
X138080952Y-66428952D01*
X138128571Y-66238476D01*
X138176190Y-66143238D01*
X138271428Y-66048000D01*
X138414286Y-66000381D01*
X138509524Y-66000381D01*
X138652381Y-66048000D01*
X138700000Y-66095619D01*
X139604762Y-67000381D02*
X139128571Y-67000381D01*
X139128571Y-66000381D01*
X137080952Y-64285762D02*
X137223809Y-64333381D01*
X137461905Y-64333381D01*
X137557143Y-64285762D01*
X137604762Y-64238143D01*
X137652381Y-64142905D01*
X137652381Y-64047667D01*
X137604762Y-63952429D01*
X137557143Y-63904810D01*
X137461905Y-63857190D01*
X137271428Y-63809571D01*
X137176190Y-63761952D01*
X137128571Y-63714333D01*
X137080952Y-63619095D01*
X137080952Y-63523857D01*
X137128571Y-63428619D01*
X137176190Y-63381000D01*
X137271428Y-63333381D01*
X137509524Y-63333381D01*
X137652381Y-63381000D01*
X138080952Y-64333381D02*
X138080952Y-63333381D01*
X138319047Y-63333381D01*
X138461905Y-63381000D01*
X138557143Y-63476238D01*
X138604762Y-63571476D01*
X138652381Y-63761952D01*
X138652381Y-63904810D01*
X138604762Y-64095286D01*
X138557143Y-64190524D01*
X138461905Y-64285762D01*
X138319047Y-64333381D01*
X138080952Y-64333381D01*
X139033333Y-64047667D02*
X139509524Y-64047667D01*
X138938095Y-64333381D02*
X139271428Y-63333381D01*
X139604762Y-64333381D01*
X137636476Y-61793381D02*
X137636476Y-60793381D01*
X138207905Y-61793381D01*
X138207905Y-60793381D01*
X139255524Y-61698143D02*
X139207905Y-61745762D01*
X139065048Y-61793381D01*
X138969810Y-61793381D01*
X138826952Y-61745762D01*
X138731714Y-61650524D01*
X138684095Y-61555286D01*
X138636476Y-61364810D01*
X138636476Y-61221952D01*
X138684095Y-61031476D01*
X138731714Y-60936238D01*
X138826952Y-60841000D01*
X138969810Y-60793381D01*
X139065048Y-60793381D01*
X139207905Y-60841000D01*
X139255524Y-60888619D01*
X137017476Y-58872429D02*
X137779381Y-58872429D01*
X137398429Y-59253381D02*
X137398429Y-58491476D01*
X138731762Y-58253381D02*
X138255571Y-58253381D01*
X138207952Y-58729571D01*
X138255571Y-58681952D01*
X138350809Y-58634333D01*
X138588905Y-58634333D01*
X138684143Y-58681952D01*
X138731762Y-58729571D01*
X138779381Y-58824810D01*
X138779381Y-59062905D01*
X138731762Y-59158143D01*
X138684143Y-59205762D01*
X138588905Y-59253381D01*
X138350809Y-59253381D01*
X138255571Y-59205762D01*
X138207952Y-59158143D01*
X139065095Y-58253381D02*
X139398428Y-59253381D01*
X139731762Y-58253381D01*
X132969000Y-67691000D02*
X132969000Y-67818000D01*
X137668286Y-55761000D02*
X137573048Y-55713381D01*
X137430191Y-55713381D01*
X137287333Y-55761000D01*
X137192095Y-55856238D01*
X137144476Y-55951476D01*
X137096857Y-56141952D01*
X137096857Y-56284810D01*
X137144476Y-56475286D01*
X137192095Y-56570524D01*
X137287333Y-56665762D01*
X137430191Y-56713381D01*
X137525429Y-56713381D01*
X137668286Y-56665762D01*
X137715905Y-56618143D01*
X137715905Y-56284810D01*
X137525429Y-56284810D01*
X138144476Y-56713381D02*
X138144476Y-55713381D01*
X138715905Y-56713381D01*
X138715905Y-55713381D01*
X139192095Y-56713381D02*
X139192095Y-55713381D01*
X139430190Y-55713381D01*
X139573048Y-55761000D01*
X139668286Y-55856238D01*
X139715905Y-55951476D01*
X139763524Y-56141952D01*
X139763524Y-56284810D01*
X139715905Y-56475286D01*
X139668286Y-56570524D01*
X139573048Y-56665762D01*
X139430190Y-56713381D01*
X139192095Y-56713381D01*
X137176190Y-53046381D02*
X137795238Y-53046381D01*
X137461904Y-53427333D01*
X137604762Y-53427333D01*
X137700000Y-53474952D01*
X137747619Y-53522571D01*
X137795238Y-53617810D01*
X137795238Y-53855905D01*
X137747619Y-53951143D01*
X137700000Y-53998762D01*
X137604762Y-54046381D01*
X137319047Y-54046381D01*
X137223809Y-53998762D01*
X137176190Y-53951143D01*
X138128571Y-53379714D02*
X138366666Y-54046381D01*
X138604762Y-53379714D01*
X138890476Y-53046381D02*
X139509524Y-53046381D01*
X139176190Y-53427333D01*
X139319048Y-53427333D01*
X139414286Y-53474952D01*
X139461905Y-53522571D01*
X139509524Y-53617810D01*
X139509524Y-53855905D01*
X139461905Y-53951143D01*
X139414286Y-53998762D01*
X139319048Y-54046381D01*
X139033333Y-54046381D01*
X138938095Y-53998762D01*
X138890476Y-53951143D01*
D13*
X147828000Y-94234000D02*
X147828000Y-86614000D01*
X147828000Y-86614000D02*
X142748000Y-86614000D01*
X142748000Y-86614000D02*
X142748000Y-96774000D01*
X142748000Y-96774000D02*
X145288000Y-96774000D01*
X146558000Y-97054000D02*
X148108000Y-97054000D01*
X145288000Y-96774000D02*
X145288000Y-94234000D01*
X145288000Y-94234000D02*
X147828000Y-94234000D01*
X148108000Y-97054000D02*
X148108000Y-95504000D01*
X114708940Y-53439060D02*
X114907060Y-53439060D01*
X114907060Y-53439060D02*
X114907060Y-53240940D01*
X114708940Y-53240940D02*
X114907060Y-53240940D01*
X114708940Y-53439060D02*
X114708940Y-53240940D01*
X115257580Y-54038500D02*
X115605560Y-54038500D01*
X115605560Y-54038500D02*
X115605560Y-53789580D01*
X115257580Y-53789580D02*
X115605560Y-53789580D01*
X115257580Y-54038500D02*
X115257580Y-53789580D01*
X115605560Y-54038500D02*
X115707160Y-54038500D01*
X115707160Y-54038500D02*
X115707160Y-52842160D01*
X115605560Y-52842160D02*
X115707160Y-52842160D01*
X115605560Y-54038500D02*
X115605560Y-52842160D01*
X115605560Y-52791360D02*
X115707160Y-52791360D01*
X115707160Y-52791360D02*
X115707160Y-52641500D01*
X115605560Y-52641500D02*
X115707160Y-52641500D01*
X115605560Y-52791360D02*
X115605560Y-52641500D01*
X113908840Y-54038500D02*
X114010440Y-54038500D01*
X114010440Y-54038500D02*
X114010440Y-52842160D01*
X113908840Y-52842160D02*
X114010440Y-52842160D01*
X113908840Y-54038500D02*
X113908840Y-52842160D01*
X113908840Y-52791360D02*
X114010440Y-52791360D01*
X114010440Y-52791360D02*
X114010440Y-52641500D01*
X113908840Y-52641500D02*
X114010440Y-52641500D01*
X113908840Y-52791360D02*
X113908840Y-52641500D01*
X115257580Y-54038500D02*
X115407440Y-54038500D01*
X115407440Y-54038500D02*
X115407440Y-53789580D01*
X115257580Y-53789580D02*
X115407440Y-53789580D01*
X115257580Y-54038500D02*
X115257580Y-53789580D01*
X116357400Y-54089300D02*
X113258600Y-54089300D01*
X113258600Y-54089300D02*
X113258600Y-52590700D01*
X113258600Y-52590700D02*
X116357400Y-52590700D01*
X116357400Y-52590700D02*
X116357400Y-54089300D01*
X114260738Y-53839354D02*
G75*
G03X115356640Y-53837840I547262J499354D01*
G01*
X114259867Y-52841602D02*
G75*
G03X114259360Y-53837840I548133J-498398D01*
G01*
X115355262Y-52840646D02*
G75*
G03X114259360Y-52842160I-547262J-499354D01*
G01*
X115356133Y-53838398D02*
G75*
G03X115356640Y-52842160I-548133J498398D01*
G01*
X127821000Y-70374000D02*
X127821000Y-72374000D01*
X125671000Y-72374000D02*
X125671000Y-70374000D01*
X108009000Y-58563000D02*
X108009000Y-60563000D01*
X105859000Y-60563000D02*
X105859000Y-58563000D01*
X147574000Y-70231000D02*
X147574000Y-52451000D01*
X142494000Y-54991000D02*
X142494000Y-70231000D01*
X147574000Y-70231000D02*
X142494000Y-70231000D01*
X147574000Y-52451000D02*
X145034000Y-52451000D01*
X143764000Y-52171000D02*
X142214000Y-52171000D01*
X145034000Y-52451000D02*
X145034000Y-54991000D01*
X145034000Y-54991000D02*
X142494000Y-54991000D01*
X142214000Y-52171000D02*
X142214000Y-53721000D01*
X125984000Y-54102000D02*
X125984000Y-61722000D01*
X128524000Y-54102000D02*
X128524000Y-61722000D01*
X128804000Y-51282000D02*
X128804000Y-52832000D01*
X125984000Y-61722000D02*
X128524000Y-61722000D01*
X128524000Y-54102000D02*
X125984000Y-54102000D01*
X125704000Y-52832000D02*
X125704000Y-51282000D01*
X125704000Y-51282000D02*
X128804000Y-51282000D01*
X136525000Y-54991000D02*
X136525000Y-67691000D01*
X136525000Y-67691000D02*
X133985000Y-67691000D01*
X133985000Y-67691000D02*
X133985000Y-54991000D01*
X136805000Y-52171000D02*
X136805000Y-53721000D01*
X136525000Y-54991000D02*
X133985000Y-54991000D01*
X133705000Y-53721000D02*
X133705000Y-52171000D01*
X133705000Y-52171000D02*
X136805000Y-52171000D01*
X118364000Y-58674000D02*
X118364000Y-59944000D01*
X118364000Y-59944000D02*
X115824000Y-59944000D01*
X115824000Y-59944000D02*
X115824000Y-58674000D01*
X119634000Y-58674000D02*
X119634000Y-86614000D01*
X119634000Y-86614000D02*
X114554000Y-86614000D01*
X114554000Y-86614000D02*
X114554000Y-58674000D01*
X114554000Y-58674000D02*
X119634000Y-58674000D01*
X133096000Y-75184000D02*
X133096000Y-76454000D01*
X133096000Y-76454000D02*
X130556000Y-76454000D01*
X130556000Y-76454000D02*
X130556000Y-75184000D01*
X134366000Y-75184000D02*
X134366000Y-85344000D01*
X134366000Y-85344000D02*
X129286000Y-85344000D01*
X129286000Y-85344000D02*
X129286000Y-75184000D01*
X129286000Y-75184000D02*
X134366000Y-75184000D01*
X124185680Y-64724280D02*
X123885960Y-64625220D01*
X124185680Y-65323720D02*
X123885960Y-65422780D01*
X124185680Y-65923160D02*
X129235200Y-65923160D01*
X129235200Y-65923160D02*
X129235200Y-64124840D01*
X129235200Y-64124840D02*
X124185680Y-64124840D01*
X124185680Y-65923160D02*
X124185680Y-64124840D01*
X111815880Y-60639960D02*
X111815880Y-55438040D01*
X109418120Y-55438040D02*
X109418120Y-60639960D01*
X108318300Y-62638940D02*
X109418120Y-62638940D01*
X108818680Y-63238380D02*
X108818680Y-62039500D01*
X109418120Y-62034420D02*
X111815880Y-62034420D01*
D11*
X143216572Y-86022571D02*
X142716572Y-85308286D01*
X142359429Y-86022571D02*
X142359429Y-84522571D01*
X142930857Y-84522571D01*
X143073715Y-84594000D01*
X143145143Y-84665429D01*
X143216572Y-84808286D01*
X143216572Y-85022571D01*
X143145143Y-85165429D01*
X143073715Y-85236857D01*
X142930857Y-85308286D01*
X142359429Y-85308286D01*
X143788000Y-85594000D02*
X144502286Y-85594000D01*
X143645143Y-86022571D02*
X144145143Y-84522571D01*
X144645143Y-86022571D01*
X145145143Y-86022571D02*
X145145143Y-84522571D01*
X145502286Y-84522571D01*
X145716571Y-84594000D01*
X145859429Y-84736857D01*
X145930857Y-84879714D01*
X146002286Y-85165429D01*
X146002286Y-85379714D01*
X145930857Y-85665429D01*
X145859429Y-85808286D01*
X145716571Y-85951143D01*
X145502286Y-86022571D01*
X145145143Y-86022571D01*
X146645143Y-86022571D02*
X146645143Y-84522571D01*
X147645143Y-84522571D02*
X147930857Y-84522571D01*
X148073715Y-84594000D01*
X148216572Y-84736857D01*
X148288000Y-85022571D01*
X148288000Y-85522571D01*
X148216572Y-85808286D01*
X148073715Y-85951143D01*
X147930857Y-86022571D01*
X147645143Y-86022571D01*
X147502286Y-85951143D01*
X147359429Y-85808286D01*
X147288000Y-85522571D01*
X147288000Y-85022571D01*
X147359429Y-84736857D01*
X147502286Y-84594000D01*
X147645143Y-84522571D01*
D13*
X114323905Y-52268381D02*
X114323905Y-51268381D01*
X114562000Y-51268381D01*
X114704858Y-51316000D01*
X114800096Y-51411238D01*
X114847715Y-51506476D01*
X114895334Y-51696952D01*
X114895334Y-51839810D01*
X114847715Y-52030286D01*
X114800096Y-52125524D01*
X114704858Y-52220762D01*
X114562000Y-52268381D01*
X114323905Y-52268381D01*
X115847715Y-52268381D02*
X115276286Y-52268381D01*
X115562000Y-52268381D02*
X115562000Y-51268381D01*
X115466762Y-51411238D01*
X115371524Y-51506476D01*
X115276286Y-51554095D01*
X124898381Y-71540666D02*
X124422190Y-71874000D01*
X124898381Y-72112095D02*
X123898381Y-72112095D01*
X123898381Y-71731142D01*
X123946000Y-71635904D01*
X123993619Y-71588285D01*
X124088857Y-71540666D01*
X124231714Y-71540666D01*
X124326952Y-71588285D01*
X124374571Y-71635904D01*
X124422190Y-71731142D01*
X124422190Y-72112095D01*
X123993619Y-71159714D02*
X123946000Y-71112095D01*
X123898381Y-71016857D01*
X123898381Y-70778761D01*
X123946000Y-70683523D01*
X123993619Y-70635904D01*
X124088857Y-70588285D01*
X124184095Y-70588285D01*
X124326952Y-70635904D01*
X124898381Y-71207333D01*
X124898381Y-70588285D01*
X105086381Y-59729666D02*
X104610190Y-60063000D01*
X105086381Y-60301095D02*
X104086381Y-60301095D01*
X104086381Y-59920142D01*
X104134000Y-59824904D01*
X104181619Y-59777285D01*
X104276857Y-59729666D01*
X104419714Y-59729666D01*
X104514952Y-59777285D01*
X104562571Y-59824904D01*
X104610190Y-59920142D01*
X104610190Y-60301095D01*
X104086381Y-59396333D02*
X104086381Y-58777285D01*
X104467333Y-59110619D01*
X104467333Y-58967761D01*
X104514952Y-58872523D01*
X104562571Y-58824904D01*
X104657810Y-58777285D01*
X104895905Y-58777285D01*
X104991143Y-58824904D01*
X105038762Y-58872523D01*
X105086381Y-58967761D01*
X105086381Y-59253476D01*
X105038762Y-59348714D01*
X104991143Y-59396333D01*
X144478429Y-71953381D02*
X144145095Y-71477190D01*
X143907000Y-71953381D02*
X143907000Y-70953381D01*
X144287953Y-70953381D01*
X144383191Y-71001000D01*
X144430810Y-71048619D01*
X144478429Y-71143857D01*
X144478429Y-71286714D01*
X144430810Y-71381952D01*
X144383191Y-71429571D01*
X144287953Y-71477190D01*
X143907000Y-71477190D01*
X144907000Y-71953381D02*
X144907000Y-70953381D01*
X145287953Y-70953381D01*
X145383191Y-71001000D01*
X145430810Y-71048619D01*
X145478429Y-71143857D01*
X145478429Y-71286714D01*
X145430810Y-71381952D01*
X145383191Y-71429571D01*
X145287953Y-71477190D01*
X144907000Y-71477190D01*
X145907000Y-71953381D02*
X145907000Y-71286714D01*
X145907000Y-70953381D02*
X145859381Y-71001000D01*
X145907000Y-71048619D01*
X145954619Y-71001000D01*
X145907000Y-70953381D01*
X145907000Y-71048619D01*
X130627381Y-57991190D02*
X129627381Y-57991190D01*
X130532143Y-56943571D02*
X130579762Y-56991190D01*
X130627381Y-57134047D01*
X130627381Y-57229285D01*
X130579762Y-57372143D01*
X130484524Y-57467381D01*
X130389286Y-57515000D01*
X130198810Y-57562619D01*
X130055952Y-57562619D01*
X129865476Y-57515000D01*
X129770238Y-57467381D01*
X129675000Y-57372143D01*
X129627381Y-57229285D01*
X129627381Y-57134047D01*
X129675000Y-56991190D01*
X129722619Y-56943571D01*
X130579762Y-56562619D02*
X130627381Y-56419762D01*
X130627381Y-56181666D01*
X130579762Y-56086428D01*
X130532143Y-56038809D01*
X130436905Y-55991190D01*
X130341667Y-55991190D01*
X130246429Y-56038809D01*
X130198810Y-56086428D01*
X130151190Y-56181666D01*
X130103571Y-56372143D01*
X130055952Y-56467381D01*
X130008333Y-56515000D01*
X129913095Y-56562619D01*
X129817857Y-56562619D01*
X129722619Y-56515000D01*
X129675000Y-56467381D01*
X129627381Y-56372143D01*
X129627381Y-56134047D01*
X129675000Y-55991190D01*
X130627381Y-55562619D02*
X129627381Y-55562619D01*
X129627381Y-55181666D01*
X129675000Y-55086428D01*
X129722619Y-55038809D01*
X129817857Y-54991190D01*
X129960714Y-54991190D01*
X130055952Y-55038809D01*
X130103571Y-55086428D01*
X130151190Y-55181666D01*
X130151190Y-55562619D01*
X134016905Y-69254667D02*
X134493096Y-69254667D01*
X133921667Y-69540381D02*
X134255000Y-68540381D01*
X134588334Y-69540381D01*
X134921667Y-68540381D02*
X134921667Y-69349905D01*
X134969286Y-69445143D01*
X135016905Y-69492762D01*
X135112143Y-69540381D01*
X135302620Y-69540381D01*
X135397858Y-69492762D01*
X135445477Y-69445143D01*
X135493096Y-69349905D01*
X135493096Y-68540381D01*
X135874048Y-68540381D02*
X136540715Y-69540381D01*
X136540715Y-68540381D02*
X135874048Y-69540381D01*
X117816381Y-64515905D02*
X118625905Y-64515905D01*
X118721143Y-64468286D01*
X118768762Y-64420667D01*
X118816381Y-64325429D01*
X118816381Y-64134952D01*
X118768762Y-64039714D01*
X118721143Y-63992095D01*
X118625905Y-63944476D01*
X117816381Y-63944476D01*
X118816381Y-62944476D02*
X118816381Y-63515905D01*
X118816381Y-63230191D02*
X117816381Y-63230191D01*
X117959238Y-63325429D01*
X118054476Y-63420667D01*
X118102095Y-63515905D01*
X131064095Y-73366381D02*
X131064095Y-74175905D01*
X131111714Y-74271143D01*
X131159333Y-74318762D01*
X131254571Y-74366381D01*
X131445048Y-74366381D01*
X131540286Y-74318762D01*
X131587905Y-74271143D01*
X131635524Y-74175905D01*
X131635524Y-73366381D01*
X132016476Y-73366381D02*
X132635524Y-73366381D01*
X132302190Y-73747333D01*
X132445048Y-73747333D01*
X132540286Y-73794952D01*
X132587905Y-73842571D01*
X132635524Y-73937810D01*
X132635524Y-74175905D01*
X132587905Y-74271143D01*
X132540286Y-74318762D01*
X132445048Y-74366381D01*
X132159333Y-74366381D01*
X132064095Y-74318762D01*
X132016476Y-74271143D01*
X125198381Y-66508381D02*
X125865048Y-67508381D01*
X125865048Y-66508381D02*
X125198381Y-67508381D01*
X126103143Y-66508381D02*
X126674572Y-66508381D01*
X126388857Y-67508381D02*
X126388857Y-66508381D01*
X126960286Y-67222667D02*
X127436477Y-67222667D01*
X126865048Y-67508381D02*
X127198381Y-66508381D01*
X127531715Y-67508381D01*
X128341239Y-67508381D02*
X127865048Y-67508381D01*
X127865048Y-66508381D01*
X107875343Y-58406326D02*
X107922962Y-58453945D01*
X107970581Y-58596802D01*
X107970581Y-58692040D01*
X107922962Y-58834898D01*
X107827724Y-58930136D01*
X107732486Y-58977755D01*
X107542010Y-59025374D01*
X107399152Y-59025374D01*
X107208676Y-58977755D01*
X107113438Y-58930136D01*
X107018200Y-58834898D01*
X106970581Y-58692040D01*
X106970581Y-58596802D01*
X107018200Y-58453945D01*
X107065819Y-58406326D01*
X107065819Y-58025374D02*
X107018200Y-57977755D01*
X106970581Y-57882517D01*
X106970581Y-57644421D01*
X107018200Y-57549183D01*
X107065819Y-57501564D01*
X107161057Y-57453945D01*
X107256295Y-57453945D01*
X107399152Y-57501564D01*
X107970581Y-58072993D01*
X107970581Y-57453945D01*
X110688429Y-63499952D02*
X110688429Y-62738047D01*
X111069381Y-63118999D02*
X110307476Y-63118999D01*
%LPC*%
D12*
X105033286Y-95317571D02*
X105033286Y-96531857D01*
X105104714Y-96674714D01*
X105176143Y-96746143D01*
X105319000Y-96817571D01*
X105604714Y-96817571D01*
X105747572Y-96746143D01*
X105819000Y-96674714D01*
X105890429Y-96531857D01*
X105890429Y-95317571D01*
X106533286Y-96746143D02*
X106747572Y-96817571D01*
X107104715Y-96817571D01*
X107247572Y-96746143D01*
X107319001Y-96674714D01*
X107390429Y-96531857D01*
X107390429Y-96389000D01*
X107319001Y-96246143D01*
X107247572Y-96174714D01*
X107104715Y-96103286D01*
X106819001Y-96031857D01*
X106676143Y-95960429D01*
X106604715Y-95889000D01*
X106533286Y-95746143D01*
X106533286Y-95603286D01*
X106604715Y-95460429D01*
X106676143Y-95389000D01*
X106819001Y-95317571D01*
X107176143Y-95317571D01*
X107390429Y-95389000D01*
X107961857Y-96389000D02*
X108676143Y-96389000D01*
X107819000Y-96817571D02*
X108319000Y-95317571D01*
X108819000Y-96817571D01*
X110176143Y-96674714D02*
X110104714Y-96746143D01*
X109890428Y-96817571D01*
X109747571Y-96817571D01*
X109533286Y-96746143D01*
X109390428Y-96603286D01*
X109319000Y-96460429D01*
X109247571Y-96174714D01*
X109247571Y-95960429D01*
X109319000Y-95674714D01*
X109390428Y-95531857D01*
X109533286Y-95389000D01*
X109747571Y-95317571D01*
X109890428Y-95317571D01*
X110104714Y-95389000D01*
X110176143Y-95460429D01*
D14*
X146558000Y-95504000D03*
D15*
X144018000Y-95504000D03*
X146558000Y-92964000D03*
X144018000Y-92964000D03*
X146558000Y-90424000D03*
X144018000Y-90424000D03*
X146558000Y-87884000D03*
X144018000Y-87884000D03*
D16*
X113388140Y-53340000D03*
X116227860Y-53340000D03*
D17*
X126746000Y-73374000D03*
X126746000Y-69374000D03*
X106934000Y-61563000D03*
X106934000Y-57563000D03*
D14*
X143764000Y-53721000D03*
D15*
X146304000Y-53721000D03*
X143764000Y-56261000D03*
X146304000Y-56261000D03*
X143764000Y-58801000D03*
X146304000Y-58801000D03*
X143764000Y-61341000D03*
X146304000Y-61341000D03*
X143764000Y-63881000D03*
X146304000Y-63881000D03*
X143764000Y-66421000D03*
X146304000Y-66421000D03*
X143764000Y-68961000D03*
X146304000Y-68961000D03*
D18*
X127254000Y-52832000D03*
D19*
X127254000Y-55372000D03*
X127254000Y-57912000D03*
X127254000Y-60452000D03*
D18*
X135255000Y-53721000D03*
D19*
X135255000Y-56261000D03*
X135255000Y-58801000D03*
X135255000Y-61341000D03*
X135255000Y-63881000D03*
X135255000Y-66421000D03*
D20*
X113284000Y-61214000D03*
D21*
X113284000Y-63754000D03*
X113284000Y-66294000D03*
X113284000Y-68834000D03*
X113284000Y-71374000D03*
X113284000Y-73914000D03*
X113284000Y-76454000D03*
X113284000Y-78994000D03*
X113284000Y-81534000D03*
X113284000Y-84074000D03*
X120904000Y-84074000D03*
X120904000Y-81534000D03*
X120904000Y-78994000D03*
X120904000Y-76454000D03*
X120904000Y-73914000D03*
X120904000Y-71374000D03*
X120904000Y-68834000D03*
X120904000Y-66294000D03*
X120904000Y-63754000D03*
X120904000Y-61214000D03*
D20*
X128016000Y-76454000D03*
D21*
X128016000Y-78994000D03*
X128016000Y-81534000D03*
X128016000Y-84074000D03*
X135636000Y-84074000D03*
X135636000Y-81534000D03*
X135636000Y-78994000D03*
X135636000Y-76454000D03*
D22*
X122936000Y-64274700D03*
X122936000Y-65773300D03*
D23*
X110617000Y-56040020D03*
X110617000Y-60037980D03*
M02*
