G04 #@! TF.FileFunction,Soldermask,Top*
%FSLAX46Y46*%
G04 Gerber Fmt 4.6, Leading zero omitted, Abs format (unit mm)*
G04 Created by KiCad (PCBNEW (after 2015-mar-04 BZR unknown)-product) date 17/04/2015 10:14:47*
%MOMM*%
G01*
G04 APERTURE LIST*
%ADD10C,0.100000*%
%ADD11C,0.300000*%
%ADD12R,1.727200X1.727200*%
%ADD13O,1.727200X1.727200*%
%ADD14R,1.597660X1.800860*%
%ADD15R,1.700000X2.000000*%
%ADD16R,2.032000X1.727200*%
%ADD17O,2.032000X1.727200*%
%ADD18R,1.397000X1.397000*%
%ADD19C,1.397000*%
%ADD20C,1.000760*%
%ADD21R,1.501140X2.999740*%
G04 APERTURE END LIST*
D10*
D11*
X105033286Y-95317571D02*
X105033286Y-96531857D01*
X105104714Y-96674714D01*
X105176143Y-96746143D01*
X105319000Y-96817571D01*
X105604714Y-96817571D01*
X105747572Y-96746143D01*
X105819000Y-96674714D01*
X105890429Y-96531857D01*
X105890429Y-95317571D01*
X106533286Y-96746143D02*
X106747572Y-96817571D01*
X107104715Y-96817571D01*
X107247572Y-96746143D01*
X107319001Y-96674714D01*
X107390429Y-96531857D01*
X107390429Y-96389000D01*
X107319001Y-96246143D01*
X107247572Y-96174714D01*
X107104715Y-96103286D01*
X106819001Y-96031857D01*
X106676143Y-95960429D01*
X106604715Y-95889000D01*
X106533286Y-95746143D01*
X106533286Y-95603286D01*
X106604715Y-95460429D01*
X106676143Y-95389000D01*
X106819001Y-95317571D01*
X107176143Y-95317571D01*
X107390429Y-95389000D01*
X107961857Y-96389000D02*
X108676143Y-96389000D01*
X107819000Y-96817571D02*
X108319000Y-95317571D01*
X108819000Y-96817571D01*
X110176143Y-96674714D02*
X110104714Y-96746143D01*
X109890428Y-96817571D01*
X109747571Y-96817571D01*
X109533286Y-96746143D01*
X109390428Y-96603286D01*
X109319000Y-96460429D01*
X109247571Y-96174714D01*
X109247571Y-95960429D01*
X109319000Y-95674714D01*
X109390428Y-95531857D01*
X109533286Y-95389000D01*
X109747571Y-95317571D01*
X109890428Y-95317571D01*
X110104714Y-95389000D01*
X110176143Y-95460429D01*
D12*
X146558000Y-95504000D03*
D13*
X144018000Y-95504000D03*
X146558000Y-92964000D03*
X144018000Y-92964000D03*
X146558000Y-90424000D03*
X144018000Y-90424000D03*
X146558000Y-87884000D03*
X144018000Y-87884000D03*
D14*
X113388140Y-53340000D03*
X116227860Y-53340000D03*
D15*
X126746000Y-73374000D03*
X126746000Y-69374000D03*
X106934000Y-61563000D03*
X106934000Y-57563000D03*
D12*
X143764000Y-53721000D03*
D13*
X146304000Y-53721000D03*
X143764000Y-56261000D03*
X146304000Y-56261000D03*
X143764000Y-58801000D03*
X146304000Y-58801000D03*
X143764000Y-61341000D03*
X146304000Y-61341000D03*
X143764000Y-63881000D03*
X146304000Y-63881000D03*
X143764000Y-66421000D03*
X146304000Y-66421000D03*
X143764000Y-68961000D03*
X146304000Y-68961000D03*
D16*
X127254000Y-52832000D03*
D17*
X127254000Y-55372000D03*
X127254000Y-57912000D03*
X127254000Y-60452000D03*
D16*
X135255000Y-53721000D03*
D17*
X135255000Y-56261000D03*
X135255000Y-58801000D03*
X135255000Y-61341000D03*
X135255000Y-63881000D03*
X135255000Y-66421000D03*
D18*
X113284000Y-61214000D03*
D19*
X113284000Y-63754000D03*
X113284000Y-66294000D03*
X113284000Y-68834000D03*
X113284000Y-71374000D03*
X113284000Y-73914000D03*
X113284000Y-76454000D03*
X113284000Y-78994000D03*
X113284000Y-81534000D03*
X113284000Y-84074000D03*
X120904000Y-84074000D03*
X120904000Y-81534000D03*
X120904000Y-78994000D03*
X120904000Y-76454000D03*
X120904000Y-73914000D03*
X120904000Y-71374000D03*
X120904000Y-68834000D03*
X120904000Y-66294000D03*
X120904000Y-63754000D03*
X120904000Y-61214000D03*
D18*
X128016000Y-76454000D03*
D19*
X128016000Y-78994000D03*
X128016000Y-81534000D03*
X128016000Y-84074000D03*
X135636000Y-84074000D03*
X135636000Y-81534000D03*
X135636000Y-78994000D03*
X135636000Y-76454000D03*
D20*
X122936000Y-64274700D03*
X122936000Y-65773300D03*
D21*
X110617000Y-56040020D03*
X110617000Y-60037980D03*
M02*
