%FSLAX45Y45*%
G04 Gerber Fmt 4.5, Leading zero omitted, Abs format (unit mm)*
G04 Created by KiCad (PCBNEW (after 2015-mar-04 BZR unknown)-product) date 10/04/2015 18:40:53*
%MOMM*%
G01*
G04 APERTURE LIST*
%ADD10C,0.127000*%
%ADD11C,0.100000*%
%ADD12C,0.200000*%
%ADD13C,0.300000*%
G04 APERTURE END LIST*
D10*
D11*
X14986000Y-4953000D02*
X10287000Y-4953000D01*
X14986000Y-9906000D02*
X14986000Y-4953000D01*
X10287000Y-9906000D02*
X14986000Y-9906000D01*
X10287000Y-4953000D02*
X10287000Y-9906000D01*
D12*
X11638600Y-7079300D02*
X11678600Y-7119300D01*
X11678600Y-7079300D02*
X11638600Y-7119300D01*
X12210100Y-9263700D02*
X12250100Y-9303700D01*
X12250100Y-9263700D02*
X12210100Y-9303700D01*
X12959400Y-6228400D02*
X12999400Y-6268400D01*
X12999400Y-6228400D02*
X12959400Y-6268400D01*
X13162600Y-7041200D02*
X13202600Y-7081200D01*
X13202600Y-7041200D02*
X13162600Y-7081200D01*
X13378500Y-8908100D02*
X13418500Y-8948100D01*
X13418500Y-8908100D02*
X13378500Y-8948100D01*
X13378500Y-9136700D02*
X13418500Y-9176700D01*
X13418500Y-9136700D02*
X13378500Y-9176700D01*
X13784900Y-6939600D02*
X13824900Y-6979600D01*
X13824900Y-6939600D02*
X13784900Y-6979600D01*
X13823000Y-5466400D02*
X13863000Y-5506400D01*
X13863000Y-5466400D02*
X13823000Y-5506400D01*
X13937300Y-8349300D02*
X13977300Y-8389300D01*
X13977300Y-8349300D02*
X13937300Y-8389300D01*
X13937300Y-8666800D02*
X13977300Y-8706800D01*
X13977300Y-8666800D02*
X13937300Y-8706800D01*
X13975400Y-7904800D02*
X14015400Y-7944800D01*
X14015400Y-7904800D02*
X13975400Y-7944800D01*
X12323572Y-6427470D02*
G75*
G03X12323572Y-6427470I-29972J0D01*
G01*
X12323572Y-6577330D02*
G75*
G03X12323572Y-6577330I-29972J0D01*
G01*
X11328400Y-6080760D02*
X11328400Y-6162040D01*
X11287760Y-6121400D02*
X11369040Y-6121400D01*
X11328400Y-6334760D02*
X11328400Y-6416040D01*
X11287760Y-6375400D02*
X11369040Y-6375400D01*
X11328400Y-6588760D02*
X11328400Y-6670040D01*
X11287760Y-6629400D02*
X11369040Y-6629400D01*
X11328400Y-6842760D02*
X11328400Y-6924040D01*
X11287760Y-6883400D02*
X11369040Y-6883400D01*
X11328400Y-7096760D02*
X11328400Y-7178040D01*
X11287760Y-7137400D02*
X11369040Y-7137400D01*
X11328400Y-7350760D02*
X11328400Y-7432040D01*
X11287760Y-7391400D02*
X11369040Y-7391400D01*
X11328400Y-7604760D02*
X11328400Y-7686040D01*
X11287760Y-7645400D02*
X11369040Y-7645400D01*
X11328400Y-7858760D02*
X11328400Y-7940040D01*
X11287760Y-7899400D02*
X11369040Y-7899400D01*
X11328400Y-8112760D02*
X11328400Y-8194040D01*
X11287760Y-8153400D02*
X11369040Y-8153400D01*
X11328400Y-8366760D02*
X11328400Y-8448040D01*
X11287760Y-8407400D02*
X11369040Y-8407400D01*
X12090400Y-6080760D02*
X12090400Y-6162040D01*
X12049760Y-6121400D02*
X12131040Y-6121400D01*
X12090400Y-6334760D02*
X12090400Y-6416040D01*
X12049760Y-6375400D02*
X12131040Y-6375400D01*
X12090400Y-6588760D02*
X12090400Y-6670040D01*
X12049760Y-6629400D02*
X12131040Y-6629400D01*
X12090400Y-6842760D02*
X12090400Y-6924040D01*
X12049760Y-6883400D02*
X12131040Y-6883400D01*
X12090400Y-7096760D02*
X12090400Y-7178040D01*
X12049760Y-7137400D02*
X12131040Y-7137400D01*
X12090400Y-7350760D02*
X12090400Y-7432040D01*
X12049760Y-7391400D02*
X12131040Y-7391400D01*
X12090400Y-7604760D02*
X12090400Y-7686040D01*
X12049760Y-7645400D02*
X12131040Y-7645400D01*
X12090400Y-7858760D02*
X12090400Y-7940040D01*
X12049760Y-7899400D02*
X12131040Y-7899400D01*
X12090400Y-8112760D02*
X12090400Y-8194040D01*
X12049760Y-8153400D02*
X12131040Y-8153400D01*
X12090400Y-8366760D02*
X12090400Y-8448040D01*
X12049760Y-8407400D02*
X12131040Y-8407400D01*
X12801600Y-7604760D02*
X12801600Y-7686040D01*
X12760960Y-7645400D02*
X12842240Y-7645400D01*
X12801600Y-7858760D02*
X12801600Y-7940040D01*
X12760960Y-7899400D02*
X12842240Y-7899400D01*
X12801600Y-8112760D02*
X12801600Y-8194040D01*
X12760960Y-8153400D02*
X12842240Y-8153400D01*
X12801600Y-8366760D02*
X12801600Y-8448040D01*
X12760960Y-8407400D02*
X12842240Y-8407400D01*
X13563600Y-7604760D02*
X13563600Y-7686040D01*
X13522960Y-7645400D02*
X13604240Y-7645400D01*
X13563600Y-7858760D02*
X13563600Y-7940040D01*
X13522960Y-7899400D02*
X13604240Y-7899400D01*
X13563600Y-8112760D02*
X13563600Y-8194040D01*
X13522960Y-8153400D02*
X13604240Y-8153400D01*
X13563600Y-8366760D02*
X13563600Y-8448040D01*
X13522960Y-8407400D02*
X13604240Y-8407400D01*
X12761321Y-5319121D02*
X12761321Y-5247279D01*
X12689479Y-5247279D01*
X12689479Y-5319121D01*
X12761321Y-5319121D01*
X12761321Y-5573121D02*
X12761321Y-5501279D01*
X12689479Y-5501279D01*
X12689479Y-5573121D01*
X12761321Y-5573121D01*
X12761321Y-5827121D02*
X12761321Y-5755279D01*
X12689479Y-5755279D01*
X12689479Y-5827121D01*
X12761321Y-5827121D01*
X12761321Y-6081121D02*
X12761321Y-6009279D01*
X12689479Y-6009279D01*
X12689479Y-6081121D01*
X12761321Y-6081121D01*
X13561421Y-5408021D02*
X13561421Y-5336179D01*
X13489579Y-5336179D01*
X13489579Y-5408021D01*
X13561421Y-5408021D01*
X13561421Y-5662021D02*
X13561421Y-5590179D01*
X13489579Y-5590179D01*
X13489579Y-5662021D01*
X13561421Y-5662021D01*
X13561421Y-5916021D02*
X13561421Y-5844179D01*
X13489579Y-5844179D01*
X13489579Y-5916021D01*
X13561421Y-5916021D01*
X13561421Y-6170021D02*
X13561421Y-6098179D01*
X13489579Y-6098179D01*
X13489579Y-6170021D01*
X13561421Y-6170021D01*
X13561421Y-6424021D02*
X13561421Y-6352179D01*
X13489579Y-6352179D01*
X13489579Y-6424021D01*
X13561421Y-6424021D01*
X13561421Y-6678021D02*
X13561421Y-6606179D01*
X13489579Y-6606179D01*
X13489579Y-6678021D01*
X13561421Y-6678021D01*
X14412321Y-5408021D02*
X14412321Y-5336179D01*
X14340479Y-5336179D01*
X14340479Y-5408021D01*
X14412321Y-5408021D01*
X14412321Y-5662021D02*
X14412321Y-5590179D01*
X14340479Y-5590179D01*
X14340479Y-5662021D01*
X14412321Y-5662021D01*
X14412321Y-5916021D02*
X14412321Y-5844179D01*
X14340479Y-5844179D01*
X14340479Y-5916021D01*
X14412321Y-5916021D01*
X14412321Y-6170021D02*
X14412321Y-6098179D01*
X14340479Y-6098179D01*
X14340479Y-6170021D01*
X14412321Y-6170021D01*
X14412321Y-6424021D02*
X14412321Y-6352179D01*
X14340479Y-6352179D01*
X14340479Y-6424021D01*
X14412321Y-6424021D01*
X14412321Y-6678021D02*
X14412321Y-6606179D01*
X14340479Y-6606179D01*
X14340479Y-6678021D01*
X14412321Y-6678021D01*
X14412321Y-6932021D02*
X14412321Y-6860179D01*
X14340479Y-6860179D01*
X14340479Y-6932021D01*
X14412321Y-6932021D01*
X14437721Y-8824321D02*
X14437721Y-8752479D01*
X14365879Y-8752479D01*
X14365879Y-8824321D01*
X14437721Y-8824321D01*
X14437721Y-9078321D02*
X14437721Y-9006479D01*
X14365879Y-9006479D01*
X14365879Y-9078321D01*
X14437721Y-9078321D01*
X14437721Y-9332321D02*
X14437721Y-9260479D01*
X14365879Y-9260479D01*
X14365879Y-9332321D01*
X14437721Y-9332321D01*
X14437721Y-9586321D02*
X14437721Y-9514479D01*
X14365879Y-9514479D01*
X14365879Y-9586321D01*
X14437721Y-9586321D01*
X14666321Y-5408021D02*
X14666321Y-5336179D01*
X14594479Y-5336179D01*
X14594479Y-5408021D01*
X14666321Y-5408021D01*
X14666321Y-5662021D02*
X14666321Y-5590179D01*
X14594479Y-5590179D01*
X14594479Y-5662021D01*
X14666321Y-5662021D01*
X14666321Y-5916021D02*
X14666321Y-5844179D01*
X14594479Y-5844179D01*
X14594479Y-5916021D01*
X14666321Y-5916021D01*
X14666321Y-6170021D02*
X14666321Y-6098179D01*
X14594479Y-6098179D01*
X14594479Y-6170021D01*
X14666321Y-6170021D01*
X14666321Y-6424021D02*
X14666321Y-6352179D01*
X14594479Y-6352179D01*
X14594479Y-6424021D01*
X14666321Y-6424021D01*
X14666321Y-6678021D02*
X14666321Y-6606179D01*
X14594479Y-6606179D01*
X14594479Y-6678021D01*
X14666321Y-6678021D01*
X14666321Y-6932021D02*
X14666321Y-6860179D01*
X14594479Y-6860179D01*
X14594479Y-6932021D01*
X14666321Y-6932021D01*
X14691721Y-8824321D02*
X14691721Y-8752479D01*
X14619879Y-8752479D01*
X14619879Y-8824321D01*
X14691721Y-8824321D01*
X14691721Y-9078321D02*
X14691721Y-9006479D01*
X14619879Y-9006479D01*
X14619879Y-9078321D01*
X14691721Y-9078321D01*
X14691721Y-9332321D02*
X14691721Y-9260479D01*
X14619879Y-9260479D01*
X14619879Y-9332321D01*
X14691721Y-9332321D01*
X14691721Y-9586321D02*
X14691721Y-9514479D01*
X14619879Y-9514479D01*
X14619879Y-9586321D01*
X14691721Y-9586321D01*
D13*
X10553429Y-10376714D02*
X10553429Y-10076714D01*
X10624857Y-10076714D01*
X10667714Y-10091000D01*
X10696286Y-10119572D01*
X10710571Y-10148143D01*
X10724857Y-10205286D01*
X10724857Y-10248143D01*
X10710571Y-10305286D01*
X10696286Y-10333857D01*
X10667714Y-10362429D01*
X10624857Y-10376714D01*
X10553429Y-10376714D01*
X10853429Y-10376714D02*
X10853429Y-10176714D01*
X10853429Y-10233857D02*
X10867714Y-10205286D01*
X10882000Y-10191000D01*
X10910571Y-10176714D01*
X10939143Y-10176714D01*
X11039143Y-10376714D02*
X11039143Y-10176714D01*
X11039143Y-10076714D02*
X11024857Y-10091000D01*
X11039143Y-10105286D01*
X11053429Y-10091000D01*
X11039143Y-10076714D01*
X11039143Y-10105286D01*
X11224857Y-10376714D02*
X11196286Y-10362429D01*
X11182000Y-10333857D01*
X11182000Y-10076714D01*
X11382000Y-10376714D02*
X11353428Y-10362429D01*
X11339143Y-10333857D01*
X11339143Y-10076714D01*
X11724857Y-10376714D02*
X11724857Y-10076714D01*
X11824857Y-10291000D01*
X11924857Y-10076714D01*
X11924857Y-10376714D01*
X12196286Y-10376714D02*
X12196286Y-10219572D01*
X12182000Y-10191000D01*
X12153428Y-10176714D01*
X12096286Y-10176714D01*
X12067714Y-10191000D01*
X12196286Y-10362429D02*
X12167714Y-10376714D01*
X12096286Y-10376714D01*
X12067714Y-10362429D01*
X12053428Y-10333857D01*
X12053428Y-10305286D01*
X12067714Y-10276714D01*
X12096286Y-10262429D01*
X12167714Y-10262429D01*
X12196286Y-10248143D01*
X12339143Y-10176714D02*
X12339143Y-10476714D01*
X12339143Y-10191000D02*
X12367714Y-10176714D01*
X12424857Y-10176714D01*
X12453428Y-10191000D01*
X12467714Y-10205286D01*
X12482000Y-10233857D01*
X12482000Y-10319572D01*
X12467714Y-10348143D01*
X12453428Y-10362429D01*
X12424857Y-10376714D01*
X12367714Y-10376714D01*
X12339143Y-10362429D01*
X12610571Y-10348143D02*
X12624857Y-10362429D01*
X12610571Y-10376714D01*
X12596286Y-10362429D01*
X12610571Y-10348143D01*
X12610571Y-10376714D01*
X12610571Y-10191000D02*
X12624857Y-10205286D01*
X12610571Y-10219572D01*
X12596286Y-10205286D01*
X12610571Y-10191000D01*
X12610571Y-10219572D01*
X10242000Y-10851000D02*
X10282000Y-10891000D01*
X10282000Y-10851000D02*
X10242000Y-10891000D01*
X10610571Y-10706714D02*
X10639143Y-10706714D01*
X10667714Y-10721000D01*
X10682000Y-10735286D01*
X10696286Y-10763857D01*
X10710571Y-10821000D01*
X10710571Y-10892429D01*
X10696286Y-10949572D01*
X10682000Y-10978143D01*
X10667714Y-10992429D01*
X10639143Y-11006714D01*
X10610571Y-11006714D01*
X10582000Y-10992429D01*
X10567714Y-10978143D01*
X10553429Y-10949572D01*
X10539143Y-10892429D01*
X10539143Y-10821000D01*
X10553429Y-10763857D01*
X10567714Y-10735286D01*
X10582000Y-10721000D01*
X10610571Y-10706714D01*
X10839143Y-10978143D02*
X10853429Y-10992429D01*
X10839143Y-11006714D01*
X10824857Y-10992429D01*
X10839143Y-10978143D01*
X10839143Y-11006714D01*
X11110571Y-10806714D02*
X11110571Y-11006714D01*
X11039143Y-10692429D02*
X10967714Y-10906714D01*
X11153428Y-10906714D01*
X11324857Y-10706714D02*
X11353428Y-10706714D01*
X11382000Y-10721000D01*
X11396286Y-10735286D01*
X11410571Y-10763857D01*
X11424857Y-10821000D01*
X11424857Y-10892429D01*
X11410571Y-10949572D01*
X11396286Y-10978143D01*
X11382000Y-10992429D01*
X11353428Y-11006714D01*
X11324857Y-11006714D01*
X11296286Y-10992429D01*
X11282000Y-10978143D01*
X11267714Y-10949572D01*
X11253428Y-10892429D01*
X11253428Y-10821000D01*
X11267714Y-10763857D01*
X11282000Y-10735286D01*
X11296286Y-10721000D01*
X11324857Y-10706714D01*
X11553428Y-11006714D02*
X11553428Y-10806714D01*
X11553428Y-10835286D02*
X11567714Y-10821000D01*
X11596286Y-10806714D01*
X11639143Y-10806714D01*
X11667714Y-10821000D01*
X11682000Y-10849572D01*
X11682000Y-11006714D01*
X11682000Y-10849572D02*
X11696286Y-10821000D01*
X11724857Y-10806714D01*
X11767714Y-10806714D01*
X11796286Y-10821000D01*
X11810571Y-10849572D01*
X11810571Y-11006714D01*
X11953428Y-11006714D02*
X11953428Y-10806714D01*
X11953428Y-10835286D02*
X11967714Y-10821000D01*
X11996286Y-10806714D01*
X12039143Y-10806714D01*
X12067714Y-10821000D01*
X12082000Y-10849572D01*
X12082000Y-11006714D01*
X12082000Y-10849572D02*
X12096286Y-10821000D01*
X12124857Y-10806714D01*
X12167714Y-10806714D01*
X12196286Y-10821000D01*
X12210571Y-10849572D01*
X12210571Y-11006714D01*
X12796286Y-10692429D02*
X12539143Y-11078143D01*
X13182000Y-10706714D02*
X13210571Y-10706714D01*
X13239143Y-10721000D01*
X13253428Y-10735286D01*
X13267714Y-10763857D01*
X13282000Y-10821000D01*
X13282000Y-10892429D01*
X13267714Y-10949572D01*
X13253428Y-10978143D01*
X13239143Y-10992429D01*
X13210571Y-11006714D01*
X13182000Y-11006714D01*
X13153428Y-10992429D01*
X13139143Y-10978143D01*
X13124857Y-10949572D01*
X13110571Y-10892429D01*
X13110571Y-10821000D01*
X13124857Y-10763857D01*
X13139143Y-10735286D01*
X13153428Y-10721000D01*
X13182000Y-10706714D01*
X13410571Y-10978143D02*
X13424857Y-10992429D01*
X13410571Y-11006714D01*
X13396286Y-10992429D01*
X13410571Y-10978143D01*
X13410571Y-11006714D01*
X13610571Y-10706714D02*
X13639143Y-10706714D01*
X13667714Y-10721000D01*
X13682000Y-10735286D01*
X13696285Y-10763857D01*
X13710571Y-10821000D01*
X13710571Y-10892429D01*
X13696285Y-10949572D01*
X13682000Y-10978143D01*
X13667714Y-10992429D01*
X13639143Y-11006714D01*
X13610571Y-11006714D01*
X13582000Y-10992429D01*
X13567714Y-10978143D01*
X13553428Y-10949572D01*
X13539143Y-10892429D01*
X13539143Y-10821000D01*
X13553428Y-10763857D01*
X13567714Y-10735286D01*
X13582000Y-10721000D01*
X13610571Y-10706714D01*
X13996285Y-11006714D02*
X13824857Y-11006714D01*
X13910571Y-11006714D02*
X13910571Y-10706714D01*
X13882000Y-10749572D01*
X13853428Y-10778143D01*
X13824857Y-10792429D01*
X14253428Y-10706714D02*
X14196285Y-10706714D01*
X14167714Y-10721000D01*
X14153428Y-10735286D01*
X14124857Y-10778143D01*
X14110571Y-10835286D01*
X14110571Y-10949572D01*
X14124857Y-10978143D01*
X14139143Y-10992429D01*
X14167714Y-11006714D01*
X14224857Y-11006714D01*
X14253428Y-10992429D01*
X14267714Y-10978143D01*
X14282000Y-10949572D01*
X14282000Y-10878143D01*
X14267714Y-10849572D01*
X14253428Y-10835286D01*
X14224857Y-10821000D01*
X14167714Y-10821000D01*
X14139143Y-10835286D01*
X14124857Y-10849572D01*
X14110571Y-10878143D01*
X14396286Y-10706714D02*
X14396286Y-10763857D01*
X14510571Y-10706714D02*
X14510571Y-10763857D01*
X14953428Y-11121000D02*
X14939143Y-11106714D01*
X14910571Y-11063857D01*
X14896285Y-11035286D01*
X14882000Y-10992429D01*
X14867714Y-10921000D01*
X14867714Y-10863857D01*
X14882000Y-10792429D01*
X14896285Y-10749572D01*
X14910571Y-10721000D01*
X14939143Y-10678143D01*
X14953428Y-10663857D01*
X15224857Y-11006714D02*
X15053428Y-11006714D01*
X15139143Y-11006714D02*
X15139143Y-10706714D01*
X15110571Y-10749572D01*
X15082000Y-10778143D01*
X15053428Y-10792429D01*
X15510571Y-11006714D02*
X15339143Y-11006714D01*
X15424857Y-11006714D02*
X15424857Y-10706714D01*
X15396285Y-10749572D01*
X15367714Y-10778143D01*
X15339143Y-10792429D01*
X15867714Y-11006714D02*
X15867714Y-10706714D01*
X15996285Y-11006714D02*
X15996285Y-10849572D01*
X15982000Y-10821000D01*
X15953428Y-10806714D01*
X15910571Y-10806714D01*
X15882000Y-10821000D01*
X15867714Y-10835286D01*
X16182000Y-11006714D02*
X16153428Y-10992429D01*
X16139143Y-10978143D01*
X16124857Y-10949572D01*
X16124857Y-10863857D01*
X16139143Y-10835286D01*
X16153428Y-10821000D01*
X16182000Y-10806714D01*
X16224857Y-10806714D01*
X16253428Y-10821000D01*
X16267714Y-10835286D01*
X16282000Y-10863857D01*
X16282000Y-10949572D01*
X16267714Y-10978143D01*
X16253428Y-10992429D01*
X16224857Y-11006714D01*
X16182000Y-11006714D01*
X16453428Y-11006714D02*
X16424857Y-10992429D01*
X16410571Y-10963857D01*
X16410571Y-10706714D01*
X16682000Y-10992429D02*
X16653428Y-11006714D01*
X16596286Y-11006714D01*
X16567714Y-10992429D01*
X16553428Y-10963857D01*
X16553428Y-10849572D01*
X16567714Y-10821000D01*
X16596286Y-10806714D01*
X16653428Y-10806714D01*
X16682000Y-10821000D01*
X16696286Y-10849572D01*
X16696286Y-10878143D01*
X16553428Y-10906714D01*
X16810571Y-10992429D02*
X16839143Y-11006714D01*
X16896286Y-11006714D01*
X16924857Y-10992429D01*
X16939143Y-10963857D01*
X16939143Y-10949572D01*
X16924857Y-10921000D01*
X16896286Y-10906714D01*
X16853429Y-10906714D01*
X16824857Y-10892429D01*
X16810571Y-10863857D01*
X16810571Y-10849572D01*
X16824857Y-10821000D01*
X16853429Y-10806714D01*
X16896286Y-10806714D01*
X16924857Y-10821000D01*
X17039143Y-11121000D02*
X17053429Y-11106714D01*
X17082000Y-11063857D01*
X17096286Y-11035286D01*
X17110571Y-10992429D01*
X17124857Y-10921000D01*
X17124857Y-10863857D01*
X17110571Y-10792429D01*
X17096286Y-10749572D01*
X17082000Y-10721000D01*
X17053429Y-10678143D01*
X17039143Y-10663857D01*
X10282000Y-11267000D02*
G75*
G03X10282000Y-11267000I-29972J0D01*
G01*
X10610571Y-11102714D02*
X10639143Y-11102714D01*
X10667714Y-11117000D01*
X10682000Y-11131286D01*
X10696286Y-11159857D01*
X10710571Y-11217000D01*
X10710571Y-11288429D01*
X10696286Y-11345571D01*
X10682000Y-11374143D01*
X10667714Y-11388429D01*
X10639143Y-11402714D01*
X10610571Y-11402714D01*
X10582000Y-11388429D01*
X10567714Y-11374143D01*
X10553429Y-11345571D01*
X10539143Y-11288429D01*
X10539143Y-11217000D01*
X10553429Y-11159857D01*
X10567714Y-11131286D01*
X10582000Y-11117000D01*
X10610571Y-11102714D01*
X10839143Y-11374143D02*
X10853429Y-11388429D01*
X10839143Y-11402714D01*
X10824857Y-11388429D01*
X10839143Y-11374143D01*
X10839143Y-11402714D01*
X11110571Y-11102714D02*
X11053428Y-11102714D01*
X11024857Y-11117000D01*
X11010571Y-11131286D01*
X10982000Y-11174143D01*
X10967714Y-11231286D01*
X10967714Y-11345571D01*
X10982000Y-11374143D01*
X10996286Y-11388429D01*
X11024857Y-11402714D01*
X11082000Y-11402714D01*
X11110571Y-11388429D01*
X11124857Y-11374143D01*
X11139143Y-11345571D01*
X11139143Y-11274143D01*
X11124857Y-11245571D01*
X11110571Y-11231286D01*
X11082000Y-11217000D01*
X11024857Y-11217000D01*
X10996286Y-11231286D01*
X10982000Y-11245571D01*
X10967714Y-11274143D01*
X11324857Y-11102714D02*
X11353428Y-11102714D01*
X11382000Y-11117000D01*
X11396286Y-11131286D01*
X11410571Y-11159857D01*
X11424857Y-11217000D01*
X11424857Y-11288429D01*
X11410571Y-11345571D01*
X11396286Y-11374143D01*
X11382000Y-11388429D01*
X11353428Y-11402714D01*
X11324857Y-11402714D01*
X11296286Y-11388429D01*
X11282000Y-11374143D01*
X11267714Y-11345571D01*
X11253428Y-11288429D01*
X11253428Y-11217000D01*
X11267714Y-11159857D01*
X11282000Y-11131286D01*
X11296286Y-11117000D01*
X11324857Y-11102714D01*
X11553428Y-11402714D02*
X11553428Y-11202714D01*
X11553428Y-11231286D02*
X11567714Y-11217000D01*
X11596286Y-11202714D01*
X11639143Y-11202714D01*
X11667714Y-11217000D01*
X11682000Y-11245571D01*
X11682000Y-11402714D01*
X11682000Y-11245571D02*
X11696286Y-11217000D01*
X11724857Y-11202714D01*
X11767714Y-11202714D01*
X11796286Y-11217000D01*
X11810571Y-11245571D01*
X11810571Y-11402714D01*
X11953428Y-11402714D02*
X11953428Y-11202714D01*
X11953428Y-11231286D02*
X11967714Y-11217000D01*
X11996286Y-11202714D01*
X12039143Y-11202714D01*
X12067714Y-11217000D01*
X12082000Y-11245571D01*
X12082000Y-11402714D01*
X12082000Y-11245571D02*
X12096286Y-11217000D01*
X12124857Y-11202714D01*
X12167714Y-11202714D01*
X12196286Y-11217000D01*
X12210571Y-11245571D01*
X12210571Y-11402714D01*
X12796286Y-11088429D02*
X12539143Y-11474143D01*
X13182000Y-11102714D02*
X13210571Y-11102714D01*
X13239143Y-11117000D01*
X13253428Y-11131286D01*
X13267714Y-11159857D01*
X13282000Y-11217000D01*
X13282000Y-11288429D01*
X13267714Y-11345571D01*
X13253428Y-11374143D01*
X13239143Y-11388429D01*
X13210571Y-11402714D01*
X13182000Y-11402714D01*
X13153428Y-11388429D01*
X13139143Y-11374143D01*
X13124857Y-11345571D01*
X13110571Y-11288429D01*
X13110571Y-11217000D01*
X13124857Y-11159857D01*
X13139143Y-11131286D01*
X13153428Y-11117000D01*
X13182000Y-11102714D01*
X13410571Y-11374143D02*
X13424857Y-11388429D01*
X13410571Y-11402714D01*
X13396286Y-11388429D01*
X13410571Y-11374143D01*
X13410571Y-11402714D01*
X13610571Y-11102714D02*
X13639143Y-11102714D01*
X13667714Y-11117000D01*
X13682000Y-11131286D01*
X13696285Y-11159857D01*
X13710571Y-11217000D01*
X13710571Y-11288429D01*
X13696285Y-11345571D01*
X13682000Y-11374143D01*
X13667714Y-11388429D01*
X13639143Y-11402714D01*
X13610571Y-11402714D01*
X13582000Y-11388429D01*
X13567714Y-11374143D01*
X13553428Y-11345571D01*
X13539143Y-11288429D01*
X13539143Y-11217000D01*
X13553428Y-11159857D01*
X13567714Y-11131286D01*
X13582000Y-11117000D01*
X13610571Y-11102714D01*
X13824857Y-11131286D02*
X13839143Y-11117000D01*
X13867714Y-11102714D01*
X13939143Y-11102714D01*
X13967714Y-11117000D01*
X13982000Y-11131286D01*
X13996285Y-11159857D01*
X13996285Y-11188429D01*
X13982000Y-11231286D01*
X13810571Y-11402714D01*
X13996285Y-11402714D01*
X14253428Y-11202714D02*
X14253428Y-11402714D01*
X14182000Y-11088429D02*
X14110571Y-11302714D01*
X14296285Y-11302714D01*
X14396286Y-11102714D02*
X14396286Y-11159857D01*
X14510571Y-11102714D02*
X14510571Y-11159857D01*
X14953428Y-11517000D02*
X14939143Y-11502714D01*
X14910571Y-11459857D01*
X14896285Y-11431286D01*
X14882000Y-11388429D01*
X14867714Y-11317000D01*
X14867714Y-11259857D01*
X14882000Y-11188429D01*
X14896285Y-11145572D01*
X14910571Y-11117000D01*
X14939143Y-11074143D01*
X14953428Y-11059857D01*
X15053428Y-11131286D02*
X15067714Y-11117000D01*
X15096285Y-11102714D01*
X15167714Y-11102714D01*
X15196285Y-11117000D01*
X15210571Y-11131286D01*
X15224857Y-11159857D01*
X15224857Y-11188429D01*
X15210571Y-11231286D01*
X15039143Y-11402714D01*
X15224857Y-11402714D01*
X15582000Y-11402714D02*
X15582000Y-11102714D01*
X15710571Y-11402714D02*
X15710571Y-11245571D01*
X15696285Y-11217000D01*
X15667714Y-11202714D01*
X15624857Y-11202714D01*
X15596285Y-11217000D01*
X15582000Y-11231286D01*
X15896285Y-11402714D02*
X15867714Y-11388429D01*
X15853428Y-11374143D01*
X15839143Y-11345571D01*
X15839143Y-11259857D01*
X15853428Y-11231286D01*
X15867714Y-11217000D01*
X15896285Y-11202714D01*
X15939143Y-11202714D01*
X15967714Y-11217000D01*
X15982000Y-11231286D01*
X15996285Y-11259857D01*
X15996285Y-11345571D01*
X15982000Y-11374143D01*
X15967714Y-11388429D01*
X15939143Y-11402714D01*
X15896285Y-11402714D01*
X16167714Y-11402714D02*
X16139143Y-11388429D01*
X16124857Y-11359857D01*
X16124857Y-11102714D01*
X16396286Y-11388429D02*
X16367714Y-11402714D01*
X16310571Y-11402714D01*
X16282000Y-11388429D01*
X16267714Y-11359857D01*
X16267714Y-11245571D01*
X16282000Y-11217000D01*
X16310571Y-11202714D01*
X16367714Y-11202714D01*
X16396286Y-11217000D01*
X16410571Y-11245571D01*
X16410571Y-11274143D01*
X16267714Y-11302714D01*
X16524857Y-11388429D02*
X16553428Y-11402714D01*
X16610571Y-11402714D01*
X16639143Y-11388429D01*
X16653428Y-11359857D01*
X16653428Y-11345571D01*
X16639143Y-11317000D01*
X16610571Y-11302714D01*
X16567714Y-11302714D01*
X16539143Y-11288429D01*
X16524857Y-11259857D01*
X16524857Y-11245571D01*
X16539143Y-11217000D01*
X16567714Y-11202714D01*
X16610571Y-11202714D01*
X16639143Y-11217000D01*
X16753428Y-11517000D02*
X16767714Y-11502714D01*
X16796286Y-11459857D01*
X16810571Y-11431286D01*
X16824857Y-11388429D01*
X16839143Y-11317000D01*
X16839143Y-11259857D01*
X16824857Y-11188429D01*
X16810571Y-11145572D01*
X16796286Y-11117000D01*
X16767714Y-11074143D01*
X16753428Y-11059857D01*
X10241360Y-11622360D02*
X10241360Y-11703640D01*
X10200720Y-11663000D02*
X10282000Y-11663000D01*
X10610571Y-11498714D02*
X10639143Y-11498714D01*
X10667714Y-11513000D01*
X10682000Y-11527286D01*
X10696286Y-11555857D01*
X10710571Y-11613000D01*
X10710571Y-11684429D01*
X10696286Y-11741571D01*
X10682000Y-11770143D01*
X10667714Y-11784429D01*
X10639143Y-11798714D01*
X10610571Y-11798714D01*
X10582000Y-11784429D01*
X10567714Y-11770143D01*
X10553429Y-11741571D01*
X10539143Y-11684429D01*
X10539143Y-11613000D01*
X10553429Y-11555857D01*
X10567714Y-11527286D01*
X10582000Y-11513000D01*
X10610571Y-11498714D01*
X10839143Y-11770143D02*
X10853429Y-11784429D01*
X10839143Y-11798714D01*
X10824857Y-11784429D01*
X10839143Y-11770143D01*
X10839143Y-11798714D01*
X11024857Y-11627286D02*
X10996286Y-11613000D01*
X10982000Y-11598714D01*
X10967714Y-11570143D01*
X10967714Y-11555857D01*
X10982000Y-11527286D01*
X10996286Y-11513000D01*
X11024857Y-11498714D01*
X11082000Y-11498714D01*
X11110571Y-11513000D01*
X11124857Y-11527286D01*
X11139143Y-11555857D01*
X11139143Y-11570143D01*
X11124857Y-11598714D01*
X11110571Y-11613000D01*
X11082000Y-11627286D01*
X11024857Y-11627286D01*
X10996286Y-11641571D01*
X10982000Y-11655857D01*
X10967714Y-11684429D01*
X10967714Y-11741571D01*
X10982000Y-11770143D01*
X10996286Y-11784429D01*
X11024857Y-11798714D01*
X11082000Y-11798714D01*
X11110571Y-11784429D01*
X11124857Y-11770143D01*
X11139143Y-11741571D01*
X11139143Y-11684429D01*
X11124857Y-11655857D01*
X11110571Y-11641571D01*
X11082000Y-11627286D01*
X11424857Y-11798714D02*
X11253428Y-11798714D01*
X11339143Y-11798714D02*
X11339143Y-11498714D01*
X11310571Y-11541571D01*
X11282000Y-11570143D01*
X11253428Y-11584429D01*
X11553428Y-11798714D02*
X11553428Y-11598714D01*
X11553428Y-11627286D02*
X11567714Y-11613000D01*
X11596286Y-11598714D01*
X11639143Y-11598714D01*
X11667714Y-11613000D01*
X11682000Y-11641571D01*
X11682000Y-11798714D01*
X11682000Y-11641571D02*
X11696286Y-11613000D01*
X11724857Y-11598714D01*
X11767714Y-11598714D01*
X11796286Y-11613000D01*
X11810571Y-11641571D01*
X11810571Y-11798714D01*
X11953428Y-11798714D02*
X11953428Y-11598714D01*
X11953428Y-11627286D02*
X11967714Y-11613000D01*
X11996286Y-11598714D01*
X12039143Y-11598714D01*
X12067714Y-11613000D01*
X12082000Y-11641571D01*
X12082000Y-11798714D01*
X12082000Y-11641571D02*
X12096286Y-11613000D01*
X12124857Y-11598714D01*
X12167714Y-11598714D01*
X12196286Y-11613000D01*
X12210571Y-11641571D01*
X12210571Y-11798714D01*
X12796286Y-11484429D02*
X12539143Y-11870143D01*
X13182000Y-11498714D02*
X13210571Y-11498714D01*
X13239143Y-11513000D01*
X13253428Y-11527286D01*
X13267714Y-11555857D01*
X13282000Y-11613000D01*
X13282000Y-11684429D01*
X13267714Y-11741571D01*
X13253428Y-11770143D01*
X13239143Y-11784429D01*
X13210571Y-11798714D01*
X13182000Y-11798714D01*
X13153428Y-11784429D01*
X13139143Y-11770143D01*
X13124857Y-11741571D01*
X13110571Y-11684429D01*
X13110571Y-11613000D01*
X13124857Y-11555857D01*
X13139143Y-11527286D01*
X13153428Y-11513000D01*
X13182000Y-11498714D01*
X13410571Y-11770143D02*
X13424857Y-11784429D01*
X13410571Y-11798714D01*
X13396286Y-11784429D01*
X13410571Y-11770143D01*
X13410571Y-11798714D01*
X13610571Y-11498714D02*
X13639143Y-11498714D01*
X13667714Y-11513000D01*
X13682000Y-11527286D01*
X13696285Y-11555857D01*
X13710571Y-11613000D01*
X13710571Y-11684429D01*
X13696285Y-11741571D01*
X13682000Y-11770143D01*
X13667714Y-11784429D01*
X13639143Y-11798714D01*
X13610571Y-11798714D01*
X13582000Y-11784429D01*
X13567714Y-11770143D01*
X13553428Y-11741571D01*
X13539143Y-11684429D01*
X13539143Y-11613000D01*
X13553428Y-11555857D01*
X13567714Y-11527286D01*
X13582000Y-11513000D01*
X13610571Y-11498714D01*
X13810571Y-11498714D02*
X13996285Y-11498714D01*
X13896285Y-11613000D01*
X13939143Y-11613000D01*
X13967714Y-11627286D01*
X13982000Y-11641571D01*
X13996285Y-11670143D01*
X13996285Y-11741571D01*
X13982000Y-11770143D01*
X13967714Y-11784429D01*
X13939143Y-11798714D01*
X13853428Y-11798714D01*
X13824857Y-11784429D01*
X13810571Y-11770143D01*
X14110571Y-11527286D02*
X14124857Y-11513000D01*
X14153428Y-11498714D01*
X14224857Y-11498714D01*
X14253428Y-11513000D01*
X14267714Y-11527286D01*
X14282000Y-11555857D01*
X14282000Y-11584429D01*
X14267714Y-11627286D01*
X14096285Y-11798714D01*
X14282000Y-11798714D01*
X14396286Y-11498714D02*
X14396286Y-11555857D01*
X14510571Y-11498714D02*
X14510571Y-11555857D01*
X14953428Y-11913000D02*
X14939143Y-11898714D01*
X14910571Y-11855857D01*
X14896285Y-11827286D01*
X14882000Y-11784429D01*
X14867714Y-11713000D01*
X14867714Y-11655857D01*
X14882000Y-11584429D01*
X14896285Y-11541571D01*
X14910571Y-11513000D01*
X14939143Y-11470143D01*
X14953428Y-11455857D01*
X15053428Y-11527286D02*
X15067714Y-11513000D01*
X15096285Y-11498714D01*
X15167714Y-11498714D01*
X15196285Y-11513000D01*
X15210571Y-11527286D01*
X15224857Y-11555857D01*
X15224857Y-11584429D01*
X15210571Y-11627286D01*
X15039143Y-11798714D01*
X15224857Y-11798714D01*
X15396285Y-11627286D02*
X15367714Y-11613000D01*
X15353428Y-11598714D01*
X15339143Y-11570143D01*
X15339143Y-11555857D01*
X15353428Y-11527286D01*
X15367714Y-11513000D01*
X15396285Y-11498714D01*
X15453428Y-11498714D01*
X15482000Y-11513000D01*
X15496285Y-11527286D01*
X15510571Y-11555857D01*
X15510571Y-11570143D01*
X15496285Y-11598714D01*
X15482000Y-11613000D01*
X15453428Y-11627286D01*
X15396285Y-11627286D01*
X15367714Y-11641571D01*
X15353428Y-11655857D01*
X15339143Y-11684429D01*
X15339143Y-11741571D01*
X15353428Y-11770143D01*
X15367714Y-11784429D01*
X15396285Y-11798714D01*
X15453428Y-11798714D01*
X15482000Y-11784429D01*
X15496285Y-11770143D01*
X15510571Y-11741571D01*
X15510571Y-11684429D01*
X15496285Y-11655857D01*
X15482000Y-11641571D01*
X15453428Y-11627286D01*
X15867714Y-11798714D02*
X15867714Y-11498714D01*
X15996285Y-11798714D02*
X15996285Y-11641571D01*
X15982000Y-11613000D01*
X15953428Y-11598714D01*
X15910571Y-11598714D01*
X15882000Y-11613000D01*
X15867714Y-11627286D01*
X16182000Y-11798714D02*
X16153428Y-11784429D01*
X16139143Y-11770143D01*
X16124857Y-11741571D01*
X16124857Y-11655857D01*
X16139143Y-11627286D01*
X16153428Y-11613000D01*
X16182000Y-11598714D01*
X16224857Y-11598714D01*
X16253428Y-11613000D01*
X16267714Y-11627286D01*
X16282000Y-11655857D01*
X16282000Y-11741571D01*
X16267714Y-11770143D01*
X16253428Y-11784429D01*
X16224857Y-11798714D01*
X16182000Y-11798714D01*
X16453428Y-11798714D02*
X16424857Y-11784429D01*
X16410571Y-11755857D01*
X16410571Y-11498714D01*
X16682000Y-11784429D02*
X16653428Y-11798714D01*
X16596286Y-11798714D01*
X16567714Y-11784429D01*
X16553428Y-11755857D01*
X16553428Y-11641571D01*
X16567714Y-11613000D01*
X16596286Y-11598714D01*
X16653428Y-11598714D01*
X16682000Y-11613000D01*
X16696286Y-11641571D01*
X16696286Y-11670143D01*
X16553428Y-11698714D01*
X16810571Y-11784429D02*
X16839143Y-11798714D01*
X16896286Y-11798714D01*
X16924857Y-11784429D01*
X16939143Y-11755857D01*
X16939143Y-11741571D01*
X16924857Y-11713000D01*
X16896286Y-11698714D01*
X16853429Y-11698714D01*
X16824857Y-11684429D01*
X16810571Y-11655857D01*
X16810571Y-11641571D01*
X16824857Y-11613000D01*
X16853429Y-11598714D01*
X16896286Y-11598714D01*
X16924857Y-11613000D01*
X17039143Y-11913000D02*
X17053429Y-11898714D01*
X17082000Y-11855857D01*
X17096286Y-11827286D01*
X17110571Y-11784429D01*
X17124857Y-11713000D01*
X17124857Y-11655857D01*
X17110571Y-11584429D01*
X17096286Y-11541571D01*
X17082000Y-11513000D01*
X17053429Y-11470143D01*
X17039143Y-11455857D01*
X10267121Y-12094921D02*
X10267121Y-12023079D01*
X10195279Y-12023079D01*
X10195279Y-12094921D01*
X10267121Y-12094921D01*
X10710571Y-12194714D02*
X10539143Y-12194714D01*
X10624857Y-12194714D02*
X10624857Y-11894714D01*
X10596286Y-11937571D01*
X10567714Y-11966143D01*
X10539143Y-11980429D01*
X10839143Y-12166143D02*
X10853429Y-12180429D01*
X10839143Y-12194714D01*
X10824857Y-12180429D01*
X10839143Y-12166143D01*
X10839143Y-12194714D01*
X11039143Y-11894714D02*
X11067714Y-11894714D01*
X11096286Y-11909000D01*
X11110571Y-11923286D01*
X11124857Y-11951857D01*
X11139143Y-12009000D01*
X11139143Y-12080429D01*
X11124857Y-12137571D01*
X11110571Y-12166143D01*
X11096286Y-12180429D01*
X11067714Y-12194714D01*
X11039143Y-12194714D01*
X11010571Y-12180429D01*
X10996286Y-12166143D01*
X10982000Y-12137571D01*
X10967714Y-12080429D01*
X10967714Y-12009000D01*
X10982000Y-11951857D01*
X10996286Y-11923286D01*
X11010571Y-11909000D01*
X11039143Y-11894714D01*
X11253428Y-11923286D02*
X11267714Y-11909000D01*
X11296286Y-11894714D01*
X11367714Y-11894714D01*
X11396286Y-11909000D01*
X11410571Y-11923286D01*
X11424857Y-11951857D01*
X11424857Y-11980429D01*
X11410571Y-12023286D01*
X11239143Y-12194714D01*
X11424857Y-12194714D01*
X11553428Y-12194714D02*
X11553428Y-11994714D01*
X11553428Y-12023286D02*
X11567714Y-12009000D01*
X11596286Y-11994714D01*
X11639143Y-11994714D01*
X11667714Y-12009000D01*
X11682000Y-12037571D01*
X11682000Y-12194714D01*
X11682000Y-12037571D02*
X11696286Y-12009000D01*
X11724857Y-11994714D01*
X11767714Y-11994714D01*
X11796286Y-12009000D01*
X11810571Y-12037571D01*
X11810571Y-12194714D01*
X11953428Y-12194714D02*
X11953428Y-11994714D01*
X11953428Y-12023286D02*
X11967714Y-12009000D01*
X11996286Y-11994714D01*
X12039143Y-11994714D01*
X12067714Y-12009000D01*
X12082000Y-12037571D01*
X12082000Y-12194714D01*
X12082000Y-12037571D02*
X12096286Y-12009000D01*
X12124857Y-11994714D01*
X12167714Y-11994714D01*
X12196286Y-12009000D01*
X12210571Y-12037571D01*
X12210571Y-12194714D01*
X12796286Y-11880429D02*
X12539143Y-12266143D01*
X13182000Y-11894714D02*
X13210571Y-11894714D01*
X13239143Y-11909000D01*
X13253428Y-11923286D01*
X13267714Y-11951857D01*
X13282000Y-12009000D01*
X13282000Y-12080429D01*
X13267714Y-12137571D01*
X13253428Y-12166143D01*
X13239143Y-12180429D01*
X13210571Y-12194714D01*
X13182000Y-12194714D01*
X13153428Y-12180429D01*
X13139143Y-12166143D01*
X13124857Y-12137571D01*
X13110571Y-12080429D01*
X13110571Y-12009000D01*
X13124857Y-11951857D01*
X13139143Y-11923286D01*
X13153428Y-11909000D01*
X13182000Y-11894714D01*
X13410571Y-12166143D02*
X13424857Y-12180429D01*
X13410571Y-12194714D01*
X13396286Y-12180429D01*
X13410571Y-12166143D01*
X13410571Y-12194714D01*
X13610571Y-11894714D02*
X13639143Y-11894714D01*
X13667714Y-11909000D01*
X13682000Y-11923286D01*
X13696285Y-11951857D01*
X13710571Y-12009000D01*
X13710571Y-12080429D01*
X13696285Y-12137571D01*
X13682000Y-12166143D01*
X13667714Y-12180429D01*
X13639143Y-12194714D01*
X13610571Y-12194714D01*
X13582000Y-12180429D01*
X13567714Y-12166143D01*
X13553428Y-12137571D01*
X13539143Y-12080429D01*
X13539143Y-12009000D01*
X13553428Y-11951857D01*
X13567714Y-11923286D01*
X13582000Y-11909000D01*
X13610571Y-11894714D01*
X13967714Y-11994714D02*
X13967714Y-12194714D01*
X13896285Y-11880429D02*
X13824857Y-12094714D01*
X14010571Y-12094714D01*
X14182000Y-11894714D02*
X14210571Y-11894714D01*
X14239143Y-11909000D01*
X14253428Y-11923286D01*
X14267714Y-11951857D01*
X14282000Y-12009000D01*
X14282000Y-12080429D01*
X14267714Y-12137571D01*
X14253428Y-12166143D01*
X14239143Y-12180429D01*
X14210571Y-12194714D01*
X14182000Y-12194714D01*
X14153428Y-12180429D01*
X14139143Y-12166143D01*
X14124857Y-12137571D01*
X14110571Y-12080429D01*
X14110571Y-12009000D01*
X14124857Y-11951857D01*
X14139143Y-11923286D01*
X14153428Y-11909000D01*
X14182000Y-11894714D01*
X14396286Y-11894714D02*
X14396286Y-11951857D01*
X14510571Y-11894714D02*
X14510571Y-11951857D01*
X14953428Y-12309000D02*
X14939143Y-12294714D01*
X14910571Y-12251857D01*
X14896285Y-12223286D01*
X14882000Y-12180429D01*
X14867714Y-12109000D01*
X14867714Y-12051857D01*
X14882000Y-11980429D01*
X14896285Y-11937571D01*
X14910571Y-11909000D01*
X14939143Y-11866143D01*
X14953428Y-11851857D01*
X15039143Y-11894714D02*
X15224857Y-11894714D01*
X15124857Y-12009000D01*
X15167714Y-12009000D01*
X15196285Y-12023286D01*
X15210571Y-12037571D01*
X15224857Y-12066143D01*
X15224857Y-12137571D01*
X15210571Y-12166143D01*
X15196285Y-12180429D01*
X15167714Y-12194714D01*
X15082000Y-12194714D01*
X15053428Y-12180429D01*
X15039143Y-12166143D01*
X15339143Y-11923286D02*
X15353428Y-11909000D01*
X15382000Y-11894714D01*
X15453428Y-11894714D01*
X15482000Y-11909000D01*
X15496285Y-11923286D01*
X15510571Y-11951857D01*
X15510571Y-11980429D01*
X15496285Y-12023286D01*
X15324857Y-12194714D01*
X15510571Y-12194714D01*
X15867714Y-12194714D02*
X15867714Y-11894714D01*
X15996285Y-12194714D02*
X15996285Y-12037571D01*
X15982000Y-12009000D01*
X15953428Y-11994714D01*
X15910571Y-11994714D01*
X15882000Y-12009000D01*
X15867714Y-12023286D01*
X16182000Y-12194714D02*
X16153428Y-12180429D01*
X16139143Y-12166143D01*
X16124857Y-12137571D01*
X16124857Y-12051857D01*
X16139143Y-12023286D01*
X16153428Y-12009000D01*
X16182000Y-11994714D01*
X16224857Y-11994714D01*
X16253428Y-12009000D01*
X16267714Y-12023286D01*
X16282000Y-12051857D01*
X16282000Y-12137571D01*
X16267714Y-12166143D01*
X16253428Y-12180429D01*
X16224857Y-12194714D01*
X16182000Y-12194714D01*
X16453428Y-12194714D02*
X16424857Y-12180429D01*
X16410571Y-12151857D01*
X16410571Y-11894714D01*
X16682000Y-12180429D02*
X16653428Y-12194714D01*
X16596286Y-12194714D01*
X16567714Y-12180429D01*
X16553428Y-12151857D01*
X16553428Y-12037571D01*
X16567714Y-12009000D01*
X16596286Y-11994714D01*
X16653428Y-11994714D01*
X16682000Y-12009000D01*
X16696286Y-12037571D01*
X16696286Y-12066143D01*
X16553428Y-12094714D01*
X16810571Y-12180429D02*
X16839143Y-12194714D01*
X16896286Y-12194714D01*
X16924857Y-12180429D01*
X16939143Y-12151857D01*
X16939143Y-12137571D01*
X16924857Y-12109000D01*
X16896286Y-12094714D01*
X16853429Y-12094714D01*
X16824857Y-12080429D01*
X16810571Y-12051857D01*
X16810571Y-12037571D01*
X16824857Y-12009000D01*
X16853429Y-11994714D01*
X16896286Y-11994714D01*
X16924857Y-12009000D01*
X17039143Y-12309000D02*
X17053429Y-12294714D01*
X17082000Y-12251857D01*
X17096286Y-12223286D01*
X17110571Y-12180429D01*
X17124857Y-12109000D01*
X17124857Y-12051857D01*
X17110571Y-11980429D01*
X17096286Y-11937571D01*
X17082000Y-11909000D01*
X17053429Y-11866143D01*
X17039143Y-11851857D01*
M02*
