G04 #@! TF.FileFunction,Copper,L1,Top,Signal*
%FSLAX46Y46*%
G04 Gerber Fmt 4.6, Leading zero omitted, Abs format (unit mm)*
G04 Created by KiCad (PCBNEW (after 2015-mar-04 BZR unknown)-product) date 10/04/2015 18:40:57*
%MOMM*%
G01*
G04 APERTURE LIST*
%ADD10C,0.100000*%
%ADD11R,1.597660X1.800860*%
%ADD12R,1.727200X1.727200*%
%ADD13O,1.727200X1.727200*%
%ADD14R,2.032000X1.727200*%
%ADD15O,2.032000X1.727200*%
%ADD16R,1.700000X2.000000*%
%ADD17R,1.397000X1.397000*%
%ADD18C,1.397000*%
%ADD19C,1.000760*%
%ADD20C,0.600000*%
%ADD21C,0.200000*%
%ADD22C,0.254000*%
G04 APERTURE END LIST*
D10*
D11*
X113388140Y-53340000D03*
X116227860Y-53340000D03*
D12*
X143764000Y-53721000D03*
D13*
X146304000Y-53721000D03*
X143764000Y-56261000D03*
X146304000Y-56261000D03*
X143764000Y-58801000D03*
X146304000Y-58801000D03*
X143764000Y-61341000D03*
X146304000Y-61341000D03*
X143764000Y-63881000D03*
X146304000Y-63881000D03*
X143764000Y-66421000D03*
X146304000Y-66421000D03*
X143764000Y-68961000D03*
X146304000Y-68961000D03*
D14*
X127254000Y-52832000D03*
D15*
X127254000Y-55372000D03*
X127254000Y-57912000D03*
X127254000Y-60452000D03*
D14*
X135255000Y-53721000D03*
D15*
X135255000Y-56261000D03*
X135255000Y-58801000D03*
X135255000Y-61341000D03*
X135255000Y-63881000D03*
X135255000Y-66421000D03*
D16*
X126746000Y-73374000D03*
X126746000Y-69374000D03*
X108204000Y-58134000D03*
X108204000Y-54134000D03*
D17*
X113284000Y-61214000D03*
D18*
X113284000Y-63754000D03*
X113284000Y-66294000D03*
X113284000Y-68834000D03*
X113284000Y-71374000D03*
X113284000Y-73914000D03*
X113284000Y-76454000D03*
X113284000Y-78994000D03*
X113284000Y-81534000D03*
X113284000Y-84074000D03*
X120904000Y-84074000D03*
X120904000Y-81534000D03*
X120904000Y-78994000D03*
X120904000Y-76454000D03*
X120904000Y-73914000D03*
X120904000Y-71374000D03*
X120904000Y-68834000D03*
X120904000Y-66294000D03*
X120904000Y-63754000D03*
X120904000Y-61214000D03*
D12*
X146558000Y-95504000D03*
D13*
X144018000Y-95504000D03*
X146558000Y-92964000D03*
X144018000Y-92964000D03*
X146558000Y-90424000D03*
X144018000Y-90424000D03*
X146558000Y-87884000D03*
X144018000Y-87884000D03*
D17*
X128016000Y-76454000D03*
D18*
X128016000Y-78994000D03*
X128016000Y-81534000D03*
X128016000Y-84074000D03*
X135636000Y-84074000D03*
X135636000Y-81534000D03*
X135636000Y-78994000D03*
X135636000Y-76454000D03*
D19*
X122936000Y-64274700D03*
X122936000Y-65773300D03*
D20*
X129794000Y-62484000D03*
X139954000Y-79248000D03*
X139573000Y-83693000D03*
X139573000Y-86868000D03*
X133985000Y-89281000D03*
X133985000Y-91567000D03*
X122301000Y-92837000D03*
X138049000Y-69596000D03*
X116586000Y-70993000D03*
X131826000Y-70612000D03*
X138430000Y-54864000D03*
D21*
X128016000Y-71342000D02*
X127984000Y-71374000D01*
X108998000Y-53340000D02*
X108204000Y-54134000D01*
X113388140Y-53340000D02*
X108998000Y-53340000D01*
X119634000Y-59944000D02*
X120904000Y-61214000D01*
X118618000Y-59944000D02*
X119634000Y-59944000D01*
X116227860Y-57553860D02*
X118618000Y-59944000D01*
X116227860Y-53340000D02*
X116227860Y-57553860D01*
X142494000Y-63881000D02*
X143764000Y-63881000D01*
X139954000Y-66421000D02*
X142494000Y-63881000D01*
X139954000Y-71628000D02*
X139954000Y-66421000D01*
X135636000Y-75946000D02*
X139954000Y-71628000D01*
X135636000Y-76454000D02*
X135636000Y-75946000D01*
X135636000Y-78994000D02*
X135636000Y-76454000D01*
X135636000Y-78994000D02*
X135636000Y-81534000D01*
X146558000Y-95504000D02*
X148336000Y-95504000D01*
X148336000Y-95504000D02*
X149098000Y-94742000D01*
X149098000Y-94742000D02*
X149098000Y-84328000D01*
X149098000Y-84328000D02*
X148844000Y-84074000D01*
X142875000Y-84074000D02*
X148844000Y-84074000D01*
X132461000Y-56261000D02*
X130556000Y-58166000D01*
X130556000Y-58166000D02*
X130556000Y-60198000D01*
X130556000Y-60198000D02*
X130302000Y-60452000D01*
X130302000Y-60452000D02*
X127254000Y-60452000D01*
X135255000Y-56261000D02*
X132461000Y-56261000D01*
X125730000Y-60452000D02*
X124968000Y-61214000D01*
X124968000Y-61214000D02*
X120904000Y-61214000D01*
X127254000Y-60452000D02*
X125730000Y-60452000D01*
X140335000Y-81534000D02*
X142875000Y-84074000D01*
X135636000Y-81534000D02*
X140335000Y-81534000D01*
X135636000Y-81534000D02*
X135636000Y-84074000D01*
X135255000Y-53721000D02*
X143764000Y-53721000D01*
X115316000Y-95504000D02*
X144018000Y-95504000D01*
X105647924Y-85835924D02*
X115316000Y-95504000D01*
X105664000Y-85819848D02*
X105647924Y-85835924D01*
X105664000Y-52456002D02*
X105664000Y-85819848D01*
X107066002Y-51054000D02*
X105664000Y-52456002D01*
X134874000Y-51054000D02*
X107066002Y-51054000D01*
X135255000Y-51435000D02*
X134874000Y-51054000D01*
X135255000Y-53721000D02*
X135255000Y-51435000D01*
X127254000Y-57912000D02*
X127000000Y-57912000D01*
X126746000Y-65532000D02*
X129794000Y-62484000D01*
X126746000Y-69374000D02*
X126746000Y-65532000D01*
X147828000Y-63881000D02*
X148844000Y-64897000D01*
X148844000Y-64897000D02*
X148844000Y-71501000D01*
X148844000Y-71501000D02*
X141097000Y-79248000D01*
X141097000Y-79248000D02*
X139954000Y-79248000D01*
X139573000Y-83693000D02*
X139573000Y-86868000D01*
X133985000Y-89281000D02*
X133985000Y-91567000D01*
X122301000Y-92837000D02*
X122174000Y-92964000D01*
X122174000Y-92964000D02*
X115062000Y-92964000D01*
X115062000Y-92964000D02*
X109474000Y-87376000D01*
X109474000Y-87376000D02*
X109474000Y-72644000D01*
X109474000Y-72644000D02*
X113284000Y-68834000D01*
X146304000Y-63881000D02*
X147828000Y-63881000D01*
X138049000Y-69596000D02*
X136017000Y-71628000D01*
X136017000Y-71628000D02*
X136017000Y-72136000D01*
X136017000Y-72136000D02*
X133731000Y-74422000D01*
X133731000Y-74422000D02*
X128778000Y-74422000D01*
X128778000Y-74422000D02*
X128143000Y-75057000D01*
X128143000Y-75057000D02*
X124841000Y-75057000D01*
X124841000Y-75057000D02*
X123825000Y-74041000D01*
X123825000Y-74041000D02*
X123317000Y-74041000D01*
X123317000Y-74041000D02*
X122682000Y-73406000D01*
X122682000Y-73406000D02*
X122682000Y-73279000D01*
X122682000Y-73279000D02*
X122047000Y-72644000D01*
X122047000Y-72644000D02*
X118999000Y-72644000D01*
X118999000Y-72644000D02*
X117348000Y-70993000D01*
X117348000Y-70993000D02*
X116586000Y-70993000D01*
X126270000Y-72898000D02*
X126746000Y-73374000D01*
X122936000Y-71374000D02*
X124460000Y-72898000D01*
X124460000Y-72898000D02*
X126270000Y-72898000D01*
X120904000Y-71374000D02*
X122936000Y-71374000D01*
X129064000Y-73374000D02*
X131826000Y-70612000D01*
X126746000Y-73374000D02*
X129064000Y-73374000D01*
X108204000Y-61468000D02*
X110490000Y-63754000D01*
X110490000Y-63754000D02*
X113284000Y-63754000D01*
X108204000Y-58134000D02*
X108204000Y-61468000D01*
X125222000Y-76454000D02*
X124460000Y-75692000D01*
X124460000Y-75692000D02*
X123190000Y-75692000D01*
X123190000Y-75692000D02*
X122682000Y-75184000D01*
X122682000Y-75184000D02*
X118364000Y-75184000D01*
X118364000Y-75184000D02*
X117094000Y-73914000D01*
X114935000Y-71374000D02*
X113284000Y-71374000D01*
X128016000Y-76454000D02*
X125222000Y-76454000D01*
X114935000Y-71755000D02*
X117094000Y-73914000D01*
X114935000Y-71374000D02*
X114935000Y-71755000D01*
X111252000Y-81534000D02*
X111252000Y-86868000D01*
X111252000Y-86868000D02*
X114300000Y-89916000D01*
X114300000Y-89916000D02*
X129540000Y-89916000D01*
X129540000Y-89916000D02*
X132588000Y-92964000D01*
X132588000Y-92964000D02*
X144018000Y-92964000D01*
X113284000Y-81534000D02*
X111252000Y-81534000D01*
X113284000Y-86360000D02*
X114808000Y-87884000D01*
X114808000Y-87884000D02*
X144018000Y-87884000D01*
X113284000Y-84074000D02*
X113284000Y-86360000D01*
X120904000Y-84074000D02*
X128016000Y-84074000D01*
X128016000Y-81534000D02*
X120904000Y-81534000D01*
X120904000Y-78994000D02*
X128016000Y-78994000D01*
X121424700Y-65773300D02*
X120904000Y-66294000D01*
X122936000Y-65773300D02*
X121424700Y-65773300D01*
X121424700Y-64274700D02*
X120904000Y-63754000D01*
X122936000Y-64274700D02*
X121424700Y-64274700D01*
X138430000Y-54864000D02*
X138430000Y-57785000D01*
X138430000Y-57785000D02*
X137414000Y-58801000D01*
X137414000Y-58801000D02*
X135255000Y-58801000D01*
X136779000Y-63881000D02*
X137414000Y-63246000D01*
X141986000Y-57150000D02*
X142875000Y-56261000D01*
X142875000Y-56261000D02*
X143764000Y-56261000D01*
X135255000Y-63881000D02*
X136779000Y-63881000D01*
X137795000Y-63246000D02*
X140081000Y-60960000D01*
X140081000Y-60960000D02*
X140081000Y-59817000D01*
X140081000Y-59817000D02*
X141732000Y-58166000D01*
X141732000Y-58166000D02*
X141732000Y-57404000D01*
X141732000Y-57404000D02*
X141986000Y-57150000D01*
X137414000Y-63246000D02*
X137414000Y-63246000D01*
X137414000Y-63246000D02*
X137795000Y-63246000D01*
X137287000Y-66421000D02*
X140970000Y-62738000D01*
X140970000Y-62738000D02*
X140970000Y-60452000D01*
X140970000Y-60452000D02*
X142621000Y-58801000D01*
X142621000Y-58801000D02*
X143256000Y-58801000D01*
X135255000Y-66421000D02*
X137287000Y-66421000D01*
D22*
G36*
X149383000Y-98583000D02*
X147948600Y-98583000D01*
X147948600Y-96419505D01*
X147948600Y-96315695D01*
X147948600Y-95708750D01*
X147816850Y-95577000D01*
X146631000Y-95577000D01*
X146631000Y-96762850D01*
X146762750Y-96894600D01*
X147473505Y-96894600D01*
X147575320Y-96874348D01*
X147671228Y-96834621D01*
X147757543Y-96776948D01*
X147830948Y-96703543D01*
X147888621Y-96617228D01*
X147928348Y-96521320D01*
X147948600Y-96419505D01*
X147948600Y-98583000D01*
X103347000Y-98583000D01*
X103347000Y-50007000D01*
X149383000Y-50007000D01*
X149383000Y-64693954D01*
X149379736Y-64682720D01*
X149378340Y-64680026D01*
X149377463Y-64677122D01*
X149352435Y-64630050D01*
X149327913Y-64582743D01*
X149326020Y-64580372D01*
X149324596Y-64577693D01*
X149290913Y-64536394D01*
X149257657Y-64494735D01*
X149253488Y-64490507D01*
X149253422Y-64490426D01*
X149253346Y-64490363D01*
X149252001Y-64488999D01*
X148236001Y-63472999D01*
X148194784Y-63439143D01*
X148153986Y-63404910D01*
X148151330Y-63403449D01*
X148148983Y-63401522D01*
X148101955Y-63376306D01*
X148055304Y-63350659D01*
X148052415Y-63349742D01*
X148049738Y-63348307D01*
X147998692Y-63332700D01*
X147947965Y-63316609D01*
X147944954Y-63316271D01*
X147942049Y-63315383D01*
X147889018Y-63309996D01*
X147836056Y-63304056D01*
X147830119Y-63304014D01*
X147830014Y-63304004D01*
X147829915Y-63304013D01*
X147828000Y-63304000D01*
X147514364Y-63304000D01*
X147432253Y-63146937D01*
X147268309Y-62943031D01*
X147067882Y-62774853D01*
X146838606Y-62648807D01*
X146719777Y-62611112D01*
X146821350Y-62580446D01*
X147052364Y-62457614D01*
X147255120Y-62292251D01*
X147421895Y-62090654D01*
X147546337Y-61860503D01*
X147623706Y-61610565D01*
X147651054Y-61350359D01*
X147627341Y-61089797D01*
X147553470Y-60838802D01*
X147432253Y-60606937D01*
X147268309Y-60403031D01*
X147067882Y-60234853D01*
X146838606Y-60108807D01*
X146719777Y-60071112D01*
X146821350Y-60040446D01*
X147052364Y-59917614D01*
X147255120Y-59752251D01*
X147421895Y-59550654D01*
X147546337Y-59320503D01*
X147623706Y-59070565D01*
X147651054Y-58810359D01*
X147627341Y-58549797D01*
X147553470Y-58298802D01*
X147432253Y-58066937D01*
X147268309Y-57863031D01*
X147067882Y-57694853D01*
X146838606Y-57568807D01*
X146719777Y-57531112D01*
X146821350Y-57500446D01*
X147052364Y-57377614D01*
X147255120Y-57212251D01*
X147421895Y-57010654D01*
X147546337Y-56780503D01*
X147623706Y-56530565D01*
X147651054Y-56270359D01*
X147627341Y-56009797D01*
X147553470Y-55758802D01*
X147432253Y-55526937D01*
X147268309Y-55323031D01*
X147067882Y-55154853D01*
X146838606Y-55028807D01*
X146719777Y-54991112D01*
X146821350Y-54960446D01*
X147052364Y-54837614D01*
X147255120Y-54672251D01*
X147421895Y-54470654D01*
X147546337Y-54240503D01*
X147623706Y-53990565D01*
X147651054Y-53730359D01*
X147627341Y-53469797D01*
X147553470Y-53218802D01*
X147432253Y-52986937D01*
X147268309Y-52783031D01*
X147067882Y-52614853D01*
X146838606Y-52488807D01*
X146589213Y-52409695D01*
X146329205Y-52380531D01*
X146310487Y-52380400D01*
X146297513Y-52380400D01*
X146037122Y-52405932D01*
X145786650Y-52481554D01*
X145555636Y-52604386D01*
X145352880Y-52769749D01*
X145186105Y-52971346D01*
X145106908Y-53117818D01*
X145106908Y-52857400D01*
X145100617Y-52779996D01*
X145060451Y-52651545D01*
X144986158Y-52539325D01*
X144883596Y-52452182D01*
X144760851Y-52396987D01*
X144627600Y-52378092D01*
X142900400Y-52378092D01*
X142822996Y-52384383D01*
X142694545Y-52424549D01*
X142582325Y-52498842D01*
X142495182Y-52601404D01*
X142439987Y-52724149D01*
X142421092Y-52857400D01*
X142421092Y-53144000D01*
X136750308Y-53144000D01*
X136750308Y-52857400D01*
X136744017Y-52779996D01*
X136703851Y-52651545D01*
X136629558Y-52539325D01*
X136526996Y-52452182D01*
X136404251Y-52396987D01*
X136271000Y-52378092D01*
X135832000Y-52378092D01*
X135832000Y-51435000D01*
X135826794Y-51381912D01*
X135822153Y-51328860D01*
X135821307Y-51325949D01*
X135821011Y-51322927D01*
X135805598Y-51271876D01*
X135790736Y-51220720D01*
X135789340Y-51218026D01*
X135788463Y-51215122D01*
X135763435Y-51168050D01*
X135738913Y-51120743D01*
X135737020Y-51118372D01*
X135735596Y-51115693D01*
X135701913Y-51074394D01*
X135668657Y-51032735D01*
X135664492Y-51028511D01*
X135664422Y-51028426D01*
X135664342Y-51028360D01*
X135663000Y-51026999D01*
X135282001Y-50645999D01*
X135240784Y-50612143D01*
X135199986Y-50577910D01*
X135197330Y-50576449D01*
X135194983Y-50574522D01*
X135147955Y-50549306D01*
X135101304Y-50523659D01*
X135098415Y-50522742D01*
X135095738Y-50521307D01*
X135044692Y-50505700D01*
X134993965Y-50489609D01*
X134990954Y-50489271D01*
X134988049Y-50488383D01*
X134935018Y-50482996D01*
X134882056Y-50477056D01*
X134876119Y-50477014D01*
X134876014Y-50477004D01*
X134875915Y-50477013D01*
X134874000Y-50477000D01*
X107066002Y-50477000D01*
X107012959Y-50482200D01*
X106959862Y-50486847D01*
X106956951Y-50487692D01*
X106953929Y-50487989D01*
X106902878Y-50503401D01*
X106851722Y-50518264D01*
X106849028Y-50519659D01*
X106846124Y-50520537D01*
X106799052Y-50545564D01*
X106751745Y-50570087D01*
X106749374Y-50571979D01*
X106746695Y-50573404D01*
X106705396Y-50607086D01*
X106663737Y-50640343D01*
X106659513Y-50644507D01*
X106659428Y-50644578D01*
X106659362Y-50644657D01*
X106658001Y-50646000D01*
X105255999Y-52048001D01*
X105222143Y-52089217D01*
X105187910Y-52130016D01*
X105186449Y-52132671D01*
X105184522Y-52135019D01*
X105159306Y-52182046D01*
X105133659Y-52228698D01*
X105132742Y-52231586D01*
X105131307Y-52234264D01*
X105115700Y-52285309D01*
X105099609Y-52336037D01*
X105099271Y-52339047D01*
X105098383Y-52341953D01*
X105092996Y-52394983D01*
X105087056Y-52447946D01*
X105087014Y-52453882D01*
X105087004Y-52453988D01*
X105087013Y-52454086D01*
X105087000Y-52456002D01*
X105087000Y-85705542D01*
X105083118Y-85717930D01*
X105082900Y-85719934D01*
X105082307Y-85721875D01*
X105076819Y-85775898D01*
X105070955Y-85829882D01*
X105071131Y-85831903D01*
X105070928Y-85833910D01*
X105076035Y-85887949D01*
X105080771Y-85942064D01*
X105081334Y-85944002D01*
X105081525Y-85946021D01*
X105097049Y-85998097D01*
X105112188Y-86050204D01*
X105113119Y-86052001D01*
X105113697Y-86053938D01*
X105138989Y-86101908D01*
X105164011Y-86150181D01*
X105165275Y-86151764D01*
X105166217Y-86153551D01*
X105200344Y-86195695D01*
X105234267Y-86238189D01*
X105236998Y-86240958D01*
X105237085Y-86241066D01*
X105237190Y-86241154D01*
X105239923Y-86243925D01*
X114907999Y-95912000D01*
X114949185Y-95945831D01*
X114990014Y-95980090D01*
X114992670Y-95981550D01*
X114995017Y-95983478D01*
X115042009Y-96008674D01*
X115088696Y-96034341D01*
X115091588Y-96035258D01*
X115094262Y-96036692D01*
X115145261Y-96052284D01*
X115196035Y-96068391D01*
X115199045Y-96068728D01*
X115201951Y-96069617D01*
X115254981Y-96075003D01*
X115307944Y-96080944D01*
X115313880Y-96080985D01*
X115313986Y-96080996D01*
X115314084Y-96080986D01*
X115316000Y-96081000D01*
X142807635Y-96081000D01*
X142889747Y-96238063D01*
X143053691Y-96441969D01*
X143254118Y-96610147D01*
X143483394Y-96736193D01*
X143732787Y-96815305D01*
X143992795Y-96844469D01*
X144011513Y-96844600D01*
X144024487Y-96844600D01*
X144284878Y-96819068D01*
X144535350Y-96743446D01*
X144766364Y-96620614D01*
X144969120Y-96455251D01*
X145135895Y-96253654D01*
X145167400Y-96195386D01*
X145167400Y-96315695D01*
X145167400Y-96419505D01*
X145187652Y-96521320D01*
X145227379Y-96617228D01*
X145285052Y-96703543D01*
X145358457Y-96776948D01*
X145444772Y-96834621D01*
X145540680Y-96874348D01*
X145642495Y-96894600D01*
X146353250Y-96894600D01*
X146485000Y-96762850D01*
X146485000Y-95577000D01*
X146465000Y-95577000D01*
X146465000Y-95431000D01*
X146485000Y-95431000D01*
X146485000Y-95411000D01*
X146631000Y-95411000D01*
X146631000Y-95431000D01*
X147816850Y-95431000D01*
X147948600Y-95299250D01*
X147948600Y-94692305D01*
X147948600Y-94588495D01*
X147928348Y-94486680D01*
X147888621Y-94390772D01*
X147830948Y-94304457D01*
X147757543Y-94231052D01*
X147671228Y-94173379D01*
X147575320Y-94133652D01*
X147473505Y-94113400D01*
X147244702Y-94113400D01*
X147306364Y-94080614D01*
X147509120Y-93915251D01*
X147675895Y-93713654D01*
X147800337Y-93483503D01*
X147877706Y-93233565D01*
X147905054Y-92973359D01*
X147881341Y-92712797D01*
X147807470Y-92461802D01*
X147686253Y-92229937D01*
X147522309Y-92026031D01*
X147321882Y-91857853D01*
X147092606Y-91731807D01*
X146973777Y-91694112D01*
X147075350Y-91663446D01*
X147306364Y-91540614D01*
X147509120Y-91375251D01*
X147675895Y-91173654D01*
X147800337Y-90943503D01*
X147877706Y-90693565D01*
X147905054Y-90433359D01*
X147881341Y-90172797D01*
X147807470Y-89921802D01*
X147686253Y-89689937D01*
X147522309Y-89486031D01*
X147321882Y-89317853D01*
X147092606Y-89191807D01*
X146973777Y-89154112D01*
X147075350Y-89123446D01*
X147306364Y-89000614D01*
X147509120Y-88835251D01*
X147675895Y-88633654D01*
X147800337Y-88403503D01*
X147877706Y-88153565D01*
X147905054Y-87893359D01*
X147881341Y-87632797D01*
X147807470Y-87381802D01*
X147686253Y-87149937D01*
X147522309Y-86946031D01*
X147321882Y-86777853D01*
X147092606Y-86651807D01*
X146843213Y-86572695D01*
X146583205Y-86543531D01*
X146564487Y-86543400D01*
X146551513Y-86543400D01*
X146291122Y-86568932D01*
X146040650Y-86644554D01*
X145809636Y-86767386D01*
X145606880Y-86932749D01*
X145440105Y-87134346D01*
X145315663Y-87364497D01*
X145288347Y-87452738D01*
X145267470Y-87381802D01*
X145146253Y-87149937D01*
X144982309Y-86946031D01*
X144781882Y-86777853D01*
X144552606Y-86651807D01*
X144303213Y-86572695D01*
X144043205Y-86543531D01*
X144024487Y-86543400D01*
X144011513Y-86543400D01*
X143751122Y-86568932D01*
X143500650Y-86644554D01*
X143269636Y-86767386D01*
X143066880Y-86932749D01*
X142900105Y-87134346D01*
X142806751Y-87307000D01*
X140214232Y-87307000D01*
X140251867Y-87253650D01*
X140313844Y-87114446D01*
X140347603Y-86965855D01*
X140350034Y-86791811D01*
X140320437Y-86642336D01*
X140262370Y-86501455D01*
X140178046Y-86374537D01*
X140150000Y-86346294D01*
X140150000Y-84216526D01*
X140164031Y-84203165D01*
X140251867Y-84078650D01*
X140313844Y-83939446D01*
X140347603Y-83790855D01*
X140350034Y-83616811D01*
X140320437Y-83467336D01*
X140262370Y-83326455D01*
X140178046Y-83199537D01*
X140070675Y-83091414D01*
X139944348Y-83006206D01*
X139803877Y-82947157D01*
X139654612Y-82916517D01*
X139502238Y-82915453D01*
X139352559Y-82944006D01*
X139211277Y-83001088D01*
X139083773Y-83084524D01*
X138974903Y-83191137D01*
X138888815Y-83316866D01*
X138828787Y-83456922D01*
X138826034Y-83469873D01*
X138826034Y-69519811D01*
X138796437Y-69370336D01*
X138738370Y-69229455D01*
X138654046Y-69102537D01*
X138546675Y-68994414D01*
X138420348Y-68909206D01*
X138279877Y-68850157D01*
X138130612Y-68819517D01*
X137978238Y-68818453D01*
X137828559Y-68847006D01*
X137687277Y-68904088D01*
X137559773Y-68987524D01*
X137450903Y-69094137D01*
X137364815Y-69219866D01*
X137304787Y-69359922D01*
X137273106Y-69508970D01*
X137272441Y-69556556D01*
X135608999Y-71219999D01*
X135575143Y-71261215D01*
X135540910Y-71302014D01*
X135539449Y-71304669D01*
X135537522Y-71307017D01*
X135512306Y-71354044D01*
X135486659Y-71400696D01*
X135485742Y-71403584D01*
X135484307Y-71406262D01*
X135468700Y-71457307D01*
X135452609Y-71508035D01*
X135452271Y-71511045D01*
X135451383Y-71513951D01*
X135445996Y-71566981D01*
X135440056Y-71619944D01*
X135440014Y-71625880D01*
X135440004Y-71625986D01*
X135440013Y-71626084D01*
X135440000Y-71628000D01*
X135440000Y-71896998D01*
X133491998Y-73845000D01*
X129395072Y-73845000D01*
X129424605Y-73820913D01*
X129466265Y-73787657D01*
X129470492Y-73783488D01*
X129470574Y-73783422D01*
X129470636Y-73783346D01*
X129472001Y-73782001D01*
X131864001Y-71390000D01*
X131885899Y-71390459D01*
X132035962Y-71363999D01*
X132178027Y-71308895D01*
X132306684Y-71227247D01*
X132417031Y-71122165D01*
X132504867Y-70997650D01*
X132566844Y-70858446D01*
X132600603Y-70709855D01*
X132603034Y-70535811D01*
X132573437Y-70386336D01*
X132515370Y-70245455D01*
X132431046Y-70118537D01*
X132323675Y-70010414D01*
X132197348Y-69925206D01*
X132056877Y-69866157D01*
X131907612Y-69835517D01*
X131755238Y-69834453D01*
X131605559Y-69863006D01*
X131464277Y-69920088D01*
X131336773Y-70003524D01*
X131227903Y-70110137D01*
X131141815Y-70235866D01*
X131081787Y-70375922D01*
X131050106Y-70524970D01*
X131049441Y-70572556D01*
X130571034Y-71050963D01*
X130571034Y-62407811D01*
X130541437Y-62258336D01*
X130483370Y-62117455D01*
X130399046Y-61990537D01*
X130291675Y-61882414D01*
X130165348Y-61797206D01*
X130024877Y-61738157D01*
X129875612Y-61707517D01*
X129723238Y-61706453D01*
X129573559Y-61735006D01*
X129432277Y-61792088D01*
X129304773Y-61875524D01*
X129195903Y-61982137D01*
X129109815Y-62107866D01*
X129049787Y-62247922D01*
X129018106Y-62396970D01*
X129017441Y-62444556D01*
X128766566Y-62695431D01*
X128766566Y-60741339D01*
X128663132Y-60525000D01*
X127327000Y-60525000D01*
X127327000Y-61842600D01*
X127479400Y-61842600D01*
X127749290Y-61801638D01*
X128006003Y-61708811D01*
X128239673Y-61567685D01*
X128441321Y-61383684D01*
X128603198Y-61163879D01*
X128719083Y-60916717D01*
X128766566Y-60741339D01*
X128766566Y-62695431D01*
X127181000Y-64280997D01*
X127181000Y-61842600D01*
X127181000Y-60525000D01*
X125844868Y-60525000D01*
X125741434Y-60741339D01*
X125788917Y-60916717D01*
X125904802Y-61163879D01*
X126066679Y-61383684D01*
X126268327Y-61567685D01*
X126501997Y-61708811D01*
X126758710Y-61801638D01*
X127028600Y-61842600D01*
X127181000Y-61842600D01*
X127181000Y-64280997D01*
X126337999Y-65123999D01*
X126304143Y-65165215D01*
X126269910Y-65206014D01*
X126268449Y-65208669D01*
X126266522Y-65211017D01*
X126241306Y-65258044D01*
X126215659Y-65304696D01*
X126214742Y-65307584D01*
X126213307Y-65310262D01*
X126197700Y-65361307D01*
X126181609Y-65412035D01*
X126181271Y-65415045D01*
X126180383Y-65417951D01*
X126174996Y-65470981D01*
X126169056Y-65523944D01*
X126169014Y-65529880D01*
X126169004Y-65529986D01*
X126169013Y-65530084D01*
X126169000Y-65532000D01*
X126169000Y-67894692D01*
X125896000Y-67894692D01*
X125818596Y-67900983D01*
X125690145Y-67941149D01*
X125577925Y-68015442D01*
X125490782Y-68118004D01*
X125435587Y-68240749D01*
X125416692Y-68374000D01*
X125416692Y-70374000D01*
X125422983Y-70451404D01*
X125463149Y-70579855D01*
X125537442Y-70692075D01*
X125640004Y-70779218D01*
X125762749Y-70834413D01*
X125896000Y-70853308D01*
X127596000Y-70853308D01*
X127673404Y-70847017D01*
X127798662Y-70807849D01*
X127701743Y-70858087D01*
X127613736Y-70928342D01*
X127608000Y-70933999D01*
X127575999Y-70965999D01*
X127504522Y-71053017D01*
X127451307Y-71152262D01*
X127418383Y-71259951D01*
X127407004Y-71371986D01*
X127417601Y-71484097D01*
X127449773Y-71592014D01*
X127502293Y-71691627D01*
X127573161Y-71779142D01*
X127659678Y-71851226D01*
X127758548Y-71905131D01*
X127866006Y-71938806D01*
X127977958Y-71950969D01*
X128090140Y-71941153D01*
X128198280Y-71909736D01*
X128298257Y-71857913D01*
X128386265Y-71787657D01*
X128392001Y-71782001D01*
X128424001Y-71750000D01*
X128495478Y-71662983D01*
X128548693Y-71563738D01*
X128581617Y-71456048D01*
X128592996Y-71344014D01*
X128582399Y-71231903D01*
X128550227Y-71123985D01*
X128497707Y-71024372D01*
X128426839Y-70936857D01*
X128340322Y-70864774D01*
X128241452Y-70810869D01*
X128133994Y-70777193D01*
X128022042Y-70765031D01*
X127909861Y-70774847D01*
X127803539Y-70805735D01*
X127914075Y-70732558D01*
X128001218Y-70629996D01*
X128056413Y-70507251D01*
X128075308Y-70374000D01*
X128075308Y-68374000D01*
X128069017Y-68296596D01*
X128028851Y-68168145D01*
X127954558Y-68055925D01*
X127851996Y-67968782D01*
X127729251Y-67913587D01*
X127596000Y-67894692D01*
X127323000Y-67894692D01*
X127323000Y-65771002D01*
X129832001Y-63262000D01*
X129853899Y-63262459D01*
X130003962Y-63235999D01*
X130146027Y-63180895D01*
X130274684Y-63099247D01*
X130385031Y-62994165D01*
X130472867Y-62869650D01*
X130534844Y-62730446D01*
X130568603Y-62581855D01*
X130571034Y-62407811D01*
X130571034Y-71050963D01*
X128824998Y-72797000D01*
X128075308Y-72797000D01*
X128075308Y-72374000D01*
X128069017Y-72296596D01*
X128028851Y-72168145D01*
X127954558Y-72055925D01*
X127851996Y-71968782D01*
X127729251Y-71913587D01*
X127596000Y-71894692D01*
X125896000Y-71894692D01*
X125818596Y-71900983D01*
X125690145Y-71941149D01*
X125577925Y-72015442D01*
X125490782Y-72118004D01*
X125435587Y-72240749D01*
X125424207Y-72321000D01*
X124699001Y-72321000D01*
X123913422Y-71535420D01*
X123913422Y-65677463D01*
X123876192Y-65489439D01*
X123803151Y-65312228D01*
X123697080Y-65152578D01*
X123567984Y-65022578D01*
X123679452Y-64916430D01*
X123789939Y-64759805D01*
X123867900Y-64584702D01*
X123910365Y-64397791D01*
X123913422Y-64178863D01*
X123876192Y-63990839D01*
X123803151Y-63813628D01*
X123697080Y-63653978D01*
X123562020Y-63517972D01*
X123403115Y-63410789D01*
X123226418Y-63336513D01*
X123038658Y-63297971D01*
X122846989Y-63296633D01*
X122658710Y-63332549D01*
X122480993Y-63404351D01*
X122320607Y-63509305D01*
X122183661Y-63643413D01*
X122146489Y-63697700D01*
X122135182Y-63697700D01*
X122135182Y-61189316D01*
X122106709Y-60949599D01*
X122032018Y-60720042D01*
X121941404Y-60550515D01*
X121731495Y-60489743D01*
X121628257Y-60592981D01*
X121628257Y-60386505D01*
X121567485Y-60176596D01*
X121352348Y-60067090D01*
X121119982Y-60001659D01*
X120879316Y-59982818D01*
X120639599Y-60011291D01*
X120410042Y-60085982D01*
X120240515Y-60176596D01*
X120179743Y-60386505D01*
X120904000Y-61110762D01*
X121628257Y-60386505D01*
X121628257Y-60592981D01*
X121007238Y-61214000D01*
X121731495Y-61938257D01*
X121941404Y-61877485D01*
X122050910Y-61662348D01*
X122116341Y-61429982D01*
X122135182Y-61189316D01*
X122135182Y-63697700D01*
X122078727Y-63697700D01*
X122079551Y-63638736D01*
X122034774Y-63412599D01*
X121946927Y-63199466D01*
X121819355Y-63007455D01*
X121656918Y-62843879D01*
X121628257Y-62824546D01*
X121628257Y-62041495D01*
X120904000Y-61317238D01*
X120800762Y-61420476D01*
X120800762Y-61214000D01*
X120076505Y-60489743D01*
X119866596Y-60550515D01*
X119757090Y-60765652D01*
X119691659Y-60998018D01*
X119672818Y-61238684D01*
X119701291Y-61478401D01*
X119775982Y-61707958D01*
X119866596Y-61877485D01*
X120076505Y-61938257D01*
X120800762Y-61214000D01*
X120800762Y-61420476D01*
X120179743Y-62041495D01*
X120240515Y-62251404D01*
X120455652Y-62360910D01*
X120688018Y-62426341D01*
X120928684Y-62445182D01*
X121168401Y-62416709D01*
X121397958Y-62342018D01*
X121567485Y-62251404D01*
X121628257Y-62041495D01*
X121628257Y-62824546D01*
X121465802Y-62714970D01*
X121253287Y-62625637D01*
X121027468Y-62579283D01*
X120796946Y-62577673D01*
X120570502Y-62620870D01*
X120356760Y-62707227D01*
X120163863Y-62833455D01*
X119999157Y-62994747D01*
X119868917Y-63184958D01*
X119778103Y-63396844D01*
X119730173Y-63622334D01*
X119726955Y-63852839D01*
X119768569Y-64079580D01*
X119853432Y-64293919D01*
X119978311Y-64487692D01*
X120138449Y-64653520D01*
X120327746Y-64785085D01*
X120538993Y-64877377D01*
X120764143Y-64926879D01*
X120994620Y-64931707D01*
X121221645Y-64891676D01*
X121345049Y-64843810D01*
X121363681Y-64845703D01*
X121416644Y-64851644D01*
X121422580Y-64851685D01*
X121422686Y-64851696D01*
X121422784Y-64851686D01*
X121424700Y-64851700D01*
X122145038Y-64851700D01*
X122166328Y-64884735D01*
X122299476Y-65022614D01*
X122303050Y-65025098D01*
X122183661Y-65142013D01*
X122146489Y-65196300D01*
X121424700Y-65196300D01*
X121371657Y-65201500D01*
X121344298Y-65203894D01*
X121253287Y-65165637D01*
X121027468Y-65119283D01*
X120796946Y-65117673D01*
X120570502Y-65160870D01*
X120356760Y-65247227D01*
X120163863Y-65373455D01*
X119999157Y-65534747D01*
X119868917Y-65724958D01*
X119778103Y-65936844D01*
X119730173Y-66162334D01*
X119726955Y-66392839D01*
X119768569Y-66619580D01*
X119853432Y-66833919D01*
X119978311Y-67027692D01*
X120138449Y-67193520D01*
X120327746Y-67325085D01*
X120538993Y-67417377D01*
X120764143Y-67466879D01*
X120994620Y-67471707D01*
X121221645Y-67431676D01*
X121436571Y-67348312D01*
X121631212Y-67224789D01*
X121798153Y-67065813D01*
X121931037Y-66877438D01*
X122024801Y-66666841D01*
X122075874Y-66442042D01*
X122077155Y-66350300D01*
X122145038Y-66350300D01*
X122166328Y-66383335D01*
X122299476Y-66521214D01*
X122456869Y-66630605D01*
X122632512Y-66707341D01*
X122819714Y-66748500D01*
X123011346Y-66752514D01*
X123200109Y-66719231D01*
X123378811Y-66649917D01*
X123540647Y-66547212D01*
X123679452Y-66415030D01*
X123789939Y-66258405D01*
X123867900Y-66083302D01*
X123910365Y-65896391D01*
X123913422Y-65677463D01*
X123913422Y-71535420D01*
X123344001Y-70965999D01*
X123302784Y-70932143D01*
X123261986Y-70897910D01*
X123259330Y-70896449D01*
X123256983Y-70894522D01*
X123209955Y-70869306D01*
X123163304Y-70843659D01*
X123160415Y-70842742D01*
X123157738Y-70841307D01*
X123106692Y-70825700D01*
X123055965Y-70809609D01*
X123052954Y-70809271D01*
X123050049Y-70808383D01*
X122997018Y-70802996D01*
X122944056Y-70797056D01*
X122938119Y-70797014D01*
X122938014Y-70797004D01*
X122937915Y-70797013D01*
X122936000Y-70797000D01*
X122079551Y-70797000D01*
X122079551Y-68718736D01*
X122034774Y-68492599D01*
X121946927Y-68279466D01*
X121819355Y-68087455D01*
X121656918Y-67923879D01*
X121465802Y-67794970D01*
X121253287Y-67705637D01*
X121027468Y-67659283D01*
X120796946Y-67657673D01*
X120570502Y-67700870D01*
X120356760Y-67787227D01*
X120163863Y-67913455D01*
X119999157Y-68074747D01*
X119868917Y-68264958D01*
X119778103Y-68476844D01*
X119730173Y-68702334D01*
X119726955Y-68932839D01*
X119768569Y-69159580D01*
X119853432Y-69373919D01*
X119978311Y-69567692D01*
X120138449Y-69733520D01*
X120327746Y-69865085D01*
X120538993Y-69957377D01*
X120764143Y-70006879D01*
X120994620Y-70011707D01*
X121221645Y-69971676D01*
X121436571Y-69888312D01*
X121631212Y-69764789D01*
X121798153Y-69605813D01*
X121931037Y-69417438D01*
X122024801Y-69206841D01*
X122075874Y-68982042D01*
X122079551Y-68718736D01*
X122079551Y-70797000D01*
X121932000Y-70797000D01*
X121819355Y-70627455D01*
X121656918Y-70463879D01*
X121465802Y-70334970D01*
X121253287Y-70245637D01*
X121027468Y-70199283D01*
X120796946Y-70197673D01*
X120570502Y-70240870D01*
X120356760Y-70327227D01*
X120163863Y-70453455D01*
X119999157Y-70614747D01*
X119868917Y-70804958D01*
X119778103Y-71016844D01*
X119730173Y-71242334D01*
X119726955Y-71472839D01*
X119768569Y-71699580D01*
X119853432Y-71913919D01*
X119952086Y-72067000D01*
X119238001Y-72067000D01*
X117756001Y-70584999D01*
X117714784Y-70551143D01*
X117673986Y-70516910D01*
X117671330Y-70515449D01*
X117668983Y-70513522D01*
X117621955Y-70488306D01*
X117575304Y-70462659D01*
X117572415Y-70461742D01*
X117569738Y-70460307D01*
X117553690Y-70455400D01*
X117553690Y-54292335D01*
X117553690Y-54188525D01*
X117553690Y-53544750D01*
X117553690Y-53135250D01*
X117553690Y-52491475D01*
X117553690Y-52387665D01*
X117533438Y-52285850D01*
X117493711Y-52189942D01*
X117436038Y-52103627D01*
X117362633Y-52030222D01*
X117276318Y-51972549D01*
X117180410Y-51932822D01*
X117078595Y-51912570D01*
X116432610Y-51912570D01*
X116300860Y-52044320D01*
X116300860Y-53267000D01*
X117421940Y-53267000D01*
X117553690Y-53135250D01*
X117553690Y-53544750D01*
X117421940Y-53413000D01*
X116300860Y-53413000D01*
X116300860Y-54635680D01*
X116432610Y-54767430D01*
X117078595Y-54767430D01*
X117180410Y-54747178D01*
X117276318Y-54707451D01*
X117362633Y-54649778D01*
X117436038Y-54576373D01*
X117493711Y-54490058D01*
X117533438Y-54394150D01*
X117553690Y-54292335D01*
X117553690Y-70455400D01*
X117518692Y-70444700D01*
X117467965Y-70428609D01*
X117464954Y-70428271D01*
X117462049Y-70427383D01*
X117409018Y-70421996D01*
X117356056Y-70416056D01*
X117350119Y-70416014D01*
X117350014Y-70416004D01*
X117349915Y-70416013D01*
X117348000Y-70416000D01*
X117108090Y-70416000D01*
X117083675Y-70391414D01*
X116957348Y-70306206D01*
X116816877Y-70247157D01*
X116667612Y-70216517D01*
X116515238Y-70215453D01*
X116365559Y-70244006D01*
X116224277Y-70301088D01*
X116154860Y-70346513D01*
X116154860Y-54635680D01*
X116154860Y-53413000D01*
X116154860Y-53267000D01*
X116154860Y-52044320D01*
X116023110Y-51912570D01*
X115377125Y-51912570D01*
X115275310Y-51932822D01*
X115179402Y-51972549D01*
X115093087Y-52030222D01*
X115019682Y-52103627D01*
X114962009Y-52189942D01*
X114922282Y-52285850D01*
X114902030Y-52387665D01*
X114902030Y-52491475D01*
X114902030Y-53135250D01*
X115033780Y-53267000D01*
X116154860Y-53267000D01*
X116154860Y-53413000D01*
X115033780Y-53413000D01*
X114902030Y-53544750D01*
X114902030Y-54188525D01*
X114902030Y-54292335D01*
X114922282Y-54394150D01*
X114962009Y-54490058D01*
X115019682Y-54576373D01*
X115093087Y-54649778D01*
X115179402Y-54707451D01*
X115275310Y-54747178D01*
X115377125Y-54767430D01*
X116023110Y-54767430D01*
X116154860Y-54635680D01*
X116154860Y-70346513D01*
X116096773Y-70384524D01*
X115987903Y-70491137D01*
X115901815Y-70616866D01*
X115841787Y-70756922D01*
X115810106Y-70905970D01*
X115807978Y-71058332D01*
X115835485Y-71208207D01*
X115891579Y-71349884D01*
X115974123Y-71477967D01*
X116079974Y-71587579D01*
X116205099Y-71674543D01*
X116344732Y-71735547D01*
X116493555Y-71768268D01*
X116645899Y-71771459D01*
X116795962Y-71744999D01*
X116938027Y-71689895D01*
X117066684Y-71608247D01*
X117106847Y-71570000D01*
X117108998Y-71570000D01*
X118591000Y-73052001D01*
X118632168Y-73085817D01*
X118673014Y-73120090D01*
X118675672Y-73121551D01*
X118678018Y-73123478D01*
X118725023Y-73148682D01*
X118771696Y-73174341D01*
X118774584Y-73175257D01*
X118777262Y-73176693D01*
X118828294Y-73192295D01*
X118879035Y-73208391D01*
X118882047Y-73208728D01*
X118884952Y-73209617D01*
X118938021Y-73215007D01*
X118990944Y-73220944D01*
X118996869Y-73220985D01*
X118996986Y-73220997D01*
X118997094Y-73220986D01*
X118999000Y-73221000D01*
X119953792Y-73221000D01*
X119868917Y-73344958D01*
X119778103Y-73556844D01*
X119730173Y-73782334D01*
X119726955Y-74012839D01*
X119768569Y-74239580D01*
X119853432Y-74453919D01*
X119952086Y-74607000D01*
X118603001Y-74607000D01*
X117502001Y-73505999D01*
X115512000Y-71515998D01*
X115512000Y-71374000D01*
X115506704Y-71319992D01*
X115501780Y-71265881D01*
X115501208Y-71263938D01*
X115501011Y-71261927D01*
X115485322Y-71209963D01*
X115469985Y-71157852D01*
X115469048Y-71156059D01*
X115468463Y-71154122D01*
X115442949Y-71106138D01*
X115417813Y-71058056D01*
X115416546Y-71056481D01*
X115415596Y-71054693D01*
X115381283Y-71012622D01*
X115347251Y-70970294D01*
X115345698Y-70968991D01*
X115344422Y-70967426D01*
X115302588Y-70932817D01*
X115260986Y-70897910D01*
X115259215Y-70896936D01*
X115257654Y-70895645D01*
X115209850Y-70869798D01*
X115162304Y-70843659D01*
X115160375Y-70843047D01*
X115158596Y-70842085D01*
X115106703Y-70826021D01*
X115054965Y-70809609D01*
X115052955Y-70809383D01*
X115051022Y-70808785D01*
X114997014Y-70803108D01*
X114943056Y-70797056D01*
X114939170Y-70797028D01*
X114939028Y-70797014D01*
X114938885Y-70797027D01*
X114935000Y-70797000D01*
X114666278Y-70797000D01*
X114666278Y-54240430D01*
X114666278Y-52439570D01*
X114659987Y-52362166D01*
X114619821Y-52233715D01*
X114545528Y-52121495D01*
X114442966Y-52034352D01*
X114320221Y-51979157D01*
X114186970Y-51960262D01*
X112589310Y-51960262D01*
X112511906Y-51966553D01*
X112383455Y-52006719D01*
X112271235Y-52081012D01*
X112184092Y-52183574D01*
X112128897Y-52306319D01*
X112110002Y-52439570D01*
X112110002Y-52763000D01*
X109350268Y-52763000D01*
X109309996Y-52728782D01*
X109187251Y-52673587D01*
X109054000Y-52654692D01*
X107354000Y-52654692D01*
X107276596Y-52660983D01*
X107148145Y-52701149D01*
X107035925Y-52775442D01*
X106948782Y-52878004D01*
X106893587Y-53000749D01*
X106874692Y-53134000D01*
X106874692Y-55134000D01*
X106880983Y-55211404D01*
X106921149Y-55339855D01*
X106995442Y-55452075D01*
X107098004Y-55539218D01*
X107220749Y-55594413D01*
X107354000Y-55613308D01*
X109054000Y-55613308D01*
X109131404Y-55607017D01*
X109259855Y-55566851D01*
X109372075Y-55492558D01*
X109459218Y-55389996D01*
X109514413Y-55267251D01*
X109533308Y-55134000D01*
X109533308Y-53917000D01*
X112110002Y-53917000D01*
X112110002Y-54240430D01*
X112116293Y-54317834D01*
X112156459Y-54446285D01*
X112230752Y-54558505D01*
X112333314Y-54645648D01*
X112456059Y-54700843D01*
X112589310Y-54719738D01*
X114186970Y-54719738D01*
X114264374Y-54713447D01*
X114392825Y-54673281D01*
X114505045Y-54598988D01*
X114592188Y-54496426D01*
X114647383Y-54373681D01*
X114666278Y-54240430D01*
X114666278Y-70797000D01*
X114461808Y-70797000D01*
X114461808Y-61912500D01*
X114461808Y-60515500D01*
X114455517Y-60438096D01*
X114415351Y-60309645D01*
X114341058Y-60197425D01*
X114238496Y-60110282D01*
X114115751Y-60055087D01*
X113982500Y-60036192D01*
X112585500Y-60036192D01*
X112508096Y-60042483D01*
X112379645Y-60082649D01*
X112267425Y-60156942D01*
X112180282Y-60259504D01*
X112125087Y-60382249D01*
X112106192Y-60515500D01*
X112106192Y-61912500D01*
X112112483Y-61989904D01*
X112152649Y-62118355D01*
X112226942Y-62230575D01*
X112329504Y-62317718D01*
X112452249Y-62372913D01*
X112585500Y-62391808D01*
X113982500Y-62391808D01*
X114059904Y-62385517D01*
X114188355Y-62345351D01*
X114300575Y-62271058D01*
X114387718Y-62168496D01*
X114442913Y-62045751D01*
X114461808Y-61912500D01*
X114461808Y-70797000D01*
X114312000Y-70797000D01*
X114199355Y-70627455D01*
X114036918Y-70463879D01*
X113845802Y-70334970D01*
X113633287Y-70245637D01*
X113407468Y-70199283D01*
X113176946Y-70197673D01*
X112950502Y-70240870D01*
X112736760Y-70327227D01*
X112543863Y-70453455D01*
X112379157Y-70614747D01*
X112248917Y-70804958D01*
X112158103Y-71016844D01*
X112110173Y-71242334D01*
X112106955Y-71472839D01*
X112148569Y-71699580D01*
X112233432Y-71913919D01*
X112358311Y-72107692D01*
X112518449Y-72273520D01*
X112707746Y-72405085D01*
X112918993Y-72497377D01*
X113144143Y-72546879D01*
X113374620Y-72551707D01*
X113601645Y-72511676D01*
X113816571Y-72428312D01*
X114011212Y-72304789D01*
X114178153Y-72145813D01*
X114311037Y-71957438D01*
X114313903Y-71951000D01*
X114393953Y-71951000D01*
X114399264Y-71969280D01*
X114400659Y-71971973D01*
X114401537Y-71974878D01*
X114426564Y-72021949D01*
X114451087Y-72069257D01*
X114452979Y-72071627D01*
X114454404Y-72074307D01*
X114488086Y-72115605D01*
X114521343Y-72157265D01*
X114525511Y-72161492D01*
X114525578Y-72161574D01*
X114525653Y-72161636D01*
X114526999Y-72163001D01*
X116685999Y-74322001D01*
X117955999Y-75592000D01*
X117997185Y-75625831D01*
X118038014Y-75660090D01*
X118040670Y-75661550D01*
X118043017Y-75663478D01*
X118090009Y-75688674D01*
X118136696Y-75714341D01*
X118139588Y-75715258D01*
X118142262Y-75716692D01*
X118193261Y-75732284D01*
X118244035Y-75748391D01*
X118247045Y-75748728D01*
X118249951Y-75749617D01*
X118302981Y-75755003D01*
X118355944Y-75760944D01*
X118361880Y-75760985D01*
X118361986Y-75760996D01*
X118362084Y-75760986D01*
X118364000Y-75761000D01*
X119953792Y-75761000D01*
X119868917Y-75884958D01*
X119778103Y-76096844D01*
X119730173Y-76322334D01*
X119726955Y-76552839D01*
X119768569Y-76779580D01*
X119853432Y-76993919D01*
X119978311Y-77187692D01*
X120138449Y-77353520D01*
X120327746Y-77485085D01*
X120538993Y-77577377D01*
X120764143Y-77626879D01*
X120994620Y-77631707D01*
X121221645Y-77591676D01*
X121436571Y-77508312D01*
X121631212Y-77384789D01*
X121798153Y-77225813D01*
X121931037Y-77037438D01*
X122024801Y-76826841D01*
X122075874Y-76602042D01*
X122079551Y-76338736D01*
X122034774Y-76112599D01*
X121946927Y-75899466D01*
X121854930Y-75761000D01*
X122442998Y-75761000D01*
X122781999Y-76100000D01*
X122823158Y-76133808D01*
X122864014Y-76168090D01*
X122866673Y-76169552D01*
X122869017Y-76171477D01*
X122915970Y-76196653D01*
X122962696Y-76222341D01*
X122965588Y-76223258D01*
X122968262Y-76224692D01*
X123019220Y-76240271D01*
X123070035Y-76256391D01*
X123073050Y-76256729D01*
X123075951Y-76257616D01*
X123128932Y-76262997D01*
X123181944Y-76268944D01*
X123187880Y-76268985D01*
X123187986Y-76268996D01*
X123188084Y-76268986D01*
X123190000Y-76269000D01*
X124220998Y-76269000D01*
X124814000Y-76862001D01*
X124855168Y-76895817D01*
X124896014Y-76930090D01*
X124898672Y-76931551D01*
X124901018Y-76933478D01*
X124948023Y-76958682D01*
X124994696Y-76984341D01*
X124997584Y-76985257D01*
X125000262Y-76986693D01*
X125051294Y-77002295D01*
X125102035Y-77018391D01*
X125105047Y-77018728D01*
X125107952Y-77019617D01*
X125160976Y-77025002D01*
X125213944Y-77030944D01*
X125219880Y-77030985D01*
X125219986Y-77030996D01*
X125220084Y-77030986D01*
X125222000Y-77031000D01*
X126838192Y-77031000D01*
X126838192Y-77152500D01*
X126844483Y-77229904D01*
X126884649Y-77358355D01*
X126958942Y-77470575D01*
X127061504Y-77557718D01*
X127184249Y-77612913D01*
X127317500Y-77631808D01*
X128714500Y-77631808D01*
X128791904Y-77625517D01*
X128920355Y-77585351D01*
X129032575Y-77511058D01*
X129119718Y-77408496D01*
X129174913Y-77285751D01*
X129193808Y-77152500D01*
X129193808Y-75755500D01*
X129187517Y-75678096D01*
X129147351Y-75549645D01*
X129073058Y-75437425D01*
X128970496Y-75350282D01*
X128847751Y-75295087D01*
X128736666Y-75279335D01*
X129017001Y-74999000D01*
X133731000Y-74999000D01*
X133784042Y-74993799D01*
X133837140Y-74989153D01*
X133840050Y-74988307D01*
X133843073Y-74988011D01*
X133894123Y-74972598D01*
X133945280Y-74957736D01*
X133947973Y-74956340D01*
X133950878Y-74955463D01*
X133997949Y-74930435D01*
X134045257Y-74905913D01*
X134047627Y-74904020D01*
X134050307Y-74902596D01*
X134091605Y-74868913D01*
X134133265Y-74835657D01*
X134137492Y-74831488D01*
X134137574Y-74831422D01*
X134137636Y-74831346D01*
X134139001Y-74830001D01*
X136425000Y-72544001D01*
X136458831Y-72502814D01*
X136493090Y-72461986D01*
X136494550Y-72459329D01*
X136496478Y-72456983D01*
X136521674Y-72409990D01*
X136547341Y-72363304D01*
X136548258Y-72360411D01*
X136549692Y-72357738D01*
X136565284Y-72306738D01*
X136581391Y-72255965D01*
X136581728Y-72252954D01*
X136582617Y-72250049D01*
X136588003Y-72197018D01*
X136593944Y-72144056D01*
X136593985Y-72138119D01*
X136593996Y-72138014D01*
X136593986Y-72137915D01*
X136594000Y-72136000D01*
X136594000Y-71867002D01*
X138087001Y-70374000D01*
X138108899Y-70374459D01*
X138258962Y-70347999D01*
X138401027Y-70292895D01*
X138529684Y-70211247D01*
X138640031Y-70106165D01*
X138727867Y-69981650D01*
X138789844Y-69842446D01*
X138823603Y-69693855D01*
X138826034Y-69519811D01*
X138826034Y-83469873D01*
X138797106Y-83605970D01*
X138794978Y-83758332D01*
X138822485Y-83908207D01*
X138878579Y-84049884D01*
X138961123Y-84177967D01*
X138996000Y-84214083D01*
X138996000Y-86345477D01*
X138974903Y-86366137D01*
X138888815Y-86491866D01*
X138828787Y-86631922D01*
X138797106Y-86780970D01*
X138794978Y-86933332D01*
X138822485Y-87083207D01*
X138878579Y-87224884D01*
X138931499Y-87307000D01*
X136867182Y-87307000D01*
X136867182Y-84049316D01*
X136867182Y-81509316D01*
X136867182Y-78969316D01*
X136867182Y-76429316D01*
X136838709Y-76189599D01*
X136764018Y-75960042D01*
X136673404Y-75790515D01*
X136463495Y-75729743D01*
X136360257Y-75832981D01*
X136360257Y-75626505D01*
X136299485Y-75416596D01*
X136084348Y-75307090D01*
X135851982Y-75241659D01*
X135611316Y-75222818D01*
X135371599Y-75251291D01*
X135142042Y-75325982D01*
X134972515Y-75416596D01*
X134911743Y-75626505D01*
X135636000Y-76350762D01*
X136360257Y-75626505D01*
X136360257Y-75832981D01*
X135739238Y-76454000D01*
X136463495Y-77178257D01*
X136673404Y-77117485D01*
X136782910Y-76902348D01*
X136848341Y-76669982D01*
X136867182Y-76429316D01*
X136867182Y-78969316D01*
X136838709Y-78729599D01*
X136764018Y-78500042D01*
X136673404Y-78330515D01*
X136463495Y-78269743D01*
X136360257Y-78372981D01*
X136360257Y-78166505D01*
X136360257Y-77281495D01*
X135636000Y-76557238D01*
X135532762Y-76660476D01*
X135532762Y-76454000D01*
X134808505Y-75729743D01*
X134598596Y-75790515D01*
X134489090Y-76005652D01*
X134423659Y-76238018D01*
X134404818Y-76478684D01*
X134433291Y-76718401D01*
X134507982Y-76947958D01*
X134598596Y-77117485D01*
X134808505Y-77178257D01*
X135532762Y-76454000D01*
X135532762Y-76660476D01*
X134911743Y-77281495D01*
X134972515Y-77491404D01*
X135187652Y-77600910D01*
X135420018Y-77666341D01*
X135660684Y-77685182D01*
X135900401Y-77656709D01*
X136129958Y-77582018D01*
X136299485Y-77491404D01*
X136360257Y-77281495D01*
X136360257Y-78166505D01*
X136299485Y-77956596D01*
X136084348Y-77847090D01*
X135851982Y-77781659D01*
X135611316Y-77762818D01*
X135371599Y-77791291D01*
X135142042Y-77865982D01*
X134972515Y-77956596D01*
X134911743Y-78166505D01*
X135636000Y-78890762D01*
X136360257Y-78166505D01*
X136360257Y-78372981D01*
X135739238Y-78994000D01*
X136463495Y-79718257D01*
X136673404Y-79657485D01*
X136782910Y-79442348D01*
X136848341Y-79209982D01*
X136867182Y-78969316D01*
X136867182Y-81509316D01*
X136838709Y-81269599D01*
X136764018Y-81040042D01*
X136673404Y-80870515D01*
X136463495Y-80809743D01*
X136360257Y-80912981D01*
X136360257Y-80706505D01*
X136360257Y-79821495D01*
X135636000Y-79097238D01*
X135532762Y-79200476D01*
X135532762Y-78994000D01*
X134808505Y-78269743D01*
X134598596Y-78330515D01*
X134489090Y-78545652D01*
X134423659Y-78778018D01*
X134404818Y-79018684D01*
X134433291Y-79258401D01*
X134507982Y-79487958D01*
X134598596Y-79657485D01*
X134808505Y-79718257D01*
X135532762Y-78994000D01*
X135532762Y-79200476D01*
X134911743Y-79821495D01*
X134972515Y-80031404D01*
X135187652Y-80140910D01*
X135420018Y-80206341D01*
X135660684Y-80225182D01*
X135900401Y-80196709D01*
X136129958Y-80122018D01*
X136299485Y-80031404D01*
X136360257Y-79821495D01*
X136360257Y-80706505D01*
X136299485Y-80496596D01*
X136084348Y-80387090D01*
X135851982Y-80321659D01*
X135611316Y-80302818D01*
X135371599Y-80331291D01*
X135142042Y-80405982D01*
X134972515Y-80496596D01*
X134911743Y-80706505D01*
X135636000Y-81430762D01*
X136360257Y-80706505D01*
X136360257Y-80912981D01*
X135739238Y-81534000D01*
X136463495Y-82258257D01*
X136673404Y-82197485D01*
X136782910Y-81982348D01*
X136848341Y-81749982D01*
X136867182Y-81509316D01*
X136867182Y-84049316D01*
X136838709Y-83809599D01*
X136764018Y-83580042D01*
X136673404Y-83410515D01*
X136463495Y-83349743D01*
X136360257Y-83452981D01*
X136360257Y-83246505D01*
X136360257Y-82361495D01*
X135636000Y-81637238D01*
X135532762Y-81740476D01*
X135532762Y-81534000D01*
X134808505Y-80809743D01*
X134598596Y-80870515D01*
X134489090Y-81085652D01*
X134423659Y-81318018D01*
X134404818Y-81558684D01*
X134433291Y-81798401D01*
X134507982Y-82027958D01*
X134598596Y-82197485D01*
X134808505Y-82258257D01*
X135532762Y-81534000D01*
X135532762Y-81740476D01*
X134911743Y-82361495D01*
X134972515Y-82571404D01*
X135187652Y-82680910D01*
X135420018Y-82746341D01*
X135660684Y-82765182D01*
X135900401Y-82736709D01*
X136129958Y-82662018D01*
X136299485Y-82571404D01*
X136360257Y-82361495D01*
X136360257Y-83246505D01*
X136299485Y-83036596D01*
X136084348Y-82927090D01*
X135851982Y-82861659D01*
X135611316Y-82842818D01*
X135371599Y-82871291D01*
X135142042Y-82945982D01*
X134972515Y-83036596D01*
X134911743Y-83246505D01*
X135636000Y-83970762D01*
X136360257Y-83246505D01*
X136360257Y-83452981D01*
X135739238Y-84074000D01*
X136463495Y-84798257D01*
X136673404Y-84737485D01*
X136782910Y-84522348D01*
X136848341Y-84289982D01*
X136867182Y-84049316D01*
X136867182Y-87307000D01*
X136360257Y-87307000D01*
X136360257Y-84901495D01*
X135636000Y-84177238D01*
X135532762Y-84280476D01*
X135532762Y-84074000D01*
X134808505Y-83349743D01*
X134598596Y-83410515D01*
X134489090Y-83625652D01*
X134423659Y-83858018D01*
X134404818Y-84098684D01*
X134433291Y-84338401D01*
X134507982Y-84567958D01*
X134598596Y-84737485D01*
X134808505Y-84798257D01*
X135532762Y-84074000D01*
X135532762Y-84280476D01*
X134911743Y-84901495D01*
X134972515Y-85111404D01*
X135187652Y-85220910D01*
X135420018Y-85286341D01*
X135660684Y-85305182D01*
X135900401Y-85276709D01*
X136129958Y-85202018D01*
X136299485Y-85111404D01*
X136360257Y-84901495D01*
X136360257Y-87307000D01*
X129191551Y-87307000D01*
X129191551Y-83958736D01*
X129191551Y-81418736D01*
X129191551Y-78878736D01*
X129146774Y-78652599D01*
X129058927Y-78439466D01*
X128931355Y-78247455D01*
X128768918Y-78083879D01*
X128577802Y-77954970D01*
X128365287Y-77865637D01*
X128139468Y-77819283D01*
X127908946Y-77817673D01*
X127682502Y-77860870D01*
X127468760Y-77947227D01*
X127275863Y-78073455D01*
X127111157Y-78234747D01*
X126986365Y-78417000D01*
X121932000Y-78417000D01*
X121819355Y-78247455D01*
X121656918Y-78083879D01*
X121465802Y-77954970D01*
X121253287Y-77865637D01*
X121027468Y-77819283D01*
X120796946Y-77817673D01*
X120570502Y-77860870D01*
X120356760Y-77947227D01*
X120163863Y-78073455D01*
X119999157Y-78234747D01*
X119868917Y-78424958D01*
X119778103Y-78636844D01*
X119730173Y-78862334D01*
X119726955Y-79092839D01*
X119768569Y-79319580D01*
X119853432Y-79533919D01*
X119978311Y-79727692D01*
X120138449Y-79893520D01*
X120327746Y-80025085D01*
X120538993Y-80117377D01*
X120764143Y-80166879D01*
X120994620Y-80171707D01*
X121221645Y-80131676D01*
X121436571Y-80048312D01*
X121631212Y-79924789D01*
X121798153Y-79765813D01*
X121931037Y-79577438D01*
X121933903Y-79571000D01*
X126989329Y-79571000D01*
X127090311Y-79727692D01*
X127250449Y-79893520D01*
X127439746Y-80025085D01*
X127650993Y-80117377D01*
X127876143Y-80166879D01*
X128106620Y-80171707D01*
X128333645Y-80131676D01*
X128548571Y-80048312D01*
X128743212Y-79924789D01*
X128910153Y-79765813D01*
X129043037Y-79577438D01*
X129136801Y-79366841D01*
X129187874Y-79142042D01*
X129191551Y-78878736D01*
X129191551Y-81418736D01*
X129146774Y-81192599D01*
X129058927Y-80979466D01*
X128931355Y-80787455D01*
X128768918Y-80623879D01*
X128577802Y-80494970D01*
X128365287Y-80405637D01*
X128139468Y-80359283D01*
X127908946Y-80357673D01*
X127682502Y-80400870D01*
X127468760Y-80487227D01*
X127275863Y-80613455D01*
X127111157Y-80774747D01*
X126986365Y-80957000D01*
X121932000Y-80957000D01*
X121819355Y-80787455D01*
X121656918Y-80623879D01*
X121465802Y-80494970D01*
X121253287Y-80405637D01*
X121027468Y-80359283D01*
X120796946Y-80357673D01*
X120570502Y-80400870D01*
X120356760Y-80487227D01*
X120163863Y-80613455D01*
X119999157Y-80774747D01*
X119868917Y-80964958D01*
X119778103Y-81176844D01*
X119730173Y-81402334D01*
X119726955Y-81632839D01*
X119768569Y-81859580D01*
X119853432Y-82073919D01*
X119978311Y-82267692D01*
X120138449Y-82433520D01*
X120327746Y-82565085D01*
X120538993Y-82657377D01*
X120764143Y-82706879D01*
X120994620Y-82711707D01*
X121221645Y-82671676D01*
X121436571Y-82588312D01*
X121631212Y-82464789D01*
X121798153Y-82305813D01*
X121931037Y-82117438D01*
X121933903Y-82111000D01*
X126989329Y-82111000D01*
X127090311Y-82267692D01*
X127250449Y-82433520D01*
X127439746Y-82565085D01*
X127650993Y-82657377D01*
X127876143Y-82706879D01*
X128106620Y-82711707D01*
X128333645Y-82671676D01*
X128548571Y-82588312D01*
X128743212Y-82464789D01*
X128910153Y-82305813D01*
X129043037Y-82117438D01*
X129136801Y-81906841D01*
X129187874Y-81682042D01*
X129191551Y-81418736D01*
X129191551Y-83958736D01*
X129146774Y-83732599D01*
X129058927Y-83519466D01*
X128931355Y-83327455D01*
X128768918Y-83163879D01*
X128577802Y-83034970D01*
X128365287Y-82945637D01*
X128139468Y-82899283D01*
X127908946Y-82897673D01*
X127682502Y-82940870D01*
X127468760Y-83027227D01*
X127275863Y-83153455D01*
X127111157Y-83314747D01*
X126986365Y-83497000D01*
X121932000Y-83497000D01*
X121819355Y-83327455D01*
X121656918Y-83163879D01*
X121465802Y-83034970D01*
X121253287Y-82945637D01*
X121027468Y-82899283D01*
X120796946Y-82897673D01*
X120570502Y-82940870D01*
X120356760Y-83027227D01*
X120163863Y-83153455D01*
X119999157Y-83314747D01*
X119868917Y-83504958D01*
X119778103Y-83716844D01*
X119730173Y-83942334D01*
X119726955Y-84172839D01*
X119768569Y-84399580D01*
X119853432Y-84613919D01*
X119978311Y-84807692D01*
X120138449Y-84973520D01*
X120327746Y-85105085D01*
X120538993Y-85197377D01*
X120764143Y-85246879D01*
X120994620Y-85251707D01*
X121221645Y-85211676D01*
X121436571Y-85128312D01*
X121631212Y-85004789D01*
X121798153Y-84845813D01*
X121931037Y-84657438D01*
X121933903Y-84651000D01*
X126989329Y-84651000D01*
X127090311Y-84807692D01*
X127250449Y-84973520D01*
X127439746Y-85105085D01*
X127650993Y-85197377D01*
X127876143Y-85246879D01*
X128106620Y-85251707D01*
X128333645Y-85211676D01*
X128548571Y-85128312D01*
X128743212Y-85004789D01*
X128910153Y-84845813D01*
X129043037Y-84657438D01*
X129136801Y-84446841D01*
X129187874Y-84222042D01*
X129191551Y-83958736D01*
X129191551Y-87307000D01*
X115047001Y-87307000D01*
X113861000Y-86120998D01*
X113861000Y-85100116D01*
X114011212Y-85004789D01*
X114178153Y-84845813D01*
X114311037Y-84657438D01*
X114404801Y-84446841D01*
X114455874Y-84222042D01*
X114459551Y-83958736D01*
X114414774Y-83732599D01*
X114326927Y-83519466D01*
X114199355Y-83327455D01*
X114036918Y-83163879D01*
X113845802Y-83034970D01*
X113633287Y-82945637D01*
X113407468Y-82899283D01*
X113176946Y-82897673D01*
X112950502Y-82940870D01*
X112736760Y-83027227D01*
X112543863Y-83153455D01*
X112379157Y-83314747D01*
X112248917Y-83504958D01*
X112158103Y-83716844D01*
X112110173Y-83942334D01*
X112106955Y-84172839D01*
X112148569Y-84399580D01*
X112233432Y-84613919D01*
X112358311Y-84807692D01*
X112518449Y-84973520D01*
X112707000Y-85104566D01*
X112707000Y-86360000D01*
X112712200Y-86413042D01*
X112716847Y-86466140D01*
X112717692Y-86469050D01*
X112717989Y-86472073D01*
X112733401Y-86523123D01*
X112748264Y-86574280D01*
X112749659Y-86576973D01*
X112750537Y-86579878D01*
X112775564Y-86626949D01*
X112800087Y-86674257D01*
X112801979Y-86676627D01*
X112803404Y-86679307D01*
X112837086Y-86720605D01*
X112870343Y-86762265D01*
X112874511Y-86766492D01*
X112874578Y-86766574D01*
X112874653Y-86766636D01*
X112875999Y-86768001D01*
X114399999Y-88292000D01*
X114441158Y-88325808D01*
X114482014Y-88360090D01*
X114484673Y-88361552D01*
X114487017Y-88363477D01*
X114533970Y-88388653D01*
X114580696Y-88414341D01*
X114583588Y-88415258D01*
X114586262Y-88416692D01*
X114637261Y-88432284D01*
X114688035Y-88448391D01*
X114691045Y-88448728D01*
X114693951Y-88449617D01*
X114746981Y-88455003D01*
X114799944Y-88460944D01*
X114805880Y-88460985D01*
X114805986Y-88460996D01*
X114806084Y-88460986D01*
X114808000Y-88461000D01*
X142807635Y-88461000D01*
X142889747Y-88618063D01*
X143053691Y-88821969D01*
X143254118Y-88990147D01*
X143483394Y-89116193D01*
X143602222Y-89153887D01*
X143500650Y-89184554D01*
X143269636Y-89307386D01*
X143066880Y-89472749D01*
X142900105Y-89674346D01*
X142775663Y-89904497D01*
X142698294Y-90154435D01*
X142670946Y-90414641D01*
X142694659Y-90675203D01*
X142768530Y-90926198D01*
X142889747Y-91158063D01*
X143053691Y-91361969D01*
X143254118Y-91530147D01*
X143483394Y-91656193D01*
X143602222Y-91693887D01*
X143500650Y-91724554D01*
X143269636Y-91847386D01*
X143066880Y-92012749D01*
X142900105Y-92214346D01*
X142806751Y-92387000D01*
X134762034Y-92387000D01*
X134762034Y-91490811D01*
X134732437Y-91341336D01*
X134674370Y-91200455D01*
X134590046Y-91073537D01*
X134562000Y-91045294D01*
X134562000Y-89804526D01*
X134576031Y-89791165D01*
X134663867Y-89666650D01*
X134725844Y-89527446D01*
X134759603Y-89378855D01*
X134762034Y-89204811D01*
X134732437Y-89055336D01*
X134674370Y-88914455D01*
X134590046Y-88787537D01*
X134482675Y-88679414D01*
X134356348Y-88594206D01*
X134215877Y-88535157D01*
X134066612Y-88504517D01*
X133914238Y-88503453D01*
X133764559Y-88532006D01*
X133623277Y-88589088D01*
X133495773Y-88672524D01*
X133386903Y-88779137D01*
X133300815Y-88904866D01*
X133240787Y-89044922D01*
X133209106Y-89193970D01*
X133206978Y-89346332D01*
X133234485Y-89496207D01*
X133290579Y-89637884D01*
X133373123Y-89765967D01*
X133408000Y-89802083D01*
X133408000Y-91044477D01*
X133386903Y-91065137D01*
X133300815Y-91190866D01*
X133240787Y-91330922D01*
X133209106Y-91479970D01*
X133206978Y-91632332D01*
X133234485Y-91782207D01*
X133290579Y-91923884D01*
X133373123Y-92051967D01*
X133478974Y-92161579D01*
X133604099Y-92248543D01*
X133743732Y-92309547D01*
X133892555Y-92342268D01*
X134044899Y-92345459D01*
X134194962Y-92318999D01*
X134337027Y-92263895D01*
X134465684Y-92182247D01*
X134576031Y-92077165D01*
X134663867Y-91952650D01*
X134725844Y-91813446D01*
X134759603Y-91664855D01*
X134762034Y-91490811D01*
X134762034Y-92387000D01*
X132827002Y-92387000D01*
X129948001Y-89507999D01*
X129906784Y-89474143D01*
X129865986Y-89439910D01*
X129863330Y-89438449D01*
X129860983Y-89436522D01*
X129813955Y-89411306D01*
X129767304Y-89385659D01*
X129764415Y-89384742D01*
X129761738Y-89383307D01*
X129710692Y-89367700D01*
X129659965Y-89351609D01*
X129656954Y-89351271D01*
X129654049Y-89350383D01*
X129601018Y-89344996D01*
X129548056Y-89339056D01*
X129542119Y-89339014D01*
X129542014Y-89339004D01*
X129541915Y-89339013D01*
X129540000Y-89339000D01*
X114539002Y-89339000D01*
X111829000Y-86628998D01*
X111829000Y-82111000D01*
X112257329Y-82111000D01*
X112358311Y-82267692D01*
X112518449Y-82433520D01*
X112707746Y-82565085D01*
X112918993Y-82657377D01*
X113144143Y-82706879D01*
X113374620Y-82711707D01*
X113601645Y-82671676D01*
X113816571Y-82588312D01*
X114011212Y-82464789D01*
X114178153Y-82305813D01*
X114311037Y-82117438D01*
X114404801Y-81906841D01*
X114455874Y-81682042D01*
X114459551Y-81418736D01*
X114459551Y-78878736D01*
X114459551Y-76338736D01*
X114459551Y-73798736D01*
X114414774Y-73572599D01*
X114326927Y-73359466D01*
X114199355Y-73167455D01*
X114036918Y-73003879D01*
X113845802Y-72874970D01*
X113633287Y-72785637D01*
X113407468Y-72739283D01*
X113176946Y-72737673D01*
X112950502Y-72780870D01*
X112736760Y-72867227D01*
X112543863Y-72993455D01*
X112379157Y-73154747D01*
X112248917Y-73344958D01*
X112158103Y-73556844D01*
X112110173Y-73782334D01*
X112106955Y-74012839D01*
X112148569Y-74239580D01*
X112233432Y-74453919D01*
X112358311Y-74647692D01*
X112518449Y-74813520D01*
X112707746Y-74945085D01*
X112918993Y-75037377D01*
X113144143Y-75086879D01*
X113374620Y-75091707D01*
X113601645Y-75051676D01*
X113816571Y-74968312D01*
X114011212Y-74844789D01*
X114178153Y-74685813D01*
X114311037Y-74497438D01*
X114404801Y-74286841D01*
X114455874Y-74062042D01*
X114459551Y-73798736D01*
X114459551Y-76338736D01*
X114414774Y-76112599D01*
X114326927Y-75899466D01*
X114199355Y-75707455D01*
X114036918Y-75543879D01*
X113845802Y-75414970D01*
X113633287Y-75325637D01*
X113407468Y-75279283D01*
X113176946Y-75277673D01*
X112950502Y-75320870D01*
X112736760Y-75407227D01*
X112543863Y-75533455D01*
X112379157Y-75694747D01*
X112248917Y-75884958D01*
X112158103Y-76096844D01*
X112110173Y-76322334D01*
X112106955Y-76552839D01*
X112148569Y-76779580D01*
X112233432Y-76993919D01*
X112358311Y-77187692D01*
X112518449Y-77353520D01*
X112707746Y-77485085D01*
X112918993Y-77577377D01*
X113144143Y-77626879D01*
X113374620Y-77631707D01*
X113601645Y-77591676D01*
X113816571Y-77508312D01*
X114011212Y-77384789D01*
X114178153Y-77225813D01*
X114311037Y-77037438D01*
X114404801Y-76826841D01*
X114455874Y-76602042D01*
X114459551Y-76338736D01*
X114459551Y-78878736D01*
X114414774Y-78652599D01*
X114326927Y-78439466D01*
X114199355Y-78247455D01*
X114036918Y-78083879D01*
X113845802Y-77954970D01*
X113633287Y-77865637D01*
X113407468Y-77819283D01*
X113176946Y-77817673D01*
X112950502Y-77860870D01*
X112736760Y-77947227D01*
X112543863Y-78073455D01*
X112379157Y-78234747D01*
X112248917Y-78424958D01*
X112158103Y-78636844D01*
X112110173Y-78862334D01*
X112106955Y-79092839D01*
X112148569Y-79319580D01*
X112233432Y-79533919D01*
X112358311Y-79727692D01*
X112518449Y-79893520D01*
X112707746Y-80025085D01*
X112918993Y-80117377D01*
X113144143Y-80166879D01*
X113374620Y-80171707D01*
X113601645Y-80131676D01*
X113816571Y-80048312D01*
X114011212Y-79924789D01*
X114178153Y-79765813D01*
X114311037Y-79577438D01*
X114404801Y-79366841D01*
X114455874Y-79142042D01*
X114459551Y-78878736D01*
X114459551Y-81418736D01*
X114414774Y-81192599D01*
X114326927Y-80979466D01*
X114199355Y-80787455D01*
X114036918Y-80623879D01*
X113845802Y-80494970D01*
X113633287Y-80405637D01*
X113407468Y-80359283D01*
X113176946Y-80357673D01*
X112950502Y-80400870D01*
X112736760Y-80487227D01*
X112543863Y-80613455D01*
X112379157Y-80774747D01*
X112254365Y-80957000D01*
X111252000Y-80957000D01*
X111197992Y-80962295D01*
X111143881Y-80967220D01*
X111141938Y-80967791D01*
X111139927Y-80967989D01*
X111087963Y-80983677D01*
X111035852Y-80999015D01*
X111034059Y-80999951D01*
X111032122Y-81000537D01*
X110984138Y-81026050D01*
X110936056Y-81051187D01*
X110934481Y-81052453D01*
X110932693Y-81053404D01*
X110890622Y-81087716D01*
X110848294Y-81121749D01*
X110846991Y-81123301D01*
X110845426Y-81124578D01*
X110810817Y-81166411D01*
X110775910Y-81208014D01*
X110774936Y-81209784D01*
X110773645Y-81211346D01*
X110747798Y-81259149D01*
X110721659Y-81306696D01*
X110721047Y-81308624D01*
X110720085Y-81310404D01*
X110704021Y-81362296D01*
X110687609Y-81414035D01*
X110687383Y-81416044D01*
X110686785Y-81417978D01*
X110681108Y-81471985D01*
X110675056Y-81525944D01*
X110675028Y-81529829D01*
X110675014Y-81529972D01*
X110675027Y-81530114D01*
X110675000Y-81534000D01*
X110675000Y-86868000D01*
X110680200Y-86921042D01*
X110684847Y-86974140D01*
X110685692Y-86977050D01*
X110685989Y-86980073D01*
X110701401Y-87031123D01*
X110716264Y-87082280D01*
X110717659Y-87084973D01*
X110718537Y-87087878D01*
X110743564Y-87134949D01*
X110768087Y-87182257D01*
X110769979Y-87184627D01*
X110771404Y-87187307D01*
X110805086Y-87228605D01*
X110838343Y-87270265D01*
X110842511Y-87274492D01*
X110842578Y-87274574D01*
X110842653Y-87274636D01*
X110843999Y-87276001D01*
X113891999Y-90324001D01*
X113933215Y-90357856D01*
X113974014Y-90392090D01*
X113976669Y-90393550D01*
X113979017Y-90395478D01*
X114026044Y-90420693D01*
X114072696Y-90446341D01*
X114075584Y-90447257D01*
X114078262Y-90448693D01*
X114129307Y-90464299D01*
X114180035Y-90480391D01*
X114183045Y-90480728D01*
X114185951Y-90481617D01*
X114238981Y-90487003D01*
X114291944Y-90492944D01*
X114297880Y-90492985D01*
X114297986Y-90492996D01*
X114298084Y-90492986D01*
X114300000Y-90493000D01*
X129300998Y-90493000D01*
X132179999Y-93372001D01*
X132221215Y-93405856D01*
X132262014Y-93440090D01*
X132264669Y-93441550D01*
X132267017Y-93443478D01*
X132314044Y-93468693D01*
X132360696Y-93494341D01*
X132363584Y-93495257D01*
X132366262Y-93496693D01*
X132417307Y-93512299D01*
X132468035Y-93528391D01*
X132471045Y-93528728D01*
X132473951Y-93529617D01*
X132526981Y-93535003D01*
X132579944Y-93540944D01*
X132585880Y-93540985D01*
X132585986Y-93540996D01*
X132586084Y-93540986D01*
X132588000Y-93541000D01*
X142807635Y-93541000D01*
X142889747Y-93698063D01*
X143053691Y-93901969D01*
X143254118Y-94070147D01*
X143483394Y-94196193D01*
X143602222Y-94233887D01*
X143500650Y-94264554D01*
X143269636Y-94387386D01*
X143066880Y-94552749D01*
X142900105Y-94754346D01*
X142806751Y-94927000D01*
X123078034Y-94927000D01*
X123078034Y-92760811D01*
X123048437Y-92611336D01*
X122990370Y-92470455D01*
X122906046Y-92343537D01*
X122798675Y-92235414D01*
X122672348Y-92150206D01*
X122531877Y-92091157D01*
X122382612Y-92060517D01*
X122230238Y-92059453D01*
X122080559Y-92088006D01*
X121939277Y-92145088D01*
X121811773Y-92228524D01*
X121702903Y-92335137D01*
X121667391Y-92387000D01*
X115301001Y-92387000D01*
X110051000Y-87136998D01*
X110051000Y-72883001D01*
X112966237Y-69967764D01*
X113144143Y-70006879D01*
X113374620Y-70011707D01*
X113601645Y-69971676D01*
X113816571Y-69888312D01*
X114011212Y-69764789D01*
X114178153Y-69605813D01*
X114311037Y-69417438D01*
X114404801Y-69206841D01*
X114455874Y-68982042D01*
X114459551Y-68718736D01*
X114459551Y-66178736D01*
X114459551Y-63638736D01*
X114414774Y-63412599D01*
X114326927Y-63199466D01*
X114199355Y-63007455D01*
X114036918Y-62843879D01*
X113845802Y-62714970D01*
X113633287Y-62625637D01*
X113407468Y-62579283D01*
X113176946Y-62577673D01*
X112950502Y-62620870D01*
X112736760Y-62707227D01*
X112543863Y-62833455D01*
X112379157Y-62994747D01*
X112254365Y-63177000D01*
X110729001Y-63177000D01*
X108781000Y-61228998D01*
X108781000Y-59613308D01*
X109054000Y-59613308D01*
X109131404Y-59607017D01*
X109259855Y-59566851D01*
X109372075Y-59492558D01*
X109459218Y-59389996D01*
X109514413Y-59267251D01*
X109533308Y-59134000D01*
X109533308Y-57134000D01*
X109527017Y-57056596D01*
X109486851Y-56928145D01*
X109412558Y-56815925D01*
X109309996Y-56728782D01*
X109187251Y-56673587D01*
X109054000Y-56654692D01*
X107354000Y-56654692D01*
X107276596Y-56660983D01*
X107148145Y-56701149D01*
X107035925Y-56775442D01*
X106948782Y-56878004D01*
X106893587Y-57000749D01*
X106874692Y-57134000D01*
X106874692Y-59134000D01*
X106880983Y-59211404D01*
X106921149Y-59339855D01*
X106995442Y-59452075D01*
X107098004Y-59539218D01*
X107220749Y-59594413D01*
X107354000Y-59613308D01*
X107627000Y-59613308D01*
X107627000Y-61468000D01*
X107632200Y-61521042D01*
X107636847Y-61574140D01*
X107637692Y-61577050D01*
X107637989Y-61580073D01*
X107653401Y-61631123D01*
X107668264Y-61682280D01*
X107669659Y-61684973D01*
X107670537Y-61687878D01*
X107695564Y-61734949D01*
X107720087Y-61782257D01*
X107721979Y-61784627D01*
X107723404Y-61787307D01*
X107757086Y-61828605D01*
X107790343Y-61870265D01*
X107794511Y-61874492D01*
X107794578Y-61874574D01*
X107794653Y-61874636D01*
X107795999Y-61876001D01*
X110081999Y-64162000D01*
X110123185Y-64195831D01*
X110164014Y-64230090D01*
X110166670Y-64231550D01*
X110169017Y-64233478D01*
X110216009Y-64258674D01*
X110262696Y-64284341D01*
X110265588Y-64285258D01*
X110268262Y-64286692D01*
X110319261Y-64302284D01*
X110370035Y-64318391D01*
X110373045Y-64318728D01*
X110375951Y-64319617D01*
X110428981Y-64325003D01*
X110481944Y-64330944D01*
X110487880Y-64330985D01*
X110487986Y-64330996D01*
X110488084Y-64330986D01*
X110490000Y-64331000D01*
X112257329Y-64331000D01*
X112358311Y-64487692D01*
X112518449Y-64653520D01*
X112707746Y-64785085D01*
X112918993Y-64877377D01*
X113144143Y-64926879D01*
X113374620Y-64931707D01*
X113601645Y-64891676D01*
X113816571Y-64808312D01*
X114011212Y-64684789D01*
X114178153Y-64525813D01*
X114311037Y-64337438D01*
X114404801Y-64126841D01*
X114455874Y-63902042D01*
X114459551Y-63638736D01*
X114459551Y-66178736D01*
X114414774Y-65952599D01*
X114326927Y-65739466D01*
X114199355Y-65547455D01*
X114036918Y-65383879D01*
X113845802Y-65254970D01*
X113633287Y-65165637D01*
X113407468Y-65119283D01*
X113176946Y-65117673D01*
X112950502Y-65160870D01*
X112736760Y-65247227D01*
X112543863Y-65373455D01*
X112379157Y-65534747D01*
X112248917Y-65724958D01*
X112158103Y-65936844D01*
X112110173Y-66162334D01*
X112106955Y-66392839D01*
X112148569Y-66619580D01*
X112233432Y-66833919D01*
X112358311Y-67027692D01*
X112518449Y-67193520D01*
X112707746Y-67325085D01*
X112918993Y-67417377D01*
X113144143Y-67466879D01*
X113374620Y-67471707D01*
X113601645Y-67431676D01*
X113816571Y-67348312D01*
X114011212Y-67224789D01*
X114178153Y-67065813D01*
X114311037Y-66877438D01*
X114404801Y-66666841D01*
X114455874Y-66442042D01*
X114459551Y-66178736D01*
X114459551Y-68718736D01*
X114414774Y-68492599D01*
X114326927Y-68279466D01*
X114199355Y-68087455D01*
X114036918Y-67923879D01*
X113845802Y-67794970D01*
X113633287Y-67705637D01*
X113407468Y-67659283D01*
X113176946Y-67657673D01*
X112950502Y-67700870D01*
X112736760Y-67787227D01*
X112543863Y-67913455D01*
X112379157Y-68074747D01*
X112248917Y-68264958D01*
X112158103Y-68476844D01*
X112110173Y-68702334D01*
X112106955Y-68932839D01*
X112147615Y-69154383D01*
X109065999Y-72235999D01*
X109032143Y-72277215D01*
X108997910Y-72318014D01*
X108996449Y-72320669D01*
X108994522Y-72323017D01*
X108969306Y-72370044D01*
X108943659Y-72416696D01*
X108942742Y-72419584D01*
X108941307Y-72422262D01*
X108925700Y-72473307D01*
X108909609Y-72524035D01*
X108909271Y-72527045D01*
X108908383Y-72529951D01*
X108902996Y-72582981D01*
X108897056Y-72635944D01*
X108897014Y-72641880D01*
X108897004Y-72641986D01*
X108897013Y-72642084D01*
X108897000Y-72644000D01*
X108897000Y-87376000D01*
X108902200Y-87429042D01*
X108906847Y-87482140D01*
X108907692Y-87485050D01*
X108907989Y-87488073D01*
X108923401Y-87539123D01*
X108938264Y-87590280D01*
X108939659Y-87592973D01*
X108940537Y-87595878D01*
X108965564Y-87642949D01*
X108990087Y-87690257D01*
X108991979Y-87692627D01*
X108993404Y-87695307D01*
X109027086Y-87736605D01*
X109060343Y-87778265D01*
X109064511Y-87782492D01*
X109064578Y-87782574D01*
X109064653Y-87782636D01*
X109065999Y-87784001D01*
X114653999Y-93372000D01*
X114695185Y-93405831D01*
X114736014Y-93440090D01*
X114738670Y-93441550D01*
X114741017Y-93443478D01*
X114788009Y-93468674D01*
X114834696Y-93494341D01*
X114837588Y-93495258D01*
X114840262Y-93496692D01*
X114891261Y-93512284D01*
X114942035Y-93528391D01*
X114945045Y-93528728D01*
X114947951Y-93529617D01*
X115000981Y-93535003D01*
X115053944Y-93540944D01*
X115059880Y-93540985D01*
X115059986Y-93540996D01*
X115060084Y-93540986D01*
X115062000Y-93541000D01*
X121971501Y-93541000D01*
X122059732Y-93579547D01*
X122208555Y-93612268D01*
X122360899Y-93615459D01*
X122510962Y-93588999D01*
X122653027Y-93533895D01*
X122781684Y-93452247D01*
X122892031Y-93347165D01*
X122979867Y-93222650D01*
X123041844Y-93083446D01*
X123075603Y-92934855D01*
X123078034Y-92760811D01*
X123078034Y-94927000D01*
X115555001Y-94927000D01*
X106241000Y-85612998D01*
X106241000Y-52695003D01*
X107305003Y-51631000D01*
X125901947Y-51631000D01*
X125832782Y-51712404D01*
X125777587Y-51835149D01*
X125758692Y-51968400D01*
X125758692Y-53695600D01*
X125764983Y-53773004D01*
X125805149Y-53901455D01*
X125879442Y-54013675D01*
X125982004Y-54100818D01*
X126104749Y-54156013D01*
X126238000Y-54174908D01*
X126503856Y-54174908D01*
X126352499Y-54255386D01*
X126149743Y-54420749D01*
X125982968Y-54622346D01*
X125858526Y-54852497D01*
X125781157Y-55102435D01*
X125753809Y-55362641D01*
X125777522Y-55623203D01*
X125851393Y-55874198D01*
X125972610Y-56106063D01*
X126136554Y-56309969D01*
X126336981Y-56478147D01*
X126566257Y-56604193D01*
X126685085Y-56641887D01*
X126583513Y-56672554D01*
X126352499Y-56795386D01*
X126149743Y-56960749D01*
X125982968Y-57162346D01*
X125858526Y-57392497D01*
X125781157Y-57642435D01*
X125753809Y-57902641D01*
X125777522Y-58163203D01*
X125851393Y-58414198D01*
X125972610Y-58646063D01*
X126136554Y-58849969D01*
X126336981Y-59018147D01*
X126566257Y-59144193D01*
X126607151Y-59157165D01*
X126501997Y-59195189D01*
X126268327Y-59336315D01*
X126066679Y-59520316D01*
X125904802Y-59740121D01*
X125788917Y-59987283D01*
X125741434Y-60162661D01*
X125844868Y-60379000D01*
X127181000Y-60379000D01*
X127181000Y-60359000D01*
X127327000Y-60359000D01*
X127327000Y-60379000D01*
X128663132Y-60379000D01*
X128766566Y-60162661D01*
X128719083Y-59987283D01*
X128603198Y-59740121D01*
X128441321Y-59520316D01*
X128239673Y-59336315D01*
X128006003Y-59195189D01*
X127902984Y-59157937D01*
X127924487Y-59151446D01*
X128155501Y-59028614D01*
X128358257Y-58863251D01*
X128525032Y-58661654D01*
X128649474Y-58431503D01*
X128726843Y-58181565D01*
X128754191Y-57921359D01*
X128730478Y-57660797D01*
X128656607Y-57409802D01*
X128535390Y-57177937D01*
X128371446Y-56974031D01*
X128171019Y-56805853D01*
X127941743Y-56679807D01*
X127822914Y-56642112D01*
X127924487Y-56611446D01*
X128155501Y-56488614D01*
X128358257Y-56323251D01*
X128525032Y-56121654D01*
X128649474Y-55891503D01*
X128726843Y-55641565D01*
X128754191Y-55381359D01*
X128730478Y-55120797D01*
X128656607Y-54869802D01*
X128535390Y-54637937D01*
X128371446Y-54434031D01*
X128171019Y-54265853D01*
X128005591Y-54174908D01*
X128270000Y-54174908D01*
X128347404Y-54168617D01*
X128475855Y-54128451D01*
X128588075Y-54054158D01*
X128675218Y-53951596D01*
X128730413Y-53828851D01*
X128749308Y-53695600D01*
X128749308Y-51968400D01*
X128743017Y-51890996D01*
X128702851Y-51762545D01*
X128628558Y-51650325D01*
X128605813Y-51631000D01*
X134634998Y-51631000D01*
X134678000Y-51674001D01*
X134678000Y-52378092D01*
X134239000Y-52378092D01*
X134161596Y-52384383D01*
X134033145Y-52424549D01*
X133920925Y-52498842D01*
X133833782Y-52601404D01*
X133778587Y-52724149D01*
X133759692Y-52857400D01*
X133759692Y-54584600D01*
X133765983Y-54662004D01*
X133806149Y-54790455D01*
X133880442Y-54902675D01*
X133983004Y-54989818D01*
X134105749Y-55045013D01*
X134239000Y-55063908D01*
X134404117Y-55063908D01*
X134269327Y-55145315D01*
X134067679Y-55329316D01*
X133905802Y-55549121D01*
X133789917Y-55796283D01*
X133742434Y-55971661D01*
X133845868Y-56188000D01*
X135182000Y-56188000D01*
X135182000Y-56168000D01*
X135328000Y-56168000D01*
X135328000Y-56188000D01*
X136664132Y-56188000D01*
X136767566Y-55971661D01*
X136720083Y-55796283D01*
X136604198Y-55549121D01*
X136442321Y-55329316D01*
X136240673Y-55145315D01*
X136105882Y-55063908D01*
X136271000Y-55063908D01*
X136348404Y-55057617D01*
X136476855Y-55017451D01*
X136589075Y-54943158D01*
X136676218Y-54840596D01*
X136731413Y-54717851D01*
X136750308Y-54584600D01*
X136750308Y-54298000D01*
X137897397Y-54298000D01*
X137831903Y-54362137D01*
X137745815Y-54487866D01*
X137685787Y-54627922D01*
X137654106Y-54776970D01*
X137651978Y-54929332D01*
X137679485Y-55079207D01*
X137735579Y-55220884D01*
X137818123Y-55348967D01*
X137853000Y-55385083D01*
X137853000Y-57545998D01*
X137174998Y-58224000D01*
X136618501Y-58224000D01*
X136536390Y-58066937D01*
X136372446Y-57863031D01*
X136172019Y-57694853D01*
X135942743Y-57568807D01*
X135901848Y-57555834D01*
X136007003Y-57517811D01*
X136240673Y-57376685D01*
X136442321Y-57192684D01*
X136604198Y-56972879D01*
X136720083Y-56725717D01*
X136767566Y-56550339D01*
X136664132Y-56334000D01*
X135328000Y-56334000D01*
X135328000Y-56354000D01*
X135182000Y-56354000D01*
X135182000Y-56334000D01*
X133845868Y-56334000D01*
X133742434Y-56550339D01*
X133789917Y-56725717D01*
X133905802Y-56972879D01*
X134067679Y-57192684D01*
X134269327Y-57376685D01*
X134502997Y-57517811D01*
X134606015Y-57555062D01*
X134584513Y-57561554D01*
X134353499Y-57684386D01*
X134150743Y-57849749D01*
X133983968Y-58051346D01*
X133859526Y-58281497D01*
X133782157Y-58531435D01*
X133754809Y-58791641D01*
X133778522Y-59052203D01*
X133852393Y-59303198D01*
X133973610Y-59535063D01*
X134137554Y-59738969D01*
X134337981Y-59907147D01*
X134567257Y-60033193D01*
X134686085Y-60070887D01*
X134584513Y-60101554D01*
X134353499Y-60224386D01*
X134150743Y-60389749D01*
X133983968Y-60591346D01*
X133859526Y-60821497D01*
X133782157Y-61071435D01*
X133754809Y-61331641D01*
X133778522Y-61592203D01*
X133852393Y-61843198D01*
X133973610Y-62075063D01*
X134137554Y-62278969D01*
X134337981Y-62447147D01*
X134567257Y-62573193D01*
X134686085Y-62610887D01*
X134584513Y-62641554D01*
X134353499Y-62764386D01*
X134150743Y-62929749D01*
X133983968Y-63131346D01*
X133859526Y-63361497D01*
X133782157Y-63611435D01*
X133754809Y-63871641D01*
X133778522Y-64132203D01*
X133852393Y-64383198D01*
X133973610Y-64615063D01*
X134137554Y-64818969D01*
X134337981Y-64987147D01*
X134567257Y-65113193D01*
X134686085Y-65150887D01*
X134584513Y-65181554D01*
X134353499Y-65304386D01*
X134150743Y-65469749D01*
X133983968Y-65671346D01*
X133859526Y-65901497D01*
X133782157Y-66151435D01*
X133754809Y-66411641D01*
X133778522Y-66672203D01*
X133852393Y-66923198D01*
X133973610Y-67155063D01*
X134137554Y-67358969D01*
X134337981Y-67527147D01*
X134567257Y-67653193D01*
X134816650Y-67732305D01*
X135076658Y-67761469D01*
X135095376Y-67761600D01*
X135414624Y-67761600D01*
X135675015Y-67736068D01*
X135925487Y-67660446D01*
X136156501Y-67537614D01*
X136359257Y-67372251D01*
X136526032Y-67170654D01*
X136619385Y-66998000D01*
X137287000Y-66998000D01*
X137340042Y-66992799D01*
X137393140Y-66988153D01*
X137396050Y-66987307D01*
X137399073Y-66987011D01*
X137450123Y-66971598D01*
X137501280Y-66956736D01*
X137503973Y-66955340D01*
X137506878Y-66954463D01*
X137553949Y-66929435D01*
X137601257Y-66904913D01*
X137603627Y-66903020D01*
X137606307Y-66901596D01*
X137647605Y-66867913D01*
X137689265Y-66834657D01*
X137693492Y-66830488D01*
X137693574Y-66830422D01*
X137693636Y-66830346D01*
X137695001Y-66829001D01*
X141378001Y-63146000D01*
X141411817Y-63104831D01*
X141446090Y-63063986D01*
X141447551Y-63061327D01*
X141449478Y-63058982D01*
X141474682Y-63011976D01*
X141500341Y-62965304D01*
X141501257Y-62962415D01*
X141502693Y-62959738D01*
X141518295Y-62908705D01*
X141534391Y-62857965D01*
X141534728Y-62854952D01*
X141535617Y-62852048D01*
X141541007Y-62798978D01*
X141546944Y-62746056D01*
X141546985Y-62740130D01*
X141546997Y-62740014D01*
X141546986Y-62739905D01*
X141547000Y-62738000D01*
X141547000Y-60691001D01*
X142665692Y-59572308D01*
X142799691Y-59738969D01*
X143000118Y-59907147D01*
X143229394Y-60033193D01*
X143348222Y-60070887D01*
X143246650Y-60101554D01*
X143015636Y-60224386D01*
X142812880Y-60389749D01*
X142646105Y-60591346D01*
X142521663Y-60821497D01*
X142444294Y-61071435D01*
X142416946Y-61331641D01*
X142440659Y-61592203D01*
X142514530Y-61843198D01*
X142635747Y-62075063D01*
X142799691Y-62278969D01*
X143000118Y-62447147D01*
X143229394Y-62573193D01*
X143269706Y-62585980D01*
X143214864Y-62603414D01*
X142976171Y-62735094D01*
X142767754Y-62910810D01*
X142597622Y-63123810D01*
X142472313Y-63365908D01*
X142403834Y-63591661D01*
X142507268Y-63808000D01*
X143691000Y-63808000D01*
X143691000Y-63788000D01*
X143837000Y-63788000D01*
X143837000Y-63808000D01*
X143857000Y-63808000D01*
X143857000Y-63954000D01*
X143837000Y-63954000D01*
X143837000Y-63974000D01*
X143691000Y-63974000D01*
X143691000Y-63954000D01*
X142507268Y-63954000D01*
X142403834Y-64170339D01*
X142472313Y-64396092D01*
X142597622Y-64638190D01*
X142767754Y-64851190D01*
X142976171Y-65026906D01*
X143214864Y-65158586D01*
X143267405Y-65175287D01*
X143246650Y-65181554D01*
X143015636Y-65304386D01*
X142812880Y-65469749D01*
X142646105Y-65671346D01*
X142521663Y-65901497D01*
X142444294Y-66151435D01*
X142416946Y-66411641D01*
X142440659Y-66672203D01*
X142514530Y-66923198D01*
X142635747Y-67155063D01*
X142799691Y-67358969D01*
X143000118Y-67527147D01*
X143229394Y-67653193D01*
X143348222Y-67690887D01*
X143246650Y-67721554D01*
X143015636Y-67844386D01*
X142812880Y-68009749D01*
X142646105Y-68211346D01*
X142521663Y-68441497D01*
X142444294Y-68691435D01*
X142416946Y-68951641D01*
X142440659Y-69212203D01*
X142514530Y-69463198D01*
X142635747Y-69695063D01*
X142799691Y-69898969D01*
X143000118Y-70067147D01*
X143229394Y-70193193D01*
X143478787Y-70272305D01*
X143738795Y-70301469D01*
X143757513Y-70301600D01*
X143770487Y-70301600D01*
X144030878Y-70276068D01*
X144281350Y-70200446D01*
X144512364Y-70077614D01*
X144715120Y-69912251D01*
X144881895Y-69710654D01*
X145006337Y-69480503D01*
X145033652Y-69392261D01*
X145054530Y-69463198D01*
X145175747Y-69695063D01*
X145339691Y-69898969D01*
X145540118Y-70067147D01*
X145769394Y-70193193D01*
X146018787Y-70272305D01*
X146278795Y-70301469D01*
X146297513Y-70301600D01*
X146310487Y-70301600D01*
X146570878Y-70276068D01*
X146821350Y-70200446D01*
X147052364Y-70077614D01*
X147255120Y-69912251D01*
X147421895Y-69710654D01*
X147546337Y-69480503D01*
X147623706Y-69230565D01*
X147651054Y-68970359D01*
X147627341Y-68709797D01*
X147553470Y-68458802D01*
X147432253Y-68226937D01*
X147268309Y-68023031D01*
X147067882Y-67854853D01*
X146838606Y-67728807D01*
X146719777Y-67691112D01*
X146821350Y-67660446D01*
X147052364Y-67537614D01*
X147255120Y-67372251D01*
X147421895Y-67170654D01*
X147546337Y-66940503D01*
X147623706Y-66690565D01*
X147651054Y-66430359D01*
X147627341Y-66169797D01*
X147553470Y-65918802D01*
X147432253Y-65686937D01*
X147268309Y-65483031D01*
X147067882Y-65314853D01*
X146838606Y-65188807D01*
X146719777Y-65151112D01*
X146821350Y-65120446D01*
X147052364Y-64997614D01*
X147255120Y-64832251D01*
X147421895Y-64630654D01*
X147515248Y-64458000D01*
X147588998Y-64458000D01*
X148267000Y-65136002D01*
X148267000Y-71261998D01*
X140857998Y-78671000D01*
X140476090Y-78671000D01*
X140451675Y-78646414D01*
X140325348Y-78561206D01*
X140184877Y-78502157D01*
X140035612Y-78471517D01*
X139883238Y-78470453D01*
X139733559Y-78499006D01*
X139592277Y-78556088D01*
X139464773Y-78639524D01*
X139355903Y-78746137D01*
X139269815Y-78871866D01*
X139209787Y-79011922D01*
X139178106Y-79160970D01*
X139175978Y-79313332D01*
X139203485Y-79463207D01*
X139259579Y-79604884D01*
X139342123Y-79732967D01*
X139447974Y-79842579D01*
X139573099Y-79929543D01*
X139712732Y-79990547D01*
X139861555Y-80023268D01*
X140013899Y-80026459D01*
X140163962Y-79999999D01*
X140306027Y-79944895D01*
X140434684Y-79863247D01*
X140474847Y-79825000D01*
X141097000Y-79825000D01*
X141150042Y-79819799D01*
X141203140Y-79815153D01*
X141206050Y-79814307D01*
X141209073Y-79814011D01*
X141260123Y-79798598D01*
X141311280Y-79783736D01*
X141313973Y-79782340D01*
X141316878Y-79781463D01*
X141363949Y-79756435D01*
X141411257Y-79731913D01*
X141413627Y-79730020D01*
X141416307Y-79728596D01*
X141457605Y-79694913D01*
X141499265Y-79661657D01*
X141503492Y-79657488D01*
X141503574Y-79657422D01*
X141503636Y-79657346D01*
X141505001Y-79656001D01*
X149252000Y-71909001D01*
X149285808Y-71867841D01*
X149320090Y-71826986D01*
X149321552Y-71824326D01*
X149323477Y-71821983D01*
X149348653Y-71775029D01*
X149374341Y-71728304D01*
X149375258Y-71725411D01*
X149376692Y-71722738D01*
X149383000Y-71702106D01*
X149383000Y-98583000D01*
X149383000Y-98583000D01*
G37*
X149383000Y-98583000D02*
X147948600Y-98583000D01*
X147948600Y-96419505D01*
X147948600Y-96315695D01*
X147948600Y-95708750D01*
X147816850Y-95577000D01*
X146631000Y-95577000D01*
X146631000Y-96762850D01*
X146762750Y-96894600D01*
X147473505Y-96894600D01*
X147575320Y-96874348D01*
X147671228Y-96834621D01*
X147757543Y-96776948D01*
X147830948Y-96703543D01*
X147888621Y-96617228D01*
X147928348Y-96521320D01*
X147948600Y-96419505D01*
X147948600Y-98583000D01*
X103347000Y-98583000D01*
X103347000Y-50007000D01*
X149383000Y-50007000D01*
X149383000Y-64693954D01*
X149379736Y-64682720D01*
X149378340Y-64680026D01*
X149377463Y-64677122D01*
X149352435Y-64630050D01*
X149327913Y-64582743D01*
X149326020Y-64580372D01*
X149324596Y-64577693D01*
X149290913Y-64536394D01*
X149257657Y-64494735D01*
X149253488Y-64490507D01*
X149253422Y-64490426D01*
X149253346Y-64490363D01*
X149252001Y-64488999D01*
X148236001Y-63472999D01*
X148194784Y-63439143D01*
X148153986Y-63404910D01*
X148151330Y-63403449D01*
X148148983Y-63401522D01*
X148101955Y-63376306D01*
X148055304Y-63350659D01*
X148052415Y-63349742D01*
X148049738Y-63348307D01*
X147998692Y-63332700D01*
X147947965Y-63316609D01*
X147944954Y-63316271D01*
X147942049Y-63315383D01*
X147889018Y-63309996D01*
X147836056Y-63304056D01*
X147830119Y-63304014D01*
X147830014Y-63304004D01*
X147829915Y-63304013D01*
X147828000Y-63304000D01*
X147514364Y-63304000D01*
X147432253Y-63146937D01*
X147268309Y-62943031D01*
X147067882Y-62774853D01*
X146838606Y-62648807D01*
X146719777Y-62611112D01*
X146821350Y-62580446D01*
X147052364Y-62457614D01*
X147255120Y-62292251D01*
X147421895Y-62090654D01*
X147546337Y-61860503D01*
X147623706Y-61610565D01*
X147651054Y-61350359D01*
X147627341Y-61089797D01*
X147553470Y-60838802D01*
X147432253Y-60606937D01*
X147268309Y-60403031D01*
X147067882Y-60234853D01*
X146838606Y-60108807D01*
X146719777Y-60071112D01*
X146821350Y-60040446D01*
X147052364Y-59917614D01*
X147255120Y-59752251D01*
X147421895Y-59550654D01*
X147546337Y-59320503D01*
X147623706Y-59070565D01*
X147651054Y-58810359D01*
X147627341Y-58549797D01*
X147553470Y-58298802D01*
X147432253Y-58066937D01*
X147268309Y-57863031D01*
X147067882Y-57694853D01*
X146838606Y-57568807D01*
X146719777Y-57531112D01*
X146821350Y-57500446D01*
X147052364Y-57377614D01*
X147255120Y-57212251D01*
X147421895Y-57010654D01*
X147546337Y-56780503D01*
X147623706Y-56530565D01*
X147651054Y-56270359D01*
X147627341Y-56009797D01*
X147553470Y-55758802D01*
X147432253Y-55526937D01*
X147268309Y-55323031D01*
X147067882Y-55154853D01*
X146838606Y-55028807D01*
X146719777Y-54991112D01*
X146821350Y-54960446D01*
X147052364Y-54837614D01*
X147255120Y-54672251D01*
X147421895Y-54470654D01*
X147546337Y-54240503D01*
X147623706Y-53990565D01*
X147651054Y-53730359D01*
X147627341Y-53469797D01*
X147553470Y-53218802D01*
X147432253Y-52986937D01*
X147268309Y-52783031D01*
X147067882Y-52614853D01*
X146838606Y-52488807D01*
X146589213Y-52409695D01*
X146329205Y-52380531D01*
X146310487Y-52380400D01*
X146297513Y-52380400D01*
X146037122Y-52405932D01*
X145786650Y-52481554D01*
X145555636Y-52604386D01*
X145352880Y-52769749D01*
X145186105Y-52971346D01*
X145106908Y-53117818D01*
X145106908Y-52857400D01*
X145100617Y-52779996D01*
X145060451Y-52651545D01*
X144986158Y-52539325D01*
X144883596Y-52452182D01*
X144760851Y-52396987D01*
X144627600Y-52378092D01*
X142900400Y-52378092D01*
X142822996Y-52384383D01*
X142694545Y-52424549D01*
X142582325Y-52498842D01*
X142495182Y-52601404D01*
X142439987Y-52724149D01*
X142421092Y-52857400D01*
X142421092Y-53144000D01*
X136750308Y-53144000D01*
X136750308Y-52857400D01*
X136744017Y-52779996D01*
X136703851Y-52651545D01*
X136629558Y-52539325D01*
X136526996Y-52452182D01*
X136404251Y-52396987D01*
X136271000Y-52378092D01*
X135832000Y-52378092D01*
X135832000Y-51435000D01*
X135826794Y-51381912D01*
X135822153Y-51328860D01*
X135821307Y-51325949D01*
X135821011Y-51322927D01*
X135805598Y-51271876D01*
X135790736Y-51220720D01*
X135789340Y-51218026D01*
X135788463Y-51215122D01*
X135763435Y-51168050D01*
X135738913Y-51120743D01*
X135737020Y-51118372D01*
X135735596Y-51115693D01*
X135701913Y-51074394D01*
X135668657Y-51032735D01*
X135664492Y-51028511D01*
X135664422Y-51028426D01*
X135664342Y-51028360D01*
X135663000Y-51026999D01*
X135282001Y-50645999D01*
X135240784Y-50612143D01*
X135199986Y-50577910D01*
X135197330Y-50576449D01*
X135194983Y-50574522D01*
X135147955Y-50549306D01*
X135101304Y-50523659D01*
X135098415Y-50522742D01*
X135095738Y-50521307D01*
X135044692Y-50505700D01*
X134993965Y-50489609D01*
X134990954Y-50489271D01*
X134988049Y-50488383D01*
X134935018Y-50482996D01*
X134882056Y-50477056D01*
X134876119Y-50477014D01*
X134876014Y-50477004D01*
X134875915Y-50477013D01*
X134874000Y-50477000D01*
X107066002Y-50477000D01*
X107012959Y-50482200D01*
X106959862Y-50486847D01*
X106956951Y-50487692D01*
X106953929Y-50487989D01*
X106902878Y-50503401D01*
X106851722Y-50518264D01*
X106849028Y-50519659D01*
X106846124Y-50520537D01*
X106799052Y-50545564D01*
X106751745Y-50570087D01*
X106749374Y-50571979D01*
X106746695Y-50573404D01*
X106705396Y-50607086D01*
X106663737Y-50640343D01*
X106659513Y-50644507D01*
X106659428Y-50644578D01*
X106659362Y-50644657D01*
X106658001Y-50646000D01*
X105255999Y-52048001D01*
X105222143Y-52089217D01*
X105187910Y-52130016D01*
X105186449Y-52132671D01*
X105184522Y-52135019D01*
X105159306Y-52182046D01*
X105133659Y-52228698D01*
X105132742Y-52231586D01*
X105131307Y-52234264D01*
X105115700Y-52285309D01*
X105099609Y-52336037D01*
X105099271Y-52339047D01*
X105098383Y-52341953D01*
X105092996Y-52394983D01*
X105087056Y-52447946D01*
X105087014Y-52453882D01*
X105087004Y-52453988D01*
X105087013Y-52454086D01*
X105087000Y-52456002D01*
X105087000Y-85705542D01*
X105083118Y-85717930D01*
X105082900Y-85719934D01*
X105082307Y-85721875D01*
X105076819Y-85775898D01*
X105070955Y-85829882D01*
X105071131Y-85831903D01*
X105070928Y-85833910D01*
X105076035Y-85887949D01*
X105080771Y-85942064D01*
X105081334Y-85944002D01*
X105081525Y-85946021D01*
X105097049Y-85998097D01*
X105112188Y-86050204D01*
X105113119Y-86052001D01*
X105113697Y-86053938D01*
X105138989Y-86101908D01*
X105164011Y-86150181D01*
X105165275Y-86151764D01*
X105166217Y-86153551D01*
X105200344Y-86195695D01*
X105234267Y-86238189D01*
X105236998Y-86240958D01*
X105237085Y-86241066D01*
X105237190Y-86241154D01*
X105239923Y-86243925D01*
X114907999Y-95912000D01*
X114949185Y-95945831D01*
X114990014Y-95980090D01*
X114992670Y-95981550D01*
X114995017Y-95983478D01*
X115042009Y-96008674D01*
X115088696Y-96034341D01*
X115091588Y-96035258D01*
X115094262Y-96036692D01*
X115145261Y-96052284D01*
X115196035Y-96068391D01*
X115199045Y-96068728D01*
X115201951Y-96069617D01*
X115254981Y-96075003D01*
X115307944Y-96080944D01*
X115313880Y-96080985D01*
X115313986Y-96080996D01*
X115314084Y-96080986D01*
X115316000Y-96081000D01*
X142807635Y-96081000D01*
X142889747Y-96238063D01*
X143053691Y-96441969D01*
X143254118Y-96610147D01*
X143483394Y-96736193D01*
X143732787Y-96815305D01*
X143992795Y-96844469D01*
X144011513Y-96844600D01*
X144024487Y-96844600D01*
X144284878Y-96819068D01*
X144535350Y-96743446D01*
X144766364Y-96620614D01*
X144969120Y-96455251D01*
X145135895Y-96253654D01*
X145167400Y-96195386D01*
X145167400Y-96315695D01*
X145167400Y-96419505D01*
X145187652Y-96521320D01*
X145227379Y-96617228D01*
X145285052Y-96703543D01*
X145358457Y-96776948D01*
X145444772Y-96834621D01*
X145540680Y-96874348D01*
X145642495Y-96894600D01*
X146353250Y-96894600D01*
X146485000Y-96762850D01*
X146485000Y-95577000D01*
X146465000Y-95577000D01*
X146465000Y-95431000D01*
X146485000Y-95431000D01*
X146485000Y-95411000D01*
X146631000Y-95411000D01*
X146631000Y-95431000D01*
X147816850Y-95431000D01*
X147948600Y-95299250D01*
X147948600Y-94692305D01*
X147948600Y-94588495D01*
X147928348Y-94486680D01*
X147888621Y-94390772D01*
X147830948Y-94304457D01*
X147757543Y-94231052D01*
X147671228Y-94173379D01*
X147575320Y-94133652D01*
X147473505Y-94113400D01*
X147244702Y-94113400D01*
X147306364Y-94080614D01*
X147509120Y-93915251D01*
X147675895Y-93713654D01*
X147800337Y-93483503D01*
X147877706Y-93233565D01*
X147905054Y-92973359D01*
X147881341Y-92712797D01*
X147807470Y-92461802D01*
X147686253Y-92229937D01*
X147522309Y-92026031D01*
X147321882Y-91857853D01*
X147092606Y-91731807D01*
X146973777Y-91694112D01*
X147075350Y-91663446D01*
X147306364Y-91540614D01*
X147509120Y-91375251D01*
X147675895Y-91173654D01*
X147800337Y-90943503D01*
X147877706Y-90693565D01*
X147905054Y-90433359D01*
X147881341Y-90172797D01*
X147807470Y-89921802D01*
X147686253Y-89689937D01*
X147522309Y-89486031D01*
X147321882Y-89317853D01*
X147092606Y-89191807D01*
X146973777Y-89154112D01*
X147075350Y-89123446D01*
X147306364Y-89000614D01*
X147509120Y-88835251D01*
X147675895Y-88633654D01*
X147800337Y-88403503D01*
X147877706Y-88153565D01*
X147905054Y-87893359D01*
X147881341Y-87632797D01*
X147807470Y-87381802D01*
X147686253Y-87149937D01*
X147522309Y-86946031D01*
X147321882Y-86777853D01*
X147092606Y-86651807D01*
X146843213Y-86572695D01*
X146583205Y-86543531D01*
X146564487Y-86543400D01*
X146551513Y-86543400D01*
X146291122Y-86568932D01*
X146040650Y-86644554D01*
X145809636Y-86767386D01*
X145606880Y-86932749D01*
X145440105Y-87134346D01*
X145315663Y-87364497D01*
X145288347Y-87452738D01*
X145267470Y-87381802D01*
X145146253Y-87149937D01*
X144982309Y-86946031D01*
X144781882Y-86777853D01*
X144552606Y-86651807D01*
X144303213Y-86572695D01*
X144043205Y-86543531D01*
X144024487Y-86543400D01*
X144011513Y-86543400D01*
X143751122Y-86568932D01*
X143500650Y-86644554D01*
X143269636Y-86767386D01*
X143066880Y-86932749D01*
X142900105Y-87134346D01*
X142806751Y-87307000D01*
X140214232Y-87307000D01*
X140251867Y-87253650D01*
X140313844Y-87114446D01*
X140347603Y-86965855D01*
X140350034Y-86791811D01*
X140320437Y-86642336D01*
X140262370Y-86501455D01*
X140178046Y-86374537D01*
X140150000Y-86346294D01*
X140150000Y-84216526D01*
X140164031Y-84203165D01*
X140251867Y-84078650D01*
X140313844Y-83939446D01*
X140347603Y-83790855D01*
X140350034Y-83616811D01*
X140320437Y-83467336D01*
X140262370Y-83326455D01*
X140178046Y-83199537D01*
X140070675Y-83091414D01*
X139944348Y-83006206D01*
X139803877Y-82947157D01*
X139654612Y-82916517D01*
X139502238Y-82915453D01*
X139352559Y-82944006D01*
X139211277Y-83001088D01*
X139083773Y-83084524D01*
X138974903Y-83191137D01*
X138888815Y-83316866D01*
X138828787Y-83456922D01*
X138826034Y-83469873D01*
X138826034Y-69519811D01*
X138796437Y-69370336D01*
X138738370Y-69229455D01*
X138654046Y-69102537D01*
X138546675Y-68994414D01*
X138420348Y-68909206D01*
X138279877Y-68850157D01*
X138130612Y-68819517D01*
X137978238Y-68818453D01*
X137828559Y-68847006D01*
X137687277Y-68904088D01*
X137559773Y-68987524D01*
X137450903Y-69094137D01*
X137364815Y-69219866D01*
X137304787Y-69359922D01*
X137273106Y-69508970D01*
X137272441Y-69556556D01*
X135608999Y-71219999D01*
X135575143Y-71261215D01*
X135540910Y-71302014D01*
X135539449Y-71304669D01*
X135537522Y-71307017D01*
X135512306Y-71354044D01*
X135486659Y-71400696D01*
X135485742Y-71403584D01*
X135484307Y-71406262D01*
X135468700Y-71457307D01*
X135452609Y-71508035D01*
X135452271Y-71511045D01*
X135451383Y-71513951D01*
X135445996Y-71566981D01*
X135440056Y-71619944D01*
X135440014Y-71625880D01*
X135440004Y-71625986D01*
X135440013Y-71626084D01*
X135440000Y-71628000D01*
X135440000Y-71896998D01*
X133491998Y-73845000D01*
X129395072Y-73845000D01*
X129424605Y-73820913D01*
X129466265Y-73787657D01*
X129470492Y-73783488D01*
X129470574Y-73783422D01*
X129470636Y-73783346D01*
X129472001Y-73782001D01*
X131864001Y-71390000D01*
X131885899Y-71390459D01*
X132035962Y-71363999D01*
X132178027Y-71308895D01*
X132306684Y-71227247D01*
X132417031Y-71122165D01*
X132504867Y-70997650D01*
X132566844Y-70858446D01*
X132600603Y-70709855D01*
X132603034Y-70535811D01*
X132573437Y-70386336D01*
X132515370Y-70245455D01*
X132431046Y-70118537D01*
X132323675Y-70010414D01*
X132197348Y-69925206D01*
X132056877Y-69866157D01*
X131907612Y-69835517D01*
X131755238Y-69834453D01*
X131605559Y-69863006D01*
X131464277Y-69920088D01*
X131336773Y-70003524D01*
X131227903Y-70110137D01*
X131141815Y-70235866D01*
X131081787Y-70375922D01*
X131050106Y-70524970D01*
X131049441Y-70572556D01*
X130571034Y-71050963D01*
X130571034Y-62407811D01*
X130541437Y-62258336D01*
X130483370Y-62117455D01*
X130399046Y-61990537D01*
X130291675Y-61882414D01*
X130165348Y-61797206D01*
X130024877Y-61738157D01*
X129875612Y-61707517D01*
X129723238Y-61706453D01*
X129573559Y-61735006D01*
X129432277Y-61792088D01*
X129304773Y-61875524D01*
X129195903Y-61982137D01*
X129109815Y-62107866D01*
X129049787Y-62247922D01*
X129018106Y-62396970D01*
X129017441Y-62444556D01*
X128766566Y-62695431D01*
X128766566Y-60741339D01*
X128663132Y-60525000D01*
X127327000Y-60525000D01*
X127327000Y-61842600D01*
X127479400Y-61842600D01*
X127749290Y-61801638D01*
X128006003Y-61708811D01*
X128239673Y-61567685D01*
X128441321Y-61383684D01*
X128603198Y-61163879D01*
X128719083Y-60916717D01*
X128766566Y-60741339D01*
X128766566Y-62695431D01*
X127181000Y-64280997D01*
X127181000Y-61842600D01*
X127181000Y-60525000D01*
X125844868Y-60525000D01*
X125741434Y-60741339D01*
X125788917Y-60916717D01*
X125904802Y-61163879D01*
X126066679Y-61383684D01*
X126268327Y-61567685D01*
X126501997Y-61708811D01*
X126758710Y-61801638D01*
X127028600Y-61842600D01*
X127181000Y-61842600D01*
X127181000Y-64280997D01*
X126337999Y-65123999D01*
X126304143Y-65165215D01*
X126269910Y-65206014D01*
X126268449Y-65208669D01*
X126266522Y-65211017D01*
X126241306Y-65258044D01*
X126215659Y-65304696D01*
X126214742Y-65307584D01*
X126213307Y-65310262D01*
X126197700Y-65361307D01*
X126181609Y-65412035D01*
X126181271Y-65415045D01*
X126180383Y-65417951D01*
X126174996Y-65470981D01*
X126169056Y-65523944D01*
X126169014Y-65529880D01*
X126169004Y-65529986D01*
X126169013Y-65530084D01*
X126169000Y-65532000D01*
X126169000Y-67894692D01*
X125896000Y-67894692D01*
X125818596Y-67900983D01*
X125690145Y-67941149D01*
X125577925Y-68015442D01*
X125490782Y-68118004D01*
X125435587Y-68240749D01*
X125416692Y-68374000D01*
X125416692Y-70374000D01*
X125422983Y-70451404D01*
X125463149Y-70579855D01*
X125537442Y-70692075D01*
X125640004Y-70779218D01*
X125762749Y-70834413D01*
X125896000Y-70853308D01*
X127596000Y-70853308D01*
X127673404Y-70847017D01*
X127798662Y-70807849D01*
X127701743Y-70858087D01*
X127613736Y-70928342D01*
X127608000Y-70933999D01*
X127575999Y-70965999D01*
X127504522Y-71053017D01*
X127451307Y-71152262D01*
X127418383Y-71259951D01*
X127407004Y-71371986D01*
X127417601Y-71484097D01*
X127449773Y-71592014D01*
X127502293Y-71691627D01*
X127573161Y-71779142D01*
X127659678Y-71851226D01*
X127758548Y-71905131D01*
X127866006Y-71938806D01*
X127977958Y-71950969D01*
X128090140Y-71941153D01*
X128198280Y-71909736D01*
X128298257Y-71857913D01*
X128386265Y-71787657D01*
X128392001Y-71782001D01*
X128424001Y-71750000D01*
X128495478Y-71662983D01*
X128548693Y-71563738D01*
X128581617Y-71456048D01*
X128592996Y-71344014D01*
X128582399Y-71231903D01*
X128550227Y-71123985D01*
X128497707Y-71024372D01*
X128426839Y-70936857D01*
X128340322Y-70864774D01*
X128241452Y-70810869D01*
X128133994Y-70777193D01*
X128022042Y-70765031D01*
X127909861Y-70774847D01*
X127803539Y-70805735D01*
X127914075Y-70732558D01*
X128001218Y-70629996D01*
X128056413Y-70507251D01*
X128075308Y-70374000D01*
X128075308Y-68374000D01*
X128069017Y-68296596D01*
X128028851Y-68168145D01*
X127954558Y-68055925D01*
X127851996Y-67968782D01*
X127729251Y-67913587D01*
X127596000Y-67894692D01*
X127323000Y-67894692D01*
X127323000Y-65771002D01*
X129832001Y-63262000D01*
X129853899Y-63262459D01*
X130003962Y-63235999D01*
X130146027Y-63180895D01*
X130274684Y-63099247D01*
X130385031Y-62994165D01*
X130472867Y-62869650D01*
X130534844Y-62730446D01*
X130568603Y-62581855D01*
X130571034Y-62407811D01*
X130571034Y-71050963D01*
X128824998Y-72797000D01*
X128075308Y-72797000D01*
X128075308Y-72374000D01*
X128069017Y-72296596D01*
X128028851Y-72168145D01*
X127954558Y-72055925D01*
X127851996Y-71968782D01*
X127729251Y-71913587D01*
X127596000Y-71894692D01*
X125896000Y-71894692D01*
X125818596Y-71900983D01*
X125690145Y-71941149D01*
X125577925Y-72015442D01*
X125490782Y-72118004D01*
X125435587Y-72240749D01*
X125424207Y-72321000D01*
X124699001Y-72321000D01*
X123913422Y-71535420D01*
X123913422Y-65677463D01*
X123876192Y-65489439D01*
X123803151Y-65312228D01*
X123697080Y-65152578D01*
X123567984Y-65022578D01*
X123679452Y-64916430D01*
X123789939Y-64759805D01*
X123867900Y-64584702D01*
X123910365Y-64397791D01*
X123913422Y-64178863D01*
X123876192Y-63990839D01*
X123803151Y-63813628D01*
X123697080Y-63653978D01*
X123562020Y-63517972D01*
X123403115Y-63410789D01*
X123226418Y-63336513D01*
X123038658Y-63297971D01*
X122846989Y-63296633D01*
X122658710Y-63332549D01*
X122480993Y-63404351D01*
X122320607Y-63509305D01*
X122183661Y-63643413D01*
X122146489Y-63697700D01*
X122135182Y-63697700D01*
X122135182Y-61189316D01*
X122106709Y-60949599D01*
X122032018Y-60720042D01*
X121941404Y-60550515D01*
X121731495Y-60489743D01*
X121628257Y-60592981D01*
X121628257Y-60386505D01*
X121567485Y-60176596D01*
X121352348Y-60067090D01*
X121119982Y-60001659D01*
X120879316Y-59982818D01*
X120639599Y-60011291D01*
X120410042Y-60085982D01*
X120240515Y-60176596D01*
X120179743Y-60386505D01*
X120904000Y-61110762D01*
X121628257Y-60386505D01*
X121628257Y-60592981D01*
X121007238Y-61214000D01*
X121731495Y-61938257D01*
X121941404Y-61877485D01*
X122050910Y-61662348D01*
X122116341Y-61429982D01*
X122135182Y-61189316D01*
X122135182Y-63697700D01*
X122078727Y-63697700D01*
X122079551Y-63638736D01*
X122034774Y-63412599D01*
X121946927Y-63199466D01*
X121819355Y-63007455D01*
X121656918Y-62843879D01*
X121628257Y-62824546D01*
X121628257Y-62041495D01*
X120904000Y-61317238D01*
X120800762Y-61420476D01*
X120800762Y-61214000D01*
X120076505Y-60489743D01*
X119866596Y-60550515D01*
X119757090Y-60765652D01*
X119691659Y-60998018D01*
X119672818Y-61238684D01*
X119701291Y-61478401D01*
X119775982Y-61707958D01*
X119866596Y-61877485D01*
X120076505Y-61938257D01*
X120800762Y-61214000D01*
X120800762Y-61420476D01*
X120179743Y-62041495D01*
X120240515Y-62251404D01*
X120455652Y-62360910D01*
X120688018Y-62426341D01*
X120928684Y-62445182D01*
X121168401Y-62416709D01*
X121397958Y-62342018D01*
X121567485Y-62251404D01*
X121628257Y-62041495D01*
X121628257Y-62824546D01*
X121465802Y-62714970D01*
X121253287Y-62625637D01*
X121027468Y-62579283D01*
X120796946Y-62577673D01*
X120570502Y-62620870D01*
X120356760Y-62707227D01*
X120163863Y-62833455D01*
X119999157Y-62994747D01*
X119868917Y-63184958D01*
X119778103Y-63396844D01*
X119730173Y-63622334D01*
X119726955Y-63852839D01*
X119768569Y-64079580D01*
X119853432Y-64293919D01*
X119978311Y-64487692D01*
X120138449Y-64653520D01*
X120327746Y-64785085D01*
X120538993Y-64877377D01*
X120764143Y-64926879D01*
X120994620Y-64931707D01*
X121221645Y-64891676D01*
X121345049Y-64843810D01*
X121363681Y-64845703D01*
X121416644Y-64851644D01*
X121422580Y-64851685D01*
X121422686Y-64851696D01*
X121422784Y-64851686D01*
X121424700Y-64851700D01*
X122145038Y-64851700D01*
X122166328Y-64884735D01*
X122299476Y-65022614D01*
X122303050Y-65025098D01*
X122183661Y-65142013D01*
X122146489Y-65196300D01*
X121424700Y-65196300D01*
X121371657Y-65201500D01*
X121344298Y-65203894D01*
X121253287Y-65165637D01*
X121027468Y-65119283D01*
X120796946Y-65117673D01*
X120570502Y-65160870D01*
X120356760Y-65247227D01*
X120163863Y-65373455D01*
X119999157Y-65534747D01*
X119868917Y-65724958D01*
X119778103Y-65936844D01*
X119730173Y-66162334D01*
X119726955Y-66392839D01*
X119768569Y-66619580D01*
X119853432Y-66833919D01*
X119978311Y-67027692D01*
X120138449Y-67193520D01*
X120327746Y-67325085D01*
X120538993Y-67417377D01*
X120764143Y-67466879D01*
X120994620Y-67471707D01*
X121221645Y-67431676D01*
X121436571Y-67348312D01*
X121631212Y-67224789D01*
X121798153Y-67065813D01*
X121931037Y-66877438D01*
X122024801Y-66666841D01*
X122075874Y-66442042D01*
X122077155Y-66350300D01*
X122145038Y-66350300D01*
X122166328Y-66383335D01*
X122299476Y-66521214D01*
X122456869Y-66630605D01*
X122632512Y-66707341D01*
X122819714Y-66748500D01*
X123011346Y-66752514D01*
X123200109Y-66719231D01*
X123378811Y-66649917D01*
X123540647Y-66547212D01*
X123679452Y-66415030D01*
X123789939Y-66258405D01*
X123867900Y-66083302D01*
X123910365Y-65896391D01*
X123913422Y-65677463D01*
X123913422Y-71535420D01*
X123344001Y-70965999D01*
X123302784Y-70932143D01*
X123261986Y-70897910D01*
X123259330Y-70896449D01*
X123256983Y-70894522D01*
X123209955Y-70869306D01*
X123163304Y-70843659D01*
X123160415Y-70842742D01*
X123157738Y-70841307D01*
X123106692Y-70825700D01*
X123055965Y-70809609D01*
X123052954Y-70809271D01*
X123050049Y-70808383D01*
X122997018Y-70802996D01*
X122944056Y-70797056D01*
X122938119Y-70797014D01*
X122938014Y-70797004D01*
X122937915Y-70797013D01*
X122936000Y-70797000D01*
X122079551Y-70797000D01*
X122079551Y-68718736D01*
X122034774Y-68492599D01*
X121946927Y-68279466D01*
X121819355Y-68087455D01*
X121656918Y-67923879D01*
X121465802Y-67794970D01*
X121253287Y-67705637D01*
X121027468Y-67659283D01*
X120796946Y-67657673D01*
X120570502Y-67700870D01*
X120356760Y-67787227D01*
X120163863Y-67913455D01*
X119999157Y-68074747D01*
X119868917Y-68264958D01*
X119778103Y-68476844D01*
X119730173Y-68702334D01*
X119726955Y-68932839D01*
X119768569Y-69159580D01*
X119853432Y-69373919D01*
X119978311Y-69567692D01*
X120138449Y-69733520D01*
X120327746Y-69865085D01*
X120538993Y-69957377D01*
X120764143Y-70006879D01*
X120994620Y-70011707D01*
X121221645Y-69971676D01*
X121436571Y-69888312D01*
X121631212Y-69764789D01*
X121798153Y-69605813D01*
X121931037Y-69417438D01*
X122024801Y-69206841D01*
X122075874Y-68982042D01*
X122079551Y-68718736D01*
X122079551Y-70797000D01*
X121932000Y-70797000D01*
X121819355Y-70627455D01*
X121656918Y-70463879D01*
X121465802Y-70334970D01*
X121253287Y-70245637D01*
X121027468Y-70199283D01*
X120796946Y-70197673D01*
X120570502Y-70240870D01*
X120356760Y-70327227D01*
X120163863Y-70453455D01*
X119999157Y-70614747D01*
X119868917Y-70804958D01*
X119778103Y-71016844D01*
X119730173Y-71242334D01*
X119726955Y-71472839D01*
X119768569Y-71699580D01*
X119853432Y-71913919D01*
X119952086Y-72067000D01*
X119238001Y-72067000D01*
X117756001Y-70584999D01*
X117714784Y-70551143D01*
X117673986Y-70516910D01*
X117671330Y-70515449D01*
X117668983Y-70513522D01*
X117621955Y-70488306D01*
X117575304Y-70462659D01*
X117572415Y-70461742D01*
X117569738Y-70460307D01*
X117553690Y-70455400D01*
X117553690Y-54292335D01*
X117553690Y-54188525D01*
X117553690Y-53544750D01*
X117553690Y-53135250D01*
X117553690Y-52491475D01*
X117553690Y-52387665D01*
X117533438Y-52285850D01*
X117493711Y-52189942D01*
X117436038Y-52103627D01*
X117362633Y-52030222D01*
X117276318Y-51972549D01*
X117180410Y-51932822D01*
X117078595Y-51912570D01*
X116432610Y-51912570D01*
X116300860Y-52044320D01*
X116300860Y-53267000D01*
X117421940Y-53267000D01*
X117553690Y-53135250D01*
X117553690Y-53544750D01*
X117421940Y-53413000D01*
X116300860Y-53413000D01*
X116300860Y-54635680D01*
X116432610Y-54767430D01*
X117078595Y-54767430D01*
X117180410Y-54747178D01*
X117276318Y-54707451D01*
X117362633Y-54649778D01*
X117436038Y-54576373D01*
X117493711Y-54490058D01*
X117533438Y-54394150D01*
X117553690Y-54292335D01*
X117553690Y-70455400D01*
X117518692Y-70444700D01*
X117467965Y-70428609D01*
X117464954Y-70428271D01*
X117462049Y-70427383D01*
X117409018Y-70421996D01*
X117356056Y-70416056D01*
X117350119Y-70416014D01*
X117350014Y-70416004D01*
X117349915Y-70416013D01*
X117348000Y-70416000D01*
X117108090Y-70416000D01*
X117083675Y-70391414D01*
X116957348Y-70306206D01*
X116816877Y-70247157D01*
X116667612Y-70216517D01*
X116515238Y-70215453D01*
X116365559Y-70244006D01*
X116224277Y-70301088D01*
X116154860Y-70346513D01*
X116154860Y-54635680D01*
X116154860Y-53413000D01*
X116154860Y-53267000D01*
X116154860Y-52044320D01*
X116023110Y-51912570D01*
X115377125Y-51912570D01*
X115275310Y-51932822D01*
X115179402Y-51972549D01*
X115093087Y-52030222D01*
X115019682Y-52103627D01*
X114962009Y-52189942D01*
X114922282Y-52285850D01*
X114902030Y-52387665D01*
X114902030Y-52491475D01*
X114902030Y-53135250D01*
X115033780Y-53267000D01*
X116154860Y-53267000D01*
X116154860Y-53413000D01*
X115033780Y-53413000D01*
X114902030Y-53544750D01*
X114902030Y-54188525D01*
X114902030Y-54292335D01*
X114922282Y-54394150D01*
X114962009Y-54490058D01*
X115019682Y-54576373D01*
X115093087Y-54649778D01*
X115179402Y-54707451D01*
X115275310Y-54747178D01*
X115377125Y-54767430D01*
X116023110Y-54767430D01*
X116154860Y-54635680D01*
X116154860Y-70346513D01*
X116096773Y-70384524D01*
X115987903Y-70491137D01*
X115901815Y-70616866D01*
X115841787Y-70756922D01*
X115810106Y-70905970D01*
X115807978Y-71058332D01*
X115835485Y-71208207D01*
X115891579Y-71349884D01*
X115974123Y-71477967D01*
X116079974Y-71587579D01*
X116205099Y-71674543D01*
X116344732Y-71735547D01*
X116493555Y-71768268D01*
X116645899Y-71771459D01*
X116795962Y-71744999D01*
X116938027Y-71689895D01*
X117066684Y-71608247D01*
X117106847Y-71570000D01*
X117108998Y-71570000D01*
X118591000Y-73052001D01*
X118632168Y-73085817D01*
X118673014Y-73120090D01*
X118675672Y-73121551D01*
X118678018Y-73123478D01*
X118725023Y-73148682D01*
X118771696Y-73174341D01*
X118774584Y-73175257D01*
X118777262Y-73176693D01*
X118828294Y-73192295D01*
X118879035Y-73208391D01*
X118882047Y-73208728D01*
X118884952Y-73209617D01*
X118938021Y-73215007D01*
X118990944Y-73220944D01*
X118996869Y-73220985D01*
X118996986Y-73220997D01*
X118997094Y-73220986D01*
X118999000Y-73221000D01*
X119953792Y-73221000D01*
X119868917Y-73344958D01*
X119778103Y-73556844D01*
X119730173Y-73782334D01*
X119726955Y-74012839D01*
X119768569Y-74239580D01*
X119853432Y-74453919D01*
X119952086Y-74607000D01*
X118603001Y-74607000D01*
X117502001Y-73505999D01*
X115512000Y-71515998D01*
X115512000Y-71374000D01*
X115506704Y-71319992D01*
X115501780Y-71265881D01*
X115501208Y-71263938D01*
X115501011Y-71261927D01*
X115485322Y-71209963D01*
X115469985Y-71157852D01*
X115469048Y-71156059D01*
X115468463Y-71154122D01*
X115442949Y-71106138D01*
X115417813Y-71058056D01*
X115416546Y-71056481D01*
X115415596Y-71054693D01*
X115381283Y-71012622D01*
X115347251Y-70970294D01*
X115345698Y-70968991D01*
X115344422Y-70967426D01*
X115302588Y-70932817D01*
X115260986Y-70897910D01*
X115259215Y-70896936D01*
X115257654Y-70895645D01*
X115209850Y-70869798D01*
X115162304Y-70843659D01*
X115160375Y-70843047D01*
X115158596Y-70842085D01*
X115106703Y-70826021D01*
X115054965Y-70809609D01*
X115052955Y-70809383D01*
X115051022Y-70808785D01*
X114997014Y-70803108D01*
X114943056Y-70797056D01*
X114939170Y-70797028D01*
X114939028Y-70797014D01*
X114938885Y-70797027D01*
X114935000Y-70797000D01*
X114666278Y-70797000D01*
X114666278Y-54240430D01*
X114666278Y-52439570D01*
X114659987Y-52362166D01*
X114619821Y-52233715D01*
X114545528Y-52121495D01*
X114442966Y-52034352D01*
X114320221Y-51979157D01*
X114186970Y-51960262D01*
X112589310Y-51960262D01*
X112511906Y-51966553D01*
X112383455Y-52006719D01*
X112271235Y-52081012D01*
X112184092Y-52183574D01*
X112128897Y-52306319D01*
X112110002Y-52439570D01*
X112110002Y-52763000D01*
X109350268Y-52763000D01*
X109309996Y-52728782D01*
X109187251Y-52673587D01*
X109054000Y-52654692D01*
X107354000Y-52654692D01*
X107276596Y-52660983D01*
X107148145Y-52701149D01*
X107035925Y-52775442D01*
X106948782Y-52878004D01*
X106893587Y-53000749D01*
X106874692Y-53134000D01*
X106874692Y-55134000D01*
X106880983Y-55211404D01*
X106921149Y-55339855D01*
X106995442Y-55452075D01*
X107098004Y-55539218D01*
X107220749Y-55594413D01*
X107354000Y-55613308D01*
X109054000Y-55613308D01*
X109131404Y-55607017D01*
X109259855Y-55566851D01*
X109372075Y-55492558D01*
X109459218Y-55389996D01*
X109514413Y-55267251D01*
X109533308Y-55134000D01*
X109533308Y-53917000D01*
X112110002Y-53917000D01*
X112110002Y-54240430D01*
X112116293Y-54317834D01*
X112156459Y-54446285D01*
X112230752Y-54558505D01*
X112333314Y-54645648D01*
X112456059Y-54700843D01*
X112589310Y-54719738D01*
X114186970Y-54719738D01*
X114264374Y-54713447D01*
X114392825Y-54673281D01*
X114505045Y-54598988D01*
X114592188Y-54496426D01*
X114647383Y-54373681D01*
X114666278Y-54240430D01*
X114666278Y-70797000D01*
X114461808Y-70797000D01*
X114461808Y-61912500D01*
X114461808Y-60515500D01*
X114455517Y-60438096D01*
X114415351Y-60309645D01*
X114341058Y-60197425D01*
X114238496Y-60110282D01*
X114115751Y-60055087D01*
X113982500Y-60036192D01*
X112585500Y-60036192D01*
X112508096Y-60042483D01*
X112379645Y-60082649D01*
X112267425Y-60156942D01*
X112180282Y-60259504D01*
X112125087Y-60382249D01*
X112106192Y-60515500D01*
X112106192Y-61912500D01*
X112112483Y-61989904D01*
X112152649Y-62118355D01*
X112226942Y-62230575D01*
X112329504Y-62317718D01*
X112452249Y-62372913D01*
X112585500Y-62391808D01*
X113982500Y-62391808D01*
X114059904Y-62385517D01*
X114188355Y-62345351D01*
X114300575Y-62271058D01*
X114387718Y-62168496D01*
X114442913Y-62045751D01*
X114461808Y-61912500D01*
X114461808Y-70797000D01*
X114312000Y-70797000D01*
X114199355Y-70627455D01*
X114036918Y-70463879D01*
X113845802Y-70334970D01*
X113633287Y-70245637D01*
X113407468Y-70199283D01*
X113176946Y-70197673D01*
X112950502Y-70240870D01*
X112736760Y-70327227D01*
X112543863Y-70453455D01*
X112379157Y-70614747D01*
X112248917Y-70804958D01*
X112158103Y-71016844D01*
X112110173Y-71242334D01*
X112106955Y-71472839D01*
X112148569Y-71699580D01*
X112233432Y-71913919D01*
X112358311Y-72107692D01*
X112518449Y-72273520D01*
X112707746Y-72405085D01*
X112918993Y-72497377D01*
X113144143Y-72546879D01*
X113374620Y-72551707D01*
X113601645Y-72511676D01*
X113816571Y-72428312D01*
X114011212Y-72304789D01*
X114178153Y-72145813D01*
X114311037Y-71957438D01*
X114313903Y-71951000D01*
X114393953Y-71951000D01*
X114399264Y-71969280D01*
X114400659Y-71971973D01*
X114401537Y-71974878D01*
X114426564Y-72021949D01*
X114451087Y-72069257D01*
X114452979Y-72071627D01*
X114454404Y-72074307D01*
X114488086Y-72115605D01*
X114521343Y-72157265D01*
X114525511Y-72161492D01*
X114525578Y-72161574D01*
X114525653Y-72161636D01*
X114526999Y-72163001D01*
X116685999Y-74322001D01*
X117955999Y-75592000D01*
X117997185Y-75625831D01*
X118038014Y-75660090D01*
X118040670Y-75661550D01*
X118043017Y-75663478D01*
X118090009Y-75688674D01*
X118136696Y-75714341D01*
X118139588Y-75715258D01*
X118142262Y-75716692D01*
X118193261Y-75732284D01*
X118244035Y-75748391D01*
X118247045Y-75748728D01*
X118249951Y-75749617D01*
X118302981Y-75755003D01*
X118355944Y-75760944D01*
X118361880Y-75760985D01*
X118361986Y-75760996D01*
X118362084Y-75760986D01*
X118364000Y-75761000D01*
X119953792Y-75761000D01*
X119868917Y-75884958D01*
X119778103Y-76096844D01*
X119730173Y-76322334D01*
X119726955Y-76552839D01*
X119768569Y-76779580D01*
X119853432Y-76993919D01*
X119978311Y-77187692D01*
X120138449Y-77353520D01*
X120327746Y-77485085D01*
X120538993Y-77577377D01*
X120764143Y-77626879D01*
X120994620Y-77631707D01*
X121221645Y-77591676D01*
X121436571Y-77508312D01*
X121631212Y-77384789D01*
X121798153Y-77225813D01*
X121931037Y-77037438D01*
X122024801Y-76826841D01*
X122075874Y-76602042D01*
X122079551Y-76338736D01*
X122034774Y-76112599D01*
X121946927Y-75899466D01*
X121854930Y-75761000D01*
X122442998Y-75761000D01*
X122781999Y-76100000D01*
X122823158Y-76133808D01*
X122864014Y-76168090D01*
X122866673Y-76169552D01*
X122869017Y-76171477D01*
X122915970Y-76196653D01*
X122962696Y-76222341D01*
X122965588Y-76223258D01*
X122968262Y-76224692D01*
X123019220Y-76240271D01*
X123070035Y-76256391D01*
X123073050Y-76256729D01*
X123075951Y-76257616D01*
X123128932Y-76262997D01*
X123181944Y-76268944D01*
X123187880Y-76268985D01*
X123187986Y-76268996D01*
X123188084Y-76268986D01*
X123190000Y-76269000D01*
X124220998Y-76269000D01*
X124814000Y-76862001D01*
X124855168Y-76895817D01*
X124896014Y-76930090D01*
X124898672Y-76931551D01*
X124901018Y-76933478D01*
X124948023Y-76958682D01*
X124994696Y-76984341D01*
X124997584Y-76985257D01*
X125000262Y-76986693D01*
X125051294Y-77002295D01*
X125102035Y-77018391D01*
X125105047Y-77018728D01*
X125107952Y-77019617D01*
X125160976Y-77025002D01*
X125213944Y-77030944D01*
X125219880Y-77030985D01*
X125219986Y-77030996D01*
X125220084Y-77030986D01*
X125222000Y-77031000D01*
X126838192Y-77031000D01*
X126838192Y-77152500D01*
X126844483Y-77229904D01*
X126884649Y-77358355D01*
X126958942Y-77470575D01*
X127061504Y-77557718D01*
X127184249Y-77612913D01*
X127317500Y-77631808D01*
X128714500Y-77631808D01*
X128791904Y-77625517D01*
X128920355Y-77585351D01*
X129032575Y-77511058D01*
X129119718Y-77408496D01*
X129174913Y-77285751D01*
X129193808Y-77152500D01*
X129193808Y-75755500D01*
X129187517Y-75678096D01*
X129147351Y-75549645D01*
X129073058Y-75437425D01*
X128970496Y-75350282D01*
X128847751Y-75295087D01*
X128736666Y-75279335D01*
X129017001Y-74999000D01*
X133731000Y-74999000D01*
X133784042Y-74993799D01*
X133837140Y-74989153D01*
X133840050Y-74988307D01*
X133843073Y-74988011D01*
X133894123Y-74972598D01*
X133945280Y-74957736D01*
X133947973Y-74956340D01*
X133950878Y-74955463D01*
X133997949Y-74930435D01*
X134045257Y-74905913D01*
X134047627Y-74904020D01*
X134050307Y-74902596D01*
X134091605Y-74868913D01*
X134133265Y-74835657D01*
X134137492Y-74831488D01*
X134137574Y-74831422D01*
X134137636Y-74831346D01*
X134139001Y-74830001D01*
X136425000Y-72544001D01*
X136458831Y-72502814D01*
X136493090Y-72461986D01*
X136494550Y-72459329D01*
X136496478Y-72456983D01*
X136521674Y-72409990D01*
X136547341Y-72363304D01*
X136548258Y-72360411D01*
X136549692Y-72357738D01*
X136565284Y-72306738D01*
X136581391Y-72255965D01*
X136581728Y-72252954D01*
X136582617Y-72250049D01*
X136588003Y-72197018D01*
X136593944Y-72144056D01*
X136593985Y-72138119D01*
X136593996Y-72138014D01*
X136593986Y-72137915D01*
X136594000Y-72136000D01*
X136594000Y-71867002D01*
X138087001Y-70374000D01*
X138108899Y-70374459D01*
X138258962Y-70347999D01*
X138401027Y-70292895D01*
X138529684Y-70211247D01*
X138640031Y-70106165D01*
X138727867Y-69981650D01*
X138789844Y-69842446D01*
X138823603Y-69693855D01*
X138826034Y-69519811D01*
X138826034Y-83469873D01*
X138797106Y-83605970D01*
X138794978Y-83758332D01*
X138822485Y-83908207D01*
X138878579Y-84049884D01*
X138961123Y-84177967D01*
X138996000Y-84214083D01*
X138996000Y-86345477D01*
X138974903Y-86366137D01*
X138888815Y-86491866D01*
X138828787Y-86631922D01*
X138797106Y-86780970D01*
X138794978Y-86933332D01*
X138822485Y-87083207D01*
X138878579Y-87224884D01*
X138931499Y-87307000D01*
X136867182Y-87307000D01*
X136867182Y-84049316D01*
X136867182Y-81509316D01*
X136867182Y-78969316D01*
X136867182Y-76429316D01*
X136838709Y-76189599D01*
X136764018Y-75960042D01*
X136673404Y-75790515D01*
X136463495Y-75729743D01*
X136360257Y-75832981D01*
X136360257Y-75626505D01*
X136299485Y-75416596D01*
X136084348Y-75307090D01*
X135851982Y-75241659D01*
X135611316Y-75222818D01*
X135371599Y-75251291D01*
X135142042Y-75325982D01*
X134972515Y-75416596D01*
X134911743Y-75626505D01*
X135636000Y-76350762D01*
X136360257Y-75626505D01*
X136360257Y-75832981D01*
X135739238Y-76454000D01*
X136463495Y-77178257D01*
X136673404Y-77117485D01*
X136782910Y-76902348D01*
X136848341Y-76669982D01*
X136867182Y-76429316D01*
X136867182Y-78969316D01*
X136838709Y-78729599D01*
X136764018Y-78500042D01*
X136673404Y-78330515D01*
X136463495Y-78269743D01*
X136360257Y-78372981D01*
X136360257Y-78166505D01*
X136360257Y-77281495D01*
X135636000Y-76557238D01*
X135532762Y-76660476D01*
X135532762Y-76454000D01*
X134808505Y-75729743D01*
X134598596Y-75790515D01*
X134489090Y-76005652D01*
X134423659Y-76238018D01*
X134404818Y-76478684D01*
X134433291Y-76718401D01*
X134507982Y-76947958D01*
X134598596Y-77117485D01*
X134808505Y-77178257D01*
X135532762Y-76454000D01*
X135532762Y-76660476D01*
X134911743Y-77281495D01*
X134972515Y-77491404D01*
X135187652Y-77600910D01*
X135420018Y-77666341D01*
X135660684Y-77685182D01*
X135900401Y-77656709D01*
X136129958Y-77582018D01*
X136299485Y-77491404D01*
X136360257Y-77281495D01*
X136360257Y-78166505D01*
X136299485Y-77956596D01*
X136084348Y-77847090D01*
X135851982Y-77781659D01*
X135611316Y-77762818D01*
X135371599Y-77791291D01*
X135142042Y-77865982D01*
X134972515Y-77956596D01*
X134911743Y-78166505D01*
X135636000Y-78890762D01*
X136360257Y-78166505D01*
X136360257Y-78372981D01*
X135739238Y-78994000D01*
X136463495Y-79718257D01*
X136673404Y-79657485D01*
X136782910Y-79442348D01*
X136848341Y-79209982D01*
X136867182Y-78969316D01*
X136867182Y-81509316D01*
X136838709Y-81269599D01*
X136764018Y-81040042D01*
X136673404Y-80870515D01*
X136463495Y-80809743D01*
X136360257Y-80912981D01*
X136360257Y-80706505D01*
X136360257Y-79821495D01*
X135636000Y-79097238D01*
X135532762Y-79200476D01*
X135532762Y-78994000D01*
X134808505Y-78269743D01*
X134598596Y-78330515D01*
X134489090Y-78545652D01*
X134423659Y-78778018D01*
X134404818Y-79018684D01*
X134433291Y-79258401D01*
X134507982Y-79487958D01*
X134598596Y-79657485D01*
X134808505Y-79718257D01*
X135532762Y-78994000D01*
X135532762Y-79200476D01*
X134911743Y-79821495D01*
X134972515Y-80031404D01*
X135187652Y-80140910D01*
X135420018Y-80206341D01*
X135660684Y-80225182D01*
X135900401Y-80196709D01*
X136129958Y-80122018D01*
X136299485Y-80031404D01*
X136360257Y-79821495D01*
X136360257Y-80706505D01*
X136299485Y-80496596D01*
X136084348Y-80387090D01*
X135851982Y-80321659D01*
X135611316Y-80302818D01*
X135371599Y-80331291D01*
X135142042Y-80405982D01*
X134972515Y-80496596D01*
X134911743Y-80706505D01*
X135636000Y-81430762D01*
X136360257Y-80706505D01*
X136360257Y-80912981D01*
X135739238Y-81534000D01*
X136463495Y-82258257D01*
X136673404Y-82197485D01*
X136782910Y-81982348D01*
X136848341Y-81749982D01*
X136867182Y-81509316D01*
X136867182Y-84049316D01*
X136838709Y-83809599D01*
X136764018Y-83580042D01*
X136673404Y-83410515D01*
X136463495Y-83349743D01*
X136360257Y-83452981D01*
X136360257Y-83246505D01*
X136360257Y-82361495D01*
X135636000Y-81637238D01*
X135532762Y-81740476D01*
X135532762Y-81534000D01*
X134808505Y-80809743D01*
X134598596Y-80870515D01*
X134489090Y-81085652D01*
X134423659Y-81318018D01*
X134404818Y-81558684D01*
X134433291Y-81798401D01*
X134507982Y-82027958D01*
X134598596Y-82197485D01*
X134808505Y-82258257D01*
X135532762Y-81534000D01*
X135532762Y-81740476D01*
X134911743Y-82361495D01*
X134972515Y-82571404D01*
X135187652Y-82680910D01*
X135420018Y-82746341D01*
X135660684Y-82765182D01*
X135900401Y-82736709D01*
X136129958Y-82662018D01*
X136299485Y-82571404D01*
X136360257Y-82361495D01*
X136360257Y-83246505D01*
X136299485Y-83036596D01*
X136084348Y-82927090D01*
X135851982Y-82861659D01*
X135611316Y-82842818D01*
X135371599Y-82871291D01*
X135142042Y-82945982D01*
X134972515Y-83036596D01*
X134911743Y-83246505D01*
X135636000Y-83970762D01*
X136360257Y-83246505D01*
X136360257Y-83452981D01*
X135739238Y-84074000D01*
X136463495Y-84798257D01*
X136673404Y-84737485D01*
X136782910Y-84522348D01*
X136848341Y-84289982D01*
X136867182Y-84049316D01*
X136867182Y-87307000D01*
X136360257Y-87307000D01*
X136360257Y-84901495D01*
X135636000Y-84177238D01*
X135532762Y-84280476D01*
X135532762Y-84074000D01*
X134808505Y-83349743D01*
X134598596Y-83410515D01*
X134489090Y-83625652D01*
X134423659Y-83858018D01*
X134404818Y-84098684D01*
X134433291Y-84338401D01*
X134507982Y-84567958D01*
X134598596Y-84737485D01*
X134808505Y-84798257D01*
X135532762Y-84074000D01*
X135532762Y-84280476D01*
X134911743Y-84901495D01*
X134972515Y-85111404D01*
X135187652Y-85220910D01*
X135420018Y-85286341D01*
X135660684Y-85305182D01*
X135900401Y-85276709D01*
X136129958Y-85202018D01*
X136299485Y-85111404D01*
X136360257Y-84901495D01*
X136360257Y-87307000D01*
X129191551Y-87307000D01*
X129191551Y-83958736D01*
X129191551Y-81418736D01*
X129191551Y-78878736D01*
X129146774Y-78652599D01*
X129058927Y-78439466D01*
X128931355Y-78247455D01*
X128768918Y-78083879D01*
X128577802Y-77954970D01*
X128365287Y-77865637D01*
X128139468Y-77819283D01*
X127908946Y-77817673D01*
X127682502Y-77860870D01*
X127468760Y-77947227D01*
X127275863Y-78073455D01*
X127111157Y-78234747D01*
X126986365Y-78417000D01*
X121932000Y-78417000D01*
X121819355Y-78247455D01*
X121656918Y-78083879D01*
X121465802Y-77954970D01*
X121253287Y-77865637D01*
X121027468Y-77819283D01*
X120796946Y-77817673D01*
X120570502Y-77860870D01*
X120356760Y-77947227D01*
X120163863Y-78073455D01*
X119999157Y-78234747D01*
X119868917Y-78424958D01*
X119778103Y-78636844D01*
X119730173Y-78862334D01*
X119726955Y-79092839D01*
X119768569Y-79319580D01*
X119853432Y-79533919D01*
X119978311Y-79727692D01*
X120138449Y-79893520D01*
X120327746Y-80025085D01*
X120538993Y-80117377D01*
X120764143Y-80166879D01*
X120994620Y-80171707D01*
X121221645Y-80131676D01*
X121436571Y-80048312D01*
X121631212Y-79924789D01*
X121798153Y-79765813D01*
X121931037Y-79577438D01*
X121933903Y-79571000D01*
X126989329Y-79571000D01*
X127090311Y-79727692D01*
X127250449Y-79893520D01*
X127439746Y-80025085D01*
X127650993Y-80117377D01*
X127876143Y-80166879D01*
X128106620Y-80171707D01*
X128333645Y-80131676D01*
X128548571Y-80048312D01*
X128743212Y-79924789D01*
X128910153Y-79765813D01*
X129043037Y-79577438D01*
X129136801Y-79366841D01*
X129187874Y-79142042D01*
X129191551Y-78878736D01*
X129191551Y-81418736D01*
X129146774Y-81192599D01*
X129058927Y-80979466D01*
X128931355Y-80787455D01*
X128768918Y-80623879D01*
X128577802Y-80494970D01*
X128365287Y-80405637D01*
X128139468Y-80359283D01*
X127908946Y-80357673D01*
X127682502Y-80400870D01*
X127468760Y-80487227D01*
X127275863Y-80613455D01*
X127111157Y-80774747D01*
X126986365Y-80957000D01*
X121932000Y-80957000D01*
X121819355Y-80787455D01*
X121656918Y-80623879D01*
X121465802Y-80494970D01*
X121253287Y-80405637D01*
X121027468Y-80359283D01*
X120796946Y-80357673D01*
X120570502Y-80400870D01*
X120356760Y-80487227D01*
X120163863Y-80613455D01*
X119999157Y-80774747D01*
X119868917Y-80964958D01*
X119778103Y-81176844D01*
X119730173Y-81402334D01*
X119726955Y-81632839D01*
X119768569Y-81859580D01*
X119853432Y-82073919D01*
X119978311Y-82267692D01*
X120138449Y-82433520D01*
X120327746Y-82565085D01*
X120538993Y-82657377D01*
X120764143Y-82706879D01*
X120994620Y-82711707D01*
X121221645Y-82671676D01*
X121436571Y-82588312D01*
X121631212Y-82464789D01*
X121798153Y-82305813D01*
X121931037Y-82117438D01*
X121933903Y-82111000D01*
X126989329Y-82111000D01*
X127090311Y-82267692D01*
X127250449Y-82433520D01*
X127439746Y-82565085D01*
X127650993Y-82657377D01*
X127876143Y-82706879D01*
X128106620Y-82711707D01*
X128333645Y-82671676D01*
X128548571Y-82588312D01*
X128743212Y-82464789D01*
X128910153Y-82305813D01*
X129043037Y-82117438D01*
X129136801Y-81906841D01*
X129187874Y-81682042D01*
X129191551Y-81418736D01*
X129191551Y-83958736D01*
X129146774Y-83732599D01*
X129058927Y-83519466D01*
X128931355Y-83327455D01*
X128768918Y-83163879D01*
X128577802Y-83034970D01*
X128365287Y-82945637D01*
X128139468Y-82899283D01*
X127908946Y-82897673D01*
X127682502Y-82940870D01*
X127468760Y-83027227D01*
X127275863Y-83153455D01*
X127111157Y-83314747D01*
X126986365Y-83497000D01*
X121932000Y-83497000D01*
X121819355Y-83327455D01*
X121656918Y-83163879D01*
X121465802Y-83034970D01*
X121253287Y-82945637D01*
X121027468Y-82899283D01*
X120796946Y-82897673D01*
X120570502Y-82940870D01*
X120356760Y-83027227D01*
X120163863Y-83153455D01*
X119999157Y-83314747D01*
X119868917Y-83504958D01*
X119778103Y-83716844D01*
X119730173Y-83942334D01*
X119726955Y-84172839D01*
X119768569Y-84399580D01*
X119853432Y-84613919D01*
X119978311Y-84807692D01*
X120138449Y-84973520D01*
X120327746Y-85105085D01*
X120538993Y-85197377D01*
X120764143Y-85246879D01*
X120994620Y-85251707D01*
X121221645Y-85211676D01*
X121436571Y-85128312D01*
X121631212Y-85004789D01*
X121798153Y-84845813D01*
X121931037Y-84657438D01*
X121933903Y-84651000D01*
X126989329Y-84651000D01*
X127090311Y-84807692D01*
X127250449Y-84973520D01*
X127439746Y-85105085D01*
X127650993Y-85197377D01*
X127876143Y-85246879D01*
X128106620Y-85251707D01*
X128333645Y-85211676D01*
X128548571Y-85128312D01*
X128743212Y-85004789D01*
X128910153Y-84845813D01*
X129043037Y-84657438D01*
X129136801Y-84446841D01*
X129187874Y-84222042D01*
X129191551Y-83958736D01*
X129191551Y-87307000D01*
X115047001Y-87307000D01*
X113861000Y-86120998D01*
X113861000Y-85100116D01*
X114011212Y-85004789D01*
X114178153Y-84845813D01*
X114311037Y-84657438D01*
X114404801Y-84446841D01*
X114455874Y-84222042D01*
X114459551Y-83958736D01*
X114414774Y-83732599D01*
X114326927Y-83519466D01*
X114199355Y-83327455D01*
X114036918Y-83163879D01*
X113845802Y-83034970D01*
X113633287Y-82945637D01*
X113407468Y-82899283D01*
X113176946Y-82897673D01*
X112950502Y-82940870D01*
X112736760Y-83027227D01*
X112543863Y-83153455D01*
X112379157Y-83314747D01*
X112248917Y-83504958D01*
X112158103Y-83716844D01*
X112110173Y-83942334D01*
X112106955Y-84172839D01*
X112148569Y-84399580D01*
X112233432Y-84613919D01*
X112358311Y-84807692D01*
X112518449Y-84973520D01*
X112707000Y-85104566D01*
X112707000Y-86360000D01*
X112712200Y-86413042D01*
X112716847Y-86466140D01*
X112717692Y-86469050D01*
X112717989Y-86472073D01*
X112733401Y-86523123D01*
X112748264Y-86574280D01*
X112749659Y-86576973D01*
X112750537Y-86579878D01*
X112775564Y-86626949D01*
X112800087Y-86674257D01*
X112801979Y-86676627D01*
X112803404Y-86679307D01*
X112837086Y-86720605D01*
X112870343Y-86762265D01*
X112874511Y-86766492D01*
X112874578Y-86766574D01*
X112874653Y-86766636D01*
X112875999Y-86768001D01*
X114399999Y-88292000D01*
X114441158Y-88325808D01*
X114482014Y-88360090D01*
X114484673Y-88361552D01*
X114487017Y-88363477D01*
X114533970Y-88388653D01*
X114580696Y-88414341D01*
X114583588Y-88415258D01*
X114586262Y-88416692D01*
X114637261Y-88432284D01*
X114688035Y-88448391D01*
X114691045Y-88448728D01*
X114693951Y-88449617D01*
X114746981Y-88455003D01*
X114799944Y-88460944D01*
X114805880Y-88460985D01*
X114805986Y-88460996D01*
X114806084Y-88460986D01*
X114808000Y-88461000D01*
X142807635Y-88461000D01*
X142889747Y-88618063D01*
X143053691Y-88821969D01*
X143254118Y-88990147D01*
X143483394Y-89116193D01*
X143602222Y-89153887D01*
X143500650Y-89184554D01*
X143269636Y-89307386D01*
X143066880Y-89472749D01*
X142900105Y-89674346D01*
X142775663Y-89904497D01*
X142698294Y-90154435D01*
X142670946Y-90414641D01*
X142694659Y-90675203D01*
X142768530Y-90926198D01*
X142889747Y-91158063D01*
X143053691Y-91361969D01*
X143254118Y-91530147D01*
X143483394Y-91656193D01*
X143602222Y-91693887D01*
X143500650Y-91724554D01*
X143269636Y-91847386D01*
X143066880Y-92012749D01*
X142900105Y-92214346D01*
X142806751Y-92387000D01*
X134762034Y-92387000D01*
X134762034Y-91490811D01*
X134732437Y-91341336D01*
X134674370Y-91200455D01*
X134590046Y-91073537D01*
X134562000Y-91045294D01*
X134562000Y-89804526D01*
X134576031Y-89791165D01*
X134663867Y-89666650D01*
X134725844Y-89527446D01*
X134759603Y-89378855D01*
X134762034Y-89204811D01*
X134732437Y-89055336D01*
X134674370Y-88914455D01*
X134590046Y-88787537D01*
X134482675Y-88679414D01*
X134356348Y-88594206D01*
X134215877Y-88535157D01*
X134066612Y-88504517D01*
X133914238Y-88503453D01*
X133764559Y-88532006D01*
X133623277Y-88589088D01*
X133495773Y-88672524D01*
X133386903Y-88779137D01*
X133300815Y-88904866D01*
X133240787Y-89044922D01*
X133209106Y-89193970D01*
X133206978Y-89346332D01*
X133234485Y-89496207D01*
X133290579Y-89637884D01*
X133373123Y-89765967D01*
X133408000Y-89802083D01*
X133408000Y-91044477D01*
X133386903Y-91065137D01*
X133300815Y-91190866D01*
X133240787Y-91330922D01*
X133209106Y-91479970D01*
X133206978Y-91632332D01*
X133234485Y-91782207D01*
X133290579Y-91923884D01*
X133373123Y-92051967D01*
X133478974Y-92161579D01*
X133604099Y-92248543D01*
X133743732Y-92309547D01*
X133892555Y-92342268D01*
X134044899Y-92345459D01*
X134194962Y-92318999D01*
X134337027Y-92263895D01*
X134465684Y-92182247D01*
X134576031Y-92077165D01*
X134663867Y-91952650D01*
X134725844Y-91813446D01*
X134759603Y-91664855D01*
X134762034Y-91490811D01*
X134762034Y-92387000D01*
X132827002Y-92387000D01*
X129948001Y-89507999D01*
X129906784Y-89474143D01*
X129865986Y-89439910D01*
X129863330Y-89438449D01*
X129860983Y-89436522D01*
X129813955Y-89411306D01*
X129767304Y-89385659D01*
X129764415Y-89384742D01*
X129761738Y-89383307D01*
X129710692Y-89367700D01*
X129659965Y-89351609D01*
X129656954Y-89351271D01*
X129654049Y-89350383D01*
X129601018Y-89344996D01*
X129548056Y-89339056D01*
X129542119Y-89339014D01*
X129542014Y-89339004D01*
X129541915Y-89339013D01*
X129540000Y-89339000D01*
X114539002Y-89339000D01*
X111829000Y-86628998D01*
X111829000Y-82111000D01*
X112257329Y-82111000D01*
X112358311Y-82267692D01*
X112518449Y-82433520D01*
X112707746Y-82565085D01*
X112918993Y-82657377D01*
X113144143Y-82706879D01*
X113374620Y-82711707D01*
X113601645Y-82671676D01*
X113816571Y-82588312D01*
X114011212Y-82464789D01*
X114178153Y-82305813D01*
X114311037Y-82117438D01*
X114404801Y-81906841D01*
X114455874Y-81682042D01*
X114459551Y-81418736D01*
X114459551Y-78878736D01*
X114459551Y-76338736D01*
X114459551Y-73798736D01*
X114414774Y-73572599D01*
X114326927Y-73359466D01*
X114199355Y-73167455D01*
X114036918Y-73003879D01*
X113845802Y-72874970D01*
X113633287Y-72785637D01*
X113407468Y-72739283D01*
X113176946Y-72737673D01*
X112950502Y-72780870D01*
X112736760Y-72867227D01*
X112543863Y-72993455D01*
X112379157Y-73154747D01*
X112248917Y-73344958D01*
X112158103Y-73556844D01*
X112110173Y-73782334D01*
X112106955Y-74012839D01*
X112148569Y-74239580D01*
X112233432Y-74453919D01*
X112358311Y-74647692D01*
X112518449Y-74813520D01*
X112707746Y-74945085D01*
X112918993Y-75037377D01*
X113144143Y-75086879D01*
X113374620Y-75091707D01*
X113601645Y-75051676D01*
X113816571Y-74968312D01*
X114011212Y-74844789D01*
X114178153Y-74685813D01*
X114311037Y-74497438D01*
X114404801Y-74286841D01*
X114455874Y-74062042D01*
X114459551Y-73798736D01*
X114459551Y-76338736D01*
X114414774Y-76112599D01*
X114326927Y-75899466D01*
X114199355Y-75707455D01*
X114036918Y-75543879D01*
X113845802Y-75414970D01*
X113633287Y-75325637D01*
X113407468Y-75279283D01*
X113176946Y-75277673D01*
X112950502Y-75320870D01*
X112736760Y-75407227D01*
X112543863Y-75533455D01*
X112379157Y-75694747D01*
X112248917Y-75884958D01*
X112158103Y-76096844D01*
X112110173Y-76322334D01*
X112106955Y-76552839D01*
X112148569Y-76779580D01*
X112233432Y-76993919D01*
X112358311Y-77187692D01*
X112518449Y-77353520D01*
X112707746Y-77485085D01*
X112918993Y-77577377D01*
X113144143Y-77626879D01*
X113374620Y-77631707D01*
X113601645Y-77591676D01*
X113816571Y-77508312D01*
X114011212Y-77384789D01*
X114178153Y-77225813D01*
X114311037Y-77037438D01*
X114404801Y-76826841D01*
X114455874Y-76602042D01*
X114459551Y-76338736D01*
X114459551Y-78878736D01*
X114414774Y-78652599D01*
X114326927Y-78439466D01*
X114199355Y-78247455D01*
X114036918Y-78083879D01*
X113845802Y-77954970D01*
X113633287Y-77865637D01*
X113407468Y-77819283D01*
X113176946Y-77817673D01*
X112950502Y-77860870D01*
X112736760Y-77947227D01*
X112543863Y-78073455D01*
X112379157Y-78234747D01*
X112248917Y-78424958D01*
X112158103Y-78636844D01*
X112110173Y-78862334D01*
X112106955Y-79092839D01*
X112148569Y-79319580D01*
X112233432Y-79533919D01*
X112358311Y-79727692D01*
X112518449Y-79893520D01*
X112707746Y-80025085D01*
X112918993Y-80117377D01*
X113144143Y-80166879D01*
X113374620Y-80171707D01*
X113601645Y-80131676D01*
X113816571Y-80048312D01*
X114011212Y-79924789D01*
X114178153Y-79765813D01*
X114311037Y-79577438D01*
X114404801Y-79366841D01*
X114455874Y-79142042D01*
X114459551Y-78878736D01*
X114459551Y-81418736D01*
X114414774Y-81192599D01*
X114326927Y-80979466D01*
X114199355Y-80787455D01*
X114036918Y-80623879D01*
X113845802Y-80494970D01*
X113633287Y-80405637D01*
X113407468Y-80359283D01*
X113176946Y-80357673D01*
X112950502Y-80400870D01*
X112736760Y-80487227D01*
X112543863Y-80613455D01*
X112379157Y-80774747D01*
X112254365Y-80957000D01*
X111252000Y-80957000D01*
X111197992Y-80962295D01*
X111143881Y-80967220D01*
X111141938Y-80967791D01*
X111139927Y-80967989D01*
X111087963Y-80983677D01*
X111035852Y-80999015D01*
X111034059Y-80999951D01*
X111032122Y-81000537D01*
X110984138Y-81026050D01*
X110936056Y-81051187D01*
X110934481Y-81052453D01*
X110932693Y-81053404D01*
X110890622Y-81087716D01*
X110848294Y-81121749D01*
X110846991Y-81123301D01*
X110845426Y-81124578D01*
X110810817Y-81166411D01*
X110775910Y-81208014D01*
X110774936Y-81209784D01*
X110773645Y-81211346D01*
X110747798Y-81259149D01*
X110721659Y-81306696D01*
X110721047Y-81308624D01*
X110720085Y-81310404D01*
X110704021Y-81362296D01*
X110687609Y-81414035D01*
X110687383Y-81416044D01*
X110686785Y-81417978D01*
X110681108Y-81471985D01*
X110675056Y-81525944D01*
X110675028Y-81529829D01*
X110675014Y-81529972D01*
X110675027Y-81530114D01*
X110675000Y-81534000D01*
X110675000Y-86868000D01*
X110680200Y-86921042D01*
X110684847Y-86974140D01*
X110685692Y-86977050D01*
X110685989Y-86980073D01*
X110701401Y-87031123D01*
X110716264Y-87082280D01*
X110717659Y-87084973D01*
X110718537Y-87087878D01*
X110743564Y-87134949D01*
X110768087Y-87182257D01*
X110769979Y-87184627D01*
X110771404Y-87187307D01*
X110805086Y-87228605D01*
X110838343Y-87270265D01*
X110842511Y-87274492D01*
X110842578Y-87274574D01*
X110842653Y-87274636D01*
X110843999Y-87276001D01*
X113891999Y-90324001D01*
X113933215Y-90357856D01*
X113974014Y-90392090D01*
X113976669Y-90393550D01*
X113979017Y-90395478D01*
X114026044Y-90420693D01*
X114072696Y-90446341D01*
X114075584Y-90447257D01*
X114078262Y-90448693D01*
X114129307Y-90464299D01*
X114180035Y-90480391D01*
X114183045Y-90480728D01*
X114185951Y-90481617D01*
X114238981Y-90487003D01*
X114291944Y-90492944D01*
X114297880Y-90492985D01*
X114297986Y-90492996D01*
X114298084Y-90492986D01*
X114300000Y-90493000D01*
X129300998Y-90493000D01*
X132179999Y-93372001D01*
X132221215Y-93405856D01*
X132262014Y-93440090D01*
X132264669Y-93441550D01*
X132267017Y-93443478D01*
X132314044Y-93468693D01*
X132360696Y-93494341D01*
X132363584Y-93495257D01*
X132366262Y-93496693D01*
X132417307Y-93512299D01*
X132468035Y-93528391D01*
X132471045Y-93528728D01*
X132473951Y-93529617D01*
X132526981Y-93535003D01*
X132579944Y-93540944D01*
X132585880Y-93540985D01*
X132585986Y-93540996D01*
X132586084Y-93540986D01*
X132588000Y-93541000D01*
X142807635Y-93541000D01*
X142889747Y-93698063D01*
X143053691Y-93901969D01*
X143254118Y-94070147D01*
X143483394Y-94196193D01*
X143602222Y-94233887D01*
X143500650Y-94264554D01*
X143269636Y-94387386D01*
X143066880Y-94552749D01*
X142900105Y-94754346D01*
X142806751Y-94927000D01*
X123078034Y-94927000D01*
X123078034Y-92760811D01*
X123048437Y-92611336D01*
X122990370Y-92470455D01*
X122906046Y-92343537D01*
X122798675Y-92235414D01*
X122672348Y-92150206D01*
X122531877Y-92091157D01*
X122382612Y-92060517D01*
X122230238Y-92059453D01*
X122080559Y-92088006D01*
X121939277Y-92145088D01*
X121811773Y-92228524D01*
X121702903Y-92335137D01*
X121667391Y-92387000D01*
X115301001Y-92387000D01*
X110051000Y-87136998D01*
X110051000Y-72883001D01*
X112966237Y-69967764D01*
X113144143Y-70006879D01*
X113374620Y-70011707D01*
X113601645Y-69971676D01*
X113816571Y-69888312D01*
X114011212Y-69764789D01*
X114178153Y-69605813D01*
X114311037Y-69417438D01*
X114404801Y-69206841D01*
X114455874Y-68982042D01*
X114459551Y-68718736D01*
X114459551Y-66178736D01*
X114459551Y-63638736D01*
X114414774Y-63412599D01*
X114326927Y-63199466D01*
X114199355Y-63007455D01*
X114036918Y-62843879D01*
X113845802Y-62714970D01*
X113633287Y-62625637D01*
X113407468Y-62579283D01*
X113176946Y-62577673D01*
X112950502Y-62620870D01*
X112736760Y-62707227D01*
X112543863Y-62833455D01*
X112379157Y-62994747D01*
X112254365Y-63177000D01*
X110729001Y-63177000D01*
X108781000Y-61228998D01*
X108781000Y-59613308D01*
X109054000Y-59613308D01*
X109131404Y-59607017D01*
X109259855Y-59566851D01*
X109372075Y-59492558D01*
X109459218Y-59389996D01*
X109514413Y-59267251D01*
X109533308Y-59134000D01*
X109533308Y-57134000D01*
X109527017Y-57056596D01*
X109486851Y-56928145D01*
X109412558Y-56815925D01*
X109309996Y-56728782D01*
X109187251Y-56673587D01*
X109054000Y-56654692D01*
X107354000Y-56654692D01*
X107276596Y-56660983D01*
X107148145Y-56701149D01*
X107035925Y-56775442D01*
X106948782Y-56878004D01*
X106893587Y-57000749D01*
X106874692Y-57134000D01*
X106874692Y-59134000D01*
X106880983Y-59211404D01*
X106921149Y-59339855D01*
X106995442Y-59452075D01*
X107098004Y-59539218D01*
X107220749Y-59594413D01*
X107354000Y-59613308D01*
X107627000Y-59613308D01*
X107627000Y-61468000D01*
X107632200Y-61521042D01*
X107636847Y-61574140D01*
X107637692Y-61577050D01*
X107637989Y-61580073D01*
X107653401Y-61631123D01*
X107668264Y-61682280D01*
X107669659Y-61684973D01*
X107670537Y-61687878D01*
X107695564Y-61734949D01*
X107720087Y-61782257D01*
X107721979Y-61784627D01*
X107723404Y-61787307D01*
X107757086Y-61828605D01*
X107790343Y-61870265D01*
X107794511Y-61874492D01*
X107794578Y-61874574D01*
X107794653Y-61874636D01*
X107795999Y-61876001D01*
X110081999Y-64162000D01*
X110123185Y-64195831D01*
X110164014Y-64230090D01*
X110166670Y-64231550D01*
X110169017Y-64233478D01*
X110216009Y-64258674D01*
X110262696Y-64284341D01*
X110265588Y-64285258D01*
X110268262Y-64286692D01*
X110319261Y-64302284D01*
X110370035Y-64318391D01*
X110373045Y-64318728D01*
X110375951Y-64319617D01*
X110428981Y-64325003D01*
X110481944Y-64330944D01*
X110487880Y-64330985D01*
X110487986Y-64330996D01*
X110488084Y-64330986D01*
X110490000Y-64331000D01*
X112257329Y-64331000D01*
X112358311Y-64487692D01*
X112518449Y-64653520D01*
X112707746Y-64785085D01*
X112918993Y-64877377D01*
X113144143Y-64926879D01*
X113374620Y-64931707D01*
X113601645Y-64891676D01*
X113816571Y-64808312D01*
X114011212Y-64684789D01*
X114178153Y-64525813D01*
X114311037Y-64337438D01*
X114404801Y-64126841D01*
X114455874Y-63902042D01*
X114459551Y-63638736D01*
X114459551Y-66178736D01*
X114414774Y-65952599D01*
X114326927Y-65739466D01*
X114199355Y-65547455D01*
X114036918Y-65383879D01*
X113845802Y-65254970D01*
X113633287Y-65165637D01*
X113407468Y-65119283D01*
X113176946Y-65117673D01*
X112950502Y-65160870D01*
X112736760Y-65247227D01*
X112543863Y-65373455D01*
X112379157Y-65534747D01*
X112248917Y-65724958D01*
X112158103Y-65936844D01*
X112110173Y-66162334D01*
X112106955Y-66392839D01*
X112148569Y-66619580D01*
X112233432Y-66833919D01*
X112358311Y-67027692D01*
X112518449Y-67193520D01*
X112707746Y-67325085D01*
X112918993Y-67417377D01*
X113144143Y-67466879D01*
X113374620Y-67471707D01*
X113601645Y-67431676D01*
X113816571Y-67348312D01*
X114011212Y-67224789D01*
X114178153Y-67065813D01*
X114311037Y-66877438D01*
X114404801Y-66666841D01*
X114455874Y-66442042D01*
X114459551Y-66178736D01*
X114459551Y-68718736D01*
X114414774Y-68492599D01*
X114326927Y-68279466D01*
X114199355Y-68087455D01*
X114036918Y-67923879D01*
X113845802Y-67794970D01*
X113633287Y-67705637D01*
X113407468Y-67659283D01*
X113176946Y-67657673D01*
X112950502Y-67700870D01*
X112736760Y-67787227D01*
X112543863Y-67913455D01*
X112379157Y-68074747D01*
X112248917Y-68264958D01*
X112158103Y-68476844D01*
X112110173Y-68702334D01*
X112106955Y-68932839D01*
X112147615Y-69154383D01*
X109065999Y-72235999D01*
X109032143Y-72277215D01*
X108997910Y-72318014D01*
X108996449Y-72320669D01*
X108994522Y-72323017D01*
X108969306Y-72370044D01*
X108943659Y-72416696D01*
X108942742Y-72419584D01*
X108941307Y-72422262D01*
X108925700Y-72473307D01*
X108909609Y-72524035D01*
X108909271Y-72527045D01*
X108908383Y-72529951D01*
X108902996Y-72582981D01*
X108897056Y-72635944D01*
X108897014Y-72641880D01*
X108897004Y-72641986D01*
X108897013Y-72642084D01*
X108897000Y-72644000D01*
X108897000Y-87376000D01*
X108902200Y-87429042D01*
X108906847Y-87482140D01*
X108907692Y-87485050D01*
X108907989Y-87488073D01*
X108923401Y-87539123D01*
X108938264Y-87590280D01*
X108939659Y-87592973D01*
X108940537Y-87595878D01*
X108965564Y-87642949D01*
X108990087Y-87690257D01*
X108991979Y-87692627D01*
X108993404Y-87695307D01*
X109027086Y-87736605D01*
X109060343Y-87778265D01*
X109064511Y-87782492D01*
X109064578Y-87782574D01*
X109064653Y-87782636D01*
X109065999Y-87784001D01*
X114653999Y-93372000D01*
X114695185Y-93405831D01*
X114736014Y-93440090D01*
X114738670Y-93441550D01*
X114741017Y-93443478D01*
X114788009Y-93468674D01*
X114834696Y-93494341D01*
X114837588Y-93495258D01*
X114840262Y-93496692D01*
X114891261Y-93512284D01*
X114942035Y-93528391D01*
X114945045Y-93528728D01*
X114947951Y-93529617D01*
X115000981Y-93535003D01*
X115053944Y-93540944D01*
X115059880Y-93540985D01*
X115059986Y-93540996D01*
X115060084Y-93540986D01*
X115062000Y-93541000D01*
X121971501Y-93541000D01*
X122059732Y-93579547D01*
X122208555Y-93612268D01*
X122360899Y-93615459D01*
X122510962Y-93588999D01*
X122653027Y-93533895D01*
X122781684Y-93452247D01*
X122892031Y-93347165D01*
X122979867Y-93222650D01*
X123041844Y-93083446D01*
X123075603Y-92934855D01*
X123078034Y-92760811D01*
X123078034Y-94927000D01*
X115555001Y-94927000D01*
X106241000Y-85612998D01*
X106241000Y-52695003D01*
X107305003Y-51631000D01*
X125901947Y-51631000D01*
X125832782Y-51712404D01*
X125777587Y-51835149D01*
X125758692Y-51968400D01*
X125758692Y-53695600D01*
X125764983Y-53773004D01*
X125805149Y-53901455D01*
X125879442Y-54013675D01*
X125982004Y-54100818D01*
X126104749Y-54156013D01*
X126238000Y-54174908D01*
X126503856Y-54174908D01*
X126352499Y-54255386D01*
X126149743Y-54420749D01*
X125982968Y-54622346D01*
X125858526Y-54852497D01*
X125781157Y-55102435D01*
X125753809Y-55362641D01*
X125777522Y-55623203D01*
X125851393Y-55874198D01*
X125972610Y-56106063D01*
X126136554Y-56309969D01*
X126336981Y-56478147D01*
X126566257Y-56604193D01*
X126685085Y-56641887D01*
X126583513Y-56672554D01*
X126352499Y-56795386D01*
X126149743Y-56960749D01*
X125982968Y-57162346D01*
X125858526Y-57392497D01*
X125781157Y-57642435D01*
X125753809Y-57902641D01*
X125777522Y-58163203D01*
X125851393Y-58414198D01*
X125972610Y-58646063D01*
X126136554Y-58849969D01*
X126336981Y-59018147D01*
X126566257Y-59144193D01*
X126607151Y-59157165D01*
X126501997Y-59195189D01*
X126268327Y-59336315D01*
X126066679Y-59520316D01*
X125904802Y-59740121D01*
X125788917Y-59987283D01*
X125741434Y-60162661D01*
X125844868Y-60379000D01*
X127181000Y-60379000D01*
X127181000Y-60359000D01*
X127327000Y-60359000D01*
X127327000Y-60379000D01*
X128663132Y-60379000D01*
X128766566Y-60162661D01*
X128719083Y-59987283D01*
X128603198Y-59740121D01*
X128441321Y-59520316D01*
X128239673Y-59336315D01*
X128006003Y-59195189D01*
X127902984Y-59157937D01*
X127924487Y-59151446D01*
X128155501Y-59028614D01*
X128358257Y-58863251D01*
X128525032Y-58661654D01*
X128649474Y-58431503D01*
X128726843Y-58181565D01*
X128754191Y-57921359D01*
X128730478Y-57660797D01*
X128656607Y-57409802D01*
X128535390Y-57177937D01*
X128371446Y-56974031D01*
X128171019Y-56805853D01*
X127941743Y-56679807D01*
X127822914Y-56642112D01*
X127924487Y-56611446D01*
X128155501Y-56488614D01*
X128358257Y-56323251D01*
X128525032Y-56121654D01*
X128649474Y-55891503D01*
X128726843Y-55641565D01*
X128754191Y-55381359D01*
X128730478Y-55120797D01*
X128656607Y-54869802D01*
X128535390Y-54637937D01*
X128371446Y-54434031D01*
X128171019Y-54265853D01*
X128005591Y-54174908D01*
X128270000Y-54174908D01*
X128347404Y-54168617D01*
X128475855Y-54128451D01*
X128588075Y-54054158D01*
X128675218Y-53951596D01*
X128730413Y-53828851D01*
X128749308Y-53695600D01*
X128749308Y-51968400D01*
X128743017Y-51890996D01*
X128702851Y-51762545D01*
X128628558Y-51650325D01*
X128605813Y-51631000D01*
X134634998Y-51631000D01*
X134678000Y-51674001D01*
X134678000Y-52378092D01*
X134239000Y-52378092D01*
X134161596Y-52384383D01*
X134033145Y-52424549D01*
X133920925Y-52498842D01*
X133833782Y-52601404D01*
X133778587Y-52724149D01*
X133759692Y-52857400D01*
X133759692Y-54584600D01*
X133765983Y-54662004D01*
X133806149Y-54790455D01*
X133880442Y-54902675D01*
X133983004Y-54989818D01*
X134105749Y-55045013D01*
X134239000Y-55063908D01*
X134404117Y-55063908D01*
X134269327Y-55145315D01*
X134067679Y-55329316D01*
X133905802Y-55549121D01*
X133789917Y-55796283D01*
X133742434Y-55971661D01*
X133845868Y-56188000D01*
X135182000Y-56188000D01*
X135182000Y-56168000D01*
X135328000Y-56168000D01*
X135328000Y-56188000D01*
X136664132Y-56188000D01*
X136767566Y-55971661D01*
X136720083Y-55796283D01*
X136604198Y-55549121D01*
X136442321Y-55329316D01*
X136240673Y-55145315D01*
X136105882Y-55063908D01*
X136271000Y-55063908D01*
X136348404Y-55057617D01*
X136476855Y-55017451D01*
X136589075Y-54943158D01*
X136676218Y-54840596D01*
X136731413Y-54717851D01*
X136750308Y-54584600D01*
X136750308Y-54298000D01*
X137897397Y-54298000D01*
X137831903Y-54362137D01*
X137745815Y-54487866D01*
X137685787Y-54627922D01*
X137654106Y-54776970D01*
X137651978Y-54929332D01*
X137679485Y-55079207D01*
X137735579Y-55220884D01*
X137818123Y-55348967D01*
X137853000Y-55385083D01*
X137853000Y-57545998D01*
X137174998Y-58224000D01*
X136618501Y-58224000D01*
X136536390Y-58066937D01*
X136372446Y-57863031D01*
X136172019Y-57694853D01*
X135942743Y-57568807D01*
X135901848Y-57555834D01*
X136007003Y-57517811D01*
X136240673Y-57376685D01*
X136442321Y-57192684D01*
X136604198Y-56972879D01*
X136720083Y-56725717D01*
X136767566Y-56550339D01*
X136664132Y-56334000D01*
X135328000Y-56334000D01*
X135328000Y-56354000D01*
X135182000Y-56354000D01*
X135182000Y-56334000D01*
X133845868Y-56334000D01*
X133742434Y-56550339D01*
X133789917Y-56725717D01*
X133905802Y-56972879D01*
X134067679Y-57192684D01*
X134269327Y-57376685D01*
X134502997Y-57517811D01*
X134606015Y-57555062D01*
X134584513Y-57561554D01*
X134353499Y-57684386D01*
X134150743Y-57849749D01*
X133983968Y-58051346D01*
X133859526Y-58281497D01*
X133782157Y-58531435D01*
X133754809Y-58791641D01*
X133778522Y-59052203D01*
X133852393Y-59303198D01*
X133973610Y-59535063D01*
X134137554Y-59738969D01*
X134337981Y-59907147D01*
X134567257Y-60033193D01*
X134686085Y-60070887D01*
X134584513Y-60101554D01*
X134353499Y-60224386D01*
X134150743Y-60389749D01*
X133983968Y-60591346D01*
X133859526Y-60821497D01*
X133782157Y-61071435D01*
X133754809Y-61331641D01*
X133778522Y-61592203D01*
X133852393Y-61843198D01*
X133973610Y-62075063D01*
X134137554Y-62278969D01*
X134337981Y-62447147D01*
X134567257Y-62573193D01*
X134686085Y-62610887D01*
X134584513Y-62641554D01*
X134353499Y-62764386D01*
X134150743Y-62929749D01*
X133983968Y-63131346D01*
X133859526Y-63361497D01*
X133782157Y-63611435D01*
X133754809Y-63871641D01*
X133778522Y-64132203D01*
X133852393Y-64383198D01*
X133973610Y-64615063D01*
X134137554Y-64818969D01*
X134337981Y-64987147D01*
X134567257Y-65113193D01*
X134686085Y-65150887D01*
X134584513Y-65181554D01*
X134353499Y-65304386D01*
X134150743Y-65469749D01*
X133983968Y-65671346D01*
X133859526Y-65901497D01*
X133782157Y-66151435D01*
X133754809Y-66411641D01*
X133778522Y-66672203D01*
X133852393Y-66923198D01*
X133973610Y-67155063D01*
X134137554Y-67358969D01*
X134337981Y-67527147D01*
X134567257Y-67653193D01*
X134816650Y-67732305D01*
X135076658Y-67761469D01*
X135095376Y-67761600D01*
X135414624Y-67761600D01*
X135675015Y-67736068D01*
X135925487Y-67660446D01*
X136156501Y-67537614D01*
X136359257Y-67372251D01*
X136526032Y-67170654D01*
X136619385Y-66998000D01*
X137287000Y-66998000D01*
X137340042Y-66992799D01*
X137393140Y-66988153D01*
X137396050Y-66987307D01*
X137399073Y-66987011D01*
X137450123Y-66971598D01*
X137501280Y-66956736D01*
X137503973Y-66955340D01*
X137506878Y-66954463D01*
X137553949Y-66929435D01*
X137601257Y-66904913D01*
X137603627Y-66903020D01*
X137606307Y-66901596D01*
X137647605Y-66867913D01*
X137689265Y-66834657D01*
X137693492Y-66830488D01*
X137693574Y-66830422D01*
X137693636Y-66830346D01*
X137695001Y-66829001D01*
X141378001Y-63146000D01*
X141411817Y-63104831D01*
X141446090Y-63063986D01*
X141447551Y-63061327D01*
X141449478Y-63058982D01*
X141474682Y-63011976D01*
X141500341Y-62965304D01*
X141501257Y-62962415D01*
X141502693Y-62959738D01*
X141518295Y-62908705D01*
X141534391Y-62857965D01*
X141534728Y-62854952D01*
X141535617Y-62852048D01*
X141541007Y-62798978D01*
X141546944Y-62746056D01*
X141546985Y-62740130D01*
X141546997Y-62740014D01*
X141546986Y-62739905D01*
X141547000Y-62738000D01*
X141547000Y-60691001D01*
X142665692Y-59572308D01*
X142799691Y-59738969D01*
X143000118Y-59907147D01*
X143229394Y-60033193D01*
X143348222Y-60070887D01*
X143246650Y-60101554D01*
X143015636Y-60224386D01*
X142812880Y-60389749D01*
X142646105Y-60591346D01*
X142521663Y-60821497D01*
X142444294Y-61071435D01*
X142416946Y-61331641D01*
X142440659Y-61592203D01*
X142514530Y-61843198D01*
X142635747Y-62075063D01*
X142799691Y-62278969D01*
X143000118Y-62447147D01*
X143229394Y-62573193D01*
X143269706Y-62585980D01*
X143214864Y-62603414D01*
X142976171Y-62735094D01*
X142767754Y-62910810D01*
X142597622Y-63123810D01*
X142472313Y-63365908D01*
X142403834Y-63591661D01*
X142507268Y-63808000D01*
X143691000Y-63808000D01*
X143691000Y-63788000D01*
X143837000Y-63788000D01*
X143837000Y-63808000D01*
X143857000Y-63808000D01*
X143857000Y-63954000D01*
X143837000Y-63954000D01*
X143837000Y-63974000D01*
X143691000Y-63974000D01*
X143691000Y-63954000D01*
X142507268Y-63954000D01*
X142403834Y-64170339D01*
X142472313Y-64396092D01*
X142597622Y-64638190D01*
X142767754Y-64851190D01*
X142976171Y-65026906D01*
X143214864Y-65158586D01*
X143267405Y-65175287D01*
X143246650Y-65181554D01*
X143015636Y-65304386D01*
X142812880Y-65469749D01*
X142646105Y-65671346D01*
X142521663Y-65901497D01*
X142444294Y-66151435D01*
X142416946Y-66411641D01*
X142440659Y-66672203D01*
X142514530Y-66923198D01*
X142635747Y-67155063D01*
X142799691Y-67358969D01*
X143000118Y-67527147D01*
X143229394Y-67653193D01*
X143348222Y-67690887D01*
X143246650Y-67721554D01*
X143015636Y-67844386D01*
X142812880Y-68009749D01*
X142646105Y-68211346D01*
X142521663Y-68441497D01*
X142444294Y-68691435D01*
X142416946Y-68951641D01*
X142440659Y-69212203D01*
X142514530Y-69463198D01*
X142635747Y-69695063D01*
X142799691Y-69898969D01*
X143000118Y-70067147D01*
X143229394Y-70193193D01*
X143478787Y-70272305D01*
X143738795Y-70301469D01*
X143757513Y-70301600D01*
X143770487Y-70301600D01*
X144030878Y-70276068D01*
X144281350Y-70200446D01*
X144512364Y-70077614D01*
X144715120Y-69912251D01*
X144881895Y-69710654D01*
X145006337Y-69480503D01*
X145033652Y-69392261D01*
X145054530Y-69463198D01*
X145175747Y-69695063D01*
X145339691Y-69898969D01*
X145540118Y-70067147D01*
X145769394Y-70193193D01*
X146018787Y-70272305D01*
X146278795Y-70301469D01*
X146297513Y-70301600D01*
X146310487Y-70301600D01*
X146570878Y-70276068D01*
X146821350Y-70200446D01*
X147052364Y-70077614D01*
X147255120Y-69912251D01*
X147421895Y-69710654D01*
X147546337Y-69480503D01*
X147623706Y-69230565D01*
X147651054Y-68970359D01*
X147627341Y-68709797D01*
X147553470Y-68458802D01*
X147432253Y-68226937D01*
X147268309Y-68023031D01*
X147067882Y-67854853D01*
X146838606Y-67728807D01*
X146719777Y-67691112D01*
X146821350Y-67660446D01*
X147052364Y-67537614D01*
X147255120Y-67372251D01*
X147421895Y-67170654D01*
X147546337Y-66940503D01*
X147623706Y-66690565D01*
X147651054Y-66430359D01*
X147627341Y-66169797D01*
X147553470Y-65918802D01*
X147432253Y-65686937D01*
X147268309Y-65483031D01*
X147067882Y-65314853D01*
X146838606Y-65188807D01*
X146719777Y-65151112D01*
X146821350Y-65120446D01*
X147052364Y-64997614D01*
X147255120Y-64832251D01*
X147421895Y-64630654D01*
X147515248Y-64458000D01*
X147588998Y-64458000D01*
X148267000Y-65136002D01*
X148267000Y-71261998D01*
X140857998Y-78671000D01*
X140476090Y-78671000D01*
X140451675Y-78646414D01*
X140325348Y-78561206D01*
X140184877Y-78502157D01*
X140035612Y-78471517D01*
X139883238Y-78470453D01*
X139733559Y-78499006D01*
X139592277Y-78556088D01*
X139464773Y-78639524D01*
X139355903Y-78746137D01*
X139269815Y-78871866D01*
X139209787Y-79011922D01*
X139178106Y-79160970D01*
X139175978Y-79313332D01*
X139203485Y-79463207D01*
X139259579Y-79604884D01*
X139342123Y-79732967D01*
X139447974Y-79842579D01*
X139573099Y-79929543D01*
X139712732Y-79990547D01*
X139861555Y-80023268D01*
X140013899Y-80026459D01*
X140163962Y-79999999D01*
X140306027Y-79944895D01*
X140434684Y-79863247D01*
X140474847Y-79825000D01*
X141097000Y-79825000D01*
X141150042Y-79819799D01*
X141203140Y-79815153D01*
X141206050Y-79814307D01*
X141209073Y-79814011D01*
X141260123Y-79798598D01*
X141311280Y-79783736D01*
X141313973Y-79782340D01*
X141316878Y-79781463D01*
X141363949Y-79756435D01*
X141411257Y-79731913D01*
X141413627Y-79730020D01*
X141416307Y-79728596D01*
X141457605Y-79694913D01*
X141499265Y-79661657D01*
X141503492Y-79657488D01*
X141503574Y-79657422D01*
X141503636Y-79657346D01*
X141505001Y-79656001D01*
X149252000Y-71909001D01*
X149285808Y-71867841D01*
X149320090Y-71826986D01*
X149321552Y-71824326D01*
X149323477Y-71821983D01*
X149348653Y-71775029D01*
X149374341Y-71728304D01*
X149375258Y-71725411D01*
X149376692Y-71722738D01*
X149383000Y-71702106D01*
X149383000Y-98583000D01*
M02*
