G04 #@! TF.FileFunction,Soldermask,Bot*
%FSLAX46Y46*%
G04 Gerber Fmt 4.6, Leading zero omitted, Abs format (unit mm)*
G04 Created by KiCad (PCBNEW (after 2015-mar-04 BZR unknown)-product) date 10/04/2015 18:40:57*
%MOMM*%
G01*
G04 APERTURE LIST*
%ADD10C,0.100000*%
%ADD11R,1.727200X1.727200*%
%ADD12O,1.727200X1.727200*%
%ADD13R,2.032000X1.727200*%
%ADD14O,2.032000X1.727200*%
%ADD15R,1.700000X2.000000*%
%ADD16R,1.397000X1.397000*%
%ADD17C,1.397000*%
%ADD18C,1.000760*%
G04 APERTURE END LIST*
D10*
D11*
X143764000Y-53721000D03*
D12*
X146304000Y-53721000D03*
X143764000Y-56261000D03*
X146304000Y-56261000D03*
X143764000Y-58801000D03*
X146304000Y-58801000D03*
X143764000Y-61341000D03*
X146304000Y-61341000D03*
X143764000Y-63881000D03*
X146304000Y-63881000D03*
X143764000Y-66421000D03*
X146304000Y-66421000D03*
X143764000Y-68961000D03*
X146304000Y-68961000D03*
D13*
X127254000Y-52832000D03*
D14*
X127254000Y-55372000D03*
X127254000Y-57912000D03*
X127254000Y-60452000D03*
D13*
X135255000Y-53721000D03*
D14*
X135255000Y-56261000D03*
X135255000Y-58801000D03*
X135255000Y-61341000D03*
X135255000Y-63881000D03*
X135255000Y-66421000D03*
D15*
X121666000Y-56864000D03*
X121666000Y-52864000D03*
D16*
X113284000Y-61214000D03*
D17*
X113284000Y-63754000D03*
X113284000Y-66294000D03*
X113284000Y-68834000D03*
X113284000Y-71374000D03*
X113284000Y-73914000D03*
X113284000Y-76454000D03*
X113284000Y-78994000D03*
X113284000Y-81534000D03*
X113284000Y-84074000D03*
X120904000Y-84074000D03*
X120904000Y-81534000D03*
X120904000Y-78994000D03*
X120904000Y-76454000D03*
X120904000Y-73914000D03*
X120904000Y-71374000D03*
X120904000Y-68834000D03*
X120904000Y-66294000D03*
X120904000Y-63754000D03*
X120904000Y-61214000D03*
D11*
X146558000Y-95504000D03*
D12*
X144018000Y-95504000D03*
X146558000Y-92964000D03*
X144018000Y-92964000D03*
X146558000Y-90424000D03*
X144018000Y-90424000D03*
X146558000Y-87884000D03*
X144018000Y-87884000D03*
D16*
X128016000Y-76454000D03*
D17*
X128016000Y-78994000D03*
X128016000Y-81534000D03*
X128016000Y-84074000D03*
X135636000Y-84074000D03*
X135636000Y-81534000D03*
X135636000Y-78994000D03*
X135636000Y-76454000D03*
D18*
X122936000Y-64274700D03*
X122936000Y-65773300D03*
M02*
